G04*
G04 #@! TF.GenerationSoftware,Altium Limited,Altium Designer,20.1.8 (145)*
G04*
G04 Layer_Color=65535*
%FSLAX44Y44*%
%MOMM*%
G71*
G04*
G04 #@! TF.SameCoordinates,568C9F0A-B5E7-4BA1-9C17-04FCD828D7CB*
G04*
G04*
G04 #@! TF.FilePolarity,Positive*
G04*
G01*
G75*
%ADD10C,0.1270*%
%ADD11C,0.2000*%
%ADD12C,0.2540*%
D10*
X781652Y723966D02*
G03*
X781652Y723966I-4318J0D01*
G01*
X780751D02*
G03*
X780751Y723966I-3417J0D01*
G01*
X780034D02*
G03*
X780034Y723966I-2700J0D01*
G01*
X779130D02*
G03*
X779130Y723966I-1796J0D01*
G01*
X778391Y723712D02*
G03*
X778391Y723712I-803J0D01*
G01*
X778053Y724982D02*
G03*
X778053Y724982I-1481J0D01*
G01*
X777755Y723712D02*
G03*
X777755Y723712I-1437J0D01*
G01*
X758556Y738444D02*
G03*
X758556Y738444I-1796J0D01*
G01*
X757896Y738698D02*
G03*
X757896Y738698I-1136J0D01*
G01*
X757328D02*
G03*
X757328Y738698I-568J0D01*
G01*
D11*
X768130Y733860D02*
X824130D01*
Y541860D02*
Y733860D01*
X768130Y541860D02*
X824130D01*
X768130D02*
Y733860D01*
X891380Y739875D02*
X916780D01*
Y562075D02*
Y739875D01*
X891380Y562075D02*
X916780D01*
X891380D02*
Y739875D01*
X674210Y536675D02*
Y739875D01*
Y536675D02*
X699610D01*
Y739875D01*
X674210D02*
X699610D01*
X821530Y486570D02*
Y511970D01*
X770730Y486570D02*
X821530D01*
X770730D02*
Y511970D01*
X821530D01*
D12*
X932020Y722950D02*
Y733107D01*
X937098Y738185D01*
X942177Y733107D01*
Y722950D01*
Y730568D01*
X932020D01*
X954873Y738185D02*
X949794D01*
X947255Y735646D01*
Y725489D01*
X949794Y722950D01*
X954873D01*
X957412Y725489D01*
Y735646D01*
X954873Y738185D01*
X962490D02*
Y725489D01*
X965029Y722950D01*
X970108D01*
X972647Y725489D01*
Y738185D01*
X977725D02*
X987882D01*
X982804D01*
Y722950D01*
X932020Y710880D02*
Y695645D01*
X939638D01*
X942177Y698184D01*
Y700723D01*
X939638Y703263D01*
X932020D01*
X939638D01*
X942177Y705802D01*
Y708341D01*
X939638Y710880D01*
X932020D01*
X954873D02*
X949794D01*
X947255Y708341D01*
Y698184D01*
X949794Y695645D01*
X954873D01*
X957412Y698184D01*
Y708341D01*
X954873Y710880D01*
X962490D02*
Y698184D01*
X965029Y695645D01*
X970108D01*
X972647Y698184D01*
Y710880D01*
X977725D02*
X987882D01*
X982804D01*
Y695645D01*
X942177Y681036D02*
X939638Y683575D01*
X934559D01*
X932020Y681036D01*
Y670879D01*
X934559Y668340D01*
X939638D01*
X942177Y670879D01*
X954873Y683575D02*
X949794D01*
X947255Y681036D01*
Y670879D01*
X949794Y668340D01*
X954873D01*
X957412Y670879D01*
Y681036D01*
X954873Y683575D01*
X962490D02*
Y670879D01*
X965029Y668340D01*
X970108D01*
X972647Y670879D01*
Y683575D01*
X977725D02*
X987882D01*
X982804D01*
Y668340D01*
X932020Y656270D02*
Y641035D01*
X939638D01*
X942177Y643574D01*
Y653731D01*
X939638Y656270D01*
X932020D01*
X954873D02*
X949794D01*
X947255Y653731D01*
Y643574D01*
X949794Y641035D01*
X954873D01*
X957412Y643574D01*
Y653731D01*
X954873Y656270D01*
X962490D02*
Y643574D01*
X965029Y641035D01*
X970108D01*
X972647Y643574D01*
Y656270D01*
X977725D02*
X987882D01*
X982804D01*
Y641035D01*
X942177Y628965D02*
X932020D01*
Y613730D01*
X942177D01*
X932020Y621348D02*
X937098D01*
X954873Y628965D02*
X949794D01*
X947255Y626426D01*
Y616269D01*
X949794Y613730D01*
X954873D01*
X957412Y616269D01*
Y626426D01*
X954873Y628965D01*
X962490D02*
Y616269D01*
X965029Y613730D01*
X970108D01*
X972647Y616269D01*
Y628965D01*
X977725D02*
X987882D01*
X982804D01*
Y613730D01*
X942177Y601660D02*
X932020D01*
Y594043D01*
X937098D01*
X932020D01*
Y586425D01*
X954873Y601660D02*
X949794D01*
X947255Y599121D01*
Y588964D01*
X949794Y586425D01*
X954873D01*
X957412Y588964D01*
Y599121D01*
X954873Y601660D01*
X962490D02*
Y588964D01*
X965029Y586425D01*
X970108D01*
X972647Y588964D01*
Y601660D01*
X977725D02*
X987882D01*
X982804D01*
Y586425D01*
X942177Y571816D02*
X939638Y574355D01*
X934559D01*
X932020Y571816D01*
Y561659D01*
X934559Y559120D01*
X939638D01*
X942177Y561659D01*
Y566738D01*
X937098D01*
X947255Y559120D02*
Y574355D01*
X957412Y559120D01*
Y574355D01*
X962490D02*
Y559120D01*
X970108D01*
X972647Y561659D01*
Y571816D01*
X970108Y574355D01*
X962490D01*
X633567Y682669D02*
X631027Y685208D01*
X625949D01*
X623410Y682669D01*
Y672512D01*
X625949Y669973D01*
X631027D01*
X633567Y672512D01*
X638645Y685208D02*
X643723D01*
X641184D01*
Y669973D01*
X638645D01*
X643723D01*
X651341D02*
Y685208D01*
X661498Y669973D01*
Y685208D01*
X633567Y550226D02*
X631027Y552765D01*
X625949D01*
X623410Y550226D01*
Y540069D01*
X625949Y537530D01*
X631027D01*
X633567Y540069D01*
Y545148D01*
X628488D01*
X638645Y537530D02*
Y552765D01*
X648802Y537530D01*
Y552765D01*
X653880D02*
Y537530D01*
X661498D01*
X664037Y540069D01*
Y550226D01*
X661498Y552765D01*
X653880D01*
X623410Y579254D02*
Y569097D01*
X628488Y564019D01*
X633567Y569097D01*
Y579254D01*
X648802Y576715D02*
X646263Y579254D01*
X641184D01*
X638645Y576715D01*
Y566558D01*
X641184Y564019D01*
X646263D01*
X648802Y566558D01*
X664037Y576715D02*
X661498Y579254D01*
X656419D01*
X653880Y576715D01*
Y566558D01*
X656419Y564019D01*
X661498D01*
X664037Y566558D01*
X633567Y605742D02*
X623410D01*
Y598125D01*
X628488D01*
X623410D01*
Y590507D01*
X638645Y605742D02*
X643723D01*
X641184D01*
Y590507D01*
X638645D01*
X643723D01*
X651341D02*
Y605742D01*
X661498Y590507D01*
Y605742D01*
X633567Y632231D02*
X623410D01*
Y616996D01*
X633567D01*
X623410Y624613D02*
X628488D01*
X638645Y632231D02*
X643723D01*
X641184D01*
Y616996D01*
X638645D01*
X643723D01*
X651341D02*
Y632231D01*
X661498Y616996D01*
Y632231D01*
X623410Y658719D02*
Y643484D01*
X631027D01*
X633567Y646023D01*
Y656180D01*
X631027Y658719D01*
X623410D01*
X638645D02*
X643723D01*
X641184D01*
Y643484D01*
X638645D01*
X643723D01*
X651341D02*
Y658719D01*
X661498Y643484D01*
Y658719D01*
X623410Y711696D02*
Y696461D01*
X631027D01*
X633567Y699001D01*
Y701540D01*
X631027Y704079D01*
X623410D01*
X631027D01*
X633567Y706618D01*
Y709157D01*
X631027Y711696D01*
X623410D01*
X638645D02*
X643723D01*
X641184D01*
Y696461D01*
X638645D01*
X643723D01*
X651341D02*
Y711696D01*
X661498Y696461D01*
Y711696D01*
X623410Y722950D02*
Y733107D01*
X628488Y738185D01*
X633567Y733107D01*
Y722950D01*
Y730567D01*
X623410D01*
X638645Y738185D02*
X643723D01*
X641184D01*
Y722950D01*
X638645D01*
X643723D01*
X651341D02*
Y738185D01*
X661498Y722950D01*
Y738185D01*
X783433Y767398D02*
Y754702D01*
X785973Y752162D01*
X791051D01*
X793590Y754702D01*
Y767398D01*
X798668Y752162D02*
X803747D01*
X801208D01*
Y767398D01*
X798668Y764858D01*
X892810Y748444D02*
Y763679D01*
X900427D01*
X902967Y761140D01*
Y756062D01*
X900427Y753522D01*
X892810D01*
X918202Y748444D02*
X908045D01*
X918202Y758601D01*
Y761140D01*
X915663Y763679D01*
X910584D01*
X908045Y761140D01*
X675640Y748444D02*
Y763679D01*
X683258D01*
X685797Y761140D01*
Y756062D01*
X683258Y753522D01*
X675640D01*
X690875Y748444D02*
X695953D01*
X693414D01*
Y763679D01*
X690875Y761140D01*
X744060Y508158D02*
X741521Y510698D01*
X736442D01*
X733903Y508158D01*
Y498002D01*
X736442Y495462D01*
X741521D01*
X744060Y498002D01*
X749138Y495462D02*
X754217D01*
X751678D01*
Y510698D01*
X749138Y508158D01*
M02*
