%TF.GenerationSoftware,Altium Limited,Altium Designer,20.1.8 (145)*%
G04 Layer_Physical_Order=1*
G04 Layer_Color=255*
%FSLAX43Y43*%
%MOMM*%
%TF.SameCoordinates,AF84363C-28A1-45D9-8252-6D2C0F04BFE8*%
%TF.FilePolarity,Positive*%
%TF.FileFunction,Copper,L1,Top,Signal*%
%TF.Part,Single*%
G01*
G75*
%TA.AperFunction,Conductor*%
%ADD10C,0.457*%
%TA.AperFunction,ComponentPad*%
%ADD11C,1.500*%
%ADD12R,1.500X1.500*%
%ADD13C,1.800*%
%ADD14C,3.200*%
D10*
X31710Y8990D02*
X31750Y8950D01*
X52030Y69950D02*
Y82450D01*
Y62130D02*
Y69950D01*
Y49630D02*
Y62130D01*
Y41810D02*
Y49630D01*
Y29310D02*
Y41810D01*
Y21490D02*
Y29310D01*
Y8990D02*
Y21490D01*
Y8990D02*
X52070Y8950D01*
Y6350D02*
Y8950D01*
Y6350D02*
X53340Y5080D01*
X71120D01*
X72350Y6310D02*
Y8990D01*
X71120Y5080D02*
X72350Y6310D01*
X67350Y69950D02*
Y82450D01*
X47030Y8990D02*
Y21490D01*
Y69950D02*
Y82450D01*
X72350Y8990D02*
Y21490D01*
Y29310D01*
Y41810D01*
Y49630D01*
Y62130D01*
Y69950D01*
Y82450D01*
X59670Y90170D02*
X64630D01*
X72350Y82450D01*
X67310Y82490D02*
X67350Y82450D01*
X67310Y82490D02*
Y83820D01*
X66040Y85090D02*
X67310Y83820D01*
X49510Y90170D02*
X54590Y85090D01*
X66040D01*
X47030Y21490D02*
X49530Y23990D01*
X46970Y90170D02*
X49530Y87610D01*
Y23990D02*
Y87610D01*
X46990Y82490D02*
X47030Y82450D01*
X46990Y82490D02*
Y85090D01*
X40640Y86360D02*
X45720D01*
X46990Y85090D01*
X39370Y87630D02*
X40640Y86360D01*
X39370Y87630D02*
Y90150D01*
X39350Y90170D02*
X39370Y90150D01*
X26710Y8990D02*
Y21490D01*
Y29310D02*
Y41810D01*
Y49630D02*
Y62130D01*
Y69950D02*
Y82450D01*
X6390Y8990D02*
Y21490D01*
Y29310D02*
Y41810D01*
X6350Y62424D02*
X6517Y62257D01*
X6390Y49630D02*
Y62130D01*
Y69950D02*
Y82450D01*
X39350Y90150D02*
Y90170D01*
X26670Y21530D02*
X26710Y21490D01*
X26670Y21530D02*
Y24130D01*
X27940Y25400D01*
X34290D01*
X36810Y27920D02*
Y90170D01*
X34290Y25400D02*
X36810Y27920D01*
X26670Y41850D02*
X26710Y41810D01*
X26670Y41850D02*
Y44450D01*
X27940Y45720D01*
X33020D01*
X34290Y46990D01*
Y90150D01*
X34270Y90170D02*
X34290Y90150D01*
X26710Y62130D02*
X29210Y64630D01*
Y82550D01*
X31730Y85070D02*
Y90170D01*
X29210Y82550D02*
X31730Y85070D01*
X29190Y84930D02*
Y90170D01*
X26710Y82450D02*
X29190Y84930D01*
X6350Y21530D02*
X6390Y21490D01*
X6350Y21530D02*
Y24130D01*
X7620Y25400D01*
X12700D01*
X19050Y31750D01*
Y82570D02*
X26650Y90170D01*
X19050Y31750D02*
Y82570D01*
X6350Y41850D02*
Y45720D01*
Y41850D02*
X6390Y41810D01*
X6350Y45720D02*
X7620Y46990D01*
X15240D01*
X17780Y49530D01*
Y83820D02*
X24130Y90170D01*
X17780Y49530D02*
Y83820D01*
X6350Y62424D02*
Y66040D01*
X7620Y67310D01*
X15240D01*
X16510Y68580D02*
Y85090D01*
X15240Y67310D02*
X16510Y68580D01*
Y85090D02*
X21590Y90170D01*
X6517Y87797D02*
X8890Y90170D01*
X6517Y82577D02*
Y87797D01*
X8890Y90170D02*
X19050D01*
D11*
X59670D02*
D03*
X54590D02*
D03*
X57130D02*
D03*
X46970D02*
D03*
X49510D02*
D03*
X52050D02*
D03*
X39350D02*
D03*
X41890D02*
D03*
X44430D02*
D03*
X31730D02*
D03*
X34270D02*
D03*
X36810D02*
D03*
X24110D02*
D03*
X21570D02*
D03*
X26650D02*
D03*
X29190D02*
D03*
D12*
X19030D02*
D03*
D13*
X31710Y82450D02*
D03*
Y69950D02*
D03*
X26710Y82450D02*
D03*
Y69950D02*
D03*
X67350Y8990D02*
D03*
Y21490D02*
D03*
X72350Y8990D02*
D03*
Y21490D02*
D03*
X67350Y29310D02*
D03*
Y41810D02*
D03*
X72350Y29310D02*
D03*
Y41810D02*
D03*
X67350Y49630D02*
D03*
Y62130D02*
D03*
X72350Y49630D02*
D03*
Y62130D02*
D03*
X67350Y69950D02*
D03*
Y82450D02*
D03*
X72350Y69950D02*
D03*
Y82450D02*
D03*
X47030Y8990D02*
D03*
Y21490D02*
D03*
X52030Y8990D02*
D03*
Y21490D02*
D03*
X47030Y29310D02*
D03*
Y41810D02*
D03*
X52030Y29310D02*
D03*
Y41810D02*
D03*
X47030Y49630D02*
D03*
Y62130D02*
D03*
X52030Y49630D02*
D03*
Y62130D02*
D03*
X47030Y69950D02*
D03*
Y82450D02*
D03*
X52030Y69950D02*
D03*
Y82450D02*
D03*
X26710Y8990D02*
D03*
Y21490D02*
D03*
X31710Y8990D02*
D03*
Y21490D02*
D03*
X26710Y29310D02*
D03*
Y41810D02*
D03*
X31710Y29310D02*
D03*
Y41810D02*
D03*
X26710Y49630D02*
D03*
Y62130D02*
D03*
X31710Y49630D02*
D03*
Y62130D02*
D03*
X6390Y8990D02*
D03*
Y21490D02*
D03*
X11390Y8990D02*
D03*
Y21490D02*
D03*
X6390Y29310D02*
D03*
Y41810D02*
D03*
X11390Y29310D02*
D03*
Y41810D02*
D03*
X6390Y49630D02*
D03*
Y62130D02*
D03*
X11390Y49630D02*
D03*
Y62130D02*
D03*
X6390Y69950D02*
D03*
Y82450D02*
D03*
X11390Y69950D02*
D03*
Y82450D02*
D03*
D14*
X3810Y3810D02*
D03*
X74930D02*
D03*
Y92710D02*
D03*
X3810D02*
D03*
%TF.MD5,4ff8c65cb9b8ff6e945536594f57a5de*%
M02*
