%TF.GenerationSoftware,Altium Limited,Altium Designer,20.1.8 (145)*%
G04 Layer_Color=65535*
%FSLAX43Y43*%
%MOMM*%
%TF.SameCoordinates,AF84363C-28A1-45D9-8252-6D2C0F04BFE8*%
%TF.FilePolarity,Positive*%
%TF.FileFunction,Legend,Top*%
%TF.Part,Single*%
G01*
G75*
%TA.AperFunction,NonConductor*%
%ADD20C,0.127*%
%ADD21C,0.200*%
%ADD22C,0.254*%
D20*
X32710Y76200D02*
G03*
X32710Y76200I-3500J0D01*
G01*
X73350Y15240D02*
G03*
X73350Y15240I-3500J0D01*
G01*
Y35560D02*
G03*
X73350Y35560I-3500J0D01*
G01*
Y55880D02*
G03*
X73350Y55880I-3500J0D01*
G01*
Y76200D02*
G03*
X73350Y76200I-3500J0D01*
G01*
X53030Y15240D02*
G03*
X53030Y15240I-3500J0D01*
G01*
Y35560D02*
G03*
X53030Y35560I-3500J0D01*
G01*
Y55880D02*
G03*
X53030Y55880I-3500J0D01*
G01*
Y76200D02*
G03*
X53030Y76200I-3500J0D01*
G01*
X32710Y15240D02*
G03*
X32710Y15240I-3500J0D01*
G01*
Y35560D02*
G03*
X32710Y35560I-3500J0D01*
G01*
Y55880D02*
G03*
X32710Y55880I-3500J0D01*
G01*
X12390Y15240D02*
G03*
X12390Y15240I-3500J0D01*
G01*
Y35560D02*
G03*
X12390Y35560I-3500J0D01*
G01*
Y55880D02*
G03*
X12390Y55880I-3500J0D01*
G01*
Y76200D02*
G03*
X12390Y76200I-3500J0D01*
G01*
X23210Y70200D02*
Y82200D01*
X35210Y70200D02*
Y82200D01*
X23210Y70200D02*
Y82200D01*
X35210Y70200D02*
Y82200D01*
X32960Y82200D02*
X35210D01*
X23210D02*
X25460D01*
X32960Y70200D02*
X35210D01*
X23210D02*
X25460D01*
X27960D02*
X30460D01*
X27960Y82200D02*
X30460D01*
X68600Y21240D02*
X71100D01*
X68600Y9240D02*
X71100D01*
X63850D02*
X66100D01*
X73600D02*
X75850D01*
X63850Y21240D02*
X66100D01*
X73600D02*
X75850D01*
Y9240D02*
Y21240D01*
X63850Y9240D02*
Y21240D01*
X75850Y9240D02*
Y21240D01*
X63850Y9240D02*
Y21240D01*
X68600Y41560D02*
X71100D01*
X68600Y29560D02*
X71100D01*
X63850D02*
X66100D01*
X73600D02*
X75850D01*
X63850Y41560D02*
X66100D01*
X73600D02*
X75850D01*
Y29560D02*
Y41560D01*
X63850Y29560D02*
Y41560D01*
X75850Y29560D02*
Y41560D01*
X63850Y29560D02*
Y41560D01*
X68600Y61880D02*
X71100D01*
X68600Y49880D02*
X71100D01*
X63850D02*
X66100D01*
X73600D02*
X75850D01*
X63850Y61880D02*
X66100D01*
X73600D02*
X75850D01*
Y49880D02*
Y61880D01*
X63850Y49880D02*
Y61880D01*
X75850Y49880D02*
Y61880D01*
X63850Y49880D02*
Y61880D01*
X68600Y82200D02*
X71100D01*
X68600Y70200D02*
X71100D01*
X63850D02*
X66100D01*
X73600D02*
X75850D01*
X63850Y82200D02*
X66100D01*
X73600D02*
X75850D01*
Y70200D02*
Y82200D01*
X63850Y70200D02*
Y82200D01*
X75850Y70200D02*
Y82200D01*
X63850Y70200D02*
Y82200D01*
X48280Y21240D02*
X50780D01*
X48280Y9240D02*
X50780D01*
X43530D02*
X45780D01*
X53280D02*
X55530D01*
X43530Y21240D02*
X45780D01*
X53280D02*
X55530D01*
Y9240D02*
Y21240D01*
X43530Y9240D02*
Y21240D01*
X55530Y9240D02*
Y21240D01*
X43530Y9240D02*
Y21240D01*
X48280Y41560D02*
X50780D01*
X48280Y29560D02*
X50780D01*
X43530D02*
X45780D01*
X53280D02*
X55530D01*
X43530Y41560D02*
X45780D01*
X53280D02*
X55530D01*
Y29560D02*
Y41560D01*
X43530Y29560D02*
Y41560D01*
X55530Y29560D02*
Y41560D01*
X43530Y29560D02*
Y41560D01*
X48280Y61880D02*
X50780D01*
X48280Y49880D02*
X50780D01*
X43530D02*
X45780D01*
X53280D02*
X55530D01*
X43530Y61880D02*
X45780D01*
X53280D02*
X55530D01*
Y49880D02*
Y61880D01*
X43530Y49880D02*
Y61880D01*
X55530Y49880D02*
Y61880D01*
X43530Y49880D02*
Y61880D01*
X48280Y82200D02*
X50780D01*
X48280Y70200D02*
X50780D01*
X43530D02*
X45780D01*
X53280D02*
X55530D01*
X43530Y82200D02*
X45780D01*
X53280D02*
X55530D01*
Y70200D02*
Y82200D01*
X43530Y70200D02*
Y82200D01*
X55530Y70200D02*
Y82200D01*
X43530Y70200D02*
Y82200D01*
X27960Y21240D02*
X30460D01*
X27960Y9240D02*
X30460D01*
X23210D02*
X25460D01*
X32960D02*
X35210D01*
X23210Y21240D02*
X25460D01*
X32960D02*
X35210D01*
Y9240D02*
Y21240D01*
X23210Y9240D02*
Y21240D01*
X35210Y9240D02*
Y21240D01*
X23210Y9240D02*
Y21240D01*
X27960Y41560D02*
X30460D01*
X27960Y29560D02*
X30460D01*
X23210D02*
X25460D01*
X32960D02*
X35210D01*
X23210Y41560D02*
X25460D01*
X32960D02*
X35210D01*
Y29560D02*
Y41560D01*
X23210Y29560D02*
Y41560D01*
X35210Y29560D02*
Y41560D01*
X23210Y29560D02*
Y41560D01*
X27960Y61880D02*
X30460D01*
X27960Y49880D02*
X30460D01*
X23210D02*
X25460D01*
X32960D02*
X35210D01*
X23210Y61880D02*
X25460D01*
X32960D02*
X35210D01*
Y49880D02*
Y61880D01*
X23210Y49880D02*
Y61880D01*
X35210Y49880D02*
Y61880D01*
X23210Y49880D02*
Y61880D01*
X7640Y21240D02*
X10140D01*
X7640Y9240D02*
X10140D01*
X2890D02*
X5140D01*
X12640D02*
X14890D01*
X2890Y21240D02*
X5140D01*
X12640D02*
X14890D01*
Y9240D02*
Y21240D01*
X2890Y9240D02*
Y21240D01*
X14890Y9240D02*
Y21240D01*
X2890Y9240D02*
Y21240D01*
X7640Y41560D02*
X10140D01*
X7640Y29560D02*
X10140D01*
X2890D02*
X5140D01*
X12640D02*
X14890D01*
X2890Y41560D02*
X5140D01*
X12640D02*
X14890D01*
Y29560D02*
Y41560D01*
X2890Y29560D02*
Y41560D01*
X14890Y29560D02*
Y41560D01*
X2890Y29560D02*
Y41560D01*
X7640Y61880D02*
X10140D01*
X7640Y49880D02*
X10140D01*
X2890D02*
X5140D01*
X12640D02*
X14890D01*
X2890Y61880D02*
X5140D01*
X12640D02*
X14890D01*
Y49880D02*
Y61880D01*
X2890Y49880D02*
Y61880D01*
X14890Y49880D02*
Y61880D01*
X2890Y49880D02*
Y61880D01*
X7640Y82200D02*
X10140D01*
X7640Y70200D02*
X10140D01*
X2890D02*
X5140D01*
X12640D02*
X14890D01*
X2890Y82200D02*
X5140D01*
X12640D02*
X14890D01*
Y70200D02*
Y82200D01*
X2890Y70200D02*
Y82200D01*
X14890Y70200D02*
Y82200D01*
X2890Y70200D02*
Y82200D01*
D21*
X60960Y88900D02*
Y91440D01*
X17760Y88900D02*
X60960D01*
X17760D02*
Y91440D01*
X60960D01*
X59429Y92904D02*
X59229Y92704D01*
Y92304D01*
X59429Y92104D01*
X60229D01*
X60429Y92304D01*
Y92704D01*
X60229Y92904D01*
X59829D01*
Y92504D01*
X60429Y93304D02*
X59229D01*
X60429Y94104D01*
X59229D01*
Y94503D02*
X60429D01*
Y95103D01*
X60229Y95303D01*
X59429D01*
X59229Y95103D01*
Y94503D01*
X56630Y92170D02*
X57830D01*
Y92770D01*
X57630Y92970D01*
X57430D01*
X57230Y92770D01*
Y92170D01*
Y92770D01*
X57030Y92970D01*
X56830D01*
X56630Y92770D01*
Y92170D01*
X57830Y93370D02*
Y93769D01*
Y93570D01*
X56630D01*
X56830Y93370D01*
X56630Y95169D02*
X56830Y94769D01*
X57230Y94369D01*
X57630D01*
X57830Y94569D01*
Y94969D01*
X57630Y95169D01*
X57430D01*
X57230Y94969D01*
Y94369D01*
X54030Y92170D02*
X55230D01*
Y92770D01*
X55030Y92970D01*
X54830D01*
X54630Y92770D01*
Y92170D01*
Y92770D01*
X54430Y92970D01*
X54230D01*
X54030Y92770D01*
Y92170D01*
X55230Y93370D02*
Y93769D01*
Y93570D01*
X54030D01*
X54230Y93370D01*
X54030Y95169D02*
Y94369D01*
X54630D01*
X54430Y94769D01*
Y94969D01*
X54630Y95169D01*
X55030D01*
X55230Y94969D01*
Y94569D01*
X55030Y94369D01*
X51430Y92170D02*
X52630D01*
Y92770D01*
X52430Y92970D01*
X52230D01*
X52030Y92770D01*
Y92170D01*
Y92770D01*
X51830Y92970D01*
X51630D01*
X51430Y92770D01*
Y92170D01*
X52630Y93370D02*
Y93769D01*
Y93570D01*
X51430D01*
X51630Y93370D01*
X52630Y94969D02*
X51430D01*
X52030Y94369D01*
Y95169D01*
X48830Y92170D02*
X50030D01*
Y92770D01*
X49830Y92970D01*
X49630D01*
X49430Y92770D01*
Y92170D01*
Y92770D01*
X49230Y92970D01*
X49030D01*
X48830Y92770D01*
Y92170D01*
X50030Y93370D02*
Y93769D01*
Y93570D01*
X48830D01*
X49030Y93370D01*
Y94369D02*
X48830Y94569D01*
Y94969D01*
X49030Y95169D01*
X49230D01*
X49430Y94969D01*
Y94769D01*
Y94969D01*
X49630Y95169D01*
X49830D01*
X50030Y94969D01*
Y94569D01*
X49830Y94369D01*
X43630Y92170D02*
X44830D01*
Y92770D01*
X44630Y92970D01*
X44430D01*
X44230Y92770D01*
Y92170D01*
Y92770D01*
X44030Y92970D01*
X43830D01*
X43630Y92770D01*
Y92170D01*
X44830Y93370D02*
Y93769D01*
Y93570D01*
X43630D01*
X43830Y93370D01*
X44830Y94369D02*
Y94769D01*
Y94569D01*
X43630D01*
X43830Y94369D01*
X46230Y92170D02*
X47430D01*
Y92770D01*
X47230Y92970D01*
X47030D01*
X46830Y92770D01*
Y92170D01*
Y92770D01*
X46630Y92970D01*
X46430D01*
X46230Y92770D01*
Y92170D01*
X47430Y93370D02*
Y93769D01*
Y93570D01*
X46230D01*
X46430Y93370D01*
X47430Y95169D02*
Y94369D01*
X46630Y95169D01*
X46430D01*
X46230Y94969D01*
Y94569D01*
X46430Y94369D01*
X38830Y92170D02*
X40030D01*
Y92770D01*
X39830Y92970D01*
X39630D01*
X39430Y92770D01*
Y92170D01*
Y92770D01*
X39230Y92970D01*
X39030D01*
X38830Y92770D01*
Y92170D01*
X39830Y93370D02*
X40030Y93570D01*
Y93969D01*
X39830Y94169D01*
X39030D01*
X38830Y93969D01*
Y93570D01*
X39030Y93370D01*
X39230D01*
X39430Y93570D01*
Y94169D01*
X41230Y92170D02*
X42430D01*
Y92770D01*
X42230Y92970D01*
X42030D01*
X41830Y92770D01*
Y92170D01*
Y92770D01*
X41630Y92970D01*
X41430D01*
X41230Y92770D01*
Y92170D01*
X42430Y93370D02*
Y93769D01*
Y93570D01*
X41230D01*
X41430Y93370D01*
Y94369D02*
X41230Y94569D01*
Y94969D01*
X41430Y95169D01*
X42230D01*
X42430Y94969D01*
Y94569D01*
X42230Y94369D01*
X41430D01*
X36230Y92170D02*
X37430D01*
Y92770D01*
X37230Y92970D01*
X37030D01*
X36830Y92770D01*
Y92170D01*
Y92770D01*
X36630Y92970D01*
X36430D01*
X36230Y92770D01*
Y92170D01*
X36430Y93370D02*
X36230Y93570D01*
Y93969D01*
X36430Y94169D01*
X36630D01*
X36830Y93969D01*
X37030Y94169D01*
X37230D01*
X37430Y93969D01*
Y93570D01*
X37230Y93370D01*
X37030D01*
X36830Y93570D01*
X36630Y93370D01*
X36430D01*
X36830Y93570D02*
Y93969D01*
X31030Y92170D02*
X32230D01*
Y92770D01*
X32030Y92970D01*
X31830D01*
X31630Y92770D01*
Y92170D01*
Y92770D01*
X31430Y92970D01*
X31230D01*
X31030Y92770D01*
Y92170D01*
Y94169D02*
X31230Y93769D01*
X31630Y93370D01*
X32030D01*
X32230Y93570D01*
Y93969D01*
X32030Y94169D01*
X31830D01*
X31630Y93969D01*
Y93370D01*
X33630Y92170D02*
X34830D01*
Y92770D01*
X34630Y92970D01*
X34430D01*
X34230Y92770D01*
Y92170D01*
Y92770D01*
X34030Y92970D01*
X33830D01*
X33630Y92770D01*
Y92170D01*
Y93370D02*
Y94169D01*
X33830D01*
X34630Y93370D01*
X34830D01*
X26030Y92170D02*
X27230D01*
Y92770D01*
X27030Y92970D01*
X26830D01*
X26630Y92770D01*
Y92170D01*
Y92770D01*
X26430Y92970D01*
X26230D01*
X26030Y92770D01*
Y92170D01*
X27230Y93969D02*
X26030D01*
X26630Y93370D01*
Y94169D01*
X28630Y92170D02*
X29830D01*
Y92770D01*
X29630Y92970D01*
X29430D01*
X29230Y92770D01*
Y92170D01*
Y92770D01*
X29030Y92970D01*
X28830D01*
X28630Y92770D01*
Y92170D01*
Y94169D02*
Y93370D01*
X29230D01*
X29030Y93769D01*
Y93969D01*
X29230Y94169D01*
X29630D01*
X29830Y93969D01*
Y93570D01*
X29630Y93370D01*
X23630Y92170D02*
X24830D01*
Y92770D01*
X24630Y92970D01*
X24430D01*
X24230Y92770D01*
Y92170D01*
Y92770D01*
X24030Y92970D01*
X23830D01*
X23630Y92770D01*
Y92170D01*
X23830Y93370D02*
X23630Y93570D01*
Y93969D01*
X23830Y94169D01*
X24030D01*
X24230Y93969D01*
Y93769D01*
Y93969D01*
X24430Y94169D01*
X24630D01*
X24830Y93969D01*
Y93570D01*
X24630Y93370D01*
X18430Y92170D02*
X19630D01*
Y92770D01*
X19430Y92970D01*
X19230D01*
X19030Y92770D01*
Y92170D01*
Y92770D01*
X18830Y92970D01*
X18630D01*
X18430Y92770D01*
Y92170D01*
X19630Y93370D02*
Y93769D01*
Y93570D01*
X18430D01*
X18630Y93370D01*
X21030Y92170D02*
X22230D01*
Y92770D01*
X22030Y92970D01*
X21830D01*
X21630Y92770D01*
Y92170D01*
Y92770D01*
X21430Y92970D01*
X21230D01*
X21030Y92770D01*
Y92170D01*
X22230Y94169D02*
Y93370D01*
X21430Y94169D01*
X21230D01*
X21030Y93969D01*
Y93570D01*
X21230Y93370D01*
X32210Y80835D02*
X30940D01*
X31575Y80200D01*
Y81046D01*
X31152Y71200D02*
X30940Y71412D01*
Y71835D01*
X31152Y72046D01*
X31364D01*
X31575Y71835D01*
Y71623D01*
Y71835D01*
X31787Y72046D01*
X31998D01*
X32210Y71835D01*
Y71412D01*
X31998Y71200D01*
X27210Y81046D02*
Y80200D01*
X26364Y81046D01*
X26152D01*
X25940Y80835D01*
Y80412D01*
X26152Y80200D01*
X27210Y71200D02*
Y71623D01*
Y71412D01*
X25940D01*
X26152Y71200D01*
X67850Y10240D02*
Y10663D01*
Y10452D01*
X66580D01*
X66792Y10240D01*
X67850Y20086D02*
Y19240D01*
X67004Y20086D01*
X66792D01*
X66580Y19875D01*
Y19452D01*
X66792Y19240D01*
X71792Y10240D02*
X71580Y10452D01*
Y10875D01*
X71792Y11086D01*
X72004D01*
X72215Y10875D01*
Y10663D01*
Y10875D01*
X72427Y11086D01*
X72638D01*
X72850Y10875D01*
Y10452D01*
X72638Y10240D01*
X72850Y19875D02*
X71580D01*
X72215Y19240D01*
Y20086D01*
X67850Y30560D02*
Y30983D01*
Y30772D01*
X66580D01*
X66792Y30560D01*
X67850Y40406D02*
Y39560D01*
X67004Y40406D01*
X66792D01*
X66580Y40195D01*
Y39772D01*
X66792Y39560D01*
X71792Y30560D02*
X71580Y30772D01*
Y31195D01*
X71792Y31406D01*
X72004D01*
X72215Y31195D01*
Y30983D01*
Y31195D01*
X72427Y31406D01*
X72638D01*
X72850Y31195D01*
Y30772D01*
X72638Y30560D01*
X72850Y40195D02*
X71580D01*
X72215Y39560D01*
Y40406D01*
X67850Y50880D02*
Y51303D01*
Y51092D01*
X66580D01*
X66792Y50880D01*
X67850Y60726D02*
Y59880D01*
X67004Y60726D01*
X66792D01*
X66580Y60515D01*
Y60092D01*
X66792Y59880D01*
X71792Y50880D02*
X71580Y51092D01*
Y51515D01*
X71792Y51726D01*
X72004D01*
X72215Y51515D01*
Y51303D01*
Y51515D01*
X72427Y51726D01*
X72638D01*
X72850Y51515D01*
Y51092D01*
X72638Y50880D01*
X72850Y60515D02*
X71580D01*
X72215Y59880D01*
Y60726D01*
X67850Y71200D02*
Y71623D01*
Y71412D01*
X66580D01*
X66792Y71200D01*
X67850Y81046D02*
Y80200D01*
X67004Y81046D01*
X66792D01*
X66580Y80835D01*
Y80412D01*
X66792Y80200D01*
X71792Y71200D02*
X71580Y71412D01*
Y71835D01*
X71792Y72046D01*
X72004D01*
X72215Y71835D01*
Y71623D01*
Y71835D01*
X72427Y72046D01*
X72638D01*
X72850Y71835D01*
Y71412D01*
X72638Y71200D01*
X72850Y80835D02*
X71580D01*
X72215Y80200D01*
Y81046D01*
X47530Y10240D02*
Y10663D01*
Y10452D01*
X46260D01*
X46472Y10240D01*
X47530Y20086D02*
Y19240D01*
X46684Y20086D01*
X46472D01*
X46260Y19875D01*
Y19452D01*
X46472Y19240D01*
X51472Y10240D02*
X51260Y10452D01*
Y10875D01*
X51472Y11086D01*
X51684D01*
X51895Y10875D01*
Y10663D01*
Y10875D01*
X52107Y11086D01*
X52318D01*
X52530Y10875D01*
Y10452D01*
X52318Y10240D01*
X52530Y19875D02*
X51260D01*
X51895Y19240D01*
Y20086D01*
X47530Y30560D02*
Y30983D01*
Y30772D01*
X46260D01*
X46472Y30560D01*
X47530Y40406D02*
Y39560D01*
X46684Y40406D01*
X46472D01*
X46260Y40195D01*
Y39772D01*
X46472Y39560D01*
X51472Y30560D02*
X51260Y30772D01*
Y31195D01*
X51472Y31406D01*
X51684D01*
X51895Y31195D01*
Y30983D01*
Y31195D01*
X52107Y31406D01*
X52318D01*
X52530Y31195D01*
Y30772D01*
X52318Y30560D01*
X52530Y40195D02*
X51260D01*
X51895Y39560D01*
Y40406D01*
X47530Y50880D02*
Y51303D01*
Y51092D01*
X46260D01*
X46472Y50880D01*
X47530Y60726D02*
Y59880D01*
X46684Y60726D01*
X46472D01*
X46260Y60515D01*
Y60092D01*
X46472Y59880D01*
X51472Y50880D02*
X51260Y51092D01*
Y51515D01*
X51472Y51726D01*
X51684D01*
X51895Y51515D01*
Y51303D01*
Y51515D01*
X52107Y51726D01*
X52318D01*
X52530Y51515D01*
Y51092D01*
X52318Y50880D01*
X52530Y60515D02*
X51260D01*
X51895Y59880D01*
Y60726D01*
X47530Y71200D02*
Y71623D01*
Y71412D01*
X46260D01*
X46472Y71200D01*
X47530Y81046D02*
Y80200D01*
X46684Y81046D01*
X46472D01*
X46260Y80835D01*
Y80412D01*
X46472Y80200D01*
X51472Y71200D02*
X51260Y71412D01*
Y71835D01*
X51472Y72046D01*
X51684D01*
X51895Y71835D01*
Y71623D01*
Y71835D01*
X52107Y72046D01*
X52318D01*
X52530Y71835D01*
Y71412D01*
X52318Y71200D01*
X52530Y80835D02*
X51260D01*
X51895Y80200D01*
Y81046D01*
X27210Y10240D02*
Y10663D01*
Y10452D01*
X25940D01*
X26152Y10240D01*
X27210Y20086D02*
Y19240D01*
X26364Y20086D01*
X26152D01*
X25940Y19875D01*
Y19452D01*
X26152Y19240D01*
X31152Y10240D02*
X30940Y10452D01*
Y10875D01*
X31152Y11086D01*
X31364D01*
X31575Y10875D01*
Y10663D01*
Y10875D01*
X31787Y11086D01*
X31998D01*
X32210Y10875D01*
Y10452D01*
X31998Y10240D01*
X32210Y19875D02*
X30940D01*
X31575Y19240D01*
Y20086D01*
X27210Y30560D02*
Y30983D01*
Y30772D01*
X25940D01*
X26152Y30560D01*
X27210Y40406D02*
Y39560D01*
X26364Y40406D01*
X26152D01*
X25940Y40195D01*
Y39772D01*
X26152Y39560D01*
X31152Y30560D02*
X30940Y30772D01*
Y31195D01*
X31152Y31406D01*
X31364D01*
X31575Y31195D01*
Y30983D01*
Y31195D01*
X31787Y31406D01*
X31998D01*
X32210Y31195D01*
Y30772D01*
X31998Y30560D01*
X32210Y40195D02*
X30940D01*
X31575Y39560D01*
Y40406D01*
X27210Y50880D02*
Y51303D01*
Y51092D01*
X25940D01*
X26152Y50880D01*
X27210Y60726D02*
Y59880D01*
X26364Y60726D01*
X26152D01*
X25940Y60515D01*
Y60092D01*
X26152Y59880D01*
X31152Y50880D02*
X30940Y51092D01*
Y51515D01*
X31152Y51726D01*
X31364D01*
X31575Y51515D01*
Y51303D01*
Y51515D01*
X31787Y51726D01*
X31998D01*
X32210Y51515D01*
Y51092D01*
X31998Y50880D01*
X32210Y60515D02*
X30940D01*
X31575Y59880D01*
Y60726D01*
X6890Y10240D02*
Y10663D01*
Y10452D01*
X5620D01*
X5832Y10240D01*
X6890Y20086D02*
Y19240D01*
X6044Y20086D01*
X5832D01*
X5620Y19875D01*
Y19452D01*
X5832Y19240D01*
X10832Y10240D02*
X10620Y10452D01*
Y10875D01*
X10832Y11086D01*
X11044D01*
X11255Y10875D01*
Y10663D01*
Y10875D01*
X11467Y11086D01*
X11678D01*
X11890Y10875D01*
Y10452D01*
X11678Y10240D01*
X11890Y19875D02*
X10620D01*
X11255Y19240D01*
Y20086D01*
X6890Y30560D02*
Y30983D01*
Y30772D01*
X5620D01*
X5832Y30560D01*
X6890Y40406D02*
Y39560D01*
X6044Y40406D01*
X5832D01*
X5620Y40195D01*
Y39772D01*
X5832Y39560D01*
X10832Y30560D02*
X10620Y30772D01*
Y31195D01*
X10832Y31406D01*
X11044D01*
X11255Y31195D01*
Y30983D01*
Y31195D01*
X11467Y31406D01*
X11678D01*
X11890Y31195D01*
Y30772D01*
X11678Y30560D01*
X11890Y40195D02*
X10620D01*
X11255Y39560D01*
Y40406D01*
X6890Y50880D02*
Y51303D01*
Y51092D01*
X5620D01*
X5832Y50880D01*
X6890Y60726D02*
Y59880D01*
X6044Y60726D01*
X5832D01*
X5620Y60515D01*
Y60092D01*
X5832Y59880D01*
X10832Y50880D02*
X10620Y51092D01*
Y51515D01*
X10832Y51726D01*
X11044D01*
X11255Y51515D01*
Y51303D01*
Y51515D01*
X11467Y51726D01*
X11678D01*
X11890Y51515D01*
Y51092D01*
X11678Y50880D01*
X11890Y60515D02*
X10620D01*
X11255Y59880D01*
Y60726D01*
X6890Y71200D02*
Y71623D01*
Y71412D01*
X5620D01*
X5832Y71200D01*
X6890Y81046D02*
Y80200D01*
X6044Y81046D01*
X5832D01*
X5620Y80835D01*
Y80412D01*
X5832Y80200D01*
X10832Y71200D02*
X10620Y71412D01*
Y71835D01*
X10832Y72046D01*
X11044D01*
X11255Y71835D01*
Y71623D01*
Y71835D01*
X11467Y72046D01*
X11678D01*
X11890Y71835D01*
Y71412D01*
X11678Y71200D01*
X11890Y80835D02*
X10620D01*
X11255Y80200D01*
Y81046D01*
D22*
X24422Y85788D02*
X24168Y86042D01*
X23660D01*
X23406Y85788D01*
Y85534D01*
X23660Y85280D01*
X24168D01*
X24422Y85026D01*
Y84772D01*
X24168Y84519D01*
X23660D01*
X23406Y84772D01*
X24930Y86042D02*
Y84519D01*
X25437Y85026D01*
X25945Y84519D01*
Y86042D01*
X27469D02*
X26453D01*
Y85280D01*
X26961Y85534D01*
X27215D01*
X27469Y85280D01*
Y84772D01*
X27215Y84519D01*
X26707D01*
X26453Y84772D01*
X65062Y24828D02*
X64808Y25082D01*
X64300D01*
X64046Y24828D01*
Y24574D01*
X64300Y24320D01*
X64808D01*
X65062Y24066D01*
Y23812D01*
X64808Y23559D01*
X64300D01*
X64046Y23812D01*
X65570Y25082D02*
Y23559D01*
X66077Y24066D01*
X66585Y23559D01*
Y25082D01*
X67093Y23559D02*
X67601D01*
X67347D01*
Y25082D01*
X67093Y24828D01*
X69378Y25082D02*
X68871Y24828D01*
X68363Y24320D01*
Y23812D01*
X68617Y23559D01*
X69124D01*
X69378Y23812D01*
Y24066D01*
X69124Y24320D01*
X68363D01*
X65062Y45148D02*
X64808Y45402D01*
X64300D01*
X64046Y45148D01*
Y44894D01*
X64300Y44640D01*
X64808D01*
X65062Y44386D01*
Y44132D01*
X64808Y43879D01*
X64300D01*
X64046Y44132D01*
X65570Y45402D02*
Y43879D01*
X66077Y44386D01*
X66585Y43879D01*
Y45402D01*
X67093Y43879D02*
X67601D01*
X67347D01*
Y45402D01*
X67093Y45148D01*
X69378Y45402D02*
X68363D01*
Y44640D01*
X68871Y44894D01*
X69124D01*
X69378Y44640D01*
Y44132D01*
X69124Y43879D01*
X68617D01*
X68363Y44132D01*
X65062Y65468D02*
X64808Y65722D01*
X64300D01*
X64046Y65468D01*
Y65214D01*
X64300Y64960D01*
X64808D01*
X65062Y64706D01*
Y64452D01*
X64808Y64199D01*
X64300D01*
X64046Y64452D01*
X65570Y65722D02*
Y64199D01*
X66077Y64706D01*
X66585Y64199D01*
Y65722D01*
X67093Y64199D02*
X67601D01*
X67347D01*
Y65722D01*
X67093Y65468D01*
X69124Y64199D02*
Y65722D01*
X68363Y64960D01*
X69378D01*
X65062Y85788D02*
X64808Y86042D01*
X64300D01*
X64046Y85788D01*
Y85534D01*
X64300Y85280D01*
X64808D01*
X65062Y85026D01*
Y84772D01*
X64808Y84519D01*
X64300D01*
X64046Y84772D01*
X65570Y86042D02*
Y84519D01*
X66077Y85026D01*
X66585Y84519D01*
Y86042D01*
X67093Y84519D02*
X67601D01*
X67347D01*
Y86042D01*
X67093Y85788D01*
X68363D02*
X68617Y86042D01*
X69124D01*
X69378Y85788D01*
Y85534D01*
X69124Y85280D01*
X68871D01*
X69124D01*
X69378Y85026D01*
Y84772D01*
X69124Y84519D01*
X68617D01*
X68363Y84772D01*
X44742Y24828D02*
X44488Y25082D01*
X43980D01*
X43726Y24828D01*
Y24574D01*
X43980Y24320D01*
X44488D01*
X44742Y24066D01*
Y23812D01*
X44488Y23559D01*
X43980D01*
X43726Y23812D01*
X45250Y25082D02*
Y23559D01*
X45757Y24066D01*
X46265Y23559D01*
Y25082D01*
X46773Y23559D02*
X47281D01*
X47027D01*
Y25082D01*
X46773Y24828D01*
X49058Y23559D02*
X48043D01*
X49058Y24574D01*
Y24828D01*
X48804Y25082D01*
X48297D01*
X48043Y24828D01*
X44742Y45148D02*
X44488Y45402D01*
X43980D01*
X43726Y45148D01*
Y44894D01*
X43980Y44640D01*
X44488D01*
X44742Y44386D01*
Y44132D01*
X44488Y43879D01*
X43980D01*
X43726Y44132D01*
X45250Y45402D02*
Y43879D01*
X45757Y44386D01*
X46265Y43879D01*
Y45402D01*
X46773Y43879D02*
X47281D01*
X47027D01*
Y45402D01*
X46773Y45148D01*
X48043Y43879D02*
X48551D01*
X48297D01*
Y45402D01*
X48043Y45148D01*
X44742Y65468D02*
X44488Y65722D01*
X43980D01*
X43726Y65468D01*
Y65214D01*
X43980Y64960D01*
X44488D01*
X44742Y64706D01*
Y64452D01*
X44488Y64199D01*
X43980D01*
X43726Y64452D01*
X45250Y65722D02*
Y64199D01*
X45757Y64706D01*
X46265Y64199D01*
Y65722D01*
X46773Y64199D02*
X47281D01*
X47027D01*
Y65722D01*
X46773Y65468D01*
X48043D02*
X48297Y65722D01*
X48804D01*
X49058Y65468D01*
Y64452D01*
X48804Y64199D01*
X48297D01*
X48043Y64452D01*
Y65468D01*
X44742Y85788D02*
X44488Y86042D01*
X43980D01*
X43726Y85788D01*
Y85534D01*
X43980Y85280D01*
X44488D01*
X44742Y85026D01*
Y84772D01*
X44488Y84519D01*
X43980D01*
X43726Y84772D01*
X45250Y86042D02*
Y84519D01*
X45757Y85026D01*
X46265Y84519D01*
Y86042D01*
X46773Y84772D02*
X47027Y84519D01*
X47535D01*
X47789Y84772D01*
Y85788D01*
X47535Y86042D01*
X47027D01*
X46773Y85788D01*
Y85534D01*
X47027Y85280D01*
X47789D01*
X24422Y24828D02*
X24168Y25082D01*
X23660D01*
X23406Y24828D01*
Y24574D01*
X23660Y24320D01*
X24168D01*
X24422Y24066D01*
Y23812D01*
X24168Y23559D01*
X23660D01*
X23406Y23812D01*
X24930Y25082D02*
Y23559D01*
X25437Y24066D01*
X25945Y23559D01*
Y25082D01*
X26453Y24828D02*
X26707Y25082D01*
X27215D01*
X27469Y24828D01*
Y24574D01*
X27215Y24320D01*
X27469Y24066D01*
Y23812D01*
X27215Y23559D01*
X26707D01*
X26453Y23812D01*
Y24066D01*
X26707Y24320D01*
X26453Y24574D01*
Y24828D01*
X26707Y24320D02*
X27215D01*
X24422Y45148D02*
X24168Y45402D01*
X23660D01*
X23406Y45148D01*
Y44894D01*
X23660Y44640D01*
X24168D01*
X24422Y44386D01*
Y44132D01*
X24168Y43879D01*
X23660D01*
X23406Y44132D01*
X24930Y45402D02*
Y43879D01*
X25437Y44386D01*
X25945Y43879D01*
Y45402D01*
X26453D02*
X27469D01*
Y45148D01*
X26453Y44132D01*
Y43879D01*
X24422Y65468D02*
X24168Y65722D01*
X23660D01*
X23406Y65468D01*
Y65214D01*
X23660Y64960D01*
X24168D01*
X24422Y64706D01*
Y64452D01*
X24168Y64199D01*
X23660D01*
X23406Y64452D01*
X24930Y65722D02*
Y64199D01*
X25437Y64706D01*
X25945Y64199D01*
Y65722D01*
X27469D02*
X26961Y65468D01*
X26453Y64960D01*
Y64452D01*
X26707Y64199D01*
X27215D01*
X27469Y64452D01*
Y64706D01*
X27215Y64960D01*
X26453D01*
X4102Y24828D02*
X3848Y25082D01*
X3340D01*
X3086Y24828D01*
Y24574D01*
X3340Y24320D01*
X3848D01*
X4102Y24066D01*
Y23812D01*
X3848Y23559D01*
X3340D01*
X3086Y23812D01*
X4610Y25082D02*
Y23559D01*
X5117Y24066D01*
X5625Y23559D01*
Y25082D01*
X6895Y23559D02*
Y25082D01*
X6133Y24320D01*
X7149D01*
X4102Y45148D02*
X3848Y45402D01*
X3340D01*
X3086Y45148D01*
Y44894D01*
X3340Y44640D01*
X3848D01*
X4102Y44386D01*
Y44132D01*
X3848Y43879D01*
X3340D01*
X3086Y44132D01*
X4610Y45402D02*
Y43879D01*
X5117Y44386D01*
X5625Y43879D01*
Y45402D01*
X6133Y45148D02*
X6387Y45402D01*
X6895D01*
X7149Y45148D01*
Y44894D01*
X6895Y44640D01*
X6641D01*
X6895D01*
X7149Y44386D01*
Y44132D01*
X6895Y43879D01*
X6387D01*
X6133Y44132D01*
X4102Y65468D02*
X3848Y65722D01*
X3340D01*
X3086Y65468D01*
Y65214D01*
X3340Y64960D01*
X3848D01*
X4102Y64706D01*
Y64452D01*
X3848Y64199D01*
X3340D01*
X3086Y64452D01*
X4610Y65722D02*
Y64199D01*
X5117Y64706D01*
X5625Y64199D01*
Y65722D01*
X7149Y64199D02*
X6133D01*
X7149Y65214D01*
Y65468D01*
X6895Y65722D01*
X6387D01*
X6133Y65468D01*
X4102Y85788D02*
X3848Y86042D01*
X3340D01*
X3086Y85788D01*
Y85534D01*
X3340Y85280D01*
X3848D01*
X4102Y85026D01*
Y84772D01*
X3848Y84519D01*
X3340D01*
X3086Y84772D01*
X4610Y86042D02*
Y84519D01*
X5117Y85026D01*
X5625Y84519D01*
Y86042D01*
X6133Y84519D02*
X6641D01*
X6387D01*
Y86042D01*
X6133Y85788D01*
%TF.MD5,5265fef10e580f99d7f51f184cad68a5*%
M02*
