M48
;Layer_Color=9474304
;FILE_FORMAT=2:4
INCH,LZ
;TYPE=PLATED
T1F00S00C0.0354
T2F00S00C0.0472
%
T01
X007492Y0355
X008492
X009492
X010492
X011492
X012492
X013492
X014492
X015492
X016492
X017492
X018492
X019492
X020492
X021492
X022492
X023492
T02
X002516Y003539
X004484
Y008461
X002516
Y011539
X004484
X010516
X012484
Y008461
X010516
Y003539
X012484
X018516
X020484
Y008461
X018516
Y011539
X020484
X026516
X028484
Y008461
X026516
Y003539
X028484
Y016461
X026516
Y019539
X028484
Y024461
X026516
Y027539
X028484
X020484
X018516
Y024461
X020484
Y019539
X018516
Y016461
X020484
X012484
X010516
Y019539
X012484
Y024461
X010516
Y027539
X012484
X004484
X002516
Y024461
X004484
Y019539
X002516
Y016461
X004484
Y032461
X002516
X010516
X012484
X018516
X020484
X026516
X028484
M30
