<?xml version="1.0" encoding="UTF-8" standalone="no"?>
<!-- Created with Fritzing (http://www.fritzing.org/) -->

<svg
   xmlns:dc="http://purl.org/dc/elements/1.1/"
   xmlns:cc="http://creativecommons.org/ns#"
   xmlns:rdf="http://www.w3.org/1999/02/22-rdf-syntax-ns#"
   xmlns:svg="http://www.w3.org/2000/svg"
   xmlns="http://www.w3.org/2000/svg"
   xmlns:sodipodi="http://sodipodi.sourceforge.net/DTD/sodipodi-0.dtd"
   xmlns:inkscape="http://www.inkscape.org/namespaces/inkscape"
   version="1.2"
   x="0in"
   y="0in"
   width="0.80000001in"
   height="0.33000001in"
   viewBox="0 0 57.6 23.76"
   id="svg81"
   sodipodi:docname="MC14490P.svg"
   inkscape:version="0.92.5 (2060ec1f9f, 2020-04-08)">
  <metadata
     id="metadata87">
    <rdf:RDF>
      <cc:Work
         rdf:about="">
        <dc:format>image/svg+xml</dc:format>
        <dc:type
           rdf:resource="http://purl.org/dc/dcmitype/StillImage" />
        <dc:title></dc:title>
      </cc:Work>
    </rdf:RDF>
  </metadata>
  <defs
     id="defs85" />
  <sodipodi:namedview
     pagecolor="#ffffff"
     bordercolor="#666666"
     borderopacity="1"
     objecttolerance="10"
     gridtolerance="10"
     guidetolerance="10"
     inkscape:pageopacity="0"
     inkscape:pageshadow="2"
     inkscape:window-width="1920"
     inkscape:window-height="1051"
     id="namedview83"
     showgrid="false"
     inkscape:zoom="8.8281249"
     inkscape:cx="43.129741"
     inkscape:cy="15.840001"
     inkscape:window-x="-9"
     inkscape:window-y="-9"
     inkscape:window-maximized="1"
     inkscape:current-layer="g150"
     fit-margin-top="0"
     fit-margin-left="0"
     fit-margin-right="0"
     fit-margin-bottom="0" />
  <g
     id="g150">
    <g
       id="g79"
       partID="128920">
      <g
         id="breadboard"
         gorn="0.1">
        <rect
           x="0"
           id="middle"
           width="57.599998"
           height="19.440001"
           y="2.1600001"
           gorn="0.1.0"
           style="fill:#303030;stroke-width:0" />
        <rect
           x="0"
           id="top"
           width="57.599998"
           height="1.7711999"
           y="2.1600001"
           gorn="0.1.1"
           style="fill:#3d3d3d;stroke-width:0" />
        <rect
           x="0"
           id="bottom"
           width="57.599998"
           height="1.7711999"
           y="19.8288"
           gorn="0.1.2"
           style="fill:#000000;stroke-width:0" />
        <polygon
           id="right"
           points="57.06,19.8288 57.6,21.6 57.6,2.16 57.06,3.9312 "
           gorn="0.1.3"
           style="fill:#141414;stroke-width:0" />
        <polygon
           id="left"
           points="0.54,19.8288 0,21.6 0,2.16 0.54,3.9312 "
           gorn="0.1.4"
           style="fill:#1f1f1f;stroke-width:0" />
        <polygon
           id="left-upper-rect"
           points="0.4032,9.7776 0.4032,11.88 3.6,11.88 3.6,8.28 0.54,8.2512 "
           gorn="0.1.5"
           style="fill:#1c1c1c;stroke-width:0" />
        <polygon
           id="left-lower-rect"
           points="3.6,11.88 0.4032,11.88 0.4032,13.9824 0.54,15.516 3.6,15.516 "
           gorn="0.1.6"
           style="fill:#383838;stroke-width:0" />
        <path
           id="slot"
           d="m 0.4032,9.7776 v 4.1976 C 1.4616,13.8528 2.2896,12.9672 2.2896,11.8728 2.2896,10.7784 1.4688,9.9 0.4032,9.7776 Z"
           gorn="0.1.7"
           inkscape:connector-curvature="0"
           style="fill:#262626;stroke-width:0" />
        <path
           id="cover"
           d="M 0.54,3.9312 V 8.244 c 1.7136,0.324 3.0168,1.8216 3.0168,3.6288 0,1.8072 -1.296,3.312 -3.0168,3.636 v 0.0072 h 3.6 V 3.9312 Z"
           gorn="0.1.8"
           inkscape:connector-curvature="0"
           style="fill:#303030;stroke-width:0" />
        <circle
           id="circle11"
           cx="4.6799998"
           cy="16.898399"
           r="1.4832"
           style="fill:#212121;stroke-width:0" />
        <rect
           x="2.52"
           id="connector0pin"
           width="2.1600001"
           height="3.1248"
           y="20.635201"
           gorn="0.1.11"
           style="fill:#8c8c8c;stroke-width:0" />
        <g
           x="2.52"
           id="connector0terminal"
           width="2.16"
           height="2.16"
           y="21.6"
           gorn="0.1.12"
           style="fill:#8c8c8c;stroke-width:0" />
        <polygon
           id="polygon16"
           points="4.68,22.0752 6.12,21.4128 6.12,20.6352 2.52,20.6352 2.52,22.0752 "
           style="fill:#8c8c8c;stroke-width:0" />
        <rect
           x="2.52"
           id="connector15pin"
           width="2.1600001"
           height="3.1248"
           y="0"
           gorn="0.1.14"
           style="fill:#8c8c8c;stroke-width:0" />
        <g
           x="2.52"
           id="connector15terminal"
           width="2.16"
           height="2.16"
           y="0"
           gorn="0.1.15"
           style="fill:#8c8c8c;stroke-width:0" />
        <polygon
           id="polygon20"
           points="4.68,1.6848 2.52,1.6848 2.52,3.1248 6.12,3.1248 6.12,2.3472 "
           style="fill:#8c8c8c;stroke-width:0" />
        <rect
           x="52.919998"
           id="connector7pin"
           width="2.1600001"
           height="3.1248"
           y="20.635201"
           gorn="0.1.17"
           style="fill:#8c8c8c;stroke-width:0" />
        <g
           x="52.92"
           id="connector7terminal"
           width="2.16"
           height="2.16"
           y="21.6"
           gorn="0.1.18"
           style="fill:#8c8c8c;stroke-width:0" />
        <polygon
           id="polygon24"
           points="52.92,22.0752 55.08,22.0752 55.08,20.6352 51.48,20.6352 51.48,21.4128 "
           style="fill:#8c8c8c;stroke-width:0" />
        <rect
           x="52.919998"
           id="connector8pin"
           width="2.1600001"
           height="3.1248"
           y="0"
           gorn="0.1.20"
           style="fill:#8c8c8c;stroke-width:0" />
        <g
           x="52.92"
           id="connector8terminal"
           width="2.16"
           height="2.16"
           y="0"
           gorn="0.1.21"
           style="fill:#8c8c8c;stroke-width:0" />
        <polygon
           id="polygon28"
           points="52.92,1.6848 51.48,2.3472 51.48,3.1248 55.08,3.1248 55.08,1.6848 "
           style="fill:#8c8c8c;stroke-width:0" />
        <rect
           x="9.7200003"
           id="connector1pin"
           width="2.1600001"
           height="3.1248"
           y="20.635201"
           gorn="0.1.23"
           style="fill:#8c8c8c;stroke-width:0" />
        <g
           x="9.72"
           id="connector1terminal"
           width="2.16"
           height="2.16"
           y="21.6"
           gorn="0.1.24"
           style="fill:#8c8c8c;stroke-width:0" />
        <polygon
           id="polygon32"
           points="9.72,22.0752 11.88,22.0752 13.32,21.4128 13.32,20.6352 8.28,20.6352 8.28,21.4128 "
           style="fill:#8c8c8c;stroke-width:0" />
        <rect
           x="9.7200003"
           id="connector14pin"
           width="2.1600001"
           height="3.1248"
           y="0"
           gorn="0.1.26"
           style="fill:#8c8c8c;stroke-width:0" />
        <g
           x="9.72"
           id="connector14terminal"
           width="2.16"
           height="2.16"
           y="0"
           gorn="0.1.27"
           style="fill:#8c8c8c;stroke-width:0" />
        <polygon
           id="polygon36"
           points="11.88,1.6848 9.72,1.6848 8.28,2.3472 8.28,3.1248 13.32,3.1248 13.32,2.3472 "
           style="fill:#8c8c8c;stroke-width:0" />
        <rect
           x="16.92"
           id="connector2pin"
           width="2.1600001"
           height="3.1248"
           y="20.635201"
           gorn="0.1.29"
           style="fill:#8c8c8c;stroke-width:0" />
        <g
           x="16.92"
           id="connector2terminal"
           width="2.16"
           height="2.16"
           y="21.6"
           gorn="0.1.30"
           style="fill:#8c8c8c;stroke-width:0" />
        <polygon
           id="polygon40"
           points="16.92,22.0752 19.08,22.0752 20.52,21.4128 20.52,20.6352 15.48,20.6352 15.48,21.4128 "
           style="fill:#8c8c8c;stroke-width:0" />
        <rect
           x="16.92"
           id="connector13pin"
           width="2.1600001"
           height="3.1248"
           y="0"
           gorn="0.1.32"
           style="fill:#8c8c8c;stroke-width:0" />
        <g
           x="16.92"
           id="connector13terminal"
           width="2.16"
           height="2.16"
           y="0"
           gorn="0.1.33"
           style="fill:#8c8c8c;stroke-width:0" />
        <polygon
           id="polygon44"
           points="19.08,1.6848 16.92,1.6848 15.48,2.3472 15.48,3.1248 20.52,3.1248 20.52,2.3472 "
           style="fill:#8c8c8c;stroke-width:0" />
        <rect
           x="24.120001"
           id="connector3pin"
           width="2.1600001"
           height="3.1248"
           y="20.635201"
           gorn="0.1.35"
           style="fill:#8c8c8c;stroke-width:0" />
        <g
           x="24.12"
           id="connector3terminal"
           width="2.16"
           height="2.16"
           y="21.6"
           gorn="0.1.36"
           style="fill:#8c8c8c;stroke-width:0" />
        <polygon
           id="polygon48"
           points="24.12,22.0752 26.28,22.0752 27.72,21.4128 27.72,20.6352 22.68,20.6352 22.68,21.4128 "
           style="fill:#8c8c8c;stroke-width:0" />
        <rect
           x="24.120001"
           id="connector12pin"
           width="2.1600001"
           height="3.1248"
           y="0"
           gorn="0.1.38"
           style="fill:#8c8c8c;stroke-width:0" />
        <g
           x="24.12"
           id="connector12terminal"
           width="2.16"
           height="2.16"
           y="0"
           gorn="0.1.39"
           style="fill:#8c8c8c;stroke-width:0" />
        <polygon
           id="polygon52"
           points="26.28,1.6848 24.12,1.6848 22.68,2.3472 22.68,3.1248 27.72,3.1248 27.72,2.3472 "
           style="fill:#8c8c8c;stroke-width:0" />
        <rect
           x="31.32"
           id="connector4pin"
           width="2.1600001"
           height="3.1248"
           y="20.635201"
           gorn="0.1.41"
           style="fill:#8c8c8c;stroke-width:0" />
        <g
           x="31.32"
           id="connector4terminal"
           width="2.16"
           height="2.16"
           y="21.6"
           gorn="0.1.42"
           style="fill:#8c8c8c;stroke-width:0" />
        <polygon
           id="polygon56"
           points="31.32,22.0752 33.48,22.0752 34.92,21.4128 34.92,20.6352 29.88,20.6352 29.88,21.4128 "
           style="fill:#8c8c8c;stroke-width:0" />
        <rect
           x="31.32"
           id="connector11pin"
           width="2.1600001"
           height="3.1248"
           y="0"
           gorn="0.1.44"
           style="fill:#8c8c8c;stroke-width:0" />
        <g
           x="31.32"
           id="connector11terminal"
           width="2.16"
           height="2.16"
           y="0"
           gorn="0.1.45"
           style="fill:#8c8c8c;stroke-width:0" />
        <polygon
           id="polygon60"
           points="33.48,1.6848 31.32,1.6848 29.88,2.3472 29.88,3.1248 34.92,3.1248 34.92,2.3472 "
           style="fill:#8c8c8c;stroke-width:0" />
        <rect
           x="38.52"
           id="connector5pin"
           width="2.1600001"
           height="3.1248"
           y="20.635201"
           gorn="0.1.47"
           style="fill:#8c8c8c;stroke-width:0" />
        <g
           x="38.52"
           id="connector5terminal"
           width="2.16"
           height="2.16"
           y="21.6"
           gorn="0.1.48"
           style="fill:#8c8c8c;stroke-width:0" />
        <polygon
           id="polygon64"
           points="38.52,22.0752 40.68,22.0752 42.12,21.4128 42.12,20.6352 37.08,20.6352 37.08,21.4128 "
           style="fill:#8c8c8c;stroke-width:0" />
        <rect
           x="38.52"
           id="connector10pin"
           width="2.1600001"
           height="3.1248"
           y="0"
           gorn="0.1.50"
           style="fill:#8c8c8c;stroke-width:0" />
        <g
           x="38.52"
           id="connector10terminal"
           width="2.16"
           height="2.16"
           y="0"
           gorn="0.1.51"
           style="fill:#8c8c8c;stroke-width:0" />
        <polygon
           id="polygon68"
           points="40.68,1.6848 38.52,1.6848 37.08,2.3472 37.08,3.1248 42.12,3.1248 42.12,2.3472 "
           style="fill:#8c8c8c;stroke-width:0" />
        <rect
           x="45.720001"
           id="connector6pin"
           width="2.1600001"
           height="3.1248"
           y="20.635201"
           gorn="0.1.53"
           style="fill:#8c8c8c;stroke-width:0" />
        <g
           x="45.72"
           id="connector6terminal"
           width="2.16"
           height="2.16"
           y="21.6"
           gorn="0.1.54"
           style="fill:#8c8c8c;stroke-width:0" />
        <polygon
           id="polygon72"
           points="45.72,22.0752 47.88,22.0752 49.32,21.4128 49.32,20.6352 44.28,20.6352 44.28,21.4128 "
           style="fill:#8c8c8c;stroke-width:0" />
        <rect
           x="45.720001"
           id="connector9pin"
           width="2.1600001"
           height="3.1248"
           y="0"
           gorn="0.1.56"
           style="fill:#8c8c8c;stroke-width:0" />
        <g
           x="45.72"
           id="connector9terminal"
           width="2.16"
           height="2.16"
           y="0"
           gorn="0.1.57"
           style="fill:#8c8c8c;stroke-width:0" />
        <polygon
           id="polygon76"
           points="47.88,1.6848 45.72,1.6848 44.28,2.3472 44.28,3.1248 49.32,3.1248 49.32,2.3472 "
           style="fill:#8c8c8c;stroke-width:0" />
      </g>
    </g>
    <text
       xml:space="preserve"
       style="font-style:normal;font-weight:normal;font-size:5.61413193px;line-height:1.25;font-family:sans-serif;letter-spacing:0px;word-spacing:0px;fill:#ffffff;fill-opacity:1;stroke:none;stroke-width:0.42105991"
       x="6.0353861"
       y="11.337893"
       id="text154"><tspan
         sodipodi:role="line"
         id="tspan152"
         x="6.0353861"
         y="11.337893"
         style="font-size:5.61413193px;fill:#ffffff;fill-opacity:1;stroke-width:0.42105991">MC14490P</tspan></text>
  </g>
</svg>
