%TF.GenerationSoftware,Altium Limited,Altium Designer,20.1.8 (145)*%
G04 Layer_Color=32896*
%FSLAX43Y43*%
%MOMM*%
%TF.SameCoordinates,C967278A-0D20-4EB3-86A2-C79C74FF1C7D*%
%TF.FilePolarity,Positive*%
%TF.FileFunction,Legend,Bot*%
%TF.Part,Single*%
G01*
G75*
%TA.AperFunction,NonConductor*%
%ADD13C,0.152*%
G36*
X30344Y31524D02*
X30368D01*
Y31516D01*
X30385D01*
Y31508D01*
X30402D01*
Y31500D01*
X30418D01*
Y31491D01*
X30426D01*
Y31483D01*
X30435D01*
Y31475D01*
X30443D01*
Y31466D01*
X30451D01*
Y31458D01*
X30459D01*
Y31450D01*
Y31442D01*
X30468D01*
Y31433D01*
X30476D01*
Y31425D01*
Y31417D01*
X30484D01*
Y31409D01*
Y31400D01*
Y31392D01*
X30493D01*
Y31384D01*
Y31375D01*
X30501D01*
Y31367D01*
Y31359D01*
Y31351D01*
Y31342D01*
X30509D01*
Y31334D01*
Y31326D01*
Y31317D01*
Y31309D01*
X30517D01*
Y31301D01*
Y31293D01*
Y31284D01*
Y31276D01*
Y31268D01*
Y31260D01*
Y31251D01*
Y31243D01*
Y31235D01*
Y31226D01*
Y31218D01*
X30526D01*
Y31210D01*
Y31202D01*
Y31193D01*
Y31185D01*
Y31177D01*
Y31169D01*
X30517D01*
Y31160D01*
Y31152D01*
Y31144D01*
Y31135D01*
Y31127D01*
Y31119D01*
Y31111D01*
Y31102D01*
Y31094D01*
Y31086D01*
Y31078D01*
Y31069D01*
X30509D01*
Y31061D01*
Y31053D01*
Y31044D01*
Y31036D01*
Y31028D01*
Y31020D01*
Y31011D01*
X30501D01*
Y31003D01*
Y30995D01*
Y30987D01*
Y30978D01*
Y30970D01*
X30493D01*
Y30962D01*
Y30953D01*
Y30945D01*
Y30937D01*
X30484D01*
Y30929D01*
Y30920D01*
Y30912D01*
Y30904D01*
X30476D01*
Y30896D01*
Y30887D01*
Y30879D01*
Y30871D01*
X30468D01*
Y30862D01*
Y30854D01*
Y30846D01*
X30459D01*
Y30838D01*
Y30829D01*
Y30821D01*
Y30813D01*
X30451D01*
Y30804D01*
Y30796D01*
Y30788D01*
X30443D01*
Y30780D01*
Y30771D01*
Y30763D01*
X30435D01*
Y30755D01*
Y30747D01*
X30426D01*
Y30738D01*
Y30730D01*
Y30722D01*
X30418D01*
Y30713D01*
Y30705D01*
Y30697D01*
X30410D01*
Y30689D01*
Y30680D01*
X30402D01*
Y30672D01*
Y30664D01*
X30393D01*
Y30656D01*
Y30647D01*
Y30639D01*
X30385D01*
Y30631D01*
Y30622D01*
X30377D01*
Y30614D01*
Y30606D01*
X30368D01*
Y30598D01*
Y30589D01*
X30360D01*
Y30581D01*
Y30573D01*
X30352D01*
Y30565D01*
Y30556D01*
X30344D01*
Y30548D01*
Y30540D01*
X30335D01*
Y30531D01*
Y30523D01*
X30327D01*
Y30515D01*
Y30507D01*
X30319D01*
Y30498D01*
Y30490D01*
X30311D01*
Y30482D01*
Y30473D01*
X30302D01*
Y30465D01*
X30294D01*
Y30457D01*
Y30449D01*
X30286D01*
Y30440D01*
Y30432D01*
X30277D01*
Y30424D01*
X30269D01*
Y30416D01*
Y30407D01*
X30261D01*
Y30399D01*
X30253D01*
Y30391D01*
Y30382D01*
X30244D01*
Y30374D01*
Y30366D01*
X30236D01*
Y30358D01*
X30228D01*
Y30349D01*
X30219D01*
Y30341D01*
Y30333D01*
X30211D01*
Y30325D01*
X30203D01*
Y30316D01*
Y30308D01*
X30195D01*
Y30300D01*
X30186D01*
Y30291D01*
X30178D01*
Y30283D01*
X30170D01*
Y30275D01*
Y30267D01*
X30162D01*
Y30258D01*
X30153D01*
Y30250D01*
X30145D01*
Y30242D01*
X30137D01*
Y30234D01*
X30128D01*
Y30225D01*
Y30217D01*
X30120D01*
Y30209D01*
X30112D01*
Y30200D01*
X30104D01*
Y30192D01*
X30095D01*
Y30184D01*
X30087D01*
Y30176D01*
X30079D01*
Y30167D01*
X30071D01*
Y30159D01*
X30062D01*
Y30151D01*
X30046D01*
Y30143D01*
X30037D01*
Y30134D01*
X30029D01*
Y30126D01*
X30021D01*
Y30118D01*
Y30109D01*
X30013D01*
Y30101D01*
Y30093D01*
X29971D01*
Y30085D01*
X29963D01*
Y30076D01*
X29955D01*
Y30068D01*
X29946D01*
Y30060D01*
Y30051D01*
Y30043D01*
X29938D01*
Y30035D01*
Y30027D01*
X29930D01*
Y30018D01*
Y30010D01*
X29922D01*
Y30002D01*
Y29994D01*
X29913D01*
Y29985D01*
Y29977D01*
Y29969D01*
X29905D01*
Y29960D01*
Y29952D01*
X29897D01*
Y29944D01*
Y29936D01*
X29889D01*
Y29927D01*
Y29919D01*
X29880D01*
Y29911D01*
Y29903D01*
X29872D01*
Y29894D01*
Y29886D01*
Y29878D01*
X29864D01*
Y29869D01*
Y29861D01*
X29855D01*
Y29853D01*
Y29845D01*
X29847D01*
Y29836D01*
Y29828D01*
X29839D01*
Y29820D01*
Y29812D01*
Y29803D01*
X29831D01*
Y29795D01*
Y29787D01*
X29822D01*
Y29778D01*
X29839D01*
Y29770D01*
X29864D01*
Y29762D01*
X29889D01*
Y29754D01*
X29905D01*
Y29745D01*
X29922D01*
Y29737D01*
X29946D01*
Y29729D01*
X29963D01*
Y29721D01*
X29980D01*
Y29712D01*
X29996D01*
Y29704D01*
X30013D01*
Y29696D01*
X30029D01*
Y29687D01*
X30037D01*
Y29679D01*
X30054D01*
Y29671D01*
X30071D01*
Y29663D01*
X30087D01*
Y29654D01*
X30095D01*
Y29646D01*
X30112D01*
Y29638D01*
X30120D01*
Y29629D01*
X30137D01*
Y29621D01*
X30145D01*
Y29613D01*
X30162D01*
Y29605D01*
X30170D01*
Y29596D01*
X30178D01*
Y29588D01*
X30195D01*
Y29580D01*
X30203D01*
Y29572D01*
X30211D01*
Y29563D01*
X30219D01*
Y29555D01*
X30236D01*
Y29547D01*
X30244D01*
Y29538D01*
X30253D01*
Y29530D01*
X30261D01*
Y29522D01*
X30269D01*
Y29514D01*
X30277D01*
Y29505D01*
X30286D01*
Y29497D01*
X30294D01*
Y29489D01*
X30302D01*
Y29481D01*
X30311D01*
Y29472D01*
X30319D01*
Y29464D01*
X30327D01*
Y29456D01*
X30335D01*
Y29447D01*
Y29439D01*
X30344D01*
Y29431D01*
X30352D01*
Y29423D01*
X30360D01*
Y29414D01*
X30368D01*
Y29406D01*
Y29398D01*
X30377D01*
Y29390D01*
X30385D01*
Y29381D01*
X30393D01*
Y29373D01*
Y29365D01*
X30402D01*
Y29356D01*
X30410D01*
Y29348D01*
Y29340D01*
X30418D01*
Y29332D01*
Y29323D01*
X30426D01*
Y29315D01*
X30435D01*
Y29307D01*
Y29299D01*
X30443D01*
Y29290D01*
Y29282D01*
X30451D01*
Y29274D01*
Y29265D01*
Y29257D01*
X30459D01*
Y29249D01*
Y29241D01*
X30468D01*
Y29232D01*
Y29224D01*
X30476D01*
Y29216D01*
Y29207D01*
Y29199D01*
X30484D01*
Y29191D01*
Y29183D01*
Y29174D01*
Y29166D01*
X30493D01*
Y29158D01*
Y29150D01*
Y29141D01*
Y29133D01*
X30501D01*
Y29125D01*
Y29116D01*
Y29108D01*
Y29100D01*
Y29092D01*
Y29083D01*
X30509D01*
Y29075D01*
Y29067D01*
Y29059D01*
Y29050D01*
Y29042D01*
Y29034D01*
Y29025D01*
Y29017D01*
Y29009D01*
Y29001D01*
Y28992D01*
Y28984D01*
Y28976D01*
Y28968D01*
Y28959D01*
Y28951D01*
Y28943D01*
Y28934D01*
X30501D01*
Y28926D01*
Y28918D01*
Y28910D01*
Y28901D01*
Y28893D01*
Y28885D01*
X30493D01*
Y28876D01*
Y28868D01*
Y28860D01*
Y28852D01*
X30484D01*
Y28843D01*
Y28835D01*
Y28827D01*
X30476D01*
Y28819D01*
Y28810D01*
Y28802D01*
X30468D01*
Y28794D01*
Y28785D01*
Y28777D01*
X30459D01*
Y28769D01*
Y28761D01*
X30451D01*
Y28752D01*
Y28744D01*
X30443D01*
Y28736D01*
Y28728D01*
X30435D01*
Y28719D01*
Y28711D01*
X30426D01*
Y28703D01*
Y28694D01*
X30418D01*
Y28686D01*
Y28678D01*
X30410D01*
Y28670D01*
X30402D01*
Y28661D01*
Y28653D01*
X30393D01*
Y28645D01*
X30385D01*
Y28637D01*
Y28628D01*
X30377D01*
Y28620D01*
X30368D01*
Y28612D01*
X30360D01*
Y28603D01*
Y28595D01*
X30352D01*
Y28587D01*
X30344D01*
Y28579D01*
X30335D01*
Y28570D01*
X30327D01*
Y28562D01*
X30319D01*
Y28554D01*
Y28546D01*
X30311D01*
Y28537D01*
X30302D01*
Y28529D01*
X30294D01*
Y28521D01*
X30286D01*
Y28512D01*
X30277D01*
Y28504D01*
X30269D01*
Y28496D01*
X30261D01*
Y28488D01*
X30244D01*
Y28479D01*
X30236D01*
Y28471D01*
X30228D01*
Y28463D01*
X30219D01*
Y28455D01*
X30211D01*
Y28446D01*
X30195D01*
Y28438D01*
X30186D01*
Y28430D01*
X30178D01*
Y28421D01*
X30162D01*
Y28413D01*
X30153D01*
Y28405D01*
X30145D01*
Y28397D01*
X30128D01*
Y28388D01*
X30120D01*
Y28380D01*
X30104D01*
Y28372D01*
X30095D01*
Y28363D01*
X30079D01*
Y28355D01*
X30062D01*
Y28347D01*
X30054D01*
Y28339D01*
X30037D01*
Y28330D01*
X30021D01*
Y28322D01*
X30004D01*
Y28314D01*
X29988D01*
Y28306D01*
X29971D01*
Y28297D01*
X29955D01*
Y28289D01*
X29938D01*
Y28281D01*
X29913D01*
Y28272D01*
X29897D01*
Y28264D01*
X29880D01*
Y28256D01*
X29855D01*
Y28248D01*
X29839D01*
Y28239D01*
X29814D01*
Y28231D01*
X29789D01*
Y28223D01*
X29764D01*
Y28215D01*
X29731D01*
Y28206D01*
X29706D01*
Y28198D01*
X29673D01*
Y28190D01*
X29640D01*
Y28181D01*
X29599D01*
Y28173D01*
X29558D01*
Y28165D01*
X29508D01*
Y28157D01*
X29450D01*
Y28148D01*
X29359D01*
Y28140D01*
X29102D01*
Y28148D01*
X29011D01*
Y28157D01*
X28953D01*
Y28165D01*
X28904D01*
Y28173D01*
X28862D01*
Y28181D01*
X28821D01*
Y28190D01*
X28788D01*
Y28198D01*
X28755D01*
Y28206D01*
X28730D01*
Y28215D01*
X28697D01*
Y28223D01*
X28672D01*
Y28231D01*
X28647D01*
Y28239D01*
X28623D01*
Y28248D01*
X28606D01*
Y28256D01*
X28581D01*
Y28264D01*
X28565D01*
Y28272D01*
X28548D01*
Y28281D01*
X28523D01*
Y28289D01*
X28507D01*
Y28297D01*
X28490D01*
Y28306D01*
X28474D01*
Y28314D01*
X28457D01*
Y28322D01*
X28440D01*
Y28330D01*
X28424D01*
Y28339D01*
X28407D01*
Y28347D01*
X28399D01*
Y28355D01*
X28383D01*
Y28363D01*
X28366D01*
Y28372D01*
X28358D01*
Y28380D01*
X28341D01*
Y28388D01*
X28333D01*
Y28397D01*
X28316D01*
Y28405D01*
X28308D01*
Y28413D01*
X28292D01*
Y28421D01*
X28283D01*
Y28430D01*
X28275D01*
Y28438D01*
X28267D01*
Y28446D01*
X28250D01*
Y28455D01*
X28242D01*
Y28463D01*
X28234D01*
Y28471D01*
X28225D01*
Y28479D01*
X28217D01*
Y28488D01*
X28201D01*
Y28496D01*
X28192D01*
Y28504D01*
X28184D01*
Y28512D01*
X28176D01*
Y28521D01*
X28167D01*
Y28529D01*
X28159D01*
Y28537D01*
X28151D01*
Y28546D01*
X28143D01*
Y28554D01*
X28134D01*
Y28562D01*
Y28570D01*
X28126D01*
Y28579D01*
X28118D01*
Y28587D01*
X28109D01*
Y28595D01*
X28101D01*
Y28603D01*
Y28612D01*
X28093D01*
Y28620D01*
X28085D01*
Y28628D01*
X28076D01*
Y28637D01*
Y28645D01*
X28068D01*
Y28653D01*
X28060D01*
Y28661D01*
Y28670D01*
X28052D01*
Y28678D01*
X28043D01*
Y28686D01*
Y28694D01*
X28035D01*
Y28703D01*
Y28711D01*
X28027D01*
Y28719D01*
Y28728D01*
X28018D01*
Y28736D01*
Y28744D01*
X28010D01*
Y28752D01*
Y28761D01*
X28002D01*
Y28769D01*
Y28777D01*
X27994D01*
Y28785D01*
Y28794D01*
Y28802D01*
X27985D01*
Y28810D01*
Y28819D01*
Y28827D01*
X27977D01*
Y28835D01*
Y28843D01*
Y28852D01*
X27969D01*
Y28860D01*
Y28868D01*
Y28876D01*
Y28885D01*
X27961D01*
Y28893D01*
Y28901D01*
Y28910D01*
Y28918D01*
Y28926D01*
Y28934D01*
X27952D01*
Y28943D01*
Y28951D01*
Y28959D01*
Y28968D01*
Y28976D01*
Y28984D01*
Y28992D01*
Y29001D01*
Y29009D01*
Y29017D01*
Y29025D01*
Y29034D01*
Y29042D01*
Y29050D01*
Y29059D01*
Y29067D01*
Y29075D01*
Y29083D01*
Y29092D01*
X27961D01*
Y29100D01*
Y29108D01*
Y29116D01*
Y29125D01*
Y29133D01*
Y29141D01*
X27969D01*
Y29150D01*
Y29158D01*
Y29166D01*
X27977D01*
Y29174D01*
Y29183D01*
Y29191D01*
Y29199D01*
X27985D01*
Y29207D01*
Y29216D01*
Y29224D01*
X27994D01*
Y29232D01*
Y29241D01*
X28002D01*
Y29249D01*
Y29257D01*
Y29265D01*
X28010D01*
Y29274D01*
Y29282D01*
X28018D01*
Y29290D01*
Y29299D01*
X28027D01*
Y29307D01*
Y29315D01*
X28035D01*
Y29323D01*
X28043D01*
Y29332D01*
Y29340D01*
X28052D01*
Y29348D01*
Y29356D01*
X28060D01*
Y29365D01*
X28068D01*
Y29373D01*
Y29381D01*
X28076D01*
Y29390D01*
X28085D01*
Y29398D01*
Y29406D01*
X28093D01*
Y29414D01*
X28101D01*
Y29423D01*
X28109D01*
Y29431D01*
X28118D01*
Y29439D01*
Y29447D01*
X28126D01*
Y29456D01*
X28134D01*
Y29464D01*
X28143D01*
Y29472D01*
X28151D01*
Y29481D01*
X28159D01*
Y29489D01*
X28167D01*
Y29497D01*
X28176D01*
Y29505D01*
X28184D01*
Y29514D01*
X28192D01*
Y29522D01*
X28201D01*
Y29530D01*
X28209D01*
Y29538D01*
X28217D01*
Y29547D01*
X28225D01*
Y29555D01*
X28242D01*
Y29563D01*
X28250D01*
Y29572D01*
X28258D01*
Y29580D01*
X28267D01*
Y29588D01*
X28283D01*
Y29596D01*
X28292D01*
Y29605D01*
X28300D01*
Y29613D01*
X28316D01*
Y29621D01*
X28325D01*
Y29629D01*
X28341D01*
Y29638D01*
X28349D01*
Y29646D01*
X28366D01*
Y29654D01*
X28374D01*
Y29663D01*
X28391D01*
Y29671D01*
X28407D01*
Y29679D01*
X28424D01*
Y29687D01*
X28432D01*
Y29696D01*
X28449D01*
Y29704D01*
X28465D01*
Y29712D01*
X28482D01*
Y29721D01*
X28498D01*
Y29729D01*
X28515D01*
Y29737D01*
X28540D01*
Y29745D01*
X28556D01*
Y29754D01*
X28573D01*
Y29762D01*
X28598D01*
Y29770D01*
X28614D01*
Y29778D01*
X28639D01*
Y29787D01*
X28664D01*
Y29795D01*
X28656D01*
Y29803D01*
Y29812D01*
X28647D01*
Y29820D01*
Y29828D01*
X28639D01*
Y29836D01*
Y29845D01*
X28631D01*
Y29853D01*
Y29861D01*
Y29869D01*
X28623D01*
Y29878D01*
Y29886D01*
X28614D01*
Y29894D01*
Y29903D01*
X28606D01*
Y29911D01*
Y29919D01*
X28598D01*
Y29927D01*
Y29936D01*
Y29944D01*
X28589D01*
Y29952D01*
Y29960D01*
X28581D01*
Y29969D01*
Y29977D01*
X28573D01*
Y29985D01*
Y29994D01*
X28565D01*
Y30002D01*
Y30010D01*
Y30018D01*
X28556D01*
Y30027D01*
Y30035D01*
X28548D01*
Y30043D01*
Y30051D01*
X28540D01*
Y30060D01*
Y30068D01*
X28523D01*
Y30076D01*
X28515D01*
Y30085D01*
X28490D01*
Y30076D01*
X28482D01*
Y30085D01*
Y30093D01*
Y30101D01*
X28474D01*
Y30109D01*
X28465D01*
Y30118D01*
X28457D01*
Y30126D01*
X28449D01*
Y30134D01*
X28440D01*
Y30143D01*
X28432D01*
Y30151D01*
X28424D01*
Y30159D01*
X28416D01*
Y30167D01*
X28407D01*
Y30176D01*
X28399D01*
Y30184D01*
X28391D01*
Y30192D01*
X28383D01*
Y30200D01*
X28374D01*
Y30209D01*
X28366D01*
Y30217D01*
X28358D01*
Y30225D01*
X28349D01*
Y30234D01*
X28341D01*
Y30242D01*
Y30250D01*
X28333D01*
Y30258D01*
X28325D01*
Y30267D01*
X28316D01*
Y30275D01*
X28308D01*
Y30283D01*
Y30291D01*
X28300D01*
Y30300D01*
X28292D01*
Y30308D01*
X28283D01*
Y30316D01*
Y30325D01*
X28275D01*
Y30333D01*
X28267D01*
Y30341D01*
X28258D01*
Y30349D01*
Y30358D01*
X28250D01*
Y30366D01*
X28242D01*
Y30374D01*
Y30382D01*
X28234D01*
Y30391D01*
Y30399D01*
X28225D01*
Y30407D01*
X28217D01*
Y30416D01*
Y30424D01*
X28209D01*
Y30432D01*
X28201D01*
Y30440D01*
Y30449D01*
X28192D01*
Y30457D01*
Y30465D01*
X28184D01*
Y30473D01*
Y30482D01*
X28176D01*
Y30490D01*
X28167D01*
Y30498D01*
Y30507D01*
X28159D01*
Y30515D01*
Y30523D01*
X28151D01*
Y30531D01*
Y30540D01*
X28143D01*
Y30548D01*
Y30556D01*
X28134D01*
Y30565D01*
Y30573D01*
X28126D01*
Y30581D01*
Y30589D01*
X28118D01*
Y30598D01*
Y30606D01*
X28109D01*
Y30614D01*
Y30622D01*
Y30631D01*
X28101D01*
Y30639D01*
Y30647D01*
X28093D01*
Y30656D01*
Y30664D01*
X28085D01*
Y30672D01*
Y30680D01*
Y30689D01*
X28076D01*
Y30697D01*
Y30705D01*
X28068D01*
Y30713D01*
Y30722D01*
Y30730D01*
X28060D01*
Y30738D01*
Y30747D01*
Y30755D01*
X28052D01*
Y30763D01*
Y30771D01*
Y30780D01*
X28043D01*
Y30788D01*
Y30796D01*
Y30804D01*
X28035D01*
Y30813D01*
Y30821D01*
Y30829D01*
X28027D01*
Y30838D01*
Y30846D01*
Y30854D01*
X28018D01*
Y30862D01*
Y30871D01*
Y30879D01*
Y30887D01*
X28010D01*
Y30896D01*
Y30904D01*
Y30912D01*
Y30920D01*
X28002D01*
Y30929D01*
Y30937D01*
Y30945D01*
Y30953D01*
X27994D01*
Y30962D01*
Y30970D01*
Y30978D01*
Y30987D01*
Y30995D01*
X27985D01*
Y31003D01*
Y31011D01*
Y31020D01*
Y31028D01*
Y31036D01*
Y31044D01*
X27977D01*
Y31053D01*
Y31061D01*
Y31069D01*
Y31078D01*
Y31086D01*
Y31094D01*
Y31102D01*
Y31111D01*
Y31119D01*
Y31127D01*
X27969D01*
Y31135D01*
Y31144D01*
Y31152D01*
Y31160D01*
Y31169D01*
Y31177D01*
Y31185D01*
Y31193D01*
Y31202D01*
Y31210D01*
Y31218D01*
Y31226D01*
Y31235D01*
X27977D01*
Y31243D01*
Y31251D01*
Y31260D01*
Y31268D01*
Y31276D01*
Y31284D01*
Y31293D01*
Y31301D01*
X27985D01*
Y31309D01*
Y31317D01*
Y31326D01*
Y31334D01*
Y31342D01*
X27994D01*
Y31351D01*
Y31359D01*
Y31367D01*
X28002D01*
Y31375D01*
Y31384D01*
Y31392D01*
X28010D01*
Y31400D01*
Y31409D01*
X28018D01*
Y31417D01*
Y31425D01*
X28027D01*
Y31433D01*
X28035D01*
Y31442D01*
Y31450D01*
X28043D01*
Y31458D01*
X28052D01*
Y31466D01*
X28060D01*
Y31475D01*
X28068D01*
Y31483D01*
X28085D01*
Y31491D01*
X28093D01*
Y31500D01*
X28109D01*
Y31508D01*
X28126D01*
Y31516D01*
X28167D01*
Y31524D01*
X28201D01*
Y31516D01*
X28250D01*
Y31508D01*
X28275D01*
Y31500D01*
X28292D01*
Y31491D01*
X28308D01*
Y31483D01*
X28325D01*
Y31475D01*
X28341D01*
Y31466D01*
X28349D01*
Y31458D01*
X28366D01*
Y31450D01*
X28374D01*
Y31442D01*
X28391D01*
Y31433D01*
X28399D01*
Y31425D01*
X28407D01*
Y31417D01*
X28424D01*
Y31409D01*
X28432D01*
Y31400D01*
X28440D01*
Y31392D01*
X28449D01*
Y31384D01*
X28457D01*
Y31375D01*
X28465D01*
Y31367D01*
X28474D01*
Y31359D01*
X28482D01*
Y31351D01*
X28490D01*
Y31342D01*
X28498D01*
Y31334D01*
X28507D01*
Y31326D01*
X28515D01*
Y31317D01*
X28523D01*
Y31309D01*
X28531D01*
Y31301D01*
X28540D01*
Y31293D01*
Y31284D01*
X28548D01*
Y31276D01*
X28556D01*
Y31268D01*
X28565D01*
Y31260D01*
X28573D01*
Y31251D01*
X28581D01*
Y31243D01*
Y31235D01*
X28589D01*
Y31226D01*
X28598D01*
Y31218D01*
Y31210D01*
X28606D01*
Y31202D01*
X28614D01*
Y31193D01*
X28623D01*
Y31185D01*
Y31177D01*
X28631D01*
Y31169D01*
X28639D01*
Y31160D01*
Y31152D01*
X28647D01*
Y31144D01*
X28656D01*
Y31135D01*
Y31127D01*
X28664D01*
Y31119D01*
Y31111D01*
X28672D01*
Y31102D01*
X28680D01*
Y31094D01*
Y31086D01*
X28689D01*
Y31078D01*
Y31069D01*
X28697D01*
Y31061D01*
X28705D01*
Y31053D01*
Y31044D01*
X28714D01*
Y31036D01*
Y31028D01*
X28722D01*
Y31020D01*
Y31011D01*
X28730D01*
Y31003D01*
Y30995D01*
X28738D01*
Y30987D01*
Y30978D01*
X28747D01*
Y30970D01*
Y30962D01*
X28755D01*
Y30953D01*
Y30945D01*
X28763D01*
Y30937D01*
Y30929D01*
X28771D01*
Y30920D01*
Y30912D01*
X28780D01*
Y30904D01*
Y30896D01*
Y30887D01*
X28788D01*
Y30879D01*
Y30871D01*
X28796D01*
Y30862D01*
Y30854D01*
X28805D01*
Y30846D01*
Y30838D01*
Y30829D01*
X28813D01*
Y30821D01*
Y30813D01*
Y30804D01*
X28821D01*
Y30796D01*
Y30788D01*
X28829D01*
Y30780D01*
Y30771D01*
Y30763D01*
X28838D01*
Y30755D01*
Y30747D01*
Y30738D01*
X28846D01*
Y30730D01*
Y30722D01*
Y30713D01*
X28854D01*
Y30705D01*
Y30697D01*
Y30689D01*
X28862D01*
Y30680D01*
Y30672D01*
Y30664D01*
Y30656D01*
X28871D01*
Y30647D01*
Y30639D01*
Y30631D01*
Y30622D01*
X28879D01*
Y30614D01*
Y30606D01*
Y30598D01*
Y30589D01*
X28887D01*
Y30581D01*
Y30573D01*
Y30565D01*
Y30556D01*
Y30548D01*
X28896D01*
Y30540D01*
Y30531D01*
Y30523D01*
Y30515D01*
Y30507D01*
Y30498D01*
X28904D01*
Y30490D01*
Y30482D01*
Y30473D01*
Y30465D01*
Y30457D01*
Y30449D01*
Y30440D01*
Y30432D01*
X28912D01*
Y30424D01*
Y30416D01*
Y30407D01*
Y30399D01*
Y30391D01*
Y30382D01*
Y30374D01*
Y30366D01*
Y30358D01*
Y30349D01*
Y30341D01*
Y30333D01*
Y30325D01*
Y30316D01*
Y30308D01*
Y30300D01*
Y30291D01*
Y30283D01*
Y30275D01*
X28904D01*
Y30267D01*
Y30258D01*
Y30250D01*
Y30242D01*
Y30234D01*
Y30225D01*
Y30217D01*
X28896D01*
Y30209D01*
Y30200D01*
Y30192D01*
Y30184D01*
X28904D01*
Y30176D01*
Y30167D01*
X28912D01*
Y30159D01*
Y30151D01*
X28920D01*
Y30143D01*
Y30134D01*
X28929D01*
Y30126D01*
Y30118D01*
Y30109D01*
X28937D01*
Y30101D01*
Y30093D01*
X28945D01*
Y30085D01*
Y30076D01*
X28953D01*
Y30068D01*
Y30060D01*
X28962D01*
Y30051D01*
Y30043D01*
Y30035D01*
X28970D01*
Y30027D01*
Y30018D01*
X28978D01*
Y30010D01*
Y30002D01*
X28987D01*
Y29994D01*
Y29985D01*
X28995D01*
Y29977D01*
Y29969D01*
X29003D01*
Y29960D01*
Y29952D01*
Y29944D01*
X29011D01*
Y29936D01*
Y29927D01*
X29020D01*
Y29919D01*
Y29911D01*
X29028D01*
Y29903D01*
Y29894D01*
X29036D01*
Y29886D01*
Y29878D01*
Y29869D01*
X29069D01*
Y29878D01*
X29392D01*
Y29869D01*
X29450D01*
Y29878D01*
Y29886D01*
X29458D01*
Y29894D01*
Y29903D01*
X29467D01*
Y29911D01*
Y29919D01*
Y29927D01*
X29475D01*
Y29936D01*
Y29944D01*
X29483D01*
Y29952D01*
Y29960D01*
X29491D01*
Y29969D01*
Y29977D01*
X29500D01*
Y29985D01*
Y29994D01*
X29508D01*
Y30002D01*
Y30010D01*
Y30018D01*
X29516D01*
Y30027D01*
Y30035D01*
X29524D01*
Y30043D01*
Y30051D01*
X29533D01*
Y30060D01*
Y30068D01*
X29541D01*
Y30076D01*
Y30085D01*
Y30093D01*
X29549D01*
Y30101D01*
Y30109D01*
X29558D01*
Y30118D01*
Y30126D01*
X29566D01*
Y30134D01*
Y30143D01*
X29574D01*
Y30151D01*
Y30159D01*
Y30167D01*
X29582D01*
Y30176D01*
Y30184D01*
X29591D01*
Y30192D01*
Y30200D01*
X29599D01*
Y30209D01*
Y30217D01*
Y30225D01*
X29591D01*
Y30234D01*
Y30242D01*
Y30250D01*
Y30258D01*
Y30267D01*
Y30275D01*
X29582D01*
Y30283D01*
Y30291D01*
Y30300D01*
Y30308D01*
Y30316D01*
Y30325D01*
Y30333D01*
Y30341D01*
Y30349D01*
Y30358D01*
Y30366D01*
Y30374D01*
Y30382D01*
Y30391D01*
Y30399D01*
Y30407D01*
Y30416D01*
Y30424D01*
Y30432D01*
Y30440D01*
Y30449D01*
X29591D01*
Y30457D01*
Y30465D01*
Y30473D01*
Y30482D01*
Y30490D01*
Y30498D01*
Y30507D01*
Y30515D01*
X29599D01*
Y30523D01*
Y30531D01*
Y30540D01*
Y30548D01*
Y30556D01*
Y30565D01*
X29607D01*
Y30573D01*
Y30581D01*
Y30589D01*
Y30598D01*
Y30606D01*
X29615D01*
Y30614D01*
Y30622D01*
Y30631D01*
Y30639D01*
X29624D01*
Y30647D01*
Y30656D01*
Y30664D01*
Y30672D01*
X29632D01*
Y30680D01*
Y30689D01*
Y30697D01*
X29640D01*
Y30705D01*
Y30713D01*
Y30722D01*
Y30730D01*
X29649D01*
Y30738D01*
Y30747D01*
Y30755D01*
X29657D01*
Y30763D01*
Y30771D01*
Y30780D01*
X29665D01*
Y30788D01*
Y30796D01*
X29673D01*
Y30804D01*
Y30813D01*
Y30821D01*
X29682D01*
Y30829D01*
Y30838D01*
Y30846D01*
X29690D01*
Y30854D01*
Y30862D01*
X29698D01*
Y30871D01*
Y30879D01*
Y30887D01*
X29706D01*
Y30896D01*
Y30904D01*
X29715D01*
Y30912D01*
Y30920D01*
X29723D01*
Y30929D01*
Y30937D01*
X29731D01*
Y30945D01*
Y30953D01*
Y30962D01*
X29740D01*
Y30970D01*
Y30978D01*
X29748D01*
Y30987D01*
Y30995D01*
X29756D01*
Y31003D01*
Y31011D01*
X29764D01*
Y31020D01*
Y31028D01*
X29773D01*
Y31036D01*
Y31044D01*
X29781D01*
Y31053D01*
X29789D01*
Y31061D01*
Y31069D01*
X29797D01*
Y31078D01*
Y31086D01*
X29806D01*
Y31094D01*
Y31102D01*
X29814D01*
Y31111D01*
X29822D01*
Y31119D01*
Y31127D01*
X29831D01*
Y31135D01*
Y31144D01*
X29839D01*
Y31152D01*
X29847D01*
Y31160D01*
Y31169D01*
X29855D01*
Y31177D01*
X29864D01*
Y31185D01*
Y31193D01*
X29872D01*
Y31202D01*
X29880D01*
Y31210D01*
Y31218D01*
X29889D01*
Y31226D01*
X29897D01*
Y31235D01*
X29905D01*
Y31243D01*
Y31251D01*
X29913D01*
Y31260D01*
X29922D01*
Y31268D01*
X29930D01*
Y31276D01*
X29938D01*
Y31284D01*
Y31293D01*
X29946D01*
Y31301D01*
X29955D01*
Y31309D01*
X29963D01*
Y31317D01*
X29971D01*
Y31326D01*
X29980D01*
Y31334D01*
X29988D01*
Y31342D01*
Y31351D01*
X29996D01*
Y31359D01*
X30004D01*
Y31367D01*
X30013D01*
Y31375D01*
X30021D01*
Y31384D01*
X30029D01*
Y31392D01*
X30046D01*
Y31400D01*
X30054D01*
Y31409D01*
X30062D01*
Y31417D01*
X30071D01*
Y31425D01*
X30079D01*
Y31433D01*
X30087D01*
Y31442D01*
X30104D01*
Y31450D01*
X30112D01*
Y31458D01*
X30128D01*
Y31466D01*
X30137D01*
Y31475D01*
X30153D01*
Y31483D01*
X30162D01*
Y31491D01*
X30178D01*
Y31500D01*
X30195D01*
Y31508D01*
X30219D01*
Y31516D01*
X30236D01*
Y31524D01*
X30277D01*
Y31533D01*
X30344D01*
Y31524D01*
D02*
G37*
%LPC*%
G36*
X28871Y30250D02*
X28862D01*
Y30242D01*
X28871D01*
Y30250D01*
D02*
G37*
G36*
X28225Y31491D02*
X28151D01*
Y31483D01*
X28118D01*
Y31475D01*
X28101D01*
Y31466D01*
X28093D01*
Y31458D01*
X28085D01*
Y31450D01*
X28076D01*
Y31442D01*
X28068D01*
Y31433D01*
X28060D01*
Y31425D01*
X28052D01*
Y31417D01*
Y31409D01*
X28043D01*
Y31400D01*
Y31392D01*
X28035D01*
Y31384D01*
Y31375D01*
X28027D01*
Y31367D01*
Y31359D01*
Y31351D01*
X28018D01*
Y31342D01*
Y31334D01*
Y31326D01*
Y31317D01*
X28010D01*
Y31309D01*
Y31301D01*
Y31293D01*
Y31284D01*
Y31276D01*
Y31268D01*
X28002D01*
Y31260D01*
Y31251D01*
Y31243D01*
Y31235D01*
Y31226D01*
Y31218D01*
Y31210D01*
Y31202D01*
Y31193D01*
Y31185D01*
Y31177D01*
Y31169D01*
Y31160D01*
Y31152D01*
Y31144D01*
Y31135D01*
Y31127D01*
Y31119D01*
Y31111D01*
Y31102D01*
Y31094D01*
X28010D01*
Y31086D01*
Y31078D01*
Y31069D01*
Y31061D01*
Y31053D01*
Y31044D01*
Y31036D01*
Y31028D01*
X28018D01*
Y31020D01*
Y31011D01*
Y31003D01*
Y30995D01*
Y30987D01*
Y30978D01*
X28027D01*
Y30970D01*
Y30962D01*
Y30953D01*
Y30945D01*
Y30937D01*
X28035D01*
Y30929D01*
Y30920D01*
Y30912D01*
Y30904D01*
X28043D01*
Y30896D01*
Y30887D01*
Y30879D01*
Y30871D01*
X28052D01*
Y30862D01*
Y30854D01*
Y30846D01*
X28060D01*
Y30838D01*
Y30829D01*
Y30821D01*
X28068D01*
Y30813D01*
Y30804D01*
Y30796D01*
Y30788D01*
X28076D01*
Y30780D01*
Y30771D01*
Y30763D01*
X28085D01*
Y30755D01*
Y30747D01*
X28093D01*
Y30738D01*
Y30730D01*
Y30722D01*
X28101D01*
Y30713D01*
Y30705D01*
Y30697D01*
X28109D01*
Y30689D01*
Y30680D01*
X28118D01*
Y30672D01*
Y30664D01*
X28126D01*
Y30656D01*
Y30647D01*
Y30639D01*
X28134D01*
Y30631D01*
Y30622D01*
X28143D01*
Y30614D01*
Y30606D01*
X28151D01*
Y30598D01*
Y30589D01*
X28159D01*
Y30581D01*
Y30573D01*
X28167D01*
Y30565D01*
Y30556D01*
X28176D01*
Y30548D01*
Y30540D01*
X28184D01*
Y30531D01*
Y30523D01*
X28192D01*
Y30515D01*
Y30507D01*
X28201D01*
Y30498D01*
Y30490D01*
X28209D01*
Y30482D01*
Y30473D01*
X28217D01*
Y30465D01*
X28225D01*
Y30457D01*
Y30449D01*
X28234D01*
Y30440D01*
Y30432D01*
X28242D01*
Y30424D01*
X28250D01*
Y30416D01*
Y30407D01*
X28258D01*
Y30399D01*
X28267D01*
Y30391D01*
Y30382D01*
X28275D01*
Y30374D01*
Y30366D01*
X28283D01*
Y30358D01*
X28292D01*
Y30349D01*
X28300D01*
Y30341D01*
Y30333D01*
X28308D01*
Y30325D01*
X28316D01*
Y30316D01*
Y30308D01*
X28325D01*
Y30300D01*
X28333D01*
Y30291D01*
X28341D01*
Y30283D01*
X28349D01*
Y30275D01*
Y30267D01*
X28358D01*
Y30258D01*
X28366D01*
Y30250D01*
X28374D01*
Y30242D01*
X28383D01*
Y30234D01*
X28391D01*
Y30225D01*
X28399D01*
Y30217D01*
X28407D01*
Y30209D01*
X28416D01*
Y30200D01*
X28424D01*
Y30192D01*
X28432D01*
Y30184D01*
X28440D01*
Y30176D01*
X28449D01*
Y30167D01*
X28457D01*
Y30159D01*
X28465D01*
Y30151D01*
X28474D01*
Y30143D01*
X28482D01*
Y30134D01*
X28515D01*
Y30143D01*
X28531D01*
Y30151D01*
X28556D01*
Y30159D01*
X28573D01*
Y30167D01*
X28589D01*
Y30176D01*
X28606D01*
Y30184D01*
X28631D01*
Y30192D01*
X28647D01*
Y30200D01*
X28664D01*
Y30209D01*
X28656D01*
Y30217D01*
X28647D01*
Y30225D01*
Y30234D01*
X28639D01*
Y30242D01*
X28631D01*
Y30250D01*
X28623D01*
Y30258D01*
X28614D01*
Y30267D01*
X28606D01*
Y30275D01*
Y30283D01*
X28598D01*
Y30291D01*
X28589D01*
Y30300D01*
X28581D01*
Y30308D01*
Y30316D01*
X28573D01*
Y30325D01*
X28565D01*
Y30333D01*
X28556D01*
Y30341D01*
Y30349D01*
X28548D01*
Y30358D01*
X28540D01*
Y30366D01*
X28531D01*
Y30374D01*
Y30382D01*
X28523D01*
Y30391D01*
X28515D01*
Y30399D01*
Y30407D01*
X28507D01*
Y30416D01*
X28498D01*
Y30424D01*
X28490D01*
Y30432D01*
Y30440D01*
X28482D01*
Y30449D01*
X28474D01*
Y30457D01*
Y30465D01*
X28465D01*
Y30473D01*
X28457D01*
Y30482D01*
Y30490D01*
X28449D01*
Y30498D01*
X28440D01*
Y30507D01*
X28432D01*
Y30515D01*
Y30523D01*
X28424D01*
Y30531D01*
X28416D01*
Y30540D01*
Y30548D01*
X28407D01*
Y30556D01*
X28399D01*
Y30565D01*
Y30573D01*
X28391D01*
Y30581D01*
X28383D01*
Y30589D01*
Y30598D01*
X28374D01*
Y30606D01*
X28366D01*
Y30614D01*
Y30622D01*
X28358D01*
Y30631D01*
X28349D01*
Y30639D01*
Y30647D01*
X28341D01*
Y30656D01*
X28333D01*
Y30664D01*
Y30672D01*
X28325D01*
Y30680D01*
X28316D01*
Y30689D01*
Y30697D01*
X28308D01*
Y30705D01*
X28300D01*
Y30713D01*
Y30722D01*
X28292D01*
Y30730D01*
X28283D01*
Y30738D01*
Y30747D01*
X28275D01*
Y30755D01*
X28267D01*
Y30763D01*
Y30771D01*
X28258D01*
Y30780D01*
X28250D01*
Y30788D01*
Y30796D01*
X28242D01*
Y30804D01*
X28234D01*
Y30813D01*
Y30821D01*
X28225D01*
Y30829D01*
Y30838D01*
X28217D01*
Y30846D01*
X28209D01*
Y30854D01*
Y30862D01*
X28201D01*
Y30871D01*
X28192D01*
Y30879D01*
Y30887D01*
X28184D01*
Y30896D01*
Y30904D01*
X28176D01*
Y30912D01*
X28167D01*
Y30920D01*
Y30929D01*
X28159D01*
Y30937D01*
Y30945D01*
X28151D01*
Y30953D01*
X28143D01*
Y30962D01*
Y30970D01*
X28134D01*
Y30978D01*
Y30987D01*
X28126D01*
Y30995D01*
Y31003D01*
X28118D01*
Y31011D01*
Y31020D01*
X28126D01*
Y31011D01*
X28134D01*
Y31003D01*
X28143D01*
Y30995D01*
Y30987D01*
X28151D01*
Y30978D01*
X28159D01*
Y30970D01*
X28167D01*
Y30962D01*
X28176D01*
Y30953D01*
Y30945D01*
X28184D01*
Y30937D01*
X28192D01*
Y30929D01*
X28201D01*
Y30920D01*
Y30912D01*
X28209D01*
Y30904D01*
X28217D01*
Y30896D01*
X28225D01*
Y30887D01*
Y30879D01*
X28234D01*
Y30871D01*
X28242D01*
Y30862D01*
X28250D01*
Y30854D01*
Y30846D01*
X28258D01*
Y30838D01*
X28267D01*
Y30829D01*
X28275D01*
Y30821D01*
Y30813D01*
X28283D01*
Y30804D01*
X28292D01*
Y30796D01*
Y30788D01*
X28300D01*
Y30780D01*
X28308D01*
Y30771D01*
X28316D01*
Y30763D01*
Y30755D01*
X28325D01*
Y30747D01*
X28333D01*
Y30738D01*
Y30730D01*
X28341D01*
Y30722D01*
X28349D01*
Y30713D01*
Y30705D01*
X28358D01*
Y30697D01*
X28366D01*
Y30689D01*
Y30680D01*
X28374D01*
Y30672D01*
X28383D01*
Y30664D01*
X28391D01*
Y30656D01*
Y30647D01*
X28399D01*
Y30639D01*
X28407D01*
Y30631D01*
Y30622D01*
X28416D01*
Y30614D01*
X28424D01*
Y30606D01*
Y30598D01*
X28432D01*
Y30589D01*
X28440D01*
Y30581D01*
Y30573D01*
X28449D01*
Y30565D01*
X28457D01*
Y30556D01*
Y30548D01*
X28465D01*
Y30540D01*
X28474D01*
Y30531D01*
Y30523D01*
X28482D01*
Y30515D01*
X28490D01*
Y30507D01*
Y30498D01*
X28498D01*
Y30490D01*
X28507D01*
Y30482D01*
Y30473D01*
X28515D01*
Y30465D01*
X28523D01*
Y30457D01*
Y30449D01*
X28531D01*
Y30440D01*
Y30432D01*
X28540D01*
Y30424D01*
X28548D01*
Y30416D01*
Y30407D01*
X28556D01*
Y30399D01*
X28565D01*
Y30391D01*
Y30382D01*
X28573D01*
Y30374D01*
Y30366D01*
X28581D01*
Y30358D01*
X28589D01*
Y30349D01*
Y30341D01*
X28598D01*
Y30333D01*
X28606D01*
Y30325D01*
Y30316D01*
X28614D01*
Y30308D01*
Y30300D01*
X28623D01*
Y30291D01*
X28631D01*
Y30283D01*
Y30275D01*
X28639D01*
Y30267D01*
Y30258D01*
X28647D01*
Y30250D01*
Y30242D01*
X28656D01*
Y30234D01*
Y30225D01*
X28664D01*
Y30217D01*
Y30209D01*
X28680D01*
Y30217D01*
Y30225D01*
Y30234D01*
X28672D01*
Y30242D01*
Y30250D01*
Y30258D01*
X28664D01*
Y30267D01*
Y30275D01*
Y30283D01*
X28656D01*
Y30291D01*
Y30300D01*
Y30308D01*
X28647D01*
Y30316D01*
Y30325D01*
Y30333D01*
X28639D01*
Y30341D01*
Y30349D01*
Y30358D01*
X28631D01*
Y30366D01*
Y30374D01*
Y30382D01*
Y30391D01*
X28623D01*
Y30399D01*
Y30407D01*
Y30416D01*
X28614D01*
Y30424D01*
Y30432D01*
Y30440D01*
Y30449D01*
X28606D01*
Y30457D01*
Y30465D01*
Y30473D01*
X28598D01*
Y30482D01*
Y30490D01*
Y30498D01*
Y30507D01*
X28589D01*
Y30515D01*
Y30523D01*
Y30531D01*
X28581D01*
Y30540D01*
Y30548D01*
Y30556D01*
Y30565D01*
X28573D01*
Y30573D01*
Y30581D01*
Y30589D01*
Y30598D01*
X28565D01*
Y30606D01*
Y30614D01*
Y30622D01*
Y30631D01*
X28556D01*
Y30639D01*
Y30647D01*
Y30656D01*
X28548D01*
Y30664D01*
Y30672D01*
Y30680D01*
Y30689D01*
X28540D01*
Y30697D01*
Y30705D01*
Y30713D01*
Y30722D01*
X28531D01*
Y30730D01*
Y30738D01*
Y30747D01*
Y30755D01*
X28523D01*
Y30763D01*
Y30771D01*
Y30780D01*
Y30788D01*
Y30796D01*
X28515D01*
Y30804D01*
Y30813D01*
Y30821D01*
Y30829D01*
X28507D01*
Y30838D01*
Y30846D01*
Y30854D01*
Y30862D01*
X28498D01*
Y30871D01*
Y30879D01*
Y30887D01*
Y30896D01*
X28490D01*
Y30904D01*
Y30912D01*
Y30920D01*
Y30929D01*
Y30937D01*
X28482D01*
Y30945D01*
Y30953D01*
Y30962D01*
Y30970D01*
X28474D01*
Y30978D01*
Y30987D01*
Y30995D01*
Y31003D01*
Y31011D01*
X28465D01*
Y31020D01*
Y31028D01*
Y31036D01*
Y31044D01*
Y31053D01*
X28457D01*
Y31061D01*
Y31069D01*
Y31078D01*
Y31086D01*
Y31094D01*
X28449D01*
Y31102D01*
Y31111D01*
Y31119D01*
Y31127D01*
Y31135D01*
Y31144D01*
Y31152D01*
X28440D01*
Y31160D01*
Y31169D01*
Y31177D01*
Y31185D01*
X28449D01*
Y31177D01*
Y31169D01*
Y31160D01*
X28457D01*
Y31152D01*
Y31144D01*
X28465D01*
Y31135D01*
Y31127D01*
Y31119D01*
X28474D01*
Y31111D01*
Y31102D01*
Y31094D01*
X28482D01*
Y31086D01*
Y31078D01*
Y31069D01*
X28490D01*
Y31061D01*
Y31053D01*
Y31044D01*
X28498D01*
Y31036D01*
Y31028D01*
Y31020D01*
Y31011D01*
X28507D01*
Y31003D01*
Y30995D01*
Y30987D01*
X28515D01*
Y30978D01*
Y30970D01*
Y30962D01*
Y30953D01*
X28523D01*
Y30945D01*
Y30937D01*
Y30929D01*
X28531D01*
Y30920D01*
Y30912D01*
Y30904D01*
X28540D01*
Y30896D01*
Y30887D01*
Y30879D01*
Y30871D01*
X28548D01*
Y30862D01*
Y30854D01*
Y30846D01*
Y30838D01*
X28556D01*
Y30829D01*
Y30821D01*
Y30813D01*
Y30804D01*
X28565D01*
Y30796D01*
Y30788D01*
Y30780D01*
X28573D01*
Y30771D01*
Y30763D01*
Y30755D01*
Y30747D01*
X28581D01*
Y30738D01*
Y30730D01*
Y30722D01*
Y30713D01*
X28589D01*
Y30705D01*
Y30697D01*
Y30689D01*
Y30680D01*
X28598D01*
Y30672D01*
Y30664D01*
Y30656D01*
Y30647D01*
X28606D01*
Y30639D01*
Y30631D01*
Y30622D01*
Y30614D01*
X28614D01*
Y30606D01*
Y30598D01*
Y30589D01*
Y30581D01*
X28623D01*
Y30573D01*
Y30565D01*
Y30556D01*
Y30548D01*
Y30540D01*
X28631D01*
Y30531D01*
Y30523D01*
Y30515D01*
Y30507D01*
X28639D01*
Y30498D01*
Y30490D01*
Y30482D01*
Y30473D01*
X28647D01*
Y30465D01*
Y30457D01*
Y30449D01*
Y30440D01*
Y30432D01*
X28656D01*
Y30424D01*
Y30416D01*
Y30407D01*
Y30399D01*
X28664D01*
Y30391D01*
Y30382D01*
Y30374D01*
Y30366D01*
Y30358D01*
X28672D01*
Y30349D01*
Y30341D01*
Y30333D01*
Y30325D01*
Y30316D01*
Y30308D01*
X28680D01*
Y30300D01*
Y30291D01*
Y30283D01*
Y30275D01*
Y30267D01*
X28689D01*
Y30258D01*
Y30250D01*
Y30242D01*
Y30234D01*
Y30225D01*
Y30217D01*
X28705D01*
Y30225D01*
X28722D01*
Y30234D01*
X28738D01*
Y30242D01*
X28755D01*
Y30250D01*
X28771D01*
Y30258D01*
X28796D01*
Y30267D01*
X28813D01*
Y30275D01*
X28829D01*
Y30283D01*
X28846D01*
Y30291D01*
X28871D01*
Y30300D01*
X28879D01*
Y30308D01*
Y30316D01*
Y30325D01*
Y30333D01*
Y30341D01*
Y30349D01*
Y30358D01*
Y30366D01*
Y30374D01*
Y30382D01*
Y30391D01*
Y30399D01*
Y30407D01*
Y30416D01*
Y30424D01*
Y30432D01*
Y30440D01*
Y30449D01*
Y30457D01*
Y30465D01*
X28871D01*
Y30473D01*
Y30482D01*
Y30490D01*
Y30498D01*
Y30507D01*
Y30515D01*
X28862D01*
Y30523D01*
Y30531D01*
Y30540D01*
Y30548D01*
Y30556D01*
Y30565D01*
X28854D01*
Y30573D01*
Y30581D01*
Y30589D01*
Y30598D01*
Y30606D01*
X28846D01*
Y30614D01*
Y30622D01*
Y30631D01*
Y30639D01*
X28838D01*
Y30647D01*
Y30656D01*
Y30664D01*
X28829D01*
Y30672D01*
Y30680D01*
Y30689D01*
Y30697D01*
X28821D01*
Y30705D01*
Y30713D01*
Y30722D01*
X28813D01*
Y30730D01*
Y30738D01*
Y30747D01*
X28805D01*
Y30755D01*
Y30763D01*
Y30771D01*
X28796D01*
Y30780D01*
Y30788D01*
Y30796D01*
X28788D01*
Y30804D01*
Y30813D01*
X28780D01*
Y30821D01*
Y30829D01*
Y30838D01*
X28771D01*
Y30846D01*
Y30854D01*
X28763D01*
Y30862D01*
Y30871D01*
Y30879D01*
X28755D01*
Y30887D01*
Y30896D01*
X28747D01*
Y30904D01*
Y30912D01*
X28738D01*
Y30920D01*
Y30929D01*
X28730D01*
Y30937D01*
Y30945D01*
Y30953D01*
X28722D01*
Y30962D01*
Y30970D01*
X28714D01*
Y30978D01*
Y30987D01*
X28705D01*
Y30995D01*
Y31003D01*
X28697D01*
Y31011D01*
X28689D01*
Y31020D01*
Y31028D01*
X28680D01*
Y31036D01*
Y31044D01*
X28672D01*
Y31053D01*
Y31061D01*
X28664D01*
Y31069D01*
Y31078D01*
X28656D01*
Y31086D01*
X28647D01*
Y31094D01*
Y31102D01*
X28639D01*
Y31111D01*
Y31119D01*
X28631D01*
Y31127D01*
X28623D01*
Y31135D01*
Y31144D01*
X28614D01*
Y31152D01*
X28606D01*
Y31160D01*
Y31169D01*
X28598D01*
Y31177D01*
X28589D01*
Y31185D01*
Y31193D01*
X28581D01*
Y31202D01*
X28573D01*
Y31210D01*
X28565D01*
Y31218D01*
Y31226D01*
X28556D01*
Y31235D01*
X28548D01*
Y31243D01*
X28540D01*
Y31251D01*
X28531D01*
Y31260D01*
Y31268D01*
X28523D01*
Y31276D01*
X28515D01*
Y31284D01*
X28507D01*
Y31293D01*
X28498D01*
Y31301D01*
X28490D01*
Y31309D01*
X28482D01*
Y31317D01*
X28474D01*
Y31326D01*
Y31334D01*
X28465D01*
Y31342D01*
X28449D01*
Y31351D01*
X28440D01*
Y31359D01*
X28432D01*
Y31367D01*
X28424D01*
Y31375D01*
X28416D01*
Y31384D01*
X28407D01*
Y31392D01*
X28399D01*
Y31400D01*
X28391D01*
Y31409D01*
X28374D01*
Y31417D01*
X28366D01*
Y31425D01*
X28349D01*
Y31433D01*
X28341D01*
Y31442D01*
X28325D01*
Y31450D01*
X28316D01*
Y31458D01*
X28300D01*
Y31466D01*
X28275D01*
Y31475D01*
X28258D01*
Y31483D01*
X28225D01*
Y31491D01*
D02*
G37*
G36*
X28862Y30242D02*
X28838D01*
Y30234D01*
X28821D01*
Y30225D01*
X28805D01*
Y30217D01*
X28788D01*
Y30209D01*
X28813D01*
Y30217D01*
X28829D01*
Y30225D01*
X28846D01*
Y30234D01*
X28862D01*
Y30242D01*
D02*
G37*
G36*
X30352Y31500D02*
X30261D01*
Y31491D01*
X30228D01*
Y31483D01*
X30211D01*
Y31475D01*
X30195D01*
Y31466D01*
X30178D01*
Y31458D01*
X30162D01*
Y31450D01*
X30145D01*
Y31442D01*
X30137D01*
Y31433D01*
X30128D01*
Y31425D01*
X30112D01*
Y31417D01*
X30104D01*
Y31409D01*
X30095D01*
Y31400D01*
X30087D01*
Y31392D01*
X30071D01*
Y31384D01*
X30062D01*
Y31375D01*
X30054D01*
Y31367D01*
X30046D01*
Y31359D01*
X30037D01*
Y31351D01*
X30029D01*
Y31342D01*
X30021D01*
Y31334D01*
X30013D01*
Y31326D01*
X30004D01*
Y31317D01*
X29996D01*
Y31309D01*
X29988D01*
Y31301D01*
X29980D01*
Y31293D01*
Y31284D01*
X29971D01*
Y31276D01*
X29963D01*
Y31268D01*
X29955D01*
Y31260D01*
X29946D01*
Y31251D01*
Y31243D01*
X29938D01*
Y31235D01*
X29930D01*
Y31226D01*
X29922D01*
Y31218D01*
Y31210D01*
X29913D01*
Y31202D01*
X29905D01*
Y31193D01*
X29897D01*
Y31185D01*
Y31177D01*
X29889D01*
Y31169D01*
X29880D01*
Y31160D01*
Y31152D01*
X29872D01*
Y31144D01*
X29864D01*
Y31135D01*
Y31127D01*
X29855D01*
Y31119D01*
Y31111D01*
X29847D01*
Y31102D01*
X29839D01*
Y31094D01*
Y31086D01*
X29831D01*
Y31078D01*
Y31069D01*
X29822D01*
Y31061D01*
X29814D01*
Y31053D01*
Y31044D01*
X29806D01*
Y31036D01*
Y31028D01*
X29797D01*
Y31020D01*
Y31011D01*
X29789D01*
Y31003D01*
Y30995D01*
X29781D01*
Y30987D01*
Y30978D01*
X29773D01*
Y30970D01*
Y30962D01*
X29764D01*
Y30953D01*
Y30945D01*
X29756D01*
Y30937D01*
Y30929D01*
X29748D01*
Y30920D01*
Y30912D01*
X29740D01*
Y30904D01*
Y30896D01*
Y30887D01*
X29731D01*
Y30879D01*
Y30871D01*
X29723D01*
Y30862D01*
Y30854D01*
X29715D01*
Y30846D01*
Y30838D01*
Y30829D01*
X29706D01*
Y30821D01*
Y30813D01*
Y30804D01*
X29698D01*
Y30796D01*
Y30788D01*
X29690D01*
Y30780D01*
Y30771D01*
Y30763D01*
X29682D01*
Y30755D01*
Y30747D01*
Y30738D01*
X29673D01*
Y30730D01*
Y30722D01*
Y30713D01*
X29665D01*
Y30705D01*
Y30697D01*
Y30689D01*
Y30680D01*
X29657D01*
Y30672D01*
Y30664D01*
Y30656D01*
Y30647D01*
X29649D01*
Y30639D01*
Y30631D01*
Y30622D01*
X29640D01*
Y30614D01*
Y30606D01*
Y30598D01*
Y30589D01*
Y30581D01*
X29632D01*
Y30573D01*
Y30565D01*
Y30556D01*
Y30548D01*
Y30540D01*
X29624D01*
Y30531D01*
Y30523D01*
Y30515D01*
Y30507D01*
Y30498D01*
Y30490D01*
Y30482D01*
X29615D01*
Y30473D01*
Y30465D01*
Y30457D01*
Y30449D01*
Y30440D01*
Y30432D01*
Y30424D01*
Y30416D01*
Y30407D01*
Y30399D01*
Y30391D01*
Y30382D01*
Y30374D01*
Y30366D01*
Y30358D01*
Y30349D01*
Y30341D01*
Y30333D01*
Y30325D01*
Y30316D01*
Y30308D01*
X29632D01*
Y30300D01*
X29649D01*
Y30291D01*
X29665D01*
Y30283D01*
X29682D01*
Y30275D01*
X29706D01*
Y30267D01*
X29723D01*
Y30258D01*
X29740D01*
Y30250D01*
X29756D01*
Y30242D01*
X29781D01*
Y30234D01*
X29797D01*
Y30225D01*
X29814D01*
Y30217D01*
X29822D01*
Y30225D01*
X29831D01*
Y30217D01*
Y30209D01*
X29855D01*
Y30200D01*
X29872D01*
Y30192D01*
X29889D01*
Y30184D01*
X29905D01*
Y30176D01*
X29922D01*
Y30167D01*
X29946D01*
Y30159D01*
X29963D01*
Y30151D01*
X29980D01*
Y30143D01*
X30004D01*
Y30151D01*
X30021D01*
Y30159D01*
X30029D01*
Y30167D01*
X30037D01*
Y30176D01*
X30046D01*
Y30184D01*
X30054D01*
Y30192D01*
X30062D01*
Y30200D01*
X30071D01*
Y30209D01*
X30079D01*
Y30217D01*
X30087D01*
Y30225D01*
X30095D01*
Y30234D01*
X30104D01*
Y30242D01*
X30112D01*
Y30250D01*
X30120D01*
Y30258D01*
X30128D01*
Y30267D01*
Y30275D01*
X30137D01*
Y30283D01*
X30145D01*
Y30291D01*
X30153D01*
Y30300D01*
X30162D01*
Y30308D01*
Y30316D01*
X30170D01*
Y30325D01*
X30178D01*
Y30333D01*
X30186D01*
Y30341D01*
Y30349D01*
X30195D01*
Y30358D01*
X30203D01*
Y30366D01*
X30211D01*
Y30374D01*
Y30382D01*
X30219D01*
Y30391D01*
X30228D01*
Y30399D01*
Y30407D01*
X30236D01*
Y30416D01*
Y30424D01*
X30244D01*
Y30432D01*
X30253D01*
Y30440D01*
Y30449D01*
X30261D01*
Y30457D01*
X30269D01*
Y30465D01*
Y30473D01*
X30277D01*
Y30482D01*
Y30490D01*
X30286D01*
Y30498D01*
Y30507D01*
X30294D01*
Y30515D01*
Y30523D01*
X30302D01*
Y30531D01*
X30311D01*
Y30540D01*
Y30548D01*
X30319D01*
Y30556D01*
Y30565D01*
X30327D01*
Y30573D01*
Y30581D01*
X30335D01*
Y30589D01*
Y30598D01*
X30344D01*
Y30606D01*
Y30614D01*
X30352D01*
Y30622D01*
Y30631D01*
Y30639D01*
X30360D01*
Y30647D01*
Y30656D01*
X30368D01*
Y30664D01*
Y30672D01*
X30377D01*
Y30680D01*
Y30689D01*
Y30697D01*
X30385D01*
Y30705D01*
Y30713D01*
X30393D01*
Y30722D01*
Y30730D01*
Y30738D01*
X30402D01*
Y30747D01*
Y30755D01*
X30410D01*
Y30763D01*
Y30771D01*
Y30780D01*
X30418D01*
Y30788D01*
Y30796D01*
Y30804D01*
X30426D01*
Y30813D01*
Y30821D01*
Y30829D01*
X30435D01*
Y30838D01*
Y30846D01*
Y30854D01*
X30443D01*
Y30862D01*
Y30871D01*
Y30879D01*
Y30887D01*
X30451D01*
Y30896D01*
Y30904D01*
Y30912D01*
Y30920D01*
X30459D01*
Y30929D01*
Y30937D01*
Y30945D01*
Y30953D01*
X30468D01*
Y30962D01*
Y30970D01*
Y30978D01*
Y30987D01*
Y30995D01*
X30476D01*
Y31003D01*
Y31011D01*
Y31020D01*
Y31028D01*
Y31036D01*
Y31044D01*
X30484D01*
Y31053D01*
Y31061D01*
Y31069D01*
Y31078D01*
Y31086D01*
Y31094D01*
Y31102D01*
Y31111D01*
X30493D01*
Y31119D01*
Y31127D01*
Y31135D01*
Y31144D01*
Y31152D01*
Y31160D01*
Y31169D01*
Y31177D01*
Y31185D01*
Y31193D01*
Y31202D01*
Y31210D01*
Y31218D01*
Y31226D01*
Y31235D01*
Y31243D01*
Y31251D01*
Y31260D01*
Y31268D01*
X30484D01*
Y31276D01*
Y31284D01*
Y31293D01*
Y31301D01*
Y31309D01*
Y31317D01*
Y31326D01*
X30476D01*
Y31334D01*
Y31342D01*
Y31351D01*
Y31359D01*
X30468D01*
Y31367D01*
Y31375D01*
Y31384D01*
X30459D01*
Y31392D01*
Y31400D01*
X30451D01*
Y31409D01*
Y31417D01*
X30443D01*
Y31425D01*
Y31433D01*
X30435D01*
Y31442D01*
X30426D01*
Y31450D01*
X30418D01*
Y31458D01*
X30410D01*
Y31466D01*
X30402D01*
Y31475D01*
X30393D01*
Y31483D01*
X30377D01*
Y31491D01*
X30352D01*
Y31500D01*
D02*
G37*
G36*
X28788Y30209D02*
X28763D01*
Y30200D01*
X28747D01*
Y30192D01*
X28730D01*
Y30184D01*
X28714D01*
Y30176D01*
X28689D01*
Y30167D01*
X28672D01*
Y30159D01*
X28656D01*
Y30151D01*
X28639D01*
Y30143D01*
X28623D01*
Y30134D01*
X28647D01*
Y30143D01*
X28664D01*
Y30151D01*
X28680D01*
Y30159D01*
X28697D01*
Y30167D01*
X28722D01*
Y30176D01*
X28738D01*
Y30184D01*
X28755D01*
Y30192D01*
X28771D01*
Y30200D01*
X28788D01*
Y30209D01*
D02*
G37*
G36*
X29640Y30258D02*
X29615D01*
Y30250D01*
X29632D01*
Y30242D01*
X29649D01*
Y30234D01*
X29665D01*
Y30225D01*
X29690D01*
Y30217D01*
X29706D01*
Y30209D01*
X29723D01*
Y30200D01*
X29740D01*
Y30192D01*
X29764D01*
Y30184D01*
X29781D01*
Y30176D01*
X29797D01*
Y30167D01*
X29814D01*
Y30159D01*
X29839D01*
Y30151D01*
X29855D01*
Y30143D01*
X29872D01*
Y30134D01*
X29889D01*
Y30126D01*
X29905D01*
Y30118D01*
X29930D01*
Y30109D01*
X29955D01*
Y30118D01*
X29938D01*
Y30126D01*
X29913D01*
Y30134D01*
X29897D01*
Y30143D01*
X29880D01*
Y30151D01*
X29864D01*
Y30159D01*
X29839D01*
Y30167D01*
X29822D01*
Y30176D01*
X29806D01*
Y30184D01*
X29789D01*
Y30192D01*
X29764D01*
Y30200D01*
X29748D01*
Y30209D01*
X29731D01*
Y30217D01*
X29715D01*
Y30225D01*
X29690D01*
Y30234D01*
X29673D01*
Y30242D01*
X29657D01*
Y30250D01*
X29640D01*
Y30258D01*
D02*
G37*
G36*
X28623Y30134D02*
X28598D01*
Y30126D01*
X28581D01*
Y30118D01*
X28565D01*
Y30109D01*
X28548D01*
Y30101D01*
X28573D01*
Y30109D01*
X28589D01*
Y30118D01*
X28606D01*
Y30126D01*
X28623D01*
Y30134D01*
D02*
G37*
G36*
X28548Y30101D02*
X28540D01*
Y30093D01*
X28548D01*
Y30101D01*
D02*
G37*
G36*
X29318Y29853D02*
X29144D01*
Y29845D01*
X29053D01*
Y29836D01*
X29061D01*
Y29828D01*
Y29820D01*
X29069D01*
Y29812D01*
Y29803D01*
Y29795D01*
X29078D01*
Y29787D01*
X29069D01*
Y29778D01*
X29053D01*
Y29770D01*
X29036D01*
Y29762D01*
X29020D01*
Y29754D01*
X28995D01*
Y29745D01*
X28978D01*
Y29737D01*
X28962D01*
Y29729D01*
X28945D01*
Y29721D01*
X28920D01*
Y29712D01*
X28904D01*
Y29704D01*
X28887D01*
Y29696D01*
X28871D01*
Y29687D01*
X28846D01*
Y29679D01*
X28829D01*
Y29671D01*
X28813D01*
Y29663D01*
X28796D01*
Y29654D01*
X28780D01*
Y29646D01*
X28755D01*
Y29638D01*
X28738D01*
Y29629D01*
X28730D01*
Y29638D01*
Y29646D01*
X28722D01*
Y29654D01*
Y29663D01*
X28714D01*
Y29671D01*
Y29679D01*
X28705D01*
Y29687D01*
Y29696D01*
Y29704D01*
X28697D01*
Y29712D01*
Y29721D01*
X28689D01*
Y29729D01*
Y29737D01*
X28680D01*
Y29745D01*
Y29754D01*
X28672D01*
Y29762D01*
X28656D01*
Y29754D01*
X28631D01*
Y29745D01*
X28614D01*
Y29737D01*
X28589D01*
Y29729D01*
X28573D01*
Y29721D01*
X28548D01*
Y29712D01*
X28531D01*
Y29704D01*
X28515D01*
Y29696D01*
X28498D01*
Y29687D01*
X28482D01*
Y29679D01*
X28465D01*
Y29671D01*
X28449D01*
Y29663D01*
X28432D01*
Y29654D01*
X28416D01*
Y29646D01*
X28407D01*
Y29638D01*
X28391D01*
Y29629D01*
X28374D01*
Y29621D01*
X28366D01*
Y29613D01*
X28349D01*
Y29605D01*
X28341D01*
Y29596D01*
X28325D01*
Y29588D01*
X28316D01*
Y29580D01*
X28300D01*
Y29572D01*
X28292D01*
Y29563D01*
X28283D01*
Y29555D01*
X28275D01*
Y29547D01*
X28258D01*
Y29538D01*
X28250D01*
Y29530D01*
X28242D01*
Y29522D01*
X28234D01*
Y29514D01*
X28225D01*
Y29505D01*
X28217D01*
Y29497D01*
X28209D01*
Y29489D01*
X28201D01*
Y29481D01*
X28192D01*
Y29472D01*
X28184D01*
Y29464D01*
X28176D01*
Y29456D01*
X28167D01*
Y29447D01*
X28159D01*
Y29439D01*
X28151D01*
Y29431D01*
X28143D01*
Y29423D01*
X28134D01*
Y29414D01*
X28126D01*
Y29406D01*
Y29398D01*
X28118D01*
Y29390D01*
X28109D01*
Y29381D01*
X28101D01*
Y29373D01*
Y29365D01*
X28093D01*
Y29356D01*
X28085D01*
Y29348D01*
Y29340D01*
X28076D01*
Y29332D01*
X28068D01*
Y29323D01*
Y29315D01*
X28060D01*
Y29307D01*
Y29299D01*
X28052D01*
Y29290D01*
Y29282D01*
X28043D01*
Y29274D01*
Y29265D01*
X28035D01*
Y29257D01*
Y29249D01*
X28027D01*
Y29241D01*
Y29232D01*
X28018D01*
Y29224D01*
Y29216D01*
Y29207D01*
X28010D01*
Y29199D01*
Y29191D01*
Y29183D01*
X28002D01*
Y29174D01*
Y29166D01*
Y29158D01*
Y29150D01*
X27994D01*
Y29141D01*
Y29133D01*
Y29125D01*
Y29116D01*
Y29108D01*
X27985D01*
Y29100D01*
Y29092D01*
Y29083D01*
Y29075D01*
Y29067D01*
Y29059D01*
Y29050D01*
Y29042D01*
Y29034D01*
Y29025D01*
X27977D01*
Y29017D01*
Y29009D01*
Y29001D01*
Y28992D01*
X27985D01*
Y28984D01*
Y28976D01*
Y28968D01*
Y28959D01*
Y28951D01*
Y28943D01*
Y28934D01*
Y28926D01*
Y28918D01*
Y28910D01*
X27994D01*
Y28901D01*
Y28893D01*
Y28885D01*
Y28876D01*
Y28868D01*
X28002D01*
Y28860D01*
Y28852D01*
Y28843D01*
Y28835D01*
X28010D01*
Y28827D01*
Y28819D01*
Y28810D01*
X28018D01*
Y28802D01*
Y28794D01*
X28027D01*
Y28785D01*
Y28777D01*
Y28769D01*
X28035D01*
Y28761D01*
Y28752D01*
X28043D01*
Y28744D01*
Y28736D01*
X28052D01*
Y28728D01*
Y28719D01*
X28060D01*
Y28711D01*
Y28703D01*
X28068D01*
Y28694D01*
X28076D01*
Y28686D01*
Y28678D01*
X28085D01*
Y28670D01*
X28093D01*
Y28661D01*
Y28653D01*
X28101D01*
Y28645D01*
X28109D01*
Y28637D01*
Y28628D01*
X28118D01*
Y28620D01*
X28126D01*
Y28612D01*
X28134D01*
Y28603D01*
X28143D01*
Y28595D01*
Y28587D01*
X28151D01*
Y28579D01*
X28159D01*
Y28570D01*
X28167D01*
Y28562D01*
X28176D01*
Y28554D01*
X28184D01*
Y28546D01*
X28192D01*
Y28537D01*
X28201D01*
Y28529D01*
X28209D01*
Y28521D01*
X28217D01*
Y28512D01*
X28225D01*
Y28504D01*
X28234D01*
Y28496D01*
X28242D01*
Y28488D01*
X28258D01*
Y28479D01*
X28267D01*
Y28471D01*
X28275D01*
Y28463D01*
X28283D01*
Y28455D01*
X28300D01*
Y28446D01*
X28308D01*
Y28438D01*
X28316D01*
Y28430D01*
X28333D01*
Y28421D01*
X28341D01*
Y28413D01*
X28358D01*
Y28405D01*
X28366D01*
Y28397D01*
X28383D01*
Y28388D01*
X28399D01*
Y28380D01*
X28407D01*
Y28372D01*
X28424D01*
Y28363D01*
X28440D01*
Y28355D01*
X28457D01*
Y28347D01*
X28474D01*
Y28339D01*
X28482D01*
Y28330D01*
X28507D01*
Y28322D01*
X28523D01*
Y28314D01*
X28540D01*
Y28306D01*
X28556D01*
Y28297D01*
X28573D01*
Y28289D01*
X28598D01*
Y28281D01*
X28623D01*
Y28272D01*
X28639D01*
Y28264D01*
X28664D01*
Y28256D01*
X28689D01*
Y28248D01*
X28714D01*
Y28239D01*
X28747D01*
Y28231D01*
X28780D01*
Y28223D01*
X28805D01*
Y28215D01*
X28846D01*
Y28206D01*
X28887D01*
Y28198D01*
X28929D01*
Y28190D01*
X28987D01*
Y28181D01*
X29069D01*
Y28173D01*
X29392D01*
Y28181D01*
X29475D01*
Y28190D01*
X29533D01*
Y28198D01*
X29574D01*
Y28206D01*
X29615D01*
Y28215D01*
X29657D01*
Y28223D01*
X29682D01*
Y28231D01*
X29715D01*
Y28239D01*
X29748D01*
Y28248D01*
X29773D01*
Y28256D01*
X29797D01*
Y28264D01*
X29822D01*
Y28272D01*
X29839D01*
Y28281D01*
X29864D01*
Y28289D01*
X29889D01*
Y28297D01*
X29905D01*
Y28306D01*
X29922D01*
Y28314D01*
X29938D01*
Y28322D01*
X29955D01*
Y28330D01*
X29971D01*
Y28339D01*
X29988D01*
Y28347D01*
X30004D01*
Y28355D01*
X30021D01*
Y28363D01*
X30037D01*
Y28372D01*
X30054D01*
Y28380D01*
X30062D01*
Y28388D01*
X30079D01*
Y28397D01*
X30095D01*
Y28405D01*
X30104D01*
Y28413D01*
X30120D01*
Y28421D01*
X30128D01*
Y28430D01*
X30145D01*
Y28438D01*
X30153D01*
Y28446D01*
X30162D01*
Y28455D01*
X30178D01*
Y28463D01*
X30186D01*
Y28471D01*
X30195D01*
Y28479D01*
X30203D01*
Y28488D01*
X30211D01*
Y28496D01*
X30228D01*
Y28504D01*
X30236D01*
Y28512D01*
X30244D01*
Y28521D01*
X30253D01*
Y28529D01*
X30261D01*
Y28537D01*
X30269D01*
Y28546D01*
X30277D01*
Y28554D01*
X30286D01*
Y28562D01*
X30294D01*
Y28570D01*
X30302D01*
Y28579D01*
X30311D01*
Y28587D01*
X30319D01*
Y28595D01*
Y28603D01*
X30327D01*
Y28612D01*
X30335D01*
Y28620D01*
X30344D01*
Y28628D01*
X30352D01*
Y28637D01*
Y28645D01*
X30360D01*
Y28653D01*
X30368D01*
Y28661D01*
Y28670D01*
X30377D01*
Y28678D01*
X30385D01*
Y28686D01*
Y28694D01*
X30393D01*
Y28703D01*
Y28711D01*
X30402D01*
Y28719D01*
X30410D01*
Y28728D01*
Y28736D01*
X30418D01*
Y28744D01*
Y28752D01*
X30426D01*
Y28761D01*
Y28769D01*
Y28777D01*
X30435D01*
Y28785D01*
Y28794D01*
X30443D01*
Y28802D01*
Y28810D01*
Y28819D01*
X30451D01*
Y28827D01*
Y28835D01*
Y28843D01*
X30459D01*
Y28852D01*
Y28860D01*
Y28868D01*
X30468D01*
Y28876D01*
Y28885D01*
Y28893D01*
Y28901D01*
Y28910D01*
X30476D01*
Y28918D01*
Y28926D01*
Y28934D01*
Y28943D01*
Y28951D01*
Y28959D01*
Y28968D01*
Y28976D01*
Y28984D01*
Y28992D01*
Y29001D01*
X30484D01*
Y29009D01*
Y29017D01*
X30476D01*
Y29025D01*
Y29034D01*
Y29042D01*
Y29050D01*
Y29059D01*
Y29067D01*
Y29075D01*
Y29083D01*
Y29092D01*
Y29100D01*
Y29108D01*
X30468D01*
Y29116D01*
Y29125D01*
Y29133D01*
Y29141D01*
Y29150D01*
X30459D01*
Y29158D01*
Y29166D01*
Y29174D01*
Y29183D01*
X30451D01*
Y29191D01*
Y29199D01*
Y29207D01*
X30443D01*
Y29216D01*
Y29224D01*
X30435D01*
Y29232D01*
Y29241D01*
Y29249D01*
X30426D01*
Y29257D01*
Y29265D01*
X30418D01*
Y29274D01*
Y29282D01*
X30410D01*
Y29290D01*
Y29299D01*
X30402D01*
Y29307D01*
Y29315D01*
X30393D01*
Y29323D01*
Y29332D01*
X30385D01*
Y29340D01*
X30377D01*
Y29348D01*
Y29356D01*
X30368D01*
Y29365D01*
X30360D01*
Y29373D01*
Y29381D01*
X30352D01*
Y29390D01*
X30344D01*
Y29398D01*
X30335D01*
Y29406D01*
Y29414D01*
X30327D01*
Y29423D01*
X30319D01*
Y29431D01*
X30311D01*
Y29439D01*
X30302D01*
Y29447D01*
X30294D01*
Y29456D01*
X30286D01*
Y29464D01*
X30277D01*
Y29472D01*
X30269D01*
Y29481D01*
X30261D01*
Y29489D01*
X30253D01*
Y29497D01*
X30244D01*
Y29505D01*
X30236D01*
Y29514D01*
X30228D01*
Y29522D01*
X30219D01*
Y29530D01*
X30211D01*
Y29538D01*
X30203D01*
Y29547D01*
X30186D01*
Y29555D01*
X30178D01*
Y29563D01*
X30170D01*
Y29572D01*
X30153D01*
Y29580D01*
X30145D01*
Y29588D01*
X30137D01*
Y29596D01*
X30120D01*
Y29605D01*
X30112D01*
Y29613D01*
X30095D01*
Y29621D01*
X30087D01*
Y29629D01*
X30071D01*
Y29638D01*
X30054D01*
Y29646D01*
X30046D01*
Y29654D01*
X30029D01*
Y29663D01*
X30013D01*
Y29671D01*
X29996D01*
Y29679D01*
X29980D01*
Y29687D01*
X29963D01*
Y29696D01*
X29946D01*
Y29704D01*
X29930D01*
Y29712D01*
X29913D01*
Y29721D01*
X29889D01*
Y29729D01*
X29872D01*
Y29737D01*
X29847D01*
Y29745D01*
X29831D01*
Y29754D01*
X29806D01*
Y29745D01*
Y29737D01*
Y29729D01*
X29797D01*
Y29721D01*
Y29712D01*
X29789D01*
Y29704D01*
Y29696D01*
X29781D01*
Y29687D01*
Y29679D01*
X29773D01*
Y29671D01*
Y29663D01*
X29764D01*
Y29654D01*
Y29646D01*
Y29638D01*
X29756D01*
Y29646D01*
X29740D01*
Y29654D01*
X29723D01*
Y29663D01*
X29706D01*
Y29671D01*
X29682D01*
Y29679D01*
X29665D01*
Y29687D01*
X29649D01*
Y29696D01*
X29632D01*
Y29704D01*
X29607D01*
Y29712D01*
X29591D01*
Y29721D01*
X29574D01*
Y29729D01*
X29558D01*
Y29737D01*
X29533D01*
Y29745D01*
X29516D01*
Y29754D01*
X29500D01*
Y29762D01*
X29483D01*
Y29770D01*
X29467D01*
Y29778D01*
X29442D01*
Y29787D01*
X29425D01*
Y29795D01*
X29417D01*
Y29803D01*
Y29812D01*
X29425D01*
Y29820D01*
Y29828D01*
X29433D01*
Y29836D01*
X29425D01*
Y29845D01*
X29318D01*
Y29853D01*
D02*
G37*
%LPD*%
G36*
X30377Y31020D02*
X30368D01*
Y31028D01*
X30377D01*
Y31020D01*
D02*
G37*
G36*
X30054Y31185D02*
Y31177D01*
Y31169D01*
X30046D01*
Y31160D01*
Y31152D01*
Y31144D01*
Y31135D01*
Y31127D01*
Y31119D01*
X30037D01*
Y31111D01*
Y31102D01*
Y31094D01*
Y31086D01*
Y31078D01*
Y31069D01*
X30029D01*
Y31061D01*
Y31053D01*
Y31044D01*
Y31036D01*
Y31028D01*
X30021D01*
Y31020D01*
Y31011D01*
Y31003D01*
Y30995D01*
Y30987D01*
X30013D01*
Y30978D01*
Y30970D01*
Y30962D01*
Y30953D01*
X30004D01*
Y30945D01*
Y30937D01*
Y30929D01*
Y30920D01*
Y30912D01*
X29996D01*
Y30904D01*
Y30896D01*
Y30887D01*
Y30879D01*
X29988D01*
Y30871D01*
Y30862D01*
Y30854D01*
Y30846D01*
X29980D01*
Y30838D01*
Y30829D01*
Y30821D01*
Y30813D01*
X29971D01*
Y30804D01*
Y30796D01*
Y30788D01*
Y30780D01*
Y30771D01*
X29963D01*
Y30763D01*
Y30755D01*
Y30747D01*
Y30738D01*
X29955D01*
Y30730D01*
Y30722D01*
Y30713D01*
Y30705D01*
X29946D01*
Y30697D01*
Y30689D01*
Y30680D01*
Y30672D01*
X29938D01*
Y30664D01*
Y30656D01*
Y30647D01*
Y30639D01*
X29930D01*
Y30631D01*
Y30622D01*
Y30614D01*
X29922D01*
Y30606D01*
Y30598D01*
Y30589D01*
Y30581D01*
X29913D01*
Y30573D01*
Y30565D01*
Y30556D01*
Y30548D01*
X29905D01*
Y30540D01*
Y30531D01*
Y30523D01*
Y30515D01*
X29897D01*
Y30507D01*
Y30498D01*
Y30490D01*
X29889D01*
Y30482D01*
Y30473D01*
Y30465D01*
Y30457D01*
X29880D01*
Y30449D01*
Y30440D01*
Y30432D01*
X29872D01*
Y30424D01*
Y30416D01*
Y30407D01*
X29864D01*
Y30399D01*
Y30391D01*
Y30382D01*
Y30374D01*
X29855D01*
Y30366D01*
Y30358D01*
Y30349D01*
X29847D01*
Y30341D01*
Y30333D01*
Y30325D01*
X29839D01*
Y30316D01*
Y30308D01*
Y30300D01*
X29831D01*
Y30291D01*
Y30283D01*
Y30275D01*
X29822D01*
Y30267D01*
Y30258D01*
Y30250D01*
X29814D01*
Y30242D01*
Y30234D01*
X29806D01*
Y30242D01*
Y30250D01*
Y30258D01*
Y30267D01*
Y30275D01*
Y30283D01*
X29814D01*
Y30291D01*
Y30300D01*
Y30308D01*
Y30316D01*
Y30325D01*
Y30333D01*
X29822D01*
Y30341D01*
Y30349D01*
Y30358D01*
Y30366D01*
Y30374D01*
X29831D01*
Y30382D01*
Y30391D01*
Y30399D01*
Y30407D01*
X29839D01*
Y30416D01*
Y30424D01*
Y30432D01*
Y30440D01*
Y30449D01*
X29847D01*
Y30457D01*
Y30465D01*
Y30473D01*
Y30482D01*
Y30490D01*
X29855D01*
Y30498D01*
Y30507D01*
Y30515D01*
Y30523D01*
X29864D01*
Y30531D01*
Y30540D01*
Y30548D01*
Y30556D01*
X29872D01*
Y30565D01*
Y30573D01*
Y30581D01*
Y30589D01*
X29880D01*
Y30598D01*
Y30606D01*
Y30614D01*
Y30622D01*
Y30631D01*
X29889D01*
Y30639D01*
Y30647D01*
Y30656D01*
Y30664D01*
X29897D01*
Y30672D01*
Y30680D01*
Y30689D01*
Y30697D01*
X29905D01*
Y30705D01*
Y30713D01*
Y30722D01*
Y30730D01*
X29913D01*
Y30738D01*
Y30747D01*
Y30755D01*
Y30763D01*
X29922D01*
Y30771D01*
Y30780D01*
Y30788D01*
X29930D01*
Y30796D01*
Y30804D01*
Y30813D01*
Y30821D01*
X29938D01*
Y30829D01*
Y30838D01*
Y30846D01*
Y30854D01*
X29946D01*
Y30862D01*
Y30871D01*
Y30879D01*
Y30887D01*
X29955D01*
Y30896D01*
Y30904D01*
Y30912D01*
X29963D01*
Y30920D01*
Y30929D01*
Y30937D01*
Y30945D01*
X29971D01*
Y30953D01*
Y30962D01*
Y30970D01*
X29980D01*
Y30978D01*
Y30987D01*
Y30995D01*
Y31003D01*
X29988D01*
Y31011D01*
Y31020D01*
Y31028D01*
X29996D01*
Y31036D01*
Y31044D01*
Y31053D01*
Y31061D01*
X30004D01*
Y31069D01*
Y31078D01*
Y31086D01*
X30013D01*
Y31094D01*
Y31102D01*
Y31111D01*
X30021D01*
Y31119D01*
Y31127D01*
Y31135D01*
X30029D01*
Y31144D01*
Y31152D01*
X30037D01*
Y31160D01*
Y31169D01*
Y31177D01*
X30046D01*
Y31185D01*
Y31193D01*
X30054D01*
Y31185D01*
D02*
G37*
G36*
X30368Y31011D02*
Y31003D01*
X30360D01*
Y30995D01*
Y30987D01*
X30352D01*
Y30978D01*
Y30970D01*
X30344D01*
Y30962D01*
Y30953D01*
X30335D01*
Y30945D01*
X30327D01*
Y30937D01*
Y30929D01*
X30319D01*
Y30920D01*
Y30912D01*
X30311D01*
Y30904D01*
X30302D01*
Y30896D01*
Y30887D01*
X30294D01*
Y30879D01*
Y30871D01*
X30286D01*
Y30862D01*
X30277D01*
Y30854D01*
Y30846D01*
X30269D01*
Y30838D01*
Y30829D01*
X30261D01*
Y30821D01*
X30253D01*
Y30813D01*
Y30804D01*
X30244D01*
Y30796D01*
X30236D01*
Y30788D01*
Y30780D01*
X30228D01*
Y30771D01*
X30219D01*
Y30763D01*
Y30755D01*
X30211D01*
Y30747D01*
X30203D01*
Y30738D01*
Y30730D01*
X30195D01*
Y30722D01*
X30186D01*
Y30713D01*
Y30705D01*
X30178D01*
Y30697D01*
X30170D01*
Y30689D01*
Y30680D01*
X30162D01*
Y30672D01*
X30153D01*
Y30664D01*
Y30656D01*
X30145D01*
Y30647D01*
X30137D01*
Y30639D01*
Y30631D01*
X30128D01*
Y30622D01*
X30120D01*
Y30614D01*
Y30606D01*
X30112D01*
Y30598D01*
X30104D01*
Y30589D01*
Y30581D01*
X30095D01*
Y30573D01*
X30087D01*
Y30565D01*
Y30556D01*
X30079D01*
Y30548D01*
X30071D01*
Y30540D01*
Y30531D01*
X30062D01*
Y30523D01*
X30054D01*
Y30515D01*
Y30507D01*
X30046D01*
Y30498D01*
X30037D01*
Y30490D01*
X30029D01*
Y30482D01*
Y30473D01*
X30021D01*
Y30465D01*
X30013D01*
Y30457D01*
Y30449D01*
X30004D01*
Y30440D01*
X29996D01*
Y30432D01*
Y30424D01*
X29988D01*
Y30416D01*
X29980D01*
Y30407D01*
X29971D01*
Y30399D01*
Y30391D01*
X29963D01*
Y30382D01*
X29955D01*
Y30374D01*
X29946D01*
Y30366D01*
Y30358D01*
X29938D01*
Y30349D01*
X29930D01*
Y30341D01*
X29922D01*
Y30333D01*
Y30325D01*
X29913D01*
Y30316D01*
X29905D01*
Y30308D01*
X29897D01*
Y30300D01*
Y30291D01*
X29889D01*
Y30283D01*
X29880D01*
Y30275D01*
X29872D01*
Y30267D01*
Y30258D01*
X29864D01*
Y30250D01*
X29855D01*
Y30242D01*
X29847D01*
Y30234D01*
X29839D01*
Y30225D01*
X29831D01*
Y30234D01*
Y30242D01*
X29839D01*
Y30250D01*
Y30258D01*
X29847D01*
Y30267D01*
Y30275D01*
X29855D01*
Y30283D01*
X29864D01*
Y30291D01*
Y30300D01*
X29872D01*
Y30308D01*
Y30316D01*
X29880D01*
Y30325D01*
X29889D01*
Y30333D01*
Y30341D01*
X29897D01*
Y30349D01*
Y30358D01*
X29905D01*
Y30366D01*
X29913D01*
Y30374D01*
Y30382D01*
X29922D01*
Y30391D01*
Y30399D01*
X29930D01*
Y30407D01*
X29938D01*
Y30416D01*
Y30424D01*
X29946D01*
Y30432D01*
X29955D01*
Y30440D01*
Y30449D01*
X29963D01*
Y30457D01*
Y30465D01*
X29971D01*
Y30473D01*
X29980D01*
Y30482D01*
Y30490D01*
X29988D01*
Y30498D01*
X29996D01*
Y30507D01*
Y30515D01*
X30004D01*
Y30523D01*
X30013D01*
Y30531D01*
Y30540D01*
X30021D01*
Y30548D01*
X30029D01*
Y30556D01*
Y30565D01*
X30037D01*
Y30573D01*
X30046D01*
Y30581D01*
Y30589D01*
X30054D01*
Y30598D01*
X30062D01*
Y30606D01*
Y30614D01*
X30071D01*
Y30622D01*
X30079D01*
Y30631D01*
Y30639D01*
X30087D01*
Y30647D01*
X30095D01*
Y30656D01*
Y30664D01*
X30104D01*
Y30672D01*
X30112D01*
Y30680D01*
Y30689D01*
X30120D01*
Y30697D01*
X30128D01*
Y30705D01*
X30137D01*
Y30713D01*
Y30722D01*
X30145D01*
Y30730D01*
X30153D01*
Y30738D01*
Y30747D01*
X30162D01*
Y30755D01*
X30170D01*
Y30763D01*
Y30771D01*
X30178D01*
Y30780D01*
X30186D01*
Y30788D01*
X30195D01*
Y30796D01*
Y30804D01*
X30203D01*
Y30813D01*
X30211D01*
Y30821D01*
Y30829D01*
X30219D01*
Y30838D01*
X30228D01*
Y30846D01*
X30236D01*
Y30854D01*
Y30862D01*
X30244D01*
Y30871D01*
X30253D01*
Y30879D01*
Y30887D01*
X30261D01*
Y30896D01*
X30269D01*
Y30904D01*
X30277D01*
Y30912D01*
Y30920D01*
X30286D01*
Y30929D01*
X30294D01*
Y30937D01*
X30302D01*
Y30945D01*
Y30953D01*
X30311D01*
Y30962D01*
X30319D01*
Y30970D01*
X30327D01*
Y30978D01*
X30335D01*
Y30987D01*
Y30995D01*
X30344D01*
Y31003D01*
X30352D01*
Y31011D01*
X30360D01*
Y31020D01*
X30368D01*
Y31011D01*
D02*
G37*
G36*
X29855Y29638D02*
Y29629D01*
Y29621D01*
X29864D01*
Y29613D01*
Y29605D01*
Y29596D01*
Y29588D01*
X29905D01*
Y29596D01*
Y29605D01*
X29913D01*
Y29613D01*
Y29621D01*
X29922D01*
Y29629D01*
Y29638D01*
X29938D01*
Y29629D01*
X29946D01*
Y29621D01*
Y29613D01*
Y29605D01*
Y29596D01*
Y29588D01*
Y29580D01*
X29963D01*
Y29572D01*
X29980D01*
Y29580D01*
X29988D01*
Y29588D01*
X29996D01*
Y29596D01*
X30004D01*
Y29605D01*
X30013D01*
Y29613D01*
X30021D01*
Y29605D01*
X30029D01*
Y29596D01*
Y29588D01*
Y29580D01*
X30021D01*
Y29572D01*
Y29563D01*
Y29555D01*
Y29547D01*
X30029D01*
Y29538D01*
X30054D01*
Y29547D01*
X30062D01*
Y29555D01*
X30079D01*
Y29563D01*
X30095D01*
Y29555D01*
Y29547D01*
Y29538D01*
Y29530D01*
X30087D01*
Y29522D01*
Y29514D01*
X30079D01*
Y29505D01*
Y29497D01*
X30087D01*
Y29489D01*
X30095D01*
Y29481D01*
X30112D01*
Y29489D01*
X30128D01*
Y29497D01*
X30162D01*
Y29489D01*
Y29481D01*
X30153D01*
Y29472D01*
X30145D01*
Y29464D01*
X30137D01*
Y29456D01*
X30128D01*
Y29447D01*
Y29439D01*
Y29431D01*
X30137D01*
Y29423D01*
X30145D01*
Y29414D01*
X30153D01*
Y29423D01*
X30203D01*
Y29414D01*
Y29406D01*
X30195D01*
Y29398D01*
X30186D01*
Y29390D01*
X30170D01*
Y29381D01*
X30162D01*
Y29373D01*
Y29365D01*
Y29356D01*
Y29348D01*
X30170D01*
Y29340D01*
X30178D01*
Y29348D01*
X30195D01*
Y29340D01*
X30219D01*
Y29332D01*
X30228D01*
Y29323D01*
X30219D01*
Y29315D01*
X30203D01*
Y29307D01*
X30170D01*
Y29299D01*
Y29290D01*
Y29282D01*
Y29274D01*
Y29265D01*
X30195D01*
Y29257D01*
X30211D01*
Y29249D01*
X30228D01*
Y29241D01*
Y29232D01*
X30203D01*
Y29224D01*
X30170D01*
Y29216D01*
X30162D01*
Y29207D01*
Y29199D01*
Y29191D01*
X30170D01*
Y29183D01*
X30178D01*
Y29174D01*
X30195D01*
Y29166D01*
X30203D01*
Y29158D01*
Y29150D01*
X30195D01*
Y29141D01*
X30170D01*
Y29150D01*
X30137D01*
Y29141D01*
Y29133D01*
X30128D01*
Y29125D01*
Y29116D01*
X30137D01*
Y29108D01*
X30145D01*
Y29100D01*
X30153D01*
Y29092D01*
Y29083D01*
X30162D01*
Y29075D01*
X30153D01*
Y29067D01*
X30145D01*
Y29075D01*
X30120D01*
Y29083D01*
X30095D01*
Y29075D01*
X30087D01*
Y29067D01*
X30079D01*
Y29059D01*
Y29050D01*
X30087D01*
Y29042D01*
X30095D01*
Y29034D01*
Y29025D01*
Y29017D01*
X30104D01*
Y29009D01*
X30095D01*
Y29001D01*
X30087D01*
Y29009D01*
X30071D01*
Y29017D01*
X30062D01*
Y29025D01*
X30054D01*
Y29034D01*
X30037D01*
Y29025D01*
X30021D01*
Y29017D01*
X30013D01*
Y29009D01*
X30021D01*
Y29001D01*
Y28992D01*
Y28984D01*
X30029D01*
Y28976D01*
Y28968D01*
Y28959D01*
X30004D01*
Y28968D01*
X29996D01*
Y28976D01*
X29988D01*
Y28984D01*
Y28992D01*
X29980D01*
Y29001D01*
X29971D01*
Y28992D01*
X29946D01*
Y28984D01*
Y28976D01*
Y28968D01*
Y28959D01*
Y28951D01*
Y28943D01*
X29938D01*
Y28934D01*
X29922D01*
Y28943D01*
Y28951D01*
X29913D01*
Y28959D01*
Y28968D01*
X29905D01*
Y28976D01*
X29864D01*
Y28968D01*
Y28959D01*
Y28951D01*
Y28943D01*
X29855D01*
Y28934D01*
Y28926D01*
X29839D01*
Y28934D01*
X29831D01*
Y28943D01*
Y28951D01*
Y28959D01*
Y28968D01*
Y28976D01*
Y28984D01*
X29789D01*
Y28976D01*
X29781D01*
Y28968D01*
Y28959D01*
X29773D01*
Y28951D01*
X29764D01*
Y28943D01*
X29748D01*
Y28951D01*
Y28959D01*
Y28968D01*
Y28976D01*
Y28984D01*
Y28992D01*
Y29001D01*
Y29009D01*
X29731D01*
Y29017D01*
X29715D01*
Y29009D01*
Y29001D01*
X29706D01*
Y28992D01*
X29690D01*
Y28984D01*
X29682D01*
Y28976D01*
X29673D01*
Y28984D01*
X29665D01*
Y28992D01*
X29673D01*
Y29001D01*
Y29009D01*
Y29017D01*
X29682D01*
Y29025D01*
Y29034D01*
Y29042D01*
X29673D01*
Y29050D01*
X29665D01*
Y29059D01*
X29649D01*
Y29050D01*
X29640D01*
Y29042D01*
X29615D01*
Y29034D01*
X29607D01*
Y29042D01*
X29599D01*
Y29050D01*
X29607D01*
Y29059D01*
Y29067D01*
X29615D01*
Y29075D01*
X29624D01*
Y29083D01*
X29632D01*
Y29092D01*
X29624D01*
Y29100D01*
Y29108D01*
X29615D01*
Y29116D01*
X29591D01*
Y29108D01*
X29549D01*
Y29116D01*
Y29125D01*
X29558D01*
Y29133D01*
X29566D01*
Y29141D01*
X29574D01*
Y29150D01*
X29591D01*
Y29158D01*
Y29166D01*
X29582D01*
Y29174D01*
Y29183D01*
X29574D01*
Y29191D01*
X29566D01*
Y29183D01*
X29533D01*
Y29191D01*
X29516D01*
Y29199D01*
Y29207D01*
X29491D01*
Y29199D01*
X29475D01*
Y29191D01*
Y29183D01*
Y29174D01*
Y29166D01*
Y29158D01*
X29491D01*
Y29150D01*
X29516D01*
Y29141D01*
X29524D01*
Y29133D01*
X29533D01*
Y29125D01*
Y29116D01*
X29524D01*
Y29108D01*
X29467D01*
Y29100D01*
Y29092D01*
Y29083D01*
X29458D01*
Y29075D01*
Y29067D01*
X29467D01*
Y29059D01*
X29483D01*
Y29050D01*
X29491D01*
Y29042D01*
X29500D01*
Y29034D01*
X29508D01*
Y29025D01*
Y29017D01*
Y29009D01*
X29467D01*
Y29017D01*
X29433D01*
Y29009D01*
Y29001D01*
X29425D01*
Y28992D01*
Y28984D01*
Y28976D01*
X29433D01*
Y28968D01*
X29442D01*
Y28959D01*
X29450D01*
Y28951D01*
Y28943D01*
X29458D01*
Y28934D01*
Y28926D01*
X29450D01*
Y28918D01*
X29442D01*
Y28926D01*
X29417D01*
Y28934D01*
X29400D01*
Y28943D01*
X29384D01*
Y28934D01*
X29375D01*
Y28926D01*
X29367D01*
Y28918D01*
X29359D01*
Y28910D01*
X29367D01*
Y28901D01*
X29375D01*
Y28893D01*
Y28885D01*
X29384D01*
Y28876D01*
Y28868D01*
Y28860D01*
X29392D01*
Y28852D01*
X29384D01*
Y28843D01*
X29367D01*
Y28852D01*
X29351D01*
Y28860D01*
X29342D01*
Y28868D01*
X29334D01*
Y28876D01*
X29309D01*
Y28868D01*
X29293D01*
Y28860D01*
X29284D01*
Y28852D01*
X29293D01*
Y28843D01*
Y28835D01*
Y28827D01*
X29301D01*
Y28819D01*
Y28810D01*
Y28802D01*
Y28794D01*
X29293D01*
Y28785D01*
X29284D01*
Y28794D01*
X29276D01*
Y28802D01*
X29260D01*
Y28810D01*
Y28819D01*
X29251D01*
Y28827D01*
X29243D01*
Y28835D01*
X29218D01*
Y28827D01*
X29202D01*
Y28819D01*
Y28810D01*
Y28802D01*
Y28794D01*
Y28785D01*
Y28777D01*
Y28769D01*
Y28761D01*
X29193D01*
Y28752D01*
X29177D01*
Y28761D01*
Y28769D01*
X29169D01*
Y28777D01*
X29160D01*
Y28785D01*
Y28794D01*
Y28802D01*
X29152D01*
Y28810D01*
X29111D01*
Y28802D01*
Y28794D01*
Y28785D01*
X29102D01*
Y28777D01*
Y28769D01*
X29094D01*
Y28761D01*
Y28752D01*
X29069D01*
Y28761D01*
Y28769D01*
Y28777D01*
X29061D01*
Y28785D01*
Y28794D01*
Y28802D01*
Y28810D01*
Y28819D01*
X29020D01*
Y28810D01*
X29011D01*
Y28802D01*
Y28794D01*
X29003D01*
Y28785D01*
X28995D01*
Y28777D01*
X28987D01*
Y28769D01*
X28970D01*
Y28777D01*
Y28785D01*
Y28794D01*
X28962D01*
Y28802D01*
Y28810D01*
X28970D01*
Y28819D01*
Y28827D01*
Y28835D01*
Y28843D01*
X28953D01*
Y28852D01*
X28929D01*
Y28843D01*
X28920D01*
Y28835D01*
X28912D01*
Y28827D01*
X28904D01*
Y28819D01*
X28887D01*
Y28810D01*
X28879D01*
Y28819D01*
X28871D01*
Y28827D01*
Y28835D01*
Y28843D01*
X28879D01*
Y28852D01*
Y28860D01*
Y28868D01*
X28887D01*
Y28876D01*
Y28885D01*
Y28893D01*
X28879D01*
Y28901D01*
X28871D01*
Y28910D01*
X28854D01*
Y28901D01*
X28846D01*
Y28893D01*
X28829D01*
Y28885D01*
X28805D01*
Y28876D01*
X28796D01*
Y28885D01*
X28788D01*
Y28893D01*
X28796D01*
Y28901D01*
Y28910D01*
X28805D01*
Y28918D01*
Y28926D01*
X28813D01*
Y28934D01*
X28821D01*
Y28943D01*
Y28951D01*
Y28959D01*
X28813D01*
Y28968D01*
X28805D01*
Y28976D01*
X28780D01*
Y28968D01*
X28730D01*
Y28976D01*
Y28984D01*
X28738D01*
Y28992D01*
X28747D01*
Y29001D01*
X28755D01*
Y29009D01*
X28763D01*
Y29017D01*
X28771D01*
Y29025D01*
Y29034D01*
Y29042D01*
Y29050D01*
X28763D01*
Y29059D01*
X28697D01*
Y29067D01*
X28689D01*
Y29075D01*
Y29083D01*
X28705D01*
Y29092D01*
X28714D01*
Y29100D01*
X28730D01*
Y29108D01*
X28747D01*
Y29116D01*
Y29125D01*
Y29133D01*
Y29141D01*
Y29150D01*
X28730D01*
Y29158D01*
X28697D01*
Y29166D01*
X28680D01*
Y29174D01*
Y29183D01*
Y29191D01*
X28697D01*
Y29199D01*
X28747D01*
Y29207D01*
Y29216D01*
Y29224D01*
Y29232D01*
Y29241D01*
Y29249D01*
X28730D01*
Y29257D01*
X28714D01*
Y29265D01*
X28705D01*
Y29274D01*
X28689D01*
Y29282D01*
X28697D01*
Y29290D01*
Y29299D01*
X28755D01*
Y29290D01*
X28763D01*
Y29299D01*
Y29307D01*
X28771D01*
Y29315D01*
Y29323D01*
Y29332D01*
Y29340D01*
X28763D01*
Y29348D01*
X28747D01*
Y29356D01*
Y29365D01*
X28738D01*
Y29373D01*
X28730D01*
Y29381D01*
Y29390D01*
X28780D01*
Y29381D01*
X28813D01*
Y29390D01*
Y29398D01*
X28821D01*
Y29406D01*
Y29414D01*
Y29423D01*
X28813D01*
Y29431D01*
X28805D01*
Y29439D01*
Y29447D01*
X28796D01*
Y29456D01*
Y29464D01*
Y29472D01*
X28829D01*
Y29464D01*
X28838D01*
Y29456D01*
X28854D01*
Y29447D01*
X28871D01*
Y29456D01*
X28879D01*
Y29464D01*
X28887D01*
Y29472D01*
Y29481D01*
Y29489D01*
X28879D01*
Y29497D01*
Y29505D01*
Y29514D01*
X28871D01*
Y29522D01*
Y29530D01*
Y29538D01*
X28879D01*
Y29547D01*
X28887D01*
Y29538D01*
X28904D01*
Y29530D01*
X28912D01*
Y29522D01*
X28920D01*
Y29514D01*
X28929D01*
Y29505D01*
X28953D01*
Y29514D01*
X28970D01*
Y29522D01*
Y29530D01*
Y29538D01*
Y29547D01*
X28962D01*
Y29555D01*
Y29563D01*
X28970D01*
Y29572D01*
Y29580D01*
Y29588D01*
X28987D01*
Y29580D01*
X28995D01*
Y29572D01*
X29003D01*
Y29563D01*
X29011D01*
Y29555D01*
Y29547D01*
X29020D01*
Y29538D01*
Y29530D01*
X29028D01*
Y29538D01*
X29061D01*
Y29547D01*
Y29555D01*
Y29563D01*
Y29572D01*
Y29580D01*
X29069D01*
Y29588D01*
Y29596D01*
Y29605D01*
X29094D01*
Y29596D01*
Y29588D01*
X29102D01*
Y29580D01*
Y29572D01*
X29111D01*
Y29563D01*
Y29555D01*
Y29547D01*
X29144D01*
Y29538D01*
X29152D01*
Y29547D01*
Y29555D01*
X29160D01*
Y29563D01*
Y29572D01*
X29169D01*
Y29580D01*
Y29588D01*
X29177D01*
Y29596D01*
X29185D01*
Y29605D01*
X29193D01*
Y29596D01*
X29202D01*
Y29588D01*
Y29580D01*
Y29572D01*
Y29563D01*
Y29555D01*
Y29547D01*
Y29538D01*
Y29530D01*
X29218D01*
Y29522D01*
X29243D01*
Y29530D01*
X29251D01*
Y29538D01*
X29260D01*
Y29547D01*
X29268D01*
Y29555D01*
X29276D01*
Y29563D01*
X29284D01*
Y29572D01*
X29293D01*
Y29563D01*
X29301D01*
Y29555D01*
Y29547D01*
Y29538D01*
Y29530D01*
X29293D01*
Y29522D01*
Y29514D01*
Y29505D01*
Y29497D01*
Y29489D01*
X29309D01*
Y29481D01*
X29334D01*
Y29489D01*
X29342D01*
Y29497D01*
X29351D01*
Y29505D01*
X29367D01*
Y29514D01*
X29384D01*
Y29505D01*
X29392D01*
Y29497D01*
X29384D01*
Y29489D01*
Y29481D01*
Y29472D01*
X29375D01*
Y29464D01*
Y29456D01*
X29367D01*
Y29447D01*
X29359D01*
Y29439D01*
X29367D01*
Y29431D01*
X29375D01*
Y29423D01*
X29384D01*
Y29414D01*
X29400D01*
Y29423D01*
X29417D01*
Y29431D01*
X29442D01*
Y29439D01*
X29450D01*
Y29431D01*
X29458D01*
Y29423D01*
Y29414D01*
X29450D01*
Y29406D01*
Y29398D01*
X29442D01*
Y29390D01*
X29433D01*
Y29381D01*
X29425D01*
Y29373D01*
Y29365D01*
Y29356D01*
X29433D01*
Y29348D01*
Y29340D01*
X29467D01*
Y29348D01*
X29508D01*
Y29340D01*
Y29332D01*
Y29323D01*
X29500D01*
Y29315D01*
X29491D01*
Y29307D01*
X29483D01*
Y29299D01*
X29467D01*
Y29290D01*
X29458D01*
Y29282D01*
Y29274D01*
X29467D01*
Y29265D01*
Y29257D01*
Y29249D01*
X29516D01*
Y29241D01*
X29533D01*
Y29232D01*
Y29224D01*
Y29216D01*
X29541D01*
Y29224D01*
X29566D01*
Y29232D01*
Y29241D01*
Y29249D01*
Y29257D01*
X29558D01*
Y29265D01*
X29524D01*
Y29274D01*
X29508D01*
Y29282D01*
Y29290D01*
X29516D01*
Y29299D01*
X29541D01*
Y29307D01*
X29558D01*
Y29315D01*
X29566D01*
Y29323D01*
Y29332D01*
Y29340D01*
X29558D01*
Y29348D01*
X29541D01*
Y29356D01*
X29524D01*
Y29365D01*
X29516D01*
Y29373D01*
Y29381D01*
X29574D01*
Y29390D01*
X29582D01*
Y29398D01*
Y29406D01*
X29591D01*
Y29414D01*
X29582D01*
Y29423D01*
X29574D01*
Y29431D01*
X29566D01*
Y29439D01*
X29558D01*
Y29447D01*
X29549D01*
Y29456D01*
Y29464D01*
X29582D01*
Y29456D01*
X29599D01*
Y29447D01*
X29607D01*
Y29456D01*
X29615D01*
Y29464D01*
X29624D01*
Y29472D01*
X29632D01*
Y29481D01*
X29624D01*
Y29489D01*
X29615D01*
Y29497D01*
Y29505D01*
X29607D01*
Y29514D01*
Y29522D01*
X29599D01*
Y29530D01*
X29607D01*
Y29538D01*
X29615D01*
Y29530D01*
X29632D01*
Y29522D01*
X29649D01*
Y29514D01*
X29673D01*
Y29522D01*
X29682D01*
Y29530D01*
Y29538D01*
Y29547D01*
X29673D01*
Y29555D01*
Y29563D01*
Y29572D01*
Y29580D01*
X29665D01*
Y29588D01*
X29690D01*
Y29580D01*
X29698D01*
Y29572D01*
X29706D01*
Y29563D01*
X29715D01*
Y29555D01*
X29731D01*
Y29563D01*
X29748D01*
Y29572D01*
Y29580D01*
Y29588D01*
Y29596D01*
Y29605D01*
Y29613D01*
Y29621D01*
Y29629D01*
X29764D01*
Y29621D01*
X29773D01*
Y29613D01*
X29781D01*
Y29605D01*
Y29596D01*
X29789D01*
Y29588D01*
Y29580D01*
X29806D01*
Y29588D01*
X29831D01*
Y29596D01*
Y29605D01*
Y29613D01*
Y29621D01*
Y29629D01*
Y29638D01*
X29839D01*
Y29646D01*
X29855D01*
Y29638D01*
D02*
G37*
G36*
X29913Y28678D02*
X29930D01*
Y28670D01*
Y28661D01*
X29938D01*
Y28653D01*
X29946D01*
Y28645D01*
Y28637D01*
Y28628D01*
Y28620D01*
Y28612D01*
X29938D01*
Y28603D01*
X29930D01*
Y28595D01*
X29922D01*
Y28587D01*
X29913D01*
Y28579D01*
X29855D01*
Y28570D01*
X29847D01*
Y28562D01*
X29839D01*
Y28554D01*
X29822D01*
Y28546D01*
X29814D01*
Y28537D01*
X29806D01*
Y28529D01*
X29797D01*
Y28521D01*
X29789D01*
Y28512D01*
X29773D01*
Y28504D01*
X29764D01*
Y28496D01*
X29756D01*
Y28488D01*
X29748D01*
Y28479D01*
X29731D01*
Y28471D01*
X29723D01*
Y28463D01*
X29706D01*
Y28455D01*
X29508D01*
Y28446D01*
Y28438D01*
Y28430D01*
X29500D01*
Y28421D01*
Y28413D01*
X29491D01*
Y28405D01*
Y28397D01*
X29483D01*
Y28388D01*
X29475D01*
Y28380D01*
X29442D01*
Y28388D01*
X28970D01*
Y28380D01*
X28937D01*
Y28388D01*
X28929D01*
Y28397D01*
X28920D01*
Y28405D01*
Y28413D01*
X28912D01*
Y28421D01*
Y28430D01*
X28904D01*
Y28438D01*
Y28446D01*
Y28455D01*
Y28463D01*
X28730D01*
Y28471D01*
X28714D01*
Y28479D01*
X28705D01*
Y28488D01*
X28689D01*
Y28496D01*
X28680D01*
Y28504D01*
X28672D01*
Y28512D01*
X28664D01*
Y28521D01*
X28656D01*
Y28529D01*
X28639D01*
Y28537D01*
X28631D01*
Y28546D01*
X28623D01*
Y28554D01*
X28614D01*
Y28562D01*
X28589D01*
Y28570D01*
X28573D01*
Y28579D01*
X28565D01*
Y28587D01*
X28556D01*
Y28595D01*
X28548D01*
Y28603D01*
Y28612D01*
Y28620D01*
Y28628D01*
Y28637D01*
Y28645D01*
X28556D01*
Y28653D01*
X28565D01*
Y28661D01*
X28573D01*
Y28670D01*
X28589D01*
Y28678D01*
X28614D01*
Y28670D01*
X28631D01*
Y28661D01*
X28639D01*
Y28653D01*
X28647D01*
Y28645D01*
Y28637D01*
X28656D01*
Y28628D01*
Y28620D01*
Y28612D01*
Y28603D01*
Y28595D01*
X28664D01*
Y28587D01*
X28672D01*
Y28579D01*
X28680D01*
Y28570D01*
X28689D01*
Y28562D01*
X28697D01*
Y28554D01*
X28714D01*
Y28546D01*
X28722D01*
Y28537D01*
X28730D01*
Y28529D01*
X28738D01*
Y28521D01*
X28904D01*
Y28529D01*
Y28537D01*
X28912D01*
Y28546D01*
Y28554D01*
Y28562D01*
X28920D01*
Y28570D01*
X28929D01*
Y28579D01*
X28937D01*
Y28587D01*
X29475D01*
Y28579D01*
X29483D01*
Y28570D01*
X29491D01*
Y28562D01*
X29500D01*
Y28554D01*
Y28546D01*
Y28537D01*
X29508D01*
Y28529D01*
Y28521D01*
Y28512D01*
X29698D01*
Y28521D01*
X29706D01*
Y28529D01*
X29715D01*
Y28537D01*
X29723D01*
Y28546D01*
X29740D01*
Y28554D01*
X29748D01*
Y28562D01*
X29756D01*
Y28570D01*
X29764D01*
Y28579D01*
X29773D01*
Y28587D01*
X29789D01*
Y28595D01*
X29797D01*
Y28603D01*
X29806D01*
Y28612D01*
X29814D01*
Y28620D01*
X29839D01*
Y28628D01*
Y28637D01*
Y28645D01*
Y28653D01*
Y28661D01*
X29847D01*
Y28670D01*
X29855D01*
Y28678D01*
X29872D01*
Y28686D01*
X29913D01*
Y28678D01*
D02*
G37*
%LPC*%
G36*
X29533Y29216D02*
X29516D01*
Y29207D01*
X29533D01*
Y29216D01*
D02*
G37*
G36*
X29930Y29538D02*
X29806D01*
Y29530D01*
X29781D01*
Y29522D01*
X29756D01*
Y29514D01*
X29740D01*
Y29505D01*
X29723D01*
Y29497D01*
X29715D01*
Y29489D01*
X29706D01*
Y29481D01*
X29698D01*
Y29472D01*
X29682D01*
Y29464D01*
Y29456D01*
X29673D01*
Y29447D01*
X29665D01*
Y29439D01*
X29657D01*
Y29431D01*
X29649D01*
Y29423D01*
Y29414D01*
X29640D01*
Y29406D01*
Y29398D01*
X29632D01*
Y29390D01*
Y29381D01*
Y29373D01*
X29624D01*
Y29365D01*
Y29356D01*
Y29348D01*
X29615D01*
Y29340D01*
Y29332D01*
Y29323D01*
Y29315D01*
Y29307D01*
Y29299D01*
Y29290D01*
Y29282D01*
Y29274D01*
Y29265D01*
Y29257D01*
Y29249D01*
Y29241D01*
Y29232D01*
Y29224D01*
X29624D01*
Y29216D01*
Y29207D01*
Y29199D01*
X29632D01*
Y29191D01*
Y29183D01*
X29640D01*
Y29174D01*
Y29166D01*
X29649D01*
Y29158D01*
Y29150D01*
X29657D01*
Y29141D01*
X29665D01*
Y29133D01*
Y29125D01*
X29673D01*
Y29116D01*
X29682D01*
Y29108D01*
X29690D01*
Y29100D01*
X29698D01*
Y29092D01*
X29706D01*
Y29083D01*
X29723D01*
Y29075D01*
X29731D01*
Y29067D01*
X29748D01*
Y29059D01*
X29764D01*
Y29050D01*
X29789D01*
Y29042D01*
X29831D01*
Y29034D01*
X29905D01*
Y29042D01*
X29946D01*
Y29050D01*
X29963D01*
Y29059D01*
X29980D01*
Y29067D01*
X29996D01*
Y29075D01*
X30013D01*
Y29083D01*
X30021D01*
Y29092D01*
X30029D01*
Y29100D01*
X30046D01*
Y29108D01*
X30054D01*
Y29116D01*
Y29125D01*
X30062D01*
Y29133D01*
X30071D01*
Y29141D01*
X30079D01*
Y29150D01*
Y29158D01*
X30087D01*
Y29166D01*
X30095D01*
Y29174D01*
Y29183D01*
Y29191D01*
X30104D01*
Y29199D01*
Y29207D01*
X30112D01*
Y29216D01*
Y29224D01*
Y29232D01*
Y29241D01*
Y29249D01*
X30120D01*
Y29257D01*
Y29265D01*
Y29274D01*
Y29282D01*
Y29290D01*
Y29299D01*
Y29307D01*
Y29315D01*
Y29323D01*
Y29332D01*
X30112D01*
Y29340D01*
Y29348D01*
Y29356D01*
Y29365D01*
X30104D01*
Y29373D01*
Y29381D01*
Y29390D01*
X30095D01*
Y29398D01*
Y29406D01*
X30087D01*
Y29414D01*
Y29423D01*
X30079D01*
Y29431D01*
X30071D01*
Y29439D01*
Y29447D01*
X30062D01*
Y29456D01*
X30054D01*
Y29464D01*
X30046D01*
Y29472D01*
X30037D01*
Y29481D01*
X30029D01*
Y29489D01*
X30021D01*
Y29497D01*
X30004D01*
Y29505D01*
X29988D01*
Y29514D01*
X29980D01*
Y29522D01*
X29955D01*
Y29530D01*
X29930D01*
Y29538D01*
D02*
G37*
G36*
X29177Y29481D02*
X29045D01*
Y29472D01*
X29011D01*
Y29464D01*
X28987D01*
Y29456D01*
X28970D01*
Y29447D01*
X28953D01*
Y29439D01*
X28945D01*
Y29431D01*
X28929D01*
Y29423D01*
X28920D01*
Y29414D01*
X28912D01*
Y29406D01*
X28904D01*
Y29398D01*
X28896D01*
Y29390D01*
X28887D01*
Y29381D01*
X28879D01*
Y29373D01*
X28871D01*
Y29365D01*
X28862D01*
Y29356D01*
X28854D01*
Y29348D01*
Y29340D01*
X28846D01*
Y29332D01*
Y29323D01*
X28838D01*
Y29315D01*
Y29307D01*
X28829D01*
Y29299D01*
Y29290D01*
X28821D01*
Y29282D01*
Y29274D01*
Y29265D01*
X28813D01*
Y29257D01*
Y29249D01*
Y29241D01*
Y29232D01*
Y29224D01*
Y29216D01*
X28805D01*
Y29207D01*
Y29199D01*
Y29191D01*
Y29183D01*
Y29174D01*
Y29166D01*
Y29158D01*
Y29150D01*
X28813D01*
Y29141D01*
Y29133D01*
Y29125D01*
Y29116D01*
Y29108D01*
Y29100D01*
X28821D01*
Y29092D01*
Y29083D01*
Y29075D01*
X28829D01*
Y29067D01*
Y29059D01*
X28838D01*
Y29050D01*
Y29042D01*
X28846D01*
Y29034D01*
Y29025D01*
X28854D01*
Y29017D01*
Y29009D01*
X28862D01*
Y29001D01*
X28871D01*
Y28992D01*
X28879D01*
Y28984D01*
X28887D01*
Y28976D01*
Y28968D01*
X28904D01*
Y28959D01*
X28912D01*
Y28951D01*
X28920D01*
Y28943D01*
X28929D01*
Y28934D01*
X28945D01*
Y28926D01*
X28953D01*
Y28918D01*
X28970D01*
Y28910D01*
X28987D01*
Y28901D01*
X29011D01*
Y28893D01*
X29036D01*
Y28885D01*
X29177D01*
Y28893D01*
X29210D01*
Y28901D01*
X29227D01*
Y28910D01*
X29243D01*
Y28918D01*
X29260D01*
Y28926D01*
X29276D01*
Y28934D01*
X29284D01*
Y28943D01*
X29301D01*
Y28951D01*
X29309D01*
Y28959D01*
X29318D01*
Y28968D01*
X29326D01*
Y28976D01*
X29334D01*
Y28984D01*
X29342D01*
Y28992D01*
X29351D01*
Y29001D01*
Y29009D01*
X29359D01*
Y29017D01*
X29367D01*
Y29025D01*
Y29034D01*
X29375D01*
Y29042D01*
Y29050D01*
X29384D01*
Y29059D01*
Y29067D01*
X29392D01*
Y29075D01*
Y29083D01*
Y29092D01*
X29400D01*
Y29100D01*
Y29108D01*
Y29116D01*
Y29125D01*
X29409D01*
Y29133D01*
Y29141D01*
Y29150D01*
Y29158D01*
Y29166D01*
Y29174D01*
Y29183D01*
Y29191D01*
Y29199D01*
Y29207D01*
Y29216D01*
Y29224D01*
Y29232D01*
Y29241D01*
X29400D01*
Y29249D01*
Y29257D01*
Y29265D01*
Y29274D01*
X29392D01*
Y29282D01*
Y29290D01*
Y29299D01*
X29384D01*
Y29307D01*
Y29315D01*
X29375D01*
Y29323D01*
Y29332D01*
X29367D01*
Y29340D01*
Y29348D01*
X29359D01*
Y29356D01*
X29351D01*
Y29365D01*
X29342D01*
Y29373D01*
Y29381D01*
X29334D01*
Y29390D01*
X29326D01*
Y29398D01*
X29318D01*
Y29406D01*
X29309D01*
Y29414D01*
X29301D01*
Y29423D01*
X29284D01*
Y29431D01*
X29276D01*
Y29439D01*
X29260D01*
Y29447D01*
X29243D01*
Y29456D01*
X29227D01*
Y29464D01*
X29210D01*
Y29472D01*
X29177D01*
Y29481D01*
D02*
G37*
%LPD*%
G36*
X29889Y29348D02*
X29905D01*
Y29340D01*
X29913D01*
Y29332D01*
X29922D01*
Y29323D01*
X29930D01*
Y29315D01*
Y29307D01*
Y29299D01*
X29938D01*
Y29290D01*
Y29282D01*
Y29274D01*
Y29265D01*
X29930D01*
Y29257D01*
Y29249D01*
X29922D01*
Y29241D01*
X29913D01*
Y29232D01*
X29905D01*
Y29224D01*
X29889D01*
Y29216D01*
X29839D01*
Y29224D01*
X29822D01*
Y29232D01*
X29814D01*
Y29241D01*
X29806D01*
Y29249D01*
Y29257D01*
X29797D01*
Y29265D01*
Y29274D01*
Y29282D01*
Y29290D01*
Y29299D01*
Y29307D01*
Y29315D01*
X29806D01*
Y29323D01*
Y29332D01*
X29814D01*
Y29340D01*
X29822D01*
Y29348D01*
X29839D01*
Y29356D01*
X29889D01*
Y29348D01*
D02*
G37*
G36*
X29127Y29257D02*
X29152D01*
Y29249D01*
X29160D01*
Y29241D01*
X29169D01*
Y29232D01*
X29177D01*
Y29224D01*
X29185D01*
Y29216D01*
Y29207D01*
Y29199D01*
X29193D01*
Y29191D01*
Y29183D01*
Y29174D01*
Y29166D01*
Y29158D01*
X29185D01*
Y29150D01*
Y29141D01*
X29177D01*
Y29133D01*
Y29125D01*
X29169D01*
Y29116D01*
X29160D01*
Y29108D01*
X29144D01*
Y29100D01*
X29127D01*
Y29092D01*
X29086D01*
Y29100D01*
X29069D01*
Y29108D01*
X29053D01*
Y29116D01*
X29045D01*
Y29125D01*
X29036D01*
Y29133D01*
Y29141D01*
X29028D01*
Y29150D01*
Y29158D01*
X29020D01*
Y29166D01*
Y29174D01*
Y29183D01*
Y29191D01*
Y29199D01*
X29028D01*
Y29207D01*
Y29216D01*
X29036D01*
Y29224D01*
Y29232D01*
X29045D01*
Y29241D01*
X29053D01*
Y29249D01*
X29061D01*
Y29257D01*
X29086D01*
Y29265D01*
X29127D01*
Y29257D01*
D02*
G37*
%LPC*%
G36*
X29433Y28546D02*
X29425D01*
Y28537D01*
Y28529D01*
Y28521D01*
Y28512D01*
Y28504D01*
Y28496D01*
Y28488D01*
Y28479D01*
Y28471D01*
Y28463D01*
Y28455D01*
Y28446D01*
Y28438D01*
Y28430D01*
Y28421D01*
X29433D01*
Y28430D01*
Y28438D01*
Y28446D01*
Y28455D01*
Y28463D01*
Y28471D01*
Y28479D01*
Y28488D01*
Y28496D01*
Y28504D01*
Y28512D01*
Y28521D01*
Y28529D01*
Y28537D01*
Y28546D01*
D02*
G37*
G36*
X28987D02*
X28978D01*
Y28537D01*
Y28529D01*
Y28521D01*
Y28512D01*
Y28504D01*
Y28496D01*
Y28488D01*
Y28479D01*
Y28471D01*
Y28463D01*
Y28455D01*
Y28446D01*
Y28438D01*
Y28430D01*
Y28421D01*
X28987D01*
Y28430D01*
Y28438D01*
Y28446D01*
Y28455D01*
X28995D01*
Y28463D01*
Y28471D01*
Y28479D01*
Y28488D01*
Y28496D01*
Y28504D01*
Y28512D01*
Y28521D01*
X28987D01*
Y28529D01*
Y28537D01*
Y28546D01*
D02*
G37*
G36*
X29409Y28570D02*
X29359D01*
Y28562D01*
Y28554D01*
Y28546D01*
Y28537D01*
Y28529D01*
Y28521D01*
Y28512D01*
Y28504D01*
Y28496D01*
Y28488D01*
Y28479D01*
Y28471D01*
Y28463D01*
Y28455D01*
Y28446D01*
Y28438D01*
Y28430D01*
Y28421D01*
Y28413D01*
Y28405D01*
X29409D01*
Y28413D01*
Y28421D01*
Y28430D01*
Y28438D01*
Y28446D01*
Y28455D01*
Y28463D01*
Y28471D01*
Y28479D01*
X29400D01*
Y28488D01*
X29409D01*
Y28496D01*
Y28504D01*
Y28512D01*
Y28521D01*
Y28529D01*
Y28537D01*
Y28546D01*
Y28554D01*
Y28562D01*
Y28570D01*
D02*
G37*
G36*
X29342D02*
X29318D01*
Y28562D01*
Y28554D01*
Y28546D01*
Y28537D01*
Y28529D01*
Y28521D01*
Y28512D01*
Y28504D01*
Y28496D01*
Y28488D01*
Y28479D01*
Y28471D01*
Y28463D01*
Y28455D01*
Y28446D01*
Y28438D01*
Y28430D01*
Y28421D01*
Y28413D01*
Y28405D01*
X29342D01*
Y28413D01*
Y28421D01*
Y28430D01*
Y28438D01*
Y28446D01*
Y28455D01*
Y28463D01*
Y28471D01*
Y28479D01*
Y28488D01*
Y28496D01*
Y28504D01*
Y28512D01*
Y28521D01*
Y28529D01*
Y28537D01*
Y28546D01*
Y28554D01*
Y28562D01*
Y28570D01*
D02*
G37*
G36*
X29301D02*
X29251D01*
Y28562D01*
Y28554D01*
Y28546D01*
Y28537D01*
Y28529D01*
Y28521D01*
Y28512D01*
Y28504D01*
Y28496D01*
Y28488D01*
Y28479D01*
Y28471D01*
Y28463D01*
Y28455D01*
Y28446D01*
Y28438D01*
Y28430D01*
Y28421D01*
Y28413D01*
Y28405D01*
X29301D01*
Y28413D01*
Y28421D01*
Y28430D01*
Y28438D01*
Y28446D01*
Y28455D01*
Y28463D01*
Y28471D01*
Y28479D01*
Y28488D01*
Y28496D01*
Y28504D01*
Y28512D01*
Y28521D01*
Y28529D01*
Y28537D01*
Y28546D01*
Y28554D01*
Y28562D01*
Y28570D01*
D02*
G37*
G36*
X29235D02*
X29210D01*
Y28562D01*
Y28554D01*
Y28546D01*
Y28537D01*
Y28529D01*
Y28521D01*
Y28512D01*
Y28504D01*
Y28496D01*
Y28488D01*
Y28479D01*
Y28471D01*
Y28463D01*
Y28455D01*
Y28446D01*
Y28438D01*
Y28430D01*
Y28421D01*
Y28413D01*
Y28405D01*
X29235D01*
Y28413D01*
Y28421D01*
Y28430D01*
Y28438D01*
Y28446D01*
Y28455D01*
Y28463D01*
Y28471D01*
Y28479D01*
Y28488D01*
Y28496D01*
Y28504D01*
Y28512D01*
Y28521D01*
Y28529D01*
Y28537D01*
Y28546D01*
Y28554D01*
Y28562D01*
Y28570D01*
D02*
G37*
G36*
X29193D02*
X29136D01*
Y28562D01*
Y28554D01*
Y28546D01*
Y28537D01*
Y28529D01*
Y28521D01*
Y28512D01*
Y28504D01*
Y28496D01*
Y28488D01*
Y28479D01*
Y28471D01*
Y28463D01*
Y28455D01*
Y28446D01*
Y28438D01*
Y28430D01*
Y28421D01*
Y28413D01*
Y28405D01*
X29193D01*
Y28413D01*
Y28421D01*
Y28430D01*
Y28438D01*
Y28446D01*
Y28455D01*
Y28463D01*
Y28471D01*
Y28479D01*
Y28488D01*
Y28496D01*
Y28504D01*
Y28512D01*
Y28521D01*
Y28529D01*
Y28537D01*
Y28546D01*
Y28554D01*
Y28562D01*
Y28570D01*
D02*
G37*
G36*
X29127D02*
X29102D01*
Y28562D01*
Y28554D01*
Y28546D01*
Y28537D01*
Y28529D01*
Y28521D01*
Y28512D01*
Y28504D01*
Y28496D01*
Y28488D01*
Y28479D01*
Y28471D01*
Y28463D01*
Y28455D01*
Y28446D01*
Y28438D01*
Y28430D01*
Y28421D01*
Y28413D01*
Y28405D01*
X29127D01*
Y28413D01*
Y28421D01*
Y28430D01*
Y28438D01*
Y28446D01*
Y28455D01*
Y28463D01*
Y28471D01*
Y28479D01*
Y28488D01*
Y28496D01*
Y28504D01*
Y28512D01*
Y28521D01*
Y28529D01*
Y28537D01*
Y28546D01*
Y28554D01*
Y28562D01*
Y28570D01*
D02*
G37*
G36*
X29086D02*
X29036D01*
Y28562D01*
Y28554D01*
Y28546D01*
Y28537D01*
Y28529D01*
Y28521D01*
Y28512D01*
Y28504D01*
Y28496D01*
Y28488D01*
Y28479D01*
Y28471D01*
Y28463D01*
Y28455D01*
Y28446D01*
Y28438D01*
Y28430D01*
Y28421D01*
Y28413D01*
Y28405D01*
X29086D01*
Y28413D01*
Y28421D01*
Y28430D01*
Y28438D01*
Y28446D01*
Y28455D01*
Y28463D01*
Y28471D01*
Y28479D01*
Y28488D01*
Y28496D01*
Y28504D01*
Y28512D01*
Y28521D01*
Y28529D01*
Y28537D01*
Y28546D01*
Y28554D01*
Y28562D01*
Y28570D01*
D02*
G37*
G36*
X29020D02*
X28987D01*
Y28562D01*
X28995D01*
Y28554D01*
Y28546D01*
Y28537D01*
X29003D01*
Y28529D01*
Y28521D01*
Y28512D01*
Y28504D01*
Y28496D01*
X29011D01*
Y28488D01*
Y28479D01*
X29003D01*
Y28471D01*
Y28463D01*
Y28455D01*
Y28446D01*
Y28438D01*
Y28430D01*
X28995D01*
Y28421D01*
Y28413D01*
X28987D01*
Y28405D01*
X29020D01*
Y28413D01*
Y28421D01*
Y28430D01*
Y28438D01*
Y28446D01*
Y28455D01*
Y28463D01*
Y28471D01*
Y28479D01*
Y28488D01*
Y28496D01*
Y28504D01*
Y28512D01*
Y28521D01*
Y28529D01*
Y28537D01*
Y28546D01*
Y28554D01*
Y28562D01*
Y28570D01*
D02*
G37*
G36*
X29467Y28579D02*
X29450D01*
Y28570D01*
Y28562D01*
Y28554D01*
Y28546D01*
Y28537D01*
Y28529D01*
Y28521D01*
Y28512D01*
Y28504D01*
Y28496D01*
Y28488D01*
Y28479D01*
Y28471D01*
Y28463D01*
Y28455D01*
Y28446D01*
Y28438D01*
Y28430D01*
Y28421D01*
Y28413D01*
Y28405D01*
Y28397D01*
X29475D01*
Y28405D01*
X29483D01*
Y28413D01*
Y28421D01*
X29491D01*
Y28430D01*
Y28438D01*
Y28446D01*
Y28455D01*
X29500D01*
Y28463D01*
Y28471D01*
Y28479D01*
X29508D01*
Y28488D01*
X29500D01*
Y28496D01*
Y28504D01*
Y28512D01*
X29491D01*
Y28521D01*
Y28529D01*
Y28537D01*
Y28546D01*
X29483D01*
Y28554D01*
Y28562D01*
X29475D01*
Y28570D01*
X29467D01*
Y28579D01*
D02*
G37*
G36*
X28962D02*
X28945D01*
Y28570D01*
X28937D01*
Y28562D01*
X28929D01*
Y28554D01*
Y28546D01*
X28920D01*
Y28537D01*
Y28529D01*
Y28521D01*
X28929D01*
Y28512D01*
Y28504D01*
Y28496D01*
Y28488D01*
Y28479D01*
Y28471D01*
Y28463D01*
X28912D01*
Y28455D01*
X28920D01*
Y28446D01*
Y28438D01*
Y28430D01*
Y28421D01*
X28929D01*
Y28413D01*
Y28405D01*
X28937D01*
Y28397D01*
X28962D01*
Y28405D01*
Y28413D01*
Y28421D01*
Y28430D01*
Y28438D01*
Y28446D01*
Y28455D01*
Y28463D01*
Y28471D01*
Y28479D01*
Y28488D01*
Y28496D01*
Y28504D01*
Y28512D01*
Y28521D01*
Y28529D01*
Y28537D01*
Y28546D01*
Y28554D01*
Y28562D01*
Y28570D01*
Y28579D01*
D02*
G37*
%LPD*%
D13*
X26518Y34519D02*
Y34392D01*
X26391Y34265D01*
X25756D01*
Y34646D01*
X25883Y34773D01*
X26137D01*
X26264Y34646D01*
Y34265D01*
Y34011D02*
Y33757D01*
Y33884D01*
X25756D01*
Y34011D01*
X25629Y33249D02*
X25756D01*
Y33376D01*
Y33122D01*
Y33249D01*
X26137D01*
X26264Y33122D01*
X25502Y32741D02*
X26264D01*
X25883D01*
X25756Y32614D01*
Y32360D01*
X25883Y32233D01*
X26264D01*
X25756Y31979D02*
X26137D01*
X26264Y31853D01*
Y31472D01*
X25756D01*
X25502Y31218D02*
X26264D01*
Y30837D01*
X26137Y30710D01*
X26010D01*
X25883D01*
X25756Y30837D01*
Y31218D01*
X26264Y30456D02*
X26137D01*
Y30329D01*
X26264D01*
Y30456D01*
X25756Y29313D02*
Y29694D01*
X25883Y29821D01*
X26137D01*
X26264Y29694D01*
Y29313D01*
Y28932D02*
Y28679D01*
X26137Y28552D01*
X25883D01*
X25756Y28679D01*
Y28932D01*
X25883Y29059D01*
X26137D01*
X26264Y28932D01*
Y28298D02*
X25756D01*
Y28171D01*
X25883Y28044D01*
X26264D01*
X25883D01*
X25756Y27917D01*
X25883Y27790D01*
X26264D01*
Y27536D02*
X25756Y27028D01*
X29058Y34773D02*
X28550D01*
Y34646D01*
X28677Y34519D01*
X29058D01*
X28677D01*
X28550Y34392D01*
X28677Y34265D01*
X29058D01*
X28550Y33884D02*
Y33630D01*
X28677Y33503D01*
X29058D01*
Y33884D01*
X28931Y34011D01*
X28804Y33884D01*
Y33503D01*
X29058Y33249D02*
X28550D01*
Y32868D01*
X28677Y32741D01*
X29058D01*
X28550Y31979D02*
Y32360D01*
X28677Y32487D01*
X28931D01*
X29058Y32360D01*
Y31979D01*
Y31726D02*
Y31472D01*
Y31599D01*
X28550D01*
Y31726D01*
X29058Y30964D02*
Y30710D01*
X28931Y30583D01*
X28677D01*
X28550Y30710D01*
Y30964D01*
X28677Y31091D01*
X28931D01*
X29058Y30964D01*
%TF.MD5,37705b52c41f8bdc733398ec4d035c9f*%
M02*
