M48
;Layer_Color=9474304
;FILE_FORMAT=2:5
INCH,LZ
;TYPE=PLATED
T1F00S00C0.02362
T2F00S00C0.02756
T3F00S00C0.02953
T4F00S00C0.03543
;TYPE=NON_PLATED
T5F00S00C0.12598
%
T01
X0356299Y0200787
X0339046Y0242126
X0344488Y0305118
X0291339Y0255906
X0267717Y0198819
T02
X0318437Y0196563
X0308437
T03
X0328437Y0216126
Y0226126
Y0236126
Y0246126
Y0256126
Y0266126
Y0276126
Y0286126
X0298437
Y0276126
Y0266126
Y0256126
Y0246126
Y0236126
Y0226126
Y0216126
T04
X0355937Y0226289
Y0236289
Y0246289
Y0256289
Y0266289
Y0276289
Y0286289
X0270437
Y0276289
Y0266289
Y0256289
Y0246289
Y0236289
Y0226289
Y0216289
T05
X0379921Y0200787
X038189Y0301181
X025
Y0200787
M30
