G04*
G04 #@! TF.GenerationSoftware,Altium Limited,Altium Designer,20.1.8 (145)*
G04*
G04 Layer_Color=16711935*
%FSAX24Y24*%
%MOIN*%
G70*
G04*
G04 #@! TF.SameCoordinates,338F7E7C-1A28-4B59-A632-54628AB16209*
G04*
G04*
G04 #@! TF.FilePolarity,Negative*
G04*
G01*
G75*
%ADD13C,0.0611*%
%ADD14R,0.0611X0.0611*%
%ADD15C,0.0680*%
%ADD16C,0.0671*%
%ADD17R,0.0671X0.0671*%
%ADD18C,0.0552*%
D13*
X032844Y028613D02*
D03*
Y027613D02*
D03*
Y026613D02*
D03*
Y025613D02*
D03*
Y024613D02*
D03*
Y023613D02*
D03*
Y022613D02*
D03*
Y021613D02*
D03*
X029844D02*
D03*
Y022613D02*
D03*
Y023613D02*
D03*
Y024613D02*
D03*
Y025613D02*
D03*
Y026613D02*
D03*
Y027613D02*
D03*
D14*
Y028613D02*
D03*
D15*
X025000Y020079D02*
D03*
X037992D02*
D03*
X038189Y030118D02*
D03*
X025000D02*
D03*
D16*
X035594Y024629D02*
D03*
Y023629D02*
D03*
Y025629D02*
D03*
Y026629D02*
D03*
Y027629D02*
D03*
Y028629D02*
D03*
X027044D02*
D03*
Y027629D02*
D03*
Y026629D02*
D03*
Y025629D02*
D03*
Y024629D02*
D03*
Y023629D02*
D03*
Y022629D02*
D03*
D17*
X035594D02*
D03*
X027044Y021629D02*
D03*
D18*
X031844Y019656D02*
D03*
X030844D02*
D03*
M02*
