<svg id="Layer_1" data-name="Layer 1" xmlns="http://www.w3.org/2000/svg" viewBox="0 0 823.05 483.59"><defs><style>.cls-1,.cls-2,.cls-3,.cls-4,.cls-5,.cls-7,.cls-8{fill:none;stroke-miterlimit:10;}.cls-1,.cls-2,.cls-3,.cls-4,.cls-5{stroke:#000;}.cls-2,.cls-8{stroke-dasharray:10.43 10.43;}.cls-3{stroke-dasharray:11.58 11.58;}.cls-4{stroke-dasharray:12;}.cls-5{stroke-width:3px;}.cls-6{fill:#fff;}.cls-7,.cls-8{stroke:#1d1d1b;}</style></defs><rect class="cls-1" x="85.54" y="85.54" width="651.97" height="312.51" rx="37.8"/><rect class="cls-1" x="132.44" y="135.5" width="25.51" height="212.6"/><polyline class="cls-1" points="187.72 363.35 187.72 369.35 181.72 369.35"/><line class="cls-2" x1="171.28" y1="369.35" x2="113.9" y2="369.35"/><polyline class="cls-1" points="108.68 369.35 102.68 369.35 102.68 363.35"/><line class="cls-3" x1="102.68" y1="351.78" x2="102.68" y2="126.02"/><polyline class="cls-1" points="102.68 120.24 102.68 114.24 108.68 114.24"/><line class="cls-2" x1="119.11" y1="114.24" x2="176.5" y2="114.24"/><polyline class="cls-1" points="181.72 114.24 187.72 114.24 187.72 120.24"/><line class="cls-3" x1="187.72" y1="131.81" x2="187.72" y2="357.57"/><rect class="cls-1" x="332.53" y="135.5" width="25.51" height="212.6"/><polyline class="cls-1" points="387.81 363.35 387.81 369.35 381.81 369.35"/><line class="cls-2" x1="371.37" y1="369.35" x2="313.98" y2="369.35"/><polyline class="cls-1" points="308.76 369.35 302.76 369.35 302.76 363.35"/><line class="cls-3" x1="302.77" y1="351.78" x2="302.77" y2="126.02"/><polyline class="cls-1" points="302.76 120.24 302.76 114.24 308.76 114.24"/><line class="cls-2" x1="319.2" y1="114.24" x2="376.59" y2="114.24"/><polyline class="cls-1" points="381.81 114.24 387.81 114.24 387.81 120.24"/><line class="cls-3" x1="387.8" y1="131.81" x2="387.8" y2="357.57"/><rect class="cls-1" x="231.71" y="135.5" width="25.51" height="212.6"/><polyline class="cls-1" points="286.99 363.35 286.99 369.35 280.99 369.35"/><line class="cls-2" x1="270.55" y1="369.35" x2="213.16" y2="369.35"/><polyline class="cls-1" points="207.95 369.35 201.95 369.35 201.95 363.35"/><line class="cls-3" x1="201.95" y1="351.78" x2="201.95" y2="126.02"/><polyline class="cls-1" points="201.95 120.24 201.95 114.24 207.95 114.24"/><line class="cls-2" x1="218.38" y1="114.24" x2="275.77" y2="114.24"/><polyline class="cls-1" points="280.99 114.24 286.99 114.24 286.99 120.24"/><line class="cls-3" x1="286.99" y1="131.81" x2="286.99" y2="357.57"/><rect class="cls-4" x="413.72" y="105.73" width="221.1" height="272.13"/><circle class="cls-1" cx="439.23" cy="162.42" r="9.92"/><circle class="cls-1" cx="439.23" cy="219.12" r="9.92"/><circle class="cls-1" cx="439.23" cy="275.81" r="9.92"/><circle class="cls-1" cx="439.23" cy="332.5" r="9.92"/><circle class="cls-1" cx="495.93" cy="162.42" r="9.92"/><circle class="cls-1" cx="551.58" cy="162.42" r="9.92"/><circle class="cls-1" cx="607.76" cy="162.42" r="9.92"/><circle class="cls-1" cx="495.93" cy="219.12" r="9.92"/><circle class="cls-1" cx="495.93" cy="275.81" r="9.92"/><circle class="cls-1" cx="495.93" cy="332.5" r="9.92"/><circle class="cls-1" cx="551.58" cy="219.12" r="9.92"/><circle class="cls-1" cx="551.58" cy="275.81" r="9.92"/><circle class="cls-1" cx="551.58" cy="332.5" r="9.92"/><circle class="cls-1" cx="608.28" cy="219.12" r="9.92"/><circle class="cls-1" cx="608.28" cy="275.81" r="9.92"/><circle class="cls-1" cx="608.28" cy="332.5" r="9.92"/><circle class="cls-1" cx="689.69" cy="152.29" r="32.6"/><circle class="cls-1" cx="689.69" cy="152.29" r="9.92"/><circle class="cls-1" cx="689.69" cy="242.42" r="32.6"/><circle class="cls-1" cx="689.69" cy="242.42" r="9.92"/><circle class="cls-1" cx="689.69" cy="332.55" r="32.6"/><circle class="cls-1" cx="689.69" cy="332.55" r="9.92"/><path class="cls-1" d="M141.34,129.09" transform="translate(-8.13 -55.84)"/><line class="cls-5" x1="145.2" y1="340.84" x2="145.2" y2="144"/><line class="cls-5" x1="244.47" y1="340.84" x2="244.47" y2="144"/><line class="cls-5" x1="345.28" y1="340.84" x2="345.28" y2="144"/><rect class="cls-1" x="120.08" y="398.05" width="579.54" height="85.04"/><rect class="cls-1" x="120.08" y="0.5" width="579.54" height="85.04"/><rect class="cls-1" x="0.5" y="116.97" width="85.04" height="250.91"/><rect class="cls-1" x="737.51" y="116.97" width="85.04" height="250.91"/><rect class="cls-6" x="458.67" y="398.05" width="28.35" height="85.04"/><polyline class="cls-7" points="487.01 477.09 487.01 483.09 481.01 483.09"/><polyline class="cls-7" points="464.67 483.09 458.67 483.09 458.67 477.09"/><line class="cls-8" x1="458.67" y1="466.66" x2="458.67" y2="409.27"/><polyline class="cls-7" points="458.67 404.05 458.67 398.05 464.67 398.05"/><polyline class="cls-7" points="481.01 398.05 487.01 398.05 487.01 404.05"/><line class="cls-8" x1="487.02" y1="414.48" x2="487.02" y2="471.87"/><rect class="cls-1" x="419.39" y="142.58" width="39.69" height="39.69"/><rect class="cls-1" x="419.39" y="199.28" width="39.69" height="39.69"/><rect class="cls-1" x="419.39" y="255.97" width="39.69" height="39.69"/><rect class="cls-1" x="419.39" y="312.66" width="39.69" height="39.69"/><rect class="cls-1" x="476.08" y="142.58" width="39.69" height="39.69"/><rect class="cls-1" x="476.08" y="199.28" width="39.69" height="39.69"/><rect class="cls-1" x="476.08" y="255.97" width="39.69" height="39.69"/><rect class="cls-1" x="476.08" y="312.66" width="39.69" height="39.69"/><rect class="cls-1" x="531.74" y="142.58" width="39.69" height="39.69"/><rect class="cls-1" x="531.74" y="199.28" width="39.69" height="39.69"/><rect class="cls-1" x="531.74" y="255.97" width="39.69" height="39.69"/><rect class="cls-1" x="531.74" y="312.66" width="39.69" height="39.69"/><rect class="cls-1" x="588.43" y="142.58" width="39.69" height="39.69"/><rect class="cls-1" x="588.43" y="199.28" width="39.69" height="39.69"/><rect class="cls-1" x="588.43" y="255.97" width="39.69" height="39.69"/><rect class="cls-1" x="588.43" y="312.66" width="39.69" height="39.69"/></svg>