M48
;Layer_Color=9474304
;FILE_FORMAT=2:5
INCH,LZ
;TYPE=PLATED
T1F00S00C0.02800
T2F00S00C0.03543
;TYPE=NON_PLATED
T3F00S00C0.12598
%
T01
X01825Y01135
X01935Y0113
X0203
X00965Y0177
T02
X004685Y0028543
X005685
X006685
X007685
X008685
X009685
X010685
X011685
X012685
X013685
X014685
X0146811Y0045079
X0136811
X0126811
X0116811
X0106811
X0096811
X0086811
X0076811
X0066811
X0056811
X0046811
X003Y0047835
Y0057835
Y0067835
Y0077835
Y0087835
Y0115
Y0125
Y0135
Y0145
Y0155
X0047244Y0151732
Y0141732
Y0131732
X0086811Y0113976
X0096811
X0106811
X0116811
X0126811
X0136811
X0146811
X0125984Y0131417
Y0141417
Y0151417
X0106299Y0151732
Y0141732
Y0131732
X0156811Y0113976
X0185039Y0131417
Y0141417
Y0151417
X0208Y0149764
Y0139764
Y0129764
X0196811Y0045079
X0186811
X0176811
X0166811
X0156811
X015685Y0028543
X016685
X017685
X018685
X019685
X0185039Y0161417
Y0171417
Y0181417
Y0191417
Y0201417
Y0211417
Y0221417
Y0231417
Y0241417
X0208Y0234
Y0224
Y0214
Y0192
Y0182
Y0172
X0125984Y0171417
Y0161417
Y0181417
Y0191417
Y0201417
Y0211417
Y0221417
Y0231417
Y0241417
X0106299Y0241732
Y0231732
Y0221732
Y0211732
Y0201732
Y0191732
Y0181732
Y0171732
Y0161732
X0047244
Y0171732
Y0181732
Y0191732
Y0201732
Y0211732
Y0221732
Y0231732
Y0241732
X003Y0215866
Y0205866
Y0195866
Y0185866
Y0175866
T03
X002Y002
X022
Y01
X002Y024
M30
