G04*
G04 #@! TF.GenerationSoftware,Altium Limited,Altium Designer,20.1.8 (145)*
G04*
G04 Layer_Color=65535*
%FSLAX25Y25*%
%MOIN*%
G70*
G04*
G04 #@! TF.SameCoordinates,D239A609-AEFB-48DA-8D67-1FFB9F5ED150*
G04*
G04*
G04 #@! TF.FilePolarity,Positive*
G04*
G01*
G75*
%ADD10C,0.00787*%
%ADD11C,0.01000*%
%ADD12C,0.00394*%
%ADD13C,0.00591*%
D10*
X40354Y40354D02*
Y119095D01*
Y40354D02*
X205709D01*
X40354Y119095D02*
X205709D01*
Y40354D02*
Y119095D01*
X119882Y70669D02*
Y91142D01*
X131693Y70669D02*
Y91142D01*
X119882Y70669D02*
X131693D01*
X115157Y72244D02*
X119882D01*
X131693D02*
X136417D01*
X115157Y79331D02*
X119882D01*
X115157Y76968D02*
X119882D01*
X115157Y74606D02*
X119882D01*
X131693Y79331D02*
X136417D01*
X131693Y76968D02*
X136417D01*
X131693Y74606D02*
X136417D01*
X115157Y87205D02*
X119882D01*
X115157Y84842D02*
X119882D01*
X115157Y82480D02*
X119882D01*
X131693Y87205D02*
X136417D01*
X131693Y84842D02*
X136417D01*
X131693Y82480D02*
X136417D01*
X119882Y91142D02*
X131693D01*
X115157Y89567D02*
X119882D01*
X131693D02*
X136417D01*
X190945Y125276D02*
Y247323D01*
X120079Y125276D02*
X190945D01*
X120079D02*
Y247323D01*
X190945D01*
X41339Y247638D02*
X112205D01*
X41339Y125591D02*
Y247638D01*
Y125591D02*
X112205D01*
Y247638D01*
X41732Y23543D02*
X201850D01*
Y33543D01*
X41732D02*
X201850D01*
X41732Y23543D02*
Y33543D01*
X25276Y42835D02*
Y92716D01*
Y42835D02*
X35000D01*
Y92716D01*
X25276D02*
X35000D01*
X25276Y170866D02*
Y220748D01*
Y170866D02*
X35000D01*
Y220748D01*
X25276D02*
X35000D01*
X203000Y123465D02*
X213000D01*
X203000D02*
Y154764D01*
X213000D01*
Y123465D02*
Y154764D01*
X203000Y165701D02*
X213000D01*
X203000D02*
Y197000D01*
X213000D01*
Y165701D02*
Y197000D01*
X25276Y110000D02*
Y159882D01*
Y110000D02*
X35000D01*
Y159882D01*
X25276D02*
X35000D01*
X203000Y207701D02*
X213000D01*
X203000D02*
Y239000D01*
X213000D01*
Y207701D02*
Y239000D01*
X188975Y20669D02*
X184252D01*
Y18308D01*
X185039Y17521D01*
X185826D01*
X186613Y18308D01*
Y20669D01*
Y18308D01*
X187400Y17521D01*
X188188D01*
X188975Y18308D01*
Y20669D01*
X184252Y12798D02*
Y15947D01*
X187400Y12798D01*
X188188D01*
X188975Y13585D01*
Y15159D01*
X188188Y15947D01*
X199211Y20669D02*
X194488D01*
Y18308D01*
X195275Y17521D01*
X196062D01*
X196850Y18308D01*
Y20669D01*
Y18308D01*
X197637Y17521D01*
X198424D01*
X199211Y18308D01*
Y20669D01*
X194488Y15947D02*
Y14372D01*
Y15159D01*
X199211D01*
X198424Y15947D01*
X178739Y20669D02*
X174016D01*
Y18308D01*
X174803Y17521D01*
X175590D01*
X176377Y18308D01*
Y20669D01*
Y18308D01*
X177164Y17521D01*
X177952D01*
X178739Y18308D01*
Y20669D01*
X177952Y15947D02*
X178739Y15159D01*
Y13585D01*
X177952Y12798D01*
X177164D01*
X176377Y13585D01*
Y14372D01*
Y13585D01*
X175590Y12798D01*
X174803D01*
X174016Y13585D01*
Y15159D01*
X174803Y15947D01*
X159054Y20669D02*
X154331D01*
Y18308D01*
X155118Y17521D01*
X155905D01*
X156692Y18308D01*
Y20669D01*
Y18308D01*
X157479Y17521D01*
X158266D01*
X159054Y18308D01*
Y20669D01*
Y12798D02*
Y15946D01*
X156692D01*
X157479Y14372D01*
Y13585D01*
X156692Y12798D01*
X155118D01*
X154331Y13585D01*
Y15159D01*
X155118Y15946D01*
X169290Y20669D02*
X164567D01*
Y18308D01*
X165354Y17521D01*
X166141D01*
X166928Y18308D01*
Y20669D01*
Y18308D01*
X167716Y17521D01*
X168503D01*
X169290Y18308D01*
Y20669D01*
X164567Y13585D02*
X169290D01*
X166928Y15946D01*
Y12798D01*
X139368Y20669D02*
X134646D01*
Y18308D01*
X135433Y17521D01*
X136220D01*
X137007Y18308D01*
Y20669D01*
Y18308D01*
X137794Y17521D01*
X138581D01*
X139368Y18308D01*
Y20669D01*
Y15946D02*
Y12798D01*
X138581D01*
X135433Y15946D01*
X134646D01*
X149605Y20669D02*
X144882D01*
Y18308D01*
X145669Y17521D01*
X146456D01*
X147243Y18308D01*
Y20669D01*
Y18308D01*
X148030Y17521D01*
X148818D01*
X149605Y18308D01*
Y20669D01*
Y12798D02*
X148818Y14372D01*
X147243Y15946D01*
X145669D01*
X144882Y15159D01*
Y13585D01*
X145669Y12798D01*
X146456D01*
X147243Y13585D01*
Y15946D01*
X129132Y20669D02*
X124409D01*
Y18308D01*
X125197Y17521D01*
X125984D01*
X126771Y18308D01*
Y20669D01*
Y18308D01*
X127558Y17521D01*
X128345D01*
X129132Y18308D01*
Y20669D01*
X128345Y15946D02*
X129132Y15159D01*
Y13585D01*
X128345Y12798D01*
X127558D01*
X126771Y13585D01*
X125984Y12798D01*
X125197D01*
X124409Y13585D01*
Y15159D01*
X125197Y15946D01*
X125984D01*
X126771Y15159D01*
X127558Y15946D01*
X128345D01*
X126771Y15159D02*
Y13585D01*
X109447Y20669D02*
X104724D01*
Y18308D01*
X105512Y17521D01*
X106299D01*
X107086Y18308D01*
Y20669D01*
Y18308D01*
X107873Y17521D01*
X108660D01*
X109447Y18308D01*
Y20669D01*
X104724Y15946D02*
Y14372D01*
Y15159D01*
X109447D01*
X108660Y15946D01*
Y12011D02*
X109447Y11224D01*
Y9649D01*
X108660Y8862D01*
X105512D01*
X104724Y9649D01*
Y11224D01*
X105512Y12011D01*
X108660D01*
X118896Y20669D02*
X114173D01*
Y18308D01*
X114960Y17521D01*
X115747D01*
X116535Y18308D01*
Y20669D01*
Y18308D01*
X117322Y17521D01*
X118109D01*
X118896Y18308D01*
Y20669D01*
X114960Y15946D02*
X114173Y15159D01*
Y13585D01*
X114960Y12798D01*
X118109D01*
X118896Y13585D01*
Y15159D01*
X118109Y15946D01*
X117322D01*
X116535Y15159D01*
Y12798D01*
X89762Y20669D02*
X85039D01*
Y18308D01*
X85826Y17521D01*
X86614D01*
X87401Y18308D01*
Y20669D01*
Y18308D01*
X88188Y17521D01*
X88975D01*
X89762Y18308D01*
Y20669D01*
X85039Y15946D02*
Y14372D01*
Y15159D01*
X89762D01*
X88975Y15946D01*
X85039Y8862D02*
Y12011D01*
X88188Y8862D01*
X88975D01*
X89762Y9649D01*
Y11224D01*
X88975Y12011D01*
X99998Y20669D02*
X95276D01*
Y18308D01*
X96063Y17521D01*
X96850D01*
X97637Y18308D01*
Y20669D01*
Y18308D01*
X98424Y17521D01*
X99211D01*
X99998Y18308D01*
Y20669D01*
X95276Y15946D02*
Y14372D01*
Y15159D01*
X99998D01*
X99211Y15946D01*
X95276Y12011D02*
Y10436D01*
Y11224D01*
X99998D01*
X99211Y12011D01*
X79526Y20669D02*
X74803D01*
Y18308D01*
X75590Y17521D01*
X76377D01*
X77165Y18308D01*
Y20669D01*
Y18308D01*
X77952Y17521D01*
X78739D01*
X79526Y18308D01*
Y20669D01*
X74803Y15946D02*
Y14372D01*
Y15159D01*
X79526D01*
X78739Y15946D01*
Y12011D02*
X79526Y11224D01*
Y9649D01*
X78739Y8862D01*
X77952D01*
X77165Y9649D01*
Y10436D01*
Y9649D01*
X76377Y8862D01*
X75590D01*
X74803Y9649D01*
Y11224D01*
X75590Y12011D01*
X69290Y20669D02*
X64567D01*
Y18308D01*
X65354Y17521D01*
X66141D01*
X66928Y18308D01*
Y20669D01*
Y18308D01*
X67716Y17521D01*
X68503D01*
X69290Y18308D01*
Y20669D01*
X64567Y15946D02*
Y14372D01*
Y15159D01*
X69290D01*
X68503Y15946D01*
X64567Y9649D02*
X69290D01*
X66928Y12011D01*
Y8862D01*
X59054Y20669D02*
X54331D01*
Y18308D01*
X55118Y17521D01*
X55905D01*
X56692Y18308D01*
Y20669D01*
Y18308D01*
X57479Y17521D01*
X58267D01*
X59054Y18308D01*
Y20669D01*
X54331Y15946D02*
Y14372D01*
Y15159D01*
X59054D01*
X58267Y15946D01*
X59054Y8862D02*
Y12011D01*
X56692D01*
X57479Y10436D01*
Y9649D01*
X56692Y8862D01*
X55118D01*
X54331Y9649D01*
Y11224D01*
X55118Y12011D01*
X48817Y20669D02*
X44094D01*
Y18308D01*
X44882Y17521D01*
X45669D01*
X46456Y18308D01*
Y20669D01*
Y18308D01*
X47243Y17521D01*
X48030D01*
X48817Y18308D01*
Y20669D01*
X44094Y15946D02*
Y14372D01*
Y15159D01*
X48817D01*
X48030Y15946D01*
X48817Y8862D02*
X48030Y10436D01*
X46456Y12011D01*
X44882D01*
X44094Y11224D01*
Y9649D01*
X44882Y8862D01*
X45669D01*
X46456Y9649D01*
Y12011D01*
X19068Y46154D02*
X19856Y45367D01*
X21430D01*
X22217Y46154D01*
Y49303D01*
X21430Y50090D01*
X19856D01*
X19068Y49303D01*
Y47728D01*
X20643D01*
X17494Y50090D02*
Y45367D01*
X14345Y50090D01*
Y45367D01*
X12771D02*
Y50090D01*
X10410D01*
X9623Y49303D01*
Y46154D01*
X10410Y45367D01*
X12771D01*
X19069Y56390D02*
X19856Y55603D01*
X21430D01*
X22218Y56390D01*
Y57177D01*
X21430Y57964D01*
X19856D01*
X19069Y58751D01*
Y59539D01*
X19856Y60326D01*
X21430D01*
X22218Y59539D01*
X17495Y60326D02*
X15920D01*
X16707D01*
Y55603D01*
X17495Y56390D01*
X19024Y65738D02*
X19811Y64951D01*
X21385D01*
X22173Y65738D01*
Y66525D01*
X21385Y67312D01*
X19811D01*
X19024Y68099D01*
Y68886D01*
X19811Y69673D01*
X21385D01*
X22173Y68886D01*
X14301Y69673D02*
X17450D01*
X14301Y66525D01*
Y65738D01*
X15088Y64951D01*
X16662D01*
X17450Y65738D01*
X22100Y75317D02*
Y80040D01*
Y78465D01*
X18951Y75317D01*
X21313Y77678D01*
X18951Y80040D01*
X14229Y75317D02*
X17377D01*
Y80040D01*
X14229D01*
X17377Y77678D02*
X15803D01*
X12654Y75317D02*
Y76104D01*
X11080Y77678D01*
X9506Y76104D01*
Y75317D01*
X11080Y77678D02*
Y80040D01*
X19096Y85679D02*
X22245D01*
Y88041D01*
X20671Y87253D01*
X19883D01*
X19096Y88041D01*
Y89615D01*
X19883Y90402D01*
X21458D01*
X22245Y89615D01*
X17522Y85679D02*
Y88828D01*
X15948Y90402D01*
X14373Y88828D01*
Y85679D01*
X19068Y174186D02*
X19855Y173399D01*
X21430D01*
X22217Y174186D01*
Y177334D01*
X21430Y178122D01*
X19855D01*
X19068Y177334D01*
Y175760D01*
X20643D01*
X17494Y178122D02*
Y173399D01*
X14345Y178122D01*
Y173399D01*
X12771D02*
Y178122D01*
X10410D01*
X9623Y177334D01*
Y174186D01*
X10410Y173399D01*
X12771D01*
X19069Y184422D02*
X19856Y183634D01*
X21430D01*
X22218Y184422D01*
Y185209D01*
X21430Y185996D01*
X19856D01*
X19069Y186783D01*
Y187570D01*
X19856Y188357D01*
X21430D01*
X22218Y187570D01*
X17495Y188357D02*
X15920D01*
X16707D01*
Y183634D01*
X17495Y184422D01*
X19024Y193769D02*
X19811Y192982D01*
X21385D01*
X22173Y193769D01*
Y194556D01*
X21385Y195343D01*
X19811D01*
X19024Y196131D01*
Y196918D01*
X19811Y197705D01*
X21385D01*
X22173Y196918D01*
X14301Y197705D02*
X17450D01*
X14301Y194556D01*
Y193769D01*
X15088Y192982D01*
X16662D01*
X17450Y193769D01*
X22100Y203348D02*
Y208071D01*
Y206497D01*
X18951Y203348D01*
X21313Y205710D01*
X18951Y208071D01*
X14229Y203348D02*
X17377D01*
Y208071D01*
X14229D01*
X17377Y205710D02*
X15803D01*
X12654Y203348D02*
Y204135D01*
X11080Y205710D01*
X9506Y204135D01*
Y203348D01*
X11080Y205710D02*
Y208071D01*
X19096Y213711D02*
X22245D01*
Y216072D01*
X20671Y215285D01*
X19883D01*
X19096Y216072D01*
Y217646D01*
X19883Y218433D01*
X21458D01*
X22245Y217646D01*
X17522Y213711D02*
Y216859D01*
X15948Y218433D01*
X14373Y216859D01*
Y213711D01*
X228551Y126710D02*
Y131433D01*
X226190D01*
X225403Y130646D01*
Y127497D01*
X226190Y126710D01*
X228551D01*
X223828D02*
X220680D01*
X222254D01*
Y131433D01*
X219105Y126710D02*
Y131433D01*
X216744D01*
X215957Y130646D01*
Y129859D01*
X216744Y129072D01*
X219105D01*
X216744D01*
X215957Y128285D01*
Y127497D01*
X216744Y126710D01*
X219105D01*
X225403Y147497D02*
X226190Y146710D01*
X227764D01*
X228551Y147497D01*
Y150646D01*
X227764Y151433D01*
X226190D01*
X225403Y150646D01*
Y149072D01*
X226977D01*
X223828Y151433D02*
Y146710D01*
X220680Y151433D01*
Y146710D01*
X219105D02*
Y151433D01*
X216744D01*
X215957Y150646D01*
Y147497D01*
X216744Y146710D01*
X219105D01*
X228551Y136710D02*
Y139859D01*
X226977Y141433D01*
X225403Y139859D01*
Y136710D01*
X220680Y137497D02*
X221467Y136710D01*
X223041D01*
X223828Y137497D01*
Y140646D01*
X223041Y141433D01*
X221467D01*
X220680Y140646D01*
X215957Y137497D02*
X216744Y136710D01*
X218318D01*
X219105Y137497D01*
Y140646D01*
X218318Y141433D01*
X216744D01*
X215957Y140646D01*
X228551Y170017D02*
Y174740D01*
X226190D01*
X225403Y173953D01*
Y170804D01*
X226190Y170017D01*
X228551D01*
X223828D02*
X220680D01*
X222254D01*
Y174740D01*
X219105Y170017D02*
Y174740D01*
X216744D01*
X215957Y173953D01*
Y173166D01*
X216744Y172379D01*
X219105D01*
X216744D01*
X215957Y171592D01*
Y170804D01*
X216744Y170017D01*
X219105D01*
X225403Y190804D02*
X226190Y190017D01*
X227764D01*
X228551Y190804D01*
Y193953D01*
X227764Y194740D01*
X226190D01*
X225403Y193953D01*
Y192379D01*
X226977D01*
X223828Y194740D02*
Y190017D01*
X220680Y194740D01*
Y190017D01*
X219105D02*
Y194740D01*
X216744D01*
X215957Y193953D01*
Y190804D01*
X216744Y190017D01*
X219105D01*
X228551Y180017D02*
Y183166D01*
X226977Y184740D01*
X225403Y183166D01*
Y180017D01*
X220680Y180804D02*
X221467Y180017D01*
X223041D01*
X223828Y180804D01*
Y183953D01*
X223041Y184740D01*
X221467D01*
X220680Y183953D01*
X215957Y180804D02*
X216744Y180017D01*
X218318D01*
X219105Y180804D01*
Y183953D01*
X218318Y184740D01*
X216744D01*
X215957Y183953D01*
X19068Y113320D02*
X19856Y112532D01*
X21430D01*
X22217Y113320D01*
Y116468D01*
X21430Y117255D01*
X19856D01*
X19068Y116468D01*
Y114894D01*
X20643D01*
X17494Y117255D02*
Y112532D01*
X14346Y117255D01*
Y112532D01*
X12771D02*
Y117255D01*
X10410D01*
X9623Y116468D01*
Y113320D01*
X10410Y112532D01*
X12771D01*
X19069Y123555D02*
X19856Y122768D01*
X21430D01*
X22218Y123555D01*
Y124342D01*
X21430Y125129D01*
X19856D01*
X19069Y125917D01*
Y126704D01*
X19856Y127491D01*
X21430D01*
X22218Y126704D01*
X17495Y127491D02*
X15920D01*
X16707D01*
Y122768D01*
X17495Y123555D01*
X19024Y132903D02*
X19811Y132116D01*
X21385D01*
X22173Y132903D01*
Y133690D01*
X21385Y134477D01*
X19811D01*
X19024Y135265D01*
Y136052D01*
X19811Y136839D01*
X21385D01*
X22173Y136052D01*
X14301Y136839D02*
X17450D01*
X14301Y133690D01*
Y132903D01*
X15088Y132116D01*
X16662D01*
X17450Y132903D01*
X22100Y142482D02*
Y147205D01*
Y145631D01*
X18951Y142482D01*
X21313Y144843D01*
X18951Y147205D01*
X14229Y142482D02*
X17377D01*
Y147205D01*
X14229D01*
X17377Y144843D02*
X15803D01*
X12654Y142482D02*
Y143269D01*
X11080Y144843D01*
X9506Y143269D01*
Y142482D01*
X11080Y144843D02*
Y147205D01*
X19096Y152845D02*
X22245D01*
Y155206D01*
X20671Y154419D01*
X19883D01*
X19096Y155206D01*
Y156780D01*
X19883Y157567D01*
X21458D01*
X22245Y156780D01*
X17522Y152845D02*
Y155993D01*
X15948Y157567D01*
X14373Y155993D01*
Y152845D01*
X228551Y211450D02*
Y216173D01*
X226190D01*
X225403Y215386D01*
Y212238D01*
X226190Y211450D01*
X228551D01*
X223828D02*
X220680D01*
X222254D01*
Y216173D01*
X219105Y211450D02*
Y216173D01*
X216744D01*
X215957Y215386D01*
Y214599D01*
X216744Y213812D01*
X219105D01*
X216744D01*
X215957Y213025D01*
Y212238D01*
X216744Y211450D01*
X219105D01*
X225403Y232238D02*
X226190Y231450D01*
X227764D01*
X228551Y232238D01*
Y235386D01*
X227764Y236173D01*
X226190D01*
X225403Y235386D01*
Y233812D01*
X226977D01*
X223828Y236173D02*
Y231450D01*
X220680Y236173D01*
Y231450D01*
X219105D02*
Y236173D01*
X216744D01*
X215957Y235386D01*
Y232238D01*
X216744Y231450D01*
X219105D01*
X228551Y221450D02*
Y224599D01*
X226977Y226173D01*
X225403Y224599D01*
Y221450D01*
X220680Y222237D02*
X221467Y221450D01*
X223041D01*
X223828Y222237D01*
Y225386D01*
X223041Y226173D01*
X221467D01*
X220680Y225386D01*
X215957Y222237D02*
X216744Y221450D01*
X218318D01*
X219105Y222237D01*
Y225386D01*
X218318Y226173D01*
X216744D01*
X215957Y225386D01*
D11*
X151575Y235512D02*
X153543Y237480D01*
Y239449D01*
X157480Y237480D02*
X159449Y235512D01*
X157480Y237480D02*
Y237480D01*
Y239449D01*
X149606Y231575D02*
X151575D01*
X157480D02*
X161417D01*
X153543Y221732D02*
X157480D01*
X151575Y231575D02*
X159449D01*
X149606Y225669D02*
Y231575D01*
X151575D02*
Y235512D01*
X157480Y239449D02*
X161417Y243386D01*
X159449Y231575D02*
Y235512D01*
X161417Y225669D02*
Y231575D01*
X153543Y239449D02*
X157480Y243386D01*
X149606Y225669D02*
X153543Y221732D01*
X157480D02*
X161417Y225669D01*
X78740Y222047D02*
X82677Y225984D01*
X70866D02*
X74803Y222047D01*
Y239764D02*
X78740Y243701D01*
X82677Y225984D02*
Y231890D01*
X80709D02*
Y235827D01*
X78740Y239764D02*
X82677Y243701D01*
X72835Y231890D02*
Y235827D01*
X70866Y225984D02*
Y231890D01*
X72835D02*
X80709D01*
X74803Y222047D02*
X78740D01*
Y231890D02*
X82677D01*
X70866D02*
X72835D01*
X78740Y237795D02*
Y239764D01*
Y237795D02*
Y237795D01*
Y237795D02*
X80709Y235827D01*
X74803Y237795D02*
Y239764D01*
X72835Y235827D02*
X74803Y237795D01*
D12*
X88106Y187848D02*
X82202Y189816D01*
X88106Y187848D02*
X82202Y185880D01*
X87262Y187848D02*
X82202Y186161D01*
X83889Y189254D02*
Y186724D01*
X82202Y190379D02*
Y188692D01*
Y187005D02*
Y185318D01*
X86138Y183715D02*
X82202D01*
X86138Y183434D02*
X82202D01*
X84451D02*
X85294Y183153D01*
X85857Y182591D01*
X86138Y182028D01*
Y181185D01*
X85857Y180904D01*
X85575D01*
X85294Y181185D01*
X85575Y181466D01*
X85857Y181185D01*
X86138Y184559D02*
Y183434D01*
X82202Y184559D02*
Y182591D01*
X88106Y176630D02*
X82202D01*
X88106Y176349D02*
X82202D01*
X85294Y176630D02*
X85857Y177193D01*
X86138Y177755D01*
Y178317D01*
X85857Y179161D01*
X85294Y179723D01*
X84451Y180004D01*
X83889D01*
X83045Y179723D01*
X82483Y179161D01*
X82202Y178317D01*
Y177755D01*
X82483Y177193D01*
X83045Y176630D01*
X86138Y178317D02*
X85857Y178879D01*
X85294Y179442D01*
X84451Y179723D01*
X83889D01*
X83045Y179442D01*
X82483Y178879D01*
X82202Y178317D01*
X88106Y177474D02*
Y176349D01*
X82202Y176630D02*
Y175506D01*
X86138Y173847D02*
X83045D01*
X82483Y173566D01*
X82202Y172722D01*
Y172160D01*
X82483Y171317D01*
X83045Y170754D01*
X86138Y173566D02*
X83045D01*
X82483Y173285D01*
X82202Y172722D01*
X86138Y170754D02*
X82202D01*
X86138Y170473D02*
X82202D01*
X86138Y174690D02*
Y173566D01*
Y171598D02*
Y170473D01*
X82202Y170754D02*
Y169630D01*
X88106Y168027D02*
X87825Y168308D01*
X87544Y168027D01*
X87825Y167746D01*
X88106Y168027D01*
X86138D02*
X82202D01*
X86138Y167746D02*
X82202D01*
X86138Y168870D02*
Y167746D01*
X82202Y168870D02*
Y166902D01*
X86138Y164990D02*
X82202D01*
X86138Y164709D02*
X82202D01*
X85294D02*
X85857Y164147D01*
X86138Y163304D01*
Y162741D01*
X85857Y161898D01*
X85294Y161617D01*
X82202D01*
X86138Y162741D02*
X85857Y162179D01*
X85294Y161898D01*
X82202D01*
X86138Y165834D02*
Y164709D01*
X82202Y165834D02*
Y163866D01*
Y162741D02*
Y160773D01*
X86138Y158327D02*
X85857Y159171D01*
X85294Y159733D01*
X84451Y160014D01*
X83889D01*
X83045Y159733D01*
X82483Y159171D01*
X82202Y158327D01*
Y157765D01*
X82483Y156921D01*
X83045Y156359D01*
X83889Y156078D01*
X84451D01*
X85294Y156359D01*
X85857Y156921D01*
X86138Y157765D01*
Y158327D01*
X85857Y158889D01*
X85294Y159452D01*
X84451Y159733D01*
X83889D01*
X83045Y159452D01*
X82483Y158889D01*
X82202Y158327D01*
Y157765D02*
X82483Y157202D01*
X83045Y156640D01*
X83889Y156359D01*
X84451D01*
X85294Y156640D01*
X85857Y157202D01*
X86138Y157765D01*
X80076Y179414D02*
X74172D01*
X80076Y179133D02*
X74172D01*
X80076Y180257D02*
Y176883D01*
X79795Y176040D01*
X79514Y175759D01*
X78951Y175478D01*
X78108D01*
X77546Y175759D01*
X77264Y176040D01*
X76983Y176883D01*
Y179133D01*
X80076Y176883D02*
X79795Y176321D01*
X79514Y176040D01*
X78951Y175759D01*
X78108D01*
X77546Y176040D01*
X77264Y176321D01*
X76983Y176883D01*
X74172Y180257D02*
Y178289D01*
X78108Y173847D02*
X74172D01*
X78108Y173566D02*
X74172D01*
X76421D02*
X77264Y173285D01*
X77827Y172722D01*
X78108Y172160D01*
Y171317D01*
X77827Y171035D01*
X77546D01*
X77264Y171317D01*
X77546Y171598D01*
X77827Y171317D01*
X78108Y174690D02*
Y173566D01*
X74172Y174690D02*
Y172722D01*
X78108Y168449D02*
X77827Y169292D01*
X77264Y169854D01*
X76421Y170136D01*
X75859D01*
X75015Y169854D01*
X74453Y169292D01*
X74172Y168449D01*
Y167886D01*
X74453Y167043D01*
X75015Y166481D01*
X75859Y166200D01*
X76421D01*
X77264Y166481D01*
X77827Y167043D01*
X78108Y167886D01*
Y168449D01*
X77827Y169011D01*
X77264Y169573D01*
X76421Y169854D01*
X75859D01*
X75015Y169573D01*
X74453Y169011D01*
X74172Y168449D01*
Y167886D02*
X74453Y167324D01*
X75015Y166762D01*
X75859Y166481D01*
X76421D01*
X77264Y166762D01*
X77827Y167324D01*
X78108Y167886D01*
X72046Y183715D02*
X66142D01*
X72046Y183434D02*
X66985Y181747D01*
X72046Y183715D02*
X66142Y181747D01*
X72046Y179779D02*
X66142Y181747D01*
X72046Y179779D02*
X66142D01*
X72046Y179498D02*
X66142D01*
X72046Y184559D02*
Y183434D01*
Y179779D02*
Y178655D01*
X66142Y184559D02*
Y182872D01*
Y180623D02*
Y178655D01*
X72046Y177136D02*
X71765Y177418D01*
X71484Y177136D01*
X71765Y176855D01*
X72046Y177136D01*
X70078D02*
X66142D01*
X70078Y176855D02*
X66142D01*
X70078Y177980D02*
Y176855D01*
X66142Y177980D02*
Y176012D01*
X69234Y171570D02*
X68953Y171851D01*
X68672Y171570D01*
X68953Y171288D01*
X69234D01*
X69797Y171851D01*
X70078Y172413D01*
Y173256D01*
X69797Y174100D01*
X69234Y174662D01*
X68391Y174943D01*
X67829D01*
X66985Y174662D01*
X66423Y174100D01*
X66142Y173256D01*
Y172694D01*
X66423Y171851D01*
X66985Y171288D01*
X70078Y173256D02*
X69797Y173819D01*
X69234Y174381D01*
X68391Y174662D01*
X67829D01*
X66985Y174381D01*
X66423Y173819D01*
X66142Y173256D01*
X70078Y169545D02*
X66142D01*
X70078Y169264D02*
X66142D01*
X68391D02*
X69234Y168983D01*
X69797Y168421D01*
X70078Y167858D01*
Y167015D01*
X69797Y166734D01*
X69516D01*
X69234Y167015D01*
X69516Y167296D01*
X69797Y167015D01*
X70078Y170389D02*
Y169264D01*
X66142Y170389D02*
Y168421D01*
X70078Y164147D02*
X69797Y164990D01*
X69234Y165553D01*
X68391Y165834D01*
X67829D01*
X66985Y165553D01*
X66423Y164990D01*
X66142Y164147D01*
Y163585D01*
X66423Y162741D01*
X66985Y162179D01*
X67829Y161898D01*
X68391D01*
X69234Y162179D01*
X69797Y162741D01*
X70078Y163585D01*
Y164147D01*
X69797Y164709D01*
X69234Y165272D01*
X68391Y165553D01*
X67829D01*
X66985Y165272D01*
X66423Y164709D01*
X66142Y164147D01*
Y163585D02*
X66423Y163022D01*
X66985Y162460D01*
X67829Y162179D01*
X68391D01*
X69234Y162460D01*
X69797Y163022D01*
X70078Y163585D01*
X166846Y187533D02*
X160942Y189502D01*
X166846Y187533D02*
X160942Y185565D01*
X166003Y187533D02*
X160942Y185846D01*
X162629Y188939D02*
Y186409D01*
X160942Y190064D02*
Y188377D01*
Y186690D02*
Y185003D01*
X164878Y183400D02*
X160942D01*
X164878Y183119D02*
X160942D01*
X163191D02*
X164034Y182838D01*
X164597Y182276D01*
X164878Y181713D01*
Y180870D01*
X164597Y180589D01*
X164316D01*
X164034Y180870D01*
X164316Y181151D01*
X164597Y180870D01*
X164878Y184244D02*
Y183119D01*
X160942Y184244D02*
Y182276D01*
X166846Y176315D02*
X160942D01*
X166846Y176034D02*
X160942D01*
X164034Y176315D02*
X164597Y176878D01*
X164878Y177440D01*
Y178002D01*
X164597Y178846D01*
X164034Y179408D01*
X163191Y179689D01*
X162629D01*
X161785Y179408D01*
X161223Y178846D01*
X160942Y178002D01*
Y177440D01*
X161223Y176878D01*
X161785Y176315D01*
X164878Y178002D02*
X164597Y178565D01*
X164034Y179127D01*
X163191Y179408D01*
X162629D01*
X161785Y179127D01*
X161223Y178565D01*
X160942Y178002D01*
X166846Y177159D02*
Y176034D01*
X160942Y176315D02*
Y175191D01*
X164878Y173532D02*
X161785D01*
X161223Y173251D01*
X160942Y172407D01*
Y171845D01*
X161223Y171002D01*
X161785Y170439D01*
X164878Y173251D02*
X161785D01*
X161223Y172970D01*
X160942Y172407D01*
X164878Y170439D02*
X160942D01*
X164878Y170158D02*
X160942D01*
X164878Y174375D02*
Y173251D01*
Y171283D02*
Y170158D01*
X160942Y170439D02*
Y169315D01*
X166846Y167712D02*
X166565Y167993D01*
X166284Y167712D01*
X166565Y167431D01*
X166846Y167712D01*
X164878D02*
X160942D01*
X164878Y167431D02*
X160942D01*
X164878Y168555D02*
Y167431D01*
X160942Y168555D02*
Y166587D01*
X164878Y164675D02*
X160942D01*
X164878Y164394D02*
X160942D01*
X164034D02*
X164597Y163832D01*
X164878Y162989D01*
Y162426D01*
X164597Y161583D01*
X164034Y161302D01*
X160942D01*
X164878Y162426D02*
X164597Y161864D01*
X164034Y161583D01*
X160942D01*
X164878Y165519D02*
Y164394D01*
X160942Y165519D02*
Y163551D01*
Y162426D02*
Y160458D01*
X164878Y158012D02*
X164597Y158856D01*
X164034Y159418D01*
X163191Y159699D01*
X162629D01*
X161785Y159418D01*
X161223Y158856D01*
X160942Y158012D01*
Y157450D01*
X161223Y156606D01*
X161785Y156044D01*
X162629Y155763D01*
X163191D01*
X164034Y156044D01*
X164597Y156606D01*
X164878Y157450D01*
Y158012D01*
X164597Y158574D01*
X164034Y159137D01*
X163191Y159418D01*
X162629D01*
X161785Y159137D01*
X161223Y158574D01*
X160942Y158012D01*
Y157450D02*
X161223Y156888D01*
X161785Y156325D01*
X162629Y156044D01*
X163191D01*
X164034Y156325D01*
X164597Y156888D01*
X164878Y157450D01*
X158816Y179099D02*
X152912D01*
X158816Y178818D02*
X152912D01*
X158816Y179942D02*
Y176568D01*
X158535Y175725D01*
X158254Y175444D01*
X157692Y175163D01*
X156848D01*
X156286Y175444D01*
X156005Y175725D01*
X155723Y176568D01*
Y178818D01*
X158816Y176568D02*
X158535Y176006D01*
X158254Y175725D01*
X157692Y175444D01*
X156848D01*
X156286Y175725D01*
X156005Y176006D01*
X155723Y176568D01*
X152912Y179942D02*
Y177974D01*
X156848Y173532D02*
X152912D01*
X156848Y173251D02*
X152912D01*
X155161D02*
X156005Y172970D01*
X156567Y172407D01*
X156848Y171845D01*
Y171002D01*
X156567Y170720D01*
X156286D01*
X156005Y171002D01*
X156286Y171283D01*
X156567Y171002D01*
X156848Y174375D02*
Y173251D01*
X152912Y174375D02*
Y172407D01*
X156848Y168134D02*
X156567Y168977D01*
X156005Y169539D01*
X155161Y169821D01*
X154599D01*
X153755Y169539D01*
X153193Y168977D01*
X152912Y168134D01*
Y167571D01*
X153193Y166728D01*
X153755Y166166D01*
X154599Y165884D01*
X155161D01*
X156005Y166166D01*
X156567Y166728D01*
X156848Y167571D01*
Y168134D01*
X156567Y168696D01*
X156005Y169258D01*
X155161Y169539D01*
X154599D01*
X153755Y169258D01*
X153193Y168696D01*
X152912Y168134D01*
Y167571D02*
X153193Y167009D01*
X153755Y166447D01*
X154599Y166166D01*
X155161D01*
X156005Y166447D01*
X156567Y167009D01*
X156848Y167571D01*
X150786Y183400D02*
X144882D01*
X150786Y183119D02*
X145725Y181432D01*
X150786Y183400D02*
X144882Y181432D01*
X150786Y179464D02*
X144882Y181432D01*
X150786Y179464D02*
X144882D01*
X150786Y179183D02*
X144882D01*
X150786Y184244D02*
Y183119D01*
Y179464D02*
Y178340D01*
X144882Y184244D02*
Y182557D01*
Y180308D02*
Y178340D01*
X150786Y176821D02*
X150505Y177103D01*
X150224Y176821D01*
X150505Y176540D01*
X150786Y176821D01*
X148818D02*
X144882D01*
X148818Y176540D02*
X144882D01*
X148818Y177665D02*
Y176540D01*
X144882Y177665D02*
Y175697D01*
X147975Y171255D02*
X147693Y171536D01*
X147412Y171255D01*
X147693Y170973D01*
X147975D01*
X148537Y171536D01*
X148818Y172098D01*
Y172942D01*
X148537Y173785D01*
X147975Y174347D01*
X147131Y174628D01*
X146569D01*
X145725Y174347D01*
X145163Y173785D01*
X144882Y172942D01*
Y172379D01*
X145163Y171536D01*
X145725Y170973D01*
X148818Y172942D02*
X148537Y173504D01*
X147975Y174066D01*
X147131Y174347D01*
X146569D01*
X145725Y174066D01*
X145163Y173504D01*
X144882Y172942D01*
X148818Y169230D02*
X144882D01*
X148818Y168949D02*
X144882D01*
X147131D02*
X147975Y168668D01*
X148537Y168106D01*
X148818Y167543D01*
Y166700D01*
X148537Y166419D01*
X148256D01*
X147975Y166700D01*
X148256Y166981D01*
X148537Y166700D01*
X148818Y170074D02*
Y168949D01*
X144882Y170074D02*
Y168106D01*
X148818Y163832D02*
X148537Y164675D01*
X147975Y165238D01*
X147131Y165519D01*
X146569D01*
X145725Y165238D01*
X145163Y164675D01*
X144882Y163832D01*
Y163270D01*
X145163Y162426D01*
X145725Y161864D01*
X146569Y161583D01*
X147131D01*
X147975Y161864D01*
X148537Y162426D01*
X148818Y163270D01*
Y163832D01*
X148537Y164394D01*
X147975Y164957D01*
X147131Y165238D01*
X146569D01*
X145725Y164957D01*
X145163Y164394D01*
X144882Y163832D01*
Y163270D02*
X145163Y162707D01*
X145725Y162145D01*
X146569Y161864D01*
X147131D01*
X147975Y162145D01*
X148537Y162707D01*
X148818Y163270D01*
X148219Y86965D02*
Y81061D01*
X148501Y86965D02*
X150187Y81905D01*
X148219Y86965D02*
X150187Y81061D01*
X152155Y86965D02*
X150187Y81061D01*
X152155Y86965D02*
Y81061D01*
X152437Y86965D02*
Y81061D01*
X147376Y86965D02*
X148501D01*
X152155D02*
X153280D01*
X147376Y81061D02*
X149063D01*
X151312D02*
X153280D01*
X154798Y84997D02*
Y81905D01*
X155079Y81342D01*
X155923Y81061D01*
X156485D01*
X157329Y81342D01*
X157891Y81905D01*
X155079Y84997D02*
Y81905D01*
X155361Y81342D01*
X155923Y81061D01*
X157891Y84997D02*
Y81061D01*
X158172Y84997D02*
Y81061D01*
X153955Y84997D02*
X155079D01*
X157048D02*
X158172D01*
X157891Y81061D02*
X159016D01*
X160618Y86965D02*
Y81061D01*
X160899Y86965D02*
Y81061D01*
X159775Y86965D02*
X160899D01*
X159775Y81061D02*
X161743D01*
X164498D02*
X164217Y81342D01*
X163936Y82186D01*
Y86965D01*
X163655D01*
Y82186D01*
X163936Y81342D01*
X164498Y81061D01*
X165060D01*
X165623Y81342D01*
X165904Y81905D01*
X162811Y84997D02*
X165060D01*
X167703Y86965D02*
X167422Y86684D01*
X167703Y86403D01*
X167984Y86684D01*
X167703Y86965D01*
Y84997D02*
Y81061D01*
X167984Y84997D02*
Y81061D01*
X166860Y84997D02*
X167984D01*
X166860Y81061D02*
X168828D01*
X170740Y84997D02*
Y79093D01*
X171021Y84997D02*
Y79093D01*
Y84154D02*
X171583Y84716D01*
X172146Y84997D01*
X172708D01*
X173551Y84716D01*
X174114Y84154D01*
X174395Y83310D01*
Y82748D01*
X174114Y81905D01*
X173551Y81342D01*
X172708Y81061D01*
X172146D01*
X171583Y81342D01*
X171021Y81905D01*
X172708Y84997D02*
X173270Y84716D01*
X173832Y84154D01*
X174114Y83310D01*
Y82748D01*
X173832Y81905D01*
X173270Y81342D01*
X172708Y81061D01*
X169896Y84997D02*
X171021D01*
X169896Y79093D02*
X171864D01*
X176054Y86965D02*
Y81061D01*
X176335Y86965D02*
Y81061D01*
X175210Y86965D02*
X176335D01*
X175210Y81061D02*
X177178D01*
X178528Y83310D02*
X181902D01*
Y83873D01*
X181621Y84435D01*
X181339Y84716D01*
X180777Y84997D01*
X179934D01*
X179090Y84716D01*
X178528Y84154D01*
X178247Y83310D01*
Y82748D01*
X178528Y81905D01*
X179090Y81342D01*
X179934Y81061D01*
X180496D01*
X181339Y81342D01*
X181902Y81905D01*
X181621Y83310D02*
Y84154D01*
X181339Y84716D01*
X179934Y84997D02*
X179371Y84716D01*
X178809Y84154D01*
X178528Y83310D01*
Y82748D01*
X178809Y81905D01*
X179371Y81342D01*
X179934Y81061D01*
X183364Y84997D02*
X186456Y81061D01*
X183645Y84997D02*
X186738Y81061D01*
Y84997D02*
X183364Y81061D01*
X182801Y84997D02*
X184488D01*
X185613D02*
X187300D01*
X182801Y81061D02*
X184488D01*
X185613D02*
X187300D01*
X188396Y83310D02*
X191770D01*
Y83873D01*
X191489Y84435D01*
X191208Y84716D01*
X190646Y84997D01*
X189802D01*
X188959Y84716D01*
X188396Y84154D01*
X188115Y83310D01*
Y82748D01*
X188396Y81905D01*
X188959Y81342D01*
X189802Y81061D01*
X190364D01*
X191208Y81342D01*
X191770Y81905D01*
X191489Y83310D02*
Y84154D01*
X191208Y84716D01*
X189802Y84997D02*
X189240Y84716D01*
X188678Y84154D01*
X188396Y83310D01*
Y82748D01*
X188678Y81905D01*
X189240Y81342D01*
X189802Y81061D01*
X193513Y84997D02*
Y81061D01*
X193795Y84997D02*
Y81061D01*
Y83310D02*
X194076Y84154D01*
X194638Y84716D01*
X195200Y84997D01*
X196044D01*
X196325Y84716D01*
Y84435D01*
X196044Y84154D01*
X195763Y84435D01*
X196044Y84716D01*
X192670Y84997D02*
X193795D01*
X192670Y81061D02*
X194638D01*
X159676Y75843D02*
X160239Y76124D01*
X161082Y76967D01*
Y71063D01*
X160801Y76686D02*
Y71063D01*
X159676D02*
X162207D01*
X166593Y76124D02*
X166312Y75843D01*
X166593Y75561D01*
X166874Y75843D01*
Y76124D01*
X166593Y76686D01*
X166031Y76967D01*
X165187D01*
X164344Y76686D01*
X163781Y76124D01*
X163500Y75561D01*
X163219Y74437D01*
Y72750D01*
X163500Y71906D01*
X164062Y71344D01*
X164906Y71063D01*
X165468D01*
X166312Y71344D01*
X166874Y71906D01*
X167155Y72750D01*
Y73031D01*
X166874Y73874D01*
X166312Y74437D01*
X165468Y74718D01*
X165187D01*
X164344Y74437D01*
X163781Y73874D01*
X163500Y73031D01*
X165187Y76967D02*
X164625Y76686D01*
X164062Y76124D01*
X163781Y75561D01*
X163500Y74437D01*
Y72750D01*
X163781Y71906D01*
X164344Y71344D01*
X164906Y71063D01*
X165468D02*
X166031Y71344D01*
X166593Y71906D01*
X166874Y72750D01*
Y73031D01*
X166593Y73874D01*
X166031Y74437D01*
X165468Y74718D01*
X177277Y76124D02*
X177558Y75280D01*
Y76967D01*
X177277Y76124D01*
X176714Y76686D01*
X175871Y76967D01*
X175309D01*
X174465Y76686D01*
X173903Y76124D01*
X173622Y75561D01*
X173340Y74718D01*
Y73312D01*
X173622Y72469D01*
X173903Y71906D01*
X174465Y71344D01*
X175309Y71063D01*
X175871D01*
X176714Y71344D01*
X177277Y71906D01*
X177558Y72469D01*
X175309Y76967D02*
X174746Y76686D01*
X174184Y76124D01*
X173903Y75561D01*
X173622Y74718D01*
Y73312D01*
X173903Y72469D01*
X174184Y71906D01*
X174746Y71344D01*
X175309Y71063D01*
X179245Y76967D02*
Y71063D01*
X179526Y76967D02*
Y71063D01*
X182900Y76967D02*
Y71063D01*
X183181Y76967D02*
Y71063D01*
X178401Y76967D02*
X180369D01*
X182056D02*
X184024D01*
X179526Y74156D02*
X182900D01*
X178401Y71063D02*
X180369D01*
X182056D02*
X184024D01*
X155775Y102035D02*
X155316Y101576D01*
Y100658D01*
X155775Y100199D01*
X157612D01*
X158071Y100658D01*
Y101576D01*
X157612Y102035D01*
X156693D01*
Y101117D01*
X158071Y102954D02*
X155316D01*
X158071Y104790D01*
X155316D01*
Y105709D02*
X158071D01*
Y107086D01*
X157612Y107545D01*
X155775D01*
X155316Y107086D01*
Y105709D01*
X45080Y50590D02*
X45539D01*
X46457Y51509D01*
X45539Y52427D01*
X45080D01*
X46457Y51509D02*
X47835D01*
Y53346D02*
Y54264D01*
Y53805D01*
X45080D01*
X45539Y53346D01*
X45080Y57478D02*
Y55641D01*
X46457D01*
X45998Y56560D01*
Y57019D01*
X46457Y57478D01*
X47376D01*
X47835Y57019D01*
Y56101D01*
X47376Y55641D01*
X85237Y105709D02*
Y107545D01*
X85696D01*
X87533Y105709D01*
X87992D01*
Y107545D01*
X196067Y50591D02*
X196526D01*
X197445Y51509D01*
X196526Y52427D01*
X196067D01*
X197445Y51509D02*
X198822D01*
X196526Y53346D02*
X196067Y53805D01*
Y54723D01*
X196526Y55182D01*
X198363D01*
X198822Y54723D01*
Y53805D01*
X198363Y53346D01*
X196526D01*
X131496Y242991D02*
X133333D01*
X132414D01*
Y240236D01*
X134251Y242991D02*
X136088Y240236D01*
Y242991D02*
X134251Y240236D01*
X137006Y242531D02*
X137465Y242991D01*
X138384D01*
X138843Y242531D01*
Y240695D01*
X138384Y240236D01*
X137465D01*
X137006Y240695D01*
Y242531D01*
X175591Y130000D02*
X176509D01*
X176050D01*
Y132755D01*
X175591Y132296D01*
X177886D02*
X178346Y132755D01*
X179264D01*
X179723Y132296D01*
Y130459D01*
X179264Y130000D01*
X178346D01*
X177886Y130459D01*
Y132296D01*
X96850Y130315D02*
X97769D01*
X97310D01*
Y133070D01*
X96850Y132611D01*
X99146D02*
X99605Y133070D01*
X100524D01*
X100983Y132611D01*
Y130774D01*
X100524Y130315D01*
X99605D01*
X99146Y130774D01*
Y132611D01*
X52756Y243306D02*
X54593D01*
X53674D01*
Y240551D01*
X55511Y243306D02*
X57348Y240551D01*
Y243306D02*
X55511Y240551D01*
X58266Y242846D02*
X58725Y243306D01*
X59643D01*
X60103Y242846D01*
Y241010D01*
X59643Y240551D01*
X58725D01*
X58266Y241010D01*
Y242846D01*
D13*
X94163Y199003D02*
Y204907D01*
X93881Y199003D02*
Y204907D01*
X92194Y200690D02*
Y202939D01*
X95006Y199003D02*
X90508D01*
Y200690D01*
X90789Y199003D01*
X93881Y201814D02*
X92194D01*
X95006Y204907D02*
X90508D01*
Y203220D01*
X90789Y204907D01*
X88849Y200971D02*
Y204907D01*
X88568Y200971D02*
Y204907D01*
Y201814D02*
X88005Y201252D01*
X87162Y200971D01*
X86599D01*
X85756Y201252D01*
X85475Y201814D01*
Y204907D01*
X86599Y200971D02*
X86037Y201252D01*
X85756Y201814D01*
Y204907D01*
X89692Y200971D02*
X88568D01*
X89692Y204907D02*
X87724D01*
X86599D02*
X84631D01*
X80498Y201814D02*
X80780Y202096D01*
X80498Y202377D01*
X80217Y202096D01*
Y201814D01*
X80780Y201252D01*
X81342Y200971D01*
X82185D01*
X83029Y201252D01*
X83591Y201814D01*
X83872Y202658D01*
Y203220D01*
X83591Y204064D01*
X83029Y204626D01*
X82185Y204907D01*
X81623D01*
X80780Y204626D01*
X80217Y204064D01*
X82185Y200971D02*
X82748Y201252D01*
X83310Y201814D01*
X83591Y202658D01*
Y203220D01*
X83310Y204064D01*
X82748Y204626D01*
X82185Y204907D01*
X77631Y200971D02*
X78474Y201252D01*
X79036Y201814D01*
X79318Y202658D01*
Y203220D01*
X79036Y204064D01*
X78474Y204626D01*
X77631Y204907D01*
X77068D01*
X76225Y204626D01*
X75663Y204064D01*
X75381Y203220D01*
Y202658D01*
X75663Y201814D01*
X76225Y201252D01*
X77068Y200971D01*
X77631D01*
X78193Y201252D01*
X78755Y201814D01*
X79036Y202658D01*
Y203220D01*
X78755Y204064D01*
X78193Y204626D01*
X77631Y204907D01*
X77068D02*
X76506Y204626D01*
X75944Y204064D01*
X75663Y203220D01*
Y202658D01*
X75944Y201814D01*
X76506Y201252D01*
X77068Y200971D01*
X71136Y199003D02*
Y204907D01*
X70855Y199003D02*
Y204907D01*
X71136Y201814D02*
X71698Y201252D01*
X72261Y200971D01*
X72823D01*
X73666Y201252D01*
X74229Y201814D01*
X74510Y202658D01*
Y203220D01*
X74229Y204064D01*
X73666Y204626D01*
X72823Y204907D01*
X72261D01*
X71698Y204626D01*
X71136Y204064D01*
X72823Y200971D02*
X73385Y201252D01*
X73948Y201814D01*
X74229Y202658D01*
Y203220D01*
X73948Y204064D01*
X73385Y204626D01*
X72823Y204907D01*
X71979Y199003D02*
X70855D01*
X71136Y204907D02*
X70011D01*
X68915Y202658D02*
X65541D01*
Y202096D01*
X65822Y201533D01*
X66103Y201252D01*
X66666Y200971D01*
X67509D01*
X68353Y201252D01*
X68915Y201814D01*
X69196Y202658D01*
Y203220D01*
X68915Y204064D01*
X68353Y204626D01*
X67509Y204907D01*
X66947D01*
X66103Y204626D01*
X65541Y204064D01*
X65822Y202658D02*
Y201814D01*
X66103Y201252D01*
X67509Y200971D02*
X68071Y201252D01*
X68634Y201814D01*
X68915Y202658D01*
Y203220D01*
X68634Y204064D01*
X68071Y204626D01*
X67509Y204907D01*
X63798Y200971D02*
Y204907D01*
X63517Y200971D02*
Y204907D01*
Y202658D02*
X63236Y201814D01*
X62673Y201252D01*
X62111Y200971D01*
X61268D01*
X60986Y201252D01*
Y201533D01*
X61268Y201814D01*
X61549Y201533D01*
X61268Y201252D01*
X64641Y200971D02*
X63517D01*
X64641Y204907D02*
X62673D01*
X57275Y201533D02*
X56994Y200971D01*
Y202096D01*
X57275Y201533D01*
X57556Y201252D01*
X58119Y200971D01*
X59243D01*
X59806Y201252D01*
X60087Y201533D01*
Y202096D01*
X59806Y202377D01*
X59243Y202658D01*
X57837Y203220D01*
X57275Y203501D01*
X56994Y203783D01*
X60087Y201814D02*
X59806Y202096D01*
X59243Y202377D01*
X57837Y202939D01*
X57275Y203220D01*
X56994Y203501D01*
Y204345D01*
X57275Y204626D01*
X57837Y204907D01*
X58962D01*
X59524Y204626D01*
X59806Y204345D01*
X60087Y203783D01*
Y204907D01*
X59806Y204345D01*
X93755Y208349D02*
X93474Y209192D01*
Y207505D01*
X93755Y208349D01*
X94317Y207786D01*
X95161Y207505D01*
X95723D01*
X96566Y207786D01*
X97129Y208349D01*
X97410Y208911D01*
X97691Y209754D01*
Y211160D01*
X97410Y212004D01*
X97129Y212566D01*
X96566Y213128D01*
X95723Y213409D01*
X95161D01*
X94317Y213128D01*
X93755Y212566D01*
X93474Y212004D01*
X95723Y207505D02*
X96285Y207786D01*
X96848Y208349D01*
X97129Y208911D01*
X97410Y209754D01*
Y211160D01*
X97129Y212004D01*
X96848Y212566D01*
X96285Y213128D01*
X95723Y213409D01*
X90943Y209473D02*
X91787Y209754D01*
X92349Y210317D01*
X92630Y211160D01*
Y211722D01*
X92349Y212566D01*
X91787Y213128D01*
X90943Y213409D01*
X90381D01*
X89538Y213128D01*
X88975Y212566D01*
X88694Y211722D01*
Y211160D01*
X88975Y210317D01*
X89538Y209754D01*
X90381Y209473D01*
X90943D01*
X91506Y209754D01*
X92068Y210317D01*
X92349Y211160D01*
Y211722D01*
X92068Y212566D01*
X91506Y213128D01*
X90943Y213409D01*
X90381D02*
X89819Y213128D01*
X89256Y212566D01*
X88975Y211722D01*
Y211160D01*
X89256Y210317D01*
X89819Y209754D01*
X90381Y209473D01*
X86979D02*
Y213409D01*
X86698Y209473D02*
Y213409D01*
Y210317D02*
X86136Y209754D01*
X85292Y209473D01*
X84730D01*
X83886Y209754D01*
X83605Y210317D01*
Y213409D01*
X84730Y209473D02*
X84167Y209754D01*
X83886Y210317D01*
Y213409D01*
X87823Y209473D02*
X86698D01*
X87823Y213409D02*
X85855D01*
X84730D02*
X82762D01*
X80316D02*
X80597Y213128D01*
X80878Y212285D01*
Y207505D01*
X81159D01*
Y212285D01*
X80878Y213128D01*
X80316Y213409D01*
X79753D01*
X79191Y213128D01*
X78910Y212566D01*
X82003Y209473D02*
X79753D01*
X77111D02*
Y213409D01*
X76829Y209473D02*
Y213409D01*
Y211160D02*
X76548Y210317D01*
X75986Y209754D01*
X75424Y209473D01*
X74580D01*
X74299Y209754D01*
Y210036D01*
X74580Y210317D01*
X74861Y210036D01*
X74580Y209754D01*
X77954Y209473D02*
X76829D01*
X77954Y213409D02*
X75986D01*
X71712Y209473D02*
X72556Y209754D01*
X73118Y210317D01*
X73399Y211160D01*
Y211722D01*
X73118Y212566D01*
X72556Y213128D01*
X71712Y213409D01*
X71150D01*
X70307Y213128D01*
X69744Y212566D01*
X69463Y211722D01*
Y211160D01*
X69744Y210317D01*
X70307Y209754D01*
X71150Y209473D01*
X71712D01*
X72275Y209754D01*
X72837Y210317D01*
X73118Y211160D01*
Y211722D01*
X72837Y212566D01*
X72275Y213128D01*
X71712Y213409D01*
X71150D02*
X70588Y213128D01*
X70025Y212566D01*
X69744Y211722D01*
Y211160D01*
X70025Y210317D01*
X70588Y209754D01*
X71150Y209473D01*
X67748Y207505D02*
Y213409D01*
X67467Y207505D02*
Y213409D01*
X68592Y207505D02*
X67467D01*
X68592Y213409D02*
X66624D01*
X64712Y207505D02*
Y213409D01*
X64430Y207505D02*
Y213409D01*
X65555Y207505D02*
X64430D01*
X65555Y213409D02*
X63587D01*
X62238Y211160D02*
X58864D01*
Y210598D01*
X59145Y210036D01*
X59426Y209754D01*
X59988Y209473D01*
X60832D01*
X61675Y209754D01*
X62238Y210317D01*
X62519Y211160D01*
Y211722D01*
X62238Y212566D01*
X61675Y213128D01*
X60832Y213409D01*
X60269D01*
X59426Y213128D01*
X58864Y212566D01*
X59145Y211160D02*
Y210317D01*
X59426Y209754D01*
X60832Y209473D02*
X61394Y209754D01*
X61956Y210317D01*
X62238Y211160D01*
Y211722D01*
X61956Y212566D01*
X61394Y213128D01*
X60832Y213409D01*
X57121Y209473D02*
Y213409D01*
X56839Y209473D02*
Y213409D01*
Y211160D02*
X56558Y210317D01*
X55996Y209754D01*
X55434Y209473D01*
X54590D01*
X54309Y209754D01*
Y210036D01*
X54590Y210317D01*
X54871Y210036D01*
X54590Y209754D01*
X57964Y209473D02*
X56839D01*
X57964Y213409D02*
X55996D01*
X165025Y199003D02*
Y204907D01*
X164744Y199003D02*
X163057Y204064D01*
X165025Y199003D02*
X163057Y204907D01*
X161089Y199003D02*
X163057Y204907D01*
X161089Y199003D02*
Y204907D01*
X160808Y199003D02*
Y204907D01*
X165868Y199003D02*
X164744D01*
X161089D02*
X159964D01*
X165868Y204907D02*
X164182D01*
X161932D02*
X159964D01*
X158727Y201533D02*
Y201814D01*
X159008D01*
Y201533D01*
X158727Y201252D01*
X158165Y200971D01*
X157040D01*
X156478Y201252D01*
X156197Y201533D01*
X155916Y202096D01*
Y204064D01*
X155634Y204626D01*
X155353Y204907D01*
X156197Y201533D02*
Y204064D01*
X155916Y204626D01*
X155353Y204907D01*
X155072D01*
X156197Y202096D02*
X156478Y202377D01*
X158165Y202658D01*
X159008Y202939D01*
X159290Y203501D01*
Y204064D01*
X159008Y204626D01*
X158165Y204907D01*
X157321D01*
X156759Y204626D01*
X156197Y204064D01*
X158165Y202658D02*
X158727Y202939D01*
X159008Y203501D01*
Y204064D01*
X158727Y204626D01*
X158165Y204907D01*
X153385Y199003D02*
X153666Y199284D01*
X153385Y199565D01*
X153104Y199284D01*
X153385Y199003D01*
Y200971D02*
Y204907D01*
X153104Y200971D02*
Y204907D01*
X154229Y200971D02*
X153104D01*
X154229Y204907D02*
X152261D01*
X150349Y200971D02*
Y204907D01*
X150068Y200971D02*
Y204907D01*
Y201814D02*
X149505Y201252D01*
X148662Y200971D01*
X148100D01*
X147256Y201252D01*
X146975Y201814D01*
Y204907D01*
X148100Y200971D02*
X147537Y201252D01*
X147256Y201814D01*
Y204907D01*
X151192Y200971D02*
X150068D01*
X151192Y204907D02*
X149224D01*
X148100D02*
X146132D01*
X173755Y208349D02*
X173474Y209192D01*
Y207505D01*
X173755Y208349D01*
X174317Y207786D01*
X175161Y207505D01*
X175723D01*
X176566Y207786D01*
X177129Y208349D01*
X177410Y208911D01*
X177691Y209754D01*
Y211160D01*
X177410Y212004D01*
X177129Y212566D01*
X176566Y213128D01*
X175723Y213409D01*
X175161D01*
X174317Y213128D01*
X173755Y212566D01*
X173474Y212004D01*
X175723Y207505D02*
X176285Y207786D01*
X176848Y208349D01*
X177129Y208911D01*
X177410Y209754D01*
Y211160D01*
X177129Y212004D01*
X176848Y212566D01*
X176285Y213128D01*
X175723Y213409D01*
X170943Y209473D02*
X171787Y209754D01*
X172349Y210317D01*
X172630Y211160D01*
Y211722D01*
X172349Y212566D01*
X171787Y213128D01*
X170943Y213409D01*
X170381D01*
X169538Y213128D01*
X168975Y212566D01*
X168694Y211722D01*
Y211160D01*
X168975Y210317D01*
X169538Y209754D01*
X170381Y209473D01*
X170943D01*
X171506Y209754D01*
X172068Y210317D01*
X172349Y211160D01*
Y211722D01*
X172068Y212566D01*
X171506Y213128D01*
X170943Y213409D01*
X170381D02*
X169819Y213128D01*
X169256Y212566D01*
X168975Y211722D01*
Y211160D01*
X169256Y210317D01*
X169819Y209754D01*
X170381Y209473D01*
X166979D02*
Y213409D01*
X166698Y209473D02*
Y213409D01*
Y210317D02*
X166136Y209754D01*
X165292Y209473D01*
X164730D01*
X163886Y209754D01*
X163605Y210317D01*
Y213409D01*
X164730Y209473D02*
X164167Y209754D01*
X163886Y210317D01*
Y213409D01*
X167823Y209473D02*
X166698D01*
X167823Y213409D02*
X165855D01*
X164730D02*
X162762D01*
X160316D02*
X160597Y213128D01*
X160878Y212285D01*
Y207505D01*
X161159D01*
Y212285D01*
X160878Y213128D01*
X160316Y213409D01*
X159753D01*
X159191Y213128D01*
X158910Y212566D01*
X162003Y209473D02*
X159753D01*
X157111D02*
Y213409D01*
X156829Y209473D02*
Y213409D01*
Y211160D02*
X156548Y210317D01*
X155986Y209754D01*
X155424Y209473D01*
X154580D01*
X154299Y209754D01*
Y210036D01*
X154580Y210317D01*
X154861Y210036D01*
X154580Y209754D01*
X157954Y209473D02*
X156829D01*
X157954Y213409D02*
X155986D01*
X151712Y209473D02*
X152556Y209754D01*
X153118Y210317D01*
X153399Y211160D01*
Y211722D01*
X153118Y212566D01*
X152556Y213128D01*
X151712Y213409D01*
X151150D01*
X150307Y213128D01*
X149744Y212566D01*
X149463Y211722D01*
Y211160D01*
X149744Y210317D01*
X150307Y209754D01*
X151150Y209473D01*
X151712D01*
X152275Y209754D01*
X152837Y210317D01*
X153118Y211160D01*
Y211722D01*
X152837Y212566D01*
X152275Y213128D01*
X151712Y213409D01*
X151150D02*
X150588Y213128D01*
X150025Y212566D01*
X149744Y211722D01*
Y211160D01*
X150025Y210317D01*
X150588Y209754D01*
X151150Y209473D01*
X147748Y207505D02*
Y213409D01*
X147467Y207505D02*
Y213409D01*
X148592Y207505D02*
X147467D01*
X148592Y213409D02*
X146624D01*
X144712Y207505D02*
Y213409D01*
X144430Y207505D02*
Y213409D01*
X145555Y207505D02*
X144430D01*
X145555Y213409D02*
X143587D01*
X142237Y211160D02*
X138864D01*
Y210598D01*
X139145Y210036D01*
X139426Y209754D01*
X139988Y209473D01*
X140832D01*
X141675Y209754D01*
X142237Y210317D01*
X142519Y211160D01*
Y211722D01*
X142237Y212566D01*
X141675Y213128D01*
X140832Y213409D01*
X140269D01*
X139426Y213128D01*
X138864Y212566D01*
X139145Y211160D02*
Y210317D01*
X139426Y209754D01*
X140832Y209473D02*
X141394Y209754D01*
X141956Y210317D01*
X142237Y211160D01*
Y211722D01*
X141956Y212566D01*
X141394Y213128D01*
X140832Y213409D01*
X137120Y209473D02*
Y213409D01*
X136839Y209473D02*
Y213409D01*
Y211160D02*
X136558Y210317D01*
X135996Y209754D01*
X135433Y209473D01*
X134590D01*
X134309Y209754D01*
Y210036D01*
X134590Y210317D01*
X134871Y210036D01*
X134590Y209754D01*
X137964Y209473D02*
X136839D01*
X137964Y213409D02*
X135996D01*
X28472Y34236D02*
X31620D01*
Y38959D01*
X28472D01*
X31620Y36598D02*
X30046D01*
X26897Y38959D02*
Y34236D01*
X23749Y38959D01*
Y34236D01*
X19026Y35024D02*
X19813Y34236D01*
X21387D01*
X22175Y35024D01*
Y38172D01*
X21387Y38959D01*
X19813D01*
X19026Y38172D01*
X17452Y38959D02*
X15877D01*
X16665D01*
Y34236D01*
X17452Y35024D01*
X28472Y100236D02*
X31620D01*
Y104959D01*
X28472D01*
X31620Y102598D02*
X30046D01*
X26897Y104959D02*
Y100236D01*
X23749Y104959D01*
Y100236D01*
X19026Y101024D02*
X19813Y100236D01*
X21387D01*
X22175Y101024D01*
Y104172D01*
X21387Y104959D01*
X19813D01*
X19026Y104172D01*
X14303Y104959D02*
X17452D01*
X14303Y101811D01*
Y101024D01*
X15090Y100236D01*
X16665D01*
X17452Y101024D01*
X30472Y224236D02*
X33620D01*
Y228959D01*
X30472D01*
X33620Y226598D02*
X32046D01*
X28898Y228959D02*
Y224236D01*
X25749Y228959D01*
Y224236D01*
X21026Y225024D02*
X21813Y224236D01*
X23388D01*
X24175Y225024D01*
Y228172D01*
X23388Y228959D01*
X21813D01*
X21026Y228172D01*
X19452Y225024D02*
X18665Y224236D01*
X17090D01*
X16303Y225024D01*
Y225811D01*
X17090Y226598D01*
X17877D01*
X17090D01*
X16303Y227385D01*
Y228172D01*
X17090Y228959D01*
X18665D01*
X19452Y228172D01*
X231410Y245409D02*
Y240687D01*
X229048D01*
X228261Y241474D01*
Y243048D01*
X229048Y243835D01*
X231410D01*
X224325Y240687D02*
X225899D01*
X226687Y241474D01*
Y244622D01*
X225899Y245409D01*
X224325D01*
X223538Y244622D01*
Y241474D01*
X224325Y240687D01*
X221964D02*
X218815D01*
X220389D01*
Y245409D01*
X217241D02*
X215667D01*
X216454D01*
Y240687D01*
X217241Y241474D01*
X231410Y119410D02*
Y114687D01*
X229048D01*
X228261Y115474D01*
Y117048D01*
X229048Y117835D01*
X231410D01*
X224325Y114687D02*
X225899D01*
X226687Y115474D01*
Y118622D01*
X225899Y119410D01*
X224325D01*
X223538Y118622D01*
Y115474D01*
X224325Y114687D01*
X221964D02*
X218815D01*
X220389D01*
Y119410D01*
X217241Y115474D02*
X216454Y114687D01*
X214879D01*
X214092Y115474D01*
Y116261D01*
X214879Y117048D01*
X215667D01*
X214879D01*
X214092Y117835D01*
Y118622D01*
X214879Y119410D01*
X216454D01*
X217241Y118622D01*
X231410Y203410D02*
Y198687D01*
X229048D01*
X228261Y199474D01*
Y201048D01*
X229048Y201835D01*
X231410D01*
X224325Y198687D02*
X225899D01*
X226687Y199474D01*
Y202622D01*
X225899Y203410D01*
X224325D01*
X223538Y202622D01*
Y199474D01*
X224325Y198687D01*
X221964D02*
X218815D01*
X220389D01*
Y203410D01*
X214092D02*
X217241D01*
X214092Y200261D01*
Y199474D01*
X214879Y198687D01*
X216454D01*
X217241Y199474D01*
M02*
