G04*
G04 #@! TF.GenerationSoftware,Altium Limited,Altium Designer,20.1.8 (145)*
G04*
G04 Layer_Color=32896*
%FSLAX25Y25*%
%MOIN*%
G70*
G04*
G04 #@! TF.SameCoordinates,D239A609-AEFB-48DA-8D67-1FFB9F5ED150*
G04*
G04*
G04 #@! TF.FilePolarity,Positive*
G04*
G01*
G75*
%ADD26C,0.00600*%
G36*
X88754Y76124D02*
X89113D01*
Y76091D01*
X89341D01*
Y76059D01*
X89536D01*
Y76026D01*
X89699D01*
Y75994D01*
X89862D01*
Y75961D01*
X89992D01*
Y75929D01*
X90123D01*
Y75896D01*
X90220D01*
Y75863D01*
X90351D01*
Y75831D01*
X90448D01*
Y75798D01*
X90546D01*
Y75766D01*
X90644D01*
Y75733D01*
X90709D01*
Y75701D01*
X90807D01*
Y75668D01*
X90872D01*
Y75635D01*
X90937D01*
Y75603D01*
X91035D01*
Y75570D01*
X91100D01*
Y75538D01*
X91165D01*
Y75505D01*
X91230D01*
Y75472D01*
X91295D01*
Y75440D01*
X91361D01*
Y75407D01*
X91426D01*
Y75375D01*
X91491D01*
Y75342D01*
X91523D01*
Y75310D01*
X91589D01*
Y75277D01*
X91654D01*
Y75244D01*
X91686D01*
Y75212D01*
X91751D01*
Y75179D01*
X91784D01*
Y75147D01*
X91849D01*
Y75114D01*
X91882D01*
Y75082D01*
X91947D01*
Y75049D01*
X91980D01*
Y75016D01*
X92012D01*
Y74984D01*
X92045D01*
Y74951D01*
X92110D01*
Y74919D01*
X92142D01*
Y74886D01*
X92175D01*
Y74854D01*
X92208D01*
Y74821D01*
X92240D01*
Y74788D01*
X92305D01*
Y74756D01*
X92338D01*
Y74723D01*
X92370D01*
Y74691D01*
X92403D01*
Y74658D01*
X92436D01*
Y74625D01*
X92468D01*
Y74593D01*
X92501D01*
Y74560D01*
X92533D01*
Y74528D01*
X92566D01*
Y74495D01*
Y74463D01*
X92599D01*
Y74430D01*
X92631D01*
Y74397D01*
X92664D01*
Y74365D01*
X92696D01*
Y74332D01*
Y74300D01*
X92729D01*
Y74267D01*
X92761D01*
Y74235D01*
X92794D01*
Y74202D01*
Y74169D01*
X92827D01*
Y74137D01*
X92859D01*
Y74104D01*
Y74072D01*
X92892D01*
Y74039D01*
X92924D01*
Y74007D01*
Y73974D01*
X92957D01*
Y73941D01*
Y73909D01*
X92989D01*
Y73876D01*
Y73844D01*
X93022D01*
Y73811D01*
Y73778D01*
X93055D01*
Y73746D01*
Y73713D01*
X93087D01*
Y73681D01*
Y73648D01*
X93120D01*
Y73616D01*
Y73583D01*
Y73550D01*
X93152D01*
Y73518D01*
Y73485D01*
Y73453D01*
X93185D01*
Y73420D01*
Y73388D01*
Y73355D01*
X93217D01*
Y73322D01*
Y73290D01*
Y73257D01*
Y73225D01*
X93250D01*
Y73192D01*
Y73160D01*
Y73127D01*
Y73094D01*
Y73062D01*
Y73029D01*
X93283D01*
Y72997D01*
Y72964D01*
Y72931D01*
Y72899D01*
Y72866D01*
Y72834D01*
Y72801D01*
Y72769D01*
Y72736D01*
Y72703D01*
Y72671D01*
Y72638D01*
Y72606D01*
Y72573D01*
Y72541D01*
Y72508D01*
Y72475D01*
Y72443D01*
Y72410D01*
X93250D01*
Y72378D01*
Y72345D01*
Y72313D01*
Y72280D01*
Y72247D01*
Y72215D01*
X93217D01*
Y72182D01*
Y72150D01*
Y72117D01*
X93185D01*
Y72084D01*
Y72052D01*
Y72019D01*
Y71987D01*
X93152D01*
Y71954D01*
Y71922D01*
Y71889D01*
X93120D01*
Y71856D01*
Y71824D01*
X93087D01*
Y71791D01*
Y71759D01*
Y71726D01*
X93055D01*
Y71694D01*
Y71661D01*
X93022D01*
Y71628D01*
Y71596D01*
X92989D01*
Y71563D01*
Y71531D01*
X92957D01*
Y71498D01*
X92924D01*
Y71466D01*
Y71433D01*
X92892D01*
Y71400D01*
Y71368D01*
X92859D01*
Y71335D01*
X92827D01*
Y71303D01*
Y71270D01*
X92794D01*
Y71237D01*
X92761D01*
Y71205D01*
Y71172D01*
X92729D01*
Y71140D01*
X92696D01*
Y71107D01*
X92664D01*
Y71075D01*
X92631D01*
Y71042D01*
Y71009D01*
X92599D01*
Y70977D01*
X92566D01*
Y70944D01*
X92533D01*
Y70912D01*
X92501D01*
Y70879D01*
X92468D01*
Y70847D01*
X92436D01*
Y70814D01*
X92403D01*
Y70781D01*
X92370D01*
Y70749D01*
X92338D01*
Y70716D01*
X92305D01*
Y70684D01*
X92273D01*
Y70651D01*
X92240D01*
Y70619D01*
X92208D01*
Y70586D01*
X92142D01*
Y70553D01*
X92110D01*
Y70521D01*
X92077D01*
Y70488D01*
X92045D01*
Y70456D01*
X91980D01*
Y70423D01*
X91947D01*
Y70390D01*
X91914D01*
Y70358D01*
X91849D01*
Y70325D01*
X91817D01*
Y70293D01*
X91751D01*
Y70260D01*
X91719D01*
Y70228D01*
X91654D01*
Y70195D01*
X91621D01*
Y70162D01*
X91556D01*
Y70130D01*
X91491D01*
Y70097D01*
X91426D01*
Y70065D01*
X91393D01*
Y70032D01*
X91328D01*
Y70000D01*
X91263D01*
Y69967D01*
X91198D01*
Y69934D01*
X91133D01*
Y69902D01*
X91067D01*
Y69869D01*
X90970D01*
Y69837D01*
X90904D01*
Y69804D01*
X90839D01*
Y69772D01*
X90742D01*
Y69739D01*
X90676D01*
Y69706D01*
X90579D01*
Y69674D01*
X90481D01*
Y69641D01*
X90514D01*
Y69609D01*
Y69576D01*
X90546D01*
Y69543D01*
Y69511D01*
X90579D01*
Y69478D01*
Y69446D01*
X90611D01*
Y69413D01*
Y69381D01*
Y69348D01*
X90644D01*
Y69315D01*
Y69283D01*
X90676D01*
Y69250D01*
Y69218D01*
X90709D01*
Y69185D01*
Y69153D01*
X90742D01*
Y69120D01*
Y69087D01*
Y69055D01*
X90774D01*
Y69022D01*
Y68990D01*
X90807D01*
Y68957D01*
Y68924D01*
X90839D01*
Y68892D01*
Y68859D01*
X90872D01*
Y68827D01*
Y68794D01*
Y68762D01*
X90904D01*
Y68729D01*
Y68696D01*
X90937D01*
Y68664D01*
Y68631D01*
X90970D01*
Y68599D01*
Y68566D01*
X91035D01*
Y68534D01*
X91067D01*
Y68501D01*
X91165D01*
Y68534D01*
X91198D01*
Y68501D01*
Y68468D01*
Y68436D01*
X91230D01*
Y68403D01*
X91263D01*
Y68371D01*
X91295D01*
Y68338D01*
X91328D01*
Y68306D01*
X91361D01*
Y68273D01*
X91393D01*
Y68240D01*
X91426D01*
Y68208D01*
X91458D01*
Y68175D01*
X91491D01*
Y68143D01*
X91523D01*
Y68110D01*
X91556D01*
Y68077D01*
X91589D01*
Y68045D01*
X91621D01*
Y68012D01*
X91654D01*
Y67980D01*
X91686D01*
Y67947D01*
X91719D01*
Y67915D01*
X91751D01*
Y67882D01*
Y67849D01*
X91784D01*
Y67817D01*
X91817D01*
Y67784D01*
X91849D01*
Y67752D01*
X91882D01*
Y67719D01*
Y67687D01*
X91914D01*
Y67654D01*
X91947D01*
Y67621D01*
X91980D01*
Y67589D01*
Y67556D01*
X92012D01*
Y67524D01*
X92045D01*
Y67491D01*
X92077D01*
Y67459D01*
Y67426D01*
X92110D01*
Y67393D01*
X92142D01*
Y67361D01*
Y67328D01*
X92175D01*
Y67296D01*
Y67263D01*
X92208D01*
Y67230D01*
X92240D01*
Y67198D01*
Y67165D01*
X92273D01*
Y67133D01*
X92305D01*
Y67100D01*
Y67068D01*
X92338D01*
Y67035D01*
Y67002D01*
X92370D01*
Y66970D01*
Y66937D01*
X92403D01*
Y66905D01*
X92436D01*
Y66872D01*
Y66840D01*
X92468D01*
Y66807D01*
Y66774D01*
X92501D01*
Y66742D01*
Y66709D01*
X92533D01*
Y66677D01*
Y66644D01*
X92566D01*
Y66612D01*
Y66579D01*
X92599D01*
Y66546D01*
Y66514D01*
X92631D01*
Y66481D01*
Y66449D01*
X92664D01*
Y66416D01*
Y66383D01*
Y66351D01*
X92696D01*
Y66318D01*
Y66286D01*
X92729D01*
Y66253D01*
Y66221D01*
X92761D01*
Y66188D01*
Y66155D01*
Y66123D01*
X92794D01*
Y66090D01*
Y66058D01*
X92827D01*
Y66025D01*
Y65993D01*
Y65960D01*
X92859D01*
Y65927D01*
Y65895D01*
Y65862D01*
X92892D01*
Y65830D01*
Y65797D01*
Y65765D01*
X92924D01*
Y65732D01*
Y65699D01*
Y65667D01*
X92957D01*
Y65634D01*
Y65602D01*
Y65569D01*
X92989D01*
Y65536D01*
Y65504D01*
Y65471D01*
X93022D01*
Y65439D01*
Y65406D01*
Y65374D01*
Y65341D01*
X93055D01*
Y65308D01*
Y65276D01*
Y65243D01*
Y65211D01*
X93087D01*
Y65178D01*
Y65146D01*
Y65113D01*
Y65080D01*
X93120D01*
Y65048D01*
Y65015D01*
Y64983D01*
Y64950D01*
Y64918D01*
X93152D01*
Y64885D01*
Y64852D01*
Y64820D01*
Y64787D01*
Y64755D01*
Y64722D01*
X93185D01*
Y64689D01*
Y64657D01*
Y64624D01*
Y64592D01*
Y64559D01*
Y64527D01*
Y64494D01*
Y64461D01*
Y64429D01*
Y64396D01*
X93217D01*
Y64364D01*
Y64331D01*
Y64299D01*
Y64266D01*
Y64233D01*
Y64201D01*
Y64168D01*
Y64136D01*
Y64103D01*
Y64071D01*
Y64038D01*
Y64005D01*
Y63973D01*
X93185D01*
Y63940D01*
Y63908D01*
Y63875D01*
Y63842D01*
Y63810D01*
Y63777D01*
Y63745D01*
Y63712D01*
X93152D01*
Y63680D01*
Y63647D01*
Y63614D01*
Y63582D01*
Y63549D01*
X93120D01*
Y63517D01*
Y63484D01*
Y63452D01*
X93087D01*
Y63419D01*
Y63386D01*
Y63354D01*
X93055D01*
Y63321D01*
Y63289D01*
X93022D01*
Y63256D01*
Y63224D01*
X92989D01*
Y63191D01*
X92957D01*
Y63158D01*
Y63126D01*
X92924D01*
Y63093D01*
X92892D01*
Y63061D01*
X92859D01*
Y63028D01*
X92827D01*
Y62995D01*
X92761D01*
Y62963D01*
X92729D01*
Y62930D01*
X92664D01*
Y62898D01*
X92599D01*
Y62865D01*
X92436D01*
Y62833D01*
X92305D01*
Y62865D01*
X92110D01*
Y62898D01*
X92012D01*
Y62930D01*
X91947D01*
Y62963D01*
X91882D01*
Y62995D01*
X91817D01*
Y63028D01*
X91751D01*
Y63061D01*
X91719D01*
Y63093D01*
X91654D01*
Y63126D01*
X91621D01*
Y63158D01*
X91556D01*
Y63191D01*
X91523D01*
Y63224D01*
X91491D01*
Y63256D01*
X91426D01*
Y63289D01*
X91393D01*
Y63321D01*
X91361D01*
Y63354D01*
X91328D01*
Y63386D01*
X91295D01*
Y63419D01*
X91263D01*
Y63452D01*
X91230D01*
Y63484D01*
X91198D01*
Y63517D01*
X91165D01*
Y63549D01*
X91133D01*
Y63582D01*
X91100D01*
Y63614D01*
X91067D01*
Y63647D01*
X91035D01*
Y63680D01*
X91002D01*
Y63712D01*
X90970D01*
Y63745D01*
Y63777D01*
X90937D01*
Y63810D01*
X90904D01*
Y63842D01*
X90872D01*
Y63875D01*
X90839D01*
Y63908D01*
X90807D01*
Y63940D01*
Y63973D01*
X90774D01*
Y64005D01*
X90742D01*
Y64038D01*
Y64071D01*
X90709D01*
Y64103D01*
X90676D01*
Y64136D01*
X90644D01*
Y64168D01*
Y64201D01*
X90611D01*
Y64233D01*
X90579D01*
Y64266D01*
Y64299D01*
X90546D01*
Y64331D01*
X90514D01*
Y64364D01*
Y64396D01*
X90481D01*
Y64429D01*
Y64461D01*
X90448D01*
Y64494D01*
X90416D01*
Y64527D01*
Y64559D01*
X90383D01*
Y64592D01*
Y64624D01*
X90351D01*
Y64657D01*
X90318D01*
Y64689D01*
Y64722D01*
X90286D01*
Y64755D01*
Y64787D01*
X90253D01*
Y64820D01*
Y64852D01*
X90220D01*
Y64885D01*
Y64918D01*
X90188D01*
Y64950D01*
Y64983D01*
X90155D01*
Y65015D01*
Y65048D01*
X90123D01*
Y65080D01*
Y65113D01*
X90090D01*
Y65146D01*
Y65178D01*
X90057D01*
Y65211D01*
Y65243D01*
X90025D01*
Y65276D01*
Y65308D01*
Y65341D01*
X89992D01*
Y65374D01*
Y65406D01*
X89960D01*
Y65439D01*
Y65471D01*
X89927D01*
Y65504D01*
Y65536D01*
Y65569D01*
X89895D01*
Y65602D01*
Y65634D01*
Y65667D01*
X89862D01*
Y65699D01*
Y65732D01*
X89829D01*
Y65765D01*
Y65797D01*
Y65830D01*
X89797D01*
Y65862D01*
Y65895D01*
Y65927D01*
X89764D01*
Y65960D01*
Y65993D01*
Y66025D01*
X89732D01*
Y66058D01*
Y66090D01*
Y66123D01*
X89699D01*
Y66155D01*
Y66188D01*
Y66221D01*
Y66253D01*
X89667D01*
Y66286D01*
Y66318D01*
Y66351D01*
Y66383D01*
X89634D01*
Y66416D01*
Y66449D01*
Y66481D01*
Y66514D01*
X89601D01*
Y66546D01*
Y66579D01*
Y66612D01*
Y66644D01*
Y66677D01*
X89569D01*
Y66709D01*
Y66742D01*
Y66774D01*
Y66807D01*
Y66840D01*
Y66872D01*
X89536D01*
Y66905D01*
Y66937D01*
Y66970D01*
Y67002D01*
Y67035D01*
Y67068D01*
Y67100D01*
Y67133D01*
X89504D01*
Y67165D01*
Y67198D01*
Y67230D01*
Y67263D01*
Y67296D01*
Y67328D01*
Y67361D01*
Y67393D01*
Y67426D01*
Y67459D01*
Y67491D01*
Y67524D01*
Y67556D01*
Y67589D01*
Y67621D01*
Y67654D01*
Y67687D01*
Y67719D01*
Y67752D01*
X89536D01*
Y67784D01*
Y67817D01*
Y67849D01*
Y67882D01*
Y67915D01*
Y67947D01*
Y67980D01*
X89569D01*
Y68012D01*
Y68045D01*
Y68077D01*
Y68110D01*
X89536D01*
Y68143D01*
Y68175D01*
X89504D01*
Y68208D01*
Y68240D01*
X89471D01*
Y68273D01*
Y68306D01*
X89439D01*
Y68338D01*
Y68371D01*
Y68403D01*
X89406D01*
Y68436D01*
Y68468D01*
X89373D01*
Y68501D01*
Y68534D01*
X89341D01*
Y68566D01*
Y68599D01*
X89308D01*
Y68631D01*
Y68664D01*
Y68696D01*
X89276D01*
Y68729D01*
Y68762D01*
X89243D01*
Y68794D01*
Y68827D01*
X89210D01*
Y68859D01*
Y68892D01*
X89178D01*
Y68924D01*
Y68957D01*
X89145D01*
Y68990D01*
Y69022D01*
Y69055D01*
X89113D01*
Y69087D01*
Y69120D01*
X89080D01*
Y69153D01*
Y69185D01*
X89048D01*
Y69218D01*
Y69250D01*
X89015D01*
Y69283D01*
Y69315D01*
Y69348D01*
X88885D01*
Y69315D01*
X87614D01*
Y69348D01*
X87386D01*
Y69315D01*
Y69283D01*
X87354D01*
Y69250D01*
Y69218D01*
X87321D01*
Y69185D01*
Y69153D01*
Y69120D01*
X87288D01*
Y69087D01*
Y69055D01*
X87256D01*
Y69022D01*
Y68990D01*
X87223D01*
Y68957D01*
Y68924D01*
X87191D01*
Y68892D01*
Y68859D01*
X87158D01*
Y68827D01*
Y68794D01*
Y68762D01*
X87126D01*
Y68729D01*
Y68696D01*
X87093D01*
Y68664D01*
Y68631D01*
X87060D01*
Y68599D01*
Y68566D01*
X87028D01*
Y68534D01*
Y68501D01*
Y68468D01*
X86995D01*
Y68436D01*
Y68403D01*
X86963D01*
Y68371D01*
Y68338D01*
X86930D01*
Y68306D01*
Y68273D01*
X86898D01*
Y68240D01*
Y68208D01*
Y68175D01*
X86865D01*
Y68143D01*
Y68110D01*
X86832D01*
Y68077D01*
Y68045D01*
X86800D01*
Y68012D01*
Y67980D01*
Y67947D01*
X86832D01*
Y67915D01*
Y67882D01*
Y67849D01*
Y67817D01*
Y67784D01*
Y67752D01*
X86865D01*
Y67719D01*
Y67687D01*
Y67654D01*
Y67621D01*
Y67589D01*
Y67556D01*
Y67524D01*
Y67491D01*
Y67459D01*
Y67426D01*
Y67393D01*
Y67361D01*
Y67328D01*
Y67296D01*
Y67263D01*
Y67230D01*
Y67198D01*
Y67165D01*
Y67133D01*
Y67100D01*
Y67068D01*
X86832D01*
Y67035D01*
Y67002D01*
Y66970D01*
Y66937D01*
Y66905D01*
Y66872D01*
Y66840D01*
Y66807D01*
X86800D01*
Y66774D01*
Y66742D01*
Y66709D01*
Y66677D01*
Y66644D01*
Y66612D01*
X86767D01*
Y66579D01*
Y66546D01*
Y66514D01*
Y66481D01*
Y66449D01*
X86735D01*
Y66416D01*
Y66383D01*
Y66351D01*
Y66318D01*
X86702D01*
Y66286D01*
Y66253D01*
Y66221D01*
Y66188D01*
X86669D01*
Y66155D01*
Y66123D01*
Y66090D01*
X86637D01*
Y66058D01*
Y66025D01*
Y65993D01*
Y65960D01*
X86604D01*
Y65927D01*
Y65895D01*
Y65862D01*
X86572D01*
Y65830D01*
Y65797D01*
Y65765D01*
X86539D01*
Y65732D01*
Y65699D01*
X86507D01*
Y65667D01*
Y65634D01*
Y65602D01*
X86474D01*
Y65569D01*
Y65536D01*
Y65504D01*
X86441D01*
Y65471D01*
Y65439D01*
X86409D01*
Y65406D01*
Y65374D01*
Y65341D01*
X86376D01*
Y65308D01*
Y65276D01*
X86344D01*
Y65243D01*
Y65211D01*
X86311D01*
Y65178D01*
Y65146D01*
X86279D01*
Y65113D01*
Y65080D01*
Y65048D01*
X86246D01*
Y65015D01*
Y64983D01*
X86213D01*
Y64950D01*
Y64918D01*
X86181D01*
Y64885D01*
Y64852D01*
X86148D01*
Y64820D01*
Y64787D01*
X86116D01*
Y64755D01*
Y64722D01*
X86083D01*
Y64689D01*
X86051D01*
Y64657D01*
Y64624D01*
X86018D01*
Y64592D01*
Y64559D01*
X85985D01*
Y64527D01*
Y64494D01*
X85953D01*
Y64461D01*
X85920D01*
Y64429D01*
Y64396D01*
X85888D01*
Y64364D01*
Y64331D01*
X85855D01*
Y64299D01*
X85822D01*
Y64266D01*
Y64233D01*
X85790D01*
Y64201D01*
X85757D01*
Y64168D01*
Y64136D01*
X85725D01*
Y64103D01*
X85692D01*
Y64071D01*
Y64038D01*
X85660D01*
Y64005D01*
X85627D01*
Y63973D01*
X85594D01*
Y63940D01*
Y63908D01*
X85562D01*
Y63875D01*
X85529D01*
Y63842D01*
X85497D01*
Y63810D01*
X85464D01*
Y63777D01*
Y63745D01*
X85432D01*
Y63712D01*
X85399D01*
Y63680D01*
X85366D01*
Y63647D01*
X85334D01*
Y63614D01*
X85301D01*
Y63582D01*
X85269D01*
Y63549D01*
Y63517D01*
X85236D01*
Y63484D01*
X85203D01*
Y63452D01*
X85171D01*
Y63419D01*
X85138D01*
Y63386D01*
X85106D01*
Y63354D01*
X85041D01*
Y63321D01*
X85008D01*
Y63289D01*
X84975D01*
Y63256D01*
X84943D01*
Y63224D01*
X84910D01*
Y63191D01*
X84878D01*
Y63158D01*
X84813D01*
Y63126D01*
X84780D01*
Y63093D01*
X84715D01*
Y63061D01*
X84682D01*
Y63028D01*
X84617D01*
Y62995D01*
X84585D01*
Y62963D01*
X84519D01*
Y62930D01*
X84454D01*
Y62898D01*
X84357D01*
Y62865D01*
X84291D01*
Y62833D01*
X84128D01*
Y62800D01*
X83868D01*
Y62833D01*
X83770D01*
Y62865D01*
X83705D01*
Y62898D01*
X83640D01*
Y62930D01*
X83575D01*
Y62963D01*
X83542D01*
Y62995D01*
X83510D01*
Y63028D01*
X83477D01*
Y63061D01*
X83444D01*
Y63093D01*
X83412D01*
Y63126D01*
Y63158D01*
X83379D01*
Y63191D01*
X83347D01*
Y63224D01*
Y63256D01*
X83314D01*
Y63289D01*
Y63321D01*
Y63354D01*
X83281D01*
Y63386D01*
Y63419D01*
X83249D01*
Y63452D01*
Y63484D01*
Y63517D01*
Y63549D01*
X83216D01*
Y63582D01*
Y63614D01*
Y63647D01*
Y63680D01*
X83184D01*
Y63712D01*
Y63745D01*
Y63777D01*
Y63810D01*
Y63842D01*
Y63875D01*
Y63908D01*
Y63940D01*
Y63973D01*
Y64005D01*
Y64038D01*
X83151D01*
Y64071D01*
Y64103D01*
Y64136D01*
Y64168D01*
Y64201D01*
Y64233D01*
X83184D01*
Y64266D01*
Y64299D01*
Y64331D01*
Y64364D01*
Y64396D01*
Y64429D01*
Y64461D01*
Y64494D01*
Y64527D01*
Y64559D01*
Y64592D01*
Y64624D01*
X83216D01*
Y64657D01*
Y64689D01*
Y64722D01*
Y64755D01*
Y64787D01*
Y64820D01*
Y64852D01*
X83249D01*
Y64885D01*
Y64918D01*
Y64950D01*
Y64983D01*
Y65015D01*
X83281D01*
Y65048D01*
Y65080D01*
Y65113D01*
Y65146D01*
X83314D01*
Y65178D01*
Y65211D01*
Y65243D01*
Y65276D01*
X83347D01*
Y65308D01*
Y65341D01*
Y65374D01*
Y65406D01*
X83379D01*
Y65439D01*
Y65471D01*
Y65504D01*
X83412D01*
Y65536D01*
Y65569D01*
Y65602D01*
Y65634D01*
X83444D01*
Y65667D01*
Y65699D01*
Y65732D01*
X83477D01*
Y65765D01*
Y65797D01*
Y65830D01*
X83510D01*
Y65862D01*
Y65895D01*
X83542D01*
Y65927D01*
Y65960D01*
Y65993D01*
X83575D01*
Y66025D01*
Y66058D01*
Y66090D01*
X83607D01*
Y66123D01*
Y66155D01*
X83640D01*
Y66188D01*
Y66221D01*
X83672D01*
Y66253D01*
Y66286D01*
Y66318D01*
X83705D01*
Y66351D01*
Y66383D01*
X83738D01*
Y66416D01*
Y66449D01*
X83770D01*
Y66481D01*
Y66514D01*
X83803D01*
Y66546D01*
Y66579D01*
X83835D01*
Y66612D01*
Y66644D01*
X83868D01*
Y66677D01*
Y66709D01*
X83900D01*
Y66742D01*
Y66774D01*
X83933D01*
Y66807D01*
Y66840D01*
X83966D01*
Y66872D01*
Y66905D01*
X83998D01*
Y66937D01*
Y66970D01*
X84031D01*
Y67002D01*
X84063D01*
Y67035D01*
Y67068D01*
X84096D01*
Y67100D01*
Y67133D01*
X84128D01*
Y67165D01*
X84161D01*
Y67198D01*
Y67230D01*
X84194D01*
Y67263D01*
X84226D01*
Y67296D01*
Y67328D01*
X84259D01*
Y67361D01*
Y67393D01*
X84291D01*
Y67426D01*
X84324D01*
Y67459D01*
X84357D01*
Y67491D01*
Y67524D01*
X84389D01*
Y67556D01*
X84422D01*
Y67589D01*
Y67621D01*
X84454D01*
Y67654D01*
X84487D01*
Y67687D01*
X84519D01*
Y67719D01*
X84552D01*
Y67752D01*
Y67784D01*
X84585D01*
Y67817D01*
X84617D01*
Y67849D01*
X84650D01*
Y67882D01*
X84682D01*
Y67915D01*
X84715D01*
Y67947D01*
Y67980D01*
X84747D01*
Y68012D01*
X84780D01*
Y68045D01*
X84813D01*
Y68077D01*
X84845D01*
Y68110D01*
X84878D01*
Y68143D01*
X84910D01*
Y68175D01*
X84943D01*
Y68208D01*
X84975D01*
Y68240D01*
X85041D01*
Y68273D01*
X85073D01*
Y68306D01*
X85106D01*
Y68338D01*
X85138D01*
Y68371D01*
Y68403D01*
X85171D01*
Y68436D01*
Y68468D01*
X85334D01*
Y68501D01*
X85366D01*
Y68534D01*
X85399D01*
Y68566D01*
X85432D01*
Y68599D01*
Y68631D01*
Y68664D01*
X85464D01*
Y68696D01*
Y68729D01*
X85497D01*
Y68762D01*
Y68794D01*
X85529D01*
Y68827D01*
Y68859D01*
X85562D01*
Y68892D01*
Y68924D01*
Y68957D01*
X85594D01*
Y68990D01*
Y69022D01*
X85627D01*
Y69055D01*
Y69087D01*
X85660D01*
Y69120D01*
Y69153D01*
X85692D01*
Y69185D01*
Y69218D01*
X85725D01*
Y69250D01*
Y69283D01*
Y69315D01*
X85757D01*
Y69348D01*
Y69381D01*
X85790D01*
Y69413D01*
Y69446D01*
X85822D01*
Y69478D01*
Y69511D01*
X85855D01*
Y69543D01*
Y69576D01*
Y69609D01*
X85888D01*
Y69641D01*
Y69674D01*
X85920D01*
Y69706D01*
X85855D01*
Y69739D01*
X85757D01*
Y69772D01*
X85660D01*
Y69804D01*
X85594D01*
Y69837D01*
X85529D01*
Y69869D01*
X85432D01*
Y69902D01*
X85366D01*
Y69934D01*
X85301D01*
Y69967D01*
X85236D01*
Y70000D01*
X85171D01*
Y70032D01*
X85106D01*
Y70065D01*
X85073D01*
Y70097D01*
X85008D01*
Y70130D01*
X84943D01*
Y70162D01*
X84878D01*
Y70195D01*
X84845D01*
Y70228D01*
X84780D01*
Y70260D01*
X84747D01*
Y70293D01*
X84682D01*
Y70325D01*
X84650D01*
Y70358D01*
X84585D01*
Y70390D01*
X84552D01*
Y70423D01*
X84519D01*
Y70456D01*
X84454D01*
Y70488D01*
X84422D01*
Y70521D01*
X84389D01*
Y70553D01*
X84357D01*
Y70586D01*
X84291D01*
Y70619D01*
X84259D01*
Y70651D01*
X84226D01*
Y70684D01*
X84194D01*
Y70716D01*
X84161D01*
Y70749D01*
X84128D01*
Y70781D01*
X84096D01*
Y70814D01*
X84063D01*
Y70847D01*
X84031D01*
Y70879D01*
X83998D01*
Y70912D01*
X83966D01*
Y70944D01*
X83933D01*
Y70977D01*
X83900D01*
Y71009D01*
Y71042D01*
X83868D01*
Y71075D01*
X83835D01*
Y71107D01*
X83803D01*
Y71140D01*
X83770D01*
Y71172D01*
Y71205D01*
X83738D01*
Y71237D01*
X83705D01*
Y71270D01*
X83672D01*
Y71303D01*
Y71335D01*
X83640D01*
Y71368D01*
X83607D01*
Y71400D01*
Y71433D01*
X83575D01*
Y71466D01*
Y71498D01*
X83542D01*
Y71531D01*
X83510D01*
Y71563D01*
Y71596D01*
X83477D01*
Y71628D01*
Y71661D01*
X83444D01*
Y71694D01*
Y71726D01*
Y71759D01*
X83412D01*
Y71791D01*
Y71824D01*
X83379D01*
Y71856D01*
Y71889D01*
X83347D01*
Y71922D01*
Y71954D01*
Y71987D01*
X83314D01*
Y72019D01*
Y72052D01*
Y72084D01*
Y72117D01*
X83281D01*
Y72150D01*
Y72182D01*
Y72215D01*
Y72247D01*
X83249D01*
Y72280D01*
Y72313D01*
Y72345D01*
Y72378D01*
Y72410D01*
Y72443D01*
X83216D01*
Y72475D01*
Y72508D01*
Y72541D01*
Y72573D01*
Y72606D01*
Y72638D01*
Y72671D01*
Y72703D01*
Y72736D01*
Y72769D01*
Y72801D01*
Y72834D01*
Y72866D01*
Y72899D01*
Y72931D01*
Y72964D01*
Y72997D01*
Y73029D01*
X83249D01*
Y73062D01*
Y73094D01*
Y73127D01*
Y73160D01*
Y73192D01*
Y73225D01*
X83281D01*
Y73257D01*
Y73290D01*
Y73322D01*
Y73355D01*
X83314D01*
Y73388D01*
Y73420D01*
Y73453D01*
X83347D01*
Y73485D01*
Y73518D01*
Y73550D01*
X83379D01*
Y73583D01*
Y73616D01*
Y73648D01*
X83412D01*
Y73681D01*
Y73713D01*
X83444D01*
Y73746D01*
Y73778D01*
X83477D01*
Y73811D01*
Y73844D01*
X83510D01*
Y73876D01*
Y73909D01*
X83542D01*
Y73941D01*
Y73974D01*
X83575D01*
Y74007D01*
Y74039D01*
X83607D01*
Y74072D01*
X83640D01*
Y74104D01*
Y74137D01*
X83672D01*
Y74169D01*
X83705D01*
Y74202D01*
Y74235D01*
X83738D01*
Y74267D01*
X83770D01*
Y74300D01*
X83803D01*
Y74332D01*
Y74365D01*
X83835D01*
Y74397D01*
X83868D01*
Y74430D01*
X83900D01*
Y74463D01*
X83933D01*
Y74495D01*
X83966D01*
Y74528D01*
Y74560D01*
X83998D01*
Y74593D01*
X84031D01*
Y74625D01*
X84063D01*
Y74658D01*
X84096D01*
Y74691D01*
X84128D01*
Y74723D01*
X84161D01*
Y74756D01*
X84194D01*
Y74788D01*
X84259D01*
Y74821D01*
X84291D01*
Y74854D01*
X84324D01*
Y74886D01*
X84357D01*
Y74919D01*
X84389D01*
Y74951D01*
X84454D01*
Y74984D01*
X84487D01*
Y75016D01*
X84519D01*
Y75049D01*
X84585D01*
Y75082D01*
X84617D01*
Y75114D01*
X84650D01*
Y75147D01*
X84715D01*
Y75179D01*
X84747D01*
Y75212D01*
X84813D01*
Y75244D01*
X84845D01*
Y75277D01*
X84910D01*
Y75310D01*
X84975D01*
Y75342D01*
X85008D01*
Y75375D01*
X85073D01*
Y75407D01*
X85138D01*
Y75440D01*
X85203D01*
Y75472D01*
X85269D01*
Y75505D01*
X85334D01*
Y75538D01*
X85399D01*
Y75570D01*
X85464D01*
Y75603D01*
X85562D01*
Y75635D01*
X85627D01*
Y75668D01*
X85692D01*
Y75701D01*
X85790D01*
Y75733D01*
X85855D01*
Y75766D01*
X85953D01*
Y75798D01*
X86051D01*
Y75831D01*
X86148D01*
Y75863D01*
X86279D01*
Y75896D01*
X86376D01*
Y75929D01*
X86507D01*
Y75961D01*
X86637D01*
Y75994D01*
X86800D01*
Y76026D01*
X86963D01*
Y76059D01*
X87158D01*
Y76091D01*
X87386D01*
Y76124D01*
X87745D01*
Y76157D01*
X88754D01*
Y76124D01*
D02*
G37*
%LPC*%
G36*
X88885Y76026D02*
X87614D01*
Y75994D01*
X87288D01*
Y75961D01*
X87060D01*
Y75929D01*
X86898D01*
Y75896D01*
X86735D01*
Y75863D01*
X86572D01*
Y75831D01*
X86474D01*
Y75798D01*
X86344D01*
Y75766D01*
X86213D01*
Y75733D01*
X86116D01*
Y75701D01*
X86018D01*
Y75668D01*
X85920D01*
Y75635D01*
X85855D01*
Y75603D01*
X85757D01*
Y75570D01*
X85660D01*
Y75538D01*
X85594D01*
Y75505D01*
X85529D01*
Y75472D01*
X85464D01*
Y75440D01*
X85399D01*
Y75407D01*
X85334D01*
Y75375D01*
X85269D01*
Y75342D01*
X85203D01*
Y75310D01*
X85138D01*
Y75277D01*
X85073D01*
Y75244D01*
X85008D01*
Y75212D01*
X84975D01*
Y75179D01*
X84910D01*
Y75147D01*
X84845D01*
Y75114D01*
X84813D01*
Y75082D01*
X84747D01*
Y75049D01*
X84715D01*
Y75016D01*
X84650D01*
Y74984D01*
X84617D01*
Y74951D01*
X84585D01*
Y74919D01*
X84519D01*
Y74886D01*
X84487D01*
Y74854D01*
X84454D01*
Y74821D01*
X84422D01*
Y74788D01*
X84389D01*
Y74756D01*
X84324D01*
Y74723D01*
X84291D01*
Y74691D01*
X84259D01*
Y74658D01*
X84226D01*
Y74625D01*
X84194D01*
Y74593D01*
X84161D01*
Y74560D01*
X84128D01*
Y74528D01*
X84096D01*
Y74495D01*
X84063D01*
Y74463D01*
X84031D01*
Y74430D01*
X83998D01*
Y74397D01*
X83966D01*
Y74365D01*
Y74332D01*
X83933D01*
Y74300D01*
X83900D01*
Y74267D01*
X83868D01*
Y74235D01*
X83835D01*
Y74202D01*
Y74169D01*
X83803D01*
Y74137D01*
X83770D01*
Y74104D01*
Y74072D01*
X83738D01*
Y74039D01*
X83705D01*
Y74007D01*
Y73974D01*
X83672D01*
Y73941D01*
Y73909D01*
X83640D01*
Y73876D01*
X83607D01*
Y73844D01*
Y73811D01*
X83575D01*
Y73778D01*
Y73746D01*
X83542D01*
Y73713D01*
Y73681D01*
Y73648D01*
X83510D01*
Y73616D01*
Y73583D01*
X83477D01*
Y73550D01*
Y73518D01*
Y73485D01*
X83444D01*
Y73453D01*
Y73420D01*
Y73388D01*
X83412D01*
Y73355D01*
Y73322D01*
Y73290D01*
X83379D01*
Y73257D01*
Y73225D01*
Y73192D01*
Y73160D01*
Y73127D01*
X83347D01*
Y73094D01*
Y73062D01*
Y73029D01*
Y72997D01*
Y72964D01*
Y72931D01*
Y72899D01*
Y72866D01*
Y72834D01*
Y72801D01*
Y72769D01*
X83314D01*
Y72736D01*
Y72703D01*
X83347D01*
Y72671D01*
Y72638D01*
Y72606D01*
Y72573D01*
Y72541D01*
Y72508D01*
Y72475D01*
Y72443D01*
Y72410D01*
Y72378D01*
Y72345D01*
X83379D01*
Y72313D01*
Y72280D01*
Y72247D01*
Y72215D01*
Y72182D01*
X83412D01*
Y72150D01*
Y72117D01*
Y72084D01*
Y72052D01*
X83444D01*
Y72019D01*
Y71987D01*
Y71954D01*
X83477D01*
Y71922D01*
Y71889D01*
X83510D01*
Y71856D01*
Y71824D01*
Y71791D01*
X83542D01*
Y71759D01*
Y71726D01*
X83575D01*
Y71694D01*
Y71661D01*
X83607D01*
Y71628D01*
Y71596D01*
X83640D01*
Y71563D01*
Y71531D01*
X83672D01*
Y71498D01*
Y71466D01*
X83705D01*
Y71433D01*
X83738D01*
Y71400D01*
Y71368D01*
X83770D01*
Y71335D01*
X83803D01*
Y71303D01*
Y71270D01*
X83835D01*
Y71237D01*
X83868D01*
Y71205D01*
X83900D01*
Y71172D01*
Y71140D01*
X83933D01*
Y71107D01*
X83966D01*
Y71075D01*
X83998D01*
Y71042D01*
X84031D01*
Y71009D01*
X84063D01*
Y70977D01*
X84096D01*
Y70944D01*
X84128D01*
Y70912D01*
X84161D01*
Y70879D01*
X84194D01*
Y70847D01*
X84226D01*
Y70814D01*
X84259D01*
Y70781D01*
X84291D01*
Y70749D01*
X84324D01*
Y70716D01*
X84357D01*
Y70684D01*
X84389D01*
Y70651D01*
X84422D01*
Y70619D01*
X84487D01*
Y70586D01*
X84519D01*
Y70553D01*
X84552D01*
Y70521D01*
X84617D01*
Y70488D01*
X84650D01*
Y70456D01*
X84682D01*
Y70423D01*
X84747D01*
Y70390D01*
X84780D01*
Y70358D01*
X84845D01*
Y70325D01*
X84878D01*
Y70293D01*
X84943D01*
Y70260D01*
X85008D01*
Y70228D01*
X85041D01*
Y70195D01*
X85106D01*
Y70162D01*
X85171D01*
Y70130D01*
X85236D01*
Y70097D01*
X85301D01*
Y70065D01*
X85366D01*
Y70032D01*
X85432D01*
Y70000D01*
X85497D01*
Y69967D01*
X85562D01*
Y69934D01*
X85660D01*
Y69902D01*
X85725D01*
Y69869D01*
X85822D01*
Y69837D01*
X85888D01*
Y69804D01*
X85985D01*
Y69837D01*
Y69869D01*
Y69902D01*
X86018D01*
Y69934D01*
Y69967D01*
X86051D01*
Y70000D01*
Y70032D01*
X86083D01*
Y70065D01*
Y70097D01*
X86116D01*
Y70130D01*
Y70162D01*
X86148D01*
Y70195D01*
Y70228D01*
Y70260D01*
X86181D01*
Y70228D01*
X86246D01*
Y70195D01*
X86311D01*
Y70162D01*
X86376D01*
Y70130D01*
X86474D01*
Y70097D01*
X86539D01*
Y70065D01*
X86604D01*
Y70032D01*
X86669D01*
Y70000D01*
X86767D01*
Y69967D01*
X86832D01*
Y69934D01*
X86898D01*
Y69902D01*
X86963D01*
Y69869D01*
X87060D01*
Y69837D01*
X87126D01*
Y69804D01*
X87191D01*
Y69772D01*
X87256D01*
Y69739D01*
X87321D01*
Y69706D01*
X87419D01*
Y69674D01*
X87484D01*
Y69641D01*
X87516D01*
Y69609D01*
Y69576D01*
X87484D01*
Y69543D01*
Y69511D01*
X87451D01*
Y69478D01*
X87484D01*
Y69446D01*
X87907D01*
Y69413D01*
X88592D01*
Y69446D01*
X88950D01*
Y69478D01*
X88917D01*
Y69511D01*
Y69543D01*
X88885D01*
Y69576D01*
Y69609D01*
Y69641D01*
X88852D01*
Y69674D01*
X88885D01*
Y69706D01*
X88950D01*
Y69739D01*
X89015D01*
Y69772D01*
X89080D01*
Y69804D01*
X89178D01*
Y69837D01*
X89243D01*
Y69869D01*
X89308D01*
Y69902D01*
X89373D01*
Y69934D01*
X89471D01*
Y69967D01*
X89536D01*
Y70000D01*
X89601D01*
Y70032D01*
X89667D01*
Y70065D01*
X89764D01*
Y70097D01*
X89829D01*
Y70130D01*
X89895D01*
Y70162D01*
X89960D01*
Y70195D01*
X90025D01*
Y70228D01*
X90123D01*
Y70260D01*
X90188D01*
Y70293D01*
X90220D01*
Y70260D01*
Y70228D01*
X90253D01*
Y70195D01*
Y70162D01*
X90286D01*
Y70130D01*
Y70097D01*
X90318D01*
Y70065D01*
Y70032D01*
Y70000D01*
X90351D01*
Y69967D01*
Y69934D01*
X90383D01*
Y69902D01*
Y69869D01*
X90416D01*
Y69837D01*
Y69804D01*
X90448D01*
Y69772D01*
X90514D01*
Y69804D01*
X90611D01*
Y69837D01*
X90676D01*
Y69869D01*
X90774D01*
Y69902D01*
X90839D01*
Y69934D01*
X90937D01*
Y69967D01*
X91002D01*
Y70000D01*
X91067D01*
Y70032D01*
X91133D01*
Y70065D01*
X91198D01*
Y70097D01*
X91263D01*
Y70130D01*
X91328D01*
Y70162D01*
X91393D01*
Y70195D01*
X91458D01*
Y70228D01*
X91491D01*
Y70260D01*
X91556D01*
Y70293D01*
X91621D01*
Y70325D01*
X91654D01*
Y70358D01*
X91719D01*
Y70390D01*
X91751D01*
Y70423D01*
X91817D01*
Y70456D01*
X91849D01*
Y70488D01*
X91914D01*
Y70521D01*
X91947D01*
Y70553D01*
X91980D01*
Y70586D01*
X92012D01*
Y70619D01*
X92077D01*
Y70651D01*
X92110D01*
Y70684D01*
X92142D01*
Y70716D01*
X92175D01*
Y70749D01*
X92208D01*
Y70781D01*
X92240D01*
Y70814D01*
X92273D01*
Y70847D01*
X92305D01*
Y70879D01*
X92338D01*
Y70912D01*
X92370D01*
Y70944D01*
X92403D01*
Y70977D01*
X92436D01*
Y71009D01*
X92468D01*
Y71042D01*
X92501D01*
Y71075D01*
X92533D01*
Y71107D01*
X92566D01*
Y71140D01*
X92599D01*
Y71172D01*
Y71205D01*
X92631D01*
Y71237D01*
X92664D01*
Y71270D01*
X92696D01*
Y71303D01*
Y71335D01*
X92729D01*
Y71368D01*
X92761D01*
Y71400D01*
Y71433D01*
X92794D01*
Y71466D01*
X92827D01*
Y71498D01*
Y71531D01*
X92859D01*
Y71563D01*
Y71596D01*
X92892D01*
Y71628D01*
Y71661D01*
X92924D01*
Y71694D01*
Y71726D01*
X92957D01*
Y71759D01*
Y71791D01*
X92989D01*
Y71824D01*
Y71856D01*
X93022D01*
Y71889D01*
Y71922D01*
Y71954D01*
X93055D01*
Y71987D01*
Y72019D01*
Y72052D01*
X93087D01*
Y72084D01*
Y72117D01*
Y72150D01*
Y72182D01*
X93120D01*
Y72215D01*
Y72247D01*
Y72280D01*
Y72313D01*
Y72345D01*
X93152D01*
Y72378D01*
Y72410D01*
Y72443D01*
Y72475D01*
Y72508D01*
Y72541D01*
Y72573D01*
Y72606D01*
Y72638D01*
Y72671D01*
X93185D01*
Y72703D01*
Y72736D01*
Y72769D01*
Y72801D01*
X93152D01*
Y72834D01*
Y72866D01*
Y72899D01*
Y72931D01*
Y72964D01*
Y72997D01*
Y73029D01*
Y73062D01*
Y73094D01*
Y73127D01*
X93120D01*
Y73160D01*
Y73192D01*
Y73225D01*
Y73257D01*
Y73290D01*
X93087D01*
Y73322D01*
Y73355D01*
Y73388D01*
Y73420D01*
X93055D01*
Y73453D01*
Y73485D01*
Y73518D01*
X93022D01*
Y73550D01*
Y73583D01*
X92989D01*
Y73616D01*
Y73648D01*
Y73681D01*
X92957D01*
Y73713D01*
Y73746D01*
X92924D01*
Y73778D01*
Y73811D01*
X92892D01*
Y73844D01*
Y73876D01*
X92859D01*
Y73909D01*
Y73941D01*
X92827D01*
Y73974D01*
X92794D01*
Y74007D01*
Y74039D01*
X92761D01*
Y74072D01*
X92729D01*
Y74104D01*
Y74137D01*
X92696D01*
Y74169D01*
X92664D01*
Y74202D01*
Y74235D01*
X92631D01*
Y74267D01*
X92599D01*
Y74300D01*
X92566D01*
Y74332D01*
X92533D01*
Y74365D01*
Y74397D01*
X92501D01*
Y74430D01*
X92468D01*
Y74463D01*
X92436D01*
Y74495D01*
X92403D01*
Y74528D01*
X92370D01*
Y74560D01*
X92338D01*
Y74593D01*
X92305D01*
Y74625D01*
X92273D01*
Y74658D01*
X92240D01*
Y74691D01*
X92208D01*
Y74723D01*
X92175D01*
Y74756D01*
X92142D01*
Y74788D01*
X92077D01*
Y74821D01*
X92045D01*
Y74854D01*
X92012D01*
Y74886D01*
X91980D01*
Y74919D01*
X91914D01*
Y74951D01*
X91882D01*
Y74984D01*
X91849D01*
Y75016D01*
X91784D01*
Y75049D01*
X91751D01*
Y75082D01*
X91686D01*
Y75114D01*
X91654D01*
Y75147D01*
X91589D01*
Y75179D01*
X91523D01*
Y75212D01*
X91491D01*
Y75244D01*
X91426D01*
Y75277D01*
X91361D01*
Y75310D01*
X91295D01*
Y75342D01*
X91230D01*
Y75375D01*
X91198D01*
Y75407D01*
X91100D01*
Y75440D01*
X91035D01*
Y75472D01*
X90970D01*
Y75505D01*
X90904D01*
Y75538D01*
X90839D01*
Y75570D01*
X90742D01*
Y75603D01*
X90644D01*
Y75635D01*
X90579D01*
Y75668D01*
X90481D01*
Y75701D01*
X90383D01*
Y75733D01*
X90286D01*
Y75766D01*
X90155D01*
Y75798D01*
X90025D01*
Y75831D01*
X89927D01*
Y75863D01*
X89764D01*
Y75896D01*
X89601D01*
Y75929D01*
X89439D01*
Y75961D01*
X89210D01*
Y75994D01*
X88885D01*
Y76026D01*
D02*
G37*
G36*
X90970Y68468D02*
X90937D01*
Y68436D01*
X90970D01*
Y68468D01*
D02*
G37*
G36*
X90937Y68436D02*
X90839D01*
Y68403D01*
X90774D01*
Y68371D01*
X90709D01*
Y68338D01*
X90644D01*
Y68306D01*
X90742D01*
Y68338D01*
X90807D01*
Y68371D01*
X90872D01*
Y68403D01*
X90937D01*
Y68436D01*
D02*
G37*
G36*
X90644Y68306D02*
X90546D01*
Y68273D01*
X90481D01*
Y68240D01*
X90416D01*
Y68208D01*
X90351D01*
Y68175D01*
X90253D01*
Y68143D01*
X90188D01*
Y68110D01*
X90123D01*
Y68077D01*
X90057D01*
Y68045D01*
X89992D01*
Y68012D01*
X90090D01*
Y68045D01*
X90155D01*
Y68077D01*
X90220D01*
Y68110D01*
X90286D01*
Y68143D01*
X90383D01*
Y68175D01*
X90448D01*
Y68208D01*
X90514D01*
Y68240D01*
X90579D01*
Y68273D01*
X90644D01*
Y68306D01*
D02*
G37*
G36*
X89992Y68012D02*
X89895D01*
Y67980D01*
X89829D01*
Y67947D01*
X89764D01*
Y67915D01*
X89699D01*
Y67882D01*
X89797D01*
Y67915D01*
X89862D01*
Y67947D01*
X89927D01*
Y67980D01*
X89992D01*
Y68012D01*
D02*
G37*
G36*
X89699Y67882D02*
X89667D01*
Y67849D01*
X89699D01*
Y67882D01*
D02*
G37*
G36*
X85497Y68403D02*
X85399D01*
Y68371D01*
X85464D01*
Y68338D01*
X85562D01*
Y68306D01*
X85627D01*
Y68273D01*
X85692D01*
Y68240D01*
X85757D01*
Y68208D01*
X85855D01*
Y68175D01*
X85920D01*
Y68143D01*
X85985D01*
Y68110D01*
X86051D01*
Y68077D01*
X86148D01*
Y68045D01*
X86213D01*
Y68012D01*
X86279D01*
Y67980D01*
X86344D01*
Y67947D01*
X86441D01*
Y67915D01*
X86507D01*
Y67882D01*
X86572D01*
Y67849D01*
X86637D01*
Y67817D01*
X86735D01*
Y67849D01*
X86669D01*
Y67882D01*
X86604D01*
Y67915D01*
X86539D01*
Y67947D01*
X86441D01*
Y67980D01*
X86376D01*
Y68012D01*
X86311D01*
Y68045D01*
X86246D01*
Y68077D01*
X86148D01*
Y68110D01*
X86083D01*
Y68143D01*
X86018D01*
Y68175D01*
X85953D01*
Y68208D01*
X85855D01*
Y68240D01*
X85790D01*
Y68273D01*
X85725D01*
Y68306D01*
X85660D01*
Y68338D01*
X85594D01*
Y68371D01*
X85497D01*
Y68403D01*
D02*
G37*
G36*
X91198Y68306D02*
X91067D01*
Y68273D01*
X91002D01*
Y68240D01*
X90904D01*
Y68208D01*
X90839D01*
Y68175D01*
X90774D01*
Y68143D01*
X90709D01*
Y68110D01*
X90611D01*
Y68077D01*
X90546D01*
Y68045D01*
X90481D01*
Y68012D01*
X90514D01*
Y67980D01*
X90546D01*
Y67947D01*
Y67915D01*
X90579D01*
Y67882D01*
X90611D01*
Y67849D01*
X90644D01*
Y67817D01*
X90676D01*
Y67784D01*
X90709D01*
Y67752D01*
Y67719D01*
X90742D01*
Y67687D01*
X90774D01*
Y67654D01*
X90807D01*
Y67621D01*
Y67589D01*
X90839D01*
Y67556D01*
X90872D01*
Y67524D01*
X90904D01*
Y67491D01*
Y67459D01*
X90937D01*
Y67426D01*
X90970D01*
Y67393D01*
X91002D01*
Y67361D01*
Y67328D01*
X91035D01*
Y67296D01*
X91067D01*
Y67263D01*
Y67230D01*
X91100D01*
Y67198D01*
X91133D01*
Y67165D01*
X91165D01*
Y67133D01*
Y67100D01*
X91198D01*
Y67068D01*
X91230D01*
Y67035D01*
Y67002D01*
X91263D01*
Y66970D01*
X91295D01*
Y66937D01*
Y66905D01*
X91328D01*
Y66872D01*
X91361D01*
Y66840D01*
X91393D01*
Y66807D01*
Y66774D01*
X91426D01*
Y66742D01*
X91458D01*
Y66709D01*
Y66677D01*
X91491D01*
Y66644D01*
X91523D01*
Y66612D01*
Y66579D01*
X91556D01*
Y66546D01*
X91589D01*
Y66514D01*
Y66481D01*
X91621D01*
Y66449D01*
X91654D01*
Y66416D01*
Y66383D01*
X91686D01*
Y66351D01*
X91719D01*
Y66318D01*
Y66286D01*
X91751D01*
Y66253D01*
X91784D01*
Y66221D01*
Y66188D01*
X91817D01*
Y66155D01*
X91849D01*
Y66123D01*
Y66090D01*
X91882D01*
Y66058D01*
X91914D01*
Y66025D01*
Y65993D01*
X91947D01*
Y65960D01*
X91980D01*
Y65927D01*
Y65895D01*
X92012D01*
Y65862D01*
X92045D01*
Y65830D01*
Y65797D01*
X92077D01*
Y65765D01*
X92110D01*
Y65732D01*
Y65699D01*
X92142D01*
Y65667D01*
X92175D01*
Y65634D01*
Y65602D01*
X92208D01*
Y65569D01*
Y65536D01*
X92240D01*
Y65504D01*
X92273D01*
Y65471D01*
Y65439D01*
X92305D01*
Y65406D01*
X92338D01*
Y65374D01*
Y65341D01*
X92370D01*
Y65308D01*
Y65276D01*
X92403D01*
Y65243D01*
X92436D01*
Y65211D01*
Y65178D01*
X92468D01*
Y65146D01*
Y65113D01*
X92501D01*
Y65080D01*
X92533D01*
Y65048D01*
Y65015D01*
X92566D01*
Y64983D01*
Y64950D01*
X92599D01*
Y64918D01*
Y64885D01*
X92631D01*
Y64852D01*
Y64820D01*
X92599D01*
Y64852D01*
X92566D01*
Y64885D01*
X92533D01*
Y64918D01*
Y64950D01*
X92501D01*
Y64983D01*
X92468D01*
Y65015D01*
X92436D01*
Y65048D01*
X92403D01*
Y65080D01*
Y65113D01*
X92370D01*
Y65146D01*
X92338D01*
Y65178D01*
X92305D01*
Y65211D01*
Y65243D01*
X92273D01*
Y65276D01*
X92240D01*
Y65308D01*
X92208D01*
Y65341D01*
Y65374D01*
X92175D01*
Y65406D01*
X92142D01*
Y65439D01*
X92110D01*
Y65471D01*
Y65504D01*
X92077D01*
Y65536D01*
X92045D01*
Y65569D01*
X92012D01*
Y65602D01*
Y65634D01*
X91980D01*
Y65667D01*
X91947D01*
Y65699D01*
Y65732D01*
X91914D01*
Y65765D01*
X91882D01*
Y65797D01*
X91849D01*
Y65830D01*
Y65862D01*
X91817D01*
Y65895D01*
X91784D01*
Y65927D01*
Y65960D01*
X91751D01*
Y65993D01*
X91719D01*
Y66025D01*
Y66058D01*
X91686D01*
Y66090D01*
X91654D01*
Y66123D01*
Y66155D01*
X91621D01*
Y66188D01*
X91589D01*
Y66221D01*
X91556D01*
Y66253D01*
Y66286D01*
X91523D01*
Y66318D01*
X91491D01*
Y66351D01*
Y66383D01*
X91458D01*
Y66416D01*
X91426D01*
Y66449D01*
Y66481D01*
X91393D01*
Y66514D01*
X91361D01*
Y66546D01*
Y66579D01*
X91328D01*
Y66612D01*
X91295D01*
Y66644D01*
Y66677D01*
X91263D01*
Y66709D01*
X91230D01*
Y66742D01*
Y66774D01*
X91198D01*
Y66807D01*
X91165D01*
Y66840D01*
Y66872D01*
X91133D01*
Y66905D01*
X91100D01*
Y66937D01*
Y66970D01*
X91067D01*
Y67002D01*
X91035D01*
Y67035D01*
Y67068D01*
X91002D01*
Y67100D01*
Y67133D01*
X90970D01*
Y67165D01*
X90937D01*
Y67198D01*
Y67230D01*
X90904D01*
Y67263D01*
X90872D01*
Y67296D01*
Y67328D01*
X90839D01*
Y67361D01*
Y67393D01*
X90807D01*
Y67426D01*
X90774D01*
Y67459D01*
Y67491D01*
X90742D01*
Y67524D01*
X90709D01*
Y67556D01*
Y67589D01*
X90676D01*
Y67621D01*
Y67654D01*
X90644D01*
Y67687D01*
X90611D01*
Y67719D01*
Y67752D01*
X90579D01*
Y67784D01*
Y67817D01*
X90546D01*
Y67849D01*
Y67882D01*
X90514D01*
Y67915D01*
Y67947D01*
X90481D01*
Y67980D01*
Y68012D01*
X90416D01*
Y67980D01*
Y67947D01*
Y67915D01*
X90448D01*
Y67882D01*
Y67849D01*
Y67817D01*
X90481D01*
Y67784D01*
Y67752D01*
Y67719D01*
X90514D01*
Y67687D01*
Y67654D01*
Y67621D01*
X90546D01*
Y67589D01*
Y67556D01*
Y67524D01*
X90579D01*
Y67491D01*
Y67459D01*
Y67426D01*
X90611D01*
Y67393D01*
Y67361D01*
Y67328D01*
Y67296D01*
X90644D01*
Y67263D01*
Y67230D01*
Y67198D01*
X90676D01*
Y67165D01*
Y67133D01*
Y67100D01*
Y67068D01*
X90709D01*
Y67035D01*
Y67002D01*
Y66970D01*
X90742D01*
Y66937D01*
Y66905D01*
Y66872D01*
Y66840D01*
X90774D01*
Y66807D01*
Y66774D01*
Y66742D01*
X90807D01*
Y66709D01*
Y66677D01*
Y66644D01*
Y66612D01*
X90839D01*
Y66579D01*
Y66546D01*
Y66514D01*
Y66481D01*
X90872D01*
Y66449D01*
Y66416D01*
Y66383D01*
Y66351D01*
X90904D01*
Y66318D01*
Y66286D01*
Y66253D01*
X90937D01*
Y66221D01*
Y66188D01*
Y66155D01*
Y66123D01*
X90970D01*
Y66090D01*
Y66058D01*
Y66025D01*
Y65993D01*
X91002D01*
Y65960D01*
Y65927D01*
Y65895D01*
Y65862D01*
X91035D01*
Y65830D01*
Y65797D01*
Y65765D01*
Y65732D01*
Y65699D01*
X91067D01*
Y65667D01*
Y65634D01*
Y65602D01*
Y65569D01*
X91100D01*
Y65536D01*
Y65504D01*
Y65471D01*
Y65439D01*
X91133D01*
Y65406D01*
Y65374D01*
Y65341D01*
Y65308D01*
X91165D01*
Y65276D01*
Y65243D01*
Y65211D01*
Y65178D01*
Y65146D01*
X91198D01*
Y65113D01*
Y65080D01*
Y65048D01*
Y65015D01*
X91230D01*
Y64983D01*
Y64950D01*
Y64918D01*
Y64885D01*
Y64852D01*
X91263D01*
Y64820D01*
Y64787D01*
Y64755D01*
Y64722D01*
Y64689D01*
X91295D01*
Y64657D01*
Y64624D01*
Y64592D01*
Y64559D01*
Y64527D01*
X91328D01*
Y64494D01*
Y64461D01*
Y64429D01*
Y64396D01*
Y64364D01*
Y64331D01*
Y64299D01*
X91361D01*
Y64266D01*
Y64233D01*
Y64201D01*
Y64168D01*
X91328D01*
Y64201D01*
Y64233D01*
Y64266D01*
X91295D01*
Y64299D01*
Y64331D01*
X91263D01*
Y64364D01*
Y64396D01*
Y64429D01*
X91230D01*
Y64461D01*
Y64494D01*
Y64527D01*
X91198D01*
Y64559D01*
Y64592D01*
Y64624D01*
X91165D01*
Y64657D01*
Y64689D01*
Y64722D01*
X91133D01*
Y64755D01*
Y64787D01*
Y64820D01*
Y64852D01*
X91100D01*
Y64885D01*
Y64918D01*
Y64950D01*
X91067D01*
Y64983D01*
Y65015D01*
Y65048D01*
Y65080D01*
X91035D01*
Y65113D01*
Y65146D01*
Y65178D01*
X91002D01*
Y65211D01*
Y65243D01*
Y65276D01*
X90970D01*
Y65308D01*
Y65341D01*
Y65374D01*
Y65406D01*
X90937D01*
Y65439D01*
Y65471D01*
Y65504D01*
Y65536D01*
X90904D01*
Y65569D01*
Y65602D01*
Y65634D01*
Y65667D01*
X90872D01*
Y65699D01*
Y65732D01*
Y65765D01*
X90839D01*
Y65797D01*
Y65830D01*
Y65862D01*
Y65895D01*
X90807D01*
Y65927D01*
Y65960D01*
Y65993D01*
Y66025D01*
X90774D01*
Y66058D01*
Y66090D01*
Y66123D01*
Y66155D01*
X90742D01*
Y66188D01*
Y66221D01*
Y66253D01*
Y66286D01*
X90709D01*
Y66318D01*
Y66351D01*
Y66383D01*
Y66416D01*
X90676D01*
Y66449D01*
Y66481D01*
Y66514D01*
Y66546D01*
X90644D01*
Y66579D01*
Y66612D01*
Y66644D01*
Y66677D01*
Y66709D01*
X90611D01*
Y66742D01*
Y66774D01*
Y66807D01*
Y66840D01*
X90579D01*
Y66872D01*
Y66905D01*
Y66937D01*
Y66970D01*
X90546D01*
Y67002D01*
Y67035D01*
Y67068D01*
Y67100D01*
Y67133D01*
X90514D01*
Y67165D01*
Y67198D01*
Y67230D01*
Y67263D01*
X90481D01*
Y67296D01*
Y67328D01*
Y67361D01*
Y67393D01*
Y67426D01*
X90448D01*
Y67459D01*
Y67491D01*
Y67524D01*
Y67556D01*
Y67589D01*
Y67621D01*
X90416D01*
Y67654D01*
Y67687D01*
Y67719D01*
Y67752D01*
Y67784D01*
X90383D01*
Y67817D01*
Y67849D01*
Y67882D01*
Y67915D01*
Y67947D01*
Y67980D01*
X90318D01*
Y67947D01*
X90253D01*
Y67915D01*
X90188D01*
Y67882D01*
X90123D01*
Y67849D01*
X90057D01*
Y67817D01*
X89960D01*
Y67784D01*
X89895D01*
Y67752D01*
X89829D01*
Y67719D01*
X89764D01*
Y67687D01*
X89667D01*
Y67654D01*
X89634D01*
Y67621D01*
Y67589D01*
Y67556D01*
Y67524D01*
Y67491D01*
Y67459D01*
Y67426D01*
Y67393D01*
Y67361D01*
Y67328D01*
Y67296D01*
Y67263D01*
Y67230D01*
Y67198D01*
Y67165D01*
Y67133D01*
Y67100D01*
Y67068D01*
Y67035D01*
Y67002D01*
X89667D01*
Y66970D01*
Y66937D01*
Y66905D01*
Y66872D01*
Y66840D01*
Y66807D01*
X89699D01*
Y66774D01*
Y66742D01*
Y66709D01*
Y66677D01*
Y66644D01*
Y66612D01*
X89732D01*
Y66579D01*
Y66546D01*
Y66514D01*
Y66481D01*
Y66449D01*
X89764D01*
Y66416D01*
Y66383D01*
Y66351D01*
Y66318D01*
X89797D01*
Y66286D01*
Y66253D01*
Y66221D01*
X89829D01*
Y66188D01*
Y66155D01*
Y66123D01*
Y66090D01*
X89862D01*
Y66058D01*
Y66025D01*
Y65993D01*
X89895D01*
Y65960D01*
Y65927D01*
Y65895D01*
X89927D01*
Y65862D01*
Y65830D01*
Y65797D01*
X89960D01*
Y65765D01*
Y65732D01*
Y65699D01*
X89992D01*
Y65667D01*
Y65634D01*
X90025D01*
Y65602D01*
Y65569D01*
Y65536D01*
X90057D01*
Y65504D01*
Y65471D01*
X90090D01*
Y65439D01*
Y65406D01*
Y65374D01*
X90123D01*
Y65341D01*
Y65308D01*
X90155D01*
Y65276D01*
Y65243D01*
X90188D01*
Y65211D01*
Y65178D01*
X90220D01*
Y65146D01*
Y65113D01*
Y65080D01*
X90253D01*
Y65048D01*
Y65015D01*
X90286D01*
Y64983D01*
Y64950D01*
X90318D01*
Y64918D01*
Y64885D01*
X90351D01*
Y64852D01*
X90383D01*
Y64820D01*
Y64787D01*
X90416D01*
Y64755D01*
Y64722D01*
X90448D01*
Y64689D01*
Y64657D01*
X90481D01*
Y64624D01*
Y64592D01*
X90514D01*
Y64559D01*
X90546D01*
Y64527D01*
Y64494D01*
X90579D01*
Y64461D01*
Y64429D01*
X90611D01*
Y64396D01*
X90644D01*
Y64364D01*
Y64331D01*
X90676D01*
Y64299D01*
X90709D01*
Y64266D01*
Y64233D01*
X90742D01*
Y64201D01*
X90774D01*
Y64168D01*
Y64136D01*
X90807D01*
Y64103D01*
X90839D01*
Y64071D01*
X90872D01*
Y64038D01*
Y64005D01*
X90904D01*
Y63973D01*
X90937D01*
Y63940D01*
X90970D01*
Y63908D01*
X91002D01*
Y63875D01*
Y63842D01*
X91035D01*
Y63810D01*
X91067D01*
Y63777D01*
X91100D01*
Y63745D01*
X91133D01*
Y63712D01*
X91165D01*
Y63680D01*
X91198D01*
Y63647D01*
X91230D01*
Y63614D01*
Y63582D01*
X91263D01*
Y63549D01*
X91328D01*
Y63517D01*
X91361D01*
Y63484D01*
X91393D01*
Y63452D01*
X91426D01*
Y63419D01*
X91458D01*
Y63386D01*
X91491D01*
Y63354D01*
X91523D01*
Y63321D01*
X91556D01*
Y63289D01*
X91621D01*
Y63256D01*
X91654D01*
Y63224D01*
X91719D01*
Y63191D01*
X91751D01*
Y63158D01*
X91817D01*
Y63126D01*
X91849D01*
Y63093D01*
X91914D01*
Y63061D01*
X92012D01*
Y63028D01*
X92077D01*
Y62995D01*
X92208D01*
Y62963D01*
X92501D01*
Y62995D01*
X92631D01*
Y63028D01*
X92696D01*
Y63061D01*
X92729D01*
Y63093D01*
X92761D01*
Y63126D01*
X92794D01*
Y63158D01*
X92827D01*
Y63191D01*
X92859D01*
Y63224D01*
X92892D01*
Y63256D01*
Y63289D01*
X92924D01*
Y63321D01*
Y63354D01*
X92957D01*
Y63386D01*
Y63419D01*
X92989D01*
Y63452D01*
Y63484D01*
Y63517D01*
X93022D01*
Y63549D01*
Y63582D01*
Y63614D01*
Y63647D01*
X93055D01*
Y63680D01*
Y63712D01*
Y63745D01*
Y63777D01*
Y63810D01*
Y63842D01*
X93087D01*
Y63875D01*
Y63908D01*
Y63940D01*
Y63973D01*
Y64005D01*
Y64038D01*
Y64071D01*
Y64103D01*
Y64136D01*
Y64168D01*
Y64201D01*
Y64233D01*
Y64266D01*
Y64299D01*
Y64331D01*
Y64364D01*
Y64396D01*
Y64429D01*
Y64461D01*
Y64494D01*
Y64527D01*
X93055D01*
Y64559D01*
Y64592D01*
Y64624D01*
Y64657D01*
Y64689D01*
Y64722D01*
Y64755D01*
Y64787D01*
X93022D01*
Y64820D01*
Y64852D01*
Y64885D01*
Y64918D01*
Y64950D01*
Y64983D01*
X92989D01*
Y65015D01*
Y65048D01*
Y65080D01*
Y65113D01*
Y65146D01*
X92957D01*
Y65178D01*
Y65211D01*
Y65243D01*
Y65276D01*
X92924D01*
Y65308D01*
Y65341D01*
Y65374D01*
Y65406D01*
X92892D01*
Y65439D01*
Y65471D01*
Y65504D01*
X92859D01*
Y65536D01*
Y65569D01*
Y65602D01*
X92827D01*
Y65634D01*
Y65667D01*
Y65699D01*
Y65732D01*
X92794D01*
Y65765D01*
Y65797D01*
Y65830D01*
X92761D01*
Y65862D01*
Y65895D01*
X92729D01*
Y65927D01*
Y65960D01*
Y65993D01*
X92696D01*
Y66025D01*
Y66058D01*
Y66090D01*
X92664D01*
Y66123D01*
Y66155D01*
X92631D01*
Y66188D01*
Y66221D01*
X92599D01*
Y66253D01*
Y66286D01*
Y66318D01*
X92566D01*
Y66351D01*
Y66383D01*
X92533D01*
Y66416D01*
Y66449D01*
X92501D01*
Y66481D01*
Y66514D01*
X92468D01*
Y66546D01*
Y66579D01*
X92436D01*
Y66612D01*
Y66644D01*
X92403D01*
Y66677D01*
Y66709D01*
X92370D01*
Y66742D01*
Y66774D01*
X92338D01*
Y66807D01*
Y66840D01*
X92305D01*
Y66872D01*
Y66905D01*
X92273D01*
Y66937D01*
Y66970D01*
X92240D01*
Y67002D01*
X92208D01*
Y67035D01*
Y67068D01*
X92175D01*
Y67100D01*
Y67133D01*
X92142D01*
Y67165D01*
X92110D01*
Y67198D01*
Y67230D01*
X92077D01*
Y67263D01*
X92045D01*
Y67296D01*
Y67328D01*
X92012D01*
Y67361D01*
Y67393D01*
X91980D01*
Y67426D01*
X91947D01*
Y67459D01*
X91914D01*
Y67491D01*
Y67524D01*
X91882D01*
Y67556D01*
X91849D01*
Y67589D01*
Y67621D01*
X91817D01*
Y67654D01*
X91784D01*
Y67687D01*
X91751D01*
Y67719D01*
X91719D01*
Y67752D01*
Y67784D01*
X91686D01*
Y67817D01*
X91654D01*
Y67849D01*
X91621D01*
Y67882D01*
X91589D01*
Y67915D01*
X91556D01*
Y67947D01*
X91523D01*
Y67980D01*
X91491D01*
Y68012D01*
X91458D01*
Y68045D01*
X91426D01*
Y68077D01*
X91393D01*
Y68110D01*
X91361D01*
Y68143D01*
X91328D01*
Y68175D01*
X91295D01*
Y68208D01*
X91263D01*
Y68240D01*
X91230D01*
Y68273D01*
X91198D01*
Y68306D01*
D02*
G37*
G36*
X85301Y68273D02*
X85203D01*
Y68240D01*
X85138D01*
Y68208D01*
X85106D01*
Y68175D01*
X85073D01*
Y68143D01*
X85041D01*
Y68110D01*
X85008D01*
Y68077D01*
X84975D01*
Y68045D01*
X84943D01*
Y68012D01*
X84910D01*
Y67980D01*
X84878D01*
Y67947D01*
X84845D01*
Y67915D01*
X84813D01*
Y67882D01*
X84780D01*
Y67849D01*
X84747D01*
Y67817D01*
X84715D01*
Y67784D01*
Y67752D01*
X84682D01*
Y67719D01*
X84650D01*
Y67687D01*
X84617D01*
Y67654D01*
X84585D01*
Y67621D01*
Y67589D01*
X84552D01*
Y67556D01*
X84519D01*
Y67524D01*
X84487D01*
Y67491D01*
Y67459D01*
X84454D01*
Y67426D01*
X84422D01*
Y67393D01*
X84389D01*
Y67361D01*
Y67328D01*
X84357D01*
Y67296D01*
X84324D01*
Y67263D01*
Y67230D01*
X84291D01*
Y67198D01*
Y67165D01*
X84259D01*
Y67133D01*
X84226D01*
Y67100D01*
Y67068D01*
X84194D01*
Y67035D01*
X84161D01*
Y67002D01*
Y66970D01*
X84128D01*
Y66937D01*
Y66905D01*
X84096D01*
Y66872D01*
Y66840D01*
X84063D01*
Y66807D01*
Y66774D01*
X84031D01*
Y66742D01*
X83998D01*
Y66709D01*
Y66677D01*
X83966D01*
Y66644D01*
Y66612D01*
X83933D01*
Y66579D01*
Y66546D01*
X83900D01*
Y66514D01*
Y66481D01*
X83868D01*
Y66449D01*
Y66416D01*
X83835D01*
Y66383D01*
Y66351D01*
Y66318D01*
X83803D01*
Y66286D01*
Y66253D01*
X83770D01*
Y66221D01*
Y66188D01*
X83738D01*
Y66155D01*
Y66123D01*
Y66090D01*
X83705D01*
Y66058D01*
Y66025D01*
X83672D01*
Y65993D01*
Y65960D01*
Y65927D01*
X83640D01*
Y65895D01*
Y65862D01*
X83607D01*
Y65830D01*
Y65797D01*
Y65765D01*
X83575D01*
Y65732D01*
Y65699D01*
Y65667D01*
X83542D01*
Y65634D01*
Y65602D01*
Y65569D01*
X83510D01*
Y65536D01*
Y65504D01*
Y65471D01*
X83477D01*
Y65439D01*
Y65406D01*
Y65374D01*
Y65341D01*
X83444D01*
Y65308D01*
Y65276D01*
Y65243D01*
Y65211D01*
X83412D01*
Y65178D01*
Y65146D01*
Y65113D01*
Y65080D01*
X83379D01*
Y65048D01*
Y65015D01*
Y64983D01*
Y64950D01*
Y64918D01*
X83347D01*
Y64885D01*
Y64852D01*
Y64820D01*
Y64787D01*
Y64755D01*
Y64722D01*
X83314D01*
Y64689D01*
Y64657D01*
Y64624D01*
Y64592D01*
Y64559D01*
Y64527D01*
Y64494D01*
Y64461D01*
X83281D01*
Y64429D01*
Y64396D01*
Y64364D01*
Y64331D01*
Y64299D01*
Y64266D01*
Y64233D01*
Y64201D01*
Y64168D01*
Y64136D01*
Y64103D01*
Y64071D01*
Y64038D01*
Y64005D01*
Y63973D01*
Y63940D01*
Y63908D01*
Y63875D01*
Y63842D01*
X83314D01*
Y63810D01*
Y63777D01*
Y63745D01*
Y63712D01*
Y63680D01*
Y63647D01*
Y63614D01*
X83347D01*
Y63582D01*
Y63549D01*
Y63517D01*
Y63484D01*
X83379D01*
Y63452D01*
Y63419D01*
Y63386D01*
X83412D01*
Y63354D01*
Y63321D01*
X83444D01*
Y63289D01*
Y63256D01*
X83477D01*
Y63224D01*
Y63191D01*
X83510D01*
Y63158D01*
X83542D01*
Y63126D01*
X83575D01*
Y63093D01*
X83607D01*
Y63061D01*
X83640D01*
Y63028D01*
X83672D01*
Y62995D01*
X83738D01*
Y62963D01*
X83835D01*
Y62930D01*
X84194D01*
Y62963D01*
X84324D01*
Y62995D01*
X84389D01*
Y63028D01*
X84454D01*
Y63061D01*
X84519D01*
Y63093D01*
X84585D01*
Y63126D01*
X84650D01*
Y63158D01*
X84682D01*
Y63191D01*
X84715D01*
Y63224D01*
X84780D01*
Y63256D01*
X84813D01*
Y63289D01*
X84845D01*
Y63321D01*
X84878D01*
Y63354D01*
X84943D01*
Y63386D01*
X84975D01*
Y63419D01*
X85008D01*
Y63452D01*
X85041D01*
Y63484D01*
X85073D01*
Y63517D01*
X85106D01*
Y63549D01*
X85138D01*
Y63582D01*
X85171D01*
Y63614D01*
X85203D01*
Y63647D01*
X85236D01*
Y63680D01*
X85269D01*
Y63712D01*
X85301D01*
Y63745D01*
Y63777D01*
X85334D01*
Y63810D01*
X85366D01*
Y63842D01*
X85399D01*
Y63875D01*
X85432D01*
Y63908D01*
Y63940D01*
X85464D01*
Y63973D01*
X85497D01*
Y64005D01*
X85529D01*
Y64038D01*
Y64071D01*
X85562D01*
Y64103D01*
X85594D01*
Y64136D01*
X85627D01*
Y64168D01*
Y64201D01*
X85660D01*
Y64233D01*
X85692D01*
Y64266D01*
Y64299D01*
X85725D01*
Y64331D01*
X85757D01*
Y64364D01*
Y64396D01*
X85790D01*
Y64429D01*
Y64461D01*
X85822D01*
Y64494D01*
X85855D01*
Y64527D01*
Y64559D01*
X85888D01*
Y64592D01*
Y64624D01*
X85920D01*
Y64657D01*
X85953D01*
Y64689D01*
Y64722D01*
X85985D01*
Y64755D01*
Y64787D01*
X86018D01*
Y64820D01*
Y64852D01*
X86051D01*
Y64885D01*
Y64918D01*
X86083D01*
Y64950D01*
Y64983D01*
X86116D01*
Y65015D01*
Y65048D01*
X86148D01*
Y65080D01*
Y65113D01*
X86181D01*
Y65146D01*
Y65178D01*
X86213D01*
Y65211D01*
Y65243D01*
X86246D01*
Y65276D01*
Y65308D01*
Y65341D01*
X86279D01*
Y65374D01*
Y65406D01*
X86311D01*
Y65439D01*
Y65471D01*
X86344D01*
Y65504D01*
Y65536D01*
Y65569D01*
X86376D01*
Y65602D01*
Y65634D01*
Y65667D01*
X86409D01*
Y65699D01*
Y65732D01*
X86441D01*
Y65765D01*
Y65797D01*
Y65830D01*
X86474D01*
Y65862D01*
Y65895D01*
Y65927D01*
X86507D01*
Y65960D01*
Y65993D01*
Y66025D01*
X86539D01*
Y66058D01*
Y66090D01*
Y66123D01*
Y66155D01*
X86572D01*
Y66188D01*
Y66221D01*
Y66253D01*
Y66286D01*
X86604D01*
Y66318D01*
Y66351D01*
Y66383D01*
X86637D01*
Y66416D01*
Y66449D01*
Y66481D01*
Y66514D01*
Y66546D01*
X86669D01*
Y66579D01*
Y66612D01*
Y66644D01*
Y66677D01*
Y66709D01*
X86702D01*
Y66742D01*
Y66774D01*
Y66807D01*
Y66840D01*
Y66872D01*
Y66905D01*
Y66937D01*
X86735D01*
Y66970D01*
Y67002D01*
Y67035D01*
Y67068D01*
Y67100D01*
Y67133D01*
Y67165D01*
Y67198D01*
Y67230D01*
Y67263D01*
Y67296D01*
Y67328D01*
Y67361D01*
Y67393D01*
Y67426D01*
Y67459D01*
Y67491D01*
Y67524D01*
Y67556D01*
Y67589D01*
Y67621D01*
X86669D01*
Y67654D01*
X86604D01*
Y67687D01*
X86539D01*
Y67719D01*
X86474D01*
Y67752D01*
X86376D01*
Y67784D01*
X86311D01*
Y67817D01*
X86246D01*
Y67849D01*
X86181D01*
Y67882D01*
X86083D01*
Y67915D01*
X86018D01*
Y67947D01*
X85953D01*
Y67980D01*
X85920D01*
Y67947D01*
X85888D01*
Y67980D01*
Y68012D01*
X85790D01*
Y68045D01*
X85725D01*
Y68077D01*
X85660D01*
Y68110D01*
X85594D01*
Y68143D01*
X85529D01*
Y68175D01*
X85432D01*
Y68208D01*
X85366D01*
Y68240D01*
X85301D01*
Y68273D01*
D02*
G37*
%LPD*%
G36*
X89406Y75179D02*
X89439D01*
Y75147D01*
X89471D01*
Y75114D01*
Y75082D01*
X89504D01*
Y75049D01*
Y75016D01*
X89536D01*
Y74984D01*
Y74951D01*
Y74919D01*
Y74886D01*
X90220D01*
Y74854D01*
X90286D01*
Y74821D01*
X90318D01*
Y74788D01*
X90383D01*
Y74756D01*
X90416D01*
Y74723D01*
X90448D01*
Y74691D01*
X90481D01*
Y74658D01*
X90514D01*
Y74625D01*
X90579D01*
Y74593D01*
X90611D01*
Y74560D01*
X90644D01*
Y74528D01*
X90676D01*
Y74495D01*
X90774D01*
Y74463D01*
X90839D01*
Y74430D01*
X90872D01*
Y74397D01*
X90904D01*
Y74365D01*
X90937D01*
Y74332D01*
Y74300D01*
Y74267D01*
Y74235D01*
Y74202D01*
Y74169D01*
X90904D01*
Y74137D01*
X90872D01*
Y74104D01*
X90839D01*
Y74072D01*
X90774D01*
Y74039D01*
X90676D01*
Y74072D01*
X90611D01*
Y74104D01*
X90579D01*
Y74137D01*
X90546D01*
Y74169D01*
Y74202D01*
X90514D01*
Y74235D01*
Y74267D01*
Y74300D01*
Y74332D01*
Y74365D01*
X90481D01*
Y74397D01*
X90448D01*
Y74430D01*
X90416D01*
Y74463D01*
X90383D01*
Y74495D01*
X90351D01*
Y74528D01*
X90286D01*
Y74560D01*
X90253D01*
Y74593D01*
X90220D01*
Y74625D01*
X90188D01*
Y74658D01*
X89536D01*
Y74625D01*
Y74593D01*
X89504D01*
Y74560D01*
Y74528D01*
Y74495D01*
X89471D01*
Y74463D01*
X89439D01*
Y74430D01*
X89406D01*
Y74397D01*
X87288D01*
Y74430D01*
X87256D01*
Y74463D01*
X87223D01*
Y74495D01*
X87191D01*
Y74528D01*
Y74560D01*
Y74593D01*
X87158D01*
Y74625D01*
Y74658D01*
Y74691D01*
X86409D01*
Y74658D01*
X86376D01*
Y74625D01*
X86344D01*
Y74593D01*
X86311D01*
Y74560D01*
X86246D01*
Y74528D01*
X86213D01*
Y74495D01*
X86181D01*
Y74463D01*
X86148D01*
Y74430D01*
X86116D01*
Y74397D01*
X86051D01*
Y74365D01*
X86018D01*
Y74332D01*
X85985D01*
Y74300D01*
X85953D01*
Y74267D01*
X85855D01*
Y74235D01*
Y74202D01*
Y74169D01*
Y74137D01*
Y74104D01*
X85822D01*
Y74072D01*
X85790D01*
Y74039D01*
X85725D01*
Y74007D01*
X85562D01*
Y74039D01*
X85497D01*
Y74072D01*
Y74104D01*
X85464D01*
Y74137D01*
X85432D01*
Y74169D01*
Y74202D01*
Y74235D01*
Y74267D01*
Y74300D01*
X85464D01*
Y74332D01*
X85497D01*
Y74365D01*
X85529D01*
Y74397D01*
X85562D01*
Y74430D01*
X85790D01*
Y74463D01*
X85822D01*
Y74495D01*
X85855D01*
Y74528D01*
X85920D01*
Y74560D01*
X85953D01*
Y74593D01*
X85985D01*
Y74625D01*
X86018D01*
Y74658D01*
X86051D01*
Y74691D01*
X86116D01*
Y74723D01*
X86148D01*
Y74756D01*
X86181D01*
Y74788D01*
X86213D01*
Y74821D01*
X86279D01*
Y74854D01*
X86311D01*
Y74886D01*
X86376D01*
Y74919D01*
X87158D01*
Y74951D01*
Y74984D01*
Y75016D01*
X87191D01*
Y75049D01*
Y75082D01*
X87223D01*
Y75114D01*
Y75147D01*
X87256D01*
Y75179D01*
X87288D01*
Y75212D01*
X87419D01*
Y75179D01*
X89276D01*
Y75212D01*
X89406D01*
Y75179D01*
D02*
G37*
G36*
X88885Y73713D02*
Y73681D01*
Y73648D01*
X88917D01*
Y73616D01*
Y73583D01*
Y73550D01*
Y73518D01*
Y73485D01*
X89080D01*
Y73518D01*
X89113D01*
Y73550D01*
Y73583D01*
X89145D01*
Y73616D01*
X89178D01*
Y73648D01*
X89210D01*
Y73681D01*
X89276D01*
Y73648D01*
Y73616D01*
Y73583D01*
X89308D01*
Y73550D01*
Y73518D01*
X89276D01*
Y73485D01*
Y73453D01*
Y73420D01*
Y73388D01*
X89341D01*
Y73355D01*
X89439D01*
Y73388D01*
X89471D01*
Y73420D01*
X89504D01*
Y73453D01*
X89536D01*
Y73485D01*
X89601D01*
Y73518D01*
X89634D01*
Y73485D01*
X89667D01*
Y73453D01*
Y73420D01*
Y73388D01*
X89634D01*
Y73355D01*
Y73322D01*
Y73290D01*
X89601D01*
Y73257D01*
Y73225D01*
Y73192D01*
X89634D01*
Y73160D01*
X89667D01*
Y73127D01*
X89732D01*
Y73160D01*
X89764D01*
Y73192D01*
X89829D01*
Y73225D01*
X89927D01*
Y73257D01*
X89960D01*
Y73225D01*
X89992D01*
Y73192D01*
X89960D01*
Y73160D01*
Y73127D01*
X89927D01*
Y73094D01*
Y73062D01*
X89895D01*
Y73029D01*
X89862D01*
Y72997D01*
Y72964D01*
Y72931D01*
X89895D01*
Y72899D01*
X89927D01*
Y72866D01*
X90025D01*
Y72899D01*
X90220D01*
Y72866D01*
Y72834D01*
X90188D01*
Y72801D01*
X90155D01*
Y72769D01*
X90123D01*
Y72736D01*
X90090D01*
Y72703D01*
X90057D01*
Y72671D01*
Y72638D01*
Y72606D01*
Y72573D01*
X90090D01*
Y72541D01*
X90351D01*
Y72508D01*
X90383D01*
Y72475D01*
Y72443D01*
X90318D01*
Y72410D01*
X90286D01*
Y72378D01*
X90220D01*
Y72345D01*
X90155D01*
Y72313D01*
Y72280D01*
Y72247D01*
Y72215D01*
Y72182D01*
X90220D01*
Y72150D01*
X90351D01*
Y72117D01*
X90416D01*
Y72084D01*
Y72052D01*
Y72019D01*
X90351D01*
Y71987D01*
X90155D01*
Y71954D01*
Y71922D01*
Y71889D01*
Y71856D01*
Y71824D01*
Y71791D01*
X90220D01*
Y71759D01*
X90286D01*
Y71726D01*
X90318D01*
Y71694D01*
X90383D01*
Y71661D01*
X90351D01*
Y71628D01*
Y71596D01*
X90123D01*
Y71628D01*
X90090D01*
Y71596D01*
Y71563D01*
X90057D01*
Y71531D01*
Y71498D01*
Y71466D01*
Y71433D01*
X90090D01*
Y71400D01*
X90155D01*
Y71368D01*
Y71335D01*
X90188D01*
Y71303D01*
X90220D01*
Y71270D01*
Y71237D01*
X90025D01*
Y71270D01*
X89895D01*
Y71237D01*
Y71205D01*
X89862D01*
Y71172D01*
Y71140D01*
Y71107D01*
X89895D01*
Y71075D01*
X89927D01*
Y71042D01*
Y71009D01*
X89960D01*
Y70977D01*
Y70944D01*
Y70912D01*
X89829D01*
Y70944D01*
X89797D01*
Y70977D01*
X89732D01*
Y71009D01*
X89667D01*
Y70977D01*
X89634D01*
Y70944D01*
X89601D01*
Y70912D01*
Y70879D01*
Y70847D01*
X89634D01*
Y70814D01*
Y70781D01*
Y70749D01*
X89667D01*
Y70716D01*
Y70684D01*
Y70651D01*
X89634D01*
Y70619D01*
X89601D01*
Y70651D01*
X89536D01*
Y70684D01*
X89504D01*
Y70716D01*
X89471D01*
Y70749D01*
X89439D01*
Y70781D01*
X89341D01*
Y70749D01*
X89276D01*
Y70716D01*
Y70684D01*
Y70651D01*
Y70619D01*
X89308D01*
Y70586D01*
Y70553D01*
X89276D01*
Y70521D01*
Y70488D01*
Y70456D01*
X89210D01*
Y70488D01*
X89178D01*
Y70521D01*
X89145D01*
Y70553D01*
X89113D01*
Y70586D01*
Y70619D01*
X89080D01*
Y70651D01*
Y70684D01*
X89048D01*
Y70651D01*
X88917D01*
Y70619D01*
Y70586D01*
Y70553D01*
Y70521D01*
Y70488D01*
X88885D01*
Y70456D01*
Y70423D01*
Y70390D01*
X88787D01*
Y70423D01*
Y70456D01*
X88754D01*
Y70488D01*
Y70521D01*
X88722D01*
Y70553D01*
Y70586D01*
Y70619D01*
X88592D01*
Y70651D01*
X88559D01*
Y70619D01*
Y70586D01*
X88526D01*
Y70553D01*
Y70521D01*
X88494D01*
Y70488D01*
Y70456D01*
X88461D01*
Y70423D01*
X88429D01*
Y70390D01*
X88396D01*
Y70423D01*
X88363D01*
Y70456D01*
Y70488D01*
Y70521D01*
Y70553D01*
Y70586D01*
Y70619D01*
Y70651D01*
Y70684D01*
X88298D01*
Y70716D01*
X88201D01*
Y70684D01*
X88168D01*
Y70651D01*
X88135D01*
Y70619D01*
X88103D01*
Y70586D01*
X88070D01*
Y70553D01*
X88038D01*
Y70521D01*
X88005D01*
Y70553D01*
X87973D01*
Y70586D01*
Y70619D01*
Y70651D01*
Y70684D01*
X88005D01*
Y70716D01*
Y70749D01*
Y70781D01*
Y70814D01*
Y70847D01*
X87940D01*
Y70879D01*
X87842D01*
Y70847D01*
X87810D01*
Y70814D01*
X87777D01*
Y70781D01*
X87712D01*
Y70749D01*
X87647D01*
Y70781D01*
X87614D01*
Y70814D01*
X87647D01*
Y70847D01*
Y70879D01*
Y70912D01*
X87679D01*
Y70944D01*
Y70977D01*
X87712D01*
Y71009D01*
X87745D01*
Y71042D01*
X87712D01*
Y71075D01*
X87679D01*
Y71107D01*
X87647D01*
Y71140D01*
X87582D01*
Y71107D01*
X87516D01*
Y71075D01*
X87419D01*
Y71042D01*
X87386D01*
Y71075D01*
X87354D01*
Y71107D01*
Y71140D01*
X87386D01*
Y71172D01*
Y71205D01*
X87419D01*
Y71237D01*
X87451D01*
Y71270D01*
X87484D01*
Y71303D01*
Y71335D01*
Y71368D01*
X87451D01*
Y71400D01*
Y71433D01*
X87321D01*
Y71400D01*
X87158D01*
Y71433D01*
Y71466D01*
Y71498D01*
X87191D01*
Y71531D01*
X87223D01*
Y71563D01*
X87256D01*
Y71596D01*
X87321D01*
Y71628D01*
X87354D01*
Y71661D01*
Y71694D01*
X87321D01*
Y71726D01*
Y71759D01*
Y71791D01*
X87126D01*
Y71824D01*
X87060D01*
Y71856D01*
Y71889D01*
Y71922D01*
X87028D01*
Y71889D01*
X86930D01*
Y71856D01*
Y71824D01*
Y71791D01*
Y71759D01*
X86963D01*
Y71726D01*
X87093D01*
Y71694D01*
X87158D01*
Y71661D01*
Y71628D01*
X87126D01*
Y71596D01*
X87028D01*
Y71563D01*
X86963D01*
Y71531D01*
X86930D01*
Y71498D01*
Y71466D01*
Y71433D01*
X86963D01*
Y71400D01*
X87028D01*
Y71368D01*
X87093D01*
Y71335D01*
X87126D01*
Y71303D01*
Y71270D01*
X86898D01*
Y71237D01*
X86865D01*
Y71205D01*
Y71172D01*
X86832D01*
Y71140D01*
X86865D01*
Y71107D01*
X86898D01*
Y71075D01*
X86930D01*
Y71042D01*
X86963D01*
Y71009D01*
X86995D01*
Y70977D01*
Y70944D01*
X86865D01*
Y70977D01*
X86800D01*
Y71009D01*
X86767D01*
Y70977D01*
X86735D01*
Y70944D01*
X86702D01*
Y70912D01*
X86669D01*
Y70879D01*
X86702D01*
Y70847D01*
X86735D01*
Y70814D01*
Y70781D01*
X86767D01*
Y70749D01*
Y70716D01*
X86800D01*
Y70684D01*
X86767D01*
Y70651D01*
X86735D01*
Y70684D01*
X86669D01*
Y70716D01*
X86604D01*
Y70749D01*
X86507D01*
Y70716D01*
X86474D01*
Y70684D01*
Y70651D01*
Y70619D01*
X86507D01*
Y70586D01*
Y70553D01*
Y70521D01*
Y70488D01*
X86539D01*
Y70456D01*
X86441D01*
Y70488D01*
X86409D01*
Y70521D01*
X86376D01*
Y70553D01*
X86344D01*
Y70586D01*
X86279D01*
Y70553D01*
X86213D01*
Y70521D01*
Y70488D01*
Y70456D01*
Y70423D01*
Y70390D01*
Y70358D01*
Y70325D01*
Y70293D01*
X86148D01*
Y70325D01*
X86116D01*
Y70358D01*
X86083D01*
Y70390D01*
Y70423D01*
X86051D01*
Y70456D01*
Y70488D01*
X85985D01*
Y70456D01*
X85888D01*
Y70423D01*
Y70390D01*
Y70358D01*
Y70325D01*
Y70293D01*
Y70260D01*
X85855D01*
Y70228D01*
X85790D01*
Y70260D01*
Y70293D01*
Y70325D01*
X85757D01*
Y70358D01*
Y70390D01*
Y70423D01*
Y70456D01*
X85594D01*
Y70423D01*
Y70390D01*
X85562D01*
Y70358D01*
Y70325D01*
X85529D01*
Y70293D01*
Y70260D01*
X85464D01*
Y70293D01*
X85432D01*
Y70325D01*
Y70358D01*
Y70390D01*
Y70423D01*
Y70456D01*
Y70488D01*
X85366D01*
Y70521D01*
X85301D01*
Y70488D01*
X85269D01*
Y70456D01*
X85236D01*
Y70423D01*
X85203D01*
Y70390D01*
X85171D01*
Y70358D01*
X85138D01*
Y70390D01*
X85106D01*
Y70423D01*
Y70456D01*
Y70488D01*
X85138D01*
Y70521D01*
Y70553D01*
Y70586D01*
Y70619D01*
X85106D01*
Y70651D01*
X85008D01*
Y70619D01*
X84975D01*
Y70586D01*
X84910D01*
Y70553D01*
X84845D01*
Y70586D01*
Y70619D01*
Y70651D01*
Y70684D01*
X84878D01*
Y70716D01*
Y70749D01*
X84910D01*
Y70781D01*
Y70814D01*
X84878D01*
Y70847D01*
X84845D01*
Y70879D01*
X84780D01*
Y70847D01*
X84715D01*
Y70814D01*
X84585D01*
Y70847D01*
Y70879D01*
X84617D01*
Y70912D01*
X84650D01*
Y70944D01*
X84682D01*
Y70977D01*
X84715D01*
Y71009D01*
Y71042D01*
Y71075D01*
X84682D01*
Y71107D01*
X84650D01*
Y71140D01*
X84617D01*
Y71107D01*
X84422D01*
Y71140D01*
Y71172D01*
X84454D01*
Y71205D01*
X84487D01*
Y71237D01*
X84552D01*
Y71270D01*
X84585D01*
Y71303D01*
Y71335D01*
Y71368D01*
Y71400D01*
X84552D01*
Y71433D01*
X84519D01*
Y71400D01*
X84454D01*
Y71433D01*
X84357D01*
Y71466D01*
X84324D01*
Y71498D01*
X84357D01*
Y71531D01*
X84422D01*
Y71563D01*
X84552D01*
Y71596D01*
Y71628D01*
Y71661D01*
Y71694D01*
Y71726D01*
X84454D01*
Y71759D01*
X84389D01*
Y71791D01*
X84324D01*
Y71824D01*
Y71856D01*
X84422D01*
Y71889D01*
X84552D01*
Y71922D01*
X84585D01*
Y71954D01*
Y71987D01*
Y72019D01*
X84552D01*
Y72052D01*
X84519D01*
Y72084D01*
X84454D01*
Y72117D01*
X84422D01*
Y72150D01*
Y72182D01*
X84454D01*
Y72215D01*
X84552D01*
Y72182D01*
X84682D01*
Y72215D01*
Y72247D01*
X84715D01*
Y72280D01*
Y72313D01*
X84682D01*
Y72345D01*
X84650D01*
Y72378D01*
X84617D01*
Y72410D01*
Y72443D01*
X84585D01*
Y72475D01*
X84617D01*
Y72508D01*
X84650D01*
Y72475D01*
X84747D01*
Y72443D01*
X84845D01*
Y72475D01*
X84878D01*
Y72508D01*
X84910D01*
Y72541D01*
Y72573D01*
X84878D01*
Y72606D01*
X84845D01*
Y72638D01*
Y72671D01*
Y72703D01*
X84813D01*
Y72736D01*
X84845D01*
Y72769D01*
X84878D01*
Y72736D01*
X84943D01*
Y72703D01*
X84975D01*
Y72671D01*
X85008D01*
Y72638D01*
X85073D01*
Y72671D01*
X85138D01*
Y72703D01*
X85171D01*
Y72736D01*
X85138D01*
Y72769D01*
Y72801D01*
Y72834D01*
X85106D01*
Y72866D01*
Y72899D01*
Y72931D01*
X85203D01*
Y72899D01*
X85236D01*
Y72866D01*
X85269D01*
Y72834D01*
Y72801D01*
X85301D01*
Y72769D01*
X85334D01*
Y72801D01*
X85432D01*
Y72834D01*
Y72866D01*
Y72899D01*
Y72931D01*
Y72964D01*
Y72997D01*
X85464D01*
Y73029D01*
X85529D01*
Y72997D01*
Y72964D01*
X85562D01*
Y72931D01*
Y72899D01*
X85594D01*
Y72866D01*
X85757D01*
Y72899D01*
Y72931D01*
Y72964D01*
Y72997D01*
X85790D01*
Y73029D01*
Y73062D01*
X85855D01*
Y73029D01*
X85888D01*
Y72997D01*
Y72964D01*
Y72931D01*
Y72899D01*
Y72866D01*
Y72834D01*
X86051D01*
Y72866D01*
X86083D01*
Y72899D01*
Y72931D01*
X86116D01*
Y72964D01*
X86148D01*
Y72997D01*
X86213D01*
Y72964D01*
Y72931D01*
Y72899D01*
Y72866D01*
Y72834D01*
Y72801D01*
Y72769D01*
Y72736D01*
X86279D01*
Y72703D01*
X86344D01*
Y72736D01*
Y72769D01*
X86376D01*
Y72801D01*
X86441D01*
Y72834D01*
X86474D01*
Y72866D01*
X86507D01*
Y72834D01*
X86539D01*
Y72801D01*
X86507D01*
Y72769D01*
Y72736D01*
Y72703D01*
X86474D01*
Y72671D01*
Y72638D01*
Y72606D01*
X86507D01*
Y72573D01*
X86539D01*
Y72541D01*
X86604D01*
Y72573D01*
X86637D01*
Y72606D01*
X86735D01*
Y72638D01*
X86767D01*
Y72606D01*
X86800D01*
Y72573D01*
X86767D01*
Y72541D01*
Y72508D01*
X86735D01*
Y72475D01*
X86702D01*
Y72443D01*
X86669D01*
Y72410D01*
X86702D01*
Y72378D01*
Y72345D01*
X86735D01*
Y72313D01*
X86832D01*
Y72345D01*
X86995D01*
Y72313D01*
Y72280D01*
X86963D01*
Y72247D01*
X86930D01*
Y72215D01*
X86898D01*
Y72182D01*
X86832D01*
Y72150D01*
Y72117D01*
X86865D01*
Y72084D01*
Y72052D01*
X86898D01*
Y72019D01*
X86930D01*
Y72052D01*
X87060D01*
Y72019D01*
X87126D01*
Y71987D01*
Y71954D01*
X87223D01*
Y71987D01*
X87288D01*
Y72019D01*
Y72052D01*
Y72084D01*
Y72117D01*
Y72150D01*
X87223D01*
Y72182D01*
X87126D01*
Y72215D01*
X87093D01*
Y72247D01*
X87060D01*
Y72280D01*
Y72313D01*
X87093D01*
Y72345D01*
X87321D01*
Y72378D01*
Y72410D01*
Y72443D01*
X87354D01*
Y72475D01*
Y72508D01*
X87321D01*
Y72541D01*
X87256D01*
Y72573D01*
X87223D01*
Y72606D01*
X87191D01*
Y72638D01*
X87158D01*
Y72671D01*
Y72703D01*
Y72736D01*
X87321D01*
Y72703D01*
X87451D01*
Y72736D01*
Y72769D01*
X87484D01*
Y72801D01*
Y72834D01*
Y72866D01*
X87451D01*
Y72899D01*
X87419D01*
Y72931D01*
X87386D01*
Y72964D01*
Y72997D01*
X87354D01*
Y73029D01*
Y73062D01*
X87386D01*
Y73094D01*
X87419D01*
Y73062D01*
X87516D01*
Y73029D01*
X87582D01*
Y72997D01*
X87647D01*
Y73029D01*
X87679D01*
Y73062D01*
X87712D01*
Y73094D01*
X87745D01*
Y73127D01*
X87712D01*
Y73160D01*
X87679D01*
Y73192D01*
Y73225D01*
X87647D01*
Y73257D01*
Y73290D01*
Y73322D01*
X87614D01*
Y73355D01*
X87647D01*
Y73388D01*
X87712D01*
Y73355D01*
X87777D01*
Y73322D01*
X87810D01*
Y73290D01*
X87842D01*
Y73257D01*
X87940D01*
Y73290D01*
X88005D01*
Y73322D01*
X88038D01*
Y73355D01*
X88005D01*
Y73388D01*
Y73420D01*
Y73453D01*
X87973D01*
Y73485D01*
Y73518D01*
Y73550D01*
Y73583D01*
X88005D01*
Y73616D01*
X88038D01*
Y73583D01*
X88070D01*
Y73550D01*
X88135D01*
Y73518D01*
Y73485D01*
X88168D01*
Y73453D01*
X88201D01*
Y73420D01*
X88298D01*
Y73453D01*
X88363D01*
Y73485D01*
Y73518D01*
Y73550D01*
Y73583D01*
Y73616D01*
Y73648D01*
Y73681D01*
Y73713D01*
X88396D01*
Y73746D01*
X88461D01*
Y73713D01*
Y73681D01*
X88494D01*
Y73648D01*
X88526D01*
Y73616D01*
Y73583D01*
Y73550D01*
X88559D01*
Y73518D01*
X88722D01*
Y73550D01*
Y73583D01*
Y73616D01*
X88754D01*
Y73648D01*
Y73681D01*
X88787D01*
Y73713D01*
Y73746D01*
X88885D01*
Y73713D01*
D02*
G37*
%LPC*%
G36*
X89243Y75049D02*
X89210D01*
Y75016D01*
Y74984D01*
Y74951D01*
Y74919D01*
X89178D01*
Y74886D01*
Y74854D01*
Y74821D01*
Y74788D01*
Y74756D01*
Y74723D01*
Y74691D01*
Y74658D01*
X89210D01*
Y74625D01*
Y74593D01*
Y74560D01*
X89243D01*
Y74593D01*
Y74625D01*
Y74658D01*
Y74691D01*
Y74723D01*
Y74756D01*
Y74788D01*
Y74821D01*
Y74854D01*
Y74886D01*
Y74919D01*
Y74951D01*
Y74984D01*
Y75016D01*
Y75049D01*
D02*
G37*
G36*
X87484D02*
X87451D01*
Y75016D01*
Y74984D01*
Y74951D01*
Y74919D01*
Y74886D01*
Y74854D01*
Y74821D01*
Y74788D01*
Y74756D01*
Y74723D01*
Y74691D01*
Y74658D01*
Y74625D01*
Y74593D01*
Y74560D01*
X87484D01*
Y74593D01*
Y74625D01*
Y74658D01*
Y74691D01*
Y74723D01*
Y74756D01*
Y74788D01*
Y74821D01*
Y74854D01*
Y74886D01*
Y74919D01*
Y74951D01*
Y74984D01*
Y75016D01*
Y75049D01*
D02*
G37*
G36*
X89210Y75114D02*
X89080D01*
Y75082D01*
Y75049D01*
Y75016D01*
Y74984D01*
Y74951D01*
Y74919D01*
Y74886D01*
Y74854D01*
Y74821D01*
Y74788D01*
Y74756D01*
Y74723D01*
Y74691D01*
Y74658D01*
Y74625D01*
Y74593D01*
Y74560D01*
Y74528D01*
Y74495D01*
Y74463D01*
X89210D01*
Y74495D01*
X89178D01*
Y74528D01*
Y74560D01*
Y74593D01*
X89145D01*
Y74625D01*
Y74658D01*
Y74691D01*
Y74723D01*
Y74756D01*
X89113D01*
Y74788D01*
Y74821D01*
X89145D01*
Y74854D01*
Y74886D01*
Y74919D01*
Y74951D01*
Y74984D01*
Y75016D01*
X89178D01*
Y75049D01*
Y75082D01*
X89210D01*
Y75114D01*
D02*
G37*
G36*
X89015D02*
X88820D01*
Y75082D01*
Y75049D01*
Y75016D01*
Y74984D01*
Y74951D01*
Y74919D01*
Y74886D01*
Y74854D01*
Y74821D01*
Y74788D01*
Y74756D01*
Y74723D01*
Y74691D01*
Y74658D01*
Y74625D01*
Y74593D01*
Y74560D01*
Y74528D01*
Y74495D01*
Y74463D01*
X89015D01*
Y74495D01*
Y74528D01*
Y74560D01*
Y74593D01*
Y74625D01*
Y74658D01*
Y74691D01*
Y74723D01*
Y74756D01*
Y74788D01*
Y74821D01*
Y74854D01*
Y74886D01*
Y74919D01*
Y74951D01*
Y74984D01*
Y75016D01*
Y75049D01*
Y75082D01*
Y75114D01*
D02*
G37*
G36*
X88754D02*
X88657D01*
Y75082D01*
Y75049D01*
Y75016D01*
Y74984D01*
Y74951D01*
Y74919D01*
Y74886D01*
Y74854D01*
Y74821D01*
Y74788D01*
Y74756D01*
Y74723D01*
Y74691D01*
Y74658D01*
Y74625D01*
Y74593D01*
Y74560D01*
Y74528D01*
Y74495D01*
Y74463D01*
X88754D01*
Y74495D01*
Y74528D01*
Y74560D01*
Y74593D01*
Y74625D01*
Y74658D01*
Y74691D01*
Y74723D01*
Y74756D01*
Y74788D01*
Y74821D01*
Y74854D01*
Y74886D01*
Y74919D01*
Y74951D01*
Y74984D01*
Y75016D01*
Y75049D01*
Y75082D01*
Y75114D01*
D02*
G37*
G36*
X88624D02*
X88396D01*
Y75082D01*
Y75049D01*
Y75016D01*
Y74984D01*
Y74951D01*
Y74919D01*
Y74886D01*
Y74854D01*
Y74821D01*
Y74788D01*
Y74756D01*
Y74723D01*
Y74691D01*
Y74658D01*
Y74625D01*
Y74593D01*
Y74560D01*
Y74528D01*
Y74495D01*
Y74463D01*
X88624D01*
Y74495D01*
Y74528D01*
Y74560D01*
Y74593D01*
Y74625D01*
Y74658D01*
Y74691D01*
Y74723D01*
Y74756D01*
Y74788D01*
Y74821D01*
Y74854D01*
Y74886D01*
Y74919D01*
Y74951D01*
Y74984D01*
Y75016D01*
Y75049D01*
Y75082D01*
Y75114D01*
D02*
G37*
G36*
X88331D02*
X88233D01*
Y75082D01*
Y75049D01*
Y75016D01*
Y74984D01*
Y74951D01*
Y74919D01*
Y74886D01*
Y74854D01*
Y74821D01*
Y74788D01*
Y74756D01*
Y74723D01*
Y74691D01*
Y74658D01*
Y74625D01*
Y74593D01*
Y74560D01*
Y74528D01*
Y74495D01*
Y74463D01*
X88331D01*
Y74495D01*
Y74528D01*
Y74560D01*
Y74593D01*
Y74625D01*
Y74658D01*
Y74691D01*
Y74723D01*
Y74756D01*
Y74788D01*
Y74821D01*
Y74854D01*
Y74886D01*
Y74919D01*
Y74951D01*
Y74984D01*
Y75016D01*
Y75049D01*
Y75082D01*
Y75114D01*
D02*
G37*
G36*
X88168D02*
X87973D01*
Y75082D01*
Y75049D01*
Y75016D01*
Y74984D01*
Y74951D01*
Y74919D01*
Y74886D01*
Y74854D01*
Y74821D01*
Y74788D01*
Y74756D01*
Y74723D01*
Y74691D01*
Y74658D01*
Y74625D01*
Y74593D01*
Y74560D01*
Y74528D01*
Y74495D01*
Y74463D01*
X88168D01*
Y74495D01*
Y74528D01*
Y74560D01*
Y74593D01*
Y74625D01*
Y74658D01*
Y74691D01*
Y74723D01*
Y74756D01*
Y74788D01*
Y74821D01*
Y74854D01*
Y74886D01*
Y74919D01*
Y74951D01*
Y74984D01*
Y75016D01*
Y75049D01*
Y75082D01*
Y75114D01*
D02*
G37*
G36*
X87907D02*
X87810D01*
Y75082D01*
Y75049D01*
Y75016D01*
Y74984D01*
Y74951D01*
Y74919D01*
Y74886D01*
Y74854D01*
Y74821D01*
Y74788D01*
Y74756D01*
Y74723D01*
Y74691D01*
Y74658D01*
Y74625D01*
Y74593D01*
Y74560D01*
Y74528D01*
Y74495D01*
Y74463D01*
X87907D01*
Y74495D01*
Y74528D01*
Y74560D01*
Y74593D01*
Y74625D01*
Y74658D01*
Y74691D01*
Y74723D01*
Y74756D01*
Y74788D01*
Y74821D01*
Y74854D01*
Y74886D01*
Y74919D01*
Y74951D01*
Y74984D01*
Y75016D01*
Y75049D01*
Y75082D01*
Y75114D01*
D02*
G37*
G36*
X87745D02*
X87549D01*
Y75082D01*
Y75049D01*
Y75016D01*
Y74984D01*
Y74951D01*
Y74919D01*
Y74886D01*
Y74854D01*
Y74821D01*
X87582D01*
Y74788D01*
X87549D01*
Y74756D01*
Y74723D01*
Y74691D01*
Y74658D01*
Y74625D01*
Y74593D01*
Y74560D01*
Y74528D01*
Y74495D01*
Y74463D01*
X87745D01*
Y74495D01*
Y74528D01*
Y74560D01*
Y74593D01*
Y74625D01*
Y74658D01*
Y74691D01*
Y74723D01*
Y74756D01*
Y74788D01*
Y74821D01*
Y74854D01*
Y74886D01*
Y74919D01*
Y74951D01*
Y74984D01*
Y75016D01*
Y75049D01*
Y75082D01*
Y75114D01*
D02*
G37*
G36*
X89406Y75147D02*
X89308D01*
Y75114D01*
Y75082D01*
Y75049D01*
Y75016D01*
Y74984D01*
Y74951D01*
Y74919D01*
Y74886D01*
Y74854D01*
Y74821D01*
Y74788D01*
Y74756D01*
Y74723D01*
Y74691D01*
Y74658D01*
Y74625D01*
Y74593D01*
Y74560D01*
Y74528D01*
Y74495D01*
Y74463D01*
Y74430D01*
X89373D01*
Y74463D01*
X89406D01*
Y74495D01*
X89439D01*
Y74528D01*
Y74560D01*
X89471D01*
Y74593D01*
Y74625D01*
Y74658D01*
X89439D01*
Y74691D01*
Y74723D01*
Y74756D01*
Y74788D01*
Y74821D01*
Y74854D01*
Y74886D01*
X89504D01*
Y74919D01*
X89471D01*
Y74951D01*
Y74984D01*
Y75016D01*
Y75049D01*
X89439D01*
Y75082D01*
Y75114D01*
X89406D01*
Y75147D01*
D02*
G37*
G36*
X87386D02*
X87288D01*
Y75114D01*
X87256D01*
Y75082D01*
Y75049D01*
X87223D01*
Y75016D01*
Y74984D01*
Y74951D01*
Y74919D01*
X87191D01*
Y74886D01*
Y74854D01*
Y74821D01*
X87158D01*
Y74788D01*
X87191D01*
Y74756D01*
Y74723D01*
Y74691D01*
X87223D01*
Y74658D01*
Y74625D01*
Y74593D01*
Y74560D01*
X87256D01*
Y74528D01*
Y74495D01*
X87288D01*
Y74463D01*
X87321D01*
Y74430D01*
X87386D01*
Y74463D01*
Y74495D01*
Y74528D01*
Y74560D01*
Y74593D01*
Y74625D01*
Y74658D01*
Y74691D01*
Y74723D01*
Y74756D01*
Y74788D01*
Y74821D01*
Y74854D01*
Y74886D01*
Y74919D01*
Y74951D01*
Y74984D01*
Y75016D01*
Y75049D01*
Y75082D01*
Y75114D01*
Y75147D01*
D02*
G37*
G36*
X87126Y71954D02*
X87060D01*
Y71922D01*
X87126D01*
Y71954D01*
D02*
G37*
G36*
X89015Y73225D02*
X88461D01*
Y73192D01*
X88331D01*
Y73160D01*
X88266D01*
Y73127D01*
X88201D01*
Y73094D01*
X88135D01*
Y73062D01*
X88070D01*
Y73029D01*
X88038D01*
Y72997D01*
X87973D01*
Y72964D01*
X87940D01*
Y72931D01*
X87907D01*
Y72899D01*
X87875D01*
Y72866D01*
X87842D01*
Y72834D01*
X87810D01*
Y72801D01*
X87777D01*
Y72769D01*
Y72736D01*
X87745D01*
Y72703D01*
X87712D01*
Y72671D01*
Y72638D01*
X87679D01*
Y72606D01*
Y72573D01*
X87647D01*
Y72541D01*
Y72508D01*
X87614D01*
Y72475D01*
Y72443D01*
Y72410D01*
X87582D01*
Y72378D01*
Y72345D01*
Y72313D01*
Y72280D01*
X87549D01*
Y72247D01*
Y72215D01*
Y72182D01*
Y72150D01*
Y72117D01*
Y72084D01*
Y72052D01*
Y72019D01*
Y71987D01*
Y71954D01*
Y71922D01*
Y71889D01*
Y71856D01*
Y71824D01*
X87582D01*
Y71791D01*
Y71759D01*
Y71726D01*
Y71694D01*
X87614D01*
Y71661D01*
Y71628D01*
Y71596D01*
X87647D01*
Y71563D01*
Y71531D01*
X87679D01*
Y71498D01*
Y71466D01*
X87712D01*
Y71433D01*
Y71400D01*
X87745D01*
Y71368D01*
X87777D01*
Y71335D01*
X87810D01*
Y71303D01*
Y71270D01*
X87842D01*
Y71237D01*
X87875D01*
Y71205D01*
X87907D01*
Y71172D01*
X87940D01*
Y71140D01*
X87973D01*
Y71107D01*
X88038D01*
Y71075D01*
X88070D01*
Y71042D01*
X88135D01*
Y71009D01*
X88201D01*
Y70977D01*
X88266D01*
Y70944D01*
X88331D01*
Y70912D01*
X88461D01*
Y70879D01*
X88982D01*
Y70912D01*
X89113D01*
Y70944D01*
X89210D01*
Y70977D01*
X89276D01*
Y71009D01*
X89341D01*
Y71042D01*
X89373D01*
Y71075D01*
X89439D01*
Y71107D01*
X89471D01*
Y71140D01*
X89504D01*
Y71172D01*
X89536D01*
Y71205D01*
X89569D01*
Y71237D01*
X89601D01*
Y71270D01*
X89634D01*
Y71303D01*
X89667D01*
Y71335D01*
X89699D01*
Y71368D01*
X89732D01*
Y71400D01*
Y71433D01*
X89764D01*
Y71466D01*
Y71498D01*
X89797D01*
Y71531D01*
Y71563D01*
X89829D01*
Y71596D01*
Y71628D01*
X89862D01*
Y71661D01*
Y71694D01*
Y71726D01*
X89895D01*
Y71759D01*
Y71791D01*
Y71824D01*
Y71856D01*
Y71889D01*
Y71922D01*
X89927D01*
Y71954D01*
Y71987D01*
Y72019D01*
Y72052D01*
Y72084D01*
Y72117D01*
Y72150D01*
Y72182D01*
X89895D01*
Y72215D01*
Y72247D01*
Y72280D01*
Y72313D01*
Y72345D01*
Y72378D01*
X89862D01*
Y72410D01*
Y72443D01*
Y72475D01*
X89829D01*
Y72508D01*
Y72541D01*
X89797D01*
Y72573D01*
Y72606D01*
X89764D01*
Y72638D01*
Y72671D01*
X89732D01*
Y72703D01*
Y72736D01*
X89699D01*
Y72769D01*
X89667D01*
Y72801D01*
X89634D01*
Y72834D01*
X89601D01*
Y72866D01*
Y72899D01*
X89536D01*
Y72931D01*
X89504D01*
Y72964D01*
X89471D01*
Y72997D01*
X89439D01*
Y73029D01*
X89373D01*
Y73062D01*
X89341D01*
Y73094D01*
X89276D01*
Y73127D01*
X89210D01*
Y73160D01*
X89113D01*
Y73192D01*
X89015D01*
Y73225D01*
D02*
G37*
G36*
X85888Y72638D02*
X85594D01*
Y72606D01*
X85432D01*
Y72573D01*
X85366D01*
Y72541D01*
X85301D01*
Y72508D01*
X85236D01*
Y72475D01*
X85171D01*
Y72443D01*
X85138D01*
Y72410D01*
X85106D01*
Y72378D01*
X85041D01*
Y72345D01*
X85008D01*
Y72313D01*
Y72280D01*
X84975D01*
Y72247D01*
X84943D01*
Y72215D01*
X84910D01*
Y72182D01*
Y72150D01*
X84878D01*
Y72117D01*
X84845D01*
Y72084D01*
Y72052D01*
Y72019D01*
X84813D01*
Y71987D01*
Y71954D01*
X84780D01*
Y71922D01*
Y71889D01*
Y71856D01*
Y71824D01*
Y71791D01*
X84747D01*
Y71759D01*
Y71726D01*
Y71694D01*
Y71661D01*
Y71628D01*
Y71596D01*
Y71563D01*
Y71531D01*
Y71498D01*
Y71466D01*
X84780D01*
Y71433D01*
Y71400D01*
Y71368D01*
Y71335D01*
X84813D01*
Y71303D01*
Y71270D01*
Y71237D01*
X84845D01*
Y71205D01*
Y71172D01*
X84878D01*
Y71140D01*
Y71107D01*
X84910D01*
Y71075D01*
X84943D01*
Y71042D01*
Y71009D01*
X84975D01*
Y70977D01*
X85008D01*
Y70944D01*
X85041D01*
Y70912D01*
X85073D01*
Y70879D01*
X85106D01*
Y70847D01*
X85138D01*
Y70814D01*
X85203D01*
Y70781D01*
X85269D01*
Y70749D01*
X85301D01*
Y70716D01*
X85399D01*
Y70684D01*
X85497D01*
Y70651D01*
X85985D01*
Y70684D01*
X86083D01*
Y70716D01*
X86181D01*
Y70749D01*
X86246D01*
Y70781D01*
X86311D01*
Y70814D01*
X86344D01*
Y70847D01*
X86376D01*
Y70879D01*
X86409D01*
Y70912D01*
X86474D01*
Y70944D01*
Y70977D01*
X86507D01*
Y71009D01*
X86539D01*
Y71042D01*
X86572D01*
Y71075D01*
X86604D01*
Y71107D01*
Y71140D01*
X86637D01*
Y71172D01*
Y71205D01*
X86669D01*
Y71237D01*
Y71270D01*
Y71303D01*
X86702D01*
Y71335D01*
Y71368D01*
Y71400D01*
X86735D01*
Y71433D01*
Y71466D01*
Y71498D01*
Y71531D01*
Y71563D01*
Y71596D01*
Y71628D01*
Y71661D01*
Y71694D01*
Y71726D01*
Y71759D01*
Y71791D01*
Y71824D01*
Y71856D01*
Y71889D01*
X86702D01*
Y71922D01*
Y71954D01*
Y71987D01*
X86669D01*
Y72019D01*
Y72052D01*
X86637D01*
Y72084D01*
Y72117D01*
X86604D01*
Y72150D01*
Y72182D01*
X86572D01*
Y72215D01*
X86539D01*
Y72247D01*
Y72280D01*
X86507D01*
Y72313D01*
X86474D01*
Y72345D01*
X86441D01*
Y72378D01*
X86409D01*
Y72410D01*
X86376D01*
Y72443D01*
X86311D01*
Y72475D01*
X86279D01*
Y72508D01*
X86213D01*
Y72541D01*
X86148D01*
Y72573D01*
X86051D01*
Y72606D01*
X85888D01*
Y72638D01*
D02*
G37*
%LPD*%
G36*
X88820Y72378D02*
X88885D01*
Y72345D01*
X88950D01*
Y72313D01*
X88982D01*
Y72280D01*
X89015D01*
Y72247D01*
Y72215D01*
X89048D01*
Y72182D01*
Y72150D01*
X89080D01*
Y72117D01*
Y72084D01*
Y72052D01*
Y72019D01*
Y71987D01*
X89048D01*
Y71954D01*
Y71922D01*
X89015D01*
Y71889D01*
Y71856D01*
X88982D01*
Y71824D01*
X88950D01*
Y71791D01*
X88917D01*
Y71759D01*
X88820D01*
Y71726D01*
X88657D01*
Y71759D01*
X88559D01*
Y71791D01*
X88526D01*
Y71824D01*
X88494D01*
Y71856D01*
X88461D01*
Y71889D01*
X88429D01*
Y71922D01*
Y71954D01*
Y71987D01*
X88396D01*
Y72019D01*
Y72052D01*
Y72084D01*
Y72117D01*
Y72150D01*
X88429D01*
Y72182D01*
Y72215D01*
X88461D01*
Y72247D01*
Y72280D01*
X88494D01*
Y72313D01*
X88526D01*
Y72345D01*
X88592D01*
Y72378D01*
X88657D01*
Y72410D01*
X88820D01*
Y72378D01*
D02*
G37*
G36*
X85855Y71889D02*
X85920D01*
Y71856D01*
X85953D01*
Y71824D01*
X85985D01*
Y71791D01*
Y71759D01*
X86018D01*
Y71726D01*
Y71694D01*
Y71661D01*
Y71628D01*
Y71596D01*
Y71563D01*
Y71531D01*
X85985D01*
Y71498D01*
Y71466D01*
X85953D01*
Y71433D01*
X85920D01*
Y71400D01*
X85855D01*
Y71368D01*
X85660D01*
Y71400D01*
X85594D01*
Y71433D01*
X85562D01*
Y71466D01*
X85529D01*
Y71498D01*
X85497D01*
Y71531D01*
Y71563D01*
Y71596D01*
X85464D01*
Y71628D01*
Y71661D01*
Y71694D01*
Y71726D01*
X85497D01*
Y71759D01*
Y71791D01*
X85529D01*
Y71824D01*
X85562D01*
Y71856D01*
X85594D01*
Y71889D01*
X85660D01*
Y71922D01*
X85855D01*
Y71889D01*
D02*
G37*
G36*
X85888Y67915D02*
Y67882D01*
X85855D01*
Y67849D01*
Y67817D01*
X85822D01*
Y67784D01*
Y67752D01*
X85790D01*
Y67719D01*
X85757D01*
Y67687D01*
Y67654D01*
X85725D01*
Y67621D01*
Y67589D01*
X85692D01*
Y67556D01*
X85660D01*
Y67524D01*
Y67491D01*
X85627D01*
Y67459D01*
Y67426D01*
X85594D01*
Y67393D01*
X85562D01*
Y67361D01*
Y67328D01*
X85529D01*
Y67296D01*
Y67263D01*
X85497D01*
Y67230D01*
X85464D01*
Y67198D01*
Y67165D01*
X85432D01*
Y67133D01*
X85399D01*
Y67100D01*
Y67068D01*
X85366D01*
Y67035D01*
Y67002D01*
X85334D01*
Y66970D01*
X85301D01*
Y66937D01*
Y66905D01*
X85269D01*
Y66872D01*
X85236D01*
Y66840D01*
Y66807D01*
X85203D01*
Y66774D01*
X85171D01*
Y66742D01*
Y66709D01*
X85138D01*
Y66677D01*
X85106D01*
Y66644D01*
Y66612D01*
X85073D01*
Y66579D01*
X85041D01*
Y66546D01*
Y66514D01*
X85008D01*
Y66481D01*
X84975D01*
Y66449D01*
Y66416D01*
X84943D01*
Y66383D01*
X84910D01*
Y66351D01*
Y66318D01*
X84878D01*
Y66286D01*
X84845D01*
Y66253D01*
Y66221D01*
X84813D01*
Y66188D01*
X84780D01*
Y66155D01*
Y66123D01*
X84747D01*
Y66090D01*
X84715D01*
Y66058D01*
X84682D01*
Y66025D01*
Y65993D01*
X84650D01*
Y65960D01*
X84617D01*
Y65927D01*
Y65895D01*
X84585D01*
Y65862D01*
X84552D01*
Y65830D01*
Y65797D01*
X84519D01*
Y65765D01*
X84487D01*
Y65732D01*
X84454D01*
Y65699D01*
Y65667D01*
X84422D01*
Y65634D01*
X84389D01*
Y65602D01*
Y65569D01*
X84357D01*
Y65536D01*
X84324D01*
Y65504D01*
X84291D01*
Y65471D01*
Y65439D01*
X84259D01*
Y65406D01*
X84226D01*
Y65374D01*
Y65341D01*
X84194D01*
Y65308D01*
X84161D01*
Y65276D01*
X84128D01*
Y65243D01*
Y65211D01*
X84096D01*
Y65178D01*
X84063D01*
Y65146D01*
X84031D01*
Y65113D01*
Y65080D01*
X83998D01*
Y65048D01*
X83966D01*
Y65015D01*
X83933D01*
Y64983D01*
X83900D01*
Y64950D01*
Y64918D01*
X83868D01*
Y64885D01*
X83835D01*
Y64852D01*
X83803D01*
Y64820D01*
X83770D01*
Y64852D01*
Y64885D01*
X83803D01*
Y64918D01*
Y64950D01*
X83835D01*
Y64983D01*
Y65015D01*
X83868D01*
Y65048D01*
Y65080D01*
X83900D01*
Y65113D01*
X83933D01*
Y65146D01*
Y65178D01*
X83966D01*
Y65211D01*
Y65243D01*
X83998D01*
Y65276D01*
X84031D01*
Y65308D01*
Y65341D01*
X84063D01*
Y65374D01*
Y65406D01*
X84096D01*
Y65439D01*
X84128D01*
Y65471D01*
Y65504D01*
X84161D01*
Y65536D01*
Y65569D01*
X84194D01*
Y65602D01*
X84226D01*
Y65634D01*
Y65667D01*
X84259D01*
Y65699D01*
X84291D01*
Y65732D01*
Y65765D01*
X84324D01*
Y65797D01*
X84357D01*
Y65830D01*
Y65862D01*
X84389D01*
Y65895D01*
X84422D01*
Y65927D01*
Y65960D01*
X84454D01*
Y65993D01*
X84487D01*
Y66025D01*
Y66058D01*
X84519D01*
Y66090D01*
X84552D01*
Y66123D01*
Y66155D01*
X84585D01*
Y66188D01*
X84617D01*
Y66221D01*
Y66253D01*
X84650D01*
Y66286D01*
X84682D01*
Y66318D01*
Y66351D01*
X84715D01*
Y66383D01*
X84747D01*
Y66416D01*
Y66449D01*
X84780D01*
Y66481D01*
X84813D01*
Y66514D01*
Y66546D01*
X84845D01*
Y66579D01*
X84878D01*
Y66612D01*
Y66644D01*
X84910D01*
Y66677D01*
X84943D01*
Y66709D01*
Y66742D01*
X84975D01*
Y66774D01*
X85008D01*
Y66807D01*
Y66840D01*
X85041D01*
Y66872D01*
X85073D01*
Y66905D01*
X85106D01*
Y66937D01*
Y66970D01*
X85138D01*
Y67002D01*
X85171D01*
Y67035D01*
Y67068D01*
X85203D01*
Y67100D01*
X85236D01*
Y67133D01*
Y67165D01*
X85269D01*
Y67198D01*
X85301D01*
Y67230D01*
X85334D01*
Y67263D01*
Y67296D01*
X85366D01*
Y67328D01*
X85399D01*
Y67361D01*
X85432D01*
Y67393D01*
Y67426D01*
X85464D01*
Y67459D01*
X85497D01*
Y67491D01*
X85529D01*
Y67524D01*
Y67556D01*
X85562D01*
Y67589D01*
X85594D01*
Y67621D01*
X85627D01*
Y67654D01*
Y67687D01*
X85660D01*
Y67719D01*
X85692D01*
Y67752D01*
X85725D01*
Y67784D01*
Y67817D01*
X85757D01*
Y67849D01*
X85790D01*
Y67882D01*
X85822D01*
Y67915D01*
X85855D01*
Y67947D01*
X85888D01*
Y67915D01*
D02*
G37*
G36*
X83770Y64787D02*
X83738D01*
Y64820D01*
X83770D01*
Y64787D01*
D02*
G37*
G36*
X85985Y67882D02*
Y67849D01*
Y67817D01*
Y67784D01*
Y67752D01*
Y67719D01*
X85953D01*
Y67687D01*
Y67654D01*
Y67621D01*
Y67589D01*
Y67556D01*
Y67524D01*
X85920D01*
Y67491D01*
Y67459D01*
Y67426D01*
Y67393D01*
Y67361D01*
X85888D01*
Y67328D01*
Y67296D01*
Y67263D01*
Y67230D01*
X85855D01*
Y67198D01*
Y67165D01*
Y67133D01*
Y67100D01*
Y67068D01*
X85822D01*
Y67035D01*
Y67002D01*
Y66970D01*
Y66937D01*
Y66905D01*
X85790D01*
Y66872D01*
Y66840D01*
Y66807D01*
Y66774D01*
X85757D01*
Y66742D01*
Y66709D01*
Y66677D01*
Y66644D01*
X85725D01*
Y66612D01*
Y66579D01*
Y66546D01*
Y66514D01*
X85692D01*
Y66481D01*
Y66449D01*
Y66416D01*
Y66383D01*
Y66351D01*
X85660D01*
Y66318D01*
Y66286D01*
Y66253D01*
Y66221D01*
X85627D01*
Y66188D01*
Y66155D01*
Y66123D01*
Y66090D01*
X85594D01*
Y66058D01*
Y66025D01*
Y65993D01*
Y65960D01*
X85562D01*
Y65927D01*
Y65895D01*
Y65862D01*
Y65830D01*
X85529D01*
Y65797D01*
Y65765D01*
Y65732D01*
X85497D01*
Y65699D01*
Y65667D01*
Y65634D01*
Y65602D01*
X85464D01*
Y65569D01*
Y65536D01*
Y65504D01*
Y65471D01*
X85432D01*
Y65439D01*
Y65406D01*
Y65374D01*
Y65341D01*
X85399D01*
Y65308D01*
Y65276D01*
Y65243D01*
X85366D01*
Y65211D01*
Y65178D01*
Y65146D01*
Y65113D01*
X85334D01*
Y65080D01*
Y65048D01*
Y65015D01*
X85301D01*
Y64983D01*
Y64950D01*
Y64918D01*
Y64885D01*
X85269D01*
Y64852D01*
Y64820D01*
Y64787D01*
X85236D01*
Y64755D01*
Y64722D01*
Y64689D01*
Y64657D01*
X85203D01*
Y64624D01*
Y64592D01*
Y64559D01*
X85171D01*
Y64527D01*
Y64494D01*
Y64461D01*
X85138D01*
Y64429D01*
Y64396D01*
Y64364D01*
X85106D01*
Y64331D01*
Y64299D01*
X85073D01*
Y64266D01*
Y64233D01*
Y64201D01*
X85041D01*
Y64168D01*
Y64136D01*
X85008D01*
Y64168D01*
Y64201D01*
Y64233D01*
X85041D01*
Y64266D01*
Y64299D01*
Y64331D01*
Y64364D01*
Y64396D01*
Y64429D01*
X85073D01*
Y64461D01*
Y64494D01*
Y64527D01*
Y64559D01*
Y64592D01*
Y64624D01*
X85106D01*
Y64657D01*
Y64689D01*
Y64722D01*
Y64755D01*
Y64787D01*
X85138D01*
Y64820D01*
Y64852D01*
Y64885D01*
Y64918D01*
Y64950D01*
X85171D01*
Y64983D01*
Y65015D01*
Y65048D01*
Y65080D01*
X85203D01*
Y65113D01*
Y65146D01*
Y65178D01*
Y65211D01*
Y65243D01*
X85236D01*
Y65276D01*
Y65308D01*
Y65341D01*
Y65374D01*
X85269D01*
Y65406D01*
Y65439D01*
Y65471D01*
Y65504D01*
X85301D01*
Y65536D01*
Y65569D01*
Y65602D01*
Y65634D01*
X85334D01*
Y65667D01*
Y65699D01*
Y65732D01*
Y65765D01*
Y65797D01*
X85366D01*
Y65830D01*
Y65862D01*
Y65895D01*
Y65927D01*
X85399D01*
Y65960D01*
Y65993D01*
Y66025D01*
Y66058D01*
X85432D01*
Y66090D01*
Y66123D01*
Y66155D01*
Y66188D01*
X85464D01*
Y66221D01*
Y66253D01*
Y66286D01*
Y66318D01*
X85497D01*
Y66351D01*
Y66383D01*
Y66416D01*
X85529D01*
Y66449D01*
Y66481D01*
Y66514D01*
Y66546D01*
X85562D01*
Y66579D01*
Y66612D01*
Y66644D01*
Y66677D01*
X85594D01*
Y66709D01*
Y66742D01*
Y66774D01*
Y66807D01*
X85627D01*
Y66840D01*
Y66872D01*
Y66905D01*
X85660D01*
Y66937D01*
Y66970D01*
Y67002D01*
Y67035D01*
X85692D01*
Y67068D01*
Y67100D01*
Y67133D01*
X85725D01*
Y67165D01*
Y67198D01*
Y67230D01*
X85757D01*
Y67263D01*
Y67296D01*
Y67328D01*
Y67361D01*
X85790D01*
Y67393D01*
Y67426D01*
Y67459D01*
X85822D01*
Y67491D01*
Y67524D01*
Y67556D01*
X85855D01*
Y67589D01*
Y67621D01*
Y67654D01*
X85888D01*
Y67687D01*
Y67719D01*
Y67752D01*
X85920D01*
Y67784D01*
Y67817D01*
Y67849D01*
X85953D01*
Y67882D01*
Y67915D01*
X85985D01*
Y67882D01*
D02*
G37*
D26*
X99874Y74359D02*
X100374D01*
X100874Y73860D01*
Y71360D01*
X99374D01*
X98874Y71860D01*
Y72860D01*
X99374Y73360D01*
X100874D01*
X101874D02*
X102873D01*
X102373D01*
Y71360D01*
X101874D01*
X104873Y70860D02*
Y71360D01*
X104373D01*
X105372D01*
X104873D01*
Y72860D01*
X105372Y73360D01*
X106872Y70361D02*
Y73360D01*
Y71860D01*
X107372Y71360D01*
X108371D01*
X108871Y71860D01*
Y73360D01*
X109871Y71360D02*
Y72860D01*
X110371Y73360D01*
X111870D01*
Y71360D01*
X112870Y70361D02*
Y73360D01*
X114369D01*
X114869Y72860D01*
Y72360D01*
Y71860D01*
X114369Y71360D01*
X112870D01*
X115869Y73360D02*
Y72860D01*
X116369D01*
Y73360D01*
X115869D01*
X120368Y71360D02*
X118868D01*
X118368Y71860D01*
Y72860D01*
X118868Y73360D01*
X120368D01*
X121867D02*
X122867D01*
X123366Y72860D01*
Y71860D01*
X122867Y71360D01*
X121867D01*
X121367Y71860D01*
Y72860D01*
X121867Y73360D01*
X124366D02*
Y71360D01*
X124866D01*
X125366Y71860D01*
Y73360D01*
Y71860D01*
X125866Y71360D01*
X126366Y71860D01*
Y73360D01*
X127365D02*
X129365Y71360D01*
X130364Y73360D02*
Y71360D01*
X130864D01*
X131364Y71860D01*
Y73360D01*
Y71860D01*
X131864Y71360D01*
X132364Y71860D01*
Y73360D01*
X133863Y71360D02*
X134863D01*
X135363Y71860D01*
Y73360D01*
X133863D01*
X133363Y72860D01*
X133863Y72360D01*
X135363D01*
X136362Y73360D02*
Y71360D01*
X137862D01*
X138362Y71860D01*
Y73360D01*
X141361Y71360D02*
X139861D01*
X139361Y71860D01*
Y72860D01*
X139861Y73360D01*
X141361D01*
X142360D02*
X143360D01*
X142860D01*
Y71360D01*
X142360D01*
X145359Y73360D02*
X146359D01*
X146859Y72860D01*
Y71860D01*
X146359Y71360D01*
X145359D01*
X144860Y71860D01*
Y72860D01*
X145359Y73360D01*
X100874Y63261D02*
X98874D01*
Y64760D01*
X99874D01*
X98874D01*
Y66260D01*
X101874D02*
X102873D01*
X102373D01*
Y63261D01*
X101874D01*
X104373Y64260D02*
Y65760D01*
X104873Y66260D01*
X106372D01*
Y66760D01*
X105872Y67259D01*
X105372D01*
X106372Y66260D02*
Y64260D01*
X107372Y63261D02*
Y66260D01*
X108871D01*
X109371Y65760D01*
Y65260D01*
X108871Y64760D01*
X107372D01*
X108871D01*
X109371Y64260D01*
Y63761D01*
X108871Y63261D01*
X107372D01*
X110871Y66260D02*
X111870D01*
X112370Y65760D01*
Y64760D01*
X111870Y64260D01*
X110871D01*
X110371Y64760D01*
Y65760D01*
X110871Y66260D01*
X113370Y64260D02*
X115369Y66260D01*
X114369Y65260D01*
X115369Y64260D01*
X113370Y66260D01*
X118368D02*
X116369D01*
X118368Y64260D01*
Y63761D01*
X117868Y63261D01*
X116869D01*
X116369Y63761D01*
X122367Y66260D02*
Y63261D01*
X123366Y64260D01*
X124366Y63261D01*
Y66260D01*
X125866Y64260D02*
X126865D01*
X127365Y64760D01*
Y66260D01*
X125866D01*
X125366Y65760D01*
X125866Y65260D01*
X127365D01*
X128365Y66260D02*
X129365D01*
X128865D01*
Y64260D01*
X128365D01*
X130864Y66260D02*
Y64260D01*
X132364D01*
X132863Y64760D01*
Y66260D01*
X136862Y63261D02*
Y66260D01*
X138362D01*
X138862Y65760D01*
Y65260D01*
X138362Y64760D01*
X136862D01*
X138362D01*
X138862Y64260D01*
Y63761D01*
X138362Y63261D01*
X136862D01*
X140361Y66260D02*
X141361D01*
X141860Y65760D01*
Y64760D01*
X141361Y64260D01*
X140361D01*
X139861Y64760D01*
Y65760D01*
X140361Y66260D01*
X143360Y64260D02*
X144360D01*
X144860Y64760D01*
Y66260D01*
X143360D01*
X142860Y65760D01*
X143360Y65260D01*
X144860D01*
X145859Y64260D02*
Y66260D01*
Y65260D01*
X146359Y64760D01*
X146859Y64260D01*
X147359D01*
X150858Y63261D02*
Y66260D01*
X149358D01*
X148858Y65760D01*
Y64760D01*
X149358Y64260D01*
X150858D01*
M02*
