G04*
G04 #@! TF.GenerationSoftware,Altium Limited,Altium Designer,20.1.8 (145)*
G04*
G04 Layer_Physical_Order=2*
G04 Layer_Color=16711680*
%FSLAX25Y25*%
%MOIN*%
G70*
G04*
G04 #@! TF.SameCoordinates,D239A609-AEFB-48DA-8D67-1FFB9F5ED150*
G04*
G04*
G04 #@! TF.FilePolarity,Positive*
G04*
G01*
G75*
%ADD11C,0.01000*%
%ADD19C,0.01799*%
%ADD20C,0.01201*%
%ADD21C,0.05906*%
%ADD22R,0.05906X0.05906*%
%ADD23R,0.05906X0.05906*%
%ADD24C,0.12598*%
%ADD25C,0.05000*%
G36*
X234000Y2000D02*
X2000D01*
Y250000D01*
X234000D01*
Y2000D01*
D02*
G37*
%LPC*%
G36*
X51197Y245685D02*
X43291D01*
Y237779D01*
X51197D01*
Y245685D01*
D02*
G37*
G36*
X106299Y245719D02*
X105267Y245583D01*
X104306Y245185D01*
X103480Y244551D01*
X102847Y243726D01*
X102448Y242764D01*
X102312Y241732D01*
X102448Y240700D01*
X102847Y239739D01*
X103480Y238913D01*
X104306Y238280D01*
X105267Y237881D01*
X106299Y237745D01*
X107331Y237881D01*
X108293Y238280D01*
X109118Y238913D01*
X109752Y239739D01*
X110150Y240700D01*
X110286Y241732D01*
X110150Y242764D01*
X109752Y243726D01*
X109118Y244551D01*
X108293Y245185D01*
X107331Y245583D01*
X106299Y245719D01*
D02*
G37*
G36*
X129937Y245370D02*
X122031D01*
Y237465D01*
X129937D01*
Y245370D01*
D02*
G37*
G36*
X185039Y245404D02*
X184008Y245268D01*
X183046Y244870D01*
X182220Y244236D01*
X181587Y243411D01*
X181188Y242449D01*
X181052Y241417D01*
X181188Y240385D01*
X181587Y239424D01*
X182220Y238598D01*
X183046Y237965D01*
X184008Y237566D01*
X185039Y237431D01*
X186071Y237566D01*
X187033Y237965D01*
X187858Y238598D01*
X188492Y239424D01*
X188890Y240385D01*
X189026Y241417D01*
X188890Y242449D01*
X188492Y243411D01*
X187858Y244236D01*
X187033Y244870D01*
X186071Y245268D01*
X185039Y245404D01*
D02*
G37*
G36*
X211953Y237953D02*
X208500D01*
Y234500D01*
X211953D01*
Y237953D01*
D02*
G37*
G36*
X207500D02*
X204047D01*
Y234500D01*
X207500D01*
Y237953D01*
D02*
G37*
G36*
X20000Y247335D02*
X18569Y247194D01*
X17193Y246776D01*
X15925Y246098D01*
X14814Y245186D01*
X13902Y244075D01*
X13224Y242807D01*
X12806Y241431D01*
X12665Y240000D01*
X12806Y238569D01*
X13224Y237193D01*
X13902Y235925D01*
X14814Y234814D01*
X15925Y233902D01*
X17193Y233224D01*
X18569Y232806D01*
X20000Y232665D01*
X21431Y232806D01*
X22807Y233224D01*
X24075Y233902D01*
X25186Y234814D01*
X26098Y235925D01*
X26776Y237193D01*
X27194Y238569D01*
X27334Y240000D01*
X27194Y241431D01*
X26776Y242807D01*
X26098Y244075D01*
X25186Y245186D01*
X24075Y246098D01*
X22807Y246776D01*
X21431Y247194D01*
X20000Y247335D01*
D02*
G37*
G36*
X106799Y235653D02*
Y232232D01*
X110220D01*
X110150Y232764D01*
X109752Y233726D01*
X109118Y234551D01*
X108293Y235185D01*
X107331Y235583D01*
X106799Y235653D01*
D02*
G37*
G36*
X105799D02*
X105267Y235583D01*
X104306Y235185D01*
X103480Y234551D01*
X102847Y233726D01*
X102448Y232764D01*
X102378Y232232D01*
X105799D01*
Y235653D01*
D02*
G37*
G36*
X185539Y235338D02*
Y231917D01*
X188960D01*
X188890Y232449D01*
X188492Y233411D01*
X187858Y234237D01*
X187033Y234870D01*
X186071Y235268D01*
X185539Y235338D01*
D02*
G37*
G36*
X184539D02*
X184008Y235268D01*
X183046Y234870D01*
X182220Y234237D01*
X181587Y233411D01*
X181188Y232449D01*
X181118Y231917D01*
X184539D01*
Y235338D01*
D02*
G37*
G36*
X211953Y233500D02*
X208500D01*
Y230047D01*
X211953D01*
Y233500D01*
D02*
G37*
G36*
X207500D02*
X204047D01*
Y230047D01*
X207500D01*
Y233500D01*
D02*
G37*
G36*
X110220Y231232D02*
X106799D01*
Y227811D01*
X107331Y227881D01*
X108293Y228280D01*
X109118Y228913D01*
X109752Y229739D01*
X110150Y230700D01*
X110220Y231232D01*
D02*
G37*
G36*
X105799D02*
X102378D01*
X102448Y230700D01*
X102847Y229739D01*
X103480Y228913D01*
X104306Y228280D01*
X105267Y227881D01*
X105799Y227811D01*
Y231232D01*
D02*
G37*
G36*
X47244Y235719D02*
X46212Y235583D01*
X45251Y235185D01*
X44425Y234551D01*
X43791Y233726D01*
X43393Y232764D01*
X43257Y231732D01*
X43393Y230700D01*
X43791Y229739D01*
X44425Y228913D01*
X45251Y228280D01*
X46212Y227881D01*
X47244Y227745D01*
X48276Y227881D01*
X49237Y228280D01*
X50063Y228913D01*
X50697Y229739D01*
X51095Y230700D01*
X51231Y231732D01*
X51095Y232764D01*
X50697Y233726D01*
X50063Y234551D01*
X49237Y235185D01*
X48276Y235583D01*
X47244Y235719D01*
D02*
G37*
G36*
X184539Y230917D02*
X181118D01*
X181188Y230385D01*
X181587Y229424D01*
X182220Y228598D01*
X183046Y227965D01*
X184008Y227566D01*
X184539Y227496D01*
Y230917D01*
D02*
G37*
G36*
X188960D02*
X185539D01*
Y227496D01*
X186071Y227566D01*
X187033Y227965D01*
X187858Y228598D01*
X188492Y229424D01*
X188890Y230385D01*
X188960Y230917D01*
D02*
G37*
G36*
X125984Y235404D02*
X124952Y235268D01*
X123991Y234870D01*
X123165Y234237D01*
X122531Y233411D01*
X122133Y232449D01*
X121997Y231417D01*
X122133Y230385D01*
X122531Y229424D01*
X123165Y228598D01*
X123991Y227965D01*
X124952Y227566D01*
X125984Y227431D01*
X127016Y227566D01*
X127978Y227965D01*
X128803Y228598D01*
X129437Y229424D01*
X129835Y230385D01*
X129971Y231417D01*
X129835Y232449D01*
X129437Y233411D01*
X128803Y234237D01*
X127978Y234870D01*
X127016Y235268D01*
X125984Y235404D01*
D02*
G37*
G36*
X47744Y225653D02*
Y222232D01*
X51165D01*
X51095Y222764D01*
X50697Y223726D01*
X50063Y224551D01*
X49237Y225185D01*
X48276Y225583D01*
X47744Y225653D01*
D02*
G37*
G36*
X46744D02*
X46212Y225583D01*
X45251Y225185D01*
X44425Y224551D01*
X43791Y223726D01*
X43393Y222764D01*
X43323Y222232D01*
X46744D01*
Y225653D01*
D02*
G37*
G36*
X126484Y225338D02*
Y221917D01*
X129905D01*
X129835Y222449D01*
X129437Y223411D01*
X128803Y224236D01*
X127978Y224870D01*
X127016Y225268D01*
X126484Y225338D01*
D02*
G37*
G36*
X125484D02*
X124952Y225268D01*
X123991Y224870D01*
X123165Y224236D01*
X122531Y223411D01*
X122133Y222449D01*
X122063Y221917D01*
X125484D01*
Y225338D01*
D02*
G37*
G36*
X208000Y227987D02*
X206968Y227851D01*
X206007Y227453D01*
X205181Y226819D01*
X204547Y225993D01*
X204149Y225032D01*
X204013Y224000D01*
X204149Y222968D01*
X204547Y222007D01*
X205181Y221181D01*
X206007Y220547D01*
X206968Y220149D01*
X208000Y220013D01*
X209032Y220149D01*
X209993Y220547D01*
X210819Y221181D01*
X211453Y222007D01*
X211851Y222968D01*
X211987Y224000D01*
X211851Y225032D01*
X211453Y225993D01*
X210819Y226819D01*
X209993Y227453D01*
X209032Y227851D01*
X208000Y227987D01*
D02*
G37*
G36*
X106299Y225719D02*
X105267Y225583D01*
X104306Y225185D01*
X103480Y224551D01*
X102847Y223726D01*
X102448Y222764D01*
X102312Y221732D01*
X102448Y220700D01*
X102847Y219739D01*
X103480Y218913D01*
X104306Y218280D01*
X105267Y217881D01*
X106299Y217745D01*
X107331Y217881D01*
X108293Y218280D01*
X109118Y218913D01*
X109752Y219739D01*
X110150Y220700D01*
X110286Y221732D01*
X110150Y222764D01*
X109752Y223726D01*
X109118Y224551D01*
X108293Y225185D01*
X107331Y225583D01*
X106299Y225719D01*
D02*
G37*
G36*
X51165Y221232D02*
X47244D01*
X43323D01*
X43393Y220700D01*
X43791Y219739D01*
X44425Y218913D01*
X44792Y218632D01*
X44622Y218132D01*
X40000D01*
X39376Y218007D01*
X38846Y217654D01*
X38690Y217498D01*
X33602D01*
X33453Y217860D01*
X32819Y218685D01*
X31993Y219319D01*
X31032Y219717D01*
X30000Y219853D01*
X28968Y219717D01*
X28007Y219319D01*
X27181Y218685D01*
X26547Y217860D01*
X26524Y217803D01*
X23866D01*
X23125Y217655D01*
X22497Y217236D01*
X19631Y214370D01*
X19211Y213741D01*
X19063Y213000D01*
Y164000D01*
X19211Y163259D01*
X19631Y162630D01*
X26172Y156088D01*
X26149Y156032D01*
X26013Y155000D01*
X26149Y153968D01*
X26172Y153911D01*
X20630Y148370D01*
X20211Y147741D01*
X20063Y147000D01*
Y95835D01*
X20211Y95094D01*
X20630Y94465D01*
X26172Y88923D01*
X26149Y88867D01*
X26013Y87835D01*
X26149Y86803D01*
X26547Y85841D01*
X27181Y85015D01*
X28007Y84382D01*
X28968Y83984D01*
X30000Y83848D01*
X31032Y83984D01*
X31993Y84382D01*
X32819Y85015D01*
X33453Y85841D01*
X33851Y86803D01*
X33987Y87835D01*
X33851Y88867D01*
X33453Y89828D01*
X32819Y90654D01*
X31993Y91287D01*
X31032Y91686D01*
X30000Y91821D01*
X28968Y91686D01*
X28912Y91662D01*
X23937Y96637D01*
Y146198D01*
X28912Y151172D01*
X28968Y151149D01*
X30000Y151013D01*
X31032Y151149D01*
X31993Y151547D01*
X32819Y152181D01*
X33453Y153007D01*
X33851Y153968D01*
X33987Y155000D01*
X33851Y156032D01*
X33453Y156993D01*
X32819Y157819D01*
X31993Y158453D01*
X31032Y158851D01*
X30000Y158987D01*
X28968Y158851D01*
X28912Y158828D01*
X22937Y164802D01*
Y212198D01*
X24668Y213929D01*
X26524D01*
X26547Y213873D01*
X27181Y213047D01*
X28007Y212413D01*
X28968Y212015D01*
X30000Y211879D01*
X31032Y212015D01*
X31993Y212413D01*
X32819Y213047D01*
X33453Y213873D01*
X33602Y214234D01*
X39366D01*
X39991Y214359D01*
X40520Y214712D01*
X40676Y214868D01*
X44050D01*
X44284Y214368D01*
X43791Y213726D01*
X43393Y212764D01*
X43323Y212232D01*
X47244D01*
X51165D01*
X51095Y212764D01*
X50697Y213726D01*
X50204Y214368D01*
X50438Y214868D01*
X95324D01*
X99846Y210346D01*
X100376Y209993D01*
X101000Y209868D01*
X102793D01*
X102847Y209739D01*
X103480Y208913D01*
X104306Y208280D01*
X105267Y207881D01*
X106299Y207745D01*
X107331Y207881D01*
X108293Y208280D01*
X109118Y208913D01*
X109752Y209739D01*
X109902Y210101D01*
X112994D01*
X117748Y205346D01*
X118278Y204993D01*
X118902Y204868D01*
X123211D01*
X123372Y204395D01*
X123165Y204237D01*
X122531Y203411D01*
X122133Y202449D01*
X121997Y201417D01*
X122133Y200385D01*
X122283Y200024D01*
X115346Y193087D01*
X114992Y192558D01*
X114868Y191933D01*
Y189676D01*
X113324Y188132D01*
X108921D01*
X108752Y188632D01*
X109118Y188913D01*
X109752Y189739D01*
X110150Y190700D01*
X110286Y191732D01*
X110150Y192764D01*
X109752Y193726D01*
X109118Y194551D01*
X108293Y195185D01*
X107331Y195583D01*
X106299Y195719D01*
X105267Y195583D01*
X104306Y195185D01*
X103480Y194551D01*
X102847Y193726D01*
X102448Y192764D01*
X102312Y191732D01*
X102448Y190700D01*
X102847Y189739D01*
X103480Y188913D01*
X103847Y188632D01*
X103677Y188132D01*
X102500D01*
X101876Y188007D01*
X101346Y187654D01*
X96073Y182381D01*
X95719Y181851D01*
X95595Y181227D01*
Y180411D01*
X95586Y180410D01*
X94735Y180057D01*
X94004Y179496D01*
X93443Y178765D01*
X93090Y177914D01*
X92970Y177000D01*
X93090Y176086D01*
X93443Y175235D01*
X94004Y174504D01*
X94735Y173943D01*
X95586Y173590D01*
X96500Y173470D01*
X97414Y173590D01*
X98265Y173943D01*
X98996Y174504D01*
X99557Y175235D01*
X99910Y176086D01*
X100030Y177000D01*
X99910Y177914D01*
X99557Y178765D01*
X98996Y179496D01*
X98859Y179602D01*
Y180551D01*
X102820Y184512D01*
X103196Y184181D01*
X102847Y183726D01*
X102448Y182764D01*
X102312Y181732D01*
X102448Y180700D01*
X102847Y179739D01*
X103480Y178913D01*
X104306Y178280D01*
X105267Y177881D01*
X106299Y177745D01*
X107331Y177881D01*
X108293Y178280D01*
X109118Y178913D01*
X109752Y179739D01*
X110150Y180700D01*
X110286Y181732D01*
X110150Y182764D01*
X109752Y183726D01*
X109259Y184368D01*
X109494Y184868D01*
X114000D01*
X114624Y184993D01*
X115154Y185346D01*
X117654Y187846D01*
X118008Y188376D01*
X118132Y189000D01*
Y191257D01*
X124591Y197716D01*
X124952Y197566D01*
X125984Y197431D01*
X127016Y197566D01*
X127978Y197965D01*
X128803Y198598D01*
X129437Y199424D01*
X129835Y200385D01*
X129971Y201417D01*
X129835Y202449D01*
X129437Y203411D01*
X128803Y204237D01*
X128597Y204395D01*
X128758Y204868D01*
X180122D01*
X180746Y204993D01*
X181276Y205346D01*
X183646Y207716D01*
X184008Y207566D01*
X185039Y207431D01*
X186071Y207566D01*
X187033Y207965D01*
X187858Y208598D01*
X188492Y209424D01*
X188890Y210385D01*
X189026Y211417D01*
X188890Y212449D01*
X188492Y213411D01*
X187858Y214236D01*
X187033Y214870D01*
X186071Y215268D01*
X185039Y215404D01*
X184008Y215268D01*
X183046Y214870D01*
X182220Y214236D01*
X181587Y213411D01*
X181188Y212449D01*
X181052Y211417D01*
X181188Y210385D01*
X181338Y210024D01*
X179446Y208132D01*
X128962D01*
X128871Y208398D01*
X128829Y208632D01*
X129437Y209424D01*
X129835Y210385D01*
X129905Y210917D01*
X125984D01*
X122063D01*
X122133Y210385D01*
X122531Y209424D01*
X123139Y208632D01*
X123097Y208398D01*
X123007Y208132D01*
X119578D01*
X114824Y212886D01*
X114295Y213240D01*
X113670Y213364D01*
X109902D01*
X109752Y213726D01*
X109118Y214551D01*
X108293Y215185D01*
X107331Y215583D01*
X106299Y215719D01*
X105267Y215583D01*
X104306Y215185D01*
X103480Y214551D01*
X102847Y213726D01*
X102601Y213132D01*
X101676D01*
X97154Y217654D01*
X96624Y218007D01*
X96000Y218132D01*
X49866D01*
X49696Y218632D01*
X50063Y218913D01*
X50697Y219739D01*
X51095Y220700D01*
X51165Y221232D01*
D02*
G37*
G36*
X129905Y220917D02*
X126484D01*
Y217496D01*
X127016Y217566D01*
X127978Y217965D01*
X128803Y218598D01*
X129437Y219424D01*
X129835Y220385D01*
X129905Y220917D01*
D02*
G37*
G36*
X125484D02*
X122063D01*
X122133Y220385D01*
X122531Y219424D01*
X123165Y218598D01*
X123991Y217965D01*
X124952Y217566D01*
X125484Y217496D01*
Y220917D01*
D02*
G37*
G36*
X185039Y225404D02*
X184008Y225268D01*
X183046Y224870D01*
X182220Y224236D01*
X181587Y223411D01*
X181188Y222449D01*
X181052Y221417D01*
X181188Y220385D01*
X181587Y219424D01*
X182220Y218598D01*
X183046Y217965D01*
X184008Y217566D01*
X185039Y217430D01*
X186071Y217566D01*
X187033Y217965D01*
X187858Y218598D01*
X188492Y219424D01*
X188890Y220385D01*
X189026Y221417D01*
X188890Y222449D01*
X188492Y223411D01*
X187858Y224236D01*
X187033Y224870D01*
X186071Y225268D01*
X185039Y225404D01*
D02*
G37*
G36*
X126484Y215338D02*
Y211917D01*
X129905D01*
X129835Y212449D01*
X129437Y213411D01*
X128803Y214236D01*
X127978Y214870D01*
X127016Y215268D01*
X126484Y215338D01*
D02*
G37*
G36*
X125484D02*
X124952Y215268D01*
X123991Y214870D01*
X123165Y214236D01*
X122531Y213411D01*
X122133Y212449D01*
X122063Y211917D01*
X125484D01*
Y215338D01*
D02*
G37*
G36*
X51165Y211232D02*
X47744D01*
Y207811D01*
X48276Y207881D01*
X49237Y208280D01*
X50063Y208913D01*
X50697Y209739D01*
X51095Y210700D01*
X51165Y211232D01*
D02*
G37*
G36*
X46744D02*
X43323D01*
X43393Y210700D01*
X43791Y209739D01*
X44425Y208913D01*
X45251Y208280D01*
X46212Y207881D01*
X46744Y207811D01*
Y211232D01*
D02*
G37*
G36*
X30000Y209853D02*
X28968Y209717D01*
X28007Y209319D01*
X27181Y208685D01*
X26547Y207860D01*
X26149Y206898D01*
X26013Y205866D01*
X26149Y204834D01*
X26547Y203873D01*
X27181Y203047D01*
X28007Y202413D01*
X28968Y202015D01*
X30000Y201879D01*
X31032Y202015D01*
X31993Y202413D01*
X32819Y203047D01*
X33453Y203873D01*
X33851Y204834D01*
X33987Y205866D01*
X33851Y206898D01*
X33453Y207860D01*
X32819Y208685D01*
X31993Y209319D01*
X31032Y209717D01*
X30000Y209853D01*
D02*
G37*
G36*
X106299Y205719D02*
X105267Y205583D01*
X104306Y205185D01*
X103480Y204551D01*
X102847Y203726D01*
X102448Y202764D01*
X102312Y201732D01*
X102448Y200700D01*
X102847Y199739D01*
X103480Y198913D01*
X104306Y198280D01*
X105267Y197881D01*
X106299Y197745D01*
X107331Y197881D01*
X108293Y198280D01*
X109118Y198913D01*
X109752Y199739D01*
X110150Y200700D01*
X110286Y201732D01*
X110150Y202764D01*
X109752Y203726D01*
X109118Y204551D01*
X108293Y205185D01*
X107331Y205583D01*
X106299Y205719D01*
D02*
G37*
G36*
X47244D02*
X46212Y205583D01*
X45251Y205185D01*
X44425Y204551D01*
X43791Y203726D01*
X43393Y202764D01*
X43257Y201732D01*
X43393Y200700D01*
X43791Y199739D01*
X44425Y198913D01*
X45251Y198280D01*
X46212Y197881D01*
X47244Y197745D01*
X48276Y197881D01*
X49237Y198280D01*
X50063Y198913D01*
X50697Y199739D01*
X51095Y200700D01*
X51231Y201732D01*
X51095Y202764D01*
X50697Y203726D01*
X50063Y204551D01*
X49237Y205185D01*
X48276Y205583D01*
X47244Y205719D01*
D02*
G37*
G36*
X185039Y205404D02*
X184008Y205268D01*
X183046Y204870D01*
X182220Y204237D01*
X181587Y203411D01*
X181437Y203049D01*
X177417D01*
X176793Y202925D01*
X176263Y202571D01*
X159346Y185654D01*
X158993Y185124D01*
X158868Y184500D01*
Y139676D01*
X139824Y120632D01*
X118591D01*
X118400Y121094D01*
X124896Y127590D01*
X124952Y127566D01*
X125984Y127430D01*
X127016Y127566D01*
X127978Y127965D01*
X128803Y128598D01*
X129437Y129424D01*
X129835Y130385D01*
X129971Y131417D01*
X129835Y132449D01*
X129437Y133411D01*
X128803Y134237D01*
X127978Y134870D01*
X127016Y135268D01*
X125984Y135404D01*
X124952Y135268D01*
X123991Y134870D01*
X123165Y134237D01*
X122531Y133411D01*
X122133Y132449D01*
X121997Y131417D01*
X122133Y130385D01*
X122157Y130329D01*
X115765Y123937D01*
X74165D01*
X73424Y123789D01*
X72796Y123370D01*
X31089Y81662D01*
X31032Y81686D01*
X30000Y81822D01*
X28968Y81686D01*
X28007Y81287D01*
X27181Y80654D01*
X26547Y79828D01*
X26149Y78866D01*
X26013Y77835D01*
X26149Y76803D01*
X26547Y75841D01*
X27181Y75015D01*
X28007Y74382D01*
X28968Y73984D01*
X30000Y73848D01*
X31032Y73984D01*
X31993Y74382D01*
X32819Y75015D01*
X33453Y75841D01*
X33851Y76803D01*
X33987Y77835D01*
X33851Y78866D01*
X33828Y78923D01*
X74968Y120063D01*
X89937D01*
X90128Y119601D01*
X88205Y117678D01*
X87843Y117827D01*
X86811Y117963D01*
X85779Y117827D01*
X84818Y117429D01*
X83992Y116796D01*
X83358Y115970D01*
X82960Y115008D01*
X82824Y113976D01*
X82960Y112944D01*
X83358Y111983D01*
X83992Y111157D01*
X84818Y110524D01*
X85779Y110125D01*
X86811Y109990D01*
X87843Y110125D01*
X88805Y110524D01*
X89630Y111157D01*
X90264Y111983D01*
X90662Y112944D01*
X90798Y113976D01*
X90662Y115008D01*
X90512Y115370D01*
X92510Y117368D01*
X93960D01*
X94121Y116895D01*
X93992Y116796D01*
X93358Y115970D01*
X92960Y115008D01*
X92824Y113976D01*
X92960Y112944D01*
X93358Y111983D01*
X93992Y111157D01*
X94818Y110524D01*
X95779Y110125D01*
X96811Y109990D01*
X97843Y110125D01*
X97900Y110149D01*
X118418Y89631D01*
X119046Y89211D01*
X119787Y89063D01*
X196000D01*
X196741Y89211D01*
X197370Y89631D01*
X228870Y121131D01*
X229289Y121759D01*
X229437Y122500D01*
Y156500D01*
X229289Y157241D01*
X228870Y157870D01*
X223952Y162787D01*
X223324Y163207D01*
X222583Y163354D01*
X188515D01*
X188492Y163411D01*
X187858Y164236D01*
X187033Y164870D01*
X186071Y165268D01*
X185039Y165404D01*
X184008Y165268D01*
X183046Y164870D01*
X182220Y164236D01*
X181587Y163411D01*
X181188Y162449D01*
X181052Y161417D01*
X181188Y160385D01*
X181587Y159424D01*
X182220Y158598D01*
X183046Y157965D01*
X184008Y157566D01*
X185039Y157431D01*
X186071Y157566D01*
X187033Y157965D01*
X187858Y158598D01*
X188492Y159424D01*
X188515Y159481D01*
X221780D01*
X225563Y155698D01*
Y123302D01*
X195198Y92937D01*
X120590D01*
X100639Y112888D01*
X100662Y112944D01*
X100798Y113976D01*
X100662Y115008D01*
X100264Y115970D01*
X99630Y116796D01*
X99501Y116895D01*
X99661Y117368D01*
X103961D01*
X104121Y116895D01*
X103992Y116796D01*
X103358Y115970D01*
X102960Y115008D01*
X102824Y113976D01*
X102960Y112944D01*
X103358Y111983D01*
X103992Y111157D01*
X104818Y110524D01*
X105779Y110125D01*
X106811Y109990D01*
X107843Y110125D01*
X108205Y110275D01*
X123634Y94846D01*
X124163Y94493D01*
X124787Y94368D01*
X192500D01*
X193124Y94493D01*
X193654Y94846D01*
X204154Y105346D01*
X204507Y105876D01*
X204632Y106500D01*
Y109888D01*
X204765Y109943D01*
X205496Y110504D01*
X206057Y111235D01*
X206410Y112086D01*
X206530Y113000D01*
X206410Y113914D01*
X206057Y114765D01*
X205496Y115496D01*
X204765Y116057D01*
X203914Y116410D01*
X203000Y116530D01*
X202086Y116410D01*
X201235Y116057D01*
X200504Y115496D01*
X199943Y114765D01*
X199590Y113914D01*
X199470Y113000D01*
X199590Y112086D01*
X199943Y111235D01*
X200504Y110504D01*
X201235Y109943D01*
X201368Y109888D01*
Y107176D01*
X191824Y97632D01*
X125463D01*
X110512Y112583D01*
X110662Y112944D01*
X110798Y113976D01*
X110662Y115008D01*
X110264Y115970D01*
X109630Y116796D01*
X109501Y116895D01*
X109661Y117368D01*
X113961D01*
X114121Y116895D01*
X113992Y116796D01*
X113358Y115970D01*
X112960Y115008D01*
X112824Y113976D01*
X112960Y112944D01*
X113358Y111983D01*
X113992Y111157D01*
X114818Y110524D01*
X115779Y110125D01*
X116811Y109990D01*
X117843Y110125D01*
X117900Y110149D01*
X127418Y100630D01*
X128046Y100211D01*
X128787Y100063D01*
X187500D01*
X188241Y100211D01*
X188870Y100630D01*
X194671Y106432D01*
X195091Y107060D01*
X195238Y107801D01*
Y109932D01*
X195265Y109943D01*
X195996Y110504D01*
X196557Y111235D01*
X196910Y112086D01*
X197030Y113000D01*
X196910Y113914D01*
X196557Y114765D01*
X195996Y115496D01*
X195265Y116057D01*
X194414Y116410D01*
X193500Y116530D01*
X192586Y116410D01*
X191735Y116057D01*
X191004Y115496D01*
X190443Y114765D01*
X190090Y113914D01*
X189970Y113000D01*
X190090Y112086D01*
X190443Y111235D01*
X191004Y110504D01*
X191364Y110227D01*
Y108603D01*
X186698Y103937D01*
X129590D01*
X120639Y112888D01*
X120662Y112944D01*
X120798Y113976D01*
X120662Y115008D01*
X120264Y115970D01*
X119630Y116796D01*
X119501Y116895D01*
X119661Y117368D01*
X123960D01*
X124121Y116895D01*
X123992Y116796D01*
X123358Y115970D01*
X122960Y115008D01*
X122824Y113976D01*
X122960Y112944D01*
X123358Y111983D01*
X123992Y111157D01*
X124818Y110524D01*
X125779Y110125D01*
X126811Y109990D01*
X127843Y110125D01*
X127900Y110149D01*
X130918Y107131D01*
X131546Y106711D01*
X132287Y106563D01*
X177500D01*
X178241Y106711D01*
X178869Y107131D01*
X181801Y110062D01*
X182500Y109970D01*
X183414Y110090D01*
X184265Y110443D01*
X184996Y111004D01*
X185557Y111735D01*
X185910Y112586D01*
X186030Y113500D01*
X185910Y114414D01*
X185557Y115265D01*
X184996Y115996D01*
X184265Y116557D01*
X183514Y116868D01*
X183614Y117368D01*
X209500D01*
X210124Y117492D01*
X210654Y117846D01*
X221654Y128846D01*
X222007Y129376D01*
X222132Y130000D01*
Y133000D01*
X222007Y133624D01*
X221654Y134154D01*
X214654Y141154D01*
X214124Y141507D01*
X213500Y141632D01*
X211505D01*
X211453Y141757D01*
X210819Y142583D01*
X209993Y143217D01*
X209032Y143615D01*
X208000Y143751D01*
X206968Y143615D01*
X206007Y143217D01*
X205181Y142583D01*
X204547Y141757D01*
X204149Y140796D01*
X204013Y139764D01*
X204149Y138732D01*
X204547Y137770D01*
X205181Y136945D01*
X206007Y136311D01*
X206968Y135913D01*
X208000Y135777D01*
X209032Y135913D01*
X209993Y136311D01*
X210819Y136945D01*
X211453Y137770D01*
X211700Y138368D01*
X212824D01*
X218868Y132324D01*
Y130676D01*
X208824Y120632D01*
X201630D01*
X201581Y121132D01*
X201977Y121211D01*
X202606Y121631D01*
X206911Y125936D01*
X206968Y125913D01*
X208000Y125777D01*
X209032Y125913D01*
X209993Y126311D01*
X210819Y126945D01*
X211453Y127770D01*
X211851Y128732D01*
X211987Y129764D01*
X211851Y130796D01*
X211453Y131757D01*
X210819Y132583D01*
X209993Y133217D01*
X209032Y133615D01*
X208000Y133751D01*
X206968Y133615D01*
X206007Y133217D01*
X205181Y132583D01*
X204547Y131757D01*
X204149Y130796D01*
X204013Y129764D01*
X204149Y128732D01*
X204172Y128675D01*
X200434Y124937D01*
X173302D01*
X170937Y127302D01*
Y180198D01*
X180190Y189451D01*
X181575D01*
X181587Y189424D01*
X182220Y188598D01*
X183046Y187965D01*
X184008Y187566D01*
X185039Y187431D01*
X186071Y187566D01*
X187033Y187965D01*
X187858Y188598D01*
X188492Y189424D01*
X188890Y190385D01*
X189026Y191417D01*
X188890Y192449D01*
X188492Y193411D01*
X187858Y194237D01*
X187033Y194870D01*
X186071Y195268D01*
X185039Y195404D01*
X184008Y195268D01*
X183046Y194870D01*
X182220Y194237D01*
X181587Y193411D01*
X181551Y193325D01*
X179388D01*
X178647Y193177D01*
X178018Y192757D01*
X167631Y182369D01*
X167211Y181741D01*
X167063Y181000D01*
Y126500D01*
X167211Y125759D01*
X167631Y125130D01*
X171131Y121631D01*
X171759Y121211D01*
X172155Y121132D01*
X172106Y120632D01*
X151835D01*
X151210Y120508D01*
X150681Y120154D01*
X148205Y117678D01*
X147843Y117827D01*
X146811Y117963D01*
X145779Y117827D01*
X144818Y117429D01*
X143992Y116796D01*
X143358Y115970D01*
X142960Y115008D01*
X142824Y113976D01*
X142960Y112944D01*
X143358Y111983D01*
X143992Y111157D01*
X144279Y110937D01*
X144109Y110437D01*
X139513D01*
X139343Y110937D01*
X139630Y111157D01*
X140264Y111983D01*
X140662Y112944D01*
X140732Y113476D01*
X136811D01*
Y114476D01*
X140732D01*
X140662Y115008D01*
X140264Y115970D01*
X139630Y116796D01*
X139501Y116895D01*
X139662Y117368D01*
X140500D01*
X141124Y117492D01*
X141654Y117846D01*
X161654Y137846D01*
X162007Y138376D01*
X162132Y139000D01*
Y183824D01*
X178093Y199786D01*
X181437D01*
X181587Y199424D01*
X182220Y198598D01*
X183046Y197965D01*
X184008Y197566D01*
X185039Y197431D01*
X186071Y197566D01*
X187033Y197965D01*
X187858Y198598D01*
X188492Y199424D01*
X188890Y200385D01*
X189026Y201417D01*
X188890Y202449D01*
X188492Y203411D01*
X187858Y204237D01*
X187033Y204870D01*
X186071Y205268D01*
X185039Y205404D01*
D02*
G37*
G36*
X211953Y195953D02*
X208500D01*
Y192500D01*
X211953D01*
Y195953D01*
D02*
G37*
G36*
X207500D02*
X204047D01*
Y192500D01*
X207500D01*
Y195953D01*
D02*
G37*
G36*
X30000Y199853D02*
X28968Y199717D01*
X28007Y199319D01*
X27181Y198685D01*
X26547Y197860D01*
X26149Y196898D01*
X26013Y195866D01*
X26149Y194834D01*
X26547Y193873D01*
X27181Y193047D01*
X28007Y192413D01*
X28968Y192015D01*
X30000Y191879D01*
X31032Y192015D01*
X31993Y192413D01*
X32819Y193047D01*
X33453Y193873D01*
X33851Y194834D01*
X33987Y195866D01*
X33851Y196898D01*
X33453Y197860D01*
X32819Y198685D01*
X31993Y199319D01*
X31032Y199717D01*
X30000Y199853D01*
D02*
G37*
G36*
X211953Y191500D02*
X208500D01*
Y188047D01*
X211953D01*
Y191500D01*
D02*
G37*
G36*
X207500D02*
X204047D01*
Y188047D01*
X207500D01*
Y191500D01*
D02*
G37*
G36*
X47244Y195719D02*
X46212Y195583D01*
X45251Y195185D01*
X44425Y194551D01*
X43791Y193726D01*
X43393Y192764D01*
X43257Y191732D01*
X43393Y190700D01*
X43791Y189739D01*
X44425Y188913D01*
X45251Y188280D01*
X46212Y187881D01*
X47244Y187745D01*
X48276Y187881D01*
X49237Y188280D01*
X50063Y188913D01*
X50697Y189739D01*
X51095Y190700D01*
X51231Y191732D01*
X51095Y192764D01*
X50697Y193726D01*
X50063Y194551D01*
X49237Y195185D01*
X48276Y195583D01*
X47244Y195719D01*
D02*
G37*
G36*
X125984Y195404D02*
X124952Y195268D01*
X123991Y194870D01*
X123165Y194237D01*
X122531Y193411D01*
X122133Y192449D01*
X121997Y191417D01*
X122133Y190385D01*
X122531Y189424D01*
X123165Y188598D01*
X123991Y187965D01*
X124952Y187566D01*
X125984Y187431D01*
X127016Y187566D01*
X127978Y187965D01*
X128803Y188598D01*
X129437Y189424D01*
X129835Y190385D01*
X129971Y191417D01*
X129835Y192449D01*
X129437Y193411D01*
X128803Y194237D01*
X127978Y194870D01*
X127016Y195268D01*
X125984Y195404D01*
D02*
G37*
G36*
X30000Y189853D02*
X28968Y189717D01*
X28007Y189319D01*
X27181Y188685D01*
X26547Y187860D01*
X26149Y186898D01*
X26013Y185866D01*
X26149Y184834D01*
X26547Y183873D01*
X27181Y183047D01*
X28007Y182413D01*
X28968Y182015D01*
X30000Y181879D01*
X31032Y182015D01*
X31993Y182413D01*
X32819Y183047D01*
X33453Y183873D01*
X33851Y184834D01*
X33987Y185866D01*
X33851Y186898D01*
X33453Y187860D01*
X32819Y188685D01*
X31993Y189319D01*
X31032Y189717D01*
X30000Y189853D01*
D02*
G37*
G36*
X208000Y185987D02*
X206968Y185851D01*
X206007Y185453D01*
X205181Y184819D01*
X204547Y183993D01*
X204149Y183032D01*
X204013Y182000D01*
X204149Y180968D01*
X204547Y180007D01*
X205181Y179181D01*
X206007Y178547D01*
X206968Y178149D01*
X208000Y178013D01*
X209032Y178149D01*
X209993Y178547D01*
X210819Y179181D01*
X211453Y180007D01*
X211851Y180968D01*
X211987Y182000D01*
X211851Y183032D01*
X211453Y183993D01*
X210819Y184819D01*
X209993Y185453D01*
X209032Y185851D01*
X208000Y185987D01*
D02*
G37*
G36*
X47244Y185719D02*
X46212Y185583D01*
X45251Y185185D01*
X44425Y184551D01*
X43791Y183726D01*
X43393Y182764D01*
X43257Y181732D01*
X43393Y180700D01*
X43791Y179739D01*
X44425Y178913D01*
X45251Y178280D01*
X46212Y177881D01*
X47244Y177745D01*
X48276Y177881D01*
X49237Y178280D01*
X50063Y178913D01*
X50697Y179739D01*
X51095Y180700D01*
X51231Y181732D01*
X51095Y182764D01*
X50697Y183726D01*
X50063Y184551D01*
X49237Y185185D01*
X48276Y185583D01*
X47244Y185719D01*
D02*
G37*
G36*
X185039Y185404D02*
X184008Y185268D01*
X183046Y184870D01*
X182220Y184237D01*
X181587Y183411D01*
X181188Y182449D01*
X181052Y181417D01*
X181188Y180385D01*
X181587Y179424D01*
X182220Y178598D01*
X183046Y177965D01*
X184008Y177566D01*
X185039Y177430D01*
X186071Y177566D01*
X187033Y177965D01*
X187858Y178598D01*
X188492Y179424D01*
X188890Y180385D01*
X189026Y181417D01*
X188890Y182449D01*
X188492Y183411D01*
X187858Y184237D01*
X187033Y184870D01*
X186071Y185268D01*
X185039Y185404D01*
D02*
G37*
G36*
X125984D02*
X124952Y185268D01*
X123991Y184870D01*
X123165Y184237D01*
X122531Y183411D01*
X122133Y182449D01*
X121997Y181417D01*
X122133Y180385D01*
X122531Y179424D01*
X123165Y178598D01*
X123991Y177965D01*
X124952Y177566D01*
X125984Y177430D01*
X127016Y177566D01*
X127978Y177965D01*
X128803Y178598D01*
X129437Y179424D01*
X129835Y180385D01*
X129971Y181417D01*
X129835Y182449D01*
X129437Y183411D01*
X128803Y184237D01*
X127978Y184870D01*
X127016Y185268D01*
X125984Y185404D01*
D02*
G37*
G36*
X33953Y179819D02*
X30500D01*
Y176366D01*
X33953D01*
Y179819D01*
D02*
G37*
G36*
X29500D02*
X26047D01*
Y176366D01*
X29500D01*
Y179819D01*
D02*
G37*
G36*
X208000Y217987D02*
X206968Y217851D01*
X206007Y217453D01*
X205181Y216819D01*
X204547Y215993D01*
X204149Y215032D01*
X204013Y214000D01*
X204149Y212968D01*
X204547Y212007D01*
X205181Y211181D01*
X206007Y210547D01*
X206063Y210524D01*
Y207497D01*
X193631Y195064D01*
X193211Y194436D01*
X193063Y193694D01*
Y182180D01*
X186128Y175245D01*
X186071Y175268D01*
X185039Y175404D01*
X184008Y175268D01*
X183046Y174870D01*
X182220Y174237D01*
X181587Y173411D01*
X181188Y172449D01*
X181052Y171417D01*
X181188Y170385D01*
X181587Y169424D01*
X182220Y168598D01*
X183046Y167965D01*
X184008Y167566D01*
X185039Y167430D01*
X186071Y167566D01*
X187033Y167965D01*
X187858Y168598D01*
X188492Y169424D01*
X188890Y170385D01*
X189026Y171417D01*
X188890Y172449D01*
X188867Y172506D01*
X196370Y180008D01*
X196789Y180637D01*
X196937Y181378D01*
Y192892D01*
X209369Y205325D01*
X209789Y205953D01*
X209937Y206694D01*
Y210524D01*
X209993Y210547D01*
X210819Y211181D01*
X211453Y212007D01*
X211851Y212968D01*
X211987Y214000D01*
X211851Y215032D01*
X211453Y215993D01*
X210819Y216819D01*
X209993Y217453D01*
X209032Y217851D01*
X208000Y217987D01*
D02*
G37*
G36*
X33953Y175366D02*
X30500D01*
Y171913D01*
X33953D01*
Y175366D01*
D02*
G37*
G36*
X29500D02*
X26047D01*
Y171913D01*
X29500D01*
Y175366D01*
D02*
G37*
G36*
X208000Y175987D02*
X206968Y175851D01*
X206007Y175453D01*
X205181Y174819D01*
X204547Y173993D01*
X204149Y173032D01*
X204013Y172000D01*
X204149Y170968D01*
X204547Y170007D01*
X205181Y169181D01*
X206007Y168547D01*
X206968Y168149D01*
X208000Y168013D01*
X209032Y168149D01*
X209993Y168547D01*
X210819Y169181D01*
X211453Y170007D01*
X211851Y170968D01*
X211987Y172000D01*
X211851Y173032D01*
X211453Y173993D01*
X210819Y174819D01*
X209993Y175453D01*
X209032Y175851D01*
X208000Y175987D01*
D02*
G37*
G36*
X106299Y175719D02*
X105267Y175583D01*
X104306Y175185D01*
X103480Y174551D01*
X102847Y173726D01*
X102448Y172764D01*
X102312Y171732D01*
X102448Y170700D01*
X102847Y169739D01*
X103480Y168913D01*
X104306Y168280D01*
X105267Y167881D01*
X106299Y167745D01*
X107331Y167881D01*
X108293Y168280D01*
X109118Y168913D01*
X109752Y169739D01*
X110150Y170700D01*
X110286Y171732D01*
X110150Y172764D01*
X109752Y173726D01*
X109118Y174551D01*
X108293Y175185D01*
X107331Y175583D01*
X106299Y175719D01*
D02*
G37*
G36*
X47244D02*
X46212Y175583D01*
X45251Y175185D01*
X44425Y174551D01*
X43791Y173726D01*
X43393Y172764D01*
X43257Y171732D01*
X43393Y170700D01*
X43791Y169739D01*
X44425Y168913D01*
X45251Y168280D01*
X46212Y167881D01*
X47244Y167745D01*
X48276Y167881D01*
X49237Y168280D01*
X50063Y168913D01*
X50697Y169739D01*
X51095Y170700D01*
X51231Y171732D01*
X51095Y172764D01*
X50697Y173726D01*
X50063Y174551D01*
X49237Y175185D01*
X48276Y175583D01*
X47244Y175719D01*
D02*
G37*
G36*
X125984Y175404D02*
X124952Y175268D01*
X123991Y174870D01*
X123165Y174237D01*
X122531Y173411D01*
X122133Y172449D01*
X121997Y171417D01*
X122133Y170385D01*
X122531Y169424D01*
X123165Y168598D01*
X123991Y167965D01*
X124952Y167566D01*
X125984Y167430D01*
X127016Y167566D01*
X127978Y167965D01*
X128803Y168598D01*
X129437Y169424D01*
X129835Y170385D01*
X129971Y171417D01*
X129835Y172449D01*
X129437Y173411D01*
X128803Y174237D01*
X127978Y174870D01*
X127016Y175268D01*
X125984Y175404D01*
D02*
G37*
G36*
X106299Y165719D02*
X105267Y165583D01*
X104306Y165185D01*
X103480Y164551D01*
X102847Y163726D01*
X102448Y162764D01*
X102312Y161732D01*
X102448Y160700D01*
X102847Y159739D01*
X103480Y158913D01*
X104306Y158280D01*
X105267Y157881D01*
X106299Y157745D01*
X107331Y157881D01*
X108293Y158280D01*
X109118Y158913D01*
X109752Y159739D01*
X110150Y160700D01*
X110286Y161732D01*
X110150Y162764D01*
X109752Y163726D01*
X109118Y164551D01*
X108293Y165185D01*
X107331Y165583D01*
X106299Y165719D01*
D02*
G37*
G36*
X47244D02*
X46212Y165583D01*
X45251Y165185D01*
X44425Y164551D01*
X43791Y163726D01*
X43393Y162764D01*
X43257Y161732D01*
X43393Y160700D01*
X43791Y159739D01*
X44425Y158913D01*
X45251Y158280D01*
X46212Y157881D01*
X47244Y157745D01*
X48276Y157881D01*
X49237Y158280D01*
X50063Y158913D01*
X50697Y159739D01*
X51095Y160700D01*
X51231Y161732D01*
X51095Y162764D01*
X50697Y163726D01*
X50063Y164551D01*
X49237Y165185D01*
X48276Y165583D01*
X47244Y165719D01*
D02*
G37*
G36*
X125984Y165404D02*
X124952Y165268D01*
X123991Y164870D01*
X123165Y164236D01*
X122531Y163411D01*
X122133Y162449D01*
X121997Y161417D01*
X122133Y160385D01*
X122531Y159424D01*
X123165Y158598D01*
X123991Y157965D01*
X124952Y157566D01*
X125984Y157431D01*
X127016Y157566D01*
X127978Y157965D01*
X128803Y158598D01*
X129437Y159424D01*
X129835Y160385D01*
X129971Y161417D01*
X129835Y162449D01*
X129437Y163411D01*
X128803Y164236D01*
X127978Y164870D01*
X127016Y165268D01*
X125984Y165404D01*
D02*
G37*
G36*
X211953Y153717D02*
X208500D01*
Y150264D01*
X211953D01*
Y153717D01*
D02*
G37*
G36*
X207500D02*
X204047D01*
Y150264D01*
X207500D01*
Y153717D01*
D02*
G37*
G36*
X106299Y155719D02*
X105267Y155583D01*
X104306Y155185D01*
X103480Y154551D01*
X102847Y153726D01*
X102448Y152764D01*
X102312Y151732D01*
X102448Y150700D01*
X102847Y149739D01*
X103480Y148913D01*
X103847Y148632D01*
X103677Y148132D01*
X49866D01*
X49696Y148632D01*
X50063Y148913D01*
X50697Y149739D01*
X51095Y150700D01*
X51231Y151732D01*
X51095Y152764D01*
X50697Y153726D01*
X50063Y154551D01*
X49237Y155185D01*
X48276Y155583D01*
X47244Y155719D01*
X46212Y155583D01*
X45251Y155185D01*
X44425Y154551D01*
X43791Y153726D01*
X43393Y152764D01*
X43257Y151732D01*
X43393Y150700D01*
X43791Y149739D01*
X44425Y148913D01*
X44792Y148632D01*
X44622Y148132D01*
X41500D01*
X40876Y148008D01*
X40346Y147654D01*
X39324Y146632D01*
X33602D01*
X33453Y146993D01*
X32819Y147819D01*
X31993Y148453D01*
X31032Y148851D01*
X30000Y148987D01*
X28968Y148851D01*
X28007Y148453D01*
X27181Y147819D01*
X26547Y146993D01*
X26149Y146032D01*
X26013Y145000D01*
X26149Y143968D01*
X26547Y143007D01*
X27181Y142181D01*
X28007Y141547D01*
X28968Y141149D01*
X30000Y141013D01*
X31032Y141149D01*
X31993Y141547D01*
X32819Y142181D01*
X33453Y143007D01*
X33602Y143368D01*
X40000D01*
X40624Y143492D01*
X41154Y143846D01*
X42176Y144868D01*
X44050D01*
X44284Y144368D01*
X43791Y143726D01*
X43393Y142764D01*
X43257Y141732D01*
X43393Y140700D01*
X43791Y139739D01*
X44425Y138913D01*
X45251Y138280D01*
X46212Y137881D01*
X47244Y137745D01*
X48276Y137881D01*
X49237Y138280D01*
X50063Y138913D01*
X50697Y139739D01*
X51095Y140700D01*
X51231Y141732D01*
X51095Y142764D01*
X50697Y143726D01*
X50204Y144368D01*
X50438Y144868D01*
X103105D01*
X103340Y144368D01*
X102847Y143726D01*
X102448Y142764D01*
X102312Y141732D01*
X102448Y140700D01*
X102847Y139739D01*
X103480Y138913D01*
X104306Y138280D01*
X105267Y137881D01*
X106299Y137745D01*
X107331Y137881D01*
X108293Y138280D01*
X109118Y138913D01*
X109752Y139739D01*
X110150Y140700D01*
X110286Y141732D01*
X110150Y142764D01*
X109752Y143726D01*
X109259Y144368D01*
X109494Y144868D01*
X120226D01*
X122283Y142811D01*
X122133Y142449D01*
X121997Y141417D01*
X122133Y140385D01*
X122531Y139424D01*
X123165Y138598D01*
X123991Y137965D01*
X124952Y137566D01*
X125984Y137431D01*
X127016Y137566D01*
X127978Y137965D01*
X128803Y138598D01*
X129437Y139424D01*
X129835Y140385D01*
X129971Y141417D01*
X129835Y142449D01*
X129437Y143411D01*
X128803Y144237D01*
X127978Y144870D01*
X127016Y145268D01*
X125984Y145404D01*
X124952Y145268D01*
X124591Y145118D01*
X122055Y147654D01*
X121526Y148008D01*
X120902Y148132D01*
X108921D01*
X108752Y148632D01*
X109118Y148913D01*
X109752Y149739D01*
X110150Y150700D01*
X110286Y151732D01*
X110150Y152764D01*
X109752Y153726D01*
X109118Y154551D01*
X108293Y155185D01*
X107331Y155583D01*
X106299Y155719D01*
D02*
G37*
G36*
X185039Y155404D02*
X184008Y155268D01*
X183046Y154870D01*
X182220Y154236D01*
X181587Y153411D01*
X181188Y152449D01*
X181052Y151417D01*
X181188Y150385D01*
X181587Y149424D01*
X182220Y148598D01*
X183046Y147965D01*
X184008Y147566D01*
X185039Y147431D01*
X186071Y147566D01*
X187033Y147965D01*
X187858Y148598D01*
X188492Y149424D01*
X188890Y150385D01*
X189026Y151417D01*
X188890Y152449D01*
X188492Y153411D01*
X187858Y154236D01*
X187033Y154870D01*
X186071Y155268D01*
X185039Y155404D01*
D02*
G37*
G36*
X125984D02*
X124952Y155268D01*
X123991Y154870D01*
X123165Y154236D01*
X122531Y153411D01*
X122133Y152449D01*
X121997Y151417D01*
X122133Y150385D01*
X122531Y149424D01*
X123165Y148598D01*
X123991Y147965D01*
X124952Y147566D01*
X125984Y147431D01*
X127016Y147566D01*
X127978Y147965D01*
X128803Y148598D01*
X129437Y149424D01*
X129835Y150385D01*
X129971Y151417D01*
X129835Y152449D01*
X129437Y153411D01*
X128803Y154236D01*
X127978Y154870D01*
X127016Y155268D01*
X125984Y155404D01*
D02*
G37*
G36*
X211953Y149264D02*
X208500D01*
Y145811D01*
X211953D01*
Y149264D01*
D02*
G37*
G36*
X207500D02*
X204047D01*
Y145811D01*
X207500D01*
Y149264D01*
D02*
G37*
G36*
X185039Y145404D02*
X184008Y145268D01*
X183046Y144870D01*
X182220Y144237D01*
X181587Y143411D01*
X181188Y142449D01*
X181052Y141417D01*
X181188Y140385D01*
X181587Y139424D01*
X182220Y138598D01*
X183046Y137965D01*
X184008Y137566D01*
X185039Y137431D01*
X186071Y137566D01*
X187033Y137965D01*
X187858Y138598D01*
X188492Y139424D01*
X188890Y140385D01*
X189026Y141417D01*
X188890Y142449D01*
X188492Y143411D01*
X187858Y144237D01*
X187033Y144870D01*
X186071Y145268D01*
X185039Y145404D01*
D02*
G37*
G36*
X30000Y138987D02*
X28968Y138851D01*
X28007Y138453D01*
X27181Y137819D01*
X26547Y136993D01*
X26149Y136032D01*
X26013Y135000D01*
X26149Y133968D01*
X26547Y133007D01*
X27181Y132181D01*
X28007Y131547D01*
X28968Y131149D01*
X30000Y131013D01*
X31032Y131149D01*
X31993Y131547D01*
X32819Y132181D01*
X33453Y133007D01*
X33851Y133968D01*
X33987Y135000D01*
X33851Y136032D01*
X33453Y136993D01*
X32819Y137819D01*
X31993Y138453D01*
X31032Y138851D01*
X30000Y138987D01*
D02*
G37*
G36*
X106299Y135719D02*
X105267Y135583D01*
X104306Y135185D01*
X103480Y134551D01*
X102847Y133726D01*
X102448Y132764D01*
X102312Y131732D01*
X102448Y130700D01*
X102847Y129739D01*
X103480Y128913D01*
X104306Y128280D01*
X105267Y127881D01*
X106299Y127745D01*
X107331Y127881D01*
X108293Y128280D01*
X109118Y128913D01*
X109752Y129739D01*
X110150Y130700D01*
X110286Y131732D01*
X110150Y132764D01*
X109752Y133726D01*
X109118Y134551D01*
X108293Y135185D01*
X107331Y135583D01*
X106299Y135719D01*
D02*
G37*
G36*
X47244D02*
X46212Y135583D01*
X45251Y135185D01*
X44425Y134551D01*
X43791Y133726D01*
X43393Y132764D01*
X43257Y131732D01*
X43393Y130700D01*
X43791Y129739D01*
X44425Y128913D01*
X45251Y128280D01*
X46212Y127881D01*
X47244Y127745D01*
X48276Y127881D01*
X49237Y128280D01*
X50063Y128913D01*
X50697Y129739D01*
X51095Y130700D01*
X51231Y131732D01*
X51095Y132764D01*
X50697Y133726D01*
X50063Y134551D01*
X49237Y135185D01*
X48276Y135583D01*
X47244Y135719D01*
D02*
G37*
G36*
X185039Y135404D02*
X184008Y135268D01*
X183046Y134870D01*
X182220Y134237D01*
X181587Y133411D01*
X181188Y132449D01*
X181052Y131417D01*
X181188Y130385D01*
X181587Y129424D01*
X182220Y128598D01*
X183046Y127965D01*
X184008Y127566D01*
X185039Y127430D01*
X186071Y127566D01*
X187033Y127965D01*
X187858Y128598D01*
X188492Y129424D01*
X188890Y130385D01*
X189026Y131417D01*
X188890Y132449D01*
X188492Y133411D01*
X187858Y134237D01*
X187033Y134870D01*
X186071Y135268D01*
X185039Y135404D01*
D02*
G37*
G36*
X30000Y128987D02*
X28968Y128851D01*
X28007Y128453D01*
X27181Y127819D01*
X26547Y126993D01*
X26149Y126032D01*
X26013Y125000D01*
X26149Y123968D01*
X26547Y123007D01*
X27181Y122181D01*
X28007Y121547D01*
X28968Y121149D01*
X30000Y121013D01*
X31032Y121149D01*
X31993Y121547D01*
X32819Y122181D01*
X33453Y123007D01*
X33851Y123968D01*
X33987Y125000D01*
X33851Y126032D01*
X33453Y126993D01*
X32819Y127819D01*
X31993Y128453D01*
X31032Y128851D01*
X30000Y128987D01*
D02*
G37*
G36*
X33953Y118953D02*
X30500D01*
Y115500D01*
X33953D01*
Y118953D01*
D02*
G37*
G36*
X29500D02*
X26047D01*
Y115500D01*
X29500D01*
Y118953D01*
D02*
G37*
G36*
X33953Y114500D02*
X30500D01*
Y111047D01*
X33953D01*
Y114500D01*
D02*
G37*
G36*
X29500D02*
X26047D01*
Y111047D01*
X29500D01*
Y114500D01*
D02*
G37*
G36*
X220000Y107334D02*
X218569Y107194D01*
X217193Y106776D01*
X215925Y106098D01*
X214814Y105186D01*
X213902Y104075D01*
X213224Y102807D01*
X212806Y101431D01*
X212666Y100000D01*
X212806Y98569D01*
X213224Y97193D01*
X213902Y95925D01*
X214814Y94814D01*
X215925Y93902D01*
X217193Y93224D01*
X218569Y92806D01*
X220000Y92665D01*
X221431Y92806D01*
X222807Y93224D01*
X224075Y93902D01*
X225186Y94814D01*
X226098Y95925D01*
X226776Y97193D01*
X227194Y98569D01*
X227334Y100000D01*
X227194Y101431D01*
X226776Y102807D01*
X226098Y104075D01*
X225186Y105186D01*
X224075Y106098D01*
X222807Y106776D01*
X221431Y107194D01*
X220000Y107334D01*
D02*
G37*
G36*
X30000Y71821D02*
X28968Y71686D01*
X28007Y71287D01*
X27181Y70654D01*
X26547Y69828D01*
X26149Y68866D01*
X26013Y67835D01*
X26149Y66803D01*
X26547Y65841D01*
X27181Y65016D01*
X28007Y64382D01*
X28968Y63984D01*
X30000Y63848D01*
X31032Y63984D01*
X31993Y64382D01*
X32819Y65016D01*
X33453Y65841D01*
X33851Y66803D01*
X33987Y67835D01*
X33851Y68866D01*
X33453Y69828D01*
X32819Y70654D01*
X31993Y71287D01*
X31032Y71686D01*
X30000Y71821D01*
D02*
G37*
G36*
Y61822D02*
X28968Y61686D01*
X28007Y61287D01*
X27181Y60654D01*
X26547Y59828D01*
X26149Y58867D01*
X26013Y57835D01*
X26149Y56803D01*
X26547Y55841D01*
X27181Y55015D01*
X28007Y54382D01*
X28968Y53984D01*
X30000Y53848D01*
X31032Y53984D01*
X31993Y54382D01*
X32819Y55015D01*
X33453Y55841D01*
X33851Y56803D01*
X33987Y57835D01*
X33851Y58867D01*
X33453Y59828D01*
X32819Y60654D01*
X31993Y61287D01*
X31032Y61686D01*
X30000Y61822D01*
D02*
G37*
G36*
X33953Y51787D02*
X30500D01*
Y48335D01*
X33953D01*
Y51787D01*
D02*
G37*
G36*
X29500D02*
X26047D01*
Y48335D01*
X29500D01*
Y51787D01*
D02*
G37*
G36*
X33953Y47335D02*
X30500D01*
Y43882D01*
X33953D01*
Y47335D01*
D02*
G37*
G36*
X29500D02*
X26047D01*
Y43882D01*
X29500D01*
Y47335D01*
D02*
G37*
G36*
X200764Y49031D02*
X192858D01*
Y41126D01*
X200764D01*
Y49031D01*
D02*
G37*
G36*
X186811Y49066D02*
X185779Y48930D01*
X184818Y48531D01*
X183992Y47898D01*
X183358Y47072D01*
X182960Y46111D01*
X182824Y45079D01*
X182960Y44047D01*
X183358Y43085D01*
X183992Y42260D01*
X184818Y41626D01*
X185779Y41228D01*
X186811Y41092D01*
X187843Y41228D01*
X188804Y41626D01*
X189630Y42260D01*
X190264Y43085D01*
X190662Y44047D01*
X190798Y45079D01*
X190662Y46111D01*
X190264Y47072D01*
X189630Y47898D01*
X188804Y48531D01*
X187843Y48930D01*
X186811Y49066D01*
D02*
G37*
G36*
X176811D02*
X175779Y48930D01*
X174818Y48531D01*
X173992Y47898D01*
X173358Y47072D01*
X172960Y46111D01*
X172824Y45079D01*
X172960Y44047D01*
X173358Y43085D01*
X173992Y42260D01*
X174818Y41626D01*
X175779Y41228D01*
X176811Y41092D01*
X177843Y41228D01*
X178805Y41626D01*
X179630Y42260D01*
X180264Y43085D01*
X180662Y44047D01*
X180798Y45079D01*
X180662Y46111D01*
X180264Y47072D01*
X179630Y47898D01*
X178805Y48531D01*
X177843Y48930D01*
X176811Y49066D01*
D02*
G37*
G36*
X166811D02*
X165779Y48930D01*
X164818Y48531D01*
X163992Y47898D01*
X163358Y47072D01*
X162960Y46111D01*
X162824Y45079D01*
X162960Y44047D01*
X163358Y43085D01*
X163992Y42260D01*
X164818Y41626D01*
X165779Y41228D01*
X166811Y41092D01*
X167843Y41228D01*
X168805Y41626D01*
X169630Y42260D01*
X170264Y43085D01*
X170662Y44047D01*
X170798Y45079D01*
X170662Y46111D01*
X170264Y47072D01*
X169630Y47898D01*
X168805Y48531D01*
X167843Y48930D01*
X166811Y49066D01*
D02*
G37*
G36*
X156811D02*
X155779Y48930D01*
X154818Y48531D01*
X153992Y47898D01*
X153358Y47072D01*
X152960Y46111D01*
X152824Y45079D01*
X152960Y44047D01*
X153358Y43085D01*
X153992Y42260D01*
X154818Y41626D01*
X155779Y41228D01*
X156811Y41092D01*
X157843Y41228D01*
X158805Y41626D01*
X159630Y42260D01*
X160264Y43085D01*
X160662Y44047D01*
X160798Y45079D01*
X160662Y46111D01*
X160264Y47072D01*
X159630Y47898D01*
X158805Y48531D01*
X157843Y48930D01*
X156811Y49066D01*
D02*
G37*
G36*
X146811D02*
X145779Y48930D01*
X144818Y48531D01*
X143992Y47898D01*
X143358Y47072D01*
X142960Y46111D01*
X142824Y45079D01*
X142960Y44047D01*
X143358Y43085D01*
X143992Y42260D01*
X144818Y41626D01*
X145779Y41228D01*
X146811Y41092D01*
X147843Y41228D01*
X148804Y41626D01*
X149630Y42260D01*
X150264Y43085D01*
X150662Y44047D01*
X150798Y45079D01*
X150662Y46111D01*
X150264Y47072D01*
X149630Y47898D01*
X148804Y48531D01*
X147843Y48930D01*
X146811Y49066D01*
D02*
G37*
G36*
X136811D02*
X135779Y48930D01*
X134818Y48531D01*
X133992Y47898D01*
X133358Y47072D01*
X132960Y46111D01*
X132824Y45079D01*
X132960Y44047D01*
X133358Y43085D01*
X133992Y42260D01*
X134818Y41626D01*
X135779Y41228D01*
X136811Y41092D01*
X137843Y41228D01*
X138804Y41626D01*
X139630Y42260D01*
X140264Y43085D01*
X140662Y44047D01*
X140798Y45079D01*
X140662Y46111D01*
X140264Y47072D01*
X139630Y47898D01*
X138804Y48531D01*
X137843Y48930D01*
X136811Y49066D01*
D02*
G37*
G36*
X126811D02*
X125779Y48930D01*
X124818Y48531D01*
X123992Y47898D01*
X123358Y47072D01*
X122960Y46111D01*
X122824Y45079D01*
X122960Y44047D01*
X123358Y43085D01*
X123992Y42260D01*
X124818Y41626D01*
X125779Y41228D01*
X126811Y41092D01*
X127843Y41228D01*
X128805Y41626D01*
X129630Y42260D01*
X130264Y43085D01*
X130662Y44047D01*
X130798Y45079D01*
X130662Y46111D01*
X130264Y47072D01*
X129630Y47898D01*
X128805Y48531D01*
X127843Y48930D01*
X126811Y49066D01*
D02*
G37*
G36*
X116811D02*
X115779Y48930D01*
X114818Y48531D01*
X113992Y47898D01*
X113358Y47072D01*
X112960Y46111D01*
X112824Y45079D01*
X112960Y44047D01*
X113358Y43085D01*
X113992Y42260D01*
X114818Y41626D01*
X115779Y41228D01*
X116811Y41092D01*
X117843Y41228D01*
X118805Y41626D01*
X119630Y42260D01*
X120264Y43085D01*
X120662Y44047D01*
X120798Y45079D01*
X120662Y46111D01*
X120264Y47072D01*
X119630Y47898D01*
X118805Y48531D01*
X117843Y48930D01*
X116811Y49066D01*
D02*
G37*
G36*
X106811D02*
X105779Y48930D01*
X104818Y48531D01*
X103992Y47898D01*
X103358Y47072D01*
X102960Y46111D01*
X102824Y45079D01*
X102960Y44047D01*
X103358Y43085D01*
X103992Y42260D01*
X104818Y41626D01*
X105779Y41228D01*
X106811Y41092D01*
X107843Y41228D01*
X108805Y41626D01*
X109630Y42260D01*
X110264Y43085D01*
X110662Y44047D01*
X110798Y45079D01*
X110662Y46111D01*
X110264Y47072D01*
X109630Y47898D01*
X108805Y48531D01*
X107843Y48930D01*
X106811Y49066D01*
D02*
G37*
G36*
X96811D02*
X95779Y48930D01*
X94818Y48531D01*
X93992Y47898D01*
X93358Y47072D01*
X92960Y46111D01*
X92824Y45079D01*
X92960Y44047D01*
X93358Y43085D01*
X93992Y42260D01*
X94818Y41626D01*
X95779Y41228D01*
X96811Y41092D01*
X97843Y41228D01*
X98804Y41626D01*
X99630Y42260D01*
X100264Y43085D01*
X100662Y44047D01*
X100798Y45079D01*
X100662Y46111D01*
X100264Y47072D01*
X99630Y47898D01*
X98804Y48531D01*
X97843Y48930D01*
X96811Y49066D01*
D02*
G37*
G36*
X86811D02*
X85779Y48930D01*
X84818Y48531D01*
X83992Y47898D01*
X83358Y47072D01*
X82960Y46111D01*
X82824Y45079D01*
X82960Y44047D01*
X83358Y43085D01*
X83992Y42260D01*
X84818Y41626D01*
X85779Y41228D01*
X86811Y41092D01*
X87843Y41228D01*
X88805Y41626D01*
X89630Y42260D01*
X90264Y43085D01*
X90662Y44047D01*
X90798Y45079D01*
X90662Y46111D01*
X90264Y47072D01*
X89630Y47898D01*
X88805Y48531D01*
X87843Y48930D01*
X86811Y49066D01*
D02*
G37*
G36*
X76811D02*
X75779Y48930D01*
X74818Y48531D01*
X73992Y47898D01*
X73358Y47072D01*
X72960Y46111D01*
X72824Y45079D01*
X72960Y44047D01*
X73358Y43085D01*
X73992Y42260D01*
X74818Y41626D01*
X75779Y41228D01*
X76811Y41092D01*
X77843Y41228D01*
X78804Y41626D01*
X79630Y42260D01*
X80264Y43085D01*
X80662Y44047D01*
X80798Y45079D01*
X80662Y46111D01*
X80264Y47072D01*
X79630Y47898D01*
X78804Y48531D01*
X77843Y48930D01*
X76811Y49066D01*
D02*
G37*
G36*
X66811D02*
X65779Y48930D01*
X64818Y48531D01*
X63992Y47898D01*
X63358Y47072D01*
X62960Y46111D01*
X62824Y45079D01*
X62960Y44047D01*
X63358Y43085D01*
X63992Y42260D01*
X64818Y41626D01*
X65779Y41228D01*
X66811Y41092D01*
X67843Y41228D01*
X68805Y41626D01*
X69630Y42260D01*
X70264Y43085D01*
X70662Y44047D01*
X70798Y45079D01*
X70662Y46111D01*
X70264Y47072D01*
X69630Y47898D01*
X68805Y48531D01*
X67843Y48930D01*
X66811Y49066D01*
D02*
G37*
G36*
X56811D02*
X55779Y48930D01*
X54818Y48531D01*
X53992Y47898D01*
X53358Y47072D01*
X52960Y46111D01*
X52824Y45079D01*
X52960Y44047D01*
X53358Y43085D01*
X53992Y42260D01*
X54818Y41626D01*
X55779Y41228D01*
X56811Y41092D01*
X57843Y41228D01*
X58805Y41626D01*
X59630Y42260D01*
X60264Y43085D01*
X60662Y44047D01*
X60798Y45079D01*
X60662Y46111D01*
X60264Y47072D01*
X59630Y47898D01*
X58805Y48531D01*
X57843Y48930D01*
X56811Y49066D01*
D02*
G37*
G36*
X46811D02*
X45779Y48930D01*
X44818Y48531D01*
X43992Y47898D01*
X43358Y47072D01*
X42960Y46111D01*
X42824Y45079D01*
X42960Y44047D01*
X43358Y43085D01*
X43992Y42260D01*
X44818Y41626D01*
X45779Y41228D01*
X46811Y41092D01*
X47843Y41228D01*
X48805Y41626D01*
X49630Y42260D01*
X50264Y43085D01*
X50662Y44047D01*
X50798Y45079D01*
X50662Y46111D01*
X50264Y47072D01*
X49630Y47898D01*
X48805Y48531D01*
X47843Y48930D01*
X46811Y49066D01*
D02*
G37*
G36*
X200803Y32496D02*
X192898D01*
Y24591D01*
X200803D01*
Y32496D01*
D02*
G37*
G36*
X186850Y32530D02*
X185819Y32394D01*
X184857Y31996D01*
X184031Y31363D01*
X183398Y30537D01*
X182999Y29575D01*
X182863Y28543D01*
X182999Y27511D01*
X183398Y26550D01*
X184031Y25724D01*
X184857Y25091D01*
X185819Y24692D01*
X186850Y24556D01*
X187882Y24692D01*
X188844Y25091D01*
X189670Y25724D01*
X190303Y26550D01*
X190701Y27511D01*
X190837Y28543D01*
X190701Y29575D01*
X190303Y30537D01*
X189670Y31363D01*
X188844Y31996D01*
X187882Y32394D01*
X186850Y32530D01*
D02*
G37*
G36*
X176850D02*
X175819Y32394D01*
X174857Y31996D01*
X174031Y31363D01*
X173398Y30537D01*
X172999Y29575D01*
X172863Y28543D01*
X172999Y27511D01*
X173398Y26550D01*
X174031Y25724D01*
X174857Y25091D01*
X175819Y24692D01*
X176850Y24556D01*
X177882Y24692D01*
X178844Y25091D01*
X179669Y25724D01*
X180303Y26550D01*
X180701Y27511D01*
X180837Y28543D01*
X180701Y29575D01*
X180303Y30537D01*
X179669Y31363D01*
X178844Y31996D01*
X177882Y32394D01*
X176850Y32530D01*
D02*
G37*
G36*
X166850D02*
X165819Y32394D01*
X164857Y31996D01*
X164031Y31363D01*
X163398Y30537D01*
X162999Y29575D01*
X162864Y28543D01*
X162999Y27511D01*
X163398Y26550D01*
X164031Y25724D01*
X164857Y25091D01*
X165819Y24692D01*
X166850Y24556D01*
X167882Y24692D01*
X168844Y25091D01*
X169669Y25724D01*
X170303Y26550D01*
X170701Y27511D01*
X170837Y28543D01*
X170701Y29575D01*
X170303Y30537D01*
X169669Y31363D01*
X168844Y31996D01*
X167882Y32394D01*
X166850Y32530D01*
D02*
G37*
G36*
X156850D02*
X155818Y32394D01*
X154857Y31996D01*
X154031Y31363D01*
X153398Y30537D01*
X152999Y29575D01*
X152864Y28543D01*
X152999Y27511D01*
X153398Y26550D01*
X154031Y25724D01*
X154857Y25091D01*
X155818Y24692D01*
X156850Y24556D01*
X157882Y24692D01*
X158844Y25091D01*
X159669Y25724D01*
X160303Y26550D01*
X160701Y27511D01*
X160837Y28543D01*
X160701Y29575D01*
X160303Y30537D01*
X159669Y31363D01*
X158844Y31996D01*
X157882Y32394D01*
X156850Y32530D01*
D02*
G37*
G36*
X146850D02*
X145818Y32394D01*
X144857Y31996D01*
X144031Y31363D01*
X143398Y30537D01*
X142999Y29575D01*
X142864Y28543D01*
X142999Y27511D01*
X143398Y26550D01*
X144031Y25724D01*
X144857Y25091D01*
X145818Y24692D01*
X146850Y24556D01*
X147882Y24692D01*
X148844Y25091D01*
X149670Y25724D01*
X150303Y26550D01*
X150701Y27511D01*
X150837Y28543D01*
X150701Y29575D01*
X150303Y30537D01*
X149670Y31363D01*
X148844Y31996D01*
X147882Y32394D01*
X146850Y32530D01*
D02*
G37*
G36*
X136850D02*
X135819Y32394D01*
X134857Y31996D01*
X134031Y31363D01*
X133398Y30537D01*
X132999Y29575D01*
X132863Y28543D01*
X132999Y27511D01*
X133398Y26550D01*
X134031Y25724D01*
X134857Y25091D01*
X135819Y24692D01*
X136850Y24556D01*
X137882Y24692D01*
X138844Y25091D01*
X139670Y25724D01*
X140303Y26550D01*
X140701Y27511D01*
X140837Y28543D01*
X140701Y29575D01*
X140303Y30537D01*
X139670Y31363D01*
X138844Y31996D01*
X137882Y32394D01*
X136850Y32530D01*
D02*
G37*
G36*
X126850D02*
X125819Y32394D01*
X124857Y31996D01*
X124031Y31363D01*
X123398Y30537D01*
X122999Y29575D01*
X122863Y28543D01*
X122999Y27511D01*
X123398Y26550D01*
X124031Y25724D01*
X124857Y25091D01*
X125819Y24692D01*
X126850Y24556D01*
X127882Y24692D01*
X128844Y25091D01*
X129669Y25724D01*
X130303Y26550D01*
X130701Y27511D01*
X130837Y28543D01*
X130701Y29575D01*
X130303Y30537D01*
X129669Y31363D01*
X128844Y31996D01*
X127882Y32394D01*
X126850Y32530D01*
D02*
G37*
G36*
X116850D02*
X115819Y32394D01*
X114857Y31996D01*
X114031Y31363D01*
X113398Y30537D01*
X112999Y29575D01*
X112864Y28543D01*
X112999Y27511D01*
X113398Y26550D01*
X114031Y25724D01*
X114857Y25091D01*
X115819Y24692D01*
X116850Y24556D01*
X117882Y24692D01*
X118844Y25091D01*
X119669Y25724D01*
X120303Y26550D01*
X120701Y27511D01*
X120837Y28543D01*
X120701Y29575D01*
X120303Y30537D01*
X119669Y31363D01*
X118844Y31996D01*
X117882Y32394D01*
X116850Y32530D01*
D02*
G37*
G36*
X106850D02*
X105818Y32394D01*
X104857Y31996D01*
X104031Y31363D01*
X103398Y30537D01*
X102999Y29575D01*
X102864Y28543D01*
X102999Y27511D01*
X103398Y26550D01*
X104031Y25724D01*
X104857Y25091D01*
X105818Y24692D01*
X106850Y24556D01*
X107882Y24692D01*
X108844Y25091D01*
X109669Y25724D01*
X110303Y26550D01*
X110701Y27511D01*
X110837Y28543D01*
X110701Y29575D01*
X110303Y30537D01*
X109669Y31363D01*
X108844Y31996D01*
X107882Y32394D01*
X106850Y32530D01*
D02*
G37*
G36*
X96850D02*
X95819Y32394D01*
X94857Y31996D01*
X94031Y31363D01*
X93398Y30537D01*
X92999Y29575D01*
X92864Y28543D01*
X92999Y27511D01*
X93398Y26550D01*
X94031Y25724D01*
X94857Y25091D01*
X95819Y24692D01*
X96850Y24556D01*
X97882Y24692D01*
X98844Y25091D01*
X99669Y25724D01*
X100303Y26550D01*
X100701Y27511D01*
X100837Y28543D01*
X100701Y29575D01*
X100303Y30537D01*
X99669Y31363D01*
X98844Y31996D01*
X97882Y32394D01*
X96850Y32530D01*
D02*
G37*
G36*
X86850D02*
X85818Y32394D01*
X84857Y31996D01*
X84031Y31363D01*
X83398Y30537D01*
X82999Y29575D01*
X82863Y28543D01*
X82999Y27511D01*
X83398Y26550D01*
X84031Y25724D01*
X84857Y25091D01*
X85818Y24692D01*
X86850Y24556D01*
X87882Y24692D01*
X88844Y25091D01*
X89670Y25724D01*
X90303Y26550D01*
X90701Y27511D01*
X90837Y28543D01*
X90701Y29575D01*
X90303Y30537D01*
X89670Y31363D01*
X88844Y31996D01*
X87882Y32394D01*
X86850Y32530D01*
D02*
G37*
G36*
X76850D02*
X75819Y32394D01*
X74857Y31996D01*
X74031Y31363D01*
X73398Y30537D01*
X72999Y29575D01*
X72864Y28543D01*
X72999Y27511D01*
X73398Y26550D01*
X74031Y25724D01*
X74857Y25091D01*
X75819Y24692D01*
X76850Y24556D01*
X77882Y24692D01*
X78844Y25091D01*
X79669Y25724D01*
X80303Y26550D01*
X80701Y27511D01*
X80837Y28543D01*
X80701Y29575D01*
X80303Y30537D01*
X79669Y31363D01*
X78844Y31996D01*
X77882Y32394D01*
X76850Y32530D01*
D02*
G37*
G36*
X66850D02*
X65819Y32394D01*
X64857Y31996D01*
X64031Y31363D01*
X63398Y30537D01*
X62999Y29575D01*
X62863Y28543D01*
X62999Y27511D01*
X63398Y26550D01*
X64031Y25724D01*
X64857Y25091D01*
X65819Y24692D01*
X66850Y24556D01*
X67882Y24692D01*
X68844Y25091D01*
X69670Y25724D01*
X70303Y26550D01*
X70701Y27511D01*
X70837Y28543D01*
X70701Y29575D01*
X70303Y30537D01*
X69670Y31363D01*
X68844Y31996D01*
X67882Y32394D01*
X66850Y32530D01*
D02*
G37*
G36*
X56850D02*
X55818Y32394D01*
X54857Y31996D01*
X54031Y31363D01*
X53398Y30537D01*
X52999Y29575D01*
X52864Y28543D01*
X52999Y27511D01*
X53398Y26550D01*
X54031Y25724D01*
X54857Y25091D01*
X55818Y24692D01*
X56850Y24556D01*
X57882Y24692D01*
X58844Y25091D01*
X59670Y25724D01*
X60303Y26550D01*
X60701Y27511D01*
X60837Y28543D01*
X60701Y29575D01*
X60303Y30537D01*
X59670Y31363D01*
X58844Y31996D01*
X57882Y32394D01*
X56850Y32530D01*
D02*
G37*
G36*
X46850D02*
X45818Y32394D01*
X44857Y31996D01*
X44031Y31363D01*
X43398Y30537D01*
X42999Y29575D01*
X42864Y28543D01*
X42999Y27511D01*
X43398Y26550D01*
X44031Y25724D01*
X44857Y25091D01*
X45818Y24692D01*
X46850Y24556D01*
X47882Y24692D01*
X48844Y25091D01*
X49670Y25724D01*
X50303Y26550D01*
X50701Y27511D01*
X50837Y28543D01*
X50701Y29575D01*
X50303Y30537D01*
X49670Y31363D01*
X48844Y31996D01*
X47882Y32394D01*
X46850Y32530D01*
D02*
G37*
G36*
X220000Y27334D02*
X218569Y27194D01*
X217193Y26776D01*
X215925Y26098D01*
X214814Y25186D01*
X213902Y24075D01*
X213224Y22807D01*
X212806Y21431D01*
X212666Y20000D01*
X212806Y18569D01*
X213224Y17193D01*
X213902Y15925D01*
X214814Y14814D01*
X215925Y13902D01*
X217193Y13224D01*
X218569Y12806D01*
X220000Y12665D01*
X221431Y12806D01*
X222807Y13224D01*
X224075Y13902D01*
X225186Y14814D01*
X226098Y15925D01*
X226776Y17193D01*
X227194Y18569D01*
X227334Y20000D01*
X227194Y21431D01*
X226776Y22807D01*
X226098Y24075D01*
X225186Y25186D01*
X224075Y26098D01*
X222807Y26776D01*
X221431Y27194D01*
X220000Y27334D01*
D02*
G37*
G36*
X20000D02*
X18569Y27194D01*
X17193Y26776D01*
X15925Y26098D01*
X14814Y25186D01*
X13902Y24075D01*
X13224Y22807D01*
X12806Y21431D01*
X12665Y20000D01*
X12806Y18569D01*
X13224Y17193D01*
X13902Y15925D01*
X14814Y14814D01*
X15925Y13902D01*
X17193Y13224D01*
X18569Y12806D01*
X20000Y12665D01*
X21431Y12806D01*
X22807Y13224D01*
X24075Y13902D01*
X25186Y14814D01*
X26098Y15925D01*
X26776Y17193D01*
X27194Y18569D01*
X27334Y20000D01*
X27194Y21431D01*
X26776Y22807D01*
X26098Y24075D01*
X25186Y25186D01*
X24075Y26098D01*
X22807Y26776D01*
X21431Y27194D01*
X20000Y27334D01*
D02*
G37*
%LPD*%
G36*
X181486Y116868D02*
X180735Y116557D01*
X180004Y115996D01*
X179443Y115265D01*
X179090Y114414D01*
X178970Y113500D01*
X179062Y112801D01*
X176698Y110437D01*
X159513D01*
X159343Y110937D01*
X159630Y111157D01*
X160264Y111983D01*
X160662Y112944D01*
X160732Y113476D01*
X156811D01*
Y114476D01*
X160732D01*
X160662Y115008D01*
X160264Y115970D01*
X159630Y116796D01*
X159501Y116895D01*
X159661Y117368D01*
X181386D01*
X181486Y116868D01*
D02*
G37*
D11*
X46976Y202000D02*
X47244Y201732D01*
D19*
X116567Y122000D02*
X125984Y131417D01*
X74165Y122000D02*
X116567D01*
X30000Y77835D02*
X74165Y122000D01*
X96811Y113976D02*
X119787Y91000D01*
X196000D01*
X185039Y161417D02*
X222583D01*
X227500Y156500D01*
Y122500D02*
Y156500D01*
X196000Y91000D02*
X227500Y122500D01*
X193301Y112801D02*
X193500Y113000D01*
X193301Y107801D02*
Y112801D01*
X187500Y102000D02*
X193301Y107801D01*
X116811Y113976D02*
X128787Y102000D01*
X187500D01*
X177500Y108500D02*
X182500Y113500D01*
X169000Y126500D02*
Y181000D01*
X201236Y123000D02*
X208000Y129764D01*
X169000Y126500D02*
X172500Y123000D01*
X201236D01*
X132287Y108500D02*
X177500D01*
X126811Y113976D02*
X132287Y108500D01*
X169000Y181000D02*
X179388Y191388D01*
X185010D01*
X185039Y191417D01*
Y171417D02*
X195000Y181378D01*
Y193694D01*
X208000Y206694D02*
Y214000D01*
X195000Y193694D02*
X208000Y206694D01*
X22000Y147000D02*
X30000Y155000D01*
X22000Y95835D02*
Y147000D01*
Y95835D02*
X30000Y87835D01*
X23866Y215866D02*
X30000D01*
X21000Y213000D02*
X23866Y215866D01*
X21000Y164000D02*
Y213000D01*
Y164000D02*
X30000Y155000D01*
D20*
X97227Y177727D02*
Y181227D01*
X114000Y186500D02*
X116500Y189000D01*
X102500Y186500D02*
X114000D01*
X96500Y177000D02*
X97227Y177727D01*
Y181227D02*
X102500Y186500D01*
X116500Y189000D02*
Y191933D01*
X177417Y201417D02*
X185039D01*
X160500Y184500D02*
X177417Y201417D01*
X140500Y119000D02*
X160500Y139000D01*
Y184500D01*
X91835Y119000D02*
X140500D01*
X86811Y113976D02*
X91835Y119000D01*
X124787Y96000D02*
X192500D01*
X106811Y113976D02*
X124787Y96000D01*
X151835Y119000D02*
X209500D01*
X220500Y130000D02*
Y133000D01*
X209500Y119000D02*
X220500Y130000D01*
X213500Y140000D02*
X220500Y133000D01*
X203000Y106500D02*
Y113000D01*
X192500Y96000D02*
X203000Y106500D01*
X146811Y113976D02*
X151835Y119000D01*
X208000Y139764D02*
X208236Y140000D01*
X213500D01*
X180122Y206500D02*
X185039Y211417D01*
X118902Y206500D02*
X180122D01*
X106299Y211732D02*
X113670D01*
X118902Y206500D01*
X116500Y191933D02*
X125984Y201417D01*
X120902Y146500D02*
X125984Y141417D01*
X41500Y146500D02*
X120902D01*
X30000Y145000D02*
X40000D01*
X41500Y146500D01*
X106067Y211500D02*
X106299Y211732D01*
X101000Y211500D02*
X106067D01*
X40000Y216500D02*
X96000D01*
X101000Y211500D01*
X39366Y215866D02*
X40000Y216500D01*
X30000Y215866D02*
X39366D01*
D21*
X76811Y45079D02*
D03*
X96811D02*
D03*
X66811D02*
D03*
X46811D02*
D03*
X86811D02*
D03*
X126811D02*
D03*
X176811D02*
D03*
X186811D02*
D03*
X146811D02*
D03*
X156811D02*
D03*
X116811D02*
D03*
X166811D02*
D03*
X136811D02*
D03*
X106811D02*
D03*
X156811Y113976D02*
D03*
X106811D02*
D03*
X146811D02*
D03*
X96811D02*
D03*
X116811D02*
D03*
X126811D02*
D03*
X136811D02*
D03*
X86811D02*
D03*
X56811Y45079D02*
D03*
X125984Y221417D02*
D03*
Y191417D02*
D03*
Y161417D02*
D03*
Y231417D02*
D03*
Y211417D02*
D03*
Y131417D02*
D03*
Y171417D02*
D03*
Y181417D02*
D03*
Y141417D02*
D03*
Y151417D02*
D03*
Y201417D02*
D03*
X185039Y191417D02*
D03*
Y201417D02*
D03*
Y211417D02*
D03*
Y231417D02*
D03*
Y241417D02*
D03*
Y181417D02*
D03*
Y221417D02*
D03*
Y171417D02*
D03*
Y161417D02*
D03*
Y131417D02*
D03*
Y151417D02*
D03*
Y141417D02*
D03*
X106299Y141732D02*
D03*
Y151732D02*
D03*
Y131732D02*
D03*
Y161732D02*
D03*
Y171732D02*
D03*
Y221732D02*
D03*
Y181732D02*
D03*
Y241732D02*
D03*
Y231732D02*
D03*
Y211732D02*
D03*
Y201732D02*
D03*
Y191732D02*
D03*
X47244Y201732D02*
D03*
Y151732D02*
D03*
Y141732D02*
D03*
Y181732D02*
D03*
Y171732D02*
D03*
Y131732D02*
D03*
Y211732D02*
D03*
Y231732D02*
D03*
Y161732D02*
D03*
Y191732D02*
D03*
Y221732D02*
D03*
X156850Y28543D02*
D03*
X166850D02*
D03*
X186850D02*
D03*
X176850D02*
D03*
X126850D02*
D03*
X136850D02*
D03*
X146850D02*
D03*
X96850D02*
D03*
X106850D02*
D03*
X116850D02*
D03*
X66850D02*
D03*
X76850D02*
D03*
X86850D02*
D03*
X46850D02*
D03*
X56850D02*
D03*
X30000Y87835D02*
D03*
Y77835D02*
D03*
Y57835D02*
D03*
Y67835D02*
D03*
Y215866D02*
D03*
Y205866D02*
D03*
Y185866D02*
D03*
Y195866D02*
D03*
X208000Y129764D02*
D03*
Y139764D02*
D03*
Y172000D02*
D03*
Y182000D02*
D03*
X30000Y155000D02*
D03*
Y145000D02*
D03*
Y125000D02*
D03*
Y135000D02*
D03*
X208000Y214000D02*
D03*
Y224000D02*
D03*
D22*
X196811Y45079D02*
D03*
X196850Y28543D02*
D03*
D23*
X125984Y241417D02*
D03*
X47244Y241732D02*
D03*
X30000Y47835D02*
D03*
Y175866D02*
D03*
X208000Y149764D02*
D03*
Y192000D02*
D03*
X30000Y115000D02*
D03*
X208000Y234000D02*
D03*
D24*
X20000Y20000D02*
D03*
Y240000D02*
D03*
X220000Y20000D02*
D03*
Y100000D02*
D03*
D25*
X203000Y113000D02*
D03*
X193500D02*
D03*
X182500Y113500D02*
D03*
X96500Y177000D02*
D03*
M02*
