G04*
G04 #@! TF.GenerationSoftware,Altium Limited,Altium Designer,20.1.8 (145)*
G04*
G04 Layer_Color=255*
%FSAX24Y24*%
%MOIN*%
G70*
G04*
G04 #@! TF.SameCoordinates,A9D52D31-DEFF-4A73-B345-733BC34C7DFE*
G04*
G04*
G04 #@! TF.FilePolarity,Positive*
G04*
G01*
G75*
%ADD22C,0.0600*%
%ADD23R,0.0531X0.0531*%
%ADD24C,0.0531*%
%ADD25C,0.0591*%
%ADD26R,0.0591X0.0591*%
%ADD27C,0.0472*%
D22*
X037992Y020079D02*
D03*
X038189Y030118D02*
D03*
X025000Y020079D02*
D03*
Y030118D02*
D03*
D23*
X029844Y028613D02*
D03*
D24*
Y027613D02*
D03*
Y026613D02*
D03*
Y025613D02*
D03*
Y024613D02*
D03*
Y023613D02*
D03*
Y022613D02*
D03*
Y021613D02*
D03*
X032844D02*
D03*
Y022613D02*
D03*
Y023613D02*
D03*
Y024613D02*
D03*
Y025613D02*
D03*
Y026613D02*
D03*
Y027613D02*
D03*
Y028613D02*
D03*
D25*
X035594Y024629D02*
D03*
Y023629D02*
D03*
Y025629D02*
D03*
Y026629D02*
D03*
Y027629D02*
D03*
Y028629D02*
D03*
X027044D02*
D03*
Y027629D02*
D03*
Y026629D02*
D03*
Y025629D02*
D03*
Y024629D02*
D03*
Y023629D02*
D03*
Y022629D02*
D03*
D26*
X035594D02*
D03*
X027044Y021629D02*
D03*
D27*
X031844Y019656D02*
D03*
X030844D02*
D03*
M02*
