G04*
G04 #@! TF.GenerationSoftware,Altium Limited,Altium Designer,20.1.8 (145)*
G04*
G04 Layer_Physical_Order=1*
G04 Layer_Color=255*
%FSAX24Y24*%
%MOIN*%
G70*
G04*
G04 #@! TF.SameCoordinates,A9D52D31-DEFF-4A73-B345-733BC34C7DFE*
G04*
G04*
G04 #@! TF.FilePolarity,Positive*
G04*
G01*
G75*
%ADD12C,0.0100*%
%ADD20C,0.0120*%
%ADD21C,0.0180*%
%ADD22C,0.0600*%
%ADD23R,0.0531X0.0531*%
%ADD24C,0.0531*%
%ADD25C,0.0591*%
%ADD26R,0.0591X0.0591*%
%ADD27C,0.0472*%
%ADD28C,0.0394*%
G36*
X038673Y031065D02*
X038852Y030990D01*
X039013Y030883D01*
X039150Y030746D01*
X039258Y030584D01*
X039332Y030405D01*
X039370Y030215D01*
X039370Y030118D01*
X039370Y030118D01*
X039370Y030118D01*
X039370Y020079D01*
X039370Y020001D01*
X039350Y019848D01*
X039310Y019698D01*
X039251Y019555D01*
X039173Y019421D01*
X039079Y019298D01*
X038969Y019189D01*
X038847Y019095D01*
X038712Y019017D01*
X038569Y018958D01*
X038420Y018918D01*
X038266Y018898D01*
X038189Y018898D01*
X024803Y018898D01*
X024726D01*
X024572Y018918D01*
X024423Y018958D01*
X024280Y019017D01*
X024146Y019095D01*
X024023Y019189D01*
X023913Y019298D01*
X023819Y019421D01*
X023742Y019555D01*
X023682Y019698D01*
X023642Y019848D01*
X023622Y020001D01*
Y020079D01*
X023622Y030118D01*
Y030215D01*
X023660Y030405D01*
X023734Y030584D01*
X023842Y030746D01*
X023979Y030883D01*
X024140Y030990D01*
X024319Y031065D01*
X024509Y031102D01*
X024606Y031102D01*
X024606Y031102D01*
X038386Y031102D01*
X038483Y031102D01*
X038673Y031065D01*
D02*
G37*
%LPC*%
G36*
X034499Y030805D02*
Y030562D01*
X034742D01*
X034738Y030589D01*
X034708Y030662D01*
X034661Y030724D01*
X034599Y030771D01*
X034526Y030801D01*
X034499Y030805D01*
D02*
G37*
G36*
X034399D02*
X034371Y030801D01*
X034299Y030771D01*
X034237Y030724D01*
X034190Y030662D01*
X034160Y030589D01*
X034156Y030562D01*
X034399D01*
Y030805D01*
D02*
G37*
G36*
X034742Y030462D02*
X034499D01*
Y030219D01*
X034526Y030223D01*
X034599Y030253D01*
X034661Y030300D01*
X034708Y030362D01*
X034738Y030434D01*
X034742Y030462D01*
D02*
G37*
G36*
X034399D02*
X034156D01*
X034160Y030434D01*
X034190Y030362D01*
X034237Y030300D01*
X034299Y030253D01*
X034371Y030223D01*
X034399Y030219D01*
Y030462D01*
D02*
G37*
G36*
X038189Y030852D02*
X038046Y030837D01*
X037908Y030796D01*
X037781Y030728D01*
X037670Y030637D01*
X037579Y030526D01*
X037511Y030399D01*
X037470Y030261D01*
X037456Y030118D01*
X037470Y029975D01*
X037511Y029837D01*
X037579Y029711D01*
X037670Y029599D01*
X037781Y029508D01*
X037908Y029440D01*
X038046Y029399D01*
X038189Y029385D01*
X038332Y029399D01*
X038470Y029440D01*
X038596Y029508D01*
X038708Y029599D01*
X038799Y029711D01*
X038867Y029837D01*
X038908Y029975D01*
X038922Y030118D01*
X038908Y030261D01*
X038867Y030399D01*
X038799Y030526D01*
X038708Y030637D01*
X038596Y030728D01*
X038470Y030796D01*
X038332Y030837D01*
X038189Y030852D01*
D02*
G37*
G36*
X025000D02*
X024857Y030837D01*
X024719Y030796D01*
X024593Y030728D01*
X024481Y030637D01*
X024390Y030526D01*
X024322Y030399D01*
X024281Y030261D01*
X024267Y030118D01*
X024281Y029975D01*
X024322Y029837D01*
X024390Y029711D01*
X024481Y029599D01*
X024593Y029508D01*
X024719Y029440D01*
X024857Y029399D01*
X025000Y029385D01*
X025143Y029399D01*
X025281Y029440D01*
X025407Y029508D01*
X025519Y029599D01*
X025610Y029711D01*
X025678Y029837D01*
X025719Y029975D01*
X025733Y030118D01*
X025719Y030261D01*
X025678Y030399D01*
X025610Y030526D01*
X025519Y030637D01*
X025407Y030728D01*
X025281Y030796D01*
X025143Y030837D01*
X025000Y030852D01*
D02*
G37*
G36*
X035644Y029021D02*
Y028679D01*
X035986D01*
X035979Y028732D01*
X035939Y028828D01*
X035876Y028911D01*
X035793Y028974D01*
X035697Y029014D01*
X035644Y029021D01*
D02*
G37*
G36*
X035544D02*
X035491Y029014D01*
X035394Y028974D01*
X035312Y028911D01*
X035248Y028828D01*
X035209Y028732D01*
X035202Y028679D01*
X035544D01*
Y029021D01*
D02*
G37*
G36*
X035986Y028579D02*
X035644D01*
Y028237D01*
X035697Y028244D01*
X035793Y028284D01*
X035876Y028347D01*
X035939Y028430D01*
X035979Y028526D01*
X035986Y028579D01*
D02*
G37*
G36*
X035544D02*
X035202D01*
X035209Y028526D01*
X035248Y028430D01*
X035312Y028347D01*
X035394Y028284D01*
X035491Y028244D01*
X035544Y028237D01*
Y028579D01*
D02*
G37*
G36*
X032844Y028981D02*
X032748Y028969D01*
X032659Y028932D01*
X032583Y028873D01*
X032524Y028797D01*
X032487Y028708D01*
X032475Y028613D01*
X032487Y028517D01*
X032524Y028428D01*
X032551Y028393D01*
X032526Y028343D01*
X031890D01*
X031816Y028329D01*
X031753Y028287D01*
X030375Y026909D01*
X030333Y026846D01*
X030318Y026772D01*
Y024005D01*
X030187Y023874D01*
X030104D01*
X030028Y023932D01*
X029939Y023969D01*
X029844Y023981D01*
X029748Y023969D01*
X029659Y023932D01*
X029583Y023873D01*
X029524Y023797D01*
X029487Y023708D01*
X029475Y023613D01*
X029487Y023517D01*
X029524Y023428D01*
X029583Y023352D01*
X029659Y023293D01*
X029748Y023256D01*
X029844Y023244D01*
X029939Y023256D01*
X030028Y023293D01*
X030105Y023352D01*
X030163Y023428D01*
X030187Y023486D01*
X030267D01*
X030341Y023501D01*
X030404Y023543D01*
X030649Y023787D01*
X030691Y023850D01*
X030706Y023924D01*
Y026691D01*
X031970Y027956D01*
X032608D01*
X032625Y027906D01*
X032583Y027873D01*
X032524Y027797D01*
X032487Y027708D01*
X032475Y027613D01*
X032487Y027517D01*
X032524Y027428D01*
X032583Y027352D01*
X032659Y027293D01*
X032748Y027256D01*
X032844Y027244D01*
X032939Y027256D01*
X033028Y027293D01*
X033105Y027352D01*
X033156Y027419D01*
X033331D01*
X034255Y026495D01*
Y023031D01*
X034270Y022957D01*
X034312Y022895D01*
X034706Y022501D01*
X034768Y022459D01*
X034843Y022444D01*
X035198D01*
Y022234D01*
X035989D01*
Y023024D01*
X035198D01*
Y022832D01*
X034923D01*
X034643Y023112D01*
Y026575D01*
X034628Y026649D01*
X034586Y026712D01*
X033548Y027750D01*
X033485Y027792D01*
X033411Y027806D01*
X033156D01*
X033105Y027873D01*
X033062Y027906D01*
X033079Y027956D01*
X034993D01*
X035211Y027738D01*
X035209Y027732D01*
X035195Y027629D01*
X035209Y027526D01*
X035248Y027430D01*
X035312Y027347D01*
X035394Y027284D01*
X035491Y027244D01*
X035594Y027230D01*
X035697Y027244D01*
X035793Y027284D01*
X035876Y027347D01*
X035939Y027430D01*
X035979Y027526D01*
X035992Y027629D01*
X035979Y027732D01*
X035939Y027828D01*
X035876Y027911D01*
X035793Y027974D01*
X035697Y028014D01*
X035594Y028028D01*
X035491Y028014D01*
X035485Y028012D01*
X035210Y028287D01*
X035147Y028329D01*
X035073Y028343D01*
X033161D01*
X033136Y028393D01*
X033163Y028428D01*
X033200Y028517D01*
X033213Y028613D01*
X033200Y028708D01*
X033163Y028797D01*
X033105Y028873D01*
X033028Y028932D01*
X032939Y028969D01*
X032844Y028981D01*
D02*
G37*
G36*
X027044Y028028D02*
X026941Y028014D01*
X026844Y027974D01*
X026762Y027911D01*
X026698Y027828D01*
X026659Y027732D01*
X026645Y027629D01*
X026659Y027526D01*
X026698Y027430D01*
X026762Y027347D01*
X026844Y027284D01*
X026941Y027244D01*
X027044Y027230D01*
X027147Y027244D01*
X027243Y027284D01*
X027326Y027347D01*
X027389Y027430D01*
X027429Y027526D01*
X027442Y027629D01*
X027429Y027732D01*
X027389Y027828D01*
X027326Y027911D01*
X027243Y027974D01*
X027147Y028014D01*
X027044Y028028D01*
D02*
G37*
G36*
X032844Y026981D02*
X032748Y026969D01*
X032659Y026932D01*
X032583Y026873D01*
X032524Y026797D01*
X032487Y026708D01*
X032475Y026613D01*
X032487Y026517D01*
X032524Y026428D01*
X032583Y026352D01*
X032659Y026293D01*
X032748Y026256D01*
X032844Y026244D01*
X032939Y026256D01*
X033028Y026293D01*
X033105Y026352D01*
X033163Y026428D01*
X033200Y026517D01*
X033213Y026613D01*
X033200Y026708D01*
X033163Y026797D01*
X033105Y026873D01*
X033028Y026932D01*
X032939Y026969D01*
X032844Y026981D01*
D02*
G37*
G36*
X027044Y027028D02*
X026941Y027014D01*
X026844Y026974D01*
X026762Y026911D01*
X026698Y026828D01*
X026659Y026732D01*
X026645Y026629D01*
X026659Y026526D01*
X026698Y026430D01*
X026762Y026347D01*
X026844Y026284D01*
X026941Y026244D01*
X027044Y026230D01*
X027147Y026244D01*
X027243Y026284D01*
X027326Y026347D01*
X027387Y026427D01*
X029525D01*
X029583Y026352D01*
X029659Y026293D01*
X029748Y026256D01*
X029844Y026244D01*
X029939Y026256D01*
X030028Y026293D01*
X030105Y026352D01*
X030163Y026428D01*
X030200Y026517D01*
X030213Y026613D01*
X030200Y026708D01*
X030163Y026797D01*
X030105Y026873D01*
X030028Y026932D01*
X029939Y026969D01*
X029844Y026981D01*
X029748Y026969D01*
X029659Y026932D01*
X029583Y026873D01*
X029538Y026814D01*
X027395D01*
X027389Y026828D01*
X027326Y026911D01*
X027243Y026974D01*
X027147Y027014D01*
X027044Y027028D01*
D02*
G37*
G36*
X035594D02*
X035491Y027014D01*
X035394Y026974D01*
X035312Y026911D01*
X035248Y026828D01*
X035209Y026732D01*
X035195Y026629D01*
X035209Y026526D01*
X035248Y026430D01*
X035312Y026347D01*
X035394Y026284D01*
X035491Y026244D01*
X035594Y026230D01*
X035697Y026244D01*
X035793Y026284D01*
X035876Y026347D01*
X035939Y026430D01*
X035979Y026526D01*
X035992Y026629D01*
X035979Y026732D01*
X035939Y026828D01*
X035876Y026911D01*
X035793Y026974D01*
X035697Y027014D01*
X035594Y027028D01*
D02*
G37*
G36*
X027044Y026028D02*
X026941Y026014D01*
X026844Y025974D01*
X026762Y025911D01*
X026698Y025828D01*
X026659Y025732D01*
X026645Y025629D01*
X026659Y025526D01*
X026698Y025430D01*
X026762Y025347D01*
X026844Y025284D01*
X026941Y025244D01*
X027044Y025230D01*
X027147Y025244D01*
X027243Y025284D01*
X027326Y025347D01*
X027379Y025416D01*
X028894D01*
X028922Y025379D01*
X028984Y025331D01*
X029056Y025301D01*
X029134Y025291D01*
X029211Y025301D01*
X029284Y025331D01*
X029346Y025379D01*
X029393Y025441D01*
X029423Y025513D01*
X029430Y025568D01*
X029481D01*
X029487Y025517D01*
X029524Y025428D01*
X029583Y025352D01*
X029659Y025293D01*
X029748Y025256D01*
X029844Y025244D01*
X029939Y025256D01*
X030028Y025293D01*
X030105Y025352D01*
X030163Y025428D01*
X030200Y025517D01*
X030213Y025613D01*
X030200Y025708D01*
X030163Y025797D01*
X030105Y025873D01*
X030028Y025932D01*
X029939Y025969D01*
X029844Y025982D01*
X029748Y025969D01*
X029659Y025932D01*
X029583Y025873D01*
X029524Y025797D01*
X029487Y025708D01*
X029478Y025635D01*
X029427D01*
X029423Y025668D01*
X029393Y025740D01*
X029346Y025802D01*
X029284Y025850D01*
X029211Y025880D01*
X029134Y025890D01*
X029056Y025880D01*
X028984Y025850D01*
X028924Y025803D01*
X027399D01*
X027389Y025828D01*
X027326Y025911D01*
X027243Y025974D01*
X027147Y026014D01*
X027044Y026028D01*
D02*
G37*
G36*
X035594D02*
X035491Y026014D01*
X035394Y025974D01*
X035312Y025911D01*
X035248Y025828D01*
X035209Y025732D01*
X035195Y025629D01*
X035209Y025526D01*
X035248Y025430D01*
X035312Y025347D01*
X035394Y025284D01*
X035491Y025244D01*
X035594Y025230D01*
X035697Y025244D01*
X035793Y025284D01*
X035876Y025347D01*
X035939Y025430D01*
X035979Y025526D01*
X035992Y025629D01*
X035979Y025732D01*
X035939Y025828D01*
X035876Y025911D01*
X035793Y025974D01*
X035697Y026014D01*
X035594Y026028D01*
D02*
G37*
G36*
X032844Y024982D02*
X032748Y024969D01*
X032659Y024932D01*
X032583Y024873D01*
X032524Y024797D01*
X032487Y024708D01*
X032475Y024613D01*
X032487Y024517D01*
X032524Y024428D01*
X032583Y024352D01*
X032659Y024293D01*
X032748Y024256D01*
X032844Y024244D01*
X032939Y024256D01*
X033028Y024293D01*
X033105Y024352D01*
X033163Y024428D01*
X033200Y024517D01*
X033213Y024613D01*
X033200Y024708D01*
X033163Y024797D01*
X033105Y024873D01*
X033028Y024932D01*
X032939Y024969D01*
X032844Y024982D01*
D02*
G37*
G36*
X027044Y025028D02*
X026941Y025014D01*
X026844Y024974D01*
X026762Y024911D01*
X026698Y024828D01*
X026659Y024732D01*
X026645Y024629D01*
X026659Y024526D01*
X026698Y024430D01*
X026762Y024347D01*
X026844Y024284D01*
X026941Y024244D01*
X027044Y024230D01*
X027147Y024244D01*
X027243Y024284D01*
X027326Y024347D01*
X027387Y024427D01*
X029525D01*
X029583Y024352D01*
X029659Y024293D01*
X029748Y024256D01*
X029844Y024244D01*
X029939Y024256D01*
X030028Y024293D01*
X030105Y024352D01*
X030163Y024428D01*
X030200Y024517D01*
X030213Y024613D01*
X030200Y024708D01*
X030163Y024797D01*
X030105Y024873D01*
X030028Y024932D01*
X029939Y024969D01*
X029844Y024982D01*
X029748Y024969D01*
X029659Y024932D01*
X029583Y024873D01*
X029538Y024814D01*
X027395D01*
X027389Y024828D01*
X027326Y024911D01*
X027243Y024974D01*
X027147Y025014D01*
X027044Y025028D01*
D02*
G37*
G36*
X035594D02*
X035491Y025014D01*
X035394Y024974D01*
X035312Y024911D01*
X035248Y024828D01*
X035209Y024732D01*
X035195Y024629D01*
X035209Y024526D01*
X035248Y024430D01*
X035312Y024347D01*
X035394Y024284D01*
X035491Y024244D01*
X035594Y024230D01*
X035697Y024244D01*
X035793Y024284D01*
X035876Y024347D01*
X035939Y024430D01*
X035979Y024526D01*
X035992Y024629D01*
X035979Y024732D01*
X035939Y024828D01*
X035876Y024911D01*
X035793Y024974D01*
X035697Y025014D01*
X035594Y025028D01*
D02*
G37*
G36*
X032844Y025982D02*
X032748Y025969D01*
X032659Y025932D01*
X032583Y025873D01*
X032524Y025797D01*
X032487Y025708D01*
X032475Y025613D01*
X032487Y025517D01*
X032524Y025428D01*
X032583Y025352D01*
X032659Y025293D01*
X032748Y025256D01*
X032844Y025244D01*
X032939Y025256D01*
X033028Y025293D01*
X033105Y025352D01*
X033139Y025397D01*
X033187D01*
X033711Y024873D01*
Y024438D01*
X033693Y024424D01*
X033645Y024362D01*
X033615Y024290D01*
X033605Y024213D01*
X033615Y024135D01*
X033645Y024063D01*
X033693Y024001D01*
X033755Y023953D01*
X033827Y023923D01*
X033905Y023913D01*
X033982Y023923D01*
X034054Y023953D01*
X034116Y024001D01*
X034164Y024063D01*
X034194Y024135D01*
X034204Y024213D01*
X034194Y024290D01*
X034164Y024362D01*
X034116Y024424D01*
X034098Y024438D01*
Y024954D01*
X034084Y025028D01*
X034042Y025091D01*
X033405Y025728D01*
X033342Y025770D01*
X033268Y025784D01*
X033168D01*
X033163Y025797D01*
X033105Y025873D01*
X033028Y025932D01*
X032939Y025969D01*
X032844Y025982D01*
D02*
G37*
G36*
X035827Y030115D02*
X031208D01*
X031134Y030100D01*
X031071Y030058D01*
X030422Y029410D01*
X030380Y029347D01*
X030366Y029273D01*
Y028409D01*
X030256Y028299D01*
X030209Y028318D01*
Y028978D01*
X029478D01*
Y028823D01*
X027391D01*
X027389Y028828D01*
X027326Y028911D01*
X027243Y028974D01*
X027147Y029014D01*
X027044Y029028D01*
X026941Y029014D01*
X026844Y028974D01*
X026762Y028911D01*
X026698Y028828D01*
X026659Y028732D01*
X026645Y028629D01*
X026659Y028526D01*
X026698Y028430D01*
X026762Y028347D01*
X026844Y028284D01*
X026941Y028244D01*
X027044Y028230D01*
X027147Y028244D01*
X027243Y028284D01*
X027326Y028347D01*
X027389Y028430D01*
X027391Y028435D01*
X029478D01*
Y028247D01*
X030139D01*
X030158Y028201D01*
X029928Y027970D01*
X029844Y027982D01*
X029748Y027969D01*
X029659Y027932D01*
X029583Y027873D01*
X029524Y027797D01*
X029487Y027708D01*
X029475Y027613D01*
X029487Y027517D01*
X029524Y027428D01*
X029583Y027352D01*
X029659Y027293D01*
X029748Y027256D01*
X029844Y027244D01*
X029939Y027256D01*
X030028Y027293D01*
X030105Y027352D01*
X030163Y027428D01*
X030200Y027517D01*
X030213Y027613D01*
X030202Y027696D01*
X030696Y028191D01*
X030738Y028254D01*
X030753Y028328D01*
Y029193D01*
X031288Y029728D01*
X035747D01*
X036224Y029250D01*
Y024096D01*
X036029Y023901D01*
X035883D01*
X035876Y023911D01*
X035793Y023974D01*
X035697Y024014D01*
X035594Y024028D01*
X035491Y024014D01*
X035394Y023974D01*
X035312Y023911D01*
X035248Y023828D01*
X035209Y023732D01*
X035195Y023629D01*
X035209Y023526D01*
X035248Y023430D01*
X035312Y023347D01*
X035394Y023284D01*
X035491Y023244D01*
X035594Y023230D01*
X035697Y023244D01*
X035793Y023284D01*
X035876Y023347D01*
X035939Y023430D01*
X035974Y023514D01*
X036109D01*
X036183Y023529D01*
X036246Y023571D01*
X036554Y023879D01*
X036596Y023942D01*
X036611Y024016D01*
Y029331D01*
X036596Y029405D01*
X036554Y029468D01*
X035964Y030058D01*
X035901Y030100D01*
X035827Y030115D01*
D02*
G37*
G36*
X032844Y023981D02*
X032748Y023969D01*
X032659Y023932D01*
X032583Y023873D01*
X032524Y023797D01*
X032487Y023708D01*
X032475Y023613D01*
X032487Y023517D01*
X032524Y023428D01*
X032583Y023352D01*
X032659Y023293D01*
X032748Y023256D01*
X032844Y023244D01*
X032939Y023256D01*
X033028Y023293D01*
X033105Y023352D01*
X033163Y023428D01*
X033200Y023517D01*
X033213Y023613D01*
X033200Y023708D01*
X033163Y023797D01*
X033105Y023873D01*
X033028Y023932D01*
X032939Y023969D01*
X032844Y023981D01*
D02*
G37*
G36*
X027044Y024028D02*
X026941Y024014D01*
X026844Y023974D01*
X026762Y023911D01*
X026698Y023828D01*
X026659Y023732D01*
X026645Y023629D01*
X026659Y023526D01*
X026698Y023430D01*
X026762Y023347D01*
X026844Y023284D01*
X026941Y023244D01*
X027044Y023230D01*
X027147Y023244D01*
X027243Y023284D01*
X027326Y023347D01*
X027389Y023430D01*
X027429Y023526D01*
X027442Y023629D01*
X027429Y023732D01*
X027389Y023828D01*
X027326Y023911D01*
X027243Y023974D01*
X027147Y024014D01*
X027044Y024028D01*
D02*
G37*
G36*
Y023028D02*
X026941Y023014D01*
X026844Y022974D01*
X026762Y022911D01*
X026698Y022828D01*
X026659Y022732D01*
X026645Y022629D01*
X026659Y022526D01*
X026698Y022430D01*
X026762Y022347D01*
X026844Y022284D01*
X026941Y022244D01*
X027044Y022230D01*
X027147Y022244D01*
X027243Y022284D01*
X027326Y022347D01*
X027389Y022430D01*
X027429Y022526D01*
X027442Y022629D01*
X027429Y022732D01*
X027389Y022828D01*
X027326Y022911D01*
X027243Y022974D01*
X027147Y023014D01*
X027044Y023028D01*
D02*
G37*
G36*
X027439Y022024D02*
X027094D01*
Y021679D01*
X027439D01*
Y022024D01*
D02*
G37*
G36*
X026994D02*
X026648D01*
Y021679D01*
X026994D01*
Y022024D01*
D02*
G37*
G36*
X029894Y021975D02*
Y021663D01*
X030206D01*
X030200Y021708D01*
X030163Y021797D01*
X030105Y021873D01*
X030028Y021932D01*
X029939Y021969D01*
X029894Y021975D01*
D02*
G37*
G36*
X029794D02*
X029748Y021969D01*
X029659Y021932D01*
X029583Y021873D01*
X029524Y021797D01*
X029487Y021708D01*
X029481Y021663D01*
X029794D01*
Y021975D01*
D02*
G37*
G36*
X031693Y025944D02*
X031602Y025932D01*
X031516Y025896D01*
X031443Y025840D01*
X031387Y025767D01*
X031352Y025682D01*
X031340Y025591D01*
X031352Y025499D01*
X031387Y025414D01*
X031443Y025341D01*
X031506Y025293D01*
Y022450D01*
X031521Y022376D01*
X031563Y022313D01*
X031913Y021963D01*
X031976Y021921D01*
X032050Y021906D01*
X032547D01*
X032570Y021856D01*
X032524Y021797D01*
X032487Y021708D01*
X032475Y021613D01*
X032487Y021517D01*
X032524Y021428D01*
X032583Y021352D01*
X032650Y021300D01*
Y020737D01*
X031901Y019988D01*
X031844Y019995D01*
X031756Y019984D01*
X031674Y019950D01*
X031604Y019896D01*
X031550Y019826D01*
X031516Y019744D01*
X031505Y019656D01*
X031516Y019569D01*
X031550Y019487D01*
X031604Y019417D01*
X031674Y019363D01*
X031756Y019329D01*
X031844Y019317D01*
X031931Y019329D01*
X032013Y019363D01*
X032083Y019417D01*
X032137Y019487D01*
X032171Y019569D01*
X032183Y019656D01*
X032175Y019714D01*
X032981Y020519D01*
X033023Y020582D01*
X033037Y020656D01*
Y021300D01*
X033105Y021352D01*
X033163Y021428D01*
X033200Y021517D01*
X033213Y021613D01*
X033200Y021708D01*
X033163Y021797D01*
X033118Y021856D01*
X033140Y021906D01*
X034470D01*
X034863Y021513D01*
X034926Y021471D01*
X035000Y021456D01*
X035307D01*
X035350Y021400D01*
X035423Y021344D01*
X035509Y021309D01*
X035600Y021297D01*
X035691Y021309D01*
X035777Y021344D01*
X035850Y021400D01*
X035906Y021473D01*
X035941Y021559D01*
X035953Y021650D01*
X035941Y021741D01*
X035906Y021827D01*
X035850Y021900D01*
X035777Y021956D01*
X035691Y021991D01*
X035600Y022003D01*
X035509Y021991D01*
X035423Y021956D01*
X035350Y021900D01*
X035307Y021844D01*
X035080D01*
X034687Y022237D01*
X034624Y022279D01*
X034550Y022294D01*
X033107D01*
X033091Y022341D01*
X033105Y022352D01*
X033163Y022428D01*
X033200Y022517D01*
X033213Y022613D01*
X033200Y022708D01*
X033163Y022797D01*
X033105Y022873D01*
X033028Y022932D01*
X032939Y022969D01*
X032844Y022982D01*
X032748Y022969D01*
X032659Y022932D01*
X032583Y022873D01*
X032524Y022797D01*
X032487Y022708D01*
X032475Y022613D01*
X032487Y022517D01*
X032524Y022428D01*
X032583Y022352D01*
X032597Y022341D01*
X032581Y022294D01*
X032130D01*
X031894Y022530D01*
Y025303D01*
X031943Y025341D01*
X031999Y025414D01*
X032034Y025499D01*
X032046Y025591D01*
X032034Y025682D01*
X031999Y025767D01*
X031943Y025840D01*
X031869Y025896D01*
X031784Y025932D01*
X031693Y025944D01*
D02*
G37*
G36*
X030206Y021563D02*
X029894D01*
Y021250D01*
X029939Y021256D01*
X030028Y021293D01*
X030105Y021352D01*
X030163Y021428D01*
X030200Y021517D01*
X030206Y021563D01*
D02*
G37*
G36*
X029794D02*
X029481D01*
X029487Y021517D01*
X029524Y021428D01*
X029583Y021352D01*
X029659Y021293D01*
X029748Y021256D01*
X029794Y021250D01*
Y021563D01*
D02*
G37*
G36*
X027439Y021579D02*
X027094D01*
Y021234D01*
X027439D01*
Y021579D01*
D02*
G37*
G36*
X026994D02*
X026648D01*
Y021234D01*
X026994D01*
Y021579D01*
D02*
G37*
G36*
X035680Y020372D02*
Y020129D01*
X035923D01*
X035919Y020156D01*
X035889Y020228D01*
X035842Y020290D01*
X035780Y020338D01*
X035707Y020368D01*
X035680Y020372D01*
D02*
G37*
G36*
X035580D02*
X035552Y020368D01*
X035480Y020338D01*
X035418Y020290D01*
X035371Y020228D01*
X035341Y020156D01*
X035337Y020129D01*
X035580D01*
Y020372D01*
D02*
G37*
G36*
X026822Y020175D02*
Y019932D01*
X027064D01*
X027061Y019959D01*
X027031Y020032D01*
X026983Y020094D01*
X026921Y020141D01*
X026849Y020171D01*
X026822Y020175D01*
D02*
G37*
G36*
X026722D02*
X026694Y020171D01*
X026622Y020141D01*
X026560Y020094D01*
X026512Y020032D01*
X026482Y019959D01*
X026479Y019932D01*
X026722D01*
Y020175D01*
D02*
G37*
G36*
X035923Y020029D02*
X035680D01*
Y019786D01*
X035707Y019790D01*
X035780Y019819D01*
X035842Y019867D01*
X035889Y019929D01*
X035919Y020001D01*
X035923Y020029D01*
D02*
G37*
G36*
X035580D02*
X035337D01*
X035341Y020001D01*
X035371Y019929D01*
X035418Y019867D01*
X035480Y019819D01*
X035552Y019790D01*
X035580Y019786D01*
Y020029D01*
D02*
G37*
G36*
X027064Y019832D02*
X026822D01*
Y019589D01*
X026849Y019593D01*
X026921Y019623D01*
X026983Y019670D01*
X027031Y019732D01*
X027061Y019804D01*
X027064Y019832D01*
D02*
G37*
G36*
X026722D02*
X026479D01*
X026482Y019804D01*
X026512Y019732D01*
X026560Y019670D01*
X026622Y019623D01*
X026694Y019593D01*
X026722Y019589D01*
Y019832D01*
D02*
G37*
G36*
X037992Y020812D02*
X037849Y020798D01*
X037711Y020756D01*
X037585Y020689D01*
X037473Y020597D01*
X037382Y020486D01*
X037315Y020359D01*
X037273Y020222D01*
X037259Y020079D01*
X037273Y019936D01*
X037315Y019798D01*
X037382Y019671D01*
X037473Y019560D01*
X037585Y019469D01*
X037711Y019401D01*
X037849Y019359D01*
X037992Y019345D01*
X038135Y019359D01*
X038273Y019401D01*
X038400Y019469D01*
X038511Y019560D01*
X038602Y019671D01*
X038670Y019798D01*
X038711Y019936D01*
X038726Y020079D01*
X038711Y020222D01*
X038670Y020359D01*
X038602Y020486D01*
X038511Y020597D01*
X038400Y020689D01*
X038273Y020756D01*
X038135Y020798D01*
X037992Y020812D01*
D02*
G37*
G36*
X025000D02*
X024857Y020798D01*
X024719Y020756D01*
X024593Y020689D01*
X024481Y020597D01*
X024390Y020486D01*
X024322Y020359D01*
X024281Y020222D01*
X024267Y020079D01*
X024281Y019936D01*
X024322Y019798D01*
X024390Y019671D01*
X024481Y019560D01*
X024593Y019469D01*
X024719Y019401D01*
X024857Y019359D01*
X025000Y019345D01*
X025143Y019359D01*
X025281Y019401D01*
X025407Y019469D01*
X025519Y019560D01*
X025610Y019671D01*
X025678Y019798D01*
X025719Y019936D01*
X025733Y020079D01*
X025719Y020222D01*
X025678Y020359D01*
X025610Y020486D01*
X025519Y020597D01*
X025407Y020689D01*
X025281Y020756D01*
X025143Y020798D01*
X025000Y020812D01*
D02*
G37*
G36*
X029844Y022982D02*
X029748Y022969D01*
X029659Y022932D01*
X029583Y022873D01*
X029524Y022797D01*
X029487Y022708D01*
X029475Y022613D01*
X029487Y022517D01*
X029524Y022428D01*
X029583Y022352D01*
X029659Y022293D01*
X029748Y022256D01*
X029844Y022244D01*
X029939Y022256D01*
X030028Y022293D01*
X030105Y022352D01*
X030156Y022419D01*
X030450D01*
X030613Y022255D01*
Y019903D01*
X030604Y019896D01*
X030550Y019826D01*
X030516Y019744D01*
X030505Y019656D01*
X030516Y019569D01*
X030550Y019487D01*
X030604Y019417D01*
X030674Y019363D01*
X030756Y019329D01*
X030844Y019317D01*
X030931Y019329D01*
X031013Y019363D01*
X031084Y019417D01*
X031137Y019487D01*
X031171Y019569D01*
X031183Y019656D01*
X031171Y019744D01*
X031137Y019826D01*
X031084Y019896D01*
X031013Y019950D01*
X031001Y019955D01*
Y022336D01*
X030986Y022410D01*
X030944Y022472D01*
X030667Y022750D01*
X030604Y022792D01*
X030530Y022806D01*
X030156D01*
X030105Y022873D01*
X030028Y022932D01*
X029939Y022969D01*
X029844Y022982D01*
D02*
G37*
%LPD*%
D12*
X027044Y021629D02*
X027060Y021613D01*
X029827Y028629D02*
X029844Y028613D01*
D20*
X034550Y022100D02*
X035000Y021650D01*
X035600D01*
X032050Y022100D02*
X034550D01*
X031700Y022450D02*
X032050Y022100D01*
X031700Y022450D02*
Y025583D01*
D21*
X031693Y025591D02*
X031700Y025583D01*
X031844Y019656D02*
X032844Y020656D01*
Y021613D01*
X034449Y023031D02*
X034843Y022638D01*
X034449Y023031D02*
Y026575D01*
X034843Y022638D02*
X035585D01*
X030512Y023924D02*
Y026772D01*
X029844Y023613D02*
X029911Y023680D01*
X030512Y026772D02*
X031890Y028150D01*
X029911Y023680D02*
X030267D01*
X030512Y023924D01*
X031890Y028150D02*
X035073D01*
X032844Y025613D02*
X032866Y025591D01*
X033268D01*
X033905Y024213D02*
Y024954D01*
X033268Y025591D02*
X033905Y024954D01*
X033411Y027613D02*
X034449Y026575D01*
X032844Y027613D02*
X033411D01*
X031208Y029921D02*
X035827D01*
X029844Y027613D02*
X030559Y028328D01*
Y029273D01*
X031208Y029921D01*
X035827D02*
X036417Y029331D01*
Y024016D02*
Y029331D01*
X036109Y023707D02*
X036417Y024016D01*
X035594Y023629D02*
X035672Y023707D01*
X036109D01*
X027044Y025629D02*
X027063Y025610D01*
X029115D01*
X029134Y025591D01*
X035073Y028150D02*
X035594Y027629D01*
X035585Y022638D02*
X035594Y022629D01*
X029836Y024621D02*
X029844Y024613D01*
X027044Y024629D02*
X027052Y024621D01*
X029836D01*
Y026621D02*
X029844Y026613D01*
X027052Y026621D02*
X029836D01*
X027044Y026629D02*
X027052Y026621D01*
X030807Y019693D02*
Y022336D01*
X029844Y022613D02*
X030530D01*
X030807Y022336D01*
Y019693D02*
X030844Y019656D01*
X027044Y028629D02*
X029827D01*
D22*
X037992Y020079D02*
D03*
X038189Y030118D02*
D03*
X025000Y020079D02*
D03*
Y030118D02*
D03*
D23*
X029844Y028613D02*
D03*
D24*
Y027613D02*
D03*
Y026613D02*
D03*
Y025613D02*
D03*
Y024613D02*
D03*
Y023613D02*
D03*
Y022613D02*
D03*
Y021613D02*
D03*
X032844D02*
D03*
Y022613D02*
D03*
Y023613D02*
D03*
Y024613D02*
D03*
Y025613D02*
D03*
Y026613D02*
D03*
Y027613D02*
D03*
Y028613D02*
D03*
D25*
X035594Y024629D02*
D03*
Y023629D02*
D03*
Y025629D02*
D03*
Y026629D02*
D03*
Y027629D02*
D03*
Y028629D02*
D03*
X027044D02*
D03*
Y027629D02*
D03*
Y026629D02*
D03*
Y025629D02*
D03*
Y024629D02*
D03*
Y023629D02*
D03*
Y022629D02*
D03*
D26*
X035594D02*
D03*
X027044Y021629D02*
D03*
D27*
X031844Y019656D02*
D03*
X030844D02*
D03*
D28*
X035600Y021650D02*
D03*
X031693Y025591D02*
D03*
X026772Y019882D02*
D03*
X035630Y020079D02*
D03*
X034449Y030512D02*
D03*
X033905Y024213D02*
D03*
X029134Y025591D02*
D03*
M02*
