M48
;Layer_Color=9474304
;FILE_FORMAT=2:4
INCH
;TYPE=PLATED
T1F00S00C0.0276
T2F00S00C0.0295
T3F00S00C0.0354
;TYPE=NON_PLATED
T4F00S00C0.1260
%
T01
X031844Y019656
X030844
T02
X032844Y021613
Y022613
Y023613
Y024613
Y025613
Y026613
Y027613
Y028613
X029844
Y027613
Y026613
Y025613
Y024613
Y023613
Y022613
Y021613
T03
X035594Y022629
Y023629
Y024629
Y025629
Y026629
Y027629
Y028629
X027044
Y027629
Y026629
Y025629
Y024629
Y023629
Y022629
Y021629
T04
X037992Y020079
X038189Y030118
X025000
Y020079
M30
