G04*
G04 #@! TF.GenerationSoftware,Altium Limited,Altium Designer,20.1.8 (145)*
G04*
G04 Layer_Color=32896*
%FSAX24Y24*%
%MOIN*%
G70*
G04*
G04 #@! TF.SameCoordinates,0BEFB1DC-0AC7-4A44-9EEB-1B4F544614C5*
G04*
G04*
G04 #@! TF.FilePolarity,Positive*
G04*
G01*
G75*
%ADD27C,0.0060*%
G36*
X023893Y029282D02*
X023932D01*
Y029278D01*
X023955D01*
Y029275D01*
X023972D01*
Y029272D01*
X023985D01*
Y029269D01*
X023998D01*
Y029265D01*
X024011D01*
Y029262D01*
X024020D01*
Y029259D01*
X024033D01*
Y029256D01*
X024043D01*
Y029252D01*
X024053D01*
Y029249D01*
X024059D01*
Y029246D01*
X024069D01*
Y029243D01*
X024079D01*
Y029239D01*
X024086D01*
Y029236D01*
X024092D01*
Y029233D01*
X024102D01*
Y029230D01*
X024108D01*
Y029226D01*
X024115D01*
Y029223D01*
X024121D01*
Y029220D01*
X024128D01*
Y029216D01*
X024134D01*
Y029213D01*
X024141D01*
Y029210D01*
X024147D01*
Y029207D01*
X024154D01*
Y029203D01*
X024160D01*
Y029200D01*
X024167D01*
Y029197D01*
X024170D01*
Y029194D01*
X024177D01*
Y029190D01*
X024183D01*
Y029187D01*
X024187D01*
Y029184D01*
X024193D01*
Y029181D01*
X024196D01*
Y029177D01*
X024203D01*
Y029174D01*
X024209D01*
Y029171D01*
X024213D01*
Y029168D01*
X024216D01*
Y029164D01*
X024222D01*
Y029161D01*
X024226D01*
Y029158D01*
X024232D01*
Y029155D01*
X024235D01*
Y029151D01*
X024239D01*
Y029148D01*
X024242D01*
Y029145D01*
X024248D01*
Y029142D01*
X024252D01*
Y029138D01*
X024255D01*
Y029135D01*
X024258D01*
Y029132D01*
X024261D01*
Y029129D01*
X024268D01*
Y029125D01*
X024271D01*
Y029122D01*
X024274D01*
Y029119D01*
X024278D01*
Y029115D01*
X024281D01*
Y029112D01*
X024284D01*
Y029109D01*
X024288D01*
Y029106D01*
X024291D01*
Y029102D01*
X024294D01*
Y029096D01*
X024297D01*
Y029093D01*
X024301D01*
Y029089D01*
X024304D01*
Y029086D01*
X024310D01*
Y029083D01*
X024317D01*
Y029067D01*
X024320D01*
Y029063D01*
X024323D01*
Y029060D01*
X024327D01*
Y029057D01*
X024336D01*
Y029054D01*
X024343D01*
Y029050D01*
X024349D01*
Y029047D01*
X024356D01*
Y029044D01*
X024366D01*
Y029041D01*
X024372D01*
Y029037D01*
X024379D01*
Y029034D01*
X024385D01*
Y029031D01*
X024392D01*
Y029028D01*
X024402D01*
Y029024D01*
X024408D01*
Y029021D01*
X024415D01*
Y029018D01*
X024421D01*
Y029014D01*
X024431D01*
Y029011D01*
X024437D01*
Y029008D01*
X024441D01*
Y029014D01*
X024444D01*
Y029024D01*
X024447D01*
Y029034D01*
X024450D01*
Y029041D01*
X024454D01*
Y029047D01*
X024457D01*
Y029057D01*
X024460D01*
Y029063D01*
X024463D01*
Y029070D01*
X024467D01*
Y029076D01*
X024470D01*
Y029083D01*
X024473D01*
Y029089D01*
X024476D01*
Y029093D01*
X024480D01*
Y029099D01*
X024483D01*
Y029106D01*
X024486D01*
Y029112D01*
X024490D01*
Y029115D01*
X024493D01*
Y029122D01*
X024496D01*
Y029125D01*
X024499D01*
Y029132D01*
X024503D01*
Y029135D01*
X024506D01*
Y029142D01*
X024509D01*
Y029145D01*
X024512D01*
Y029148D01*
X024516D01*
Y029155D01*
X024519D01*
Y029158D01*
X024522D01*
Y029161D01*
X024525D01*
Y029164D01*
X024529D01*
Y029171D01*
X024532D01*
Y029174D01*
X024535D01*
Y029177D01*
X024538D01*
Y029181D01*
X024542D01*
Y029184D01*
X024545D01*
Y029187D01*
X024548D01*
Y029190D01*
X024551D01*
Y029194D01*
X024555D01*
Y029197D01*
X024558D01*
Y029200D01*
X024561D01*
Y029203D01*
X024564D01*
Y029207D01*
X024568D01*
Y029210D01*
X024574D01*
Y029213D01*
X024577D01*
Y029216D01*
X024581D01*
Y029220D01*
X024584D01*
Y029223D01*
X024590D01*
Y029226D01*
X024594D01*
Y029230D01*
X024597D01*
Y029233D01*
X024604D01*
Y029236D01*
X024607D01*
Y029239D01*
X024613D01*
Y029243D01*
X024620D01*
Y029246D01*
X024623D01*
Y029249D01*
X024630D01*
Y029252D01*
X024636D01*
Y029256D01*
X024646D01*
Y029259D01*
X024652D01*
Y029262D01*
X024659D01*
Y029265D01*
X024669D01*
Y029269D01*
X024682D01*
Y029272D01*
X024695D01*
Y029275D01*
X024714D01*
Y029278D01*
X024773D01*
Y029275D01*
X024792D01*
Y029272D01*
X024806D01*
Y029269D01*
X024815D01*
Y029265D01*
X024825D01*
Y029262D01*
X024835D01*
Y029259D01*
X024841D01*
Y029256D01*
X024848D01*
Y029252D01*
X024854D01*
Y029249D01*
X024861D01*
Y029246D01*
X024867D01*
Y029243D01*
X024874D01*
Y029239D01*
X024877D01*
Y029236D01*
X024884D01*
Y029233D01*
X024887D01*
Y029230D01*
X024893D01*
Y029226D01*
X024897D01*
Y029223D01*
X024900D01*
Y029220D01*
X024906D01*
Y029216D01*
X024910D01*
Y029213D01*
X024913D01*
Y029210D01*
X024916D01*
Y029207D01*
X024920D01*
Y029203D01*
X024926D01*
Y029200D01*
X024929D01*
Y029197D01*
X024933D01*
Y029194D01*
X024936D01*
Y029190D01*
X024939D01*
Y029187D01*
X024942D01*
Y029184D01*
X024946D01*
Y029181D01*
X024949D01*
Y029174D01*
X024952D01*
Y029171D01*
X024955D01*
Y029168D01*
X024959D01*
Y029164D01*
X024962D01*
Y029161D01*
X024965D01*
Y029155D01*
X024968D01*
Y029151D01*
X024972D01*
Y029148D01*
X024975D01*
Y029142D01*
X024978D01*
Y029138D01*
X024981D01*
Y029135D01*
X024985D01*
Y029129D01*
X024988D01*
Y029125D01*
X024991D01*
Y029119D01*
X024994D01*
Y029115D01*
X024998D01*
Y029109D01*
X025001D01*
Y029102D01*
X025004D01*
Y029099D01*
X025007D01*
Y029093D01*
X025011D01*
Y029086D01*
X025014D01*
Y029080D01*
X025017D01*
Y029073D01*
X025021D01*
Y029067D01*
X025024D01*
Y029060D01*
X025027D01*
Y029054D01*
X025030D01*
Y029044D01*
X025034D01*
Y029037D01*
X025037D01*
Y029031D01*
X025040D01*
Y029021D01*
X025043D01*
Y029014D01*
X025047D01*
Y029005D01*
X025050D01*
Y028995D01*
X025053D01*
Y028985D01*
X025056D01*
Y028972D01*
X025060D01*
Y028962D01*
X025063D01*
Y028949D01*
X025066D01*
Y028936D01*
X025069D01*
Y028920D01*
X025073D01*
Y028904D01*
X025076D01*
Y028884D01*
X025079D01*
Y028861D01*
X025082D01*
Y028826D01*
X025086D01*
Y028725D01*
X025082D01*
Y028689D01*
X025079D01*
Y028666D01*
X025076D01*
Y028646D01*
X025073D01*
Y028630D01*
X025069D01*
Y028614D01*
X025066D01*
Y028601D01*
X025063D01*
Y028588D01*
X025060D01*
Y028578D01*
X025056D01*
Y028565D01*
X025053D01*
Y028555D01*
X025050D01*
Y028545D01*
X025047D01*
Y028536D01*
X025043D01*
Y028529D01*
X025040D01*
Y028519D01*
X025037D01*
Y028513D01*
X025034D01*
Y028506D01*
X025030D01*
Y028497D01*
X025027D01*
Y028490D01*
X025024D01*
Y028483D01*
X025021D01*
Y028477D01*
X025017D01*
Y028470D01*
X025014D01*
Y028464D01*
X025011D01*
Y028457D01*
X025007D01*
Y028451D01*
X025004D01*
Y028448D01*
X025001D01*
Y028441D01*
X024998D01*
Y028435D01*
X024994D01*
Y028431D01*
X024991D01*
Y028425D01*
X024988D01*
Y028422D01*
X024985D01*
Y028415D01*
X024981D01*
Y028412D01*
X024978D01*
Y028405D01*
X024975D01*
Y028402D01*
X024972D01*
Y028399D01*
X024968D01*
Y028396D01*
X024965D01*
Y028389D01*
X024962D01*
Y028386D01*
X024959D01*
Y028382D01*
X024955D01*
Y028379D01*
X024952D01*
Y028376D01*
X024949D01*
Y028369D01*
X024946D01*
Y028366D01*
X024942D01*
Y028363D01*
X024939D01*
Y028360D01*
X024936D01*
Y028356D01*
X024933D01*
Y028353D01*
X024929D01*
Y028350D01*
X024926D01*
Y028347D01*
X024923D01*
Y028343D01*
X024916D01*
Y028340D01*
X024913D01*
Y028337D01*
X024910D01*
Y028334D01*
X024906D01*
Y028330D01*
X024900D01*
Y028327D01*
X024897D01*
Y028324D01*
X024893D01*
Y028321D01*
X024887D01*
Y028317D01*
X024884D01*
Y028314D01*
X024877D01*
Y028311D01*
X024874D01*
Y028308D01*
X024867D01*
Y028304D01*
X024861D01*
Y028301D01*
X024854D01*
Y028298D01*
X024848D01*
Y028295D01*
X024841D01*
Y028291D01*
X024835D01*
Y028288D01*
X024825D01*
Y028285D01*
X024815D01*
Y028282D01*
X024806D01*
Y028278D01*
X024792D01*
Y028275D01*
X024773D01*
Y028272D01*
X024711D01*
Y028275D01*
X024691D01*
Y028278D01*
X024682D01*
Y028282D01*
X024669D01*
Y028285D01*
X024659D01*
Y028288D01*
X024652D01*
Y028291D01*
X024643D01*
Y028295D01*
X024636D01*
Y028298D01*
X024630D01*
Y028301D01*
X024623D01*
Y028304D01*
X024620D01*
Y028308D01*
X024613D01*
Y028311D01*
X024607D01*
Y028314D01*
X024604D01*
Y028317D01*
X024597D01*
Y028321D01*
X024594D01*
Y028324D01*
X024587D01*
Y028327D01*
X024584D01*
Y028330D01*
X024581D01*
Y028334D01*
X024577D01*
Y028337D01*
X024571D01*
Y028340D01*
X024568D01*
Y028343D01*
X024564D01*
Y028347D01*
X024561D01*
Y028350D01*
X024558D01*
Y028353D01*
X024555D01*
Y028356D01*
X024551D01*
Y028360D01*
X024548D01*
Y028363D01*
X024545D01*
Y028366D01*
X024542D01*
Y028369D01*
X024538D01*
Y028373D01*
X024535D01*
Y028376D01*
X024532D01*
Y028379D01*
X024529D01*
Y028386D01*
X024525D01*
Y028389D01*
X024522D01*
Y028392D01*
X024519D01*
Y028396D01*
X024516D01*
Y028402D01*
X024512D01*
Y028405D01*
X024509D01*
Y028409D01*
X024506D01*
Y028415D01*
X024503D01*
Y028418D01*
X024499D01*
Y028425D01*
X024496D01*
Y028428D01*
X024493D01*
Y028435D01*
X024490D01*
Y028438D01*
X024486D01*
Y028444D01*
X024483D01*
Y028451D01*
X024480D01*
Y028457D01*
X024476D01*
Y028461D01*
X024473D01*
Y028467D01*
X024470D01*
Y028474D01*
X024467D01*
Y028480D01*
X024463D01*
Y028487D01*
X024460D01*
Y028493D01*
X024457D01*
Y028503D01*
X024454D01*
Y028510D01*
X024450D01*
Y028516D01*
X024447D01*
Y028526D01*
X024444D01*
Y028532D01*
X024441D01*
Y028542D01*
X024437D01*
Y028552D01*
X024434D01*
Y028549D01*
X024428D01*
Y028545D01*
X024421D01*
Y028542D01*
X024415D01*
Y028539D01*
X024405D01*
Y028536D01*
X024398D01*
Y028532D01*
X024392D01*
Y028529D01*
X024385D01*
Y028526D01*
X024375D01*
Y028523D01*
X024369D01*
Y028519D01*
X024362D01*
Y028516D01*
X024356D01*
Y028513D01*
X024346D01*
Y028510D01*
X024340D01*
Y028506D01*
X024333D01*
Y028503D01*
X024327D01*
Y028497D01*
X024323D01*
Y028493D01*
X024320D01*
Y028483D01*
X024323D01*
Y028480D01*
X024314D01*
Y028477D01*
X024310D01*
Y028474D01*
X024307D01*
Y028470D01*
X024304D01*
Y028467D01*
X024301D01*
Y028464D01*
X024297D01*
Y028461D01*
X024294D01*
Y028457D01*
X024291D01*
Y028454D01*
X024288D01*
Y028451D01*
X024284D01*
Y028448D01*
X024281D01*
Y028444D01*
X024278D01*
Y028441D01*
X024274D01*
Y028438D01*
X024271D01*
Y028435D01*
X024268D01*
Y028431D01*
X024265D01*
Y028428D01*
X024261D01*
Y028425D01*
X024255D01*
Y028422D01*
X024252D01*
Y028418D01*
X024248D01*
Y028415D01*
X024245D01*
Y028412D01*
X024239D01*
Y028409D01*
X024235D01*
Y028405D01*
X024232D01*
Y028402D01*
X024226D01*
Y028399D01*
X024222D01*
Y028396D01*
X024219D01*
Y028392D01*
X024213D01*
Y028389D01*
X024209D01*
Y028386D01*
X024203D01*
Y028382D01*
X024196D01*
Y028379D01*
X024193D01*
Y028376D01*
X024187D01*
Y028373D01*
X024183D01*
Y028369D01*
X024177D01*
Y028366D01*
X024170D01*
Y028363D01*
X024164D01*
Y028360D01*
X024160D01*
Y028356D01*
X024154D01*
Y028353D01*
X024147D01*
Y028350D01*
X024141D01*
Y028347D01*
X024134D01*
Y028343D01*
X024128D01*
Y028340D01*
X024121D01*
Y028337D01*
X024115D01*
Y028334D01*
X024105D01*
Y028330D01*
X024099D01*
Y028327D01*
X024092D01*
Y028324D01*
X024082D01*
Y028321D01*
X024076D01*
Y028317D01*
X024066D01*
Y028314D01*
X024056D01*
Y028311D01*
X024046D01*
Y028308D01*
X024037D01*
Y028304D01*
X024027D01*
Y028301D01*
X024017D01*
Y028298D01*
X024004D01*
Y028295D01*
X023991D01*
Y028291D01*
X023978D01*
Y028288D01*
X023962D01*
Y028285D01*
X023942D01*
Y028282D01*
X023910D01*
Y028278D01*
X023867D01*
Y028282D01*
X023841D01*
Y028285D01*
X023825D01*
Y028288D01*
X023815D01*
Y028291D01*
X023805D01*
Y028295D01*
X023799D01*
Y028298D01*
X023792D01*
Y028301D01*
X023789D01*
Y028304D01*
X023783D01*
Y028308D01*
X023779D01*
Y028311D01*
X023776D01*
Y028314D01*
X023773D01*
Y028317D01*
X023770D01*
Y028324D01*
X023766D01*
Y028327D01*
X023763D01*
Y028334D01*
X023760D01*
Y028340D01*
X023757D01*
Y028356D01*
X023753D01*
Y028369D01*
X023757D01*
Y028389D01*
X023760D01*
Y028399D01*
X023763D01*
Y028405D01*
X023766D01*
Y028412D01*
X023770D01*
Y028418D01*
X023773D01*
Y028425D01*
X023776D01*
Y028428D01*
X023779D01*
Y028435D01*
X023783D01*
Y028438D01*
X023786D01*
Y028444D01*
X023789D01*
Y028448D01*
X023792D01*
Y028451D01*
X023796D01*
Y028457D01*
X023799D01*
Y028461D01*
X023802D01*
Y028464D01*
X023805D01*
Y028467D01*
X023809D01*
Y028470D01*
X023812D01*
Y028474D01*
X023815D01*
Y028477D01*
X023818D01*
Y028480D01*
X023822D01*
Y028483D01*
X023825D01*
Y028487D01*
X023828D01*
Y028490D01*
X023831D01*
Y028493D01*
X023835D01*
Y028497D01*
X023838D01*
Y028500D01*
X023841D01*
Y028503D01*
X023848D01*
Y028506D01*
X023851D01*
Y028510D01*
X023854D01*
Y028513D01*
X023858D01*
Y028516D01*
X023861D01*
Y028519D01*
X023867D01*
Y028523D01*
X023871D01*
Y028526D01*
X023877D01*
Y028529D01*
X023880D01*
Y028532D01*
X023884D01*
Y028536D01*
X023890D01*
Y028539D01*
X023893D01*
Y028542D01*
X023900D01*
Y028545D01*
X023903D01*
Y028549D01*
X023910D01*
Y028552D01*
X023916D01*
Y028555D01*
X023919D01*
Y028558D01*
X023926D01*
Y028562D01*
X023932D01*
Y028565D01*
X023936D01*
Y028568D01*
X023942D01*
Y028571D01*
X023949D01*
Y028575D01*
X023955D01*
Y028578D01*
X023962D01*
Y028581D01*
X023968D01*
Y028584D01*
X023975D01*
Y028588D01*
X023981D01*
Y028591D01*
X023988D01*
Y028594D01*
X023994D01*
Y028598D01*
X024004D01*
Y028601D01*
X024011D01*
Y028604D01*
X024017D01*
Y028607D01*
X024027D01*
Y028611D01*
X024037D01*
Y028614D01*
X024043D01*
Y028617D01*
X024053D01*
Y028620D01*
X024063D01*
Y028624D01*
X024073D01*
Y028627D01*
X024082D01*
Y028630D01*
X024095D01*
Y028633D01*
X024108D01*
Y028637D01*
X024121D01*
Y028640D01*
X024138D01*
Y028643D01*
X024157D01*
Y028646D01*
X024183D01*
Y028650D01*
X024245D01*
Y028646D01*
X024268D01*
Y028643D01*
X024281D01*
Y028646D01*
X024288D01*
Y028650D01*
X024294D01*
Y028653D01*
X024301D01*
Y028656D01*
X024310D01*
Y028659D01*
X024317D01*
Y028663D01*
X024323D01*
Y028666D01*
X024330D01*
Y028669D01*
X024340D01*
Y028672D01*
X024346D01*
Y028676D01*
X024353D01*
Y028679D01*
X024359D01*
Y028682D01*
X024366D01*
Y028685D01*
X024375D01*
Y028689D01*
X024382D01*
Y028692D01*
X024389D01*
Y028695D01*
X024395D01*
Y028698D01*
X024405D01*
Y028712D01*
X024402D01*
Y028839D01*
X024405D01*
Y028861D01*
X024398D01*
Y028865D01*
X024392D01*
Y028868D01*
X024382D01*
Y028871D01*
X024375D01*
Y028874D01*
X024369D01*
Y028878D01*
X024362D01*
Y028881D01*
X024356D01*
Y028884D01*
X024346D01*
Y028887D01*
X024340D01*
Y028891D01*
X024333D01*
Y028894D01*
X024327D01*
Y028897D01*
X024317D01*
Y028900D01*
X024310D01*
Y028904D01*
X024304D01*
Y028907D01*
X024297D01*
Y028910D01*
X024288D01*
Y028914D01*
X024281D01*
Y028917D01*
X024274D01*
Y028920D01*
X024265D01*
Y028917D01*
X024245D01*
Y028914D01*
X024177D01*
Y028917D01*
X024151D01*
Y028920D01*
X024131D01*
Y028923D01*
X024115D01*
Y028927D01*
X024102D01*
Y028930D01*
X024089D01*
Y028933D01*
X024079D01*
Y028936D01*
X024066D01*
Y028940D01*
X024056D01*
Y028943D01*
X024046D01*
Y028946D01*
X024040D01*
Y028949D01*
X024030D01*
Y028953D01*
X024020D01*
Y028956D01*
X024014D01*
Y028959D01*
X024004D01*
Y028962D01*
X023998D01*
Y028966D01*
X023991D01*
Y028969D01*
X023985D01*
Y028972D01*
X023975D01*
Y028975D01*
X023968D01*
Y028979D01*
X023962D01*
Y028982D01*
X023955D01*
Y028985D01*
X023949D01*
Y028988D01*
X023942D01*
Y028992D01*
X023939D01*
Y028995D01*
X023932D01*
Y028998D01*
X023926D01*
Y029001D01*
X023919D01*
Y029005D01*
X023916D01*
Y029008D01*
X023910D01*
Y029011D01*
X023903D01*
Y029014D01*
X023900D01*
Y029018D01*
X023893D01*
Y029021D01*
X023890D01*
Y029024D01*
X023884D01*
Y029028D01*
X023880D01*
Y029031D01*
X023874D01*
Y029034D01*
X023871D01*
Y029037D01*
X023867D01*
Y029041D01*
X023861D01*
Y029044D01*
X023858D01*
Y029047D01*
X023854D01*
Y029050D01*
X023851D01*
Y029054D01*
X023844D01*
Y029057D01*
X023841D01*
Y029060D01*
X023838D01*
Y029063D01*
X023835D01*
Y029067D01*
X023831D01*
Y029070D01*
X023828D01*
Y029073D01*
X023822D01*
Y029076D01*
X023818D01*
Y029080D01*
X023815D01*
Y029083D01*
X023812D01*
Y029086D01*
X023809D01*
Y029089D01*
X023805D01*
Y029096D01*
X023802D01*
Y029099D01*
X023799D01*
Y029102D01*
X023796D01*
Y029106D01*
X023792D01*
Y029109D01*
X023789D01*
Y029112D01*
X023786D01*
Y029119D01*
X023783D01*
Y029122D01*
X023779D01*
Y029129D01*
X023776D01*
Y029132D01*
X023773D01*
Y029138D01*
X023770D01*
Y029142D01*
X023766D01*
Y029148D01*
X023763D01*
Y029155D01*
X023760D01*
Y029164D01*
X023757D01*
Y029171D01*
X023753D01*
Y029187D01*
X023750D01*
Y029213D01*
X023753D01*
Y029223D01*
X023757D01*
Y029230D01*
X023760D01*
Y029236D01*
X023763D01*
Y029243D01*
X023766D01*
Y029246D01*
X023770D01*
Y029249D01*
X023773D01*
Y029252D01*
X023776D01*
Y029256D01*
X023779D01*
Y029259D01*
X023786D01*
Y029262D01*
X023789D01*
Y029265D01*
X023796D01*
Y029269D01*
X023805D01*
Y029272D01*
X023812D01*
Y029275D01*
X023825D01*
Y029278D01*
X023838D01*
Y029282D01*
X023874D01*
Y029285D01*
X023893D01*
Y029282D01*
D02*
G37*
%LPC*%
G36*
X024310Y029060D02*
X024307D01*
Y029054D01*
X024304D01*
Y029044D01*
X024301D01*
Y029037D01*
X024297D01*
Y029031D01*
X024294D01*
Y029024D01*
X024291D01*
Y029014D01*
X024294D01*
Y029021D01*
X024297D01*
Y029028D01*
X024301D01*
Y029034D01*
X024304D01*
Y029041D01*
X024307D01*
Y029050D01*
X024310D01*
Y029060D01*
D02*
G37*
G36*
X023916Y029272D02*
X023854D01*
Y029269D01*
X023831D01*
Y029265D01*
X023818D01*
Y029262D01*
X023809D01*
Y029259D01*
X023802D01*
Y029256D01*
X023796D01*
Y029252D01*
X023789D01*
Y029249D01*
X023786D01*
Y029246D01*
X023783D01*
Y029243D01*
X023779D01*
Y029239D01*
X023776D01*
Y029236D01*
X023773D01*
Y029233D01*
X023770D01*
Y029226D01*
X023766D01*
Y029216D01*
X023763D01*
Y029181D01*
X023766D01*
Y029168D01*
X023770D01*
Y029161D01*
X023773D01*
Y029155D01*
X023776D01*
Y029148D01*
X023779D01*
Y029142D01*
X023783D01*
Y029135D01*
X023786D01*
Y029132D01*
X023789D01*
Y029129D01*
X023792D01*
Y029122D01*
X023796D01*
Y029119D01*
X023799D01*
Y029115D01*
X023802D01*
Y029112D01*
X023805D01*
Y029106D01*
X023809D01*
Y029102D01*
X023812D01*
Y029099D01*
X023815D01*
Y029096D01*
X023818D01*
Y029093D01*
X023822D01*
Y029089D01*
X023825D01*
Y029086D01*
X023828D01*
Y029083D01*
X023831D01*
Y029080D01*
X023835D01*
Y029076D01*
X023838D01*
Y029073D01*
X023841D01*
Y029070D01*
X023848D01*
Y029067D01*
X023851D01*
Y029063D01*
X023854D01*
Y029060D01*
X023858D01*
Y029057D01*
X023864D01*
Y029054D01*
X023867D01*
Y029050D01*
X023871D01*
Y029047D01*
X023877D01*
Y029044D01*
X023880D01*
Y029041D01*
X023884D01*
Y029037D01*
X023890D01*
Y029034D01*
X023893D01*
Y029031D01*
X023900D01*
Y029028D01*
X023903D01*
Y029024D01*
X023910D01*
Y029021D01*
X023916D01*
Y029018D01*
X023919D01*
Y029014D01*
X023926D01*
Y029011D01*
X023932D01*
Y029008D01*
X023936D01*
Y029005D01*
X023942D01*
Y029001D01*
X023949D01*
Y028998D01*
X023955D01*
Y028995D01*
X023962D01*
Y028992D01*
X023968D01*
Y028988D01*
X023975D01*
Y028985D01*
X023981D01*
Y028982D01*
X023988D01*
Y028979D01*
X023994D01*
Y028975D01*
X024004D01*
Y028972D01*
X024011D01*
Y028969D01*
X024017D01*
Y028966D01*
X024027D01*
Y028962D01*
X024037D01*
Y028959D01*
X024043D01*
Y028956D01*
X024053D01*
Y028953D01*
X024063D01*
Y028949D01*
X024073D01*
Y028946D01*
X024086D01*
Y028943D01*
X024099D01*
Y028940D01*
X024108D01*
Y028936D01*
X024125D01*
Y028933D01*
X024141D01*
Y028930D01*
X024164D01*
Y028927D01*
X024232D01*
Y028933D01*
X024235D01*
Y028940D01*
X024239D01*
Y028946D01*
X024242D01*
Y028953D01*
X024245D01*
Y028962D01*
X024248D01*
Y028969D01*
X024252D01*
Y028975D01*
X024255D01*
Y028982D01*
X024258D01*
Y028992D01*
X024261D01*
Y028998D01*
X024265D01*
Y029005D01*
X024268D01*
Y029008D01*
X024265D01*
Y029011D01*
X024258D01*
Y029014D01*
X024252D01*
Y029018D01*
X024245D01*
Y029021D01*
X024242D01*
Y029024D01*
X024235D01*
Y029028D01*
X024229D01*
Y029031D01*
X024226D01*
Y029034D01*
X024219D01*
Y029037D01*
X024213D01*
Y029041D01*
X024209D01*
Y029044D01*
X024203D01*
Y029047D01*
X024196D01*
Y029050D01*
X024193D01*
Y029054D01*
X024187D01*
Y029057D01*
X024183D01*
Y029060D01*
X024177D01*
Y029063D01*
X024170D01*
Y029067D01*
X024167D01*
Y029070D01*
X024160D01*
Y029073D01*
X024157D01*
Y029076D01*
X024151D01*
Y029080D01*
X024147D01*
Y029083D01*
X024141D01*
Y029086D01*
X024138D01*
Y029089D01*
X024131D01*
Y029093D01*
X024128D01*
Y029096D01*
X024121D01*
Y029099D01*
X024118D01*
Y029102D01*
X024112D01*
Y029106D01*
X024108D01*
Y029109D01*
X024102D01*
Y029112D01*
X024099D01*
Y029115D01*
X024092D01*
Y029119D01*
X024089D01*
Y029122D01*
X024082D01*
Y029125D01*
X024079D01*
Y029129D01*
X024076D01*
Y029132D01*
X024069D01*
Y029135D01*
X024066D01*
Y029138D01*
X024059D01*
Y029142D01*
X024056D01*
Y029145D01*
X024050D01*
Y029148D01*
X024046D01*
Y029151D01*
X024043D01*
Y029155D01*
X024037D01*
Y029158D01*
X024033D01*
Y029161D01*
X024027D01*
Y029164D01*
X024024D01*
Y029168D01*
X024020D01*
Y029171D01*
X024014D01*
Y029174D01*
X024011D01*
Y029177D01*
X024004D01*
Y029181D01*
X024001D01*
Y029184D01*
X023998D01*
Y029187D01*
X023991D01*
Y029190D01*
X023988D01*
Y029194D01*
X023985D01*
Y029197D01*
X023978D01*
Y029200D01*
X023975D01*
Y029203D01*
X023972D01*
Y029207D01*
X023968D01*
Y029210D01*
X023962D01*
Y029213D01*
X023958D01*
Y029216D01*
X023955D01*
Y029220D01*
X023952D01*
Y029223D01*
X023949D01*
Y029226D01*
X023952D01*
Y029223D01*
X023958D01*
Y029220D01*
X023965D01*
Y029216D01*
X023972D01*
Y029213D01*
X023978D01*
Y029210D01*
X023981D01*
Y029207D01*
X023988D01*
Y029203D01*
X023994D01*
Y029200D01*
X023998D01*
Y029197D01*
X024004D01*
Y029194D01*
X024011D01*
Y029190D01*
X024014D01*
Y029187D01*
X024020D01*
Y029184D01*
X024027D01*
Y029181D01*
X024030D01*
Y029177D01*
X024037D01*
Y029174D01*
X024040D01*
Y029171D01*
X024046D01*
Y029168D01*
X024050D01*
Y029164D01*
X024056D01*
Y029161D01*
X024059D01*
Y029158D01*
X024066D01*
Y029155D01*
X024069D01*
Y029151D01*
X024076D01*
Y029148D01*
X024079D01*
Y029145D01*
X024086D01*
Y029142D01*
X024089D01*
Y029138D01*
X024095D01*
Y029135D01*
X024099D01*
Y029132D01*
X024105D01*
Y029129D01*
X024108D01*
Y029125D01*
X024115D01*
Y029122D01*
X024118D01*
Y029119D01*
X024125D01*
Y029115D01*
X024128D01*
Y029112D01*
X024134D01*
Y029109D01*
X024138D01*
Y029106D01*
X024144D01*
Y029102D01*
X024147D01*
Y029099D01*
X024154D01*
Y029096D01*
X024157D01*
Y029093D01*
X024160D01*
Y029089D01*
X024167D01*
Y029086D01*
X024170D01*
Y029083D01*
X024177D01*
Y029080D01*
X024180D01*
Y029076D01*
X024187D01*
Y029073D01*
X024190D01*
Y029070D01*
X024193D01*
Y029067D01*
X024200D01*
Y029063D01*
X024203D01*
Y029060D01*
X024206D01*
Y029057D01*
X024213D01*
Y029054D01*
X024216D01*
Y029050D01*
X024219D01*
Y029047D01*
X024226D01*
Y029044D01*
X024229D01*
Y029041D01*
X024232D01*
Y029037D01*
X024239D01*
Y029034D01*
X024242D01*
Y029031D01*
X024245D01*
Y029028D01*
X024252D01*
Y029024D01*
X024255D01*
Y029021D01*
X024258D01*
Y029018D01*
X024261D01*
Y029014D01*
X024265D01*
Y029011D01*
X024271D01*
Y029021D01*
X024274D01*
Y029028D01*
X024278D01*
Y029034D01*
X024281D01*
Y029041D01*
X024284D01*
Y029047D01*
X024288D01*
Y029057D01*
X024291D01*
Y029063D01*
X024294D01*
Y029070D01*
X024297D01*
Y029080D01*
X024294D01*
Y029086D01*
X024291D01*
Y029089D01*
X024288D01*
Y029093D01*
X024284D01*
Y029096D01*
X024281D01*
Y029099D01*
X024278D01*
Y029102D01*
X024274D01*
Y029106D01*
X024271D01*
Y029109D01*
X024268D01*
Y029112D01*
X024265D01*
Y029115D01*
X024261D01*
Y029119D01*
X024258D01*
Y029122D01*
X024255D01*
Y029125D01*
X024252D01*
Y029129D01*
X024245D01*
Y029132D01*
X024242D01*
Y029135D01*
X024239D01*
Y029138D01*
X024235D01*
Y029142D01*
X024229D01*
Y029145D01*
X024226D01*
Y029148D01*
X024222D01*
Y029151D01*
X024216D01*
Y029155D01*
X024213D01*
Y029158D01*
X024209D01*
Y029161D01*
X024203D01*
Y029164D01*
X024200D01*
Y029168D01*
X024193D01*
Y029171D01*
X024187D01*
Y029174D01*
X024183D01*
Y029177D01*
X024177D01*
Y029181D01*
X024174D01*
Y029184D01*
X024167D01*
Y029187D01*
X024160D01*
Y029190D01*
X024154D01*
Y029194D01*
X024147D01*
Y029197D01*
X024144D01*
Y029200D01*
X024138D01*
Y029203D01*
X024131D01*
Y029207D01*
X024125D01*
Y029210D01*
X024118D01*
Y029213D01*
X024112D01*
Y029216D01*
X024102D01*
Y029220D01*
X024095D01*
Y029223D01*
X024089D01*
Y029226D01*
X024079D01*
Y029230D01*
X024073D01*
Y029233D01*
X024063D01*
Y029236D01*
X024056D01*
Y029239D01*
X024046D01*
Y029243D01*
X024037D01*
Y029246D01*
X024027D01*
Y029249D01*
X024017D01*
Y029252D01*
X024004D01*
Y029256D01*
X023991D01*
Y029259D01*
X023978D01*
Y029262D01*
X023962D01*
Y029265D01*
X023942D01*
Y029269D01*
X023916D01*
Y029272D01*
D02*
G37*
G36*
X024291Y029014D02*
X024288D01*
Y029008D01*
X024284D01*
Y029001D01*
X024281D01*
Y028995D01*
X024278D01*
Y028985D01*
X024281D01*
Y028992D01*
X024284D01*
Y028998D01*
X024288D01*
Y029005D01*
X024291D01*
Y029014D01*
D02*
G37*
G36*
X024278Y028985D02*
X024274D01*
Y028979D01*
X024271D01*
Y028972D01*
X024268D01*
Y028966D01*
X024265D01*
Y028956D01*
X024268D01*
Y028962D01*
X024271D01*
Y028969D01*
X024274D01*
Y028975D01*
X024278D01*
Y028985D01*
D02*
G37*
G36*
X024265Y028956D02*
X024261D01*
Y028949D01*
X024258D01*
Y028943D01*
X024255D01*
Y028936D01*
X024252D01*
Y028927D01*
X024255D01*
Y028933D01*
X024258D01*
Y028940D01*
X024261D01*
Y028946D01*
X024265D01*
Y028956D01*
D02*
G37*
G36*
X024747Y029269D02*
X024740D01*
Y029265D01*
X024705D01*
Y029262D01*
X024688D01*
Y029259D01*
X024675D01*
Y029256D01*
X024665D01*
Y029252D01*
X024659D01*
Y029249D01*
X024649D01*
Y029246D01*
X024643D01*
Y029243D01*
X024636D01*
Y029239D01*
X024630D01*
Y029236D01*
X024623D01*
Y029233D01*
X024617D01*
Y029230D01*
X024613D01*
Y029226D01*
X024607D01*
Y029223D01*
X024604D01*
Y029220D01*
X024597D01*
Y029216D01*
X024594D01*
Y029213D01*
X024590D01*
Y029210D01*
X024584D01*
Y029207D01*
X024581D01*
Y029203D01*
X024577D01*
Y029200D01*
X024574D01*
Y029197D01*
X024571D01*
Y029194D01*
X024568D01*
Y029190D01*
X024564D01*
Y029187D01*
X024561D01*
Y029184D01*
X024558D01*
Y029181D01*
X024555D01*
Y029177D01*
X024551D01*
Y029174D01*
X024548D01*
Y029171D01*
X024545D01*
Y029168D01*
X024542D01*
Y029164D01*
X024538D01*
Y029161D01*
X024535D01*
Y029158D01*
X024532D01*
Y029151D01*
X024529D01*
Y029148D01*
X024525D01*
Y029145D01*
X024522D01*
Y029138D01*
X024519D01*
Y029135D01*
X024516D01*
Y029132D01*
X024512D01*
Y029125D01*
X024509D01*
Y029122D01*
X024506D01*
Y029115D01*
X024503D01*
Y029112D01*
X024499D01*
Y029106D01*
X024496D01*
Y029099D01*
X024493D01*
Y029096D01*
X024490D01*
Y029089D01*
X024486D01*
Y029083D01*
X024483D01*
Y029076D01*
X024480D01*
Y029070D01*
X024476D01*
Y029063D01*
X024473D01*
Y029057D01*
X024470D01*
Y029050D01*
X024467D01*
Y029044D01*
X024463D01*
Y029034D01*
X024460D01*
Y029028D01*
X024457D01*
Y029018D01*
X024454D01*
Y029011D01*
X024450D01*
Y029001D01*
X024460D01*
Y028998D01*
X024467D01*
Y028995D01*
X024473D01*
Y028992D01*
X024480D01*
Y028988D01*
X024486D01*
Y028985D01*
X024496D01*
Y028982D01*
X024493D01*
Y028975D01*
X024490D01*
Y028969D01*
X024486D01*
Y028962D01*
X024483D01*
Y028953D01*
X024480D01*
Y028946D01*
X024476D01*
Y028940D01*
X024473D01*
Y028933D01*
X024470D01*
Y028923D01*
X024467D01*
Y028917D01*
X024463D01*
Y028910D01*
X024460D01*
Y028904D01*
X024457D01*
Y028894D01*
X024454D01*
Y028887D01*
X024450D01*
Y028881D01*
X024447D01*
Y028874D01*
X024444D01*
Y028868D01*
X024441D01*
Y028858D01*
X024437D01*
Y028852D01*
X024434D01*
Y028848D01*
X024428D01*
Y028852D01*
X024421D01*
Y028855D01*
X024418D01*
Y028852D01*
X024415D01*
Y028809D01*
X024411D01*
Y028741D01*
X024415D01*
Y028705D01*
X024418D01*
Y028708D01*
X024424D01*
Y028712D01*
X024434D01*
Y028715D01*
X024437D01*
Y028712D01*
X024441D01*
Y028705D01*
X024444D01*
Y028698D01*
X024447D01*
Y028692D01*
X024450D01*
Y028682D01*
X024454D01*
Y028676D01*
X024457D01*
Y028669D01*
X024460D01*
Y028663D01*
X024463D01*
Y028653D01*
X024467D01*
Y028646D01*
X024470D01*
Y028640D01*
X024473D01*
Y028633D01*
X024476D01*
Y028624D01*
X024480D01*
Y028617D01*
X024483D01*
Y028611D01*
X024486D01*
Y028604D01*
X024490D01*
Y028598D01*
X024493D01*
Y028588D01*
X024496D01*
Y028581D01*
X024499D01*
Y028578D01*
X024493D01*
Y028575D01*
X024486D01*
Y028571D01*
X024480D01*
Y028568D01*
X024470D01*
Y028565D01*
X024463D01*
Y028562D01*
X024457D01*
Y028558D01*
X024450D01*
Y028555D01*
X024447D01*
Y028549D01*
X024450D01*
Y028539D01*
X024454D01*
Y028532D01*
X024457D01*
Y028523D01*
X024460D01*
Y028516D01*
X024463D01*
Y028506D01*
X024467D01*
Y028500D01*
X024470D01*
Y028493D01*
X024473D01*
Y028487D01*
X024476D01*
Y028480D01*
X024480D01*
Y028474D01*
X024483D01*
Y028467D01*
X024486D01*
Y028461D01*
X024490D01*
Y028454D01*
X024493D01*
Y028451D01*
X024496D01*
Y028444D01*
X024499D01*
Y028438D01*
X024503D01*
Y028435D01*
X024506D01*
Y028428D01*
X024509D01*
Y028425D01*
X024512D01*
Y028418D01*
X024516D01*
Y028415D01*
X024519D01*
Y028409D01*
X024522D01*
Y028405D01*
X024525D01*
Y028402D01*
X024529D01*
Y028399D01*
X024532D01*
Y028392D01*
X024535D01*
Y028389D01*
X024538D01*
Y028386D01*
X024542D01*
Y028382D01*
X024545D01*
Y028379D01*
X024548D01*
Y028376D01*
X024551D01*
Y028373D01*
X024555D01*
Y028369D01*
X024558D01*
Y028366D01*
X024561D01*
Y028363D01*
X024564D01*
Y028360D01*
X024568D01*
Y028356D01*
X024571D01*
Y028353D01*
X024574D01*
Y028350D01*
X024577D01*
Y028347D01*
X024581D01*
Y028343D01*
X024584D01*
Y028340D01*
X024590D01*
Y028337D01*
X024594D01*
Y028334D01*
X024597D01*
Y028330D01*
X024604D01*
Y028327D01*
X024607D01*
Y028324D01*
X024613D01*
Y028321D01*
X024617D01*
Y028317D01*
X024623D01*
Y028314D01*
X024630D01*
Y028311D01*
X024636D01*
Y028308D01*
X024643D01*
Y028304D01*
X024649D01*
Y028301D01*
X024656D01*
Y028298D01*
X024665D01*
Y028295D01*
X024675D01*
Y028291D01*
X024688D01*
Y028288D01*
X024705D01*
Y028285D01*
X024737D01*
Y028282D01*
X024750D01*
Y028285D01*
X024783D01*
Y028288D01*
X024799D01*
Y028291D01*
X024812D01*
Y028295D01*
X024822D01*
Y028298D01*
X024828D01*
Y028301D01*
X024838D01*
Y028304D01*
X024845D01*
Y028308D01*
X024851D01*
Y028311D01*
X024858D01*
Y028314D01*
X024864D01*
Y028317D01*
X024867D01*
Y028321D01*
X024874D01*
Y028324D01*
X024877D01*
Y028327D01*
X024884D01*
Y028330D01*
X024887D01*
Y028334D01*
X024893D01*
Y028337D01*
X024897D01*
Y028340D01*
X024900D01*
Y028343D01*
X024903D01*
Y028347D01*
X024910D01*
Y028350D01*
X024913D01*
Y028353D01*
X024916D01*
Y028356D01*
X024920D01*
Y028360D01*
X024923D01*
Y028363D01*
X024926D01*
Y028366D01*
X024929D01*
Y028369D01*
X024933D01*
Y028373D01*
X024936D01*
Y028376D01*
X024939D01*
Y028379D01*
X024942D01*
Y028382D01*
X024946D01*
Y028386D01*
X024949D01*
Y028392D01*
X024952D01*
Y028396D01*
X024955D01*
Y028399D01*
X024959D01*
Y028402D01*
X024962D01*
Y028409D01*
X024965D01*
Y028412D01*
X024968D01*
Y028415D01*
X024972D01*
Y028422D01*
X024975D01*
Y028425D01*
X024978D01*
Y028431D01*
X024981D01*
Y028435D01*
X024985D01*
Y028441D01*
X024988D01*
Y028448D01*
X024991D01*
Y028451D01*
X024994D01*
Y028457D01*
X024998D01*
Y028464D01*
X025001D01*
Y028470D01*
X025004D01*
Y028477D01*
X025007D01*
Y028480D01*
X025011D01*
Y028490D01*
X025014D01*
Y028497D01*
X025017D01*
Y028503D01*
X025021D01*
Y028510D01*
X025024D01*
Y028516D01*
X025027D01*
Y028526D01*
X025030D01*
Y028536D01*
X025034D01*
Y028542D01*
X025037D01*
Y028552D01*
X025040D01*
Y028562D01*
X025043D01*
Y028571D01*
X025047D01*
Y028584D01*
X025050D01*
Y028598D01*
X025053D01*
Y028607D01*
X025056D01*
Y028624D01*
X025060D01*
Y028640D01*
X025063D01*
Y028656D01*
X025066D01*
Y028679D01*
X025069D01*
Y028712D01*
X025073D01*
Y028839D01*
X025069D01*
Y028871D01*
X025066D01*
Y028894D01*
X025063D01*
Y028910D01*
X025060D01*
Y028927D01*
X025056D01*
Y028943D01*
X025053D01*
Y028953D01*
X025050D01*
Y028966D01*
X025047D01*
Y028979D01*
X025043D01*
Y028988D01*
X025040D01*
Y028998D01*
X025037D01*
Y029008D01*
X025034D01*
Y029014D01*
X025030D01*
Y029024D01*
X025027D01*
Y029034D01*
X025024D01*
Y029041D01*
X025021D01*
Y029047D01*
X025017D01*
Y029054D01*
X025014D01*
Y029060D01*
X025011D01*
Y029067D01*
X025007D01*
Y029073D01*
X025004D01*
Y029080D01*
X025001D01*
Y029086D01*
X024998D01*
Y029093D01*
X024994D01*
Y029099D01*
X024991D01*
Y029102D01*
X024988D01*
Y029109D01*
X024985D01*
Y029115D01*
X024981D01*
Y029119D01*
X024978D01*
Y029125D01*
X024975D01*
Y029129D01*
X024972D01*
Y029135D01*
X024968D01*
Y029138D01*
X024965D01*
Y029142D01*
X024962D01*
Y029148D01*
X024959D01*
Y029151D01*
X024955D01*
Y029155D01*
X024952D01*
Y029158D01*
X024949D01*
Y029161D01*
X024946D01*
Y029168D01*
X024942D01*
Y029171D01*
X024939D01*
Y029174D01*
X024936D01*
Y029177D01*
X024933D01*
Y029181D01*
X024929D01*
Y029184D01*
X024926D01*
Y029187D01*
X024923D01*
Y029190D01*
X024920D01*
Y029194D01*
X024916D01*
Y029197D01*
X024913D01*
Y029200D01*
X024910D01*
Y029203D01*
X024903D01*
Y029207D01*
X024900D01*
Y029210D01*
X024897D01*
Y029213D01*
X024893D01*
Y029216D01*
X024887D01*
Y029220D01*
X024884D01*
Y029223D01*
X024877D01*
Y029226D01*
X024874D01*
Y029230D01*
X024867D01*
Y029233D01*
X024861D01*
Y029236D01*
X024858D01*
Y029239D01*
X024851D01*
Y029243D01*
X024845D01*
Y029246D01*
X024835D01*
Y029249D01*
X024828D01*
Y029252D01*
X024819D01*
Y029256D01*
X024809D01*
Y029259D01*
X024799D01*
Y029262D01*
X024783D01*
Y029265D01*
X024747D01*
Y029269D01*
D02*
G37*
G36*
X024258Y028633D02*
X024255D01*
Y028630D01*
X024258D01*
Y028620D01*
X024261D01*
Y028614D01*
X024265D01*
Y028607D01*
X024268D01*
Y028601D01*
X024271D01*
Y028591D01*
X024274D01*
Y028584D01*
X024278D01*
Y028578D01*
X024281D01*
Y028571D01*
X024284D01*
Y028562D01*
X024288D01*
Y028555D01*
X024291D01*
Y028549D01*
X024294D01*
Y028542D01*
X024297D01*
Y028536D01*
X024301D01*
Y028526D01*
X024304D01*
Y028519D01*
X024307D01*
Y028513D01*
X024310D01*
Y028506D01*
X024314D01*
Y028503D01*
X024317D01*
Y028506D01*
X024314D01*
Y028516D01*
X024310D01*
Y028523D01*
X024307D01*
Y028529D01*
X024304D01*
Y028536D01*
X024301D01*
Y028545D01*
X024297D01*
Y028552D01*
X024294D01*
Y028558D01*
X024291D01*
Y028565D01*
X024288D01*
Y028575D01*
X024284D01*
Y028581D01*
X024281D01*
Y028588D01*
X024278D01*
Y028594D01*
X024274D01*
Y028601D01*
X024271D01*
Y028611D01*
X024268D01*
Y028617D01*
X024265D01*
Y028624D01*
X024261D01*
Y028630D01*
X024258D01*
Y028633D01*
D02*
G37*
G36*
X024235Y028637D02*
X024170D01*
Y028633D01*
X024151D01*
Y028630D01*
X024131D01*
Y028627D01*
X024115D01*
Y028624D01*
X024102D01*
Y028620D01*
X024092D01*
Y028617D01*
X024079D01*
Y028614D01*
X024069D01*
Y028611D01*
X024059D01*
Y028607D01*
X024050D01*
Y028604D01*
X024040D01*
Y028601D01*
X024033D01*
Y028598D01*
X024024D01*
Y028594D01*
X024017D01*
Y028591D01*
X024007D01*
Y028588D01*
X024001D01*
Y028584D01*
X023994D01*
Y028581D01*
X023988D01*
Y028578D01*
X023978D01*
Y028575D01*
X023972D01*
Y028571D01*
X023965D01*
Y028568D01*
X023958D01*
Y028565D01*
X023955D01*
Y028562D01*
X023949D01*
Y028558D01*
X023942D01*
Y028555D01*
X023936D01*
Y028552D01*
X023929D01*
Y028549D01*
X023926D01*
Y028545D01*
X023919D01*
Y028542D01*
X023913D01*
Y028539D01*
X023910D01*
Y028536D01*
X023903D01*
Y028532D01*
X023900D01*
Y028529D01*
X023893D01*
Y028526D01*
X023890D01*
Y028523D01*
X023884D01*
Y028519D01*
X023880D01*
Y028516D01*
X023877D01*
Y028513D01*
X023871D01*
Y028510D01*
X023867D01*
Y028506D01*
X023864D01*
Y028503D01*
X023861D01*
Y028500D01*
X023854D01*
Y028497D01*
X023851D01*
Y028493D01*
X023848D01*
Y028490D01*
X023844D01*
Y028487D01*
X023841D01*
Y028483D01*
X023838D01*
Y028480D01*
X023835D01*
Y028477D01*
X023828D01*
Y028474D01*
X023825D01*
Y028467D01*
X023822D01*
Y028464D01*
X023818D01*
Y028461D01*
X023815D01*
Y028457D01*
X023812D01*
Y028454D01*
X023809D01*
Y028451D01*
X023805D01*
Y028448D01*
X023802D01*
Y028444D01*
X023799D01*
Y028438D01*
X023796D01*
Y028435D01*
X023792D01*
Y028428D01*
X023789D01*
Y028425D01*
X023786D01*
Y028418D01*
X023783D01*
Y028415D01*
X023779D01*
Y028409D01*
X023776D01*
Y028399D01*
X023773D01*
Y028392D01*
X023770D01*
Y028379D01*
X023766D01*
Y028350D01*
X023770D01*
Y028337D01*
X023773D01*
Y028330D01*
X023776D01*
Y028327D01*
X023779D01*
Y028324D01*
X023783D01*
Y028321D01*
X023786D01*
Y028317D01*
X023789D01*
Y028314D01*
X023792D01*
Y028311D01*
X023799D01*
Y028308D01*
X023805D01*
Y028304D01*
X023812D01*
Y028301D01*
X023822D01*
Y028298D01*
X023835D01*
Y028295D01*
X023854D01*
Y028291D01*
X023923D01*
Y028295D01*
X023949D01*
Y028298D01*
X023968D01*
Y028301D01*
X023985D01*
Y028304D01*
X023998D01*
Y028308D01*
X024011D01*
Y028311D01*
X024020D01*
Y028314D01*
X024030D01*
Y028317D01*
X024043D01*
Y028321D01*
X024053D01*
Y028324D01*
X024059D01*
Y028327D01*
X024069D01*
Y028330D01*
X024079D01*
Y028334D01*
X024086D01*
Y028337D01*
X024092D01*
Y028340D01*
X024102D01*
Y028343D01*
X024108D01*
Y028347D01*
X024115D01*
Y028350D01*
X024121D01*
Y028353D01*
X024128D01*
Y028356D01*
X024134D01*
Y028360D01*
X024141D01*
Y028363D01*
X024147D01*
Y028366D01*
X024154D01*
Y028369D01*
X024160D01*
Y028373D01*
X024167D01*
Y028376D01*
X024170D01*
Y028379D01*
X024177D01*
Y028382D01*
X024183D01*
Y028386D01*
X024187D01*
Y028389D01*
X024193D01*
Y028392D01*
X024196D01*
Y028396D01*
X024203D01*
Y028399D01*
X024209D01*
Y028402D01*
X024213D01*
Y028405D01*
X024216D01*
Y028409D01*
X024222D01*
Y028412D01*
X024226D01*
Y028415D01*
X024232D01*
Y028418D01*
X024235D01*
Y028422D01*
X024239D01*
Y028425D01*
X024242D01*
Y028428D01*
X024248D01*
Y028431D01*
X024252D01*
Y028435D01*
X024255D01*
Y028438D01*
X024258D01*
Y028441D01*
X024261D01*
Y028444D01*
X024265D01*
Y028448D01*
X024268D01*
Y028451D01*
X024271D01*
Y028454D01*
X024274D01*
Y028457D01*
X024278D01*
Y028461D01*
X024281D01*
Y028464D01*
X024284D01*
Y028467D01*
X024288D01*
Y028470D01*
X024291D01*
Y028474D01*
X024294D01*
Y028477D01*
X024297D01*
Y028480D01*
X024301D01*
Y028493D01*
X024297D01*
Y028500D01*
X024294D01*
Y028510D01*
X024291D01*
Y028516D01*
X024288D01*
Y028523D01*
X024284D01*
Y028529D01*
X024281D01*
Y028539D01*
X024278D01*
Y028545D01*
X024274D01*
Y028552D01*
X024271D01*
Y028558D01*
X024261D01*
Y028555D01*
X024252D01*
Y028552D01*
X024242D01*
Y028549D01*
X024232D01*
Y028545D01*
X024222D01*
Y028542D01*
X024213D01*
Y028539D01*
X024200D01*
Y028536D01*
X024190D01*
Y028532D01*
X024177D01*
Y028529D01*
X024167D01*
Y028526D01*
X024154D01*
Y028523D01*
X024144D01*
Y028519D01*
X024131D01*
Y028516D01*
X024118D01*
Y028513D01*
X024105D01*
Y028510D01*
X024095D01*
Y028506D01*
X024082D01*
Y028503D01*
X024069D01*
Y028500D01*
X024056D01*
Y028497D01*
X024040D01*
Y028493D01*
X024027D01*
Y028490D01*
X024014D01*
Y028487D01*
X024001D01*
Y028483D01*
X023985D01*
Y028480D01*
X023972D01*
Y028477D01*
X023955D01*
Y028474D01*
X023939D01*
Y028470D01*
X023923D01*
Y028467D01*
X023900D01*
Y028464D01*
X023887D01*
Y028467D01*
X023897D01*
Y028470D01*
X023903D01*
Y028474D01*
X023913D01*
Y028477D01*
X023923D01*
Y028480D01*
X023932D01*
Y028483D01*
X023942D01*
Y028487D01*
X023955D01*
Y028490D01*
X023965D01*
Y028493D01*
X023978D01*
Y028497D01*
X023988D01*
Y028500D01*
X023998D01*
Y028503D01*
X024011D01*
Y028506D01*
X024024D01*
Y028510D01*
X024037D01*
Y028513D01*
X024046D01*
Y028516D01*
X024059D01*
Y028519D01*
X024073D01*
Y028523D01*
X024086D01*
Y028526D01*
X024099D01*
Y028529D01*
X024112D01*
Y028532D01*
X024125D01*
Y028536D01*
X024141D01*
Y028539D01*
X024154D01*
Y028542D01*
X024167D01*
Y028545D01*
X024183D01*
Y028549D01*
X024196D01*
Y028552D01*
X024213D01*
Y028555D01*
X024232D01*
Y028558D01*
X024248D01*
Y028562D01*
X024268D01*
Y028568D01*
X024265D01*
Y028575D01*
X024261D01*
Y028581D01*
X024258D01*
Y028588D01*
X024255D01*
Y028594D01*
X024252D01*
Y028604D01*
X024248D01*
Y028611D01*
X024245D01*
Y028617D01*
X024242D01*
Y028624D01*
X024239D01*
Y028633D01*
X024235D01*
Y028637D01*
D02*
G37*
%LPD*%
G36*
X023893Y029096D02*
X023913D01*
Y029093D01*
X023932D01*
Y029089D01*
X023949D01*
Y029086D01*
X023965D01*
Y029083D01*
X023978D01*
Y029080D01*
X023994D01*
Y029076D01*
X024007D01*
Y029073D01*
X024020D01*
Y029070D01*
X024033D01*
Y029067D01*
X024050D01*
Y029063D01*
X024063D01*
Y029060D01*
X024076D01*
Y029057D01*
X024089D01*
Y029054D01*
X024102D01*
Y029050D01*
X024112D01*
Y029047D01*
X024125D01*
Y029044D01*
X024138D01*
Y029041D01*
X024151D01*
Y029037D01*
X024160D01*
Y029034D01*
X024174D01*
Y029031D01*
X024183D01*
Y029028D01*
X024193D01*
Y029024D01*
X024206D01*
Y029021D01*
X024216D01*
Y029018D01*
X024226D01*
Y029014D01*
X024235D01*
Y029011D01*
X024245D01*
Y029008D01*
X024255D01*
Y029005D01*
X024261D01*
Y029001D01*
X024242D01*
Y029005D01*
X024222D01*
Y029008D01*
X024206D01*
Y029011D01*
X024193D01*
Y029014D01*
X024177D01*
Y029018D01*
X024160D01*
Y029021D01*
X024147D01*
Y029024D01*
X024134D01*
Y029028D01*
X024121D01*
Y029031D01*
X024105D01*
Y029034D01*
X024092D01*
Y029037D01*
X024079D01*
Y029041D01*
X024066D01*
Y029044D01*
X024053D01*
Y029047D01*
X024043D01*
Y029050D01*
X024030D01*
Y029054D01*
X024017D01*
Y029057D01*
X024004D01*
Y029060D01*
X023994D01*
Y029063D01*
X023981D01*
Y029067D01*
X023972D01*
Y029070D01*
X023958D01*
Y029073D01*
X023949D01*
Y029076D01*
X023936D01*
Y029080D01*
X023926D01*
Y029083D01*
X023916D01*
Y029086D01*
X023906D01*
Y029089D01*
X023900D01*
Y029093D01*
X023890D01*
Y029096D01*
X023884D01*
Y029099D01*
X023893D01*
Y029096D01*
D02*
G37*
G36*
X024656Y029158D02*
X024659D01*
Y029145D01*
X024662D01*
Y029142D01*
X024672D01*
Y029145D01*
X024675D01*
Y029148D01*
X024678D01*
Y029155D01*
X024682D01*
Y029158D01*
X024688D01*
Y029155D01*
X024691D01*
Y029145D01*
X024688D01*
Y029132D01*
X024695D01*
Y029129D01*
X024701D01*
Y029132D01*
X024705D01*
Y029135D01*
X024708D01*
Y029138D01*
X024714D01*
Y029142D01*
X024718D01*
Y029138D01*
X024721D01*
Y029135D01*
X024718D01*
Y029125D01*
X024714D01*
Y029115D01*
X024718D01*
Y029112D01*
X024721D01*
Y029109D01*
X024727D01*
Y029112D01*
X024731D01*
Y029115D01*
X024740D01*
Y029119D01*
X024744D01*
Y029115D01*
X024747D01*
Y029112D01*
X024744D01*
Y029106D01*
X024740D01*
Y029102D01*
X024737D01*
Y029099D01*
X024734D01*
Y029093D01*
X024737D01*
Y029086D01*
X024740D01*
Y029083D01*
X024744D01*
Y029086D01*
X024753D01*
Y029089D01*
X024763D01*
Y029080D01*
X024760D01*
Y029076D01*
X024757D01*
Y029073D01*
X024750D01*
Y029070D01*
X024747D01*
Y029067D01*
X024750D01*
Y029057D01*
X024770D01*
Y029054D01*
X024773D01*
Y029047D01*
X024766D01*
Y029044D01*
X024760D01*
Y029041D01*
X024757D01*
Y029024D01*
X024770D01*
Y029021D01*
X024776D01*
Y029014D01*
X024773D01*
Y029011D01*
X024753D01*
Y028995D01*
X024757D01*
Y028992D01*
X024763D01*
Y028988D01*
X024766D01*
Y028985D01*
X024770D01*
Y028979D01*
X024744D01*
Y028972D01*
X024740D01*
Y028966D01*
X024747D01*
Y028962D01*
X024750D01*
Y028956D01*
X024753D01*
Y028953D01*
X024757D01*
Y028949D01*
X024753D01*
Y028946D01*
X024750D01*
Y028949D01*
X024740D01*
Y028953D01*
X024731D01*
Y028949D01*
X024727D01*
Y028946D01*
X024724D01*
Y028940D01*
X024727D01*
Y028936D01*
X024731D01*
Y028927D01*
X024734D01*
Y028923D01*
X024731D01*
Y028920D01*
X024727D01*
Y028923D01*
X024721D01*
Y028927D01*
X024718D01*
Y028930D01*
X024714D01*
Y028933D01*
X024711D01*
Y028930D01*
X024705D01*
Y028927D01*
X024701D01*
Y028917D01*
X024705D01*
Y028900D01*
X024698D01*
Y028904D01*
X024695D01*
Y028907D01*
X024691D01*
Y028910D01*
X024688D01*
Y028917D01*
X024682D01*
Y028914D01*
X024675D01*
Y028910D01*
X024672D01*
Y028907D01*
X024675D01*
Y028894D01*
X024672D01*
Y028887D01*
X024665D01*
Y028894D01*
X024662D01*
Y028897D01*
X024659D01*
Y028907D01*
X024646D01*
Y028904D01*
X024643D01*
Y028891D01*
X024639D01*
Y028884D01*
X024633D01*
Y028887D01*
X024630D01*
Y028897D01*
X024626D01*
Y028904D01*
X024623D01*
Y028907D01*
X024613D01*
Y028904D01*
X024610D01*
Y028897D01*
X024607D01*
Y028891D01*
X024604D01*
Y028887D01*
X024597D01*
Y028910D01*
X024594D01*
Y028914D01*
X024587D01*
Y028917D01*
X024584D01*
Y028914D01*
X024581D01*
Y028910D01*
X024577D01*
Y028907D01*
X024574D01*
Y028904D01*
X024571D01*
Y028900D01*
X024564D01*
Y028914D01*
X024568D01*
Y028920D01*
X024571D01*
Y028923D01*
X024568D01*
Y028927D01*
X024564D01*
Y028930D01*
X024561D01*
Y028933D01*
X024558D01*
Y028930D01*
X024555D01*
Y028927D01*
X024548D01*
Y028923D01*
X024542D01*
Y028920D01*
X024538D01*
Y028923D01*
X024535D01*
Y028927D01*
X024538D01*
Y028933D01*
X024542D01*
Y028940D01*
X024545D01*
Y028949D01*
X024542D01*
Y028953D01*
X024532D01*
Y028949D01*
X024519D01*
Y028946D01*
X024516D01*
Y028956D01*
X024519D01*
Y028959D01*
X024522D01*
Y028962D01*
X024525D01*
Y028966D01*
X024529D01*
Y028972D01*
X024525D01*
Y028979D01*
X024499D01*
Y028985D01*
X024503D01*
Y028988D01*
X024506D01*
Y028992D01*
X024512D01*
Y028995D01*
X024519D01*
Y029001D01*
X024516D01*
Y029011D01*
X024496D01*
Y029014D01*
X024493D01*
Y029021D01*
X024503D01*
Y029024D01*
X024516D01*
Y029041D01*
X024509D01*
Y029044D01*
X024503D01*
Y029047D01*
X024496D01*
Y029054D01*
X024499D01*
Y029057D01*
X024519D01*
Y029063D01*
X024522D01*
Y029070D01*
X024519D01*
Y029073D01*
X024516D01*
Y029076D01*
X024512D01*
Y029080D01*
X024509D01*
Y029083D01*
X024506D01*
Y029086D01*
X024509D01*
Y029089D01*
X024519D01*
Y029086D01*
X024532D01*
Y029089D01*
X024535D01*
Y029099D01*
X024532D01*
Y029102D01*
X024529D01*
Y029109D01*
X024525D01*
Y029115D01*
X024538D01*
Y029112D01*
X024545D01*
Y029109D01*
X024551D01*
Y029112D01*
X024555D01*
Y029115D01*
X024558D01*
Y029122D01*
X024555D01*
Y029129D01*
X024551D01*
Y029142D01*
X024558D01*
Y029138D01*
X024561D01*
Y029135D01*
X024564D01*
Y029132D01*
X024568D01*
Y029129D01*
X024577D01*
Y029132D01*
X024581D01*
Y029135D01*
X024584D01*
Y029138D01*
X024581D01*
Y029158D01*
X024587D01*
Y029155D01*
X024590D01*
Y029151D01*
X024594D01*
Y029145D01*
X024597D01*
Y029142D01*
X024610D01*
Y029145D01*
X024613D01*
Y029148D01*
X024610D01*
Y029155D01*
X024613D01*
Y029164D01*
X024617D01*
Y029168D01*
X024620D01*
Y029164D01*
X024623D01*
Y029158D01*
X024626D01*
Y029145D01*
X024643D01*
Y029155D01*
X024646D01*
Y029161D01*
X024649D01*
Y029168D01*
X024656D01*
Y029158D01*
D02*
G37*
G36*
X024701Y028891D02*
X024705D01*
Y028868D01*
X024714D01*
Y028865D01*
X024721D01*
Y028868D01*
X024724D01*
Y028874D01*
X024727D01*
Y028878D01*
X024731D01*
Y028881D01*
X024734D01*
Y028884D01*
X024744D01*
Y028868D01*
X024740D01*
Y028855D01*
X024747D01*
Y028852D01*
X024757D01*
Y028855D01*
X024760D01*
Y028858D01*
X024763D01*
Y028861D01*
X024770D01*
Y028865D01*
X024776D01*
Y028861D01*
X024779D01*
Y028858D01*
X024776D01*
Y028848D01*
X024773D01*
Y028842D01*
X024770D01*
Y028835D01*
X024773D01*
Y028832D01*
X024776D01*
Y028829D01*
X024779D01*
Y028826D01*
X024783D01*
Y028829D01*
X024786D01*
Y028832D01*
X024792D01*
Y028835D01*
X024802D01*
Y028839D01*
X024806D01*
Y028835D01*
X024809D01*
Y028829D01*
X024806D01*
Y028822D01*
X024802D01*
Y028819D01*
X024799D01*
Y028816D01*
X024796D01*
Y028806D01*
X024799D01*
Y028799D01*
X024802D01*
Y028796D01*
X024806D01*
Y028799D01*
X024815D01*
Y028803D01*
X024828D01*
Y028799D01*
X024832D01*
Y028796D01*
X024828D01*
Y028793D01*
X024825D01*
Y028786D01*
X024819D01*
Y028783D01*
X024815D01*
Y028780D01*
X024812D01*
Y028770D01*
X024815D01*
Y028764D01*
X024841D01*
Y028760D01*
X024845D01*
Y028754D01*
X024838D01*
Y028751D01*
X024835D01*
Y028747D01*
X024825D01*
Y028744D01*
X024822D01*
Y028728D01*
X024832D01*
Y028725D01*
X024838D01*
Y028721D01*
X024845D01*
Y028712D01*
X024835D01*
Y028708D01*
X024819D01*
Y028692D01*
X024822D01*
Y028689D01*
X024828D01*
Y028685D01*
X024832D01*
Y028682D01*
X024835D01*
Y028679D01*
X024838D01*
Y028672D01*
X024828D01*
Y028669D01*
X024822D01*
Y028672D01*
X024809D01*
Y028666D01*
X024806D01*
Y028656D01*
X024809D01*
Y028653D01*
X024812D01*
Y028650D01*
X024815D01*
Y028646D01*
X024819D01*
Y028640D01*
X024822D01*
Y028637D01*
X024819D01*
Y028633D01*
X024809D01*
Y028637D01*
X024799D01*
Y028640D01*
X024789D01*
Y028637D01*
X024786D01*
Y028633D01*
X024783D01*
Y028627D01*
X024786D01*
Y028624D01*
X024789D01*
Y028617D01*
X024792D01*
Y028607D01*
X024796D01*
Y028604D01*
X024792D01*
Y028601D01*
X024789D01*
Y028604D01*
X024783D01*
Y028607D01*
X024776D01*
Y028611D01*
X024773D01*
Y028614D01*
X024763D01*
Y028611D01*
X024760D01*
Y028607D01*
X024757D01*
Y028598D01*
X024760D01*
Y028578D01*
X024753D01*
Y028581D01*
X024750D01*
Y028584D01*
X024747D01*
Y028588D01*
X024744D01*
Y028591D01*
X024740D01*
Y028594D01*
X024727D01*
Y028591D01*
X024724D01*
Y028565D01*
X024721D01*
Y028562D01*
X024714D01*
Y028568D01*
X024711D01*
Y028571D01*
X024708D01*
Y028578D01*
X024705D01*
Y028584D01*
X024688D01*
Y028578D01*
X024685D01*
Y028565D01*
X024682D01*
Y028558D01*
X024672D01*
Y028565D01*
X024669D01*
Y028584D01*
X024649D01*
Y028578D01*
X024646D01*
Y028571D01*
X024643D01*
Y028568D01*
X024639D01*
Y028562D01*
X024636D01*
Y028565D01*
X024630D01*
Y028588D01*
X024633D01*
Y028591D01*
X024626D01*
Y028594D01*
X024613D01*
Y028591D01*
X024610D01*
Y028584D01*
X024604D01*
Y028581D01*
X024600D01*
Y028578D01*
X024594D01*
Y028598D01*
X024597D01*
Y028611D01*
X024590D01*
Y028614D01*
X024581D01*
Y028611D01*
X024577D01*
Y028607D01*
X024571D01*
Y028604D01*
X024561D01*
Y028617D01*
X024564D01*
Y028620D01*
X024568D01*
Y028627D01*
X024571D01*
Y028633D01*
X024568D01*
Y028637D01*
X024564D01*
Y028640D01*
X024555D01*
Y028637D01*
X024545D01*
Y028633D01*
X024535D01*
Y028637D01*
X024532D01*
Y028640D01*
X024535D01*
Y028646D01*
X024538D01*
Y028650D01*
X024542D01*
Y028653D01*
X024545D01*
Y028656D01*
X024548D01*
Y028666D01*
X024545D01*
Y028672D01*
X024532D01*
Y028669D01*
X024525D01*
Y028672D01*
X024516D01*
Y028679D01*
X024519D01*
Y028682D01*
X024522D01*
Y028685D01*
X024525D01*
Y028689D01*
X024532D01*
Y028692D01*
X024538D01*
Y028695D01*
X024535D01*
Y028708D01*
X024519D01*
Y028712D01*
X024509D01*
Y028721D01*
X024516D01*
Y028725D01*
X024522D01*
Y028728D01*
X024532D01*
Y028741D01*
X024535D01*
Y028744D01*
X024529D01*
Y028747D01*
X024522D01*
Y028751D01*
X024516D01*
Y028754D01*
X024512D01*
Y028757D01*
X024509D01*
Y028760D01*
X024512D01*
Y028764D01*
X024538D01*
Y028770D01*
X024542D01*
Y028780D01*
X024538D01*
Y028783D01*
X024535D01*
Y028786D01*
X024532D01*
Y028790D01*
X024529D01*
Y028793D01*
X024525D01*
Y028796D01*
X024522D01*
Y028799D01*
X024525D01*
Y028803D01*
X024538D01*
Y028799D01*
X024555D01*
Y028806D01*
X024558D01*
Y028816D01*
X024555D01*
Y028819D01*
X024551D01*
Y028822D01*
X024548D01*
Y028829D01*
X024545D01*
Y028835D01*
X024548D01*
Y028839D01*
X024551D01*
Y028835D01*
X024561D01*
Y028832D01*
X024568D01*
Y028829D01*
X024571D01*
Y028826D01*
X024574D01*
Y028829D01*
X024577D01*
Y028832D01*
X024581D01*
Y028835D01*
X024584D01*
Y028842D01*
X024581D01*
Y028848D01*
X024577D01*
Y028858D01*
X024574D01*
Y028861D01*
X024577D01*
Y028865D01*
X024584D01*
Y028861D01*
X024590D01*
Y028858D01*
X024594D01*
Y028855D01*
X024597D01*
Y028852D01*
X024607D01*
Y028855D01*
X024613D01*
Y028868D01*
X024610D01*
Y028884D01*
X024620D01*
Y028881D01*
X024623D01*
Y028878D01*
X024626D01*
Y028874D01*
X024630D01*
Y028868D01*
X024633D01*
Y028865D01*
X024639D01*
Y028868D01*
X024649D01*
Y028887D01*
X024652D01*
Y028894D01*
X024662D01*
Y028887D01*
X024665D01*
Y028878D01*
X024669D01*
Y028871D01*
X024685D01*
Y028878D01*
X024688D01*
Y028887D01*
X024691D01*
Y028891D01*
X024695D01*
Y028894D01*
X024701D01*
Y028891D01*
D02*
G37*
G36*
X024900Y029054D02*
X024903D01*
Y029050D01*
X024906D01*
Y029047D01*
X024910D01*
Y029044D01*
X024913D01*
Y029021D01*
X024916D01*
Y029018D01*
X024920D01*
Y029014D01*
X024923D01*
Y029008D01*
X024926D01*
Y029005D01*
X024929D01*
Y029001D01*
X024933D01*
Y028998D01*
X024936D01*
Y028995D01*
X024939D01*
Y028988D01*
X024942D01*
Y028985D01*
X024946D01*
Y028982D01*
X024949D01*
Y028979D01*
X024952D01*
Y028972D01*
X024955D01*
Y028969D01*
X024959D01*
Y028962D01*
X024962D01*
Y028884D01*
X024972D01*
Y028881D01*
X024978D01*
Y028878D01*
X024985D01*
Y028874D01*
X024988D01*
Y028871D01*
X024991D01*
Y028858D01*
X024988D01*
Y028672D01*
X024991D01*
Y028659D01*
X024988D01*
Y028656D01*
X024985D01*
Y028653D01*
X024978D01*
Y028650D01*
X024972D01*
Y028646D01*
X024959D01*
Y028578D01*
X024955D01*
Y028571D01*
X024952D01*
Y028568D01*
X024949D01*
Y028562D01*
X024946D01*
Y028558D01*
X024942D01*
Y028555D01*
X024939D01*
Y028552D01*
X024936D01*
Y028549D01*
X024933D01*
Y028542D01*
X024929D01*
Y028539D01*
X024926D01*
Y028536D01*
X024923D01*
Y028532D01*
X024920D01*
Y028523D01*
X024916D01*
Y028516D01*
X024913D01*
Y028513D01*
X024910D01*
Y028510D01*
X024906D01*
Y028506D01*
X024887D01*
Y028510D01*
X024884D01*
Y028513D01*
X024880D01*
Y028516D01*
X024877D01*
Y028523D01*
X024874D01*
Y028532D01*
X024877D01*
Y028539D01*
X024880D01*
Y028542D01*
X024884D01*
Y028545D01*
X024890D01*
Y028549D01*
X024906D01*
Y028552D01*
X024910D01*
Y028555D01*
X024913D01*
Y028558D01*
X024916D01*
Y028562D01*
X024920D01*
Y028565D01*
X024923D01*
Y028571D01*
X024926D01*
Y028575D01*
X024929D01*
Y028578D01*
X024933D01*
Y028581D01*
X024936D01*
Y028646D01*
X024929D01*
Y028650D01*
X024920D01*
Y028653D01*
X024916D01*
Y028656D01*
X024913D01*
Y028659D01*
X024910D01*
Y028871D01*
X024913D01*
Y028874D01*
X024916D01*
Y028878D01*
X024920D01*
Y028881D01*
X024929D01*
Y028884D01*
X024939D01*
Y028959D01*
X024936D01*
Y028962D01*
X024933D01*
Y028966D01*
X024929D01*
Y028969D01*
X024926D01*
Y028975D01*
X024923D01*
Y028979D01*
X024920D01*
Y028982D01*
X024916D01*
Y028985D01*
X024913D01*
Y028988D01*
X024910D01*
Y028995D01*
X024906D01*
Y028998D01*
X024903D01*
Y029001D01*
X024900D01*
Y029005D01*
X024897D01*
Y029014D01*
X024880D01*
Y029018D01*
X024877D01*
Y029021D01*
X024874D01*
Y029028D01*
X024871D01*
Y029044D01*
X024874D01*
Y029050D01*
X024880D01*
Y029054D01*
X024884D01*
Y029057D01*
X024900D01*
Y029054D01*
D02*
G37*
%LPC*%
G36*
X024649Y029125D02*
X024617D01*
Y029122D01*
X024604D01*
Y029119D01*
X024594D01*
Y029115D01*
X024587D01*
Y029112D01*
X024581D01*
Y029109D01*
X024577D01*
Y029106D01*
X024571D01*
Y029102D01*
X024568D01*
Y029099D01*
X024564D01*
Y029096D01*
X024561D01*
Y029093D01*
X024558D01*
Y029089D01*
X024555D01*
Y029086D01*
X024551D01*
Y029080D01*
X024548D01*
Y029073D01*
X024545D01*
Y029070D01*
X024542D01*
Y029060D01*
X024538D01*
Y029050D01*
X024535D01*
Y029001D01*
X024538D01*
Y028992D01*
X024542D01*
Y028982D01*
X024545D01*
Y028975D01*
X024548D01*
Y028969D01*
X024551D01*
Y028966D01*
X024555D01*
Y028962D01*
X024558D01*
Y028959D01*
X024561D01*
Y028953D01*
X024568D01*
Y028949D01*
X024571D01*
Y028946D01*
X024574D01*
Y028943D01*
X024577D01*
Y028940D01*
X024584D01*
Y028936D01*
X024590D01*
Y028933D01*
X024600D01*
Y028930D01*
X024610D01*
Y028927D01*
X024659D01*
Y028930D01*
X024669D01*
Y028933D01*
X024675D01*
Y028936D01*
X024682D01*
Y028940D01*
X024688D01*
Y028943D01*
X024691D01*
Y028946D01*
X024698D01*
Y028949D01*
X024701D01*
Y028953D01*
X024705D01*
Y028956D01*
X024708D01*
Y028959D01*
X024711D01*
Y028962D01*
X024714D01*
Y028969D01*
X024718D01*
Y028972D01*
X024721D01*
Y028979D01*
X024724D01*
Y028985D01*
X024727D01*
Y028995D01*
X024731D01*
Y029011D01*
X024734D01*
Y029041D01*
X024731D01*
Y029057D01*
X024727D01*
Y029063D01*
X024724D01*
Y029070D01*
X024721D01*
Y029076D01*
X024718D01*
Y029083D01*
X024714D01*
Y029086D01*
X024711D01*
Y029089D01*
X024708D01*
Y029096D01*
X024705D01*
Y029099D01*
X024698D01*
Y029102D01*
X024695D01*
Y029106D01*
X024691D01*
Y029109D01*
X024685D01*
Y029112D01*
X024682D01*
Y029115D01*
X024672D01*
Y029119D01*
X024665D01*
Y029122D01*
X024649D01*
Y029125D01*
D02*
G37*
%LPD*%
G36*
X024643Y029050D02*
X024649D01*
Y029047D01*
X024652D01*
Y029044D01*
X024656D01*
Y029041D01*
X024659D01*
Y029034D01*
X024662D01*
Y029014D01*
X024659D01*
Y029008D01*
X024656D01*
Y029005D01*
X024652D01*
Y029001D01*
X024646D01*
Y028998D01*
X024623D01*
Y029001D01*
X024617D01*
Y029005D01*
X024613D01*
Y029008D01*
X024610D01*
Y029014D01*
X024607D01*
Y029034D01*
X024610D01*
Y029041D01*
X024613D01*
Y029044D01*
X024617D01*
Y029047D01*
X024620D01*
Y029050D01*
X024630D01*
Y029054D01*
X024643D01*
Y029050D01*
D02*
G37*
%LPC*%
G36*
X024698Y028845D02*
X024652D01*
Y028842D01*
X024639D01*
Y028839D01*
X024630D01*
Y028835D01*
X024623D01*
Y028832D01*
X024617D01*
Y028829D01*
X024610D01*
Y028826D01*
X024607D01*
Y028822D01*
X024604D01*
Y028819D01*
X024597D01*
Y028816D01*
X024594D01*
Y028813D01*
X024590D01*
Y028809D01*
X024587D01*
Y028806D01*
X024584D01*
Y028803D01*
X024581D01*
Y028796D01*
X024577D01*
Y028793D01*
X024574D01*
Y028786D01*
X024571D01*
Y028780D01*
X024568D01*
Y028773D01*
X024564D01*
Y028767D01*
X024561D01*
Y028754D01*
X024558D01*
Y028702D01*
X024561D01*
Y028689D01*
X024564D01*
Y028679D01*
X024568D01*
Y028672D01*
X024571D01*
Y028666D01*
X024574D01*
Y028663D01*
X024577D01*
Y028656D01*
X024581D01*
Y028653D01*
X024584D01*
Y028650D01*
X024587D01*
Y028646D01*
X024590D01*
Y028643D01*
X024594D01*
Y028640D01*
X024597D01*
Y028637D01*
X024600D01*
Y028633D01*
X024604D01*
Y028630D01*
X024607D01*
Y028627D01*
X024613D01*
Y028624D01*
X024620D01*
Y028620D01*
X024626D01*
Y028617D01*
X024633D01*
Y028614D01*
X024643D01*
Y028611D01*
X024662D01*
Y028607D01*
X024688D01*
Y028611D01*
X024708D01*
Y028614D01*
X024718D01*
Y028617D01*
X024724D01*
Y028620D01*
X024731D01*
Y028624D01*
X024737D01*
Y028627D01*
X024744D01*
Y028630D01*
X024747D01*
Y028633D01*
X024750D01*
Y028637D01*
X024753D01*
Y028640D01*
X024760D01*
Y028646D01*
X024763D01*
Y028650D01*
X024766D01*
Y028653D01*
X024770D01*
Y028656D01*
X024773D01*
Y028663D01*
X024776D01*
Y028666D01*
X024779D01*
Y028672D01*
X024783D01*
Y028679D01*
X024786D01*
Y028689D01*
X024789D01*
Y028698D01*
X024792D01*
Y028754D01*
X024789D01*
Y028767D01*
X024786D01*
Y028773D01*
X024783D01*
Y028780D01*
X024779D01*
Y028786D01*
X024776D01*
Y028793D01*
X024773D01*
Y028796D01*
X024770D01*
Y028803D01*
X024766D01*
Y028806D01*
X024763D01*
Y028809D01*
X024760D01*
Y028813D01*
X024757D01*
Y028816D01*
X024753D01*
Y028819D01*
X024750D01*
Y028822D01*
X024744D01*
Y028826D01*
X024740D01*
Y028829D01*
X024734D01*
Y028832D01*
X024727D01*
Y028835D01*
X024721D01*
Y028839D01*
X024711D01*
Y028842D01*
X024698D01*
Y028845D01*
D02*
G37*
%LPD*%
G36*
X024685Y028757D02*
X024691D01*
Y028754D01*
X024698D01*
Y028751D01*
X024701D01*
Y028747D01*
X024705D01*
Y028741D01*
X024708D01*
Y028734D01*
X024711D01*
Y028718D01*
X024708D01*
Y028712D01*
X024705D01*
Y028705D01*
X024701D01*
Y028702D01*
X024698D01*
Y028698D01*
X024691D01*
Y028695D01*
X024685D01*
Y028692D01*
X024669D01*
Y028695D01*
X024662D01*
Y028698D01*
X024656D01*
Y028702D01*
X024652D01*
Y028705D01*
X024649D01*
Y028708D01*
X024646D01*
Y028718D01*
X024643D01*
Y028734D01*
X024646D01*
Y028744D01*
X024649D01*
Y028747D01*
X024652D01*
Y028751D01*
X024656D01*
Y028754D01*
X024659D01*
Y028757D01*
X024669D01*
Y028760D01*
X024685D01*
Y028757D01*
D02*
G37*
%LPC*%
G36*
X024952Y028884D02*
X024949D01*
Y028881D01*
X024939D01*
Y028878D01*
X024926D01*
Y028874D01*
X024920D01*
Y028871D01*
X024916D01*
Y028868D01*
X024913D01*
Y028861D01*
X024985D01*
Y028871D01*
X024981D01*
Y028874D01*
X024975D01*
Y028878D01*
X024962D01*
Y028881D01*
X024952D01*
Y028884D01*
D02*
G37*
G36*
X024975Y028855D02*
X024926D01*
Y028852D01*
X024975D01*
Y028855D01*
D02*
G37*
G36*
X024981Y028845D02*
X024952D01*
Y028842D01*
X024949D01*
Y028845D01*
X024916D01*
Y028826D01*
X024981D01*
Y028845D01*
D02*
G37*
G36*
Y028819D02*
X024916D01*
Y028809D01*
X024981D01*
Y028819D01*
D02*
G37*
G36*
Y028803D02*
X024916D01*
Y028783D01*
X024981D01*
Y028803D01*
D02*
G37*
G36*
Y028777D02*
X024916D01*
Y028767D01*
X024981D01*
Y028777D01*
D02*
G37*
G36*
Y028760D02*
X024916D01*
Y028738D01*
X024981D01*
Y028760D01*
D02*
G37*
G36*
Y028734D02*
X024916D01*
Y028725D01*
X024981D01*
Y028734D01*
D02*
G37*
G36*
Y028718D02*
X024916D01*
Y028698D01*
X024981D01*
Y028718D01*
D02*
G37*
G36*
Y028692D02*
X024916D01*
Y028679D01*
X024920D01*
Y028682D01*
X024929D01*
Y028685D01*
X024946D01*
Y028689D01*
X024952D01*
Y028685D01*
X024972D01*
Y028682D01*
X024978D01*
Y028679D01*
X024981D01*
Y028692D01*
D02*
G37*
G36*
X024962Y028682D02*
X024936D01*
Y028679D01*
X024926D01*
Y028676D01*
X024975D01*
Y028679D01*
X024962D01*
Y028682D01*
D02*
G37*
G36*
X024985Y028669D02*
X024913D01*
Y028663D01*
X024916D01*
Y028659D01*
X024920D01*
Y028656D01*
X024926D01*
Y028653D01*
X024936D01*
Y028656D01*
X024959D01*
Y028650D01*
X024962D01*
Y028653D01*
X024975D01*
Y028656D01*
X024981D01*
Y028659D01*
X024985D01*
Y028669D01*
D02*
G37*
%LPD*%
G36*
X024271Y028549D02*
X024268D01*
Y028545D01*
X024261D01*
Y028542D01*
X024258D01*
Y028539D01*
X024255D01*
Y028536D01*
X024252D01*
Y028532D01*
X024248D01*
Y028529D01*
X024242D01*
Y028526D01*
X024239D01*
Y028523D01*
X024235D01*
Y028519D01*
X024229D01*
Y028516D01*
X024226D01*
Y028513D01*
X024222D01*
Y028510D01*
X024216D01*
Y028506D01*
X024213D01*
Y028503D01*
X024209D01*
Y028500D01*
X024203D01*
Y028497D01*
X024200D01*
Y028493D01*
X024193D01*
Y028490D01*
X024190D01*
Y028487D01*
X024187D01*
Y028483D01*
X024180D01*
Y028480D01*
X024177D01*
Y028477D01*
X024170D01*
Y028474D01*
X024167D01*
Y028470D01*
X024160D01*
Y028467D01*
X024157D01*
Y028464D01*
X024154D01*
Y028461D01*
X024147D01*
Y028457D01*
X024144D01*
Y028454D01*
X024138D01*
Y028451D01*
X024134D01*
Y028448D01*
X024128D01*
Y028444D01*
X024125D01*
Y028441D01*
X024118D01*
Y028438D01*
X024115D01*
Y028435D01*
X024108D01*
Y028431D01*
X024105D01*
Y028428D01*
X024099D01*
Y028425D01*
X024095D01*
Y028422D01*
X024089D01*
Y028418D01*
X024086D01*
Y028415D01*
X024079D01*
Y028412D01*
X024076D01*
Y028409D01*
X024069D01*
Y028405D01*
X024066D01*
Y028402D01*
X024059D01*
Y028399D01*
X024056D01*
Y028396D01*
X024050D01*
Y028392D01*
X024046D01*
Y028389D01*
X024040D01*
Y028386D01*
X024037D01*
Y028382D01*
X024030D01*
Y028379D01*
X024024D01*
Y028376D01*
X024020D01*
Y028373D01*
X024014D01*
Y028369D01*
X024011D01*
Y028366D01*
X024004D01*
Y028363D01*
X023998D01*
Y028360D01*
X023994D01*
Y028356D01*
X023988D01*
Y028353D01*
X023981D01*
Y028350D01*
X023978D01*
Y028347D01*
X023972D01*
Y028343D01*
X023965D01*
Y028340D01*
X023958D01*
Y028337D01*
X023952D01*
Y028340D01*
X023955D01*
Y028343D01*
X023958D01*
Y028347D01*
X023965D01*
Y028350D01*
X023968D01*
Y028353D01*
X023972D01*
Y028356D01*
X023975D01*
Y028360D01*
X023981D01*
Y028363D01*
X023985D01*
Y028366D01*
X023988D01*
Y028369D01*
X023994D01*
Y028373D01*
X023998D01*
Y028376D01*
X024001D01*
Y028379D01*
X024007D01*
Y028382D01*
X024011D01*
Y028386D01*
X024014D01*
Y028389D01*
X024020D01*
Y028392D01*
X024024D01*
Y028396D01*
X024027D01*
Y028399D01*
X024033D01*
Y028402D01*
X024037D01*
Y028405D01*
X024043D01*
Y028409D01*
X024046D01*
Y028412D01*
X024050D01*
Y028415D01*
X024056D01*
Y028418D01*
X024059D01*
Y028422D01*
X024066D01*
Y028425D01*
X024069D01*
Y028428D01*
X024076D01*
Y028431D01*
X024079D01*
Y028435D01*
X024086D01*
Y028438D01*
X024089D01*
Y028441D01*
X024092D01*
Y028444D01*
X024099D01*
Y028448D01*
X024102D01*
Y028451D01*
X024108D01*
Y028454D01*
X024112D01*
Y028457D01*
X024118D01*
Y028461D01*
X024121D01*
Y028464D01*
X024128D01*
Y028467D01*
X024131D01*
Y028470D01*
X024138D01*
Y028474D01*
X024141D01*
Y028477D01*
X024147D01*
Y028480D01*
X024151D01*
Y028483D01*
X024157D01*
Y028487D01*
X024160D01*
Y028490D01*
X024167D01*
Y028493D01*
X024170D01*
Y028497D01*
X024177D01*
Y028500D01*
X024183D01*
Y028503D01*
X024187D01*
Y028506D01*
X024193D01*
Y028510D01*
X024196D01*
Y028513D01*
X024203D01*
Y028516D01*
X024209D01*
Y028519D01*
X024213D01*
Y028523D01*
X024219D01*
Y028526D01*
X024222D01*
Y028529D01*
X024229D01*
Y028532D01*
X024235D01*
Y028536D01*
X024239D01*
Y028539D01*
X024245D01*
Y028542D01*
X024252D01*
Y028545D01*
X024258D01*
Y028549D01*
X024265D01*
Y028552D01*
X024271D01*
Y028549D01*
D02*
G37*
D27*
X024196Y027713D02*
X023896D01*
X023996Y027613D01*
X023896Y027513D01*
X024196D01*
X023946Y027213D02*
X023896Y027263D01*
Y027363D01*
X023946Y027413D01*
X024146D01*
X024196Y027363D01*
Y027263D01*
X024146Y027213D01*
X024196Y027113D02*
Y027013D01*
Y027063D01*
X023896D01*
X023946Y027113D01*
X024196Y026713D02*
X023896D01*
X024046Y026863D01*
Y026663D01*
X024196Y026413D02*
X023896D01*
X024046Y026563D01*
Y026363D01*
X024146Y026263D02*
X024196Y026213D01*
Y026113D01*
X024146Y026063D01*
X023946D01*
X023896Y026113D01*
Y026213D01*
X023946Y026263D01*
X023996D01*
X024046Y026213D01*
Y026063D01*
X023946Y025963D02*
X023896Y025913D01*
Y025813D01*
X023946Y025763D01*
X024146D01*
X024196Y025813D01*
Y025913D01*
X024146Y025963D01*
X023946D01*
X024196Y025663D02*
X023896D01*
Y025513D01*
X023946Y025463D01*
X024046D01*
X024096Y025513D01*
Y025663D01*
X023896Y025063D02*
X024196D01*
Y024913D01*
X024146Y024863D01*
X023946D01*
X023896Y024913D01*
Y025063D01*
X024196Y024614D02*
Y024714D01*
X024146Y024764D01*
X024046D01*
X023996Y024714D01*
Y024614D01*
X024046Y024564D01*
X024096D01*
Y024764D01*
X023896Y024464D02*
X024196D01*
Y024314D01*
X024146Y024264D01*
X024096D01*
X024046D01*
X023996Y024314D01*
Y024464D01*
X024196Y024114D02*
Y024014D01*
X024146Y023964D01*
X024046D01*
X023996Y024014D01*
Y024114D01*
X024046Y024164D01*
X024146D01*
X024196Y024114D01*
X023996Y023864D02*
X024146D01*
X024196Y023814D01*
Y023664D01*
X023996D01*
X024196Y023564D02*
X023996D01*
Y023414D01*
X024046Y023364D01*
X024196D01*
X023996Y023064D02*
Y023214D01*
X024046Y023264D01*
X024146D01*
X024196Y023214D01*
Y023064D01*
Y022814D02*
Y022914D01*
X024146Y022964D01*
X024046D01*
X023996Y022914D01*
Y022814D01*
X024046Y022764D01*
X024096D01*
Y022964D01*
X024196Y022364D02*
X023996D01*
Y022314D01*
X024046Y022264D01*
X024196D01*
X024046D01*
X023996Y022214D01*
X024046Y022164D01*
X024196D01*
Y022014D02*
Y021914D01*
X024146Y021864D01*
X024046D01*
X023996Y021914D01*
Y022014D01*
X024046Y022064D01*
X024146D01*
X024196Y022014D01*
X023896Y021565D02*
X024196D01*
Y021714D01*
X024146Y021764D01*
X024046D01*
X023996Y021714D01*
Y021565D01*
Y021465D02*
X024146D01*
X024196Y021415D01*
Y021265D01*
X023996D01*
X024196Y021165D02*
Y021065D01*
Y021115D01*
X023896D01*
Y021165D01*
X024196Y020765D02*
Y020865D01*
X024146Y020915D01*
X024046D01*
X023996Y020865D01*
Y020765D01*
X024046Y020715D01*
X024096D01*
Y020915D01*
X024906Y027613D02*
Y027563D01*
X024856Y027513D01*
X024606D01*
Y027663D01*
X024656Y027713D01*
X024756D01*
X024806Y027663D01*
Y027513D01*
Y027413D02*
Y027313D01*
Y027363D01*
X024606D01*
Y027413D01*
X024556Y027113D02*
X024606D01*
Y027163D01*
Y027063D01*
Y027113D01*
X024756D01*
X024806Y027063D01*
X024506Y026913D02*
X024806D01*
X024656D01*
X024606Y026863D01*
Y026763D01*
X024656Y026713D01*
X024806D01*
X024606Y026613D02*
X024756D01*
X024806Y026563D01*
Y026413D01*
X024606D01*
X024506Y026313D02*
X024806D01*
Y026163D01*
X024756Y026113D01*
X024706D01*
X024656D01*
X024606Y026163D01*
Y026313D01*
X024806Y026013D02*
X024756D01*
Y025963D01*
X024806D01*
Y026013D01*
X024606Y025563D02*
Y025713D01*
X024656Y025763D01*
X024756D01*
X024806Y025713D01*
Y025563D01*
Y025413D02*
Y025313D01*
X024756Y025263D01*
X024656D01*
X024606Y025313D01*
Y025413D01*
X024656Y025463D01*
X024756D01*
X024806Y025413D01*
Y025163D02*
X024606D01*
Y025113D01*
X024656Y025063D01*
X024806D01*
X024656D01*
X024606Y025013D01*
X024656Y024963D01*
X024806D01*
Y024863D02*
X024606Y024664D01*
X024806Y024564D02*
X024606D01*
Y024514D01*
X024656Y024464D01*
X024806D01*
X024656D01*
X024606Y024414D01*
X024656Y024364D01*
X024806D01*
X024606Y024214D02*
Y024114D01*
X024656Y024064D01*
X024806D01*
Y024214D01*
X024756Y024264D01*
X024706Y024214D01*
Y024064D01*
X024806Y023964D02*
X024606D01*
Y023814D01*
X024656Y023764D01*
X024806D01*
X024606Y023464D02*
Y023614D01*
X024656Y023664D01*
X024756D01*
X024806Y023614D01*
Y023464D01*
Y023364D02*
Y023264D01*
Y023314D01*
X024606D01*
Y023364D01*
X024806Y023064D02*
Y022964D01*
X024756Y022914D01*
X024656D01*
X024606Y022964D01*
Y023064D01*
X024656Y023114D01*
X024756D01*
X024806Y023064D01*
M02*
