%TF.GenerationSoftware,Altium Limited,Altium Designer,20.1.8 (145)*%
G04 Layer_Physical_Order=2*
G04 Layer_Color=16711680*
%FSLAX43Y43*%
%MOMM*%
%TF.SameCoordinates,73C82DD5-E753-4C0D-BC74-0A693CAB8B4A*%
%TF.FilePolarity,Positive*%
%TF.FileFunction,Copper,L2,Bot,Signal*%
%TF.Part,Single*%
G01*
G75*
%TA.AperFunction,Conductor*%
%ADD10C,0.457*%
%ADD11C,0.305*%
%TA.AperFunction,ComponentPad*%
%ADD12C,1.500*%
%ADD13R,1.500X1.500*%
%ADD14R,1.500X1.500*%
%ADD15C,3.200*%
%TA.AperFunction,ViaPad*%
%ADD16C,1.270*%
%TA.AperFunction,Conductor*%
%ADD17C,0.254*%
G36*
X59436Y508D02*
X508D01*
Y63500D01*
X59436D01*
Y508D01*
D02*
G37*
%LPC*%
G36*
X13004Y62404D02*
X10996D01*
Y60396D01*
X13004D01*
Y62404D01*
D02*
G37*
G36*
X27000Y62413D02*
X26738Y62378D01*
X26494Y62277D01*
X26284Y62116D01*
X26123Y61906D01*
X26022Y61662D01*
X25987Y61400D01*
X26022Y61138D01*
X26123Y60894D01*
X26284Y60684D01*
X26494Y60523D01*
X26738Y60422D01*
X27000Y60387D01*
X27262Y60422D01*
X27506Y60523D01*
X27716Y60684D01*
X27877Y60894D01*
X27978Y61138D01*
X28013Y61400D01*
X27978Y61662D01*
X27877Y61906D01*
X27716Y62116D01*
X27506Y62277D01*
X27262Y62378D01*
X27000Y62413D01*
D02*
G37*
G36*
X33004Y62324D02*
X30996D01*
Y60316D01*
X33004D01*
Y62324D01*
D02*
G37*
G36*
X47000Y62333D02*
X46738Y62298D01*
X46494Y62197D01*
X46284Y62036D01*
X46123Y61826D01*
X46022Y61582D01*
X45987Y61320D01*
X46022Y61058D01*
X46123Y60814D01*
X46284Y60604D01*
X46494Y60443D01*
X46738Y60342D01*
X47000Y60307D01*
X47262Y60342D01*
X47506Y60443D01*
X47716Y60604D01*
X47877Y60814D01*
X47978Y61058D01*
X48013Y61320D01*
X47978Y61582D01*
X47877Y61826D01*
X47716Y62036D01*
X47506Y62197D01*
X47262Y62298D01*
X47000Y62333D01*
D02*
G37*
G36*
X53836Y60440D02*
X52959D01*
Y59563D01*
X53836D01*
Y60440D01*
D02*
G37*
G36*
X52705D02*
X51828D01*
Y59563D01*
X52705D01*
Y60440D01*
D02*
G37*
G36*
X5080Y62823D02*
X4717Y62787D01*
X4367Y62681D01*
X4045Y62509D01*
X3763Y62277D01*
X3531Y61995D01*
X3359Y61673D01*
X3253Y61323D01*
X3217Y60960D01*
X3253Y60597D01*
X3359Y60247D01*
X3531Y59925D01*
X3763Y59643D01*
X4045Y59411D01*
X4367Y59239D01*
X4717Y59133D01*
X5080Y59097D01*
X5443Y59133D01*
X5793Y59239D01*
X6115Y59411D01*
X6397Y59643D01*
X6629Y59925D01*
X6801Y60247D01*
X6907Y60597D01*
X6943Y60960D01*
X6907Y61323D01*
X6801Y61673D01*
X6629Y61995D01*
X6397Y62277D01*
X6115Y62509D01*
X5793Y62681D01*
X5443Y62787D01*
X5080Y62823D01*
D02*
G37*
G36*
X27127Y59856D02*
Y58987D01*
X27996D01*
X27978Y59122D01*
X27877Y59366D01*
X27716Y59576D01*
X27506Y59737D01*
X27262Y59838D01*
X27127Y59856D01*
D02*
G37*
G36*
X26873D02*
X26738Y59838D01*
X26494Y59737D01*
X26284Y59576D01*
X26123Y59366D01*
X26022Y59122D01*
X26004Y58987D01*
X26873D01*
Y59856D01*
D02*
G37*
G36*
X47127Y59776D02*
Y58907D01*
X47996D01*
X47978Y59042D01*
X47877Y59286D01*
X47716Y59496D01*
X47506Y59657D01*
X47262Y59758D01*
X47127Y59776D01*
D02*
G37*
G36*
X46873D02*
X46738Y59758D01*
X46494Y59657D01*
X46284Y59496D01*
X46123Y59286D01*
X46022Y59042D01*
X46004Y58907D01*
X46873D01*
Y59776D01*
D02*
G37*
G36*
X53836Y59309D02*
X52959D01*
Y58432D01*
X53836D01*
Y59309D01*
D02*
G37*
G36*
X52705D02*
X51828D01*
Y58432D01*
X52705D01*
Y59309D01*
D02*
G37*
G36*
X27996Y58733D02*
X27127D01*
Y57864D01*
X27262Y57882D01*
X27506Y57983D01*
X27716Y58144D01*
X27877Y58354D01*
X27978Y58598D01*
X27996Y58733D01*
D02*
G37*
G36*
X26873D02*
X26004D01*
X26022Y58598D01*
X26123Y58354D01*
X26284Y58144D01*
X26494Y57983D01*
X26738Y57882D01*
X26873Y57864D01*
Y58733D01*
D02*
G37*
G36*
X12000Y59873D02*
X11738Y59838D01*
X11494Y59737D01*
X11284Y59576D01*
X11123Y59366D01*
X11022Y59122D01*
X10987Y58860D01*
X11022Y58598D01*
X11123Y58354D01*
X11284Y58144D01*
X11494Y57983D01*
X11738Y57882D01*
X12000Y57847D01*
X12262Y57882D01*
X12506Y57983D01*
X12716Y58144D01*
X12877Y58354D01*
X12978Y58598D01*
X13013Y58860D01*
X12978Y59122D01*
X12877Y59366D01*
X12716Y59576D01*
X12506Y59737D01*
X12262Y59838D01*
X12000Y59873D01*
D02*
G37*
G36*
X46873Y58653D02*
X46004D01*
X46022Y58518D01*
X46123Y58274D01*
X46284Y58064D01*
X46494Y57903D01*
X46738Y57802D01*
X46873Y57784D01*
Y58653D01*
D02*
G37*
G36*
X47996D02*
X47127D01*
Y57784D01*
X47262Y57802D01*
X47506Y57903D01*
X47716Y58064D01*
X47877Y58274D01*
X47978Y58518D01*
X47996Y58653D01*
D02*
G37*
G36*
X32000Y59793D02*
X31738Y59758D01*
X31494Y59657D01*
X31284Y59496D01*
X31123Y59286D01*
X31022Y59042D01*
X30987Y58780D01*
X31022Y58518D01*
X31123Y58274D01*
X31284Y58064D01*
X31494Y57903D01*
X31738Y57802D01*
X32000Y57767D01*
X32262Y57802D01*
X32506Y57903D01*
X32716Y58064D01*
X32877Y58274D01*
X32978Y58518D01*
X33013Y58780D01*
X32978Y59042D01*
X32877Y59286D01*
X32716Y59496D01*
X32506Y59657D01*
X32262Y59758D01*
X32000Y59793D01*
D02*
G37*
G36*
X12127Y57316D02*
Y56447D01*
X12996D01*
X12978Y56582D01*
X12877Y56826D01*
X12716Y57036D01*
X12506Y57197D01*
X12262Y57298D01*
X12127Y57316D01*
D02*
G37*
G36*
X11873D02*
X11738Y57298D01*
X11494Y57197D01*
X11284Y57036D01*
X11123Y56826D01*
X11022Y56582D01*
X11004Y56447D01*
X11873D01*
Y57316D01*
D02*
G37*
G36*
X32127Y57236D02*
Y56367D01*
X32996D01*
X32978Y56502D01*
X32877Y56746D01*
X32716Y56956D01*
X32506Y57117D01*
X32262Y57218D01*
X32127Y57236D01*
D02*
G37*
G36*
X31873D02*
X31738Y57218D01*
X31494Y57117D01*
X31284Y56956D01*
X31123Y56746D01*
X31022Y56502D01*
X31004Y56367D01*
X31873D01*
Y57236D01*
D02*
G37*
G36*
X52832Y57909D02*
X52570Y57874D01*
X52326Y57773D01*
X52116Y57612D01*
X51955Y57402D01*
X51854Y57158D01*
X51819Y56896D01*
X51854Y56634D01*
X51955Y56390D01*
X52116Y56180D01*
X52326Y56019D01*
X52570Y55918D01*
X52832Y55883D01*
X53094Y55918D01*
X53338Y56019D01*
X53548Y56180D01*
X53709Y56390D01*
X53810Y56634D01*
X53845Y56896D01*
X53810Y57158D01*
X53709Y57402D01*
X53548Y57612D01*
X53338Y57773D01*
X53094Y57874D01*
X52832Y57909D01*
D02*
G37*
G36*
X27000Y57333D02*
X26738Y57298D01*
X26494Y57197D01*
X26284Y57036D01*
X26123Y56826D01*
X26022Y56582D01*
X25987Y56320D01*
X26022Y56058D01*
X26123Y55814D01*
X26284Y55604D01*
X26494Y55443D01*
X26738Y55342D01*
X27000Y55307D01*
X27262Y55342D01*
X27506Y55443D01*
X27716Y55604D01*
X27877Y55814D01*
X27978Y56058D01*
X28013Y56320D01*
X27978Y56582D01*
X27877Y56826D01*
X27716Y57036D01*
X27506Y57197D01*
X27262Y57298D01*
X27000Y57333D01*
D02*
G37*
G36*
X12996Y56193D02*
X12000D01*
X11004D01*
X11022Y56058D01*
X11123Y55814D01*
X11284Y55604D01*
X11377Y55532D01*
X11334Y55405D01*
X10160D01*
X10001Y55374D01*
X9867Y55284D01*
X9827Y55244D01*
X8535D01*
X8497Y55336D01*
X8336Y55546D01*
X8126Y55707D01*
X7882Y55808D01*
X7620Y55843D01*
X7358Y55808D01*
X7114Y55707D01*
X6904Y55546D01*
X6743Y55336D01*
X6737Y55322D01*
X6062D01*
X5874Y55285D01*
X5714Y55178D01*
X4986Y54450D01*
X4879Y54290D01*
X4842Y54102D01*
Y41656D01*
X4879Y41468D01*
X4986Y41308D01*
X6648Y39646D01*
X6642Y39632D01*
X6607Y39370D01*
X6642Y39108D01*
X6648Y39094D01*
X5240Y37686D01*
X5133Y37526D01*
X5096Y37338D01*
Y24342D01*
X5133Y24154D01*
X5240Y23994D01*
X6648Y22586D01*
X6642Y22572D01*
X6607Y22310D01*
X6642Y22048D01*
X6743Y21804D01*
X6904Y21594D01*
X7114Y21433D01*
X7358Y21332D01*
X7620Y21297D01*
X7882Y21332D01*
X8126Y21433D01*
X8336Y21594D01*
X8497Y21804D01*
X8598Y22048D01*
X8633Y22310D01*
X8598Y22572D01*
X8497Y22816D01*
X8336Y23026D01*
X8126Y23187D01*
X7882Y23288D01*
X7620Y23323D01*
X7358Y23288D01*
X7344Y23282D01*
X6080Y24546D01*
Y37134D01*
X7344Y38398D01*
X7358Y38392D01*
X7620Y38357D01*
X7882Y38392D01*
X8126Y38493D01*
X8336Y38654D01*
X8497Y38864D01*
X8598Y39108D01*
X8633Y39370D01*
X8598Y39632D01*
X8497Y39876D01*
X8336Y40086D01*
X8126Y40247D01*
X7882Y40348D01*
X7620Y40383D01*
X7358Y40348D01*
X7344Y40342D01*
X5826Y41860D01*
Y53898D01*
X6266Y54338D01*
X6737D01*
X6743Y54324D01*
X6904Y54114D01*
X7114Y53953D01*
X7358Y53852D01*
X7620Y53817D01*
X7882Y53852D01*
X8126Y53953D01*
X8336Y54114D01*
X8497Y54324D01*
X8535Y54416D01*
X9999D01*
X10158Y54447D01*
X10292Y54537D01*
X10332Y54577D01*
X11189D01*
X11248Y54450D01*
X11123Y54286D01*
X11022Y54042D01*
X11004Y53907D01*
X12000D01*
X12996D01*
X12978Y54042D01*
X12877Y54286D01*
X12752Y54450D01*
X12811Y54577D01*
X24212D01*
X25361Y53428D01*
X25495Y53338D01*
X25654Y53307D01*
X26109D01*
X26123Y53274D01*
X26284Y53064D01*
X26494Y52903D01*
X26738Y52802D01*
X27000Y52767D01*
X27262Y52802D01*
X27506Y52903D01*
X27716Y53064D01*
X27877Y53274D01*
X27915Y53366D01*
X28701D01*
X29908Y52158D01*
X30043Y52068D01*
X30201Y52037D01*
X31296D01*
X31336Y51916D01*
X31284Y51876D01*
X31123Y51666D01*
X31022Y51422D01*
X30987Y51160D01*
X31022Y50898D01*
X31060Y50806D01*
X29298Y49044D01*
X29208Y48910D01*
X29177Y48751D01*
Y48178D01*
X28784Y47785D01*
X27666D01*
X27623Y47912D01*
X27716Y47984D01*
X27877Y48194D01*
X27978Y48438D01*
X28013Y48700D01*
X27978Y48962D01*
X27877Y49206D01*
X27716Y49416D01*
X27506Y49577D01*
X27262Y49678D01*
X27000Y49713D01*
X26738Y49678D01*
X26494Y49577D01*
X26284Y49416D01*
X26123Y49206D01*
X26022Y48962D01*
X25987Y48700D01*
X26022Y48438D01*
X26123Y48194D01*
X26284Y47984D01*
X26377Y47912D01*
X26334Y47785D01*
X26035D01*
X25876Y47754D01*
X25742Y47664D01*
X24403Y46325D01*
X24313Y46190D01*
X24281Y46032D01*
Y45824D01*
X24279Y45824D01*
X24063Y45735D01*
X23877Y45592D01*
X23734Y45406D01*
X23645Y45190D01*
X23614Y44958D01*
X23645Y44726D01*
X23734Y44510D01*
X23877Y44324D01*
X24063Y44181D01*
X24279Y44092D01*
X24511Y44061D01*
X24743Y44092D01*
X24959Y44181D01*
X25145Y44324D01*
X25288Y44510D01*
X25377Y44726D01*
X25408Y44958D01*
X25377Y45190D01*
X25288Y45406D01*
X25145Y45592D01*
X25110Y45619D01*
Y45860D01*
X26116Y46866D01*
X26212Y46782D01*
X26123Y46666D01*
X26022Y46422D01*
X25987Y46160D01*
X26022Y45898D01*
X26123Y45654D01*
X26284Y45444D01*
X26494Y45283D01*
X26738Y45182D01*
X27000Y45147D01*
X27262Y45182D01*
X27506Y45283D01*
X27716Y45444D01*
X27877Y45654D01*
X27978Y45898D01*
X28013Y46160D01*
X27978Y46422D01*
X27877Y46666D01*
X27752Y46830D01*
X27811Y46957D01*
X28956D01*
X29115Y46988D01*
X29249Y47078D01*
X29884Y47713D01*
X29974Y47847D01*
X30005Y48006D01*
Y48579D01*
X31646Y50220D01*
X31738Y50182D01*
X32000Y50147D01*
X32262Y50182D01*
X32506Y50283D01*
X32716Y50444D01*
X32877Y50654D01*
X32978Y50898D01*
X33013Y51160D01*
X32978Y51422D01*
X32877Y51666D01*
X32716Y51876D01*
X32664Y51916D01*
X32704Y52037D01*
X45751D01*
X45910Y52068D01*
X46044Y52158D01*
X46646Y52760D01*
X46738Y52722D01*
X47000Y52687D01*
X47262Y52722D01*
X47506Y52823D01*
X47716Y52984D01*
X47877Y53194D01*
X47978Y53438D01*
X48013Y53700D01*
X47978Y53962D01*
X47877Y54206D01*
X47716Y54416D01*
X47506Y54577D01*
X47262Y54678D01*
X47000Y54713D01*
X46738Y54678D01*
X46494Y54577D01*
X46284Y54416D01*
X46123Y54206D01*
X46022Y53962D01*
X45987Y53700D01*
X46022Y53438D01*
X46060Y53346D01*
X45579Y52865D01*
X32756D01*
X32733Y52933D01*
X32723Y52992D01*
X32877Y53194D01*
X32978Y53438D01*
X32996Y53573D01*
X32000D01*
X31004D01*
X31022Y53438D01*
X31123Y53194D01*
X31277Y52992D01*
X31267Y52933D01*
X31244Y52865D01*
X30373D01*
X29165Y54073D01*
X29031Y54163D01*
X28872Y54194D01*
X27915D01*
X27877Y54286D01*
X27716Y54496D01*
X27506Y54657D01*
X27262Y54758D01*
X27000Y54793D01*
X26738Y54758D01*
X26494Y54657D01*
X26284Y54496D01*
X26123Y54286D01*
X26061Y54135D01*
X25826D01*
X24677Y55284D01*
X24543Y55374D01*
X24384Y55405D01*
X12666D01*
X12623Y55532D01*
X12716Y55604D01*
X12877Y55814D01*
X12978Y56058D01*
X12996Y56193D01*
D02*
G37*
G36*
X32996Y56113D02*
X32127D01*
Y55244D01*
X32262Y55262D01*
X32506Y55363D01*
X32716Y55524D01*
X32877Y55734D01*
X32978Y55978D01*
X32996Y56113D01*
D02*
G37*
G36*
X31873D02*
X31004D01*
X31022Y55978D01*
X31123Y55734D01*
X31284Y55524D01*
X31494Y55363D01*
X31738Y55262D01*
X31873Y55244D01*
Y56113D01*
D02*
G37*
G36*
X47000Y57253D02*
X46738Y57218D01*
X46494Y57117D01*
X46284Y56956D01*
X46123Y56746D01*
X46022Y56502D01*
X45987Y56240D01*
X46022Y55978D01*
X46123Y55734D01*
X46284Y55524D01*
X46494Y55363D01*
X46738Y55262D01*
X47000Y55227D01*
X47262Y55262D01*
X47506Y55363D01*
X47716Y55524D01*
X47877Y55734D01*
X47978Y55978D01*
X48013Y56240D01*
X47978Y56502D01*
X47877Y56746D01*
X47716Y56956D01*
X47506Y57117D01*
X47262Y57218D01*
X47000Y57253D01*
D02*
G37*
G36*
X32127Y54696D02*
Y53827D01*
X32996D01*
X32978Y53962D01*
X32877Y54206D01*
X32716Y54416D01*
X32506Y54577D01*
X32262Y54678D01*
X32127Y54696D01*
D02*
G37*
G36*
X31873D02*
X31738Y54678D01*
X31494Y54577D01*
X31284Y54416D01*
X31123Y54206D01*
X31022Y53962D01*
X31004Y53827D01*
X31873D01*
Y54696D01*
D02*
G37*
G36*
X12996Y53653D02*
X12127D01*
Y52784D01*
X12262Y52802D01*
X12506Y52903D01*
X12716Y53064D01*
X12877Y53274D01*
X12978Y53518D01*
X12996Y53653D01*
D02*
G37*
G36*
X11873D02*
X11004D01*
X11022Y53518D01*
X11123Y53274D01*
X11284Y53064D01*
X11494Y52903D01*
X11738Y52802D01*
X11873Y52784D01*
Y53653D01*
D02*
G37*
G36*
X7620Y53303D02*
X7358Y53268D01*
X7114Y53167D01*
X6904Y53006D01*
X6743Y52796D01*
X6642Y52552D01*
X6607Y52290D01*
X6642Y52028D01*
X6743Y51784D01*
X6904Y51574D01*
X7114Y51413D01*
X7358Y51312D01*
X7620Y51277D01*
X7882Y51312D01*
X8126Y51413D01*
X8336Y51574D01*
X8497Y51784D01*
X8598Y52028D01*
X8633Y52290D01*
X8598Y52552D01*
X8497Y52796D01*
X8336Y53006D01*
X8126Y53167D01*
X7882Y53268D01*
X7620Y53303D01*
D02*
G37*
G36*
X27000Y52253D02*
X26738Y52218D01*
X26494Y52117D01*
X26284Y51956D01*
X26123Y51746D01*
X26022Y51502D01*
X25987Y51240D01*
X26022Y50978D01*
X26123Y50734D01*
X26284Y50524D01*
X26494Y50363D01*
X26738Y50262D01*
X27000Y50227D01*
X27262Y50262D01*
X27506Y50363D01*
X27716Y50524D01*
X27877Y50734D01*
X27978Y50978D01*
X28013Y51240D01*
X27978Y51502D01*
X27877Y51746D01*
X27716Y51956D01*
X27506Y52117D01*
X27262Y52218D01*
X27000Y52253D01*
D02*
G37*
G36*
X12000D02*
X11738Y52218D01*
X11494Y52117D01*
X11284Y51956D01*
X11123Y51746D01*
X11022Y51502D01*
X10987Y51240D01*
X11022Y50978D01*
X11123Y50734D01*
X11284Y50524D01*
X11494Y50363D01*
X11738Y50262D01*
X12000Y50227D01*
X12262Y50262D01*
X12506Y50363D01*
X12716Y50524D01*
X12877Y50734D01*
X12978Y50978D01*
X13013Y51240D01*
X12978Y51502D01*
X12877Y51746D01*
X12716Y51956D01*
X12506Y52117D01*
X12262Y52218D01*
X12000Y52253D01*
D02*
G37*
G36*
X47000Y52173D02*
X46738Y52138D01*
X46494Y52037D01*
X46284Y51876D01*
X46123Y51666D01*
X46085Y51574D01*
X45064D01*
X44905Y51543D01*
X44771Y51453D01*
X40474Y47156D01*
X40384Y47022D01*
X40353Y46863D01*
Y35478D01*
X35515Y30640D01*
X30122D01*
X30074Y30758D01*
X31724Y32408D01*
X31738Y32402D01*
X32000Y32367D01*
X32262Y32402D01*
X32506Y32503D01*
X32716Y32664D01*
X32877Y32874D01*
X32978Y33118D01*
X33013Y33380D01*
X32978Y33642D01*
X32877Y33886D01*
X32716Y34096D01*
X32506Y34257D01*
X32262Y34358D01*
X32000Y34393D01*
X31738Y34358D01*
X31494Y34257D01*
X31284Y34096D01*
X31123Y33886D01*
X31022Y33642D01*
X30987Y33380D01*
X31022Y33118D01*
X31028Y33104D01*
X29404Y31480D01*
X18838D01*
X18650Y31443D01*
X18490Y31336D01*
X7896Y20742D01*
X7882Y20748D01*
X7620Y20783D01*
X7358Y20748D01*
X7114Y20647D01*
X6904Y20486D01*
X6743Y20276D01*
X6642Y20032D01*
X6607Y19770D01*
X6642Y19508D01*
X6743Y19264D01*
X6904Y19054D01*
X7114Y18893D01*
X7358Y18792D01*
X7620Y18757D01*
X7882Y18792D01*
X8126Y18893D01*
X8336Y19054D01*
X8497Y19264D01*
X8598Y19508D01*
X8633Y19770D01*
X8598Y20032D01*
X8592Y20046D01*
X19042Y30496D01*
X22844D01*
X22893Y30379D01*
X22404Y29890D01*
X22312Y29928D01*
X22050Y29963D01*
X21788Y29928D01*
X21544Y29827D01*
X21334Y29666D01*
X21173Y29456D01*
X21072Y29212D01*
X21037Y28950D01*
X21072Y28688D01*
X21173Y28444D01*
X21334Y28234D01*
X21544Y28073D01*
X21788Y27972D01*
X22050Y27937D01*
X22312Y27972D01*
X22556Y28073D01*
X22766Y28234D01*
X22927Y28444D01*
X23028Y28688D01*
X23063Y28950D01*
X23028Y29212D01*
X22990Y29304D01*
X23498Y29812D01*
X23866D01*
X23907Y29691D01*
X23874Y29666D01*
X23713Y29456D01*
X23612Y29212D01*
X23577Y28950D01*
X23612Y28688D01*
X23713Y28444D01*
X23874Y28234D01*
X24084Y28073D01*
X24328Y27972D01*
X24590Y27937D01*
X24852Y27972D01*
X24866Y27978D01*
X30078Y22766D01*
X30238Y22659D01*
X30426Y22622D01*
X49784D01*
X49972Y22659D01*
X50132Y22766D01*
X58133Y30767D01*
X58240Y30927D01*
X58277Y31115D01*
Y39751D01*
X58240Y39939D01*
X58133Y40099D01*
X56884Y41348D01*
X56724Y41454D01*
X56536Y41492D01*
X47883D01*
X47877Y41506D01*
X47716Y41716D01*
X47506Y41877D01*
X47262Y41978D01*
X47000Y42013D01*
X46738Y41978D01*
X46494Y41877D01*
X46284Y41716D01*
X46123Y41506D01*
X46022Y41262D01*
X45987Y41000D01*
X46022Y40738D01*
X46123Y40494D01*
X46284Y40284D01*
X46494Y40123D01*
X46738Y40022D01*
X47000Y39987D01*
X47262Y40022D01*
X47506Y40123D01*
X47716Y40284D01*
X47877Y40494D01*
X47883Y40508D01*
X56332D01*
X57293Y39547D01*
Y31319D01*
X49580Y23606D01*
X30630D01*
X25562Y28674D01*
X25568Y28688D01*
X25603Y28950D01*
X25568Y29212D01*
X25467Y29456D01*
X25306Y29666D01*
X25273Y29691D01*
X25314Y29812D01*
X26406D01*
X26447Y29691D01*
X26414Y29666D01*
X26253Y29456D01*
X26152Y29212D01*
X26117Y28950D01*
X26152Y28688D01*
X26253Y28444D01*
X26414Y28234D01*
X26624Y28073D01*
X26868Y27972D01*
X27130Y27937D01*
X27392Y27972D01*
X27484Y28010D01*
X31403Y24091D01*
X31537Y24001D01*
X31696Y23970D01*
X48895D01*
X49054Y24001D01*
X49188Y24091D01*
X51855Y26758D01*
X51945Y26892D01*
X51976Y27051D01*
Y27911D01*
X52010Y27925D01*
X52196Y28068D01*
X52339Y28254D01*
X52428Y28470D01*
X52459Y28702D01*
X52428Y28934D01*
X52339Y29150D01*
X52196Y29336D01*
X52010Y29479D01*
X51794Y29568D01*
X51562Y29599D01*
X51330Y29568D01*
X51114Y29479D01*
X50928Y29336D01*
X50785Y29150D01*
X50696Y28934D01*
X50665Y28702D01*
X50696Y28470D01*
X50785Y28254D01*
X50928Y28068D01*
X51114Y27925D01*
X51148Y27911D01*
Y27223D01*
X48723Y24798D01*
X31868D01*
X28070Y28596D01*
X28108Y28688D01*
X28143Y28950D01*
X28108Y29212D01*
X28007Y29456D01*
X27846Y29666D01*
X27813Y29691D01*
X27854Y29812D01*
X28946D01*
X28987Y29691D01*
X28954Y29666D01*
X28793Y29456D01*
X28692Y29212D01*
X28657Y28950D01*
X28692Y28688D01*
X28793Y28444D01*
X28954Y28234D01*
X29164Y28073D01*
X29408Y27972D01*
X29670Y27937D01*
X29932Y27972D01*
X29946Y27978D01*
X32364Y25560D01*
X32524Y25453D01*
X32712Y25416D01*
X47625D01*
X47813Y25453D01*
X47973Y25560D01*
X49446Y27034D01*
X49553Y27193D01*
X49590Y27382D01*
Y27923D01*
X49597Y27925D01*
X49783Y28068D01*
X49926Y28254D01*
X50015Y28470D01*
X50046Y28702D01*
X50015Y28934D01*
X49926Y29150D01*
X49783Y29336D01*
X49597Y29479D01*
X49381Y29568D01*
X49149Y29599D01*
X48917Y29568D01*
X48701Y29479D01*
X48515Y29336D01*
X48372Y29150D01*
X48283Y28934D01*
X48252Y28702D01*
X48283Y28470D01*
X48372Y28254D01*
X48515Y28068D01*
X48607Y27998D01*
Y27585D01*
X47421Y26400D01*
X32916D01*
X30642Y28674D01*
X30648Y28688D01*
X30683Y28950D01*
X30648Y29212D01*
X30547Y29456D01*
X30386Y29666D01*
X30353Y29691D01*
X30394Y29812D01*
X31486D01*
X31527Y29691D01*
X31494Y29666D01*
X31333Y29456D01*
X31232Y29212D01*
X31197Y28950D01*
X31232Y28688D01*
X31333Y28444D01*
X31494Y28234D01*
X31704Y28073D01*
X31948Y27972D01*
X32210Y27937D01*
X32472Y27972D01*
X32486Y27978D01*
X33253Y27211D01*
X33413Y27104D01*
X33601Y27067D01*
X45085D01*
X45273Y27104D01*
X45433Y27211D01*
X46177Y27956D01*
X46355Y27932D01*
X46587Y27963D01*
X46803Y28052D01*
X46989Y28195D01*
X47132Y28381D01*
X47221Y28597D01*
X47252Y28829D01*
X47221Y29061D01*
X47132Y29277D01*
X46989Y29463D01*
X46803Y29606D01*
X46613Y29685D01*
X46638Y29812D01*
X53213D01*
X53372Y29843D01*
X53506Y29933D01*
X56300Y32727D01*
X56390Y32861D01*
X56421Y33020D01*
Y33782D01*
X56390Y33941D01*
X56300Y34075D01*
X54522Y35853D01*
X54388Y35943D01*
X54229Y35974D01*
X53722D01*
X53709Y36006D01*
X53548Y36216D01*
X53338Y36377D01*
X53094Y36478D01*
X52832Y36513D01*
X52570Y36478D01*
X52326Y36377D01*
X52116Y36216D01*
X51955Y36006D01*
X51854Y35762D01*
X51819Y35500D01*
X51854Y35238D01*
X51955Y34994D01*
X52116Y34784D01*
X52326Y34623D01*
X52570Y34522D01*
X52832Y34487D01*
X53094Y34522D01*
X53338Y34623D01*
X53548Y34784D01*
X53709Y34994D01*
X53772Y35146D01*
X54057D01*
X55593Y33610D01*
Y33192D01*
X53041Y30640D01*
X51214D01*
X51202Y30767D01*
X51302Y30787D01*
X51462Y30894D01*
X52556Y31988D01*
X52570Y31982D01*
X52832Y31947D01*
X53094Y31982D01*
X53338Y32083D01*
X53548Y32244D01*
X53709Y32454D01*
X53810Y32698D01*
X53845Y32960D01*
X53810Y33222D01*
X53709Y33466D01*
X53548Y33676D01*
X53338Y33837D01*
X53094Y33938D01*
X52832Y33973D01*
X52570Y33938D01*
X52326Y33837D01*
X52116Y33676D01*
X51955Y33466D01*
X51854Y33222D01*
X51819Y32960D01*
X51854Y32698D01*
X51860Y32684D01*
X50910Y31734D01*
X44019D01*
X43418Y32335D01*
Y45770D01*
X45768Y48121D01*
X46120D01*
X46123Y48114D01*
X46284Y47904D01*
X46494Y47743D01*
X46738Y47642D01*
X47000Y47607D01*
X47262Y47642D01*
X47506Y47743D01*
X47716Y47904D01*
X47877Y48114D01*
X47978Y48358D01*
X48013Y48620D01*
X47978Y48882D01*
X47877Y49126D01*
X47716Y49336D01*
X47506Y49497D01*
X47262Y49598D01*
X47000Y49633D01*
X46738Y49598D01*
X46494Y49497D01*
X46284Y49336D01*
X46123Y49126D01*
X46114Y49104D01*
X45564D01*
X45376Y49067D01*
X45217Y48960D01*
X42578Y46322D01*
X42471Y46162D01*
X42434Y45974D01*
Y32131D01*
X42471Y31943D01*
X42578Y31783D01*
X43467Y30894D01*
X43627Y30787D01*
X43727Y30767D01*
X43715Y30640D01*
X38566D01*
X38407Y30609D01*
X38273Y30519D01*
X37644Y29890D01*
X37552Y29928D01*
X37290Y29963D01*
X37028Y29928D01*
X36784Y29827D01*
X36574Y29666D01*
X36413Y29456D01*
X36312Y29212D01*
X36277Y28950D01*
X36312Y28688D01*
X36413Y28444D01*
X36574Y28234D01*
X36647Y28178D01*
X36604Y28051D01*
X35436D01*
X35393Y28178D01*
X35466Y28234D01*
X35627Y28444D01*
X35728Y28688D01*
X35746Y28823D01*
X34750D01*
Y29077D01*
X35746D01*
X35728Y29212D01*
X35627Y29456D01*
X35466Y29666D01*
X35433Y29691D01*
X35474Y29812D01*
X35687D01*
X35846Y29843D01*
X35980Y29933D01*
X41060Y35013D01*
X41150Y35147D01*
X41181Y35306D01*
Y46691D01*
X45236Y50746D01*
X46085D01*
X46123Y50654D01*
X46284Y50444D01*
X46494Y50283D01*
X46738Y50182D01*
X47000Y50147D01*
X47262Y50182D01*
X47506Y50283D01*
X47716Y50444D01*
X47877Y50654D01*
X47978Y50898D01*
X48013Y51160D01*
X47978Y51422D01*
X47877Y51666D01*
X47716Y51876D01*
X47506Y52037D01*
X47262Y52138D01*
X47000Y52173D01*
D02*
G37*
G36*
X53836Y49772D02*
X52959D01*
Y48895D01*
X53836D01*
Y49772D01*
D02*
G37*
G36*
X52705D02*
X51828D01*
Y48895D01*
X52705D01*
Y49772D01*
D02*
G37*
G36*
X7620Y50763D02*
X7358Y50728D01*
X7114Y50627D01*
X6904Y50466D01*
X6743Y50256D01*
X6642Y50012D01*
X6607Y49750D01*
X6642Y49488D01*
X6743Y49244D01*
X6904Y49034D01*
X7114Y48873D01*
X7358Y48772D01*
X7620Y48737D01*
X7882Y48772D01*
X8126Y48873D01*
X8336Y49034D01*
X8497Y49244D01*
X8598Y49488D01*
X8633Y49750D01*
X8598Y50012D01*
X8497Y50256D01*
X8336Y50466D01*
X8126Y50627D01*
X7882Y50728D01*
X7620Y50763D01*
D02*
G37*
G36*
X53836Y48641D02*
X52959D01*
Y47764D01*
X53836D01*
Y48641D01*
D02*
G37*
G36*
X52705D02*
X51828D01*
Y47764D01*
X52705D01*
Y48641D01*
D02*
G37*
G36*
X12000Y49713D02*
X11738Y49678D01*
X11494Y49577D01*
X11284Y49416D01*
X11123Y49206D01*
X11022Y48962D01*
X10987Y48700D01*
X11022Y48438D01*
X11123Y48194D01*
X11284Y47984D01*
X11494Y47823D01*
X11738Y47722D01*
X12000Y47687D01*
X12262Y47722D01*
X12506Y47823D01*
X12716Y47984D01*
X12877Y48194D01*
X12978Y48438D01*
X13013Y48700D01*
X12978Y48962D01*
X12877Y49206D01*
X12716Y49416D01*
X12506Y49577D01*
X12262Y49678D01*
X12000Y49713D01*
D02*
G37*
G36*
X32000Y49633D02*
X31738Y49598D01*
X31494Y49497D01*
X31284Y49336D01*
X31123Y49126D01*
X31022Y48882D01*
X30987Y48620D01*
X31022Y48358D01*
X31123Y48114D01*
X31284Y47904D01*
X31494Y47743D01*
X31738Y47642D01*
X32000Y47607D01*
X32262Y47642D01*
X32506Y47743D01*
X32716Y47904D01*
X32877Y48114D01*
X32978Y48358D01*
X33013Y48620D01*
X32978Y48882D01*
X32877Y49126D01*
X32716Y49336D01*
X32506Y49497D01*
X32262Y49598D01*
X32000Y49633D01*
D02*
G37*
G36*
X7620Y48223D02*
X7358Y48188D01*
X7114Y48087D01*
X6904Y47926D01*
X6743Y47716D01*
X6642Y47472D01*
X6607Y47210D01*
X6642Y46948D01*
X6743Y46704D01*
X6904Y46494D01*
X7114Y46333D01*
X7358Y46232D01*
X7620Y46197D01*
X7882Y46232D01*
X8126Y46333D01*
X8336Y46494D01*
X8497Y46704D01*
X8598Y46948D01*
X8633Y47210D01*
X8598Y47472D01*
X8497Y47716D01*
X8336Y47926D01*
X8126Y48087D01*
X7882Y48188D01*
X7620Y48223D01*
D02*
G37*
G36*
X52832Y47241D02*
X52570Y47206D01*
X52326Y47105D01*
X52116Y46944D01*
X51955Y46734D01*
X51854Y46490D01*
X51819Y46228D01*
X51854Y45966D01*
X51955Y45722D01*
X52116Y45512D01*
X52326Y45351D01*
X52570Y45250D01*
X52832Y45215D01*
X53094Y45250D01*
X53338Y45351D01*
X53548Y45512D01*
X53709Y45722D01*
X53810Y45966D01*
X53845Y46228D01*
X53810Y46490D01*
X53709Y46734D01*
X53548Y46944D01*
X53338Y47105D01*
X53094Y47206D01*
X52832Y47241D01*
D02*
G37*
G36*
X12000Y47173D02*
X11738Y47138D01*
X11494Y47037D01*
X11284Y46876D01*
X11123Y46666D01*
X11022Y46422D01*
X10987Y46160D01*
X11022Y45898D01*
X11123Y45654D01*
X11284Y45444D01*
X11494Y45283D01*
X11738Y45182D01*
X12000Y45147D01*
X12262Y45182D01*
X12506Y45283D01*
X12716Y45444D01*
X12877Y45654D01*
X12978Y45898D01*
X13013Y46160D01*
X12978Y46422D01*
X12877Y46666D01*
X12716Y46876D01*
X12506Y47037D01*
X12262Y47138D01*
X12000Y47173D01*
D02*
G37*
G36*
X47000Y47093D02*
X46738Y47058D01*
X46494Y46957D01*
X46284Y46796D01*
X46123Y46586D01*
X46022Y46342D01*
X45987Y46080D01*
X46022Y45818D01*
X46123Y45574D01*
X46284Y45364D01*
X46494Y45203D01*
X46738Y45102D01*
X47000Y45067D01*
X47262Y45102D01*
X47506Y45203D01*
X47716Y45364D01*
X47877Y45574D01*
X47978Y45818D01*
X48013Y46080D01*
X47978Y46342D01*
X47877Y46586D01*
X47716Y46796D01*
X47506Y46957D01*
X47262Y47058D01*
X47000Y47093D01*
D02*
G37*
G36*
X32000D02*
X31738Y47058D01*
X31494Y46957D01*
X31284Y46796D01*
X31123Y46586D01*
X31022Y46342D01*
X30987Y46080D01*
X31022Y45818D01*
X31123Y45574D01*
X31284Y45364D01*
X31494Y45203D01*
X31738Y45102D01*
X32000Y45067D01*
X32262Y45102D01*
X32506Y45203D01*
X32716Y45364D01*
X32877Y45574D01*
X32978Y45818D01*
X33013Y46080D01*
X32978Y46342D01*
X32877Y46586D01*
X32716Y46796D01*
X32506Y46957D01*
X32262Y47058D01*
X32000Y47093D01*
D02*
G37*
G36*
X8624Y45674D02*
X7747D01*
Y44797D01*
X8624D01*
Y45674D01*
D02*
G37*
G36*
X7493D02*
X6616D01*
Y44797D01*
X7493D01*
Y45674D01*
D02*
G37*
G36*
X52832Y55369D02*
X52570Y55334D01*
X52326Y55233D01*
X52116Y55072D01*
X51955Y54862D01*
X51854Y54618D01*
X51819Y54356D01*
X51854Y54094D01*
X51955Y53850D01*
X52116Y53640D01*
X52326Y53479D01*
X52340Y53473D01*
Y52704D01*
X49182Y49546D01*
X49075Y49387D01*
X49038Y49198D01*
Y46274D01*
X47276Y44512D01*
X47262Y44518D01*
X47000Y44553D01*
X46738Y44518D01*
X46494Y44417D01*
X46284Y44256D01*
X46123Y44046D01*
X46022Y43802D01*
X45987Y43540D01*
X46022Y43278D01*
X46123Y43034D01*
X46284Y42824D01*
X46494Y42663D01*
X46738Y42562D01*
X47000Y42527D01*
X47262Y42562D01*
X47506Y42663D01*
X47716Y42824D01*
X47877Y43034D01*
X47978Y43278D01*
X48013Y43540D01*
X47978Y43802D01*
X47972Y43816D01*
X49878Y45722D01*
X49985Y45882D01*
X50022Y46070D01*
Y48995D01*
X53180Y52153D01*
X53287Y52312D01*
X53324Y52500D01*
Y53473D01*
X53338Y53479D01*
X53548Y53640D01*
X53709Y53850D01*
X53810Y54094D01*
X53845Y54356D01*
X53810Y54618D01*
X53709Y54862D01*
X53548Y55072D01*
X53338Y55233D01*
X53094Y55334D01*
X52832Y55369D01*
D02*
G37*
G36*
X8624Y44543D02*
X7747D01*
Y43666D01*
X8624D01*
Y44543D01*
D02*
G37*
G36*
X7493D02*
X6616D01*
Y43666D01*
X7493D01*
Y44543D01*
D02*
G37*
G36*
X52832Y44701D02*
X52570Y44666D01*
X52326Y44565D01*
X52116Y44404D01*
X51955Y44194D01*
X51854Y43950D01*
X51819Y43688D01*
X51854Y43426D01*
X51955Y43182D01*
X52116Y42972D01*
X52326Y42811D01*
X52570Y42710D01*
X52832Y42675D01*
X53094Y42710D01*
X53338Y42811D01*
X53548Y42972D01*
X53709Y43182D01*
X53810Y43426D01*
X53845Y43688D01*
X53810Y43950D01*
X53709Y44194D01*
X53548Y44404D01*
X53338Y44565D01*
X53094Y44666D01*
X52832Y44701D01*
D02*
G37*
G36*
X27000Y44633D02*
X26738Y44598D01*
X26494Y44497D01*
X26284Y44336D01*
X26123Y44126D01*
X26022Y43882D01*
X25987Y43620D01*
X26022Y43358D01*
X26123Y43114D01*
X26284Y42904D01*
X26494Y42743D01*
X26738Y42642D01*
X27000Y42607D01*
X27262Y42642D01*
X27506Y42743D01*
X27716Y42904D01*
X27877Y43114D01*
X27978Y43358D01*
X28013Y43620D01*
X27978Y43882D01*
X27877Y44126D01*
X27716Y44336D01*
X27506Y44497D01*
X27262Y44598D01*
X27000Y44633D01*
D02*
G37*
G36*
X12000D02*
X11738Y44598D01*
X11494Y44497D01*
X11284Y44336D01*
X11123Y44126D01*
X11022Y43882D01*
X10987Y43620D01*
X11022Y43358D01*
X11123Y43114D01*
X11284Y42904D01*
X11494Y42743D01*
X11738Y42642D01*
X12000Y42607D01*
X12262Y42642D01*
X12506Y42743D01*
X12716Y42904D01*
X12877Y43114D01*
X12978Y43358D01*
X13013Y43620D01*
X12978Y43882D01*
X12877Y44126D01*
X12716Y44336D01*
X12506Y44497D01*
X12262Y44598D01*
X12000Y44633D01*
D02*
G37*
G36*
X32000Y44553D02*
X31738Y44518D01*
X31494Y44417D01*
X31284Y44256D01*
X31123Y44046D01*
X31022Y43802D01*
X30987Y43540D01*
X31022Y43278D01*
X31123Y43034D01*
X31284Y42824D01*
X31494Y42663D01*
X31738Y42562D01*
X32000Y42527D01*
X32262Y42562D01*
X32506Y42663D01*
X32716Y42824D01*
X32877Y43034D01*
X32978Y43278D01*
X33013Y43540D01*
X32978Y43802D01*
X32877Y44046D01*
X32716Y44256D01*
X32506Y44417D01*
X32262Y44518D01*
X32000Y44553D01*
D02*
G37*
G36*
X27000Y42093D02*
X26738Y42058D01*
X26494Y41957D01*
X26284Y41796D01*
X26123Y41586D01*
X26022Y41342D01*
X25987Y41080D01*
X26022Y40818D01*
X26123Y40574D01*
X26284Y40364D01*
X26494Y40203D01*
X26738Y40102D01*
X27000Y40067D01*
X27262Y40102D01*
X27506Y40203D01*
X27716Y40364D01*
X27877Y40574D01*
X27978Y40818D01*
X28013Y41080D01*
X27978Y41342D01*
X27877Y41586D01*
X27716Y41796D01*
X27506Y41957D01*
X27262Y42058D01*
X27000Y42093D01*
D02*
G37*
G36*
X12000D02*
X11738Y42058D01*
X11494Y41957D01*
X11284Y41796D01*
X11123Y41586D01*
X11022Y41342D01*
X10987Y41080D01*
X11022Y40818D01*
X11123Y40574D01*
X11284Y40364D01*
X11494Y40203D01*
X11738Y40102D01*
X12000Y40067D01*
X12262Y40102D01*
X12506Y40203D01*
X12716Y40364D01*
X12877Y40574D01*
X12978Y40818D01*
X13013Y41080D01*
X12978Y41342D01*
X12877Y41586D01*
X12716Y41796D01*
X12506Y41957D01*
X12262Y42058D01*
X12000Y42093D01*
D02*
G37*
G36*
X32000Y42013D02*
X31738Y41978D01*
X31494Y41877D01*
X31284Y41716D01*
X31123Y41506D01*
X31022Y41262D01*
X30987Y41000D01*
X31022Y40738D01*
X31123Y40494D01*
X31284Y40284D01*
X31494Y40123D01*
X31738Y40022D01*
X32000Y39987D01*
X32262Y40022D01*
X32506Y40123D01*
X32716Y40284D01*
X32877Y40494D01*
X32978Y40738D01*
X33013Y41000D01*
X32978Y41262D01*
X32877Y41506D01*
X32716Y41716D01*
X32506Y41877D01*
X32262Y41978D01*
X32000Y42013D01*
D02*
G37*
G36*
X53836Y39044D02*
X52959D01*
Y38167D01*
X53836D01*
Y39044D01*
D02*
G37*
G36*
X52705D02*
X51828D01*
Y38167D01*
X52705D01*
Y39044D01*
D02*
G37*
G36*
X27000Y39553D02*
X26738Y39518D01*
X26494Y39417D01*
X26284Y39256D01*
X26123Y39046D01*
X26022Y38802D01*
X25987Y38540D01*
X26022Y38278D01*
X26123Y38034D01*
X26284Y37824D01*
X26377Y37752D01*
X26334Y37625D01*
X12666D01*
X12623Y37752D01*
X12716Y37824D01*
X12877Y38034D01*
X12978Y38278D01*
X13013Y38540D01*
X12978Y38802D01*
X12877Y39046D01*
X12716Y39256D01*
X12506Y39417D01*
X12262Y39518D01*
X12000Y39553D01*
X11738Y39518D01*
X11494Y39417D01*
X11284Y39256D01*
X11123Y39046D01*
X11022Y38802D01*
X10987Y38540D01*
X11022Y38278D01*
X11123Y38034D01*
X11284Y37824D01*
X11377Y37752D01*
X11334Y37625D01*
X10541D01*
X10382Y37594D01*
X10248Y37504D01*
X9988Y37244D01*
X8535D01*
X8497Y37336D01*
X8336Y37546D01*
X8126Y37707D01*
X7882Y37808D01*
X7620Y37843D01*
X7358Y37808D01*
X7114Y37707D01*
X6904Y37546D01*
X6743Y37336D01*
X6642Y37092D01*
X6607Y36830D01*
X6642Y36568D01*
X6743Y36324D01*
X6904Y36114D01*
X7114Y35953D01*
X7358Y35852D01*
X7620Y35817D01*
X7882Y35852D01*
X8126Y35953D01*
X8336Y36114D01*
X8497Y36324D01*
X8535Y36416D01*
X10160D01*
X10319Y36447D01*
X10453Y36537D01*
X10713Y36797D01*
X11189D01*
X11248Y36670D01*
X11123Y36506D01*
X11022Y36262D01*
X10987Y36000D01*
X11022Y35738D01*
X11123Y35494D01*
X11284Y35284D01*
X11494Y35123D01*
X11738Y35022D01*
X12000Y34987D01*
X12262Y35022D01*
X12506Y35123D01*
X12716Y35284D01*
X12877Y35494D01*
X12978Y35738D01*
X13013Y36000D01*
X12978Y36262D01*
X12877Y36506D01*
X12752Y36670D01*
X12811Y36797D01*
X26189D01*
X26248Y36670D01*
X26123Y36506D01*
X26022Y36262D01*
X25987Y36000D01*
X26022Y35738D01*
X26123Y35494D01*
X26284Y35284D01*
X26494Y35123D01*
X26738Y35022D01*
X27000Y34987D01*
X27262Y35022D01*
X27506Y35123D01*
X27716Y35284D01*
X27877Y35494D01*
X27978Y35738D01*
X28013Y36000D01*
X27978Y36262D01*
X27877Y36506D01*
X27752Y36670D01*
X27811Y36797D01*
X30537D01*
X31060Y36274D01*
X31022Y36182D01*
X30987Y35920D01*
X31022Y35658D01*
X31123Y35414D01*
X31284Y35204D01*
X31494Y35043D01*
X31738Y34942D01*
X32000Y34907D01*
X32262Y34942D01*
X32506Y35043D01*
X32716Y35204D01*
X32877Y35414D01*
X32978Y35658D01*
X33013Y35920D01*
X32978Y36182D01*
X32877Y36426D01*
X32716Y36636D01*
X32506Y36797D01*
X32262Y36898D01*
X32000Y36933D01*
X31738Y36898D01*
X31646Y36860D01*
X31002Y37504D01*
X30868Y37594D01*
X30709Y37625D01*
X27666D01*
X27623Y37752D01*
X27716Y37824D01*
X27877Y38034D01*
X27978Y38278D01*
X28013Y38540D01*
X27978Y38802D01*
X27877Y39046D01*
X27716Y39256D01*
X27506Y39417D01*
X27262Y39518D01*
X27000Y39553D01*
D02*
G37*
G36*
X47000Y39473D02*
X46738Y39438D01*
X46494Y39337D01*
X46284Y39176D01*
X46123Y38966D01*
X46022Y38722D01*
X45987Y38460D01*
X46022Y38198D01*
X46123Y37954D01*
X46284Y37744D01*
X46494Y37583D01*
X46738Y37482D01*
X47000Y37447D01*
X47262Y37482D01*
X47506Y37583D01*
X47716Y37744D01*
X47877Y37954D01*
X47978Y38198D01*
X48013Y38460D01*
X47978Y38722D01*
X47877Y38966D01*
X47716Y39176D01*
X47506Y39337D01*
X47262Y39438D01*
X47000Y39473D01*
D02*
G37*
G36*
X32000D02*
X31738Y39438D01*
X31494Y39337D01*
X31284Y39176D01*
X31123Y38966D01*
X31022Y38722D01*
X30987Y38460D01*
X31022Y38198D01*
X31123Y37954D01*
X31284Y37744D01*
X31494Y37583D01*
X31738Y37482D01*
X32000Y37447D01*
X32262Y37482D01*
X32506Y37583D01*
X32716Y37744D01*
X32877Y37954D01*
X32978Y38198D01*
X33013Y38460D01*
X32978Y38722D01*
X32877Y38966D01*
X32716Y39176D01*
X32506Y39337D01*
X32262Y39438D01*
X32000Y39473D01*
D02*
G37*
G36*
X53836Y37913D02*
X52959D01*
Y37036D01*
X53836D01*
Y37913D01*
D02*
G37*
G36*
X52705D02*
X51828D01*
Y37036D01*
X52705D01*
Y37913D01*
D02*
G37*
G36*
X47000Y36933D02*
X46738Y36898D01*
X46494Y36797D01*
X46284Y36636D01*
X46123Y36426D01*
X46022Y36182D01*
X45987Y35920D01*
X46022Y35658D01*
X46123Y35414D01*
X46284Y35204D01*
X46494Y35043D01*
X46738Y34942D01*
X47000Y34907D01*
X47262Y34942D01*
X47506Y35043D01*
X47716Y35204D01*
X47877Y35414D01*
X47978Y35658D01*
X48013Y35920D01*
X47978Y36182D01*
X47877Y36426D01*
X47716Y36636D01*
X47506Y36797D01*
X47262Y36898D01*
X47000Y36933D01*
D02*
G37*
G36*
X7620Y35303D02*
X7358Y35268D01*
X7114Y35167D01*
X6904Y35006D01*
X6743Y34796D01*
X6642Y34552D01*
X6607Y34290D01*
X6642Y34028D01*
X6743Y33784D01*
X6904Y33574D01*
X7114Y33413D01*
X7358Y33312D01*
X7620Y33277D01*
X7882Y33312D01*
X8126Y33413D01*
X8336Y33574D01*
X8497Y33784D01*
X8598Y34028D01*
X8633Y34290D01*
X8598Y34552D01*
X8497Y34796D01*
X8336Y35006D01*
X8126Y35167D01*
X7882Y35268D01*
X7620Y35303D01*
D02*
G37*
G36*
X27000Y34473D02*
X26738Y34438D01*
X26494Y34337D01*
X26284Y34176D01*
X26123Y33966D01*
X26022Y33722D01*
X25987Y33460D01*
X26022Y33198D01*
X26123Y32954D01*
X26284Y32744D01*
X26494Y32583D01*
X26738Y32482D01*
X27000Y32447D01*
X27262Y32482D01*
X27506Y32583D01*
X27716Y32744D01*
X27877Y32954D01*
X27978Y33198D01*
X28013Y33460D01*
X27978Y33722D01*
X27877Y33966D01*
X27716Y34176D01*
X27506Y34337D01*
X27262Y34438D01*
X27000Y34473D01*
D02*
G37*
G36*
X12000D02*
X11738Y34438D01*
X11494Y34337D01*
X11284Y34176D01*
X11123Y33966D01*
X11022Y33722D01*
X10987Y33460D01*
X11022Y33198D01*
X11123Y32954D01*
X11284Y32744D01*
X11494Y32583D01*
X11738Y32482D01*
X12000Y32447D01*
X12262Y32482D01*
X12506Y32583D01*
X12716Y32744D01*
X12877Y32954D01*
X12978Y33198D01*
X13013Y33460D01*
X12978Y33722D01*
X12877Y33966D01*
X12716Y34176D01*
X12506Y34337D01*
X12262Y34438D01*
X12000Y34473D01*
D02*
G37*
G36*
X47000Y34393D02*
X46738Y34358D01*
X46494Y34257D01*
X46284Y34096D01*
X46123Y33886D01*
X46022Y33642D01*
X45987Y33380D01*
X46022Y33118D01*
X46123Y32874D01*
X46284Y32664D01*
X46494Y32503D01*
X46738Y32402D01*
X47000Y32367D01*
X47262Y32402D01*
X47506Y32503D01*
X47716Y32664D01*
X47877Y32874D01*
X47978Y33118D01*
X48013Y33380D01*
X47978Y33642D01*
X47877Y33886D01*
X47716Y34096D01*
X47506Y34257D01*
X47262Y34358D01*
X47000Y34393D01*
D02*
G37*
G36*
X7620Y32763D02*
X7358Y32728D01*
X7114Y32627D01*
X6904Y32466D01*
X6743Y32256D01*
X6642Y32012D01*
X6607Y31750D01*
X6642Y31488D01*
X6743Y31244D01*
X6904Y31034D01*
X7114Y30873D01*
X7358Y30772D01*
X7620Y30737D01*
X7882Y30772D01*
X8126Y30873D01*
X8336Y31034D01*
X8497Y31244D01*
X8598Y31488D01*
X8633Y31750D01*
X8598Y32012D01*
X8497Y32256D01*
X8336Y32466D01*
X8126Y32627D01*
X7882Y32728D01*
X7620Y32763D01*
D02*
G37*
G36*
X8624Y30214D02*
X7747D01*
Y29337D01*
X8624D01*
Y30214D01*
D02*
G37*
G36*
X7493D02*
X6616D01*
Y29337D01*
X7493D01*
Y30214D01*
D02*
G37*
G36*
X8624Y29083D02*
X7747D01*
Y28206D01*
X8624D01*
Y29083D01*
D02*
G37*
G36*
X7493D02*
X6616D01*
Y28206D01*
X7493D01*
Y29083D01*
D02*
G37*
G36*
X55880Y27263D02*
X55517Y27227D01*
X55167Y27121D01*
X54845Y26949D01*
X54563Y26717D01*
X54331Y26435D01*
X54159Y26113D01*
X54053Y25763D01*
X54017Y25400D01*
X54053Y25037D01*
X54159Y24687D01*
X54331Y24365D01*
X54563Y24083D01*
X54845Y23851D01*
X55167Y23679D01*
X55517Y23573D01*
X55880Y23537D01*
X56243Y23573D01*
X56593Y23679D01*
X56915Y23851D01*
X57197Y24083D01*
X57429Y24365D01*
X57601Y24687D01*
X57707Y25037D01*
X57743Y25400D01*
X57707Y25763D01*
X57601Y26113D01*
X57429Y26435D01*
X57197Y26717D01*
X56915Y26949D01*
X56593Y27121D01*
X56243Y27227D01*
X55880Y27263D01*
D02*
G37*
G36*
X7620Y18243D02*
X7358Y18208D01*
X7114Y18107D01*
X6904Y17946D01*
X6743Y17736D01*
X6642Y17492D01*
X6607Y17230D01*
X6642Y16968D01*
X6743Y16724D01*
X6904Y16514D01*
X7114Y16353D01*
X7358Y16252D01*
X7620Y16217D01*
X7882Y16252D01*
X8126Y16353D01*
X8336Y16514D01*
X8497Y16724D01*
X8598Y16968D01*
X8633Y17230D01*
X8598Y17492D01*
X8497Y17736D01*
X8336Y17946D01*
X8126Y18107D01*
X7882Y18208D01*
X7620Y18243D01*
D02*
G37*
G36*
Y15703D02*
X7358Y15668D01*
X7114Y15567D01*
X6904Y15406D01*
X6743Y15196D01*
X6642Y14952D01*
X6607Y14690D01*
X6642Y14428D01*
X6743Y14184D01*
X6904Y13974D01*
X7114Y13813D01*
X7358Y13712D01*
X7620Y13677D01*
X7882Y13712D01*
X8126Y13813D01*
X8336Y13974D01*
X8497Y14184D01*
X8598Y14428D01*
X8633Y14690D01*
X8598Y14952D01*
X8497Y15196D01*
X8336Y15406D01*
X8126Y15567D01*
X7882Y15668D01*
X7620Y15703D01*
D02*
G37*
G36*
X8624Y13154D02*
X7747D01*
Y12277D01*
X8624D01*
Y13154D01*
D02*
G37*
G36*
X7493D02*
X6616D01*
Y12277D01*
X7493D01*
Y13154D01*
D02*
G37*
G36*
X8624Y12023D02*
X7747D01*
Y11146D01*
X8624D01*
Y12023D01*
D02*
G37*
G36*
X7493D02*
X6616D01*
Y11146D01*
X7493D01*
Y12023D01*
D02*
G37*
G36*
X50994Y12454D02*
X48986D01*
Y10446D01*
X50994D01*
Y12454D01*
D02*
G37*
G36*
X47450Y12463D02*
X47188Y12428D01*
X46944Y12327D01*
X46734Y12166D01*
X46573Y11956D01*
X46472Y11712D01*
X46437Y11450D01*
X46472Y11188D01*
X46573Y10944D01*
X46734Y10734D01*
X46944Y10573D01*
X47188Y10472D01*
X47450Y10437D01*
X47712Y10472D01*
X47956Y10573D01*
X48166Y10734D01*
X48327Y10944D01*
X48428Y11188D01*
X48463Y11450D01*
X48428Y11712D01*
X48327Y11956D01*
X48166Y12166D01*
X47956Y12327D01*
X47712Y12428D01*
X47450Y12463D01*
D02*
G37*
G36*
X44910D02*
X44648Y12428D01*
X44404Y12327D01*
X44194Y12166D01*
X44033Y11956D01*
X43932Y11712D01*
X43897Y11450D01*
X43932Y11188D01*
X44033Y10944D01*
X44194Y10734D01*
X44404Y10573D01*
X44648Y10472D01*
X44910Y10437D01*
X45172Y10472D01*
X45416Y10573D01*
X45626Y10734D01*
X45787Y10944D01*
X45888Y11188D01*
X45923Y11450D01*
X45888Y11712D01*
X45787Y11956D01*
X45626Y12166D01*
X45416Y12327D01*
X45172Y12428D01*
X44910Y12463D01*
D02*
G37*
G36*
X42370D02*
X42108Y12428D01*
X41864Y12327D01*
X41654Y12166D01*
X41493Y11956D01*
X41392Y11712D01*
X41357Y11450D01*
X41392Y11188D01*
X41493Y10944D01*
X41654Y10734D01*
X41864Y10573D01*
X42108Y10472D01*
X42370Y10437D01*
X42632Y10472D01*
X42876Y10573D01*
X43086Y10734D01*
X43247Y10944D01*
X43348Y11188D01*
X43383Y11450D01*
X43348Y11712D01*
X43247Y11956D01*
X43086Y12166D01*
X42876Y12327D01*
X42632Y12428D01*
X42370Y12463D01*
D02*
G37*
G36*
X39830D02*
X39568Y12428D01*
X39324Y12327D01*
X39114Y12166D01*
X38953Y11956D01*
X38852Y11712D01*
X38817Y11450D01*
X38852Y11188D01*
X38953Y10944D01*
X39114Y10734D01*
X39324Y10573D01*
X39568Y10472D01*
X39830Y10437D01*
X40092Y10472D01*
X40336Y10573D01*
X40546Y10734D01*
X40707Y10944D01*
X40808Y11188D01*
X40843Y11450D01*
X40808Y11712D01*
X40707Y11956D01*
X40546Y12166D01*
X40336Y12327D01*
X40092Y12428D01*
X39830Y12463D01*
D02*
G37*
G36*
X37290D02*
X37028Y12428D01*
X36784Y12327D01*
X36574Y12166D01*
X36413Y11956D01*
X36312Y11712D01*
X36277Y11450D01*
X36312Y11188D01*
X36413Y10944D01*
X36574Y10734D01*
X36784Y10573D01*
X37028Y10472D01*
X37290Y10437D01*
X37552Y10472D01*
X37796Y10573D01*
X38006Y10734D01*
X38167Y10944D01*
X38268Y11188D01*
X38303Y11450D01*
X38268Y11712D01*
X38167Y11956D01*
X38006Y12166D01*
X37796Y12327D01*
X37552Y12428D01*
X37290Y12463D01*
D02*
G37*
G36*
X34750D02*
X34488Y12428D01*
X34244Y12327D01*
X34034Y12166D01*
X33873Y11956D01*
X33772Y11712D01*
X33737Y11450D01*
X33772Y11188D01*
X33873Y10944D01*
X34034Y10734D01*
X34244Y10573D01*
X34488Y10472D01*
X34750Y10437D01*
X35012Y10472D01*
X35256Y10573D01*
X35466Y10734D01*
X35627Y10944D01*
X35728Y11188D01*
X35763Y11450D01*
X35728Y11712D01*
X35627Y11956D01*
X35466Y12166D01*
X35256Y12327D01*
X35012Y12428D01*
X34750Y12463D01*
D02*
G37*
G36*
X32210D02*
X31948Y12428D01*
X31704Y12327D01*
X31494Y12166D01*
X31333Y11956D01*
X31232Y11712D01*
X31197Y11450D01*
X31232Y11188D01*
X31333Y10944D01*
X31494Y10734D01*
X31704Y10573D01*
X31948Y10472D01*
X32210Y10437D01*
X32472Y10472D01*
X32716Y10573D01*
X32926Y10734D01*
X33087Y10944D01*
X33188Y11188D01*
X33223Y11450D01*
X33188Y11712D01*
X33087Y11956D01*
X32926Y12166D01*
X32716Y12327D01*
X32472Y12428D01*
X32210Y12463D01*
D02*
G37*
G36*
X29670D02*
X29408Y12428D01*
X29164Y12327D01*
X28954Y12166D01*
X28793Y11956D01*
X28692Y11712D01*
X28657Y11450D01*
X28692Y11188D01*
X28793Y10944D01*
X28954Y10734D01*
X29164Y10573D01*
X29408Y10472D01*
X29670Y10437D01*
X29932Y10472D01*
X30176Y10573D01*
X30386Y10734D01*
X30547Y10944D01*
X30648Y11188D01*
X30683Y11450D01*
X30648Y11712D01*
X30547Y11956D01*
X30386Y12166D01*
X30176Y12327D01*
X29932Y12428D01*
X29670Y12463D01*
D02*
G37*
G36*
X27130D02*
X26868Y12428D01*
X26624Y12327D01*
X26414Y12166D01*
X26253Y11956D01*
X26152Y11712D01*
X26117Y11450D01*
X26152Y11188D01*
X26253Y10944D01*
X26414Y10734D01*
X26624Y10573D01*
X26868Y10472D01*
X27130Y10437D01*
X27392Y10472D01*
X27636Y10573D01*
X27846Y10734D01*
X28007Y10944D01*
X28108Y11188D01*
X28143Y11450D01*
X28108Y11712D01*
X28007Y11956D01*
X27846Y12166D01*
X27636Y12327D01*
X27392Y12428D01*
X27130Y12463D01*
D02*
G37*
G36*
X24590D02*
X24328Y12428D01*
X24084Y12327D01*
X23874Y12166D01*
X23713Y11956D01*
X23612Y11712D01*
X23577Y11450D01*
X23612Y11188D01*
X23713Y10944D01*
X23874Y10734D01*
X24084Y10573D01*
X24328Y10472D01*
X24590Y10437D01*
X24852Y10472D01*
X25096Y10573D01*
X25306Y10734D01*
X25467Y10944D01*
X25568Y11188D01*
X25603Y11450D01*
X25568Y11712D01*
X25467Y11956D01*
X25306Y12166D01*
X25096Y12327D01*
X24852Y12428D01*
X24590Y12463D01*
D02*
G37*
G36*
X22050D02*
X21788Y12428D01*
X21544Y12327D01*
X21334Y12166D01*
X21173Y11956D01*
X21072Y11712D01*
X21037Y11450D01*
X21072Y11188D01*
X21173Y10944D01*
X21334Y10734D01*
X21544Y10573D01*
X21788Y10472D01*
X22050Y10437D01*
X22312Y10472D01*
X22556Y10573D01*
X22766Y10734D01*
X22927Y10944D01*
X23028Y11188D01*
X23063Y11450D01*
X23028Y11712D01*
X22927Y11956D01*
X22766Y12166D01*
X22556Y12327D01*
X22312Y12428D01*
X22050Y12463D01*
D02*
G37*
G36*
X19510D02*
X19248Y12428D01*
X19004Y12327D01*
X18794Y12166D01*
X18633Y11956D01*
X18532Y11712D01*
X18497Y11450D01*
X18532Y11188D01*
X18633Y10944D01*
X18794Y10734D01*
X19004Y10573D01*
X19248Y10472D01*
X19510Y10437D01*
X19772Y10472D01*
X20016Y10573D01*
X20226Y10734D01*
X20387Y10944D01*
X20488Y11188D01*
X20523Y11450D01*
X20488Y11712D01*
X20387Y11956D01*
X20226Y12166D01*
X20016Y12327D01*
X19772Y12428D01*
X19510Y12463D01*
D02*
G37*
G36*
X16970D02*
X16708Y12428D01*
X16464Y12327D01*
X16254Y12166D01*
X16093Y11956D01*
X15992Y11712D01*
X15957Y11450D01*
X15992Y11188D01*
X16093Y10944D01*
X16254Y10734D01*
X16464Y10573D01*
X16708Y10472D01*
X16970Y10437D01*
X17232Y10472D01*
X17476Y10573D01*
X17686Y10734D01*
X17847Y10944D01*
X17948Y11188D01*
X17983Y11450D01*
X17948Y11712D01*
X17847Y11956D01*
X17686Y12166D01*
X17476Y12327D01*
X17232Y12428D01*
X16970Y12463D01*
D02*
G37*
G36*
X14430D02*
X14168Y12428D01*
X13924Y12327D01*
X13714Y12166D01*
X13553Y11956D01*
X13452Y11712D01*
X13417Y11450D01*
X13452Y11188D01*
X13553Y10944D01*
X13714Y10734D01*
X13924Y10573D01*
X14168Y10472D01*
X14430Y10437D01*
X14692Y10472D01*
X14936Y10573D01*
X15146Y10734D01*
X15307Y10944D01*
X15408Y11188D01*
X15443Y11450D01*
X15408Y11712D01*
X15307Y11956D01*
X15146Y12166D01*
X14936Y12327D01*
X14692Y12428D01*
X14430Y12463D01*
D02*
G37*
G36*
X11890D02*
X11628Y12428D01*
X11384Y12327D01*
X11174Y12166D01*
X11013Y11956D01*
X10912Y11712D01*
X10877Y11450D01*
X10912Y11188D01*
X11013Y10944D01*
X11174Y10734D01*
X11384Y10573D01*
X11628Y10472D01*
X11890Y10437D01*
X12152Y10472D01*
X12396Y10573D01*
X12606Y10734D01*
X12767Y10944D01*
X12868Y11188D01*
X12903Y11450D01*
X12868Y11712D01*
X12767Y11956D01*
X12606Y12166D01*
X12396Y12327D01*
X12152Y12428D01*
X11890Y12463D01*
D02*
G37*
G36*
X51004Y8254D02*
X48996D01*
Y6246D01*
X51004D01*
Y8254D01*
D02*
G37*
G36*
X47460Y8263D02*
X47198Y8228D01*
X46954Y8127D01*
X46744Y7966D01*
X46583Y7756D01*
X46482Y7512D01*
X46447Y7250D01*
X46482Y6988D01*
X46583Y6744D01*
X46744Y6534D01*
X46954Y6373D01*
X47198Y6272D01*
X47460Y6237D01*
X47722Y6272D01*
X47966Y6373D01*
X48176Y6534D01*
X48337Y6744D01*
X48438Y6988D01*
X48473Y7250D01*
X48438Y7512D01*
X48337Y7756D01*
X48176Y7966D01*
X47966Y8127D01*
X47722Y8228D01*
X47460Y8263D01*
D02*
G37*
G36*
X44920D02*
X44658Y8228D01*
X44414Y8127D01*
X44204Y7966D01*
X44043Y7756D01*
X43942Y7512D01*
X43907Y7250D01*
X43942Y6988D01*
X44043Y6744D01*
X44204Y6534D01*
X44414Y6373D01*
X44658Y6272D01*
X44920Y6237D01*
X45182Y6272D01*
X45426Y6373D01*
X45636Y6534D01*
X45797Y6744D01*
X45898Y6988D01*
X45933Y7250D01*
X45898Y7512D01*
X45797Y7756D01*
X45636Y7966D01*
X45426Y8127D01*
X45182Y8228D01*
X44920Y8263D01*
D02*
G37*
G36*
X42380D02*
X42118Y8228D01*
X41874Y8127D01*
X41664Y7966D01*
X41503Y7756D01*
X41402Y7512D01*
X41367Y7250D01*
X41402Y6988D01*
X41503Y6744D01*
X41664Y6534D01*
X41874Y6373D01*
X42118Y6272D01*
X42380Y6237D01*
X42642Y6272D01*
X42886Y6373D01*
X43096Y6534D01*
X43257Y6744D01*
X43358Y6988D01*
X43393Y7250D01*
X43358Y7512D01*
X43257Y7756D01*
X43096Y7966D01*
X42886Y8127D01*
X42642Y8228D01*
X42380Y8263D01*
D02*
G37*
G36*
X39840D02*
X39578Y8228D01*
X39334Y8127D01*
X39124Y7966D01*
X38963Y7756D01*
X38862Y7512D01*
X38827Y7250D01*
X38862Y6988D01*
X38963Y6744D01*
X39124Y6534D01*
X39334Y6373D01*
X39578Y6272D01*
X39840Y6237D01*
X40102Y6272D01*
X40346Y6373D01*
X40556Y6534D01*
X40717Y6744D01*
X40818Y6988D01*
X40853Y7250D01*
X40818Y7512D01*
X40717Y7756D01*
X40556Y7966D01*
X40346Y8127D01*
X40102Y8228D01*
X39840Y8263D01*
D02*
G37*
G36*
X37300D02*
X37038Y8228D01*
X36794Y8127D01*
X36584Y7966D01*
X36423Y7756D01*
X36322Y7512D01*
X36287Y7250D01*
X36322Y6988D01*
X36423Y6744D01*
X36584Y6534D01*
X36794Y6373D01*
X37038Y6272D01*
X37300Y6237D01*
X37562Y6272D01*
X37806Y6373D01*
X38016Y6534D01*
X38177Y6744D01*
X38278Y6988D01*
X38313Y7250D01*
X38278Y7512D01*
X38177Y7756D01*
X38016Y7966D01*
X37806Y8127D01*
X37562Y8228D01*
X37300Y8263D01*
D02*
G37*
G36*
X34760D02*
X34498Y8228D01*
X34254Y8127D01*
X34044Y7966D01*
X33883Y7756D01*
X33782Y7512D01*
X33747Y7250D01*
X33782Y6988D01*
X33883Y6744D01*
X34044Y6534D01*
X34254Y6373D01*
X34498Y6272D01*
X34760Y6237D01*
X35022Y6272D01*
X35266Y6373D01*
X35476Y6534D01*
X35637Y6744D01*
X35738Y6988D01*
X35773Y7250D01*
X35738Y7512D01*
X35637Y7756D01*
X35476Y7966D01*
X35266Y8127D01*
X35022Y8228D01*
X34760Y8263D01*
D02*
G37*
G36*
X32220D02*
X31958Y8228D01*
X31714Y8127D01*
X31504Y7966D01*
X31343Y7756D01*
X31242Y7512D01*
X31207Y7250D01*
X31242Y6988D01*
X31343Y6744D01*
X31504Y6534D01*
X31714Y6373D01*
X31958Y6272D01*
X32220Y6237D01*
X32482Y6272D01*
X32726Y6373D01*
X32936Y6534D01*
X33097Y6744D01*
X33198Y6988D01*
X33233Y7250D01*
X33198Y7512D01*
X33097Y7756D01*
X32936Y7966D01*
X32726Y8127D01*
X32482Y8228D01*
X32220Y8263D01*
D02*
G37*
G36*
X29680D02*
X29418Y8228D01*
X29174Y8127D01*
X28964Y7966D01*
X28803Y7756D01*
X28702Y7512D01*
X28667Y7250D01*
X28702Y6988D01*
X28803Y6744D01*
X28964Y6534D01*
X29174Y6373D01*
X29418Y6272D01*
X29680Y6237D01*
X29942Y6272D01*
X30186Y6373D01*
X30396Y6534D01*
X30557Y6744D01*
X30658Y6988D01*
X30693Y7250D01*
X30658Y7512D01*
X30557Y7756D01*
X30396Y7966D01*
X30186Y8127D01*
X29942Y8228D01*
X29680Y8263D01*
D02*
G37*
G36*
X27140D02*
X26878Y8228D01*
X26634Y8127D01*
X26424Y7966D01*
X26263Y7756D01*
X26162Y7512D01*
X26127Y7250D01*
X26162Y6988D01*
X26263Y6744D01*
X26424Y6534D01*
X26634Y6373D01*
X26878Y6272D01*
X27140Y6237D01*
X27402Y6272D01*
X27646Y6373D01*
X27856Y6534D01*
X28017Y6744D01*
X28118Y6988D01*
X28153Y7250D01*
X28118Y7512D01*
X28017Y7756D01*
X27856Y7966D01*
X27646Y8127D01*
X27402Y8228D01*
X27140Y8263D01*
D02*
G37*
G36*
X24600D02*
X24338Y8228D01*
X24094Y8127D01*
X23884Y7966D01*
X23723Y7756D01*
X23622Y7512D01*
X23587Y7250D01*
X23622Y6988D01*
X23723Y6744D01*
X23884Y6534D01*
X24094Y6373D01*
X24338Y6272D01*
X24600Y6237D01*
X24862Y6272D01*
X25106Y6373D01*
X25316Y6534D01*
X25477Y6744D01*
X25578Y6988D01*
X25613Y7250D01*
X25578Y7512D01*
X25477Y7756D01*
X25316Y7966D01*
X25106Y8127D01*
X24862Y8228D01*
X24600Y8263D01*
D02*
G37*
G36*
X22060D02*
X21798Y8228D01*
X21554Y8127D01*
X21344Y7966D01*
X21183Y7756D01*
X21082Y7512D01*
X21047Y7250D01*
X21082Y6988D01*
X21183Y6744D01*
X21344Y6534D01*
X21554Y6373D01*
X21798Y6272D01*
X22060Y6237D01*
X22322Y6272D01*
X22566Y6373D01*
X22776Y6534D01*
X22937Y6744D01*
X23038Y6988D01*
X23073Y7250D01*
X23038Y7512D01*
X22937Y7756D01*
X22776Y7966D01*
X22566Y8127D01*
X22322Y8228D01*
X22060Y8263D01*
D02*
G37*
G36*
X19520D02*
X19258Y8228D01*
X19014Y8127D01*
X18804Y7966D01*
X18643Y7756D01*
X18542Y7512D01*
X18507Y7250D01*
X18542Y6988D01*
X18643Y6744D01*
X18804Y6534D01*
X19014Y6373D01*
X19258Y6272D01*
X19520Y6237D01*
X19782Y6272D01*
X20026Y6373D01*
X20236Y6534D01*
X20397Y6744D01*
X20498Y6988D01*
X20533Y7250D01*
X20498Y7512D01*
X20397Y7756D01*
X20236Y7966D01*
X20026Y8127D01*
X19782Y8228D01*
X19520Y8263D01*
D02*
G37*
G36*
X16980D02*
X16718Y8228D01*
X16474Y8127D01*
X16264Y7966D01*
X16103Y7756D01*
X16002Y7512D01*
X15967Y7250D01*
X16002Y6988D01*
X16103Y6744D01*
X16264Y6534D01*
X16474Y6373D01*
X16718Y6272D01*
X16980Y6237D01*
X17242Y6272D01*
X17486Y6373D01*
X17696Y6534D01*
X17857Y6744D01*
X17958Y6988D01*
X17993Y7250D01*
X17958Y7512D01*
X17857Y7756D01*
X17696Y7966D01*
X17486Y8127D01*
X17242Y8228D01*
X16980Y8263D01*
D02*
G37*
G36*
X14440D02*
X14178Y8228D01*
X13934Y8127D01*
X13724Y7966D01*
X13563Y7756D01*
X13462Y7512D01*
X13427Y7250D01*
X13462Y6988D01*
X13563Y6744D01*
X13724Y6534D01*
X13934Y6373D01*
X14178Y6272D01*
X14440Y6237D01*
X14702Y6272D01*
X14946Y6373D01*
X15156Y6534D01*
X15317Y6744D01*
X15418Y6988D01*
X15453Y7250D01*
X15418Y7512D01*
X15317Y7756D01*
X15156Y7966D01*
X14946Y8127D01*
X14702Y8228D01*
X14440Y8263D01*
D02*
G37*
G36*
X11900D02*
X11638Y8228D01*
X11394Y8127D01*
X11184Y7966D01*
X11023Y7756D01*
X10922Y7512D01*
X10887Y7250D01*
X10922Y6988D01*
X11023Y6744D01*
X11184Y6534D01*
X11394Y6373D01*
X11638Y6272D01*
X11900Y6237D01*
X12162Y6272D01*
X12406Y6373D01*
X12616Y6534D01*
X12777Y6744D01*
X12878Y6988D01*
X12913Y7250D01*
X12878Y7512D01*
X12777Y7756D01*
X12616Y7966D01*
X12406Y8127D01*
X12162Y8228D01*
X11900Y8263D01*
D02*
G37*
G36*
X55880Y6943D02*
X55517Y6907D01*
X55167Y6801D01*
X54845Y6629D01*
X54563Y6397D01*
X54331Y6115D01*
X54159Y5793D01*
X54053Y5443D01*
X54017Y5080D01*
X54053Y4717D01*
X54159Y4367D01*
X54331Y4045D01*
X54563Y3763D01*
X54845Y3531D01*
X55167Y3359D01*
X55517Y3253D01*
X55880Y3217D01*
X56243Y3253D01*
X56593Y3359D01*
X56915Y3531D01*
X57197Y3763D01*
X57429Y4045D01*
X57601Y4367D01*
X57707Y4717D01*
X57743Y5080D01*
X57707Y5443D01*
X57601Y5793D01*
X57429Y6115D01*
X57197Y6397D01*
X56915Y6629D01*
X56593Y6801D01*
X56243Y6907D01*
X55880Y6943D01*
D02*
G37*
G36*
X5080D02*
X4717Y6907D01*
X4367Y6801D01*
X4045Y6629D01*
X3763Y6397D01*
X3531Y6115D01*
X3359Y5793D01*
X3253Y5443D01*
X3217Y5080D01*
X3253Y4717D01*
X3359Y4367D01*
X3531Y4045D01*
X3763Y3763D01*
X4045Y3531D01*
X4367Y3359D01*
X4717Y3253D01*
X5080Y3217D01*
X5443Y3253D01*
X5793Y3359D01*
X6115Y3531D01*
X6397Y3763D01*
X6629Y4045D01*
X6801Y4367D01*
X6907Y4717D01*
X6943Y5080D01*
X6907Y5443D01*
X6801Y5793D01*
X6629Y6115D01*
X6397Y6397D01*
X6115Y6629D01*
X5793Y6801D01*
X5443Y6907D01*
X5080Y6943D01*
D02*
G37*
%LPD*%
G36*
X46097Y29685D02*
X45907Y29606D01*
X45721Y29463D01*
X45578Y29277D01*
X45489Y29061D01*
X45458Y28829D01*
X45482Y28651D01*
X44881Y28051D01*
X40516D01*
X40473Y28178D01*
X40546Y28234D01*
X40707Y28444D01*
X40808Y28688D01*
X40826Y28823D01*
X39830D01*
Y29077D01*
X40826D01*
X40808Y29212D01*
X40707Y29456D01*
X40546Y29666D01*
X40513Y29691D01*
X40554Y29812D01*
X46072D01*
X46097Y29685D01*
D02*
G37*
D10*
X29608Y30988D02*
X32000Y33380D01*
X18838Y30988D02*
X29608D01*
X7620Y19770D02*
X18838Y30988D01*
X24590Y28950D02*
X30426Y23114D01*
X49784D01*
X47000Y41000D02*
X56536D01*
X57785Y39751D01*
Y31115D02*
Y39751D01*
X49784Y23114D02*
X57785Y31115D01*
X49098Y28652D02*
X49149Y28702D01*
X49098Y27382D02*
Y28652D01*
X47625Y25908D02*
X49098Y27382D01*
X29670Y28950D02*
X32712Y25908D01*
X47625D01*
X45085Y27559D02*
X46355Y28829D01*
X42926Y32131D02*
Y45974D01*
X51114Y31242D02*
X52832Y32960D01*
X42926Y32131D02*
X43815Y31242D01*
X51114D01*
X33601Y27559D02*
X45085D01*
X32210Y28950D02*
X33601Y27559D01*
X42926Y45974D02*
X45564Y48612D01*
X46993D01*
X47000Y48620D01*
Y43540D02*
X49530Y46070D01*
Y49198D01*
X52832Y52500D02*
Y54356D01*
X49530Y49198D02*
X52832Y52500D01*
X5588Y37338D02*
X7620Y39370D01*
X5588Y24342D02*
Y37338D01*
Y24342D02*
X7620Y22310D01*
X6062Y54830D02*
X7620D01*
X5334Y54102D02*
X6062Y54830D01*
X5334Y41656D02*
Y54102D01*
Y41656D02*
X7620Y39370D01*
D11*
X24696Y45143D02*
Y46032D01*
X28956Y47371D02*
X29591Y48006D01*
X26035Y47371D02*
X28956D01*
X24511Y44958D02*
X24696Y45143D01*
Y46032D02*
X26035Y47371D01*
X29591Y48006D02*
Y48751D01*
X45064Y51160D02*
X47000D01*
X40767Y46863D02*
X45064Y51160D01*
X35687Y30226D02*
X40767Y35306D01*
Y46863D01*
X23326Y30226D02*
X35687D01*
X22050Y28950D02*
X23326Y30226D01*
X31696Y24384D02*
X48895D01*
X27130Y28950D02*
X31696Y24384D01*
X38566Y30226D02*
X53213D01*
X56007Y33020D02*
Y33782D01*
X53213Y30226D02*
X56007Y33020D01*
X54229Y35560D02*
X56007Y33782D01*
X51562Y27051D02*
Y28702D01*
X48895Y24384D02*
X51562Y27051D01*
X37290Y28950D02*
X38566Y30226D01*
X52832Y35500D02*
X52892Y35560D01*
X54229D01*
X45751Y52451D02*
X47000Y53700D01*
X30201Y52451D02*
X45751D01*
X27000Y53780D02*
X28872D01*
X30201Y52451D01*
X29591Y48751D02*
X32000Y51160D01*
X30709Y37211D02*
X32000Y35920D01*
X10541Y37211D02*
X30709D01*
X7620Y36830D02*
X10160D01*
X10541Y37211D01*
X26941Y53721D02*
X27000Y53780D01*
X25654Y53721D02*
X26941D01*
X10160Y54991D02*
X24384D01*
X25654Y53721D01*
X9999Y54830D02*
X10160Y54991D01*
X7620Y54830D02*
X9999D01*
D12*
X19510Y11450D02*
D03*
X24590D02*
D03*
X16970D02*
D03*
X11890D02*
D03*
X22050D02*
D03*
X32210D02*
D03*
X44910D02*
D03*
X47450D02*
D03*
X37290D02*
D03*
X39830D02*
D03*
X29670D02*
D03*
X42370D02*
D03*
X34750D02*
D03*
X27130D02*
D03*
X39830Y28950D02*
D03*
X27130D02*
D03*
X37290D02*
D03*
X24590D02*
D03*
X29670D02*
D03*
X32210D02*
D03*
X34750D02*
D03*
X22050D02*
D03*
X14430Y11450D02*
D03*
X32000Y56240D02*
D03*
Y48620D02*
D03*
Y41000D02*
D03*
Y58780D02*
D03*
Y53700D02*
D03*
Y33380D02*
D03*
Y43540D02*
D03*
Y46080D02*
D03*
Y35920D02*
D03*
Y38460D02*
D03*
Y51160D02*
D03*
X47000Y48620D02*
D03*
Y51160D02*
D03*
Y53700D02*
D03*
Y58780D02*
D03*
Y61320D02*
D03*
Y46080D02*
D03*
Y56240D02*
D03*
Y43540D02*
D03*
Y41000D02*
D03*
Y33380D02*
D03*
Y38460D02*
D03*
Y35920D02*
D03*
X27000Y36000D02*
D03*
Y38540D02*
D03*
Y33460D02*
D03*
Y41080D02*
D03*
Y43620D02*
D03*
Y56320D02*
D03*
Y46160D02*
D03*
Y61400D02*
D03*
Y58860D02*
D03*
Y53780D02*
D03*
Y51240D02*
D03*
Y48700D02*
D03*
X12000Y51240D02*
D03*
Y38540D02*
D03*
Y36000D02*
D03*
Y46160D02*
D03*
Y43620D02*
D03*
Y33460D02*
D03*
Y53780D02*
D03*
Y58860D02*
D03*
Y41080D02*
D03*
Y48700D02*
D03*
Y56320D02*
D03*
X39840Y7250D02*
D03*
X42380D02*
D03*
X47460D02*
D03*
X44920D02*
D03*
X32220D02*
D03*
X34760D02*
D03*
X37300D02*
D03*
X24600D02*
D03*
X27140D02*
D03*
X29680D02*
D03*
X16980D02*
D03*
X19520D02*
D03*
X22060D02*
D03*
X11900D02*
D03*
X14440D02*
D03*
X7620Y22310D02*
D03*
Y19770D02*
D03*
Y14690D02*
D03*
Y17230D02*
D03*
Y54830D02*
D03*
Y52290D02*
D03*
Y47210D02*
D03*
Y49750D02*
D03*
X52832Y32960D02*
D03*
Y35500D02*
D03*
Y43688D02*
D03*
Y46228D02*
D03*
X7620Y39370D02*
D03*
Y36830D02*
D03*
Y31750D02*
D03*
Y34290D02*
D03*
X52832Y54356D02*
D03*
Y56896D02*
D03*
D13*
X49990Y11450D02*
D03*
X50000Y7250D02*
D03*
D14*
X32000Y61320D02*
D03*
X12000Y61400D02*
D03*
X7620Y12150D02*
D03*
Y44670D02*
D03*
X52832Y38040D02*
D03*
Y48768D02*
D03*
X7620Y29210D02*
D03*
X52832Y59436D02*
D03*
D15*
X5080Y5080D02*
D03*
Y60960D02*
D03*
X55880Y5080D02*
D03*
Y25400D02*
D03*
D16*
X51562Y28702D02*
D03*
X49149D02*
D03*
X46355Y28829D02*
D03*
X24511Y44958D02*
D03*
D17*
X11932Y51308D02*
X12000Y51240D01*
%TF.MD5,69f945f106f26bacf81433fe0d5a38d7*%
M02*
