%TF.GenerationSoftware,Altium Limited,Altium Designer,20.1.8 (145)*%
G04 Layer_Color=32896*
%FSLAX43Y43*%
%MOMM*%
%TF.SameCoordinates,73C82DD5-E753-4C0D-BC74-0A693CAB8B4A*%
%TF.FilePolarity,Positive*%
%TF.FileFunction,Legend,Bot*%
%TF.Part,Single*%
G01*
G75*
%TA.AperFunction,NonConductor*%
%ADD18C,0.152*%
G36*
X22544Y19336D02*
X22635D01*
Y19327D01*
X22693D01*
Y19319D01*
X22742D01*
Y19311D01*
X22784D01*
Y19302D01*
X22825D01*
Y19294D01*
X22858D01*
Y19286D01*
X22891D01*
Y19278D01*
X22916D01*
Y19269D01*
X22949D01*
Y19261D01*
X22974D01*
Y19253D01*
X22999D01*
Y19244D01*
X23024D01*
Y19236D01*
X23040D01*
Y19228D01*
X23065D01*
Y19220D01*
X23081D01*
Y19211D01*
X23098D01*
Y19203D01*
X23123D01*
Y19195D01*
X23139D01*
Y19187D01*
X23156D01*
Y19178D01*
X23173D01*
Y19170D01*
X23189D01*
Y19162D01*
X23206D01*
Y19153D01*
X23222D01*
Y19145D01*
X23239D01*
Y19137D01*
X23247D01*
Y19129D01*
X23264D01*
Y19120D01*
X23280D01*
Y19112D01*
X23288D01*
Y19104D01*
X23305D01*
Y19096D01*
X23313D01*
Y19087D01*
X23330D01*
Y19079D01*
X23338D01*
Y19071D01*
X23355D01*
Y19062D01*
X23363D01*
Y19054D01*
X23371D01*
Y19046D01*
X23379D01*
Y19038D01*
X23396D01*
Y19029D01*
X23404D01*
Y19021D01*
X23412D01*
Y19013D01*
X23421D01*
Y19005D01*
X23429D01*
Y18996D01*
X23446D01*
Y18988D01*
X23454D01*
Y18980D01*
X23462D01*
Y18971D01*
X23470D01*
Y18963D01*
X23479D01*
Y18955D01*
X23487D01*
Y18947D01*
X23495D01*
Y18938D01*
X23503D01*
Y18930D01*
X23512D01*
Y18922D01*
Y18914D01*
X23520D01*
Y18905D01*
X23528D01*
Y18897D01*
X23537D01*
Y18889D01*
X23545D01*
Y18880D01*
Y18872D01*
X23553D01*
Y18864D01*
X23561D01*
Y18856D01*
X23570D01*
Y18847D01*
Y18839D01*
X23578D01*
Y18831D01*
X23586D01*
Y18822D01*
Y18814D01*
X23594D01*
Y18806D01*
X23603D01*
Y18798D01*
Y18789D01*
X23611D01*
Y18781D01*
Y18773D01*
X23619D01*
Y18765D01*
Y18756D01*
X23628D01*
Y18748D01*
Y18740D01*
X23636D01*
Y18731D01*
Y18723D01*
X23644D01*
Y18715D01*
Y18707D01*
X23652D01*
Y18698D01*
Y18690D01*
Y18682D01*
X23661D01*
Y18674D01*
Y18665D01*
Y18657D01*
X23669D01*
Y18649D01*
Y18640D01*
Y18632D01*
X23677D01*
Y18624D01*
Y18616D01*
Y18607D01*
Y18599D01*
X23686D01*
Y18591D01*
Y18583D01*
Y18574D01*
Y18566D01*
Y18558D01*
Y18549D01*
X23694D01*
Y18541D01*
Y18533D01*
Y18525D01*
Y18516D01*
Y18508D01*
Y18500D01*
Y18492D01*
Y18483D01*
Y18475D01*
Y18467D01*
Y18458D01*
Y18450D01*
Y18442D01*
Y18434D01*
Y18425D01*
Y18417D01*
Y18409D01*
Y18400D01*
Y18392D01*
X23686D01*
Y18384D01*
Y18376D01*
Y18367D01*
Y18359D01*
Y18351D01*
Y18343D01*
X23677D01*
Y18334D01*
Y18326D01*
Y18318D01*
X23669D01*
Y18309D01*
Y18301D01*
Y18293D01*
Y18285D01*
X23661D01*
Y18276D01*
Y18268D01*
Y18260D01*
X23652D01*
Y18252D01*
Y18243D01*
X23644D01*
Y18235D01*
Y18227D01*
Y18218D01*
X23636D01*
Y18210D01*
Y18202D01*
X23628D01*
Y18194D01*
Y18185D01*
X23619D01*
Y18177D01*
Y18169D01*
X23611D01*
Y18161D01*
X23603D01*
Y18152D01*
Y18144D01*
X23594D01*
Y18136D01*
Y18127D01*
X23586D01*
Y18119D01*
X23578D01*
Y18111D01*
Y18103D01*
X23570D01*
Y18094D01*
X23561D01*
Y18086D01*
Y18078D01*
X23553D01*
Y18069D01*
X23545D01*
Y18061D01*
X23537D01*
Y18053D01*
X23528D01*
Y18045D01*
Y18036D01*
X23520D01*
Y18028D01*
X23512D01*
Y18020D01*
X23503D01*
Y18012D01*
X23495D01*
Y18003D01*
X23487D01*
Y17995D01*
X23479D01*
Y17987D01*
X23470D01*
Y17978D01*
X23462D01*
Y17970D01*
X23454D01*
Y17962D01*
X23446D01*
Y17954D01*
X23437D01*
Y17945D01*
X23429D01*
Y17937D01*
X23421D01*
Y17929D01*
X23404D01*
Y17921D01*
X23396D01*
Y17912D01*
X23388D01*
Y17904D01*
X23379D01*
Y17896D01*
X23363D01*
Y17887D01*
X23355D01*
Y17879D01*
X23346D01*
Y17871D01*
X23330D01*
Y17863D01*
X23321D01*
Y17854D01*
X23305D01*
Y17846D01*
X23297D01*
Y17838D01*
X23280D01*
Y17830D01*
X23272D01*
Y17821D01*
X23255D01*
Y17813D01*
X23239D01*
Y17805D01*
X23222D01*
Y17796D01*
X23214D01*
Y17788D01*
X23197D01*
Y17780D01*
X23181D01*
Y17772D01*
X23164D01*
Y17763D01*
X23148D01*
Y17755D01*
X23131D01*
Y17747D01*
X23106D01*
Y17739D01*
X23090D01*
Y17730D01*
X23073D01*
Y17722D01*
X23048D01*
Y17714D01*
X23032D01*
Y17705D01*
X23007D01*
Y17697D01*
X22982D01*
Y17689D01*
X22990D01*
Y17681D01*
Y17672D01*
X22999D01*
Y17664D01*
Y17656D01*
X23007D01*
Y17647D01*
Y17639D01*
X23015D01*
Y17631D01*
Y17623D01*
Y17614D01*
X23024D01*
Y17606D01*
Y17598D01*
X23032D01*
Y17590D01*
Y17581D01*
X23040D01*
Y17573D01*
Y17565D01*
X23048D01*
Y17556D01*
Y17548D01*
Y17540D01*
X23057D01*
Y17532D01*
Y17523D01*
X23065D01*
Y17515D01*
Y17507D01*
X23073D01*
Y17499D01*
Y17490D01*
X23081D01*
Y17482D01*
Y17474D01*
Y17465D01*
X23090D01*
Y17457D01*
Y17449D01*
X23098D01*
Y17441D01*
Y17432D01*
X23106D01*
Y17424D01*
Y17416D01*
X23123D01*
Y17408D01*
X23131D01*
Y17399D01*
X23156D01*
Y17408D01*
X23164D01*
Y17399D01*
Y17391D01*
Y17383D01*
X23173D01*
Y17374D01*
X23181D01*
Y17366D01*
X23189D01*
Y17358D01*
X23197D01*
Y17350D01*
X23206D01*
Y17341D01*
X23214D01*
Y17333D01*
X23222D01*
Y17325D01*
X23230D01*
Y17317D01*
X23239D01*
Y17308D01*
X23247D01*
Y17300D01*
X23255D01*
Y17292D01*
X23264D01*
Y17283D01*
X23272D01*
Y17275D01*
X23280D01*
Y17267D01*
X23288D01*
Y17259D01*
X23297D01*
Y17250D01*
X23305D01*
Y17242D01*
Y17234D01*
X23313D01*
Y17226D01*
X23321D01*
Y17217D01*
X23330D01*
Y17209D01*
X23338D01*
Y17201D01*
Y17192D01*
X23346D01*
Y17184D01*
X23355D01*
Y17176D01*
X23363D01*
Y17168D01*
Y17159D01*
X23371D01*
Y17151D01*
X23379D01*
Y17143D01*
X23388D01*
Y17134D01*
Y17126D01*
X23396D01*
Y17118D01*
X23404D01*
Y17110D01*
Y17101D01*
X23412D01*
Y17093D01*
Y17085D01*
X23421D01*
Y17077D01*
X23429D01*
Y17068D01*
Y17060D01*
X23437D01*
Y17052D01*
X23446D01*
Y17043D01*
Y17035D01*
X23454D01*
Y17027D01*
Y17019D01*
X23462D01*
Y17010D01*
Y17002D01*
X23470D01*
Y16994D01*
X23479D01*
Y16986D01*
Y16977D01*
X23487D01*
Y16969D01*
Y16961D01*
X23495D01*
Y16952D01*
Y16944D01*
X23503D01*
Y16936D01*
Y16928D01*
X23512D01*
Y16919D01*
Y16911D01*
X23520D01*
Y16903D01*
Y16895D01*
X23528D01*
Y16886D01*
Y16878D01*
X23537D01*
Y16870D01*
Y16861D01*
Y16853D01*
X23545D01*
Y16845D01*
Y16837D01*
X23553D01*
Y16828D01*
Y16820D01*
X23561D01*
Y16812D01*
Y16803D01*
Y16795D01*
X23570D01*
Y16787D01*
Y16779D01*
X23578D01*
Y16770D01*
Y16762D01*
Y16754D01*
X23586D01*
Y16746D01*
Y16737D01*
Y16729D01*
X23594D01*
Y16721D01*
Y16712D01*
Y16704D01*
X23603D01*
Y16696D01*
Y16688D01*
Y16679D01*
X23611D01*
Y16671D01*
Y16663D01*
Y16655D01*
X23619D01*
Y16646D01*
Y16638D01*
Y16630D01*
X23628D01*
Y16621D01*
Y16613D01*
Y16605D01*
Y16597D01*
X23636D01*
Y16588D01*
Y16580D01*
Y16572D01*
Y16564D01*
X23644D01*
Y16555D01*
Y16547D01*
Y16539D01*
Y16530D01*
X23652D01*
Y16522D01*
Y16514D01*
Y16506D01*
Y16497D01*
Y16489D01*
X23661D01*
Y16481D01*
Y16473D01*
Y16464D01*
Y16456D01*
Y16448D01*
Y16439D01*
X23669D01*
Y16431D01*
Y16423D01*
Y16415D01*
Y16406D01*
Y16398D01*
Y16390D01*
Y16381D01*
Y16373D01*
Y16365D01*
Y16357D01*
X23677D01*
Y16348D01*
Y16340D01*
Y16332D01*
Y16324D01*
Y16315D01*
Y16307D01*
Y16299D01*
Y16290D01*
Y16282D01*
Y16274D01*
Y16266D01*
Y16257D01*
Y16249D01*
X23669D01*
Y16241D01*
Y16233D01*
Y16224D01*
Y16216D01*
Y16208D01*
Y16199D01*
Y16191D01*
Y16183D01*
X23661D01*
Y16175D01*
Y16166D01*
Y16158D01*
Y16150D01*
Y16142D01*
X23652D01*
Y16133D01*
Y16125D01*
Y16117D01*
X23644D01*
Y16108D01*
Y16100D01*
Y16092D01*
X23636D01*
Y16084D01*
Y16075D01*
X23628D01*
Y16067D01*
Y16059D01*
X23619D01*
Y16051D01*
X23611D01*
Y16042D01*
Y16034D01*
X23603D01*
Y16026D01*
X23594D01*
Y16017D01*
X23586D01*
Y16009D01*
X23578D01*
Y16001D01*
X23561D01*
Y15993D01*
X23553D01*
Y15984D01*
X23537D01*
Y15976D01*
X23520D01*
Y15968D01*
X23479D01*
Y15959D01*
X23446D01*
Y15968D01*
X23396D01*
Y15976D01*
X23371D01*
Y15984D01*
X23355D01*
Y15993D01*
X23338D01*
Y16001D01*
X23321D01*
Y16009D01*
X23305D01*
Y16017D01*
X23297D01*
Y16026D01*
X23280D01*
Y16034D01*
X23272D01*
Y16042D01*
X23255D01*
Y16051D01*
X23247D01*
Y16059D01*
X23239D01*
Y16067D01*
X23222D01*
Y16075D01*
X23214D01*
Y16084D01*
X23206D01*
Y16092D01*
X23197D01*
Y16100D01*
X23189D01*
Y16108D01*
X23181D01*
Y16117D01*
X23173D01*
Y16125D01*
X23164D01*
Y16133D01*
X23156D01*
Y16142D01*
X23148D01*
Y16150D01*
X23139D01*
Y16158D01*
X23131D01*
Y16166D01*
X23123D01*
Y16175D01*
X23115D01*
Y16183D01*
X23106D01*
Y16191D01*
Y16199D01*
X23098D01*
Y16208D01*
X23090D01*
Y16216D01*
X23081D01*
Y16224D01*
X23073D01*
Y16233D01*
X23065D01*
Y16241D01*
Y16249D01*
X23057D01*
Y16257D01*
X23048D01*
Y16266D01*
Y16274D01*
X23040D01*
Y16282D01*
X23032D01*
Y16290D01*
X23024D01*
Y16299D01*
Y16307D01*
X23015D01*
Y16315D01*
X23007D01*
Y16324D01*
Y16332D01*
X22999D01*
Y16340D01*
X22990D01*
Y16348D01*
Y16357D01*
X22982D01*
Y16365D01*
Y16373D01*
X22974D01*
Y16381D01*
X22966D01*
Y16390D01*
Y16398D01*
X22957D01*
Y16406D01*
Y16415D01*
X22949D01*
Y16423D01*
X22941D01*
Y16431D01*
Y16439D01*
X22933D01*
Y16448D01*
Y16456D01*
X22924D01*
Y16464D01*
Y16473D01*
X22916D01*
Y16481D01*
Y16489D01*
X22908D01*
Y16497D01*
Y16506D01*
X22899D01*
Y16514D01*
Y16522D01*
X22891D01*
Y16530D01*
Y16539D01*
X22883D01*
Y16547D01*
Y16555D01*
X22875D01*
Y16564D01*
Y16572D01*
X22866D01*
Y16580D01*
Y16588D01*
Y16597D01*
X22858D01*
Y16605D01*
Y16613D01*
X22850D01*
Y16621D01*
Y16630D01*
X22842D01*
Y16638D01*
Y16646D01*
Y16655D01*
X22833D01*
Y16663D01*
Y16671D01*
Y16679D01*
X22825D01*
Y16688D01*
Y16696D01*
X22817D01*
Y16704D01*
Y16712D01*
Y16721D01*
X22808D01*
Y16729D01*
Y16737D01*
Y16746D01*
X22800D01*
Y16754D01*
Y16762D01*
Y16770D01*
X22792D01*
Y16779D01*
Y16787D01*
Y16795D01*
X22784D01*
Y16803D01*
Y16812D01*
Y16820D01*
Y16828D01*
X22775D01*
Y16837D01*
Y16845D01*
Y16853D01*
Y16861D01*
X22767D01*
Y16870D01*
Y16878D01*
Y16886D01*
Y16895D01*
X22759D01*
Y16903D01*
Y16911D01*
Y16919D01*
Y16928D01*
Y16936D01*
X22750D01*
Y16944D01*
Y16952D01*
Y16961D01*
Y16969D01*
Y16977D01*
Y16986D01*
X22742D01*
Y16994D01*
Y17002D01*
Y17010D01*
Y17019D01*
Y17027D01*
Y17035D01*
Y17043D01*
Y17052D01*
X22734D01*
Y17060D01*
Y17068D01*
Y17077D01*
Y17085D01*
Y17093D01*
Y17101D01*
Y17110D01*
Y17118D01*
Y17126D01*
Y17134D01*
Y17143D01*
Y17151D01*
Y17159D01*
Y17168D01*
Y17176D01*
Y17184D01*
Y17192D01*
Y17201D01*
Y17209D01*
X22742D01*
Y17217D01*
Y17226D01*
Y17234D01*
Y17242D01*
Y17250D01*
Y17259D01*
Y17267D01*
X22750D01*
Y17275D01*
Y17283D01*
Y17292D01*
Y17300D01*
X22742D01*
Y17308D01*
Y17317D01*
X22734D01*
Y17325D01*
Y17333D01*
X22726D01*
Y17341D01*
Y17350D01*
X22717D01*
Y17358D01*
Y17366D01*
Y17374D01*
X22709D01*
Y17383D01*
Y17391D01*
X22701D01*
Y17399D01*
Y17408D01*
X22693D01*
Y17416D01*
Y17424D01*
X22684D01*
Y17432D01*
Y17441D01*
Y17449D01*
X22676D01*
Y17457D01*
Y17465D01*
X22668D01*
Y17474D01*
Y17482D01*
X22659D01*
Y17490D01*
Y17499D01*
X22651D01*
Y17507D01*
Y17515D01*
X22643D01*
Y17523D01*
Y17532D01*
Y17540D01*
X22635D01*
Y17548D01*
Y17556D01*
X22626D01*
Y17565D01*
Y17573D01*
X22618D01*
Y17581D01*
Y17590D01*
X22610D01*
Y17598D01*
Y17606D01*
Y17614D01*
X22577D01*
Y17606D01*
X22254D01*
Y17614D01*
X22196D01*
Y17606D01*
Y17598D01*
X22188D01*
Y17590D01*
Y17581D01*
X22180D01*
Y17573D01*
Y17565D01*
Y17556D01*
X22171D01*
Y17548D01*
Y17540D01*
X22163D01*
Y17532D01*
Y17523D01*
X22155D01*
Y17515D01*
Y17507D01*
X22146D01*
Y17499D01*
Y17490D01*
X22138D01*
Y17482D01*
Y17474D01*
Y17465D01*
X22130D01*
Y17457D01*
Y17449D01*
X22122D01*
Y17441D01*
Y17432D01*
X22113D01*
Y17424D01*
Y17416D01*
X22105D01*
Y17408D01*
Y17399D01*
Y17391D01*
X22097D01*
Y17383D01*
Y17374D01*
X22089D01*
Y17366D01*
Y17358D01*
X22080D01*
Y17350D01*
Y17341D01*
X22072D01*
Y17333D01*
Y17325D01*
Y17317D01*
X22064D01*
Y17308D01*
Y17300D01*
X22055D01*
Y17292D01*
Y17283D01*
X22047D01*
Y17275D01*
Y17267D01*
Y17259D01*
X22055D01*
Y17250D01*
Y17242D01*
Y17234D01*
Y17226D01*
Y17217D01*
Y17209D01*
X22064D01*
Y17201D01*
Y17192D01*
Y17184D01*
Y17176D01*
Y17168D01*
Y17159D01*
Y17151D01*
Y17143D01*
Y17134D01*
Y17126D01*
Y17118D01*
Y17110D01*
Y17101D01*
Y17093D01*
Y17085D01*
Y17077D01*
Y17068D01*
Y17060D01*
Y17052D01*
Y17043D01*
Y17035D01*
X22055D01*
Y17027D01*
Y17019D01*
Y17010D01*
Y17002D01*
Y16994D01*
Y16986D01*
Y16977D01*
Y16969D01*
X22047D01*
Y16961D01*
Y16952D01*
Y16944D01*
Y16936D01*
Y16928D01*
Y16919D01*
X22039D01*
Y16911D01*
Y16903D01*
Y16895D01*
Y16886D01*
Y16878D01*
X22031D01*
Y16870D01*
Y16861D01*
Y16853D01*
Y16845D01*
X22022D01*
Y16837D01*
Y16828D01*
Y16820D01*
Y16812D01*
X22014D01*
Y16803D01*
Y16795D01*
Y16787D01*
X22006D01*
Y16779D01*
Y16770D01*
Y16762D01*
Y16754D01*
X21998D01*
Y16746D01*
Y16737D01*
Y16729D01*
X21989D01*
Y16721D01*
Y16712D01*
Y16704D01*
X21981D01*
Y16696D01*
Y16688D01*
X21973D01*
Y16679D01*
Y16671D01*
Y16663D01*
X21964D01*
Y16655D01*
Y16646D01*
Y16638D01*
X21956D01*
Y16630D01*
Y16621D01*
X21948D01*
Y16613D01*
Y16605D01*
Y16597D01*
X21940D01*
Y16588D01*
Y16580D01*
X21931D01*
Y16572D01*
Y16564D01*
X21923D01*
Y16555D01*
Y16547D01*
X21915D01*
Y16539D01*
Y16530D01*
Y16522D01*
X21906D01*
Y16514D01*
Y16506D01*
X21898D01*
Y16497D01*
Y16489D01*
X21890D01*
Y16481D01*
Y16473D01*
X21882D01*
Y16464D01*
Y16456D01*
X21873D01*
Y16448D01*
Y16439D01*
X21865D01*
Y16431D01*
X21857D01*
Y16423D01*
Y16415D01*
X21849D01*
Y16406D01*
Y16398D01*
X21840D01*
Y16390D01*
Y16381D01*
X21832D01*
Y16373D01*
X21824D01*
Y16365D01*
Y16357D01*
X21815D01*
Y16348D01*
Y16340D01*
X21807D01*
Y16332D01*
X21799D01*
Y16324D01*
Y16315D01*
X21791D01*
Y16307D01*
X21782D01*
Y16299D01*
Y16290D01*
X21774D01*
Y16282D01*
X21766D01*
Y16274D01*
Y16266D01*
X21758D01*
Y16257D01*
X21749D01*
Y16249D01*
X21741D01*
Y16241D01*
Y16233D01*
X21733D01*
Y16224D01*
X21724D01*
Y16216D01*
X21716D01*
Y16208D01*
X21708D01*
Y16199D01*
Y16191D01*
X21700D01*
Y16183D01*
X21691D01*
Y16175D01*
X21683D01*
Y16166D01*
X21675D01*
Y16158D01*
X21667D01*
Y16150D01*
X21658D01*
Y16142D01*
Y16133D01*
X21650D01*
Y16125D01*
X21642D01*
Y16117D01*
X21633D01*
Y16108D01*
X21625D01*
Y16100D01*
X21617D01*
Y16092D01*
X21600D01*
Y16084D01*
X21592D01*
Y16075D01*
X21584D01*
Y16067D01*
X21576D01*
Y16059D01*
X21567D01*
Y16051D01*
X21559D01*
Y16042D01*
X21542D01*
Y16034D01*
X21534D01*
Y16026D01*
X21518D01*
Y16017D01*
X21509D01*
Y16009D01*
X21493D01*
Y16001D01*
X21484D01*
Y15993D01*
X21468D01*
Y15984D01*
X21451D01*
Y15976D01*
X21427D01*
Y15968D01*
X21410D01*
Y15959D01*
X21369D01*
Y15951D01*
X21302D01*
Y15959D01*
X21278D01*
Y15968D01*
X21261D01*
Y15976D01*
X21245D01*
Y15984D01*
X21228D01*
Y15993D01*
X21220D01*
Y16001D01*
X21211D01*
Y16009D01*
X21203D01*
Y16017D01*
X21195D01*
Y16026D01*
X21187D01*
Y16034D01*
Y16042D01*
X21178D01*
Y16051D01*
X21170D01*
Y16059D01*
Y16067D01*
X21162D01*
Y16075D01*
Y16084D01*
Y16092D01*
X21153D01*
Y16100D01*
Y16108D01*
X21145D01*
Y16117D01*
Y16125D01*
Y16133D01*
Y16142D01*
X21137D01*
Y16150D01*
Y16158D01*
Y16166D01*
Y16175D01*
X21129D01*
Y16183D01*
Y16191D01*
Y16199D01*
Y16208D01*
Y16216D01*
Y16224D01*
Y16233D01*
Y16241D01*
Y16249D01*
Y16257D01*
Y16266D01*
X21120D01*
Y16274D01*
Y16282D01*
Y16290D01*
Y16299D01*
Y16307D01*
Y16315D01*
X21129D01*
Y16324D01*
Y16332D01*
Y16340D01*
Y16348D01*
Y16357D01*
Y16365D01*
Y16373D01*
Y16381D01*
Y16390D01*
Y16398D01*
Y16406D01*
Y16415D01*
X21137D01*
Y16423D01*
Y16431D01*
Y16439D01*
Y16448D01*
Y16456D01*
Y16464D01*
Y16473D01*
X21145D01*
Y16481D01*
Y16489D01*
Y16497D01*
Y16506D01*
Y16514D01*
X21153D01*
Y16522D01*
Y16530D01*
Y16539D01*
Y16547D01*
X21162D01*
Y16555D01*
Y16564D01*
Y16572D01*
Y16580D01*
X21170D01*
Y16588D01*
Y16597D01*
Y16605D01*
Y16613D01*
X21178D01*
Y16621D01*
Y16630D01*
Y16638D01*
X21187D01*
Y16646D01*
Y16655D01*
Y16663D01*
Y16671D01*
X21195D01*
Y16679D01*
Y16688D01*
Y16696D01*
X21203D01*
Y16704D01*
Y16712D01*
Y16721D01*
X21211D01*
Y16729D01*
Y16737D01*
X21220D01*
Y16746D01*
Y16754D01*
Y16762D01*
X21228D01*
Y16770D01*
Y16779D01*
Y16787D01*
X21236D01*
Y16795D01*
Y16803D01*
X21245D01*
Y16812D01*
Y16820D01*
X21253D01*
Y16828D01*
Y16837D01*
Y16845D01*
X21261D01*
Y16853D01*
Y16861D01*
X21269D01*
Y16870D01*
Y16878D01*
X21278D01*
Y16886D01*
Y16895D01*
X21286D01*
Y16903D01*
Y16911D01*
X21294D01*
Y16919D01*
Y16928D01*
X21302D01*
Y16936D01*
Y16944D01*
X21311D01*
Y16952D01*
Y16961D01*
X21319D01*
Y16969D01*
Y16977D01*
X21327D01*
Y16986D01*
Y16994D01*
X21336D01*
Y17002D01*
Y17010D01*
X21344D01*
Y17019D01*
X21352D01*
Y17027D01*
Y17035D01*
X21360D01*
Y17043D01*
Y17052D01*
X21369D01*
Y17060D01*
X21377D01*
Y17068D01*
Y17077D01*
X21385D01*
Y17085D01*
X21393D01*
Y17093D01*
Y17101D01*
X21402D01*
Y17110D01*
Y17118D01*
X21410D01*
Y17126D01*
X21418D01*
Y17134D01*
X21427D01*
Y17143D01*
Y17151D01*
X21435D01*
Y17159D01*
X21443D01*
Y17168D01*
Y17176D01*
X21451D01*
Y17184D01*
X21460D01*
Y17192D01*
X21468D01*
Y17201D01*
X21476D01*
Y17209D01*
Y17217D01*
X21484D01*
Y17226D01*
X21493D01*
Y17234D01*
X21501D01*
Y17242D01*
X21509D01*
Y17250D01*
X21518D01*
Y17259D01*
Y17267D01*
X21526D01*
Y17275D01*
X21534D01*
Y17283D01*
X21542D01*
Y17292D01*
X21551D01*
Y17300D01*
X21559D01*
Y17308D01*
X21567D01*
Y17317D01*
X21576D01*
Y17325D01*
X21584D01*
Y17333D01*
X21600D01*
Y17341D01*
X21609D01*
Y17350D01*
X21617D01*
Y17358D01*
X21625D01*
Y17366D01*
Y17374D01*
X21633D01*
Y17383D01*
Y17391D01*
X21675D01*
Y17399D01*
X21683D01*
Y17408D01*
X21691D01*
Y17416D01*
X21700D01*
Y17424D01*
Y17432D01*
Y17441D01*
X21708D01*
Y17449D01*
Y17457D01*
X21716D01*
Y17465D01*
Y17474D01*
X21724D01*
Y17482D01*
Y17490D01*
X21733D01*
Y17499D01*
Y17507D01*
Y17515D01*
X21741D01*
Y17523D01*
Y17532D01*
X21749D01*
Y17540D01*
Y17548D01*
X21758D01*
Y17556D01*
Y17565D01*
X21766D01*
Y17573D01*
Y17581D01*
X21774D01*
Y17590D01*
Y17598D01*
Y17606D01*
X21782D01*
Y17614D01*
Y17623D01*
X21791D01*
Y17631D01*
Y17639D01*
X21799D01*
Y17647D01*
Y17656D01*
X21807D01*
Y17664D01*
Y17672D01*
Y17681D01*
X21815D01*
Y17689D01*
Y17697D01*
X21824D01*
Y17705D01*
X21807D01*
Y17714D01*
X21782D01*
Y17722D01*
X21758D01*
Y17730D01*
X21741D01*
Y17739D01*
X21724D01*
Y17747D01*
X21700D01*
Y17755D01*
X21683D01*
Y17763D01*
X21667D01*
Y17772D01*
X21650D01*
Y17780D01*
X21633D01*
Y17788D01*
X21617D01*
Y17796D01*
X21609D01*
Y17805D01*
X21592D01*
Y17813D01*
X21576D01*
Y17821D01*
X21559D01*
Y17830D01*
X21551D01*
Y17838D01*
X21534D01*
Y17846D01*
X21526D01*
Y17854D01*
X21509D01*
Y17863D01*
X21501D01*
Y17871D01*
X21484D01*
Y17879D01*
X21476D01*
Y17887D01*
X21468D01*
Y17896D01*
X21451D01*
Y17904D01*
X21443D01*
Y17912D01*
X21435D01*
Y17921D01*
X21427D01*
Y17929D01*
X21410D01*
Y17937D01*
X21402D01*
Y17945D01*
X21393D01*
Y17954D01*
X21385D01*
Y17962D01*
X21377D01*
Y17970D01*
X21369D01*
Y17978D01*
X21360D01*
Y17987D01*
X21352D01*
Y17995D01*
X21344D01*
Y18003D01*
X21336D01*
Y18012D01*
X21327D01*
Y18020D01*
X21319D01*
Y18028D01*
X21311D01*
Y18036D01*
Y18045D01*
X21302D01*
Y18053D01*
X21294D01*
Y18061D01*
X21286D01*
Y18069D01*
X21278D01*
Y18078D01*
Y18086D01*
X21269D01*
Y18094D01*
X21261D01*
Y18103D01*
X21253D01*
Y18111D01*
Y18119D01*
X21245D01*
Y18127D01*
X21236D01*
Y18136D01*
Y18144D01*
X21228D01*
Y18152D01*
Y18161D01*
X21220D01*
Y18169D01*
X21211D01*
Y18177D01*
Y18185D01*
X21203D01*
Y18194D01*
Y18202D01*
X21195D01*
Y18210D01*
Y18218D01*
Y18227D01*
X21187D01*
Y18235D01*
Y18243D01*
X21178D01*
Y18252D01*
Y18260D01*
X21170D01*
Y18268D01*
Y18276D01*
Y18285D01*
X21162D01*
Y18293D01*
Y18301D01*
Y18309D01*
Y18318D01*
X21153D01*
Y18326D01*
Y18334D01*
Y18343D01*
Y18351D01*
X21145D01*
Y18359D01*
Y18367D01*
Y18376D01*
Y18384D01*
Y18392D01*
Y18400D01*
X21137D01*
Y18409D01*
Y18417D01*
Y18425D01*
Y18434D01*
Y18442D01*
Y18450D01*
Y18458D01*
Y18467D01*
Y18475D01*
Y18483D01*
Y18492D01*
Y18500D01*
Y18508D01*
Y18516D01*
Y18525D01*
Y18533D01*
Y18541D01*
Y18549D01*
X21145D01*
Y18558D01*
Y18566D01*
Y18574D01*
Y18583D01*
Y18591D01*
Y18599D01*
X21153D01*
Y18607D01*
Y18616D01*
Y18624D01*
Y18632D01*
X21162D01*
Y18640D01*
Y18649D01*
Y18657D01*
X21170D01*
Y18665D01*
Y18674D01*
Y18682D01*
X21178D01*
Y18690D01*
Y18698D01*
Y18707D01*
X21187D01*
Y18715D01*
Y18723D01*
X21195D01*
Y18731D01*
Y18740D01*
X21203D01*
Y18748D01*
Y18756D01*
X21211D01*
Y18765D01*
Y18773D01*
X21220D01*
Y18781D01*
Y18789D01*
X21228D01*
Y18798D01*
Y18806D01*
X21236D01*
Y18814D01*
X21245D01*
Y18822D01*
Y18831D01*
X21253D01*
Y18839D01*
X21261D01*
Y18847D01*
Y18856D01*
X21269D01*
Y18864D01*
X21278D01*
Y18872D01*
X21286D01*
Y18880D01*
Y18889D01*
X21294D01*
Y18897D01*
X21302D01*
Y18905D01*
X21311D01*
Y18914D01*
X21319D01*
Y18922D01*
X21327D01*
Y18930D01*
Y18938D01*
X21336D01*
Y18947D01*
X21344D01*
Y18955D01*
X21352D01*
Y18963D01*
X21360D01*
Y18971D01*
X21369D01*
Y18980D01*
X21377D01*
Y18988D01*
X21385D01*
Y18996D01*
X21402D01*
Y19005D01*
X21410D01*
Y19013D01*
X21418D01*
Y19021D01*
X21427D01*
Y19029D01*
X21435D01*
Y19038D01*
X21451D01*
Y19046D01*
X21460D01*
Y19054D01*
X21468D01*
Y19062D01*
X21484D01*
Y19071D01*
X21493D01*
Y19079D01*
X21501D01*
Y19087D01*
X21518D01*
Y19096D01*
X21526D01*
Y19104D01*
X21542D01*
Y19112D01*
X21551D01*
Y19120D01*
X21567D01*
Y19129D01*
X21584D01*
Y19137D01*
X21592D01*
Y19145D01*
X21609D01*
Y19153D01*
X21625D01*
Y19162D01*
X21642D01*
Y19170D01*
X21658D01*
Y19178D01*
X21675D01*
Y19187D01*
X21691D01*
Y19195D01*
X21708D01*
Y19203D01*
X21733D01*
Y19211D01*
X21749D01*
Y19220D01*
X21766D01*
Y19228D01*
X21791D01*
Y19236D01*
X21807D01*
Y19244D01*
X21832D01*
Y19253D01*
X21857D01*
Y19261D01*
X21882D01*
Y19269D01*
X21915D01*
Y19278D01*
X21940D01*
Y19286D01*
X21973D01*
Y19294D01*
X22006D01*
Y19302D01*
X22047D01*
Y19311D01*
X22089D01*
Y19319D01*
X22138D01*
Y19327D01*
X22196D01*
Y19336D01*
X22287D01*
Y19344D01*
X22544D01*
Y19336D01*
D02*
G37*
%LPC*%
G36*
X22577Y19311D02*
X22254D01*
Y19302D01*
X22171D01*
Y19294D01*
X22113D01*
Y19286D01*
X22072D01*
Y19278D01*
X22031D01*
Y19269D01*
X21989D01*
Y19261D01*
X21964D01*
Y19253D01*
X21931D01*
Y19244D01*
X21898D01*
Y19236D01*
X21873D01*
Y19228D01*
X21849D01*
Y19220D01*
X21824D01*
Y19211D01*
X21807D01*
Y19203D01*
X21782D01*
Y19195D01*
X21758D01*
Y19187D01*
X21741D01*
Y19178D01*
X21724D01*
Y19170D01*
X21708D01*
Y19162D01*
X21691D01*
Y19153D01*
X21675D01*
Y19145D01*
X21658D01*
Y19137D01*
X21642D01*
Y19129D01*
X21625D01*
Y19120D01*
X21609D01*
Y19112D01*
X21592D01*
Y19104D01*
X21584D01*
Y19096D01*
X21567D01*
Y19087D01*
X21551D01*
Y19079D01*
X21542D01*
Y19071D01*
X21526D01*
Y19062D01*
X21518D01*
Y19054D01*
X21501D01*
Y19046D01*
X21493D01*
Y19038D01*
X21484D01*
Y19029D01*
X21468D01*
Y19021D01*
X21460D01*
Y19013D01*
X21451D01*
Y19005D01*
X21443D01*
Y18996D01*
X21435D01*
Y18988D01*
X21418D01*
Y18980D01*
X21410D01*
Y18971D01*
X21402D01*
Y18963D01*
X21393D01*
Y18955D01*
X21385D01*
Y18947D01*
X21377D01*
Y18938D01*
X21369D01*
Y18930D01*
X21360D01*
Y18922D01*
X21352D01*
Y18914D01*
X21344D01*
Y18905D01*
X21336D01*
Y18897D01*
X21327D01*
Y18889D01*
Y18880D01*
X21319D01*
Y18872D01*
X21311D01*
Y18864D01*
X21302D01*
Y18856D01*
X21294D01*
Y18847D01*
Y18839D01*
X21286D01*
Y18831D01*
X21278D01*
Y18822D01*
Y18814D01*
X21269D01*
Y18806D01*
X21261D01*
Y18798D01*
Y18789D01*
X21253D01*
Y18781D01*
Y18773D01*
X21245D01*
Y18765D01*
X21236D01*
Y18756D01*
Y18748D01*
X21228D01*
Y18740D01*
Y18731D01*
X21220D01*
Y18723D01*
Y18715D01*
Y18707D01*
X21211D01*
Y18698D01*
Y18690D01*
X21203D01*
Y18682D01*
Y18674D01*
Y18665D01*
X21195D01*
Y18657D01*
Y18649D01*
Y18640D01*
X21187D01*
Y18632D01*
Y18624D01*
Y18616D01*
X21178D01*
Y18607D01*
Y18599D01*
Y18591D01*
Y18583D01*
Y18574D01*
X21170D01*
Y18566D01*
Y18558D01*
Y18549D01*
Y18541D01*
Y18533D01*
Y18525D01*
Y18516D01*
Y18508D01*
Y18500D01*
Y18492D01*
Y18483D01*
X21162D01*
Y18475D01*
Y18467D01*
X21170D01*
Y18458D01*
Y18450D01*
Y18442D01*
Y18434D01*
Y18425D01*
Y18417D01*
Y18409D01*
Y18400D01*
Y18392D01*
Y18384D01*
Y18376D01*
X21178D01*
Y18367D01*
Y18359D01*
Y18351D01*
Y18343D01*
Y18334D01*
X21187D01*
Y18326D01*
Y18318D01*
Y18309D01*
Y18301D01*
X21195D01*
Y18293D01*
Y18285D01*
Y18276D01*
X21203D01*
Y18268D01*
Y18260D01*
X21211D01*
Y18252D01*
Y18243D01*
Y18235D01*
X21220D01*
Y18227D01*
Y18218D01*
X21228D01*
Y18210D01*
Y18202D01*
X21236D01*
Y18194D01*
Y18185D01*
X21245D01*
Y18177D01*
Y18169D01*
X21253D01*
Y18161D01*
Y18152D01*
X21261D01*
Y18144D01*
X21269D01*
Y18136D01*
Y18127D01*
X21278D01*
Y18119D01*
X21286D01*
Y18111D01*
Y18103D01*
X21294D01*
Y18094D01*
X21302D01*
Y18086D01*
X21311D01*
Y18078D01*
Y18069D01*
X21319D01*
Y18061D01*
X21327D01*
Y18053D01*
X21336D01*
Y18045D01*
X21344D01*
Y18036D01*
X21352D01*
Y18028D01*
X21360D01*
Y18020D01*
X21369D01*
Y18012D01*
X21377D01*
Y18003D01*
X21385D01*
Y17995D01*
X21393D01*
Y17987D01*
X21402D01*
Y17978D01*
X21410D01*
Y17970D01*
X21418D01*
Y17962D01*
X21427D01*
Y17954D01*
X21435D01*
Y17945D01*
X21443D01*
Y17937D01*
X21460D01*
Y17929D01*
X21468D01*
Y17921D01*
X21476D01*
Y17912D01*
X21493D01*
Y17904D01*
X21501D01*
Y17896D01*
X21509D01*
Y17887D01*
X21526D01*
Y17879D01*
X21534D01*
Y17871D01*
X21551D01*
Y17863D01*
X21559D01*
Y17854D01*
X21576D01*
Y17846D01*
X21592D01*
Y17838D01*
X21600D01*
Y17830D01*
X21617D01*
Y17821D01*
X21633D01*
Y17813D01*
X21650D01*
Y17805D01*
X21667D01*
Y17796D01*
X21683D01*
Y17788D01*
X21700D01*
Y17780D01*
X21716D01*
Y17772D01*
X21733D01*
Y17763D01*
X21758D01*
Y17755D01*
X21774D01*
Y17747D01*
X21799D01*
Y17739D01*
X21815D01*
Y17730D01*
X21840D01*
Y17739D01*
Y17747D01*
Y17755D01*
X21849D01*
Y17763D01*
Y17772D01*
X21857D01*
Y17780D01*
Y17788D01*
X21865D01*
Y17796D01*
Y17805D01*
X21873D01*
Y17813D01*
Y17821D01*
X21882D01*
Y17830D01*
Y17838D01*
Y17846D01*
X21890D01*
Y17838D01*
X21906D01*
Y17830D01*
X21923D01*
Y17821D01*
X21940D01*
Y17813D01*
X21964D01*
Y17805D01*
X21981D01*
Y17796D01*
X21998D01*
Y17788D01*
X22014D01*
Y17780D01*
X22039D01*
Y17772D01*
X22055D01*
Y17763D01*
X22072D01*
Y17755D01*
X22089D01*
Y17747D01*
X22113D01*
Y17739D01*
X22130D01*
Y17730D01*
X22146D01*
Y17722D01*
X22163D01*
Y17714D01*
X22180D01*
Y17705D01*
X22204D01*
Y17697D01*
X22221D01*
Y17689D01*
X22229D01*
Y17681D01*
Y17672D01*
X22221D01*
Y17664D01*
Y17656D01*
X22213D01*
Y17647D01*
X22221D01*
Y17639D01*
X22328D01*
Y17631D01*
X22502D01*
Y17639D01*
X22593D01*
Y17647D01*
X22585D01*
Y17656D01*
Y17664D01*
X22577D01*
Y17672D01*
Y17681D01*
Y17689D01*
X22568D01*
Y17697D01*
X22577D01*
Y17705D01*
X22593D01*
Y17714D01*
X22610D01*
Y17722D01*
X22626D01*
Y17730D01*
X22651D01*
Y17739D01*
X22668D01*
Y17747D01*
X22684D01*
Y17755D01*
X22701D01*
Y17763D01*
X22726D01*
Y17772D01*
X22742D01*
Y17780D01*
X22759D01*
Y17788D01*
X22775D01*
Y17796D01*
X22800D01*
Y17805D01*
X22817D01*
Y17813D01*
X22833D01*
Y17821D01*
X22850D01*
Y17830D01*
X22866D01*
Y17838D01*
X22891D01*
Y17846D01*
X22908D01*
Y17854D01*
X22916D01*
Y17846D01*
Y17838D01*
X22924D01*
Y17830D01*
Y17821D01*
X22933D01*
Y17813D01*
Y17805D01*
X22941D01*
Y17796D01*
Y17788D01*
Y17780D01*
X22949D01*
Y17772D01*
Y17763D01*
X22957D01*
Y17755D01*
Y17747D01*
X22966D01*
Y17739D01*
Y17730D01*
X22974D01*
Y17722D01*
X22990D01*
Y17730D01*
X23015D01*
Y17739D01*
X23032D01*
Y17747D01*
X23057D01*
Y17755D01*
X23073D01*
Y17763D01*
X23098D01*
Y17772D01*
X23115D01*
Y17780D01*
X23131D01*
Y17788D01*
X23148D01*
Y17796D01*
X23164D01*
Y17805D01*
X23181D01*
Y17813D01*
X23197D01*
Y17821D01*
X23214D01*
Y17830D01*
X23230D01*
Y17838D01*
X23239D01*
Y17846D01*
X23255D01*
Y17854D01*
X23272D01*
Y17863D01*
X23280D01*
Y17871D01*
X23297D01*
Y17879D01*
X23305D01*
Y17887D01*
X23321D01*
Y17896D01*
X23330D01*
Y17904D01*
X23346D01*
Y17912D01*
X23355D01*
Y17921D01*
X23363D01*
Y17929D01*
X23371D01*
Y17937D01*
X23388D01*
Y17945D01*
X23396D01*
Y17954D01*
X23404D01*
Y17962D01*
X23412D01*
Y17970D01*
X23421D01*
Y17978D01*
X23429D01*
Y17987D01*
X23437D01*
Y17995D01*
X23446D01*
Y18003D01*
X23454D01*
Y18012D01*
X23462D01*
Y18020D01*
X23470D01*
Y18028D01*
X23479D01*
Y18036D01*
X23487D01*
Y18045D01*
X23495D01*
Y18053D01*
X23503D01*
Y18061D01*
X23512D01*
Y18069D01*
X23520D01*
Y18078D01*
Y18086D01*
X23528D01*
Y18094D01*
X23537D01*
Y18103D01*
X23545D01*
Y18111D01*
Y18119D01*
X23553D01*
Y18127D01*
X23561D01*
Y18136D01*
Y18144D01*
X23570D01*
Y18152D01*
X23578D01*
Y18161D01*
Y18169D01*
X23586D01*
Y18177D01*
Y18185D01*
X23594D01*
Y18194D01*
Y18202D01*
X23603D01*
Y18210D01*
Y18218D01*
X23611D01*
Y18227D01*
Y18235D01*
X23619D01*
Y18243D01*
Y18252D01*
X23628D01*
Y18260D01*
Y18268D01*
Y18276D01*
X23636D01*
Y18285D01*
Y18293D01*
Y18301D01*
X23644D01*
Y18309D01*
Y18318D01*
Y18326D01*
Y18334D01*
X23652D01*
Y18343D01*
Y18351D01*
Y18359D01*
Y18367D01*
Y18376D01*
X23661D01*
Y18384D01*
Y18392D01*
Y18400D01*
Y18409D01*
Y18417D01*
Y18425D01*
Y18434D01*
Y18442D01*
Y18450D01*
Y18458D01*
X23669D01*
Y18467D01*
Y18475D01*
Y18483D01*
Y18492D01*
X23661D01*
Y18500D01*
Y18508D01*
Y18516D01*
Y18525D01*
Y18533D01*
Y18541D01*
Y18549D01*
Y18558D01*
Y18566D01*
Y18574D01*
X23652D01*
Y18583D01*
Y18591D01*
Y18599D01*
Y18607D01*
Y18616D01*
X23644D01*
Y18624D01*
Y18632D01*
Y18640D01*
Y18649D01*
X23636D01*
Y18657D01*
Y18665D01*
Y18674D01*
X23628D01*
Y18682D01*
Y18690D01*
X23619D01*
Y18698D01*
Y18707D01*
Y18715D01*
X23611D01*
Y18723D01*
Y18731D01*
X23603D01*
Y18740D01*
Y18748D01*
X23594D01*
Y18756D01*
Y18765D01*
X23586D01*
Y18773D01*
Y18781D01*
X23578D01*
Y18789D01*
X23570D01*
Y18798D01*
Y18806D01*
X23561D01*
Y18814D01*
X23553D01*
Y18822D01*
Y18831D01*
X23545D01*
Y18839D01*
X23537D01*
Y18847D01*
Y18856D01*
X23528D01*
Y18864D01*
X23520D01*
Y18872D01*
X23512D01*
Y18880D01*
X23503D01*
Y18889D01*
Y18897D01*
X23495D01*
Y18905D01*
X23487D01*
Y18914D01*
X23479D01*
Y18922D01*
X23470D01*
Y18930D01*
X23462D01*
Y18938D01*
X23454D01*
Y18947D01*
X23446D01*
Y18955D01*
X23437D01*
Y18963D01*
X23429D01*
Y18971D01*
X23421D01*
Y18980D01*
X23412D01*
Y18988D01*
X23404D01*
Y18996D01*
X23388D01*
Y19005D01*
X23379D01*
Y19013D01*
X23371D01*
Y19021D01*
X23363D01*
Y19029D01*
X23346D01*
Y19038D01*
X23338D01*
Y19046D01*
X23330D01*
Y19054D01*
X23313D01*
Y19062D01*
X23305D01*
Y19071D01*
X23288D01*
Y19079D01*
X23280D01*
Y19087D01*
X23264D01*
Y19096D01*
X23247D01*
Y19104D01*
X23239D01*
Y19112D01*
X23222D01*
Y19120D01*
X23206D01*
Y19129D01*
X23189D01*
Y19137D01*
X23173D01*
Y19145D01*
X23164D01*
Y19153D01*
X23139D01*
Y19162D01*
X23123D01*
Y19170D01*
X23106D01*
Y19178D01*
X23090D01*
Y19187D01*
X23073D01*
Y19195D01*
X23048D01*
Y19203D01*
X23024D01*
Y19211D01*
X23007D01*
Y19220D01*
X22982D01*
Y19228D01*
X22957D01*
Y19236D01*
X22933D01*
Y19244D01*
X22899D01*
Y19253D01*
X22866D01*
Y19261D01*
X22842D01*
Y19269D01*
X22800D01*
Y19278D01*
X22759D01*
Y19286D01*
X22717D01*
Y19294D01*
X22659D01*
Y19302D01*
X22577D01*
Y19311D01*
D02*
G37*
G36*
X23106Y17391D02*
X23098D01*
Y17383D01*
X23106D01*
Y17391D01*
D02*
G37*
G36*
X23098Y17383D02*
X23073D01*
Y17374D01*
X23057D01*
Y17366D01*
X23040D01*
Y17358D01*
X23024D01*
Y17350D01*
X23048D01*
Y17358D01*
X23065D01*
Y17366D01*
X23081D01*
Y17374D01*
X23098D01*
Y17383D01*
D02*
G37*
G36*
X23024Y17350D02*
X22999D01*
Y17341D01*
X22982D01*
Y17333D01*
X22966D01*
Y17325D01*
X22949D01*
Y17317D01*
X22924D01*
Y17308D01*
X22908D01*
Y17300D01*
X22891D01*
Y17292D01*
X22875D01*
Y17283D01*
X22858D01*
Y17275D01*
X22883D01*
Y17283D01*
X22899D01*
Y17292D01*
X22916D01*
Y17300D01*
X22933D01*
Y17308D01*
X22957D01*
Y17317D01*
X22974D01*
Y17325D01*
X22990D01*
Y17333D01*
X23007D01*
Y17341D01*
X23024D01*
Y17350D01*
D02*
G37*
G36*
X22858Y17275D02*
X22833D01*
Y17267D01*
X22817D01*
Y17259D01*
X22800D01*
Y17250D01*
X22784D01*
Y17242D01*
X22808D01*
Y17250D01*
X22825D01*
Y17259D01*
X22842D01*
Y17267D01*
X22858D01*
Y17275D01*
D02*
G37*
G36*
X22784Y17242D02*
X22775D01*
Y17234D01*
X22784D01*
Y17242D01*
D02*
G37*
G36*
X21716Y17374D02*
X21691D01*
Y17366D01*
X21708D01*
Y17358D01*
X21733D01*
Y17350D01*
X21749D01*
Y17341D01*
X21766D01*
Y17333D01*
X21782D01*
Y17325D01*
X21807D01*
Y17317D01*
X21824D01*
Y17308D01*
X21840D01*
Y17300D01*
X21857D01*
Y17292D01*
X21882D01*
Y17283D01*
X21898D01*
Y17275D01*
X21915D01*
Y17267D01*
X21931D01*
Y17259D01*
X21956D01*
Y17250D01*
X21973D01*
Y17242D01*
X21989D01*
Y17234D01*
X22006D01*
Y17226D01*
X22031D01*
Y17234D01*
X22014D01*
Y17242D01*
X21998D01*
Y17250D01*
X21981D01*
Y17259D01*
X21956D01*
Y17267D01*
X21940D01*
Y17275D01*
X21923D01*
Y17283D01*
X21906D01*
Y17292D01*
X21882D01*
Y17300D01*
X21865D01*
Y17308D01*
X21849D01*
Y17317D01*
X21832D01*
Y17325D01*
X21807D01*
Y17333D01*
X21791D01*
Y17341D01*
X21774D01*
Y17350D01*
X21758D01*
Y17358D01*
X21741D01*
Y17366D01*
X21716D01*
Y17374D01*
D02*
G37*
G36*
X23164Y17350D02*
X23131D01*
Y17341D01*
X23115D01*
Y17333D01*
X23090D01*
Y17325D01*
X23073D01*
Y17317D01*
X23057D01*
Y17308D01*
X23040D01*
Y17300D01*
X23015D01*
Y17292D01*
X22999D01*
Y17283D01*
X22982D01*
Y17275D01*
X22990D01*
Y17267D01*
X22999D01*
Y17259D01*
Y17250D01*
X23007D01*
Y17242D01*
X23015D01*
Y17234D01*
X23024D01*
Y17226D01*
X23032D01*
Y17217D01*
X23040D01*
Y17209D01*
Y17201D01*
X23048D01*
Y17192D01*
X23057D01*
Y17184D01*
X23065D01*
Y17176D01*
Y17168D01*
X23073D01*
Y17159D01*
X23081D01*
Y17151D01*
X23090D01*
Y17143D01*
Y17134D01*
X23098D01*
Y17126D01*
X23106D01*
Y17118D01*
X23115D01*
Y17110D01*
Y17101D01*
X23123D01*
Y17093D01*
X23131D01*
Y17085D01*
Y17077D01*
X23139D01*
Y17068D01*
X23148D01*
Y17060D01*
X23156D01*
Y17052D01*
Y17043D01*
X23164D01*
Y17035D01*
X23173D01*
Y17027D01*
Y17019D01*
X23181D01*
Y17010D01*
X23189D01*
Y17002D01*
Y16994D01*
X23197D01*
Y16986D01*
X23206D01*
Y16977D01*
X23214D01*
Y16969D01*
Y16961D01*
X23222D01*
Y16952D01*
X23230D01*
Y16944D01*
Y16936D01*
X23239D01*
Y16928D01*
X23247D01*
Y16919D01*
Y16911D01*
X23255D01*
Y16903D01*
X23264D01*
Y16895D01*
Y16886D01*
X23272D01*
Y16878D01*
X23280D01*
Y16870D01*
Y16861D01*
X23288D01*
Y16853D01*
X23297D01*
Y16845D01*
Y16837D01*
X23305D01*
Y16828D01*
X23313D01*
Y16820D01*
Y16812D01*
X23321D01*
Y16803D01*
X23330D01*
Y16795D01*
Y16787D01*
X23338D01*
Y16779D01*
X23346D01*
Y16770D01*
Y16762D01*
X23355D01*
Y16754D01*
X23363D01*
Y16746D01*
Y16737D01*
X23371D01*
Y16729D01*
X23379D01*
Y16721D01*
Y16712D01*
X23388D01*
Y16704D01*
X23396D01*
Y16696D01*
Y16688D01*
X23404D01*
Y16679D01*
X23412D01*
Y16671D01*
Y16663D01*
X23421D01*
Y16655D01*
Y16646D01*
X23429D01*
Y16638D01*
X23437D01*
Y16630D01*
Y16621D01*
X23446D01*
Y16613D01*
X23454D01*
Y16605D01*
Y16597D01*
X23462D01*
Y16588D01*
Y16580D01*
X23470D01*
Y16572D01*
X23479D01*
Y16564D01*
Y16555D01*
X23487D01*
Y16547D01*
Y16539D01*
X23495D01*
Y16530D01*
X23503D01*
Y16522D01*
Y16514D01*
X23512D01*
Y16506D01*
Y16497D01*
X23520D01*
Y16489D01*
Y16481D01*
X23528D01*
Y16473D01*
Y16464D01*
X23520D01*
Y16473D01*
X23512D01*
Y16481D01*
X23503D01*
Y16489D01*
Y16497D01*
X23495D01*
Y16506D01*
X23487D01*
Y16514D01*
X23479D01*
Y16522D01*
X23470D01*
Y16530D01*
Y16539D01*
X23462D01*
Y16547D01*
X23454D01*
Y16555D01*
X23446D01*
Y16564D01*
Y16572D01*
X23437D01*
Y16580D01*
X23429D01*
Y16588D01*
X23421D01*
Y16597D01*
Y16605D01*
X23412D01*
Y16613D01*
X23404D01*
Y16621D01*
X23396D01*
Y16630D01*
Y16638D01*
X23388D01*
Y16646D01*
X23379D01*
Y16655D01*
X23371D01*
Y16663D01*
Y16671D01*
X23363D01*
Y16679D01*
X23355D01*
Y16688D01*
Y16696D01*
X23346D01*
Y16704D01*
X23338D01*
Y16712D01*
X23330D01*
Y16721D01*
Y16729D01*
X23321D01*
Y16737D01*
X23313D01*
Y16746D01*
Y16754D01*
X23305D01*
Y16762D01*
X23297D01*
Y16770D01*
Y16779D01*
X23288D01*
Y16787D01*
X23280D01*
Y16795D01*
Y16803D01*
X23272D01*
Y16812D01*
X23264D01*
Y16820D01*
X23255D01*
Y16828D01*
Y16837D01*
X23247D01*
Y16845D01*
X23239D01*
Y16853D01*
Y16861D01*
X23230D01*
Y16870D01*
X23222D01*
Y16878D01*
Y16886D01*
X23214D01*
Y16895D01*
X23206D01*
Y16903D01*
Y16911D01*
X23197D01*
Y16919D01*
X23189D01*
Y16928D01*
Y16936D01*
X23181D01*
Y16944D01*
X23173D01*
Y16952D01*
Y16961D01*
X23164D01*
Y16969D01*
X23156D01*
Y16977D01*
Y16986D01*
X23148D01*
Y16994D01*
X23139D01*
Y17002D01*
Y17010D01*
X23131D01*
Y17019D01*
X23123D01*
Y17027D01*
Y17035D01*
X23115D01*
Y17043D01*
Y17052D01*
X23106D01*
Y17060D01*
X23098D01*
Y17068D01*
Y17077D01*
X23090D01*
Y17085D01*
X23081D01*
Y17093D01*
Y17101D01*
X23073D01*
Y17110D01*
Y17118D01*
X23065D01*
Y17126D01*
X23057D01*
Y17134D01*
Y17143D01*
X23048D01*
Y17151D01*
X23040D01*
Y17159D01*
Y17168D01*
X23032D01*
Y17176D01*
Y17184D01*
X23024D01*
Y17192D01*
X23015D01*
Y17201D01*
Y17209D01*
X23007D01*
Y17217D01*
Y17226D01*
X22999D01*
Y17234D01*
Y17242D01*
X22990D01*
Y17250D01*
Y17259D01*
X22982D01*
Y17267D01*
Y17275D01*
X22966D01*
Y17267D01*
Y17259D01*
Y17250D01*
X22974D01*
Y17242D01*
Y17234D01*
Y17226D01*
X22982D01*
Y17217D01*
Y17209D01*
Y17201D01*
X22990D01*
Y17192D01*
Y17184D01*
Y17176D01*
X22999D01*
Y17168D01*
Y17159D01*
Y17151D01*
X23007D01*
Y17143D01*
Y17134D01*
Y17126D01*
X23015D01*
Y17118D01*
Y17110D01*
Y17101D01*
Y17093D01*
X23024D01*
Y17085D01*
Y17077D01*
Y17068D01*
X23032D01*
Y17060D01*
Y17052D01*
Y17043D01*
Y17035D01*
X23040D01*
Y17027D01*
Y17019D01*
Y17010D01*
X23048D01*
Y17002D01*
Y16994D01*
Y16986D01*
Y16977D01*
X23057D01*
Y16969D01*
Y16961D01*
Y16952D01*
X23065D01*
Y16944D01*
Y16936D01*
Y16928D01*
Y16919D01*
X23073D01*
Y16911D01*
Y16903D01*
Y16895D01*
Y16886D01*
X23081D01*
Y16878D01*
Y16870D01*
Y16861D01*
Y16853D01*
X23090D01*
Y16845D01*
Y16837D01*
Y16828D01*
X23098D01*
Y16820D01*
Y16812D01*
Y16803D01*
Y16795D01*
X23106D01*
Y16787D01*
Y16779D01*
Y16770D01*
Y16762D01*
X23115D01*
Y16754D01*
Y16746D01*
Y16737D01*
Y16729D01*
X23123D01*
Y16721D01*
Y16712D01*
Y16704D01*
Y16696D01*
Y16688D01*
X23131D01*
Y16679D01*
Y16671D01*
Y16663D01*
Y16655D01*
X23139D01*
Y16646D01*
Y16638D01*
Y16630D01*
Y16621D01*
X23148D01*
Y16613D01*
Y16605D01*
Y16597D01*
Y16588D01*
X23156D01*
Y16580D01*
Y16572D01*
Y16564D01*
Y16555D01*
Y16547D01*
X23164D01*
Y16539D01*
Y16530D01*
Y16522D01*
Y16514D01*
X23173D01*
Y16506D01*
Y16497D01*
Y16489D01*
Y16481D01*
Y16473D01*
X23181D01*
Y16464D01*
Y16456D01*
Y16448D01*
Y16439D01*
Y16431D01*
X23189D01*
Y16423D01*
Y16415D01*
Y16406D01*
Y16398D01*
Y16390D01*
X23197D01*
Y16381D01*
Y16373D01*
Y16365D01*
Y16357D01*
Y16348D01*
Y16340D01*
Y16332D01*
X23206D01*
Y16324D01*
Y16315D01*
Y16307D01*
Y16299D01*
X23197D01*
Y16307D01*
Y16315D01*
Y16324D01*
X23189D01*
Y16332D01*
Y16340D01*
X23181D01*
Y16348D01*
Y16357D01*
Y16365D01*
X23173D01*
Y16373D01*
Y16381D01*
Y16390D01*
X23164D01*
Y16398D01*
Y16406D01*
Y16415D01*
X23156D01*
Y16423D01*
Y16431D01*
Y16439D01*
X23148D01*
Y16448D01*
Y16456D01*
Y16464D01*
Y16473D01*
X23139D01*
Y16481D01*
Y16489D01*
Y16497D01*
X23131D01*
Y16506D01*
Y16514D01*
Y16522D01*
Y16530D01*
X23123D01*
Y16539D01*
Y16547D01*
Y16555D01*
X23115D01*
Y16564D01*
Y16572D01*
Y16580D01*
X23106D01*
Y16588D01*
Y16597D01*
Y16605D01*
Y16613D01*
X23098D01*
Y16621D01*
Y16630D01*
Y16638D01*
Y16646D01*
X23090D01*
Y16655D01*
Y16663D01*
Y16671D01*
Y16679D01*
X23081D01*
Y16688D01*
Y16696D01*
Y16704D01*
X23073D01*
Y16712D01*
Y16721D01*
Y16729D01*
Y16737D01*
X23065D01*
Y16746D01*
Y16754D01*
Y16762D01*
Y16770D01*
X23057D01*
Y16779D01*
Y16787D01*
Y16795D01*
Y16803D01*
X23048D01*
Y16812D01*
Y16820D01*
Y16828D01*
Y16837D01*
X23040D01*
Y16845D01*
Y16853D01*
Y16861D01*
Y16870D01*
X23032D01*
Y16878D01*
Y16886D01*
Y16895D01*
Y16903D01*
X23024D01*
Y16911D01*
Y16919D01*
Y16928D01*
Y16936D01*
Y16944D01*
X23015D01*
Y16952D01*
Y16961D01*
Y16969D01*
Y16977D01*
X23007D01*
Y16986D01*
Y16994D01*
Y17002D01*
Y17010D01*
X22999D01*
Y17019D01*
Y17027D01*
Y17035D01*
Y17043D01*
Y17052D01*
X22990D01*
Y17060D01*
Y17068D01*
Y17077D01*
Y17085D01*
X22982D01*
Y17093D01*
Y17101D01*
Y17110D01*
Y17118D01*
Y17126D01*
X22974D01*
Y17134D01*
Y17143D01*
Y17151D01*
Y17159D01*
Y17168D01*
Y17176D01*
X22966D01*
Y17184D01*
Y17192D01*
Y17201D01*
Y17209D01*
Y17217D01*
X22957D01*
Y17226D01*
Y17234D01*
Y17242D01*
Y17250D01*
Y17259D01*
Y17267D01*
X22941D01*
Y17259D01*
X22924D01*
Y17250D01*
X22908D01*
Y17242D01*
X22891D01*
Y17234D01*
X22875D01*
Y17226D01*
X22850D01*
Y17217D01*
X22833D01*
Y17209D01*
X22817D01*
Y17201D01*
X22800D01*
Y17192D01*
X22775D01*
Y17184D01*
X22767D01*
Y17176D01*
Y17168D01*
Y17159D01*
Y17151D01*
Y17143D01*
Y17134D01*
Y17126D01*
Y17118D01*
Y17110D01*
Y17101D01*
Y17093D01*
Y17085D01*
Y17077D01*
Y17068D01*
Y17060D01*
Y17052D01*
Y17043D01*
Y17035D01*
Y17027D01*
Y17019D01*
X22775D01*
Y17010D01*
Y17002D01*
Y16994D01*
Y16986D01*
Y16977D01*
Y16969D01*
X22784D01*
Y16961D01*
Y16952D01*
Y16944D01*
Y16936D01*
Y16928D01*
Y16919D01*
X22792D01*
Y16911D01*
Y16903D01*
Y16895D01*
Y16886D01*
Y16878D01*
X22800D01*
Y16870D01*
Y16861D01*
Y16853D01*
Y16845D01*
X22808D01*
Y16837D01*
Y16828D01*
Y16820D01*
X22817D01*
Y16812D01*
Y16803D01*
Y16795D01*
Y16787D01*
X22825D01*
Y16779D01*
Y16770D01*
Y16762D01*
X22833D01*
Y16754D01*
Y16746D01*
Y16737D01*
X22842D01*
Y16729D01*
Y16721D01*
Y16712D01*
X22850D01*
Y16704D01*
Y16696D01*
Y16688D01*
X22858D01*
Y16679D01*
Y16671D01*
X22866D01*
Y16663D01*
Y16655D01*
Y16646D01*
X22875D01*
Y16638D01*
Y16630D01*
X22883D01*
Y16621D01*
Y16613D01*
Y16605D01*
X22891D01*
Y16597D01*
Y16588D01*
X22899D01*
Y16580D01*
Y16572D01*
X22908D01*
Y16564D01*
Y16555D01*
X22916D01*
Y16547D01*
Y16539D01*
Y16530D01*
X22924D01*
Y16522D01*
Y16514D01*
X22933D01*
Y16506D01*
Y16497D01*
X22941D01*
Y16489D01*
Y16481D01*
X22949D01*
Y16473D01*
X22957D01*
Y16464D01*
Y16456D01*
X22966D01*
Y16448D01*
Y16439D01*
X22974D01*
Y16431D01*
Y16423D01*
X22982D01*
Y16415D01*
Y16406D01*
X22990D01*
Y16398D01*
X22999D01*
Y16390D01*
Y16381D01*
X23007D01*
Y16373D01*
Y16365D01*
X23015D01*
Y16357D01*
X23024D01*
Y16348D01*
Y16340D01*
X23032D01*
Y16332D01*
X23040D01*
Y16324D01*
Y16315D01*
X23048D01*
Y16307D01*
X23057D01*
Y16299D01*
Y16290D01*
X23065D01*
Y16282D01*
X23073D01*
Y16274D01*
X23081D01*
Y16266D01*
Y16257D01*
X23090D01*
Y16249D01*
X23098D01*
Y16241D01*
X23106D01*
Y16233D01*
X23115D01*
Y16224D01*
Y16216D01*
X23123D01*
Y16208D01*
X23131D01*
Y16199D01*
X23139D01*
Y16191D01*
X23148D01*
Y16183D01*
X23156D01*
Y16175D01*
X23164D01*
Y16166D01*
X23173D01*
Y16158D01*
Y16150D01*
X23181D01*
Y16142D01*
X23197D01*
Y16133D01*
X23206D01*
Y16125D01*
X23214D01*
Y16117D01*
X23222D01*
Y16108D01*
X23230D01*
Y16100D01*
X23239D01*
Y16092D01*
X23247D01*
Y16084D01*
X23255D01*
Y16075D01*
X23272D01*
Y16067D01*
X23280D01*
Y16059D01*
X23297D01*
Y16051D01*
X23305D01*
Y16042D01*
X23321D01*
Y16034D01*
X23330D01*
Y16026D01*
X23346D01*
Y16017D01*
X23371D01*
Y16009D01*
X23388D01*
Y16001D01*
X23421D01*
Y15993D01*
X23495D01*
Y16001D01*
X23528D01*
Y16009D01*
X23545D01*
Y16017D01*
X23553D01*
Y16026D01*
X23561D01*
Y16034D01*
X23570D01*
Y16042D01*
X23578D01*
Y16051D01*
X23586D01*
Y16059D01*
X23594D01*
Y16067D01*
Y16075D01*
X23603D01*
Y16084D01*
Y16092D01*
X23611D01*
Y16100D01*
Y16108D01*
X23619D01*
Y16117D01*
Y16125D01*
Y16133D01*
X23628D01*
Y16142D01*
Y16150D01*
Y16158D01*
Y16166D01*
X23636D01*
Y16175D01*
Y16183D01*
Y16191D01*
Y16199D01*
Y16208D01*
Y16216D01*
X23644D01*
Y16224D01*
Y16233D01*
Y16241D01*
Y16249D01*
Y16257D01*
Y16266D01*
Y16274D01*
Y16282D01*
Y16290D01*
Y16299D01*
Y16307D01*
Y16315D01*
Y16324D01*
Y16332D01*
Y16340D01*
Y16348D01*
Y16357D01*
Y16365D01*
Y16373D01*
Y16381D01*
Y16390D01*
X23636D01*
Y16398D01*
Y16406D01*
Y16415D01*
Y16423D01*
Y16431D01*
Y16439D01*
Y16448D01*
Y16456D01*
X23628D01*
Y16464D01*
Y16473D01*
Y16481D01*
Y16489D01*
Y16497D01*
Y16506D01*
X23619D01*
Y16514D01*
Y16522D01*
Y16530D01*
Y16539D01*
Y16547D01*
X23611D01*
Y16555D01*
Y16564D01*
Y16572D01*
Y16580D01*
X23603D01*
Y16588D01*
Y16597D01*
Y16605D01*
Y16613D01*
X23594D01*
Y16621D01*
Y16630D01*
Y16638D01*
X23586D01*
Y16646D01*
Y16655D01*
Y16663D01*
X23578D01*
Y16671D01*
Y16679D01*
Y16688D01*
Y16696D01*
X23570D01*
Y16704D01*
Y16712D01*
Y16721D01*
X23561D01*
Y16729D01*
Y16737D01*
X23553D01*
Y16746D01*
Y16754D01*
Y16762D01*
X23545D01*
Y16770D01*
Y16779D01*
Y16787D01*
X23537D01*
Y16795D01*
Y16803D01*
X23528D01*
Y16812D01*
Y16820D01*
X23520D01*
Y16828D01*
Y16837D01*
Y16845D01*
X23512D01*
Y16853D01*
Y16861D01*
X23503D01*
Y16870D01*
Y16878D01*
X23495D01*
Y16886D01*
Y16895D01*
X23487D01*
Y16903D01*
Y16911D01*
X23479D01*
Y16919D01*
Y16928D01*
X23470D01*
Y16936D01*
Y16944D01*
X23462D01*
Y16952D01*
Y16961D01*
X23454D01*
Y16969D01*
Y16977D01*
X23446D01*
Y16986D01*
Y16994D01*
X23437D01*
Y17002D01*
Y17010D01*
X23429D01*
Y17019D01*
X23421D01*
Y17027D01*
Y17035D01*
X23412D01*
Y17043D01*
Y17052D01*
X23404D01*
Y17060D01*
X23396D01*
Y17068D01*
Y17077D01*
X23388D01*
Y17085D01*
X23379D01*
Y17093D01*
Y17101D01*
X23371D01*
Y17110D01*
Y17118D01*
X23363D01*
Y17126D01*
X23355D01*
Y17134D01*
X23346D01*
Y17143D01*
Y17151D01*
X23338D01*
Y17159D01*
X23330D01*
Y17168D01*
Y17176D01*
X23321D01*
Y17184D01*
X23313D01*
Y17192D01*
X23305D01*
Y17201D01*
X23297D01*
Y17209D01*
Y17217D01*
X23288D01*
Y17226D01*
X23280D01*
Y17234D01*
X23272D01*
Y17242D01*
X23264D01*
Y17250D01*
X23255D01*
Y17259D01*
X23247D01*
Y17267D01*
X23239D01*
Y17275D01*
X23230D01*
Y17283D01*
X23222D01*
Y17292D01*
X23214D01*
Y17300D01*
X23206D01*
Y17308D01*
X23197D01*
Y17317D01*
X23189D01*
Y17325D01*
X23181D01*
Y17333D01*
X23173D01*
Y17341D01*
X23164D01*
Y17350D01*
D02*
G37*
G36*
X21667Y17341D02*
X21642D01*
Y17333D01*
X21625D01*
Y17325D01*
X21617D01*
Y17317D01*
X21609D01*
Y17308D01*
X21600D01*
Y17300D01*
X21592D01*
Y17292D01*
X21584D01*
Y17283D01*
X21576D01*
Y17275D01*
X21567D01*
Y17267D01*
X21559D01*
Y17259D01*
X21551D01*
Y17250D01*
X21542D01*
Y17242D01*
X21534D01*
Y17234D01*
X21526D01*
Y17226D01*
X21518D01*
Y17217D01*
Y17209D01*
X21509D01*
Y17201D01*
X21501D01*
Y17192D01*
X21493D01*
Y17184D01*
X21484D01*
Y17176D01*
Y17168D01*
X21476D01*
Y17159D01*
X21468D01*
Y17151D01*
X21460D01*
Y17143D01*
Y17134D01*
X21451D01*
Y17126D01*
X21443D01*
Y17118D01*
X21435D01*
Y17110D01*
Y17101D01*
X21427D01*
Y17093D01*
X21418D01*
Y17085D01*
Y17077D01*
X21410D01*
Y17068D01*
Y17060D01*
X21402D01*
Y17052D01*
X21393D01*
Y17043D01*
Y17035D01*
X21385D01*
Y17027D01*
X21377D01*
Y17019D01*
Y17010D01*
X21369D01*
Y17002D01*
Y16994D01*
X21360D01*
Y16986D01*
Y16977D01*
X21352D01*
Y16969D01*
Y16961D01*
X21344D01*
Y16952D01*
X21336D01*
Y16944D01*
Y16936D01*
X21327D01*
Y16928D01*
Y16919D01*
X21319D01*
Y16911D01*
Y16903D01*
X21311D01*
Y16895D01*
Y16886D01*
X21302D01*
Y16878D01*
Y16870D01*
X21294D01*
Y16861D01*
Y16853D01*
Y16845D01*
X21286D01*
Y16837D01*
Y16828D01*
X21278D01*
Y16820D01*
Y16812D01*
X21269D01*
Y16803D01*
Y16795D01*
Y16787D01*
X21261D01*
Y16779D01*
Y16770D01*
X21253D01*
Y16762D01*
Y16754D01*
Y16746D01*
X21245D01*
Y16737D01*
Y16729D01*
X21236D01*
Y16721D01*
Y16712D01*
Y16704D01*
X21228D01*
Y16696D01*
Y16688D01*
Y16679D01*
X21220D01*
Y16671D01*
Y16663D01*
Y16655D01*
X21211D01*
Y16646D01*
Y16638D01*
Y16630D01*
X21203D01*
Y16621D01*
Y16613D01*
Y16605D01*
Y16597D01*
X21195D01*
Y16588D01*
Y16580D01*
Y16572D01*
Y16564D01*
X21187D01*
Y16555D01*
Y16547D01*
Y16539D01*
Y16530D01*
X21178D01*
Y16522D01*
Y16514D01*
Y16506D01*
Y16497D01*
Y16489D01*
X21170D01*
Y16481D01*
Y16473D01*
Y16464D01*
Y16456D01*
Y16448D01*
Y16439D01*
X21162D01*
Y16431D01*
Y16423D01*
Y16415D01*
Y16406D01*
Y16398D01*
Y16390D01*
Y16381D01*
Y16373D01*
X21153D01*
Y16365D01*
Y16357D01*
Y16348D01*
Y16340D01*
Y16332D01*
Y16324D01*
Y16315D01*
Y16307D01*
Y16299D01*
Y16290D01*
Y16282D01*
Y16274D01*
Y16266D01*
Y16257D01*
Y16249D01*
Y16241D01*
Y16233D01*
Y16224D01*
Y16216D01*
X21162D01*
Y16208D01*
Y16199D01*
Y16191D01*
Y16183D01*
Y16175D01*
Y16166D01*
Y16158D01*
X21170D01*
Y16150D01*
Y16142D01*
Y16133D01*
Y16125D01*
X21178D01*
Y16117D01*
Y16108D01*
Y16100D01*
X21187D01*
Y16092D01*
Y16084D01*
X21195D01*
Y16075D01*
Y16067D01*
X21203D01*
Y16059D01*
Y16051D01*
X21211D01*
Y16042D01*
X21220D01*
Y16034D01*
X21228D01*
Y16026D01*
X21236D01*
Y16017D01*
X21245D01*
Y16009D01*
X21253D01*
Y16001D01*
X21269D01*
Y15993D01*
X21294D01*
Y15984D01*
X21385D01*
Y15993D01*
X21418D01*
Y16001D01*
X21435D01*
Y16009D01*
X21451D01*
Y16017D01*
X21468D01*
Y16026D01*
X21484D01*
Y16034D01*
X21501D01*
Y16042D01*
X21509D01*
Y16051D01*
X21518D01*
Y16059D01*
X21534D01*
Y16067D01*
X21542D01*
Y16075D01*
X21551D01*
Y16084D01*
X21559D01*
Y16092D01*
X21576D01*
Y16100D01*
X21584D01*
Y16108D01*
X21592D01*
Y16117D01*
X21600D01*
Y16125D01*
X21609D01*
Y16133D01*
X21617D01*
Y16142D01*
X21625D01*
Y16150D01*
X21633D01*
Y16158D01*
X21642D01*
Y16166D01*
X21650D01*
Y16175D01*
X21658D01*
Y16183D01*
X21667D01*
Y16191D01*
Y16199D01*
X21675D01*
Y16208D01*
X21683D01*
Y16216D01*
X21691D01*
Y16224D01*
X21700D01*
Y16233D01*
Y16241D01*
X21708D01*
Y16249D01*
X21716D01*
Y16257D01*
X21724D01*
Y16266D01*
Y16274D01*
X21733D01*
Y16282D01*
X21741D01*
Y16290D01*
X21749D01*
Y16299D01*
Y16307D01*
X21758D01*
Y16315D01*
X21766D01*
Y16324D01*
Y16332D01*
X21774D01*
Y16340D01*
X21782D01*
Y16348D01*
Y16357D01*
X21791D01*
Y16365D01*
Y16373D01*
X21799D01*
Y16381D01*
X21807D01*
Y16390D01*
Y16398D01*
X21815D01*
Y16406D01*
Y16415D01*
X21824D01*
Y16423D01*
X21832D01*
Y16431D01*
Y16439D01*
X21840D01*
Y16448D01*
Y16456D01*
X21849D01*
Y16464D01*
Y16473D01*
X21857D01*
Y16481D01*
Y16489D01*
X21865D01*
Y16497D01*
Y16506D01*
X21873D01*
Y16514D01*
Y16522D01*
X21882D01*
Y16530D01*
Y16539D01*
X21890D01*
Y16547D01*
Y16555D01*
X21898D01*
Y16564D01*
Y16572D01*
X21906D01*
Y16580D01*
Y16588D01*
Y16597D01*
X21915D01*
Y16605D01*
Y16613D01*
X21923D01*
Y16621D01*
Y16630D01*
X21931D01*
Y16638D01*
Y16646D01*
Y16655D01*
X21940D01*
Y16663D01*
Y16671D01*
Y16679D01*
X21948D01*
Y16688D01*
Y16696D01*
X21956D01*
Y16704D01*
Y16712D01*
Y16721D01*
X21964D01*
Y16729D01*
Y16737D01*
Y16746D01*
X21973D01*
Y16754D01*
Y16762D01*
Y16770D01*
X21981D01*
Y16779D01*
Y16787D01*
Y16795D01*
Y16803D01*
X21989D01*
Y16812D01*
Y16820D01*
Y16828D01*
Y16837D01*
X21998D01*
Y16845D01*
Y16853D01*
Y16861D01*
X22006D01*
Y16870D01*
Y16878D01*
Y16886D01*
Y16895D01*
Y16903D01*
X22014D01*
Y16911D01*
Y16919D01*
Y16928D01*
Y16936D01*
Y16944D01*
X22022D01*
Y16952D01*
Y16961D01*
Y16969D01*
Y16977D01*
Y16986D01*
Y16994D01*
Y17002D01*
X22031D01*
Y17010D01*
Y17019D01*
Y17027D01*
Y17035D01*
Y17043D01*
Y17052D01*
Y17060D01*
Y17068D01*
Y17077D01*
Y17085D01*
Y17093D01*
Y17101D01*
Y17110D01*
Y17118D01*
Y17126D01*
Y17134D01*
Y17143D01*
Y17151D01*
Y17159D01*
Y17168D01*
Y17176D01*
X22014D01*
Y17184D01*
X21998D01*
Y17192D01*
X21981D01*
Y17201D01*
X21964D01*
Y17209D01*
X21940D01*
Y17217D01*
X21923D01*
Y17226D01*
X21906D01*
Y17234D01*
X21890D01*
Y17242D01*
X21865D01*
Y17250D01*
X21849D01*
Y17259D01*
X21832D01*
Y17267D01*
X21824D01*
Y17259D01*
X21815D01*
Y17267D01*
Y17275D01*
X21791D01*
Y17283D01*
X21774D01*
Y17292D01*
X21758D01*
Y17300D01*
X21741D01*
Y17308D01*
X21724D01*
Y17317D01*
X21700D01*
Y17325D01*
X21683D01*
Y17333D01*
X21667D01*
Y17341D01*
D02*
G37*
%LPD*%
G36*
X22709Y19096D02*
X22717D01*
Y19087D01*
X22726D01*
Y19079D01*
Y19071D01*
X22734D01*
Y19062D01*
Y19054D01*
X22742D01*
Y19046D01*
Y19038D01*
Y19029D01*
Y19021D01*
X22916D01*
Y19013D01*
X22933D01*
Y19005D01*
X22941D01*
Y18996D01*
X22957D01*
Y18988D01*
X22966D01*
Y18980D01*
X22974D01*
Y18971D01*
X22982D01*
Y18963D01*
X22990D01*
Y18955D01*
X23007D01*
Y18947D01*
X23015D01*
Y18938D01*
X23024D01*
Y18930D01*
X23032D01*
Y18922D01*
X23057D01*
Y18914D01*
X23073D01*
Y18905D01*
X23081D01*
Y18897D01*
X23090D01*
Y18889D01*
X23098D01*
Y18880D01*
Y18872D01*
Y18864D01*
Y18856D01*
Y18847D01*
Y18839D01*
X23090D01*
Y18831D01*
X23081D01*
Y18822D01*
X23073D01*
Y18814D01*
X23057D01*
Y18806D01*
X23032D01*
Y18814D01*
X23015D01*
Y18822D01*
X23007D01*
Y18831D01*
X22999D01*
Y18839D01*
Y18847D01*
X22990D01*
Y18856D01*
Y18864D01*
Y18872D01*
Y18880D01*
Y18889D01*
X22982D01*
Y18897D01*
X22974D01*
Y18905D01*
X22966D01*
Y18914D01*
X22957D01*
Y18922D01*
X22949D01*
Y18930D01*
X22933D01*
Y18938D01*
X22924D01*
Y18947D01*
X22916D01*
Y18955D01*
X22908D01*
Y18963D01*
X22742D01*
Y18955D01*
Y18947D01*
X22734D01*
Y18938D01*
Y18930D01*
Y18922D01*
X22726D01*
Y18914D01*
X22717D01*
Y18905D01*
X22709D01*
Y18897D01*
X22171D01*
Y18905D01*
X22163D01*
Y18914D01*
X22155D01*
Y18922D01*
X22146D01*
Y18930D01*
Y18938D01*
Y18947D01*
X22138D01*
Y18955D01*
Y18963D01*
Y18971D01*
X21948D01*
Y18963D01*
X21940D01*
Y18955D01*
X21931D01*
Y18947D01*
X21923D01*
Y18938D01*
X21906D01*
Y18930D01*
X21898D01*
Y18922D01*
X21890D01*
Y18914D01*
X21882D01*
Y18905D01*
X21873D01*
Y18897D01*
X21857D01*
Y18889D01*
X21849D01*
Y18880D01*
X21840D01*
Y18872D01*
X21832D01*
Y18864D01*
X21807D01*
Y18856D01*
Y18847D01*
Y18839D01*
Y18831D01*
Y18822D01*
X21799D01*
Y18814D01*
X21791D01*
Y18806D01*
X21774D01*
Y18798D01*
X21733D01*
Y18806D01*
X21716D01*
Y18814D01*
Y18822D01*
X21708D01*
Y18831D01*
X21700D01*
Y18839D01*
Y18847D01*
Y18856D01*
Y18864D01*
Y18872D01*
X21708D01*
Y18880D01*
X21716D01*
Y18889D01*
X21724D01*
Y18897D01*
X21733D01*
Y18905D01*
X21791D01*
Y18914D01*
X21799D01*
Y18922D01*
X21807D01*
Y18930D01*
X21824D01*
Y18938D01*
X21832D01*
Y18947D01*
X21840D01*
Y18955D01*
X21849D01*
Y18963D01*
X21857D01*
Y18971D01*
X21873D01*
Y18980D01*
X21882D01*
Y18988D01*
X21890D01*
Y18996D01*
X21898D01*
Y19005D01*
X21915D01*
Y19013D01*
X21923D01*
Y19021D01*
X21940D01*
Y19029D01*
X22138D01*
Y19038D01*
Y19046D01*
Y19054D01*
X22146D01*
Y19062D01*
Y19071D01*
X22155D01*
Y19079D01*
Y19087D01*
X22163D01*
Y19096D01*
X22171D01*
Y19104D01*
X22204D01*
Y19096D01*
X22676D01*
Y19104D01*
X22709D01*
Y19096D01*
D02*
G37*
G36*
X22577Y18723D02*
Y18715D01*
Y18707D01*
X22585D01*
Y18698D01*
Y18690D01*
Y18682D01*
Y18674D01*
Y18665D01*
X22626D01*
Y18674D01*
X22635D01*
Y18682D01*
Y18690D01*
X22643D01*
Y18698D01*
X22651D01*
Y18707D01*
X22659D01*
Y18715D01*
X22676D01*
Y18707D01*
Y18698D01*
Y18690D01*
X22684D01*
Y18682D01*
Y18674D01*
X22676D01*
Y18665D01*
Y18657D01*
Y18649D01*
Y18640D01*
X22693D01*
Y18632D01*
X22717D01*
Y18640D01*
X22726D01*
Y18649D01*
X22734D01*
Y18657D01*
X22742D01*
Y18665D01*
X22759D01*
Y18674D01*
X22767D01*
Y18665D01*
X22775D01*
Y18657D01*
Y18649D01*
Y18640D01*
X22767D01*
Y18632D01*
Y18624D01*
Y18616D01*
X22759D01*
Y18607D01*
Y18599D01*
Y18591D01*
X22767D01*
Y18583D01*
X22775D01*
Y18574D01*
X22792D01*
Y18583D01*
X22800D01*
Y18591D01*
X22817D01*
Y18599D01*
X22842D01*
Y18607D01*
X22850D01*
Y18599D01*
X22858D01*
Y18591D01*
X22850D01*
Y18583D01*
Y18574D01*
X22842D01*
Y18566D01*
Y18558D01*
X22833D01*
Y18549D01*
X22825D01*
Y18541D01*
Y18533D01*
Y18525D01*
X22833D01*
Y18516D01*
X22842D01*
Y18508D01*
X22866D01*
Y18516D01*
X22916D01*
Y18508D01*
Y18500D01*
X22908D01*
Y18492D01*
X22899D01*
Y18483D01*
X22891D01*
Y18475D01*
X22883D01*
Y18467D01*
X22875D01*
Y18458D01*
Y18450D01*
Y18442D01*
Y18434D01*
X22883D01*
Y18425D01*
X22949D01*
Y18417D01*
X22957D01*
Y18409D01*
Y18400D01*
X22941D01*
Y18392D01*
X22933D01*
Y18384D01*
X22916D01*
Y18376D01*
X22899D01*
Y18367D01*
Y18359D01*
Y18351D01*
Y18343D01*
Y18334D01*
X22916D01*
Y18326D01*
X22949D01*
Y18318D01*
X22966D01*
Y18309D01*
Y18301D01*
Y18293D01*
X22949D01*
Y18285D01*
X22899D01*
Y18276D01*
Y18268D01*
Y18260D01*
Y18252D01*
Y18243D01*
Y18235D01*
X22916D01*
Y18227D01*
X22933D01*
Y18218D01*
X22941D01*
Y18210D01*
X22957D01*
Y18202D01*
X22949D01*
Y18194D01*
Y18185D01*
X22891D01*
Y18194D01*
X22883D01*
Y18185D01*
Y18177D01*
X22875D01*
Y18169D01*
Y18161D01*
Y18152D01*
Y18144D01*
X22883D01*
Y18136D01*
X22899D01*
Y18127D01*
Y18119D01*
X22908D01*
Y18111D01*
X22916D01*
Y18103D01*
Y18094D01*
X22866D01*
Y18103D01*
X22833D01*
Y18094D01*
Y18086D01*
X22825D01*
Y18078D01*
Y18069D01*
Y18061D01*
X22833D01*
Y18053D01*
X22842D01*
Y18045D01*
Y18036D01*
X22850D01*
Y18028D01*
Y18020D01*
Y18012D01*
X22817D01*
Y18020D01*
X22808D01*
Y18028D01*
X22792D01*
Y18036D01*
X22775D01*
Y18028D01*
X22767D01*
Y18020D01*
X22759D01*
Y18012D01*
Y18003D01*
Y17995D01*
X22767D01*
Y17987D01*
Y17978D01*
Y17970D01*
X22775D01*
Y17962D01*
Y17954D01*
Y17945D01*
X22767D01*
Y17937D01*
X22759D01*
Y17945D01*
X22742D01*
Y17954D01*
X22734D01*
Y17962D01*
X22726D01*
Y17970D01*
X22717D01*
Y17978D01*
X22693D01*
Y17970D01*
X22676D01*
Y17962D01*
Y17954D01*
Y17945D01*
Y17937D01*
X22684D01*
Y17929D01*
Y17921D01*
X22676D01*
Y17912D01*
Y17904D01*
Y17896D01*
X22659D01*
Y17904D01*
X22651D01*
Y17912D01*
X22643D01*
Y17921D01*
X22635D01*
Y17929D01*
Y17937D01*
X22626D01*
Y17945D01*
Y17954D01*
X22618D01*
Y17945D01*
X22585D01*
Y17937D01*
Y17929D01*
Y17921D01*
Y17912D01*
Y17904D01*
X22577D01*
Y17896D01*
Y17887D01*
Y17879D01*
X22552D01*
Y17887D01*
Y17896D01*
X22544D01*
Y17904D01*
Y17912D01*
X22535D01*
Y17921D01*
Y17929D01*
Y17937D01*
X22502D01*
Y17945D01*
X22494D01*
Y17937D01*
Y17929D01*
X22486D01*
Y17921D01*
Y17912D01*
X22477D01*
Y17904D01*
Y17896D01*
X22469D01*
Y17887D01*
X22461D01*
Y17879D01*
X22453D01*
Y17887D01*
X22444D01*
Y17896D01*
Y17904D01*
Y17912D01*
Y17921D01*
Y17929D01*
Y17937D01*
Y17945D01*
Y17954D01*
X22428D01*
Y17962D01*
X22403D01*
Y17954D01*
X22395D01*
Y17945D01*
X22386D01*
Y17937D01*
X22378D01*
Y17929D01*
X22370D01*
Y17921D01*
X22362D01*
Y17912D01*
X22353D01*
Y17921D01*
X22345D01*
Y17929D01*
Y17937D01*
Y17945D01*
Y17954D01*
X22353D01*
Y17962D01*
Y17970D01*
Y17978D01*
Y17987D01*
Y17995D01*
X22337D01*
Y18003D01*
X22312D01*
Y17995D01*
X22304D01*
Y17987D01*
X22295D01*
Y17978D01*
X22279D01*
Y17970D01*
X22262D01*
Y17978D01*
X22254D01*
Y17987D01*
X22262D01*
Y17995D01*
Y18003D01*
Y18012D01*
X22271D01*
Y18020D01*
Y18028D01*
X22279D01*
Y18036D01*
X22287D01*
Y18045D01*
X22279D01*
Y18053D01*
X22271D01*
Y18061D01*
X22262D01*
Y18069D01*
X22246D01*
Y18061D01*
X22229D01*
Y18053D01*
X22204D01*
Y18045D01*
X22196D01*
Y18053D01*
X22188D01*
Y18061D01*
Y18069D01*
X22196D01*
Y18078D01*
Y18086D01*
X22204D01*
Y18094D01*
X22213D01*
Y18103D01*
X22221D01*
Y18111D01*
Y18119D01*
Y18127D01*
X22213D01*
Y18136D01*
Y18144D01*
X22180D01*
Y18136D01*
X22138D01*
Y18144D01*
Y18152D01*
Y18161D01*
X22146D01*
Y18169D01*
X22155D01*
Y18177D01*
X22163D01*
Y18185D01*
X22180D01*
Y18194D01*
X22188D01*
Y18202D01*
Y18210D01*
X22180D01*
Y18218D01*
Y18227D01*
Y18235D01*
X22130D01*
Y18243D01*
X22113D01*
Y18252D01*
Y18260D01*
Y18268D01*
X22105D01*
Y18260D01*
X22080D01*
Y18252D01*
Y18243D01*
Y18235D01*
Y18227D01*
X22089D01*
Y18218D01*
X22122D01*
Y18210D01*
X22138D01*
Y18202D01*
Y18194D01*
X22130D01*
Y18185D01*
X22105D01*
Y18177D01*
X22089D01*
Y18169D01*
X22080D01*
Y18161D01*
Y18152D01*
Y18144D01*
X22089D01*
Y18136D01*
X22105D01*
Y18127D01*
X22122D01*
Y18119D01*
X22130D01*
Y18111D01*
Y18103D01*
X22072D01*
Y18094D01*
X22064D01*
Y18086D01*
Y18078D01*
X22055D01*
Y18069D01*
X22064D01*
Y18061D01*
X22072D01*
Y18053D01*
X22080D01*
Y18045D01*
X22089D01*
Y18036D01*
X22097D01*
Y18028D01*
Y18020D01*
X22064D01*
Y18028D01*
X22047D01*
Y18036D01*
X22039D01*
Y18028D01*
X22031D01*
Y18020D01*
X22022D01*
Y18012D01*
X22014D01*
Y18003D01*
X22022D01*
Y17995D01*
X22031D01*
Y17987D01*
Y17978D01*
X22039D01*
Y17970D01*
Y17962D01*
X22047D01*
Y17954D01*
X22039D01*
Y17945D01*
X22031D01*
Y17954D01*
X22014D01*
Y17962D01*
X21998D01*
Y17970D01*
X21973D01*
Y17962D01*
X21964D01*
Y17954D01*
Y17945D01*
Y17937D01*
X21973D01*
Y17929D01*
Y17921D01*
Y17912D01*
Y17904D01*
X21981D01*
Y17896D01*
X21956D01*
Y17904D01*
X21948D01*
Y17912D01*
X21940D01*
Y17921D01*
X21931D01*
Y17929D01*
X21915D01*
Y17921D01*
X21898D01*
Y17912D01*
Y17904D01*
Y17896D01*
Y17887D01*
Y17879D01*
Y17871D01*
Y17863D01*
Y17854D01*
X21882D01*
Y17863D01*
X21873D01*
Y17871D01*
X21865D01*
Y17879D01*
Y17887D01*
X21857D01*
Y17896D01*
Y17904D01*
X21840D01*
Y17896D01*
X21815D01*
Y17887D01*
Y17879D01*
Y17871D01*
Y17863D01*
Y17854D01*
Y17846D01*
X21807D01*
Y17838D01*
X21791D01*
Y17846D01*
Y17854D01*
Y17863D01*
X21782D01*
Y17871D01*
Y17879D01*
Y17887D01*
Y17896D01*
X21741D01*
Y17887D01*
Y17879D01*
X21733D01*
Y17871D01*
Y17863D01*
X21724D01*
Y17854D01*
Y17846D01*
X21708D01*
Y17854D01*
X21700D01*
Y17863D01*
Y17871D01*
Y17879D01*
Y17887D01*
Y17896D01*
Y17904D01*
X21683D01*
Y17912D01*
X21667D01*
Y17904D01*
X21658D01*
Y17896D01*
X21650D01*
Y17887D01*
X21642D01*
Y17879D01*
X21633D01*
Y17871D01*
X21625D01*
Y17879D01*
X21617D01*
Y17887D01*
Y17896D01*
Y17904D01*
X21625D01*
Y17912D01*
Y17921D01*
Y17929D01*
Y17937D01*
X21617D01*
Y17945D01*
X21592D01*
Y17937D01*
X21584D01*
Y17929D01*
X21567D01*
Y17921D01*
X21551D01*
Y17929D01*
Y17937D01*
Y17945D01*
Y17954D01*
X21559D01*
Y17962D01*
Y17970D01*
X21567D01*
Y17978D01*
Y17987D01*
X21559D01*
Y17995D01*
X21551D01*
Y18003D01*
X21534D01*
Y17995D01*
X21518D01*
Y17987D01*
X21484D01*
Y17995D01*
Y18003D01*
X21493D01*
Y18012D01*
X21501D01*
Y18020D01*
X21509D01*
Y18028D01*
X21518D01*
Y18036D01*
Y18045D01*
Y18053D01*
X21509D01*
Y18061D01*
X21501D01*
Y18069D01*
X21493D01*
Y18061D01*
X21443D01*
Y18069D01*
Y18078D01*
X21451D01*
Y18086D01*
X21460D01*
Y18094D01*
X21476D01*
Y18103D01*
X21484D01*
Y18111D01*
Y18119D01*
Y18127D01*
Y18136D01*
X21476D01*
Y18144D01*
X21468D01*
Y18136D01*
X21451D01*
Y18144D01*
X21427D01*
Y18152D01*
X21418D01*
Y18161D01*
X21427D01*
Y18169D01*
X21443D01*
Y18177D01*
X21476D01*
Y18185D01*
Y18194D01*
Y18202D01*
Y18210D01*
Y18218D01*
X21451D01*
Y18227D01*
X21435D01*
Y18235D01*
X21418D01*
Y18243D01*
Y18252D01*
X21443D01*
Y18260D01*
X21476D01*
Y18268D01*
X21484D01*
Y18276D01*
Y18285D01*
Y18293D01*
X21476D01*
Y18301D01*
X21468D01*
Y18309D01*
X21451D01*
Y18318D01*
X21443D01*
Y18326D01*
Y18334D01*
X21451D01*
Y18343D01*
X21476D01*
Y18334D01*
X21509D01*
Y18343D01*
Y18351D01*
X21518D01*
Y18359D01*
Y18367D01*
X21509D01*
Y18376D01*
X21501D01*
Y18384D01*
X21493D01*
Y18392D01*
Y18400D01*
X21484D01*
Y18409D01*
X21493D01*
Y18417D01*
X21501D01*
Y18409D01*
X21526D01*
Y18400D01*
X21551D01*
Y18409D01*
X21559D01*
Y18417D01*
X21567D01*
Y18425D01*
Y18434D01*
X21559D01*
Y18442D01*
X21551D01*
Y18450D01*
Y18458D01*
Y18467D01*
X21542D01*
Y18475D01*
X21551D01*
Y18483D01*
X21559D01*
Y18475D01*
X21576D01*
Y18467D01*
X21584D01*
Y18458D01*
X21592D01*
Y18450D01*
X21609D01*
Y18458D01*
X21625D01*
Y18467D01*
X21633D01*
Y18475D01*
X21625D01*
Y18483D01*
Y18492D01*
Y18500D01*
X21617D01*
Y18508D01*
Y18516D01*
Y18525D01*
X21642D01*
Y18516D01*
X21650D01*
Y18508D01*
X21658D01*
Y18500D01*
Y18492D01*
X21667D01*
Y18483D01*
X21675D01*
Y18492D01*
X21700D01*
Y18500D01*
Y18508D01*
Y18516D01*
Y18525D01*
Y18533D01*
Y18541D01*
X21708D01*
Y18549D01*
X21724D01*
Y18541D01*
Y18533D01*
X21733D01*
Y18525D01*
Y18516D01*
X21741D01*
Y18508D01*
X21782D01*
Y18516D01*
Y18525D01*
Y18533D01*
Y18541D01*
X21791D01*
Y18549D01*
Y18558D01*
X21807D01*
Y18549D01*
X21815D01*
Y18541D01*
Y18533D01*
Y18525D01*
Y18516D01*
Y18508D01*
Y18500D01*
X21857D01*
Y18508D01*
X21865D01*
Y18516D01*
Y18525D01*
X21873D01*
Y18533D01*
X21882D01*
Y18541D01*
X21898D01*
Y18533D01*
Y18525D01*
Y18516D01*
Y18508D01*
Y18500D01*
Y18492D01*
Y18483D01*
Y18475D01*
X21915D01*
Y18467D01*
X21931D01*
Y18475D01*
Y18483D01*
X21940D01*
Y18492D01*
X21956D01*
Y18500D01*
X21964D01*
Y18508D01*
X21973D01*
Y18500D01*
X21981D01*
Y18492D01*
X21973D01*
Y18483D01*
Y18475D01*
Y18467D01*
X21964D01*
Y18458D01*
Y18450D01*
Y18442D01*
X21973D01*
Y18434D01*
X21981D01*
Y18425D01*
X21998D01*
Y18434D01*
X22006D01*
Y18442D01*
X22031D01*
Y18450D01*
X22039D01*
Y18442D01*
X22047D01*
Y18434D01*
X22039D01*
Y18425D01*
Y18417D01*
X22031D01*
Y18409D01*
X22022D01*
Y18400D01*
X22014D01*
Y18392D01*
X22022D01*
Y18384D01*
Y18376D01*
X22031D01*
Y18367D01*
X22055D01*
Y18376D01*
X22097D01*
Y18367D01*
Y18359D01*
X22089D01*
Y18351D01*
X22080D01*
Y18343D01*
X22072D01*
Y18334D01*
X22055D01*
Y18326D01*
Y18318D01*
X22064D01*
Y18309D01*
Y18301D01*
X22072D01*
Y18293D01*
X22080D01*
Y18301D01*
X22113D01*
Y18293D01*
X22130D01*
Y18285D01*
Y18276D01*
X22155D01*
Y18285D01*
X22171D01*
Y18293D01*
Y18301D01*
Y18309D01*
Y18318D01*
Y18326D01*
X22155D01*
Y18334D01*
X22130D01*
Y18343D01*
X22122D01*
Y18351D01*
X22113D01*
Y18359D01*
Y18367D01*
X22122D01*
Y18376D01*
X22180D01*
Y18384D01*
Y18392D01*
Y18400D01*
X22188D01*
Y18409D01*
Y18417D01*
X22180D01*
Y18425D01*
X22163D01*
Y18434D01*
X22155D01*
Y18442D01*
X22146D01*
Y18450D01*
X22138D01*
Y18458D01*
Y18467D01*
Y18475D01*
X22180D01*
Y18467D01*
X22213D01*
Y18475D01*
Y18483D01*
X22221D01*
Y18492D01*
Y18500D01*
Y18508D01*
X22213D01*
Y18516D01*
X22204D01*
Y18525D01*
X22196D01*
Y18533D01*
Y18541D01*
X22188D01*
Y18549D01*
Y18558D01*
X22196D01*
Y18566D01*
X22204D01*
Y18558D01*
X22229D01*
Y18549D01*
X22246D01*
Y18541D01*
X22262D01*
Y18549D01*
X22271D01*
Y18558D01*
X22279D01*
Y18566D01*
X22287D01*
Y18574D01*
X22279D01*
Y18583D01*
X22271D01*
Y18591D01*
Y18599D01*
X22262D01*
Y18607D01*
Y18616D01*
Y18624D01*
X22254D01*
Y18632D01*
X22262D01*
Y18640D01*
X22279D01*
Y18632D01*
X22295D01*
Y18624D01*
X22304D01*
Y18616D01*
X22312D01*
Y18607D01*
X22337D01*
Y18616D01*
X22353D01*
Y18624D01*
X22362D01*
Y18632D01*
X22353D01*
Y18640D01*
Y18649D01*
Y18657D01*
X22345D01*
Y18665D01*
Y18674D01*
Y18682D01*
Y18690D01*
X22353D01*
Y18698D01*
X22362D01*
Y18690D01*
X22370D01*
Y18682D01*
X22386D01*
Y18674D01*
Y18665D01*
X22395D01*
Y18657D01*
X22403D01*
Y18649D01*
X22428D01*
Y18657D01*
X22444D01*
Y18665D01*
Y18674D01*
Y18682D01*
Y18690D01*
Y18698D01*
Y18707D01*
Y18715D01*
Y18723D01*
X22453D01*
Y18731D01*
X22469D01*
Y18723D01*
Y18715D01*
X22477D01*
Y18707D01*
X22486D01*
Y18698D01*
Y18690D01*
Y18682D01*
X22494D01*
Y18674D01*
X22535D01*
Y18682D01*
Y18690D01*
Y18698D01*
X22544D01*
Y18707D01*
Y18715D01*
X22552D01*
Y18723D01*
Y18731D01*
X22577D01*
Y18723D01*
D02*
G37*
%LPC*%
G36*
X22668Y19062D02*
X22659D01*
Y19054D01*
Y19046D01*
Y19038D01*
Y19029D01*
X22651D01*
Y19021D01*
Y19013D01*
Y19005D01*
Y18996D01*
Y18988D01*
Y18980D01*
Y18971D01*
Y18963D01*
X22659D01*
Y18955D01*
Y18947D01*
Y18938D01*
X22668D01*
Y18947D01*
Y18955D01*
Y18963D01*
Y18971D01*
Y18980D01*
Y18988D01*
Y18996D01*
Y19005D01*
Y19013D01*
Y19021D01*
Y19029D01*
Y19038D01*
Y19046D01*
Y19054D01*
Y19062D01*
D02*
G37*
G36*
X22221D02*
X22213D01*
Y19054D01*
Y19046D01*
Y19038D01*
Y19029D01*
Y19021D01*
Y19013D01*
Y19005D01*
Y18996D01*
Y18988D01*
Y18980D01*
Y18971D01*
Y18963D01*
Y18955D01*
Y18947D01*
Y18938D01*
X22221D01*
Y18947D01*
Y18955D01*
Y18963D01*
Y18971D01*
Y18980D01*
Y18988D01*
Y18996D01*
Y19005D01*
Y19013D01*
Y19021D01*
Y19029D01*
Y19038D01*
Y19046D01*
Y19054D01*
Y19062D01*
D02*
G37*
G36*
X22659Y19079D02*
X22626D01*
Y19071D01*
Y19062D01*
Y19054D01*
Y19046D01*
Y19038D01*
Y19029D01*
Y19021D01*
Y19013D01*
Y19005D01*
Y18996D01*
Y18988D01*
Y18980D01*
Y18971D01*
Y18963D01*
Y18955D01*
Y18947D01*
Y18938D01*
Y18930D01*
Y18922D01*
Y18914D01*
X22659D01*
Y18922D01*
X22651D01*
Y18930D01*
Y18938D01*
Y18947D01*
X22643D01*
Y18955D01*
Y18963D01*
Y18971D01*
Y18980D01*
Y18988D01*
X22635D01*
Y18996D01*
Y19005D01*
X22643D01*
Y19013D01*
Y19021D01*
Y19029D01*
Y19038D01*
Y19046D01*
Y19054D01*
X22651D01*
Y19062D01*
Y19071D01*
X22659D01*
Y19079D01*
D02*
G37*
G36*
X22610D02*
X22560D01*
Y19071D01*
Y19062D01*
Y19054D01*
Y19046D01*
Y19038D01*
Y19029D01*
Y19021D01*
Y19013D01*
Y19005D01*
Y18996D01*
Y18988D01*
Y18980D01*
Y18971D01*
Y18963D01*
Y18955D01*
Y18947D01*
Y18938D01*
Y18930D01*
Y18922D01*
Y18914D01*
X22610D01*
Y18922D01*
Y18930D01*
Y18938D01*
Y18947D01*
Y18955D01*
Y18963D01*
Y18971D01*
Y18980D01*
Y18988D01*
Y18996D01*
Y19005D01*
Y19013D01*
Y19021D01*
Y19029D01*
Y19038D01*
Y19046D01*
Y19054D01*
Y19062D01*
Y19071D01*
Y19079D01*
D02*
G37*
G36*
X22544D02*
X22519D01*
Y19071D01*
Y19062D01*
Y19054D01*
Y19046D01*
Y19038D01*
Y19029D01*
Y19021D01*
Y19013D01*
Y19005D01*
Y18996D01*
Y18988D01*
Y18980D01*
Y18971D01*
Y18963D01*
Y18955D01*
Y18947D01*
Y18938D01*
Y18930D01*
Y18922D01*
Y18914D01*
X22544D01*
Y18922D01*
Y18930D01*
Y18938D01*
Y18947D01*
Y18955D01*
Y18963D01*
Y18971D01*
Y18980D01*
Y18988D01*
Y18996D01*
Y19005D01*
Y19013D01*
Y19021D01*
Y19029D01*
Y19038D01*
Y19046D01*
Y19054D01*
Y19062D01*
Y19071D01*
Y19079D01*
D02*
G37*
G36*
X22511D02*
X22453D01*
Y19071D01*
Y19062D01*
Y19054D01*
Y19046D01*
Y19038D01*
Y19029D01*
Y19021D01*
Y19013D01*
Y19005D01*
Y18996D01*
Y18988D01*
Y18980D01*
Y18971D01*
Y18963D01*
Y18955D01*
Y18947D01*
Y18938D01*
Y18930D01*
Y18922D01*
Y18914D01*
X22511D01*
Y18922D01*
Y18930D01*
Y18938D01*
Y18947D01*
Y18955D01*
Y18963D01*
Y18971D01*
Y18980D01*
Y18988D01*
Y18996D01*
Y19005D01*
Y19013D01*
Y19021D01*
Y19029D01*
Y19038D01*
Y19046D01*
Y19054D01*
Y19062D01*
Y19071D01*
Y19079D01*
D02*
G37*
G36*
X22436D02*
X22411D01*
Y19071D01*
Y19062D01*
Y19054D01*
Y19046D01*
Y19038D01*
Y19029D01*
Y19021D01*
Y19013D01*
Y19005D01*
Y18996D01*
Y18988D01*
Y18980D01*
Y18971D01*
Y18963D01*
Y18955D01*
Y18947D01*
Y18938D01*
Y18930D01*
Y18922D01*
Y18914D01*
X22436D01*
Y18922D01*
Y18930D01*
Y18938D01*
Y18947D01*
Y18955D01*
Y18963D01*
Y18971D01*
Y18980D01*
Y18988D01*
Y18996D01*
Y19005D01*
Y19013D01*
Y19021D01*
Y19029D01*
Y19038D01*
Y19046D01*
Y19054D01*
Y19062D01*
Y19071D01*
Y19079D01*
D02*
G37*
G36*
X22395D02*
X22345D01*
Y19071D01*
Y19062D01*
Y19054D01*
Y19046D01*
Y19038D01*
Y19029D01*
Y19021D01*
Y19013D01*
Y19005D01*
Y18996D01*
Y18988D01*
Y18980D01*
Y18971D01*
Y18963D01*
Y18955D01*
Y18947D01*
Y18938D01*
Y18930D01*
Y18922D01*
Y18914D01*
X22395D01*
Y18922D01*
Y18930D01*
Y18938D01*
Y18947D01*
Y18955D01*
Y18963D01*
Y18971D01*
Y18980D01*
Y18988D01*
Y18996D01*
Y19005D01*
Y19013D01*
Y19021D01*
Y19029D01*
Y19038D01*
Y19046D01*
Y19054D01*
Y19062D01*
Y19071D01*
Y19079D01*
D02*
G37*
G36*
X22328D02*
X22304D01*
Y19071D01*
Y19062D01*
Y19054D01*
Y19046D01*
Y19038D01*
Y19029D01*
Y19021D01*
Y19013D01*
Y19005D01*
Y18996D01*
Y18988D01*
Y18980D01*
Y18971D01*
Y18963D01*
Y18955D01*
Y18947D01*
Y18938D01*
Y18930D01*
Y18922D01*
Y18914D01*
X22328D01*
Y18922D01*
Y18930D01*
Y18938D01*
Y18947D01*
Y18955D01*
Y18963D01*
Y18971D01*
Y18980D01*
Y18988D01*
Y18996D01*
Y19005D01*
Y19013D01*
Y19021D01*
Y19029D01*
Y19038D01*
Y19046D01*
Y19054D01*
Y19062D01*
Y19071D01*
Y19079D01*
D02*
G37*
G36*
X22287D02*
X22237D01*
Y19071D01*
Y19062D01*
Y19054D01*
Y19046D01*
Y19038D01*
Y19029D01*
Y19021D01*
Y19013D01*
Y19005D01*
X22246D01*
Y18996D01*
X22237D01*
Y18988D01*
Y18980D01*
Y18971D01*
Y18963D01*
Y18955D01*
Y18947D01*
Y18938D01*
Y18930D01*
Y18922D01*
Y18914D01*
X22287D01*
Y18922D01*
Y18930D01*
Y18938D01*
Y18947D01*
Y18955D01*
Y18963D01*
Y18971D01*
Y18980D01*
Y18988D01*
Y18996D01*
Y19005D01*
Y19013D01*
Y19021D01*
Y19029D01*
Y19038D01*
Y19046D01*
Y19054D01*
Y19062D01*
Y19071D01*
Y19079D01*
D02*
G37*
G36*
X22709Y19087D02*
X22684D01*
Y19079D01*
Y19071D01*
Y19062D01*
Y19054D01*
Y19046D01*
Y19038D01*
Y19029D01*
Y19021D01*
Y19013D01*
Y19005D01*
Y18996D01*
Y18988D01*
Y18980D01*
Y18971D01*
Y18963D01*
Y18955D01*
Y18947D01*
Y18938D01*
Y18930D01*
Y18922D01*
Y18914D01*
Y18905D01*
X22701D01*
Y18914D01*
X22709D01*
Y18922D01*
X22717D01*
Y18930D01*
Y18938D01*
X22726D01*
Y18947D01*
Y18955D01*
Y18963D01*
X22717D01*
Y18971D01*
Y18980D01*
Y18988D01*
Y18996D01*
Y19005D01*
Y19013D01*
Y19021D01*
X22734D01*
Y19029D01*
X22726D01*
Y19038D01*
Y19046D01*
Y19054D01*
Y19062D01*
X22717D01*
Y19071D01*
Y19079D01*
X22709D01*
Y19087D01*
D02*
G37*
G36*
X22196D02*
X22171D01*
Y19079D01*
X22163D01*
Y19071D01*
Y19062D01*
X22155D01*
Y19054D01*
Y19046D01*
Y19038D01*
Y19029D01*
X22146D01*
Y19021D01*
Y19013D01*
Y19005D01*
X22138D01*
Y18996D01*
X22146D01*
Y18988D01*
Y18980D01*
Y18971D01*
X22155D01*
Y18963D01*
Y18955D01*
Y18947D01*
Y18938D01*
X22163D01*
Y18930D01*
Y18922D01*
X22171D01*
Y18914D01*
X22180D01*
Y18905D01*
X22196D01*
Y18914D01*
Y18922D01*
Y18930D01*
Y18938D01*
Y18947D01*
Y18955D01*
Y18963D01*
Y18971D01*
Y18980D01*
Y18988D01*
Y18996D01*
Y19005D01*
Y19013D01*
Y19021D01*
Y19029D01*
Y19038D01*
Y19046D01*
Y19054D01*
Y19062D01*
Y19071D01*
Y19079D01*
Y19087D01*
D02*
G37*
G36*
X22130Y18276D02*
X22113D01*
Y18268D01*
X22130D01*
Y18276D01*
D02*
G37*
G36*
X22610Y18599D02*
X22469D01*
Y18591D01*
X22436D01*
Y18583D01*
X22420D01*
Y18574D01*
X22403D01*
Y18566D01*
X22386D01*
Y18558D01*
X22370D01*
Y18549D01*
X22362D01*
Y18541D01*
X22345D01*
Y18533D01*
X22337D01*
Y18525D01*
X22328D01*
Y18516D01*
X22320D01*
Y18508D01*
X22312D01*
Y18500D01*
X22304D01*
Y18492D01*
X22295D01*
Y18483D01*
Y18475D01*
X22287D01*
Y18467D01*
X22279D01*
Y18458D01*
Y18450D01*
X22271D01*
Y18442D01*
Y18434D01*
X22262D01*
Y18425D01*
Y18417D01*
X22254D01*
Y18409D01*
Y18400D01*
Y18392D01*
X22246D01*
Y18384D01*
Y18376D01*
Y18367D01*
Y18359D01*
X22237D01*
Y18351D01*
Y18343D01*
Y18334D01*
Y18326D01*
Y18318D01*
Y18309D01*
Y18301D01*
Y18293D01*
Y18285D01*
Y18276D01*
Y18268D01*
Y18260D01*
Y18252D01*
Y18243D01*
X22246D01*
Y18235D01*
Y18227D01*
Y18218D01*
Y18210D01*
X22254D01*
Y18202D01*
Y18194D01*
Y18185D01*
X22262D01*
Y18177D01*
Y18169D01*
X22271D01*
Y18161D01*
Y18152D01*
X22279D01*
Y18144D01*
Y18136D01*
X22287D01*
Y18127D01*
X22295D01*
Y18119D01*
X22304D01*
Y18111D01*
Y18103D01*
X22312D01*
Y18094D01*
X22320D01*
Y18086D01*
X22328D01*
Y18078D01*
X22337D01*
Y18069D01*
X22345D01*
Y18061D01*
X22362D01*
Y18053D01*
X22370D01*
Y18045D01*
X22386D01*
Y18036D01*
X22403D01*
Y18028D01*
X22420D01*
Y18020D01*
X22436D01*
Y18012D01*
X22469D01*
Y18003D01*
X22602D01*
Y18012D01*
X22635D01*
Y18020D01*
X22659D01*
Y18028D01*
X22676D01*
Y18036D01*
X22693D01*
Y18045D01*
X22701D01*
Y18053D01*
X22717D01*
Y18061D01*
X22726D01*
Y18069D01*
X22734D01*
Y18078D01*
X22742D01*
Y18086D01*
X22750D01*
Y18094D01*
X22759D01*
Y18103D01*
X22767D01*
Y18111D01*
X22775D01*
Y18119D01*
X22784D01*
Y18127D01*
X22792D01*
Y18136D01*
Y18144D01*
X22800D01*
Y18152D01*
Y18161D01*
X22808D01*
Y18169D01*
Y18177D01*
X22817D01*
Y18185D01*
Y18194D01*
X22825D01*
Y18202D01*
Y18210D01*
Y18218D01*
X22833D01*
Y18227D01*
Y18235D01*
Y18243D01*
Y18252D01*
Y18260D01*
Y18268D01*
X22842D01*
Y18276D01*
Y18285D01*
Y18293D01*
Y18301D01*
Y18309D01*
Y18318D01*
Y18326D01*
Y18334D01*
X22833D01*
Y18343D01*
Y18351D01*
Y18359D01*
Y18367D01*
Y18376D01*
Y18384D01*
X22825D01*
Y18392D01*
Y18400D01*
Y18409D01*
X22817D01*
Y18417D01*
Y18425D01*
X22808D01*
Y18434D01*
Y18442D01*
X22800D01*
Y18450D01*
Y18458D01*
X22792D01*
Y18467D01*
Y18475D01*
X22784D01*
Y18483D01*
X22775D01*
Y18492D01*
X22767D01*
Y18500D01*
X22759D01*
Y18508D01*
Y18516D01*
X22742D01*
Y18525D01*
X22734D01*
Y18533D01*
X22726D01*
Y18541D01*
X22717D01*
Y18549D01*
X22701D01*
Y18558D01*
X22693D01*
Y18566D01*
X22676D01*
Y18574D01*
X22659D01*
Y18583D01*
X22635D01*
Y18591D01*
X22610D01*
Y18599D01*
D02*
G37*
G36*
X21815Y18450D02*
X21741D01*
Y18442D01*
X21700D01*
Y18434D01*
X21683D01*
Y18425D01*
X21667D01*
Y18417D01*
X21650D01*
Y18409D01*
X21633D01*
Y18400D01*
X21625D01*
Y18392D01*
X21617D01*
Y18384D01*
X21600D01*
Y18376D01*
X21592D01*
Y18367D01*
Y18359D01*
X21584D01*
Y18351D01*
X21576D01*
Y18343D01*
X21567D01*
Y18334D01*
Y18326D01*
X21559D01*
Y18318D01*
X21551D01*
Y18309D01*
Y18301D01*
Y18293D01*
X21542D01*
Y18285D01*
Y18276D01*
X21534D01*
Y18268D01*
Y18260D01*
Y18252D01*
Y18243D01*
Y18235D01*
X21526D01*
Y18227D01*
Y18218D01*
Y18210D01*
Y18202D01*
Y18194D01*
Y18185D01*
Y18177D01*
Y18169D01*
Y18161D01*
Y18152D01*
X21534D01*
Y18144D01*
Y18136D01*
Y18127D01*
Y18119D01*
X21542D01*
Y18111D01*
Y18103D01*
Y18094D01*
X21551D01*
Y18086D01*
Y18078D01*
X21559D01*
Y18069D01*
Y18061D01*
X21567D01*
Y18053D01*
X21576D01*
Y18045D01*
Y18036D01*
X21584D01*
Y18028D01*
X21592D01*
Y18020D01*
X21600D01*
Y18012D01*
X21609D01*
Y18003D01*
X21617D01*
Y17995D01*
X21625D01*
Y17987D01*
X21642D01*
Y17978D01*
X21658D01*
Y17970D01*
X21667D01*
Y17962D01*
X21691D01*
Y17954D01*
X21716D01*
Y17945D01*
X21840D01*
Y17954D01*
X21865D01*
Y17962D01*
X21890D01*
Y17970D01*
X21906D01*
Y17978D01*
X21923D01*
Y17987D01*
X21931D01*
Y17995D01*
X21940D01*
Y18003D01*
X21948D01*
Y18012D01*
X21964D01*
Y18020D01*
Y18028D01*
X21973D01*
Y18036D01*
X21981D01*
Y18045D01*
X21989D01*
Y18053D01*
X21998D01*
Y18061D01*
Y18069D01*
X22006D01*
Y18078D01*
Y18086D01*
X22014D01*
Y18094D01*
Y18103D01*
Y18111D01*
X22022D01*
Y18119D01*
Y18127D01*
Y18136D01*
X22031D01*
Y18144D01*
Y18152D01*
Y18161D01*
Y18169D01*
Y18177D01*
Y18185D01*
Y18194D01*
Y18202D01*
Y18210D01*
Y18218D01*
Y18227D01*
Y18235D01*
Y18243D01*
Y18252D01*
Y18260D01*
X22022D01*
Y18268D01*
Y18276D01*
Y18285D01*
X22014D01*
Y18293D01*
Y18301D01*
X22006D01*
Y18309D01*
Y18318D01*
X21998D01*
Y18326D01*
Y18334D01*
X21989D01*
Y18343D01*
X21981D01*
Y18351D01*
Y18359D01*
X21973D01*
Y18367D01*
X21964D01*
Y18376D01*
X21956D01*
Y18384D01*
X21948D01*
Y18392D01*
X21940D01*
Y18400D01*
X21923D01*
Y18409D01*
X21915D01*
Y18417D01*
X21898D01*
Y18425D01*
X21882D01*
Y18434D01*
X21857D01*
Y18442D01*
X21815D01*
Y18450D01*
D02*
G37*
%LPD*%
G36*
X22560Y18384D02*
X22577D01*
Y18376D01*
X22593D01*
Y18367D01*
X22602D01*
Y18359D01*
X22610D01*
Y18351D01*
Y18343D01*
X22618D01*
Y18334D01*
Y18326D01*
X22626D01*
Y18318D01*
Y18309D01*
Y18301D01*
Y18293D01*
Y18285D01*
X22618D01*
Y18276D01*
Y18268D01*
X22610D01*
Y18260D01*
Y18252D01*
X22602D01*
Y18243D01*
X22593D01*
Y18235D01*
X22585D01*
Y18227D01*
X22560D01*
Y18218D01*
X22519D01*
Y18227D01*
X22494D01*
Y18235D01*
X22486D01*
Y18243D01*
X22477D01*
Y18252D01*
X22469D01*
Y18260D01*
X22461D01*
Y18268D01*
Y18276D01*
Y18285D01*
X22453D01*
Y18293D01*
Y18301D01*
Y18309D01*
Y18318D01*
Y18326D01*
X22461D01*
Y18334D01*
Y18343D01*
X22469D01*
Y18351D01*
Y18359D01*
X22477D01*
Y18367D01*
X22486D01*
Y18376D01*
X22502D01*
Y18384D01*
X22519D01*
Y18392D01*
X22560D01*
Y18384D01*
D02*
G37*
G36*
X21807Y18260D02*
X21824D01*
Y18252D01*
X21832D01*
Y18243D01*
X21840D01*
Y18235D01*
Y18227D01*
X21849D01*
Y18218D01*
Y18210D01*
Y18202D01*
Y18194D01*
Y18185D01*
Y18177D01*
Y18169D01*
X21840D01*
Y18161D01*
Y18152D01*
X21832D01*
Y18144D01*
X21824D01*
Y18136D01*
X21807D01*
Y18127D01*
X21758D01*
Y18136D01*
X21741D01*
Y18144D01*
X21733D01*
Y18152D01*
X21724D01*
Y18161D01*
X21716D01*
Y18169D01*
Y18177D01*
Y18185D01*
X21708D01*
Y18194D01*
Y18202D01*
Y18210D01*
Y18218D01*
X21716D01*
Y18227D01*
Y18235D01*
X21724D01*
Y18243D01*
X21733D01*
Y18252D01*
X21741D01*
Y18260D01*
X21758D01*
Y18268D01*
X21807D01*
Y18260D01*
D02*
G37*
G36*
X21815Y17250D02*
Y17242D01*
X21807D01*
Y17234D01*
Y17226D01*
X21799D01*
Y17217D01*
Y17209D01*
X21791D01*
Y17201D01*
X21782D01*
Y17192D01*
Y17184D01*
X21774D01*
Y17176D01*
Y17168D01*
X21766D01*
Y17159D01*
X21758D01*
Y17151D01*
Y17143D01*
X21749D01*
Y17134D01*
Y17126D01*
X21741D01*
Y17118D01*
X21733D01*
Y17110D01*
Y17101D01*
X21724D01*
Y17093D01*
Y17085D01*
X21716D01*
Y17077D01*
X21708D01*
Y17068D01*
Y17060D01*
X21700D01*
Y17052D01*
X21691D01*
Y17043D01*
Y17035D01*
X21683D01*
Y17027D01*
Y17019D01*
X21675D01*
Y17010D01*
X21667D01*
Y17002D01*
Y16994D01*
X21658D01*
Y16986D01*
X21650D01*
Y16977D01*
Y16969D01*
X21642D01*
Y16961D01*
X21633D01*
Y16952D01*
Y16944D01*
X21625D01*
Y16936D01*
X21617D01*
Y16928D01*
Y16919D01*
X21609D01*
Y16911D01*
X21600D01*
Y16903D01*
Y16895D01*
X21592D01*
Y16886D01*
X21584D01*
Y16878D01*
Y16870D01*
X21576D01*
Y16861D01*
X21567D01*
Y16853D01*
Y16845D01*
X21559D01*
Y16837D01*
X21551D01*
Y16828D01*
Y16820D01*
X21542D01*
Y16812D01*
X21534D01*
Y16803D01*
Y16795D01*
X21526D01*
Y16787D01*
X21518D01*
Y16779D01*
X21509D01*
Y16770D01*
Y16762D01*
X21501D01*
Y16754D01*
X21493D01*
Y16746D01*
Y16737D01*
X21484D01*
Y16729D01*
X21476D01*
Y16721D01*
Y16712D01*
X21468D01*
Y16704D01*
X21460D01*
Y16696D01*
X21451D01*
Y16688D01*
Y16679D01*
X21443D01*
Y16671D01*
X21435D01*
Y16663D01*
Y16655D01*
X21427D01*
Y16646D01*
X21418D01*
Y16638D01*
X21410D01*
Y16630D01*
Y16621D01*
X21402D01*
Y16613D01*
X21393D01*
Y16605D01*
Y16597D01*
X21385D01*
Y16588D01*
X21377D01*
Y16580D01*
X21369D01*
Y16572D01*
Y16564D01*
X21360D01*
Y16555D01*
X21352D01*
Y16547D01*
X21344D01*
Y16539D01*
Y16530D01*
X21336D01*
Y16522D01*
X21327D01*
Y16514D01*
X21319D01*
Y16506D01*
X21311D01*
Y16497D01*
Y16489D01*
X21302D01*
Y16481D01*
X21294D01*
Y16473D01*
X21286D01*
Y16464D01*
X21278D01*
Y16473D01*
Y16481D01*
X21286D01*
Y16489D01*
Y16497D01*
X21294D01*
Y16506D01*
Y16514D01*
X21302D01*
Y16522D01*
Y16530D01*
X21311D01*
Y16539D01*
X21319D01*
Y16547D01*
Y16555D01*
X21327D01*
Y16564D01*
Y16572D01*
X21336D01*
Y16580D01*
X21344D01*
Y16588D01*
Y16597D01*
X21352D01*
Y16605D01*
Y16613D01*
X21360D01*
Y16621D01*
X21369D01*
Y16630D01*
Y16638D01*
X21377D01*
Y16646D01*
Y16655D01*
X21385D01*
Y16663D01*
X21393D01*
Y16671D01*
Y16679D01*
X21402D01*
Y16688D01*
X21410D01*
Y16696D01*
Y16704D01*
X21418D01*
Y16712D01*
X21427D01*
Y16721D01*
Y16729D01*
X21435D01*
Y16737D01*
X21443D01*
Y16746D01*
Y16754D01*
X21451D01*
Y16762D01*
X21460D01*
Y16770D01*
Y16779D01*
X21468D01*
Y16787D01*
X21476D01*
Y16795D01*
Y16803D01*
X21484D01*
Y16812D01*
X21493D01*
Y16820D01*
Y16828D01*
X21501D01*
Y16837D01*
X21509D01*
Y16845D01*
Y16853D01*
X21518D01*
Y16861D01*
X21526D01*
Y16870D01*
Y16878D01*
X21534D01*
Y16886D01*
X21542D01*
Y16895D01*
Y16903D01*
X21551D01*
Y16911D01*
X21559D01*
Y16919D01*
Y16928D01*
X21567D01*
Y16936D01*
X21576D01*
Y16944D01*
Y16952D01*
X21584D01*
Y16961D01*
X21592D01*
Y16969D01*
Y16977D01*
X21600D01*
Y16986D01*
X21609D01*
Y16994D01*
X21617D01*
Y17002D01*
Y17010D01*
X21625D01*
Y17019D01*
X21633D01*
Y17027D01*
Y17035D01*
X21642D01*
Y17043D01*
X21650D01*
Y17052D01*
Y17060D01*
X21658D01*
Y17068D01*
X21667D01*
Y17077D01*
X21675D01*
Y17085D01*
Y17093D01*
X21683D01*
Y17101D01*
X21691D01*
Y17110D01*
X21700D01*
Y17118D01*
Y17126D01*
X21708D01*
Y17134D01*
X21716D01*
Y17143D01*
X21724D01*
Y17151D01*
Y17159D01*
X21733D01*
Y17168D01*
X21741D01*
Y17176D01*
X21749D01*
Y17184D01*
Y17192D01*
X21758D01*
Y17201D01*
X21766D01*
Y17209D01*
X21774D01*
Y17217D01*
Y17226D01*
X21782D01*
Y17234D01*
X21791D01*
Y17242D01*
X21799D01*
Y17250D01*
X21807D01*
Y17259D01*
X21815D01*
Y17250D01*
D02*
G37*
G36*
X21278Y16456D02*
X21269D01*
Y16464D01*
X21278D01*
Y16456D01*
D02*
G37*
G36*
X21840Y17242D02*
Y17234D01*
Y17226D01*
Y17217D01*
Y17209D01*
Y17201D01*
X21832D01*
Y17192D01*
Y17184D01*
Y17176D01*
Y17168D01*
Y17159D01*
Y17151D01*
X21824D01*
Y17143D01*
Y17134D01*
Y17126D01*
Y17118D01*
Y17110D01*
X21815D01*
Y17101D01*
Y17093D01*
Y17085D01*
Y17077D01*
X21807D01*
Y17068D01*
Y17060D01*
Y17052D01*
Y17043D01*
Y17035D01*
X21799D01*
Y17027D01*
Y17019D01*
Y17010D01*
Y17002D01*
Y16994D01*
X21791D01*
Y16986D01*
Y16977D01*
Y16969D01*
Y16961D01*
X21782D01*
Y16952D01*
Y16944D01*
Y16936D01*
Y16928D01*
X21774D01*
Y16919D01*
Y16911D01*
Y16903D01*
Y16895D01*
X21766D01*
Y16886D01*
Y16878D01*
Y16870D01*
Y16861D01*
Y16853D01*
X21758D01*
Y16845D01*
Y16837D01*
Y16828D01*
Y16820D01*
X21749D01*
Y16812D01*
Y16803D01*
Y16795D01*
Y16787D01*
X21741D01*
Y16779D01*
Y16770D01*
Y16762D01*
Y16754D01*
X21733D01*
Y16746D01*
Y16737D01*
Y16729D01*
Y16721D01*
X21724D01*
Y16712D01*
Y16704D01*
Y16696D01*
X21716D01*
Y16688D01*
Y16679D01*
Y16671D01*
Y16663D01*
X21708D01*
Y16655D01*
Y16646D01*
Y16638D01*
Y16630D01*
X21700D01*
Y16621D01*
Y16613D01*
Y16605D01*
Y16597D01*
X21691D01*
Y16588D01*
Y16580D01*
Y16572D01*
X21683D01*
Y16564D01*
Y16555D01*
Y16547D01*
Y16539D01*
X21675D01*
Y16530D01*
Y16522D01*
Y16514D01*
X21667D01*
Y16506D01*
Y16497D01*
Y16489D01*
Y16481D01*
X21658D01*
Y16473D01*
Y16464D01*
Y16456D01*
X21650D01*
Y16448D01*
Y16439D01*
Y16431D01*
Y16423D01*
X21642D01*
Y16415D01*
Y16406D01*
Y16398D01*
X21633D01*
Y16390D01*
Y16381D01*
Y16373D01*
X21625D01*
Y16365D01*
Y16357D01*
Y16348D01*
X21617D01*
Y16340D01*
Y16332D01*
X21609D01*
Y16324D01*
Y16315D01*
Y16307D01*
X21600D01*
Y16299D01*
Y16290D01*
X21592D01*
Y16299D01*
Y16307D01*
Y16315D01*
X21600D01*
Y16324D01*
Y16332D01*
Y16340D01*
Y16348D01*
Y16357D01*
Y16365D01*
X21609D01*
Y16373D01*
Y16381D01*
Y16390D01*
Y16398D01*
Y16406D01*
Y16415D01*
X21617D01*
Y16423D01*
Y16431D01*
Y16439D01*
Y16448D01*
Y16456D01*
X21625D01*
Y16464D01*
Y16473D01*
Y16481D01*
Y16489D01*
Y16497D01*
X21633D01*
Y16506D01*
Y16514D01*
Y16522D01*
Y16530D01*
X21642D01*
Y16539D01*
Y16547D01*
Y16555D01*
Y16564D01*
Y16572D01*
X21650D01*
Y16580D01*
Y16588D01*
Y16597D01*
Y16605D01*
X21658D01*
Y16613D01*
Y16621D01*
Y16630D01*
Y16638D01*
X21667D01*
Y16646D01*
Y16655D01*
Y16663D01*
Y16671D01*
X21675D01*
Y16679D01*
Y16688D01*
Y16696D01*
Y16704D01*
Y16712D01*
X21683D01*
Y16721D01*
Y16729D01*
Y16737D01*
Y16746D01*
X21691D01*
Y16754D01*
Y16762D01*
Y16770D01*
Y16779D01*
X21700D01*
Y16787D01*
Y16795D01*
Y16803D01*
Y16812D01*
X21708D01*
Y16820D01*
Y16828D01*
Y16837D01*
Y16845D01*
X21716D01*
Y16853D01*
Y16861D01*
Y16870D01*
X21724D01*
Y16878D01*
Y16886D01*
Y16895D01*
Y16903D01*
X21733D01*
Y16911D01*
Y16919D01*
Y16928D01*
Y16936D01*
X21741D01*
Y16944D01*
Y16952D01*
Y16961D01*
Y16969D01*
X21749D01*
Y16977D01*
Y16986D01*
Y16994D01*
X21758D01*
Y17002D01*
Y17010D01*
Y17019D01*
Y17027D01*
X21766D01*
Y17035D01*
Y17043D01*
Y17052D01*
X21774D01*
Y17060D01*
Y17068D01*
Y17077D01*
X21782D01*
Y17085D01*
Y17093D01*
Y17101D01*
Y17110D01*
X21791D01*
Y17118D01*
Y17126D01*
Y17134D01*
X21799D01*
Y17143D01*
Y17151D01*
Y17159D01*
X21807D01*
Y17168D01*
Y17176D01*
Y17184D01*
X21815D01*
Y17192D01*
Y17201D01*
Y17209D01*
X21824D01*
Y17217D01*
Y17226D01*
Y17234D01*
X21832D01*
Y17242D01*
Y17250D01*
X21840D01*
Y17242D01*
D02*
G37*
D18*
X25368Y18887D02*
X25495D01*
X25622Y18760D01*
Y18126D01*
X25241D01*
X25114Y18252D01*
Y18506D01*
X25241Y18633D01*
X25622D01*
X25876D02*
X26130D01*
X26003D01*
Y18126D01*
X25876D01*
X26638Y17999D02*
Y18126D01*
X26511D01*
X26765D01*
X26638D01*
Y18506D01*
X26765Y18633D01*
X27145Y17872D02*
Y18633D01*
Y18252D01*
X27272Y18126D01*
X27526D01*
X27653Y18252D01*
Y18633D01*
X27907Y18126D02*
Y18506D01*
X28034Y18633D01*
X28415D01*
Y18126D01*
X28669Y17872D02*
Y18633D01*
X29050D01*
X29177Y18506D01*
Y18379D01*
Y18252D01*
X29050Y18126D01*
X28669D01*
X29431Y18633D02*
Y18506D01*
X29558D01*
Y18633D01*
X29431D01*
X30573Y18126D02*
X30192D01*
X30066Y18252D01*
Y18506D01*
X30192Y18633D01*
X30573D01*
X30954D02*
X31208D01*
X31335Y18506D01*
Y18252D01*
X31208Y18126D01*
X30954D01*
X30827Y18252D01*
Y18506D01*
X30954Y18633D01*
X31589D02*
Y18126D01*
X31716D01*
X31843Y18252D01*
Y18633D01*
Y18252D01*
X31970Y18126D01*
X32097Y18252D01*
Y18633D01*
X32351D02*
X32859Y18126D01*
X33113Y18633D02*
Y18126D01*
X33239D01*
X33366Y18252D01*
Y18633D01*
Y18252D01*
X33493Y18126D01*
X33620Y18252D01*
Y18633D01*
X34001Y18126D02*
X34255D01*
X34382Y18252D01*
Y18633D01*
X34001D01*
X33874Y18506D01*
X34001Y18379D01*
X34382D01*
X34636Y18633D02*
Y18126D01*
X35017D01*
X35144Y18252D01*
Y18633D01*
X35906Y18126D02*
X35525D01*
X35398Y18252D01*
Y18506D01*
X35525Y18633D01*
X35906D01*
X36160D02*
X36413D01*
X36286D01*
Y18126D01*
X36160D01*
X36921Y18633D02*
X37175D01*
X37302Y18506D01*
Y18252D01*
X37175Y18126D01*
X36921D01*
X36794Y18252D01*
Y18506D01*
X36921Y18633D01*
X25622Y16068D02*
X25114D01*
Y16449D01*
X25368D01*
X25114D01*
Y16830D01*
X25876D02*
X26130D01*
X26003D01*
Y16068D01*
X25876D01*
X26511Y16322D02*
Y16703D01*
X26638Y16830D01*
X27018D01*
Y16957D01*
X26892Y17084D01*
X26765D01*
X27018Y16830D02*
Y16322D01*
X27272Y16068D02*
Y16830D01*
X27653D01*
X27780Y16703D01*
Y16576D01*
X27653Y16449D01*
X27272D01*
X27653D01*
X27780Y16322D01*
Y16195D01*
X27653Y16068D01*
X27272D01*
X28161Y16830D02*
X28415D01*
X28542Y16703D01*
Y16449D01*
X28415Y16322D01*
X28161D01*
X28034Y16449D01*
Y16703D01*
X28161Y16830D01*
X28796Y16322D02*
X29304Y16830D01*
X29050Y16576D01*
X29304Y16322D01*
X28796Y16830D01*
X30066D02*
X29558D01*
X30066Y16322D01*
Y16195D01*
X29939Y16068D01*
X29685D01*
X29558Y16195D01*
X31081Y16830D02*
Y16068D01*
X31335Y16322D01*
X31589Y16068D01*
Y16830D01*
X31970Y16322D02*
X32224D01*
X32351Y16449D01*
Y16830D01*
X31970D01*
X31843Y16703D01*
X31970Y16576D01*
X32351D01*
X32605Y16830D02*
X32859D01*
X32732D01*
Y16322D01*
X32605D01*
X33239Y16830D02*
Y16322D01*
X33620D01*
X33747Y16449D01*
Y16830D01*
X34763Y16068D02*
Y16830D01*
X35144D01*
X35271Y16703D01*
Y16576D01*
X35144Y16449D01*
X34763D01*
X35144D01*
X35271Y16322D01*
Y16195D01*
X35144Y16068D01*
X34763D01*
X35652Y16830D02*
X35906D01*
X36033Y16703D01*
Y16449D01*
X35906Y16322D01*
X35652D01*
X35525Y16449D01*
Y16703D01*
X35652Y16830D01*
X36413Y16322D02*
X36667D01*
X36794Y16449D01*
Y16830D01*
X36413D01*
X36286Y16703D01*
X36413Y16576D01*
X36794D01*
X37048Y16322D02*
Y16830D01*
Y16576D01*
X37175Y16449D01*
X37302Y16322D01*
X37429D01*
X38318Y16068D02*
Y16830D01*
X37937D01*
X37810Y16703D01*
Y16449D01*
X37937Y16322D01*
X38318D01*
%TF.MD5,b37193031f86e490552cd1e51726e6ad*%
M02*
