M48
;Layer_Color=9474304
;FILE_FORMAT=2:4
INCH,LZ
;TYPE=PLATED
T1F00S00C0.0280
T2F00S00C0.0354
%
T01
X01825Y01135
X01935Y0113
X0203
X00965Y0177
T02
X004685Y002854
X005685
X006685
X007685
X008685
X009685
X010685
X011685
X012685
X013685
X014685
X014681Y004508
X013681
X012681
X011681
X010681
X009681
X008681
X007681
X006681
X005681
X004681
X003Y004783
Y005783
Y006783
Y007783
Y008783
Y0115
Y0125
Y0135
Y0145
Y0155
X004724Y015173
Y014173
Y013173
X008681Y011398
X009681
X010681
X011681
X012681
X013681
X014681
X012598Y013142
Y014142
Y015142
X01063Y015173
Y014173
Y013173
X015681Y011398
X018504Y013142
Y014142
Y015142
X0208Y014976
Y013976
Y012976
X019681Y004508
X018681
X017681
X016681
X015681
X015685Y002854
X016685
X017685
X018685
X019685
X018504Y016142
Y017142
Y018142
Y019142
Y020142
Y021142
Y022142
Y023142
Y024142
X0208Y0234
Y0224
Y0214
Y0192
Y0182
Y0172
X012598Y017142
Y016142
Y018142
Y019142
Y020142
Y021142
Y022142
Y023142
Y024142
X01063Y024173
Y023173
Y022173
Y021173
Y020173
Y019173
Y018173
Y017173
Y016173
X004724
Y017173
Y018173
Y019173
Y020173
Y021173
Y022173
Y023173
Y024173
X003Y021587
Y020587
Y019587
Y018587
Y017587
M30
