%TF.GenerationSoftware,Altium Limited,Altium Designer,20.1.8 (145)*%
G04 Layer_Color=65535*
%FSLAX43Y43*%
%MOMM*%
%TF.SameCoordinates,5AABE4A0-D283-4886-96A5-05EAE877BFA1*%
%TF.FilePolarity,Positive*%
%TF.FileFunction,Legend,Top*%
%TF.Part,Single*%
G01*
G75*
%TA.AperFunction,NonConductor*%
%ADD16C,0.100*%
%ADD17C,0.254*%
%ADD18C,0.200*%
D16*
X34674Y33493D02*
X35182D01*
Y34001D01*
X35944D01*
Y33493D02*
Y34001D01*
Y33493D02*
X36452D01*
X37468D02*
X37976D01*
X37468D02*
Y34001D01*
X36706D02*
X37468D01*
X36706Y33493D02*
Y34001D01*
X36198Y33493D02*
X36706D01*
X36195Y36068D02*
X36703D01*
Y36576D01*
X37465D01*
Y36068D02*
Y36576D01*
Y36068D02*
X37973D01*
X36449Y30988D02*
Y31242D01*
X34671D02*
X36449D01*
X34671Y30988D02*
Y31242D01*
X35179Y30988D02*
X35941D01*
X34671D02*
X35179D01*
Y31242D02*
Y31750D01*
X35941D01*
Y31242D02*
Y31750D01*
Y30988D02*
X36449D01*
X35941Y36068D02*
X36449D01*
X35941D02*
Y36576D01*
X35179D02*
X35941D01*
X35179Y36068D02*
Y36576D01*
X34671Y36068D02*
X35179D01*
D17*
X33909Y27940D02*
X39751D01*
X33909Y30480D02*
X39751D01*
X33909Y33020D02*
X39751D01*
X33909Y35560D02*
X39751D01*
X33909Y38100D02*
X39751D01*
D18*
X31750Y26700D02*
X34220D01*
X31750D02*
Y39370D01*
X34220D01*
Y26700D02*
Y39370D01*
X39370Y26700D02*
X41840D01*
X39370D02*
Y39370D01*
X41840D01*
Y26700D02*
Y39370D01*
X28170Y28487D02*
X27370D01*
Y27888D01*
X27770Y28088D01*
X27970D01*
X28170Y27888D01*
Y27488D01*
X27970Y27288D01*
X27570D01*
X27370Y27488D01*
X28569Y28487D02*
Y27688D01*
X28969Y27288D01*
X29369Y27688D01*
Y28487D01*
X27407Y31120D02*
Y29920D01*
Y30320D01*
X28206Y31120D01*
X27607Y30520D01*
X28206Y29920D01*
X29406Y31120D02*
X28606D01*
Y29920D01*
X29406D01*
X28606Y30520D02*
X29006D01*
X29806Y31120D02*
Y30920D01*
X30206Y30520D01*
X30606Y30920D01*
Y31120D01*
X30206Y30520D02*
Y29920D01*
X28188Y33553D02*
X27988Y33753D01*
X27588D01*
X27388Y33553D01*
Y33353D01*
X27588Y33153D01*
X27988D01*
X28188Y32953D01*
Y32753D01*
X27988Y32553D01*
X27588D01*
X27388Y32753D01*
X29388Y32553D02*
X28588D01*
X29388Y33353D01*
Y33553D01*
X29188Y33753D01*
X28788D01*
X28588Y33553D01*
X28176Y35927D02*
X27977Y36127D01*
X27577D01*
X27377Y35927D01*
Y35727D01*
X27577Y35527D01*
X27977D01*
X28176Y35327D01*
Y35127D01*
X27977Y34927D01*
X27577D01*
X27377Y35127D01*
X28576Y34927D02*
X28976D01*
X28776D01*
Y36127D01*
X28576Y35927D01*
X28176Y38527D02*
X27977Y38727D01*
X27577D01*
X27377Y38527D01*
Y37727D01*
X27577Y37527D01*
X27977D01*
X28176Y37727D01*
Y38127D01*
X27777D01*
X28576Y37527D02*
Y38727D01*
X29376Y37527D01*
Y38727D01*
X29776D02*
Y37527D01*
X30376D01*
X30576Y37727D01*
Y38527D01*
X30376Y38727D01*
X29776D01*
%TF.MD5,caf8c66c61f04debac5456d7018ed30b*%
M02*
